<svg id="Layer_1" data-name="Layer 1" xmlns="http://www.w3.org/2000/svg" viewBox="0 0 31 30"><defs><style>.cls-1{fill:#fff;}</style></defs><title>ITEMS-ICONS-MSWINDWS</title><path class="cls-1" d="M30.51,18.58a.38.38,0,0,0,0-.12v-.05a.45.45,0,0,0,0-.16l-.05-.12L24.65,8.56a.29.29,0,0,0-.07-.08.9.9,0,0,0-.23-.19.77.77,0,0,0-.38-.1H16.3V7.4a2.61,2.61,0,1,0-1.6,0v.79H7a.8.8,0,0,0-.38.1l0,0a.68.68,0,0,0-.18.15l0,0L.59,18.07a.81.81,0,0,0,.15,1A10.27,10.27,0,0,0,7,21.66a10.19,10.19,0,0,0,6.09-2.42.77.77,0,0,0,.58-.76.8.8,0,0,0-.41-.69l-4.85-8H14.7V22.1H13.31a.8.8,0,0,0,0,1.59H14.7v.41h-3a.8.8,0,1,0,0,1.59h3v.41H9.94a.8.8,0,0,0-.8.8.79.79,0,0,0,.8.79H21.06a.79.79,0,0,0,.8-.79.8.8,0,0,0-.8-.8H16.3v-.41h3a.8.8,0,1,0,0-1.59h-3v-.41h1.14a.8.8,0,1,0,0-1.59H16.3V9.78h6.26l-5,8.29,0,.06s0,.07,0,.11a.57.57,0,0,0,0,.16.45.45,0,0,0,0,.13,1.12,1.12,0,0,0,.05.22l0,.07a1.16,1.16,0,0,0,.11.16l0,.05,0,0A10.3,10.3,0,0,0,24,21.66a10.17,10.17,0,0,0,6.3-2.6l.08-.09s.07-.09.09-.13h0l0-.06a.19.19,0,0,0,0-.07h0l0-.05v0h0ZM7,20.06a7.1,7.1,0,0,1-3.1-.78h6.2A7.1,7.1,0,0,1,7,20.06Zm4.34-2.37H2.69L7,10.52Zm3.5-12h1.26A1,1,0,0,1,14.87,5.71Zm0-1.59a1,1,0,0,1,1.26,0Zm3,14.69ZM24,20.06a7.1,7.1,0,0,1-3.1-.78h6.2A7.1,7.1,0,0,1,24,20.06Zm-4.34-2.37L24,10.52l4.34,7.17Z"/></svg>