<svg id="Layer_1" data-name="Layer 1" xmlns="http://www.w3.org/2000/svg" viewBox="0 0 31 30"><defs><style>.cls-1{fill:#fff;}</style></defs><title>ITEMS-ICONS-MSWINDWS</title><path class="cls-1" d="M16.12.58a.94.94,0,0,0-1.24,0c-.31.28-7.63,6.93-7.63,15.33a8.53,8.53,0,0,0,7.32,8.2v4.61a.93.93,0,0,0,1.86,0V24.11a8.53,8.53,0,0,0,7.32-8.2C23.75,7.51,16.43.86,16.12.58Zm-1.55,3v6.92L11.7,7.65l0,0A26.87,26.87,0,0,1,14.57,3.6ZM10.74,9.33l3.83,3.83v3.9L9.66,12.15A17.32,17.32,0,0,1,10.74,9.33Zm3.83,12.89a6.7,6.7,0,0,1-5.45-6.31,11.72,11.72,0,0,1,.1-1.57l5.35,5.35Zm7.31-6.31a6.7,6.7,0,0,1-5.45,6.31V19.7l5.35-5.36A11.72,11.72,0,0,1,21.88,15.91Zm-.54-3.76-4.91,4.91v-3.9l3.83-3.83A17.32,17.32,0,0,1,21.34,12.15Zm-2-4.5-2.87,2.87V3.6a26.87,26.87,0,0,1,2.92,4Z"/></svg>