<svg id="Layer_1" data-name="Layer 1" xmlns="http://www.w3.org/2000/svg" viewBox="0 0 31 30"><defs><style>.cls-1{fill:#fff;}</style></defs><title>ITEMS-ICONS-MSWINDWS</title><path class="cls-1" d="M28.78,7.78a.6.6,0,0,0,0-.12l-.06-.14a1.29,1.29,0,0,0-.06-.12l-.09-.11-.09-.09-.12-.09-.11-.06L15.9,1.46a.93.93,0,0,0-.8,0L6.58,5.32a1,1,0,0,0-.5.54.91.91,0,0,0,0,.74,1,1,0,0,0,.54.51,1,1,0,0,0,.74,0L15.5,3.4l10,4.52L15.5,12.29,3.56,7.05s-.05,0-.1,0l-.07.24V7L3.18,7,3,7l-.36.14-.33.35.23.11-.26,0,0,.07v0L2.2,22a1,1,0,0,0,.57.88l12.29,5.67.06,0,.13.05.12,0h.29l.12,0,.13-.05,12.32-5.69A1,1,0,0,0,28.8,22v-14s0-.08,0-.12ZM2.58,7.52Zm.09-.1Zm.17-.12Zm.07,0Zm.13,0Zm.07,0ZM15.29,28.35Zm.49,0Zm11.08-7-10.39,4.8V16.89a1,1,0,1,0-1.94,0v9.26L4.14,21.35V9.42l11,4.82a1,1,0,0,0,.78,0l11-4.82Zm1.36-14Z"/></svg>