<svg id="Capa_1" data-name="Capa 1" xmlns="http://www.w3.org/2000/svg" viewBox="0 0 100 100"><defs><style>.cls-1{fill:#fff;}</style></defs><title>iconos-cableado-estr</title><path class="cls-1" d="M50,94.76A44.76,44.76,0,1,1,94.75,50,44.8,44.8,0,0,1,50,94.76ZM50,9.89A40.11,40.11,0,1,0,90.11,50,40.15,40.15,0,0,0,50,9.89Z"/><path class="cls-1" d="M44.81,60.42a20.67,20.67,0,0,1,1-7.32,11.37,11.37,0,0,1,3.4-4.64,23.41,23.41,0,0,0,3.57-3.61A5.86,5.86,0,0,0,54,41.25q0-4.78-4.13-4.79a3.81,3.81,0,0,0-3.07,1.4,5.88,5.88,0,0,0-1.24,3.77H34.87q.08-6.35,4-9.88c2.63-2.36,6.3-3.54,11-3.54s8.37,1.09,11,3.27,3.88,5.28,3.88,9.3a10.82,10.82,0,0,1-1.05,4.79A16,16,0,0,1,60.35,50L56.7,53.37a8.89,8.89,0,0,0-2.16,3.06,12.19,12.19,0,0,0-.66,4ZM43.5,70.06a4.92,4.92,0,0,1,1.7-3.85,6.69,6.69,0,0,1,8.47,0,5.21,5.21,0,0,1,0,7.7,6.69,6.69,0,0,1-8.47,0A4.92,4.92,0,0,1,43.5,70.06Z"/></svg>