<svg id="Capa_1" data-name="Capa 1" xmlns="http://www.w3.org/2000/svg" viewBox="0 0 60 60"><defs><style>.cls-1{fill:#ffffff;}</style></defs><title>SM-ICONS</title><path class="cls-1" d="M24.9,41.07c10.32,0,16-8.54,16-16,0-.24,0-.48,0-.72a11.35,11.35,0,0,0,2.8-2.9,11.63,11.63,0,0,1-3.22.88,5.62,5.62,0,0,0,2.46-3.1,11.19,11.19,0,0,1-3.56,1.36,5.61,5.61,0,0,0-9.7,3.83,5.4,5.4,0,0,0,.15,1.28A15.9,15.9,0,0,1,18.2,19.88a5.61,5.61,0,0,0,1.74,7.49,5.61,5.61,0,0,1-2.54-.7v.07a5.61,5.61,0,0,0,4.5,5.5,5.57,5.57,0,0,1-1.48.2,5.19,5.19,0,0,1-1.05-.11,5.61,5.61,0,0,0,5.23,3.9,11.18,11.18,0,0,1-7,2.4,9.94,9.94,0,0,1-1.34-.08,15.8,15.8,0,0,0,8.6,2.52"/><path class="cls-1" d="M30,55A25,25,0,0,1,9,16.38,25,25,0,1,1,35.2,54.45L35.09,54l.11.49A25.4,25.4,0,0,1,30,55ZM30,6A24,24,0,0,0,16.93,50.12,24,24,0,0,0,53.48,25,24.06,24.06,0,0,0,30,6Z"/></svg>