<svg id="Capa_1" data-name="Capa 1" xmlns="http://www.w3.org/2000/svg" viewBox="0 0 60 60"><defs><style>.cls-1,.cls-2{fill:#2a2a2a;}.cls-1{fill-rule:evenodd;}</style></defs><title>SM-ICONS</title><path class="cls-1" d="M42.45,24.74a6,6,0,0,0-1-2.62A3.68,3.68,0,0,0,38.91,21c-3.54-.26-8.86-.26-8.86-.26h0s-5.3,0-8.85.26a3.67,3.67,0,0,0-2.54,1.13,6,6,0,0,0-1,2.62A40.54,40.54,0,0,0,17.37,29v2a39.73,39.73,0,0,0,.26,4.25,6.09,6.09,0,0,0,1,2.64A4.1,4.1,0,0,0,21.45,39c2,.21,8.6.28,8.6.28s5.32,0,8.86-.28a3.52,3.52,0,0,0,2.53-1.12,6.09,6.09,0,0,0,1-2.64A41.3,41.3,0,0,0,42.7,31V29a42.14,42.14,0,0,0-.25-4.26Zm-8.18,5-6.85,3.69V26l3.1,1.69Z"/><path class="cls-2" d="M30,55A25,25,0,1,1,55,30,25,25,0,0,1,30,55ZM30,6A24,24,0,1,0,54,30,24,24,0,0,0,30,6Z"/></svg>