<?xml version="1.0" encoding="utf-8"?>
<!-- Generator: Adobe Illustrator 22.1.0, SVG Export Plug-In . SVG Version: 6.00 Build 0)  -->
<svg version="1.1" id="Capa_1" xmlns="http://www.w3.org/2000/svg" xmlns:xlink="http://www.w3.org/1999/xlink" x="0px" y="0px"
	 viewBox="0 0 536.5 74.5" style="enable-background:new 0 0 536.5 74.5;" xml:space="preserve">
<style type="text/css">
	.st0{fill:#FFFFFF;}
	.st1{fill:#C12622;}
</style>
<g>
	<g>
		<path class="st0" d="M78.2,20.3l11.3-0.9l0.3,4.1c0.7-0.8,1.6-1.5,2.5-2.1c0.9-0.6,2-1.1,3.3-1.6c1.3-0.4,2.8-0.8,4.5-1
			c1.7-0.2,3.6-0.3,5.8-0.3c2.1,0,3.8,0.1,5.2,0.4c1.4,0.3,2.5,0.6,3.4,1.1c0.8,0.5,1.5,1,1.9,1.6c0.4,0.6,0.7,1.3,0.9,1.9
			c1.6-1.6,3.6-2.8,6.2-3.7c2.6-0.9,6.2-1.3,10.8-1.3c3.2,0,5.7,0.5,7.5,1.4c1.7,0.9,3,2.3,3.8,4c0.8,1.7,1.1,3.7,1,6
			c-0.1,2.3-0.3,4.8-0.8,7.5l-5.7,34.1h-13.8l5.1-30.6c0.3-1.5,0.4-2.9,0.5-4c0.1-1.2,0-2.1-0.3-2.9c-0.3-0.8-0.9-1.3-1.6-1.7
			c-0.8-0.4-1.9-0.6-3.4-0.6c-1.8,0-3.2,0.2-4.4,0.6c-1.1,0.4-2.1,1.1-2.9,2c-0.8,0.9-1.3,2-1.8,3.4c-0.4,1.4-0.8,3.1-1.1,5.1
			l-4.8,28.7H98l5.1-30.6c0.3-1.5,0.4-2.9,0.5-4c0.1-1.2,0-2.1-0.3-2.9c-0.3-0.8-0.8-1.3-1.6-1.7c-0.8-0.4-1.9-0.6-3.4-0.6
			c-1.8,0-3.3,0.2-4.4,0.6c-1.2,0.4-2.1,1.1-2.9,2c-0.7,0.9-1.3,2.1-1.8,3.4c-0.4,1.4-0.8,3-1.2,5l-4.8,28.7H69.7L78.2,20.3z"/>
		<path class="st0" d="M162.2,72.2c-3.4,0-6.1-0.4-8.1-1.2c-2-0.8-3.5-2-4.5-3.4c-1-1.5-1.5-3.2-1.6-5.2c-0.1-2,0-4.1,0.4-6.5
			c0.6-3.7,1.6-6.7,3.1-9.1c1.4-2.4,3.4-4.3,5.8-5.7c2.4-1.4,5.4-2.4,8.8-3c3.5-0.6,7.5-0.9,12.2-0.9h1.8c0.2-2.1,0-3.7-0.8-4.7
			c-0.8-1-2.5-1.5-5-1.5c-2.9,0-5.5,0.3-7.8,0.8c-2.3,0.6-4.2,1.2-5.9,1.9l-3.7-11.2c2.5-1.2,5.5-2.2,8.9-3
			c3.4-0.8,7.5-1.1,12.2-1.1c3.6,0,6.6,0.3,8.8,1c2.3,0.6,4,1.7,5.2,3.1c1.2,1.4,1.9,3.2,2.2,5.5c0.2,2.2,0.1,5-0.4,8.2l-3.2,19.4
			c-0.3,1.6-0.3,2.7,0,3.2c0.3,0.6,1.2,0.8,2.9,0.8l-2,12c-0.8,0.1-1.5,0.2-2.1,0.2c-0.7,0-1.4,0-2,0c-1.7,0-3.1,0-4.2-0.1
			c-1.1-0.1-2.1-0.3-2.9-0.6c-0.8-0.3-1.4-0.8-1.8-1.3c-0.5-0.6-0.8-1.3-1-2.2c-1.7,1.6-3.7,2.9-6,3.6C169,71.8,166,72.2,162.2,72.2
			z M167.4,60.8c1.3,0,2.6-0.1,3.7-0.4c1.1-0.3,2.2-0.8,3-1.5c0.9-0.7,1.6-1.6,2.3-2.8c0.6-1.2,1.1-2.6,1.4-4.4l0.8-4.8h-1.7
			c-2.6,0-4.7,0.1-6.5,0.3c-1.8,0.2-3.2,0.6-4.4,1.2c-1.1,0.5-2,1.3-2.6,2.2c-0.6,1-1,2.2-1.3,3.6c-0.4,2.3-0.2,4,0.6,5
			C163.4,60.3,165,60.8,167.4,60.8z"/>
		<path class="st0" d="M219.8,56.2l-10.7,15.3H195l20-27.4l-10-24.7H220l5.3,13.2l9.1-13.2h14.1l-18.4,25.3l10.9,26.8h-15
			L219.8,56.2z"/>
		<path class="st0" d="M257.7,2.2h14l-2.1,12.6h-14L257.7,2.2z M254.8,19.4h13.9L260,71.5h-13.9L254.8,19.4z"/>
		<path class="st0" d="M288.1,72.3c-4.4,0-7.9-0.6-10.5-1.8c-2.6-1.2-4.5-3-5.8-5.3c-1.2-2.3-1.9-5.1-2-8.5
			c-0.1-3.3,0.2-7.1,0.9-11.3c0.7-4.2,1.6-7.9,2.8-11.2c1.2-3.3,2.8-6.1,4.9-8.4c2.1-2.3,4.7-4.1,7.8-5.3c3.1-1.2,7-1.8,11.7-1.8
			c3.4,0,6.2,0.2,8.3,0.7c2.1,0.5,4,1.2,5.6,2l-8.1,12c-1-0.6-2-1-3.2-1.3c-1.2-0.3-2.6-0.5-4.1-0.5c-1.8,0-3.3,0.3-4.6,0.8
			c-1.3,0.5-2.4,1.3-3.3,2.5c-0.9,1.1-1.6,2.6-2.2,4.4c-0.6,1.8-1.1,4-1.6,6.7c-0.9,5.2-0.8,8.9,0.1,11.1c0.9,2.2,3.3,3.3,7,3.3
			c1.8,0,3.4-0.2,4.8-0.6c1.4-0.4,2.9-0.9,4.2-1.5l3.5,10.6c-3,1.3-5.7,2.3-8.1,2.8C294,72,291.2,72.3,288.1,72.3z"/>
		<path class="st0" d="M328.6,72.3c-4.6,0-8.3-0.6-11-1.9c-2.7-1.3-4.8-3.1-6.1-5.4c-1.4-2.3-2.1-5.2-2.2-8.5
			c-0.1-3.3,0.2-7.1,0.8-11.2c0.7-4,1.6-7.7,2.8-11c1.2-3.3,2.9-6.1,5-8.5c2.1-2.4,4.8-4.2,7.9-5.4c3.2-1.3,7.1-1.9,11.7-1.9
			c4.7,0,8.4,0.6,11.1,1.9c2.8,1.3,4.8,3.1,6.1,5.5c1.3,2.4,2,5.2,2.1,8.5c0.1,3.3-0.2,6.9-0.9,11c-0.7,4.2-1.6,7.9-2.8,11.3
			c-1.2,3.3-2.8,6.2-4.9,8.5c-2.1,2.3-4.7,4.1-7.9,5.4C337.1,71.7,333.2,72.3,328.6,72.3z M330.6,60.2c2,0,3.7-0.3,4.9-1
			c1.3-0.7,2.3-1.6,3.1-2.8c0.8-1.2,1.5-2.7,1.9-4.5c0.5-1.8,0.9-3.8,1.3-6.1c0.4-2.3,0.6-4.3,0.7-6.1c0.1-1.8,0-3.3-0.4-4.5
			c-0.4-1.2-1.1-2.2-2.2-2.8c-1.1-0.6-2.6-1-4.6-1c-2,0-3.7,0.3-4.9,1c-1.3,0.6-2.3,1.6-3.1,2.8c-0.8,1.2-1.5,2.7-1.9,4.5
			c-0.5,1.8-0.9,3.8-1.3,6.1c-0.4,2.3-0.6,4.3-0.7,6.1c-0.1,1.8,0,3.3,0.4,4.5c0.4,1.2,1.1,2.2,2.2,2.8
			C327,59.9,328.6,60.2,330.6,60.2z"/>
		<path class="st0" d="M366,20.3l11.3-0.9l0.3,4.1c0.7-0.8,1.6-1.5,2.5-2.1c0.9-0.6,2-1.1,3.3-1.6c1.3-0.4,2.8-0.8,4.5-1
			c1.7-0.2,3.6-0.3,5.8-0.3c2.1,0,3.8,0.1,5.2,0.4c1.4,0.3,2.5,0.6,3.4,1.1c0.8,0.5,1.5,1,1.9,1.6c0.4,0.6,0.7,1.3,0.9,1.9
			c1.6-1.6,3.6-2.8,6.2-3.7c2.6-0.9,6.2-1.3,10.8-1.3c3.2,0,5.7,0.5,7.5,1.4c1.7,0.9,3,2.3,3.8,4c0.8,1.7,1.1,3.7,1,6
			c-0.1,2.3-0.3,4.8-0.8,7.5l-5.7,34.1h-13.8l5.1-30.6c0.3-1.5,0.4-2.9,0.5-4c0.1-1.2,0-2.1-0.3-2.9c-0.3-0.8-0.8-1.3-1.6-1.7
			c-0.8-0.4-1.9-0.6-3.4-0.6c-1.8,0-3.2,0.2-4.4,0.6c-1.1,0.4-2.1,1.1-2.9,2c-0.8,0.9-1.3,2-1.8,3.4c-0.4,1.4-0.8,3.1-1.1,5.1
			l-4.8,28.7h-13.8l5.1-30.6c0.3-1.5,0.4-2.9,0.5-4c0.1-1.2,0-2.1-0.3-2.9c-0.3-0.8-0.8-1.3-1.6-1.7c-0.8-0.4-1.9-0.6-3.4-0.6
			c-1.8,0-3.2,0.2-4.4,0.6c-1.2,0.4-2.1,1.1-2.9,2c-0.7,0.9-1.3,2.1-1.8,3.4c-0.4,1.4-0.8,3-1.2,5l-4.8,28.7h-13.7L366,20.3z"/>
		<path class="st0" d="M442.7,20.3l11.3-0.9l0.3,4.1c0.7-0.8,1.6-1.5,2.5-2.1c0.9-0.6,2-1.1,3.3-1.6c1.3-0.4,2.8-0.8,4.5-1
			c1.7-0.2,3.6-0.3,5.8-0.3c2.1,0,3.8,0.1,5.2,0.4c1.4,0.3,2.5,0.6,3.4,1.1c0.8,0.5,1.5,1,1.9,1.6c0.4,0.6,0.7,1.3,0.9,1.9
			c1.5-1.6,3.6-2.8,6.2-3.7c2.6-0.9,6.2-1.3,10.8-1.3c3.2,0,5.7,0.5,7.5,1.4c1.7,0.9,3,2.3,3.8,4c0.8,1.7,1.1,3.7,1,6
			c-0.1,2.3-0.3,4.8-0.8,7.5l-5.7,34.1h-13.8l5.1-30.6c0.3-1.5,0.4-2.9,0.5-4c0.1-1.2,0-2.1-0.3-2.9c-0.3-0.8-0.8-1.3-1.6-1.7
			c-0.8-0.4-1.9-0.6-3.4-0.6c-1.8,0-3.2,0.2-4.4,0.6c-1.1,0.4-2.1,1.1-2.9,2c-0.8,0.9-1.4,2-1.8,3.4c-0.4,1.4-0.8,3.1-1.1,5.1
			l-4.8,28.7h-13.8l5.1-30.6c0.3-1.5,0.4-2.9,0.5-4c0.1-1.2,0-2.1-0.3-2.9c-0.3-0.8-0.8-1.3-1.6-1.7c-0.8-0.4-1.9-0.6-3.4-0.6
			c-1.8,0-3.2,0.2-4.4,0.6c-1.2,0.4-2.1,1.1-2.9,2c-0.7,0.9-1.3,2.1-1.8,3.4c-0.4,1.4-0.8,3-1.2,5l-4.8,28.7h-13.7L442.7,20.3z"/>
	</g>
	<g>
		<path class="st0" d="M521.4,61.3h3.1v10.2h-2v-6.9c0-0.2,0-0.5,0-0.8c0-0.4,0-0.6,0-0.8l-1.9,8.6h-2.1l-1.9-8.6c0,0.2,0,0.5,0,0.8
			c0,0.4,0,0.6,0,0.8v6.9h-2V61.3h3.1l1.9,8L521.4,61.3z"/>
		<path class="st0" d="M533,61.6c0.4,0.2,0.7,0.4,1,0.7c0.2,0.3,0.4,0.5,0.5,0.9c0.1,0.3,0.2,0.7,0.2,1.1c0,0.5-0.1,1-0.4,1.4
			c-0.2,0.5-0.6,0.8-1.2,1c0.5,0.2,0.8,0.5,1,0.8c0.2,0.4,0.3,0.9,0.3,1.6v0.7c0,0.5,0,0.8,0.1,0.9c0.1,0.3,0.2,0.5,0.4,0.6v0.3
			h-2.4c-0.1-0.2-0.1-0.4-0.1-0.6c-0.1-0.3-0.1-0.6-0.1-0.9l0-0.9c0-0.7-0.1-1.1-0.3-1.3c-0.2-0.2-0.6-0.3-1.2-0.3h-2.1v4h-2.1V61.3
			h4.9C532.1,61.3,532.6,61.4,533,61.6z M528.6,63.1v2.7h2.3c0.5,0,0.8-0.1,1-0.2c0.4-0.2,0.6-0.6,0.6-1.2c0-0.6-0.2-1-0.6-1.3
			c-0.2-0.1-0.5-0.2-1-0.2H528.6z"/>
	</g>
	<g>
		<polygon class="st0" points="53,54.2 50,72.3 31.9,72.3 34.9,54.2 		"/>
		<polygon class="st1" points="37.9,36.1 34.9,54.2 16.8,54.2 19.8,36.1 		"/>
		<polygon class="st0" points="59,18 56,36.1 37.9,36.1 40.9,18 		"/>
		<polygon class="st0" points="22.8,18 19.8,36.1 1.7,36.1 4.7,18 		"/>
	</g>
</g>
</svg>
