<?xml version="1.0" encoding="utf-8"?>
<!-- Generator: Adobe Illustrator 22.0.1, SVG Export Plug-In . SVG Version: 6.00 Build 0)  -->
<svg version="1.1" id="Capa_1" xmlns="http://www.w3.org/2000/svg" xmlns:xlink="http://www.w3.org/1999/xlink" x="0px" y="0px"
	 viewBox="0 0 122 45.3" style="enable-background:new 0 0 122 45.3;" xml:space="preserve">
<style type="text/css">
	.st0{fill-rule:evenodd;clip-rule:evenodd;fill:#2A2A2A;}
	.st1{fill:#2A2A2A;}
</style>
<g>
	<polygon class="st0" points="94.8,6.1 94.8,38.1 115.7,38.1 115.7,28.1 106.3,28.1 106.3,6.1 	"/>
	<path class="st0" d="M109.2,10V6.6h-1.3V6.1h3.2v0.6h-1.3V10H109.2z M111.5,10V6.1h1l1,3.1l1-3.1h0.9V10h-0.6V6.7l-1,3.3h-0.6
		l-1-3.3V10H111.5z"/>
	<path class="st0" d="M19.3,16.3h-2.9v12.1h3.3c1,0,5-1,5-5.7C24.7,16.5,20.5,16.3,19.3,16.3z M46,20.9l-3.4-2.1l15.5-9.9l-6.5-4.7
		L35.1,14.9c0,0-4.3-8.8-12.6-8.8H4.6v32h19.8c9.5,0,11-9.7,11-9.7l17.2,10.2L72,25.7v12.4h20.9v-10h-9.4v-22H72v10.1L55.4,26.6
		l-3.1-1.9L68,14.8l-6.1-4.1L46,20.9z"/>
</g>
</svg>
