<?xml version="1.0" encoding="utf-8"?>
<!-- Generator: Adobe Illustrator 22.1.0, SVG Export Plug-In . SVG Version: 6.00 Build 0)  -->
<svg version="1.1" id="Capa_1" xmlns="http://www.w3.org/2000/svg" xmlns:xlink="http://www.w3.org/1999/xlink" x="0px" y="0px"
	 viewBox="0 0 27 20" style="enable-background:new 0 0 27 20;" xml:space="preserve">
<style type="text/css">
	.st0{fill:#FFFFFF;}
</style>
<g>
	<path class="st0" d="M25.9,4.7c0,0-0.3-1.8-1-2.6c-1-1-2-1.1-2.5-1.1c-3.5-0.3-8.9-0.3-8.9-0.3l0,0c0,0-5.3,0-8.8,0.3
		C4.1,1,3.1,1.1,2.1,2.1c-0.8,0.8-1,2.6-1,2.6S0.8,6.9,0.8,9v0.3V11c0,2.1,0.3,4.3,0.3,4.3s0.3,1.8,1,2.6c1,1.1,2.2,1,2.8,1.1
		c2,0.2,8.6,0.3,8.6,0.3s5.3,0,8.9-0.3c0.5-0.1,1.6-0.1,2.5-1.1c0.8-0.8,1-2.6,1-2.6s0.2-2.1,0.2-4.3V9.4V9
		C26.2,6.9,25.9,4.7,25.9,4.7L25.9,4.7z M17.7,9.7l-6.9,3.7V7.7V6L14,7.7L17.7,9.7z"/>
</g>
</svg>
