<?xml version="1.0" encoding="utf-8"?>
<!-- Generator: Adobe Illustrator 22.0.1, SVG Export Plug-In . SVG Version: 6.00 Build 0)  -->
<svg version="1.1" id="Layer_1" xmlns="http://www.w3.org/2000/svg" xmlns:xlink="http://www.w3.org/1999/xlink" x="0px" y="0px"
	 viewBox="0 0 256 243.5" style="enable-background:new 0 0 256 243.5;" xml:space="preserve">
<style type="text/css">
	.st0{fill:#FFFFFF;stroke:#000000;stroke-miterlimit:10;}
	.st1{fill:#C39D2B;}
	.st2{fill:#FFFFFF;}
</style>
<g>
	<path class="st1" d="M72.7,152.9c-0.1-1.6-0.4-3.1-1-4.5c-0.6-1.4-1.3-2.8-2.2-4.1c-0.4-0.5-0.7-0.6-1-0.6l-0.2,0
		c-0.3,0-0.5,0.1-0.7,0.2c-0.3,0.2-0.5,0.5-0.6,0.9c0,0.3,0,0.7,0.5,1.1c1,0.9,1.9,2,2.6,3.3c0.7,1.2,1.1,2.6,1.1,3.9
		c0,2.5-0.6,5-2,7.3c-1.2,2.1-2.9,4.1-4.9,5.7c-2,1.7-4.1,3-6.3,3.9c-1.4,0.6-2.9,1.2-4.3,1.6c-1.5,0.4-3,0.8-4.5,1
		c-1.4,0.2-2.8,0.4-4.2,0.4h-0.3c-1.3,0-2.6-0.1-3.8-0.4c-1.2-0.2-2.4-0.6-3.5-1c-1.1-0.5-2.1-1.1-3-1.9c-0.9-0.8-1.7-1.8-2.3-2.9
		c-0.6-1.1-1-2.3-1.3-3.5c-0.2-0.9-0.3-1.9-0.3-2.8c0-1,0-2,0.1-3c0.2-2.4,0.8-4.6,1.7-6.7c0.7-1.6,1.6-3.2,2.9-4.7
		c1.3-1.6,2.8-3,4.4-4.3c1.7-1.3,3.5-2.5,5.4-3.5c1.9-1,4-1.8,6.2-2.4c0.5-0.2,1-0.3,1.5-0.3c0.6-0.1,1.1-0.2,1.7-0.2
		c0.6-0.1,1.3-0.2,2-0.2c1.6-0.1,3.2-0.1,4.5,0c0.7,0,1.1,0,1.3,0l0.4,0l0.2-0.2c0.1-0.1,0.2-0.3,0.2-0.7c-0.1-0.5-0.5-0.7-0.8-0.7
		c-1.3,0-2.8,0.1-4.4,0.2c-1.5,0.1-2.8,0.1-3.9-0.2c-0.8-0.2-1.7-0.5-2.7-0.9c-0.9-0.3-1.7-0.8-2.4-1.2c-0.8-0.6-1.4-1.3-2-2.2
		c-0.5-0.8-0.9-1.7-1-2.7c-0.2-0.9-0.1-1.9,0.1-2.8c0.3-1,0.6-1.9,1.1-2.7c1-1.6,2.3-2.9,3.9-3.7c1.5-0.8,3.3-1.4,5.2-1.6
		c2.2-0.2,4,0,5.5,0.7c1.5,0.7,2.6,1.4,3.3,2.3c0.9,0.9,1.3,1.8,1.4,2.9c0.1,0.4,0.1,0.8-0.1,1.2c-0.1,0.4-0.3,0.9-0.5,1.3
		c-0.5,0.9-0.9,1.6-1.4,1.9c-0.5,0.3-1.2,0.6-2.3,0.9c-0.4,0.2-0.5,0.6-0.4,0.9c0.1,0.3,0.4,0.6,0.9,0.5c1.3-0.3,2.4-0.8,3.5-1.5
		c1.1-0.7,2-1.7,2.5-2.9c0.6-1,0.8-2.1,0.7-3.5c-0.1-0.7-0.3-1.4-0.6-2c-0.3-0.5-0.6-1.1-1-1.6c-1.5-1.9-3.5-3.2-6-3.7
		c-2.1-0.4-4.2-0.4-6.3,0.1c-2,0.5-4,1.4-5.8,2.6c-1.8,1.3-3.3,2.9-4.2,4.8c-1.1,2-1.5,4.1-1.2,6.3c0.1,1.1,0.5,2.2,1.1,3.2
		c0.6,0.9,1.3,1.7,2.2,2.4c0.8,0.7,1.8,1.2,2.9,1.6c0.2,0.1,0.5,0.2,0.7,0.3c-0.2,0-0.3,0.1-0.5,0.1c-1,0.2-1.9,0.5-2.8,0.8
		c-2.3,0.8-4.5,1.8-6.6,2.9c-2.1,1.1-4.1,2.5-5.9,4.1c-1.8,1.5-3.4,3.2-4.7,5.2c-1.3,1.9-2.4,4-3.1,6.3c-0.8,2.3-1.1,4.8-1.1,7.4
		c0,0.9,0,1.8,0.1,2.7c0.1,0.9,0.3,1.8,0.5,2.6c0.8,2.7,2.3,4.9,4.4,6.6c1.1,0.8,2.2,1.5,3.5,1.9c1.2,0.4,2.6,0.8,3.9,1
		c1.1,0.2,2.3,0.3,3.4,0.3c0.3,0,0.7,0,1,0c1.5-0.1,3-0.2,4.5-0.5c3.1-0.6,6.2-1.5,9-2.9c2.9-1.3,5.6-2.9,8.1-5
		c1.1-0.9,2.2-2,3.2-3.1c1-1.1,1.8-2.3,2.6-3.6c0.7-1.2,1.2-2.5,1.5-3.9C72.6,155.7,72.8,154.3,72.7,152.9z"/>
	<path class="st1" d="M170.8,145.8h-0.3c-0.1,0-0.4,0.1-0.6,0.3c-2,2.7-4,5.4-6,8c-2,2.7-4.1,5.3-6.2,7.7c-1.1,1.2-2.1,2.4-3.1,3.4
		c-0.9,1-1.9,1.9-2.9,2.8c-1,0.8-2.1,1.6-3.3,2.3c-1.2,0.7-2.5,1.4-4.1,2.1c-1.5,0.7-3,1.2-4.6,1.6c-1.4,0.3-2.8,0.5-4.3,0.5l0,0
		l-0.5,0c-1.5,0-2.9-0.3-4.3-0.7c-1.4-0.4-2.8-1-4-1.7c-1.3-0.7-2.4-1.7-3.5-2.7c-1-1.1-2-2.2-2.8-3.4c-0.9-1.3-1.6-2.7-2.2-4.1
		c-0.6-1.4-1.1-2.9-1.4-4.4c-0.8-3-1.2-6-1.2-9.1c0-3.1,0.2-6.2,0.8-9.2c1.1-6.2,3.3-12.2,6.6-17.6c1.6-2.7,3.4-5.1,5.3-7.3
		c1.9-2.2,4.2-4.1,6.9-5.7c2-1.3,4.1-2.2,6.2-2.9c2.1-0.7,4.6-1.2,7.4-1.6c2.7-0.3,5.6-0.3,8.3,0.2c1.3,0.3,2.6,0.7,3.8,1.3
		c1.2,0.6,2.3,1.4,3.3,2.4c1.1,1.1,1.9,2.3,2.3,3.7c0.5,1.4,0.6,2.9,0.6,4.4c-0.1,1.7-0.4,3.3-1,4.9c-0.6,1.6-1.2,3.2-2,4.7
		c-0.7,1.3-1.4,2.6-2.3,3.9c-0.8,1.3-1.7,2.5-2.7,3.7c-0.5,0.5-0.9,1-1.3,1.6c-0.4,0.5-0.8,1-1.3,1.5c-0.9,1-1.9,1.9-3,2.6
		c-0.6,0.3-1.3,0.8-2.3,1.2c-0.9,0.5-1.7,0.8-2.4,0.9c-0.5,0.1-0.9,0.3-1.1,0.6c-0.2,0.3-0.3,0.6-0.3,0.9c0,0.4,0.2,0.7,0.5,0.9
		c0.3,0.2,0.7,0.3,1.2,0.2c0.4,0,0.9-0.2,1.5-0.6c0.5-0.3,1-0.6,1.6-1c0.5-0.4,1.1-0.7,1.5-1.1l1-0.8c0.6-0.4,1.2-1.1,2-1.8
		c0.7-0.8,1.3-1.4,1.8-1.9c0.9-1.1,1.8-2.1,2.7-3.2c0.9-1.1,1.7-2.2,2.4-3.5c0.9-1.4,1.8-3,2.5-4.5c0.7-1.6,1.4-3.2,1.8-4.8
		c0.5-1.6,0.7-3.2,0.8-4.9c0-1.7-0.2-3.4-0.9-4.9c-0.5-1.4-1.4-2.7-2.4-3.7c-1.1-1-2.2-1.9-3.5-2.6c-1.3-0.7-2.6-1.2-4-1.4
		c-1.4-0.3-2.8-0.5-4.2-0.6c-1.5,0-3,0-4.4,0.2c-1.4,0.2-2.9,0.4-4.4,0.7c-1.3,0.3-2.6,0.7-3.9,1.1c-1.3,0.4-2.5,0.9-3.8,1.5
		c-2.8,1.3-5.4,3.1-7.8,5.1c-2.3,2-4.5,4.3-6.4,6.7c-1.9,2.5-3.7,5.2-5.1,8.1c-1.5,2.9-2.7,5.9-3.6,8.9c-0.9,3.1-1.6,6.2-2,9.3
		c-0.4,3.1-0.4,6.4-0.1,9.6c0.3,3.1,0.9,6.2,1.9,9.2c1,3,2.6,5.8,4.7,8.2c2.1,2.4,4.5,4.2,7.2,5.5c1.4,0.7,3,1.1,4.5,1.3
		c1.1,0.1,2.2,0.2,3.2,0.2c0.5,0,1,0,1.5,0c1.6-0.1,3.3-0.5,4.9-1c1.6-0.5,3.2-1.2,4.7-1.9c1.5-0.8,3-1.7,4.3-2.7
		c1.4-1,2.7-2,3.9-3.1c2.6-2.3,5-4.8,7.2-7.4c2.2-2.6,4.3-5.3,6.4-8.1c0.8-1.1,1.6-2.2,2.4-3.3c0.8-1.1,1.6-2.2,2.3-3.2
		c0.4-0.4,0.3-0.8,0-1.1L170.8,145.8z"/>
	<path class="st1" d="M184.2,142.1c0.4,0,0.9-0.3,1.5-0.8c0.6-0.6,1.3-1.4,2-2.3c0.7-1,1.2-1.9,1.5-2.7c0.2-0.4,0.6-1.6-0.1-2.1
		c-0.5-0.4-1.1-0.2-2.1,0.6c-0.7,0.6-1.4,1.4-2,2.4c-0.7,1-1.2,1.9-1.5,2.7c-0.2,0.4-0.6,1.6,0.2,2.2
		C183.8,142.1,184,142.1,184.2,142.1z"/>
	<path class="st1" d="M191.6,150.9h-0.3c-0.4,0-0.6,0.3-0.7,0.4c0,0-0.3,0.3-1.6,1.2c-1,0.7-2.2,1.3-3.5,2c-1.3,0.7-2.6,1.2-3.9,1.6
		c-1.1,0.3-1.9,0.4-2.5,0.2c0,0,0.1-0.1,0.1-0.2c0.3-0.5,0.7-1.1,1.3-1.8c0.6-0.7,1.2-1.4,1.9-2.2c0.7-0.8,1.3-1.5,1.8-2.2
		c0.5-0.8,0.9-1.4,0.9-1.9c0.1-0.4-0.1-0.7-0.2-0.9c-0.3-0.3-0.7-0.4-1.2-0.4c-0.9,0-1.9,0.2-2.8,0.7c-0.9,0.4-1.8,1-2.5,1.5
		c-0.8,0.6-1.4,1.1-1.9,1.5c-0.6,0.5-0.8,0.6-0.8,0.6c-0.3,0.1-0.5,0.4-0.6,0.6l0,0.4l0.2,0.2c0.2,0.2,0.4,0.2,0.6,0.2
		c0.2,0,0.4,0,0.6-0.3c0.1,0,0.4-0.3,0.9-0.8c0.5-0.5,1.1-0.9,1.7-1.4c0,0,0,0,0.1,0c-0.8,1.1-1.5,2.1-2.1,3c-0.4,0.6-0.7,1.1-1,1.6
		c-0.3,0.6-0.5,1-0.6,1.5c-0.1,0.5-0.2,1-0.1,1.3c0.1,0.5,0.6,0.9,1.2,0.9c0.2,0,0.4,0,0.6,0c0.7,0,1.6-0.1,2.6-0.4
		c1.4-0.3,2.8-0.8,4.2-1.4c1.4-0.6,2.9-1.2,4.4-2c1.4-0.8,2.6-1.6,3.6-2.5c0.3-0.3,0.3-0.7,0.1-1.1L191.6,150.9z"/>
	<path class="st1" d="M209.4,152.5c0.2-0.2,0.4-0.3,0.5-0.4l0.2-0.1l0.1-0.3c0.1-0.2,0-0.4-0.1-0.6l-0.2-0.3h-0.3
		c-0.2,0-0.4,0.1-0.6,0.3c0,0-0.2,0.1-0.4,0.3c-0.2,0.2-0.5,0.4-0.7,0.6l-0.8,0.6c-0.3,0.2-0.5,0.4-0.5,0.4l-0.8,0.6
		c-0.4,0.2-0.7,0.5-1.1,0.7c-0.3,0.2-0.6,0.4-1,0.7c-0.7,0.5-1.5,0.9-2.3,1.3c-0.7,0.4-1.5,0.7-2.2,1c-1.3,0.4-2.3,0.5-2.7,0
		c-0.3-0.4-0.4-0.8-0.2-1.4c0.1-0.2,0.1-0.4,0.2-0.6c0.4-0.2,0.9-0.3,1.4-0.5c0.7-0.2,1.3-0.4,1.7-0.7c0.5-0.2,1-0.5,1.5-0.7
		c0.5-0.2,1-0.5,1.5-0.9c0.4-0.3,0.8-0.6,1.2-1c0.4-0.4,0.8-0.8,1-1.3c0.3-0.5,0.4-0.9,0.4-1.4c-0.1-0.8-0.3-1.4-0.8-1.8
		c-0.4-0.4-1-0.7-1.6-0.8c-0.6-0.1-1.2-0.1-1.9,0c-0.7,0.1-1.3,0.4-1.7,0.6c-0.4,0.2-0.8,0.4-1.1,0.7c-0.3,0.3-0.7,0.6-1.1,1
		c-0.6,0.7-1.1,1.6-1.7,2.5c-0.6,1-1,1.9-1.3,2.9c-0.1,0.4-0.2,0.8-0.3,1.3c-0.1,0.5-0.1,0.9,0,1.4c0.2,0.8,0.6,1.5,1.2,1.9
		c0.5,0.3,1.2,0.5,2.1,0.5c0.1,0,0.2,0,0.3,0c0.9,0,1.7-0.2,2.4-0.4c0.9-0.3,1.7-0.6,2.5-1.1c0.8-0.4,1.6-0.9,2.3-1.3
		c0.4-0.2,0.7-0.5,1.1-0.7c0.3-0.2,0.6-0.4,1-0.7l0.9-0.7c0,0,0.2-0.1,0.4-0.3c0.2-0.2,0.5-0.4,0.8-0.6
		C208.9,152.9,209.2,152.7,209.4,152.5z M198,152.5c0.3-0.4,0.6-0.7,1-1.1c0.6-0.7,1.3-1.3,2-1.7c0.6-0.4,1.2-0.7,2-0.8
		c0.2,0,0.3,0,0.4,0c0.1,0,0.1,0,0.2,0.1c0,0,0.1,0.2,0,0.4c-0.1,0.2-0.2,0.3-0.3,0.4c-0.1,0.2-0.2,0.3-0.3,0.4
		c-0.3,0.3-0.7,0.7-1.1,0.9c-0.4,0.3-0.8,0.5-1.3,0.8c-0.7,0.4-1.4,0.7-2.3,1c-0.2,0.1-0.5,0.2-0.7,0.3
		C197.7,153,197.8,152.8,198,152.5z"/>
	<path class="st1" d="M235,147l-0.4-0.2c-1.1-0.2-2.3-0.3-3.6-0.3c-1.4,0.1-2.8,0.5-4.3,1.1c0,0,0,0-0.1,0c-0.4,0.1-4.1,2.1-4.9,2.6
		c-0.8,0.5-1.4,1.1-1.9,1.5c-0.6,0.5-0.8,0.6-0.8,0.6c-0.3,0.1-0.5,0.3-0.6,0.6l0,0.5l0.2,0.2c0.2,0.2,0.4,0.3,0.6,0.3
		c0.2,0,0.4,0,0.6-0.3c0.1-0.1,0.4-0.3,0.9-0.8c0.4-0.4,0.9-0.7,1.3-1.1c-0.2,0.3-0.3,0.6-0.5,0.9c-0.3,0.7-0.6,1.4-0.9,2.2
		c-0.2,1-0.3,1.9-0.2,2.7c0.2,1,0.9,1.6,2,1.8c0.2,0,0.3,0,0.5,0c0.7,0,1.5-0.2,2.4-0.5c1-0.4,1.9-0.9,2.8-1.4
		c1-0.5,1.9-1.2,2.7-1.9c0.9-0.8,1.6-1.5,2.2-2.4c0.8-1.2,1.1-2.2,0.9-3c-0.2-0.6-0.6-1.1-1.2-1.4c0,0-0.1,0-0.1-0.1
		c0.3,0,0.6,0.1,0.8,0.1l0.3,0.1c0.4,0,0.7-0.4,0.9-0.8c0.2-0.4,0.4-0.7,0.3-1L235,147z M229,148.9c-0.4,0.2-0.6,0.5-0.6,0.7
		c0,0.2,0,0.5,0.3,0.7c0.3,0.3,0.7,0.5,1.2,0.8c-0.1,0.3-0.2,0.7-0.4,1.1c-0.2,0.3-0.4,0.7-0.7,1c-0.7,0.7-1.3,1.3-1.8,1.7
		c-0.5,0.4-1.2,0.8-2,1.2c-0.7,0.3-1.3,0.5-1.7,0.5c-0.3,0.1-0.5-0.1-0.5-0.1c-0.2-0.3-0.3-0.7-0.2-1.2c0.1-0.5,0.2-0.9,0.4-1.3
		c0.2-0.4,0.5-1,0.9-1.6c0.6-1,1.4-1.7,2.2-2.2c0.9-0.5,1.7-0.9,2.7-1.1c0.3-0.1,0.6-0.1,0.9-0.2C229.3,148.8,229.1,148.9,229,148.9
		z"/>
	<path class="st1" d="M216.2,173l-0.3,0.1c-1,0.3-2,0.5-2.9,0.5c-0.8,0-1.4-0.4-2-1.2c-0.2-0.3-0.4-0.6-0.4-1
		c-0.1-0.4-0.1-0.9-0.1-1.4c0-0.6,0-1.2,0.1-1.9c0.1-0.6,0.2-1.3,0.3-1.9c0.4-1.7,0.9-3.3,1.5-4.8c0.6-1.6,1.3-3.2,2-4.7
		c1.5-3.3,3.2-6.6,5-9.8c0.7-1.3,1.4-2.5,2.1-3.8c0.7-1.2,1.4-2.5,2.2-3.7c0.4-0.6,0.7-1.3,1.1-1.9c0.4-0.6,0.8-1.3,1.2-1.9
		c0.8-1.5,1.6-2.9,2.4-4.3c0.8-1.4,1.6-2.9,2.3-4.4c0.4-0.8,0.7-1.6,1.1-2.4c0.4-0.8,0.7-1.7,1.1-2.6c0.2-0.7,0.5-1.3,0.7-2
		c0.2-0.7,0.3-1.5,0.4-2.2c0-0.4-0.1-0.9-0.2-1.3c-0.1-0.5-0.4-1-0.9-1.4c-0.6-0.5-1.3-0.9-2-1c-0.7-0.1-1.4-0.1-2,0
		c-0.6,0.1-1.2,0.2-1.8,0.4c-0.5,0.2-0.9,0.3-1.2,0.4c-0.4,0.2-0.5,0.6-0.4,0.9c0.1,0.3,0.4,0.5,0.7,0.5l0.3-0.1
		c0.4-0.2,1-0.3,1.5-0.5c0.4-0.1,0.7,0,1.1,0.2c0.1,0.1,0.3,0.3,0.4,0.8c0,0.5,0,0.9-0.1,1.3c-0.1,0.8-0.2,1.5-0.4,2.1
		c-0.2,0.7-0.4,1.4-0.7,2.1c-0.3,0.9-0.7,1.7-1,2.5l-1.1,2.5c-0.6,1.4-1.3,2.7-2,4.1c-0.7,1.3-1.4,2.7-2.1,4l-1.1,2
		c-0.3,0.6-0.7,1.3-1.1,1.9c-0.7,1.3-1.5,2.7-2.1,4.1c-0.7,1.3-1.4,2.7-2.1,4c-0.8,1.7-1.6,3.3-2.4,5c-0.8,1.7-1.5,3.4-2.2,5.2
		c-0.6,1.6-1.2,3.2-1.7,4.8c-0.5,1.6-0.9,3.3-1.1,4.9c-0.2,1.3-0.3,2.6-0.1,3.9c0.1,0.5,0.2,1,0.4,1.4c0.2,0.5,0.5,1,0.9,1.4
		c0.8,0.9,1.9,1.3,3.1,1.3c0.1,0,0.3,0,0.4,0c1.2-0.1,2.4-0.3,3.5-0.7l0.3,0l0.4-0.6l-0.1-0.3C216.8,173.2,216.5,173,216.2,173z"/>
	<path class="st1" d="M97.2,114.7c-0.6-0.5-1.3-0.9-2-1c-0.7-0.1-1.4-0.1-2,0c-0.6,0.1-1.2,0.2-1.8,0.4c-0.5,0.2-0.9,0.3-1.2,0.4
		c-0.4,0.2-0.5,0.6-0.4,0.9c0.1,0.3,0.3,0.5,0.7,0.5l0.3-0.1c0.4-0.2,1-0.3,1.5-0.5c0.4-0.1,0.7,0,1.1,0.2c0.1,0.1,0.3,0.3,0.4,0.8
		c0,0.5,0,0.9-0.1,1.3c-0.1,0.8-0.2,1.5-0.4,2.1c-0.2,0.7-0.4,1.4-0.7,2.1c-0.3,0.9-0.7,1.7-1,2.5l-1.1,2.5c-0.6,1.4-1.3,2.7-2,4.1
		c-0.7,1.3-1.4,2.7-2.1,4l-1.1,2c-0.3,0.6-0.7,1.3-1.1,1.9c-0.7,1.3-1.5,2.7-2.1,4.1c-0.7,1.3-1.4,2.7-2.1,4c-0.8,1.7-1.6,3.3-2.4,5
		c-0.8,1.7-1.5,3.5-2.2,5.2c-0.6,1.6-1.2,3.2-1.7,4.8c-0.5,1.6-0.9,3.3-1.1,4.9c-0.2,1.3-0.3,2.6-0.1,3.9c0.1,0.5,0.2,0.9,0.4,1.4
		c0.2,0.5,0.5,1,0.9,1.4c0.8,0.9,1.9,1.3,3.1,1.3c0.1,0,0.3,0,0.4,0c1.2-0.1,2.4-0.3,3.5-0.7l0.3,0l0.4-0.6l-0.1-0.3
		c-0.1-0.3-0.4-0.5-0.7-0.5l-0.3,0.1c-1,0.3-2,0.5-2.9,0.5c-0.8,0-1.4-0.4-2-1.2c-0.2-0.3-0.4-0.6-0.4-1c-0.1-0.4-0.1-0.9-0.1-1.4
		c0-0.6,0-1.2,0.1-1.9c0.1-0.6,0.2-1.3,0.3-1.9c0.4-1.6,0.9-3.3,1.5-4.8c0.6-1.6,1.3-3.2,2-4.7c1.5-3.3,3.2-6.6,5-9.8
		c0.7-1.3,1.4-2.5,2.1-3.8c0.7-1.2,1.4-2.5,2.2-3.7c0.4-0.6,0.7-1.3,1.1-1.9c0.4-0.6,0.8-1.3,1.2-1.9c0.8-1.5,1.6-2.9,2.4-4.3
		c0.8-1.5,1.6-2.9,2.3-4.4c0.4-0.8,0.7-1.6,1.1-2.4c0.4-0.8,0.7-1.7,1.1-2.6c0.2-0.7,0.5-1.3,0.7-2c0.2-0.7,0.4-1.5,0.4-2.2
		c0-0.4-0.1-0.9-0.2-1.3C98,115.6,97.7,115.1,97.2,114.7z"/>
</g>
<g>
	<g>
		<g>
			<path d="M40.5,199.7l2.1-4.7c0.1-0.2,0.1-0.4,0.1-0.5c0-0.2-0.1-0.3-0.4-0.3V194h2.7v0.2c-0.2,0-0.3,0.1-0.4,0.1
				c-0.1,0.1-0.2,0.3-0.3,0.6l-2.8,6c-0.1,0.3-0.2,0.4-0.2,0.5c0,0.2,0.1,0.3,0.4,0.4v0.2H39v-0.2c0.2,0,0.4-0.2,0.4-0.4
				c0-0.1-0.1-0.2-0.2-0.5l-2.8-6c-0.2-0.4-0.3-0.6-0.3-0.6c-0.1-0.1-0.2-0.1-0.4-0.1V194h2.8v0.2c-0.3,0.1-0.4,0.2-0.4,0.3
				c0,0.1,0,0.3,0.1,0.5L40.5,199.7z"/>
			<path d="M52.5,200.4h-3l-0.3,0.7c-0.1,0.2-0.1,0.3-0.1,0.4c0,0.2,0.1,0.3,0.4,0.4v0.2H47v-0.2c0.1,0,0.3-0.1,0.3-0.1
				c0.1-0.1,0.2-0.2,0.3-0.4l2.4-4.9c0.1-0.2,0.1-0.3,0.1-0.5c0-0.2-0.1-0.3-0.3-0.4v-0.2h2.6v0.2c-0.2,0.1-0.3,0.2-0.3,0.4
				c0,0.1,0,0.3,0.1,0.5l2.5,4.7c0.1,0.3,0.2,0.4,0.3,0.5c0.1,0.1,0.2,0.1,0.4,0.2v0.2h-2.7v-0.2c0.3,0,0.4-0.2,0.4-0.4
				c0-0.1,0-0.3-0.1-0.5L52.5,200.4z M52,199.5l-1.1-2.1l-1,2.1H52z"/>
			<path d="M60.8,200.9h3.7c0.1,0,0.2,0,0.3-0.1c0.1-0.1,0.1-0.2,0.2-0.3h0.2v1.9H65c0-0.1-0.1-0.2-0.2-0.3
				c-0.1-0.1-0.2-0.1-0.3-0.1h-5.6v-0.2c0.1,0,0.2-0.1,0.3-0.2c0.1-0.1,0.1-0.2,0.1-0.3v-5.4c0-0.1,0-0.2-0.1-0.3
				c-0.1-0.1-0.2-0.1-0.3-0.2v-0.2h2.3v0.2c-0.1,0-0.2,0.1-0.3,0.2c-0.1,0.1-0.1,0.2-0.1,0.3V200.9z"/>
			<path d="M70.7,200.9h3.7c0.1,0,0.2,0,0.3-0.1c0.1-0.1,0.1-0.2,0.2-0.3H75v1.9h-0.2c0-0.1-0.1-0.2-0.2-0.3
				c-0.1-0.1-0.2-0.1-0.3-0.1h-5.6v-0.2c0.1,0,0.2-0.1,0.3-0.2c0.1-0.1,0.1-0.2,0.1-0.3v-5.4c0-0.1,0-0.2-0.1-0.3
				c-0.1-0.1-0.2-0.1-0.3-0.2v-0.2h2.3v0.2c-0.1,0-0.2,0.1-0.3,0.2c-0.1,0.1-0.1,0.2-0.1,0.3V200.9z"/>
			<path d="M80.7,199.3v1.6h4.2c0.1,0,0.2,0,0.3-0.1c0.1-0.1,0.1-0.2,0.2-0.3h0.2v1.9h-0.2c0-0.1-0.1-0.2-0.2-0.3
				c-0.1-0.1-0.2-0.1-0.3-0.1h-6.1v-0.2c0.1,0,0.2-0.1,0.3-0.2c0.1-0.1,0.1-0.2,0.1-0.3v-5.4c0-0.1,0-0.2-0.1-0.3
				c-0.1-0.1-0.2-0.1-0.3-0.2v-0.2h5.9c0.1,0,0.2,0,0.3-0.1c0.1-0.1,0.1-0.2,0.2-0.3h0.2v1.9h-0.2c0-0.1-0.1-0.2-0.2-0.3
				c-0.1-0.1-0.2-0.1-0.3-0.1h-4v1.4h2.5c0.1,0,0.2,0,0.3-0.1c0.1-0.1,0.1-0.2,0.2-0.3h0.2v1.9h-0.2c0-0.1-0.1-0.2-0.2-0.3
				c-0.1-0.1-0.2-0.1-0.3-0.1H80.7z"/>
			<path d="M96,201.4v-6.8c0-0.1,0-0.2-0.1-0.3c-0.1-0.1-0.2-0.1-0.3-0.2V194h4.5c1,0,1.7,0.1,2.3,0.3c0.8,0.3,1.3,0.9,1.7,1.6
				c0.3,0.6,0.4,1.3,0.4,2.1c0,1.4-0.4,2.4-1.3,3.2c-0.4,0.3-0.8,0.5-1.3,0.7c-0.5,0.1-1.1,0.2-1.8,0.2h-4.5v-0.2
				c0.1,0,0.2-0.1,0.3-0.2C96,201.7,96,201.6,96,201.4z M97.7,200.7h2.2c0.7,0,1.2-0.1,1.6-0.3c0.8-0.4,1.1-1.2,1.1-2.4
				c0-0.9-0.2-1.5-0.6-2c-0.2-0.3-0.5-0.4-0.8-0.5c-0.3-0.1-0.7-0.2-1.3-0.2h-2.2V200.7z"/>
			<path d="M110.5,199.3v1.6h4.2c0.1,0,0.2,0,0.3-0.1c0.1-0.1,0.1-0.2,0.2-0.3h0.2v1.9h-0.2c0-0.1-0.1-0.2-0.2-0.3
				c-0.1-0.1-0.2-0.1-0.3-0.1h-6.1v-0.2c0.1,0,0.2-0.1,0.3-0.2c0.1-0.1,0.1-0.2,0.1-0.3v-5.4c0-0.1,0-0.2-0.1-0.3
				c-0.1-0.1-0.2-0.1-0.3-0.2v-0.2h5.9c0.1,0,0.2,0,0.3-0.1c0.1-0.1,0.1-0.2,0.2-0.3h0.2v1.9h-0.2c0-0.1-0.1-0.2-0.2-0.3
				c-0.1-0.1-0.2-0.1-0.3-0.1h-4v1.4h2.5c0.1,0,0.2,0,0.3-0.1c0.1-0.1,0.1-0.2,0.2-0.3h0.2v1.9h-0.2c0-0.1-0.1-0.2-0.2-0.3
				c-0.1-0.1-0.2-0.1-0.3-0.1H110.5z"/>
			<path d="M132.6,199.2h-2c-0.1,0-0.2,0-0.3,0.1c-0.1,0.1-0.1,0.2-0.1,0.3H130v-1.9h0.2c0,0.1,0.1,0.2,0.1,0.3
				c0.1,0.1,0.2,0.1,0.3,0.1h3.8v0.2c-0.1,0-0.2,0.1-0.3,0.2c-0.1,0.1-0.1,0.2-0.1,0.3v1.6c0,0.1,0,0.2,0.1,0.3
				c0.1,0.1,0.2,0.1,0.3,0.2v0.1c-1.5,0.9-3,1.3-4.4,1.3c-1.3,0-2.4-0.3-3.2-0.9c-1-0.8-1.5-1.9-1.5-3.2c0-1.3,0.5-2.3,1.4-3.1
				c0.9-0.7,2-1.1,3.5-1.1c0.5,0,0.9,0,1.3,0.1c0.4,0.1,0.9,0.2,1.4,0.4c0.3,0.1,0.5,0.2,0.6,0.2c0.1,0,0.2,0,0.3-0.1l0.2,0.1
				l-0.9,1.9l-0.2-0.1c0-0.1,0-0.2-0.1-0.3c0-0.1-0.1-0.1-0.2-0.2c-0.2-0.2-0.6-0.3-1.1-0.5c-0.5-0.1-0.9-0.2-1.3-0.2
				c-0.8,0-1.5,0.2-2.1,0.7c-0.6,0.5-0.9,1.2-0.9,2.1c0,0.8,0.3,1.5,0.9,2c0.6,0.5,1.3,0.7,2.2,0.7c0.4,0,0.9-0.1,1.3-0.2
				c0.4-0.1,0.8-0.2,1.1-0.4V199.2z"/>
			<path d="M145.5,196.1v3.5c0,0.8-0.2,1.4-0.5,1.8c-0.5,0.6-1.5,0.9-2.9,0.9c-0.9,0-1.7-0.1-2.3-0.4c-0.4-0.2-0.7-0.5-0.9-0.9
				c-0.1-0.4-0.2-0.8-0.2-1.3v-3.5c0-0.1,0-0.2-0.1-0.3c-0.1-0.1-0.2-0.1-0.3-0.2v-0.2h2.3v0.2c-0.1,0-0.2,0.1-0.3,0.2
				c-0.1,0.1-0.1,0.2-0.1,0.3v3.2c0,0.4,0,0.7,0.1,0.8c0.1,0.2,0.2,0.4,0.3,0.5c0.3,0.3,0.8,0.4,1.4,0.4c0.6,0,1.1-0.1,1.4-0.4
				c0.2-0.1,0.3-0.3,0.3-0.5c0.1-0.2,0.1-0.5,0.1-0.8v-3.2c0-0.1,0-0.2-0.1-0.3c-0.1-0.1-0.2-0.1-0.3-0.2v-0.2h2.2v0.2
				c-0.1,0-0.2,0.1-0.3,0.2C145.6,195.9,145.5,196,145.5,196.1z"/>
			<path d="M154.9,200.4h-3l-0.3,0.7c-0.1,0.2-0.1,0.3-0.1,0.4c0,0.2,0.1,0.3,0.4,0.4v0.2h-2.4v-0.2c0.1,0,0.3-0.1,0.3-0.1
				c0.1-0.1,0.2-0.2,0.3-0.4l2.4-4.9c0.1-0.2,0.1-0.3,0.1-0.5c0-0.2-0.1-0.3-0.3-0.4v-0.2h2.6v0.2c-0.2,0.1-0.3,0.2-0.3,0.4
				c0,0.1,0,0.3,0.1,0.5l2.5,4.7c0.1,0.3,0.2,0.4,0.3,0.5c0.1,0.1,0.2,0.1,0.4,0.2v0.2h-2.7v-0.2c0.3,0,0.4-0.2,0.4-0.4
				c0-0.1,0-0.3-0.1-0.5L154.9,200.4z M154.5,199.5l-1.1-2.1l-1,2.1H154.5z"/>
			<path d="M161.7,201.5v-5.4c0-0.1,0-0.2-0.1-0.3c-0.1-0.1-0.2-0.1-0.3-0.2v-0.2h3.9c0.8,0,1.4,0.1,1.9,0.3
				c0.7,0.3,1.1,0.7,1.4,1.4c0.2,0.5,0.3,1,0.3,1.6c0,1.1-0.3,2-1,2.6c-0.3,0.3-0.7,0.4-1.1,0.6c-0.4,0.1-0.9,0.2-1.5,0.2h-3.9v-0.2
				c0.1,0,0.2-0.1,0.3-0.2C161.7,201.7,161.7,201.6,161.7,201.5z M163.3,200.9h1.7c0.8,0,1.3-0.2,1.7-0.5c0.4-0.4,0.5-0.9,0.5-1.6
				c0-0.7-0.2-1.2-0.5-1.6c-0.2-0.2-0.4-0.3-0.7-0.4s-0.6-0.1-1-0.1h-1.7V200.9z"/>
			<path d="M177.8,200.4h-3l-0.3,0.7c-0.1,0.2-0.1,0.3-0.1,0.4c0,0.2,0.1,0.3,0.4,0.4v0.2h-2.4v-0.2c0.1,0,0.3-0.1,0.3-0.1
				c0.1-0.1,0.2-0.2,0.3-0.4l2.4-4.9c0.1-0.2,0.1-0.3,0.1-0.5c0-0.2-0.1-0.3-0.3-0.4v-0.2h2.6v0.2c-0.2,0.1-0.3,0.2-0.3,0.4
				c0,0.1,0,0.3,0.1,0.5l2.5,4.7c0.1,0.3,0.2,0.4,0.3,0.5c0.1,0.1,0.2,0.1,0.4,0.2v0.2h-2.7v-0.2c0.3,0,0.4-0.2,0.4-0.4
				c0-0.1,0-0.3-0.1-0.5L177.8,200.4z M177.3,199.5l-1.1-2.1l-1,2.1H177.3z"/>
			<path d="M186.1,200.9h3.7c0.1,0,0.2,0,0.3-0.1c0.1-0.1,0.1-0.2,0.2-0.3h0.2v1.9h-0.2c0-0.1-0.1-0.2-0.2-0.3
				c-0.1-0.1-0.2-0.1-0.3-0.1h-5.6v-0.2c0.1,0,0.2-0.1,0.3-0.2c0.1-0.1,0.1-0.2,0.1-0.3v-5.4c0-0.1,0-0.2-0.1-0.3
				c-0.1-0.1-0.2-0.1-0.3-0.2v-0.2h2.3v0.2c-0.1,0-0.2,0.1-0.3,0.2c-0.1,0.1-0.1,0.2-0.1,0.3V200.9z"/>
			<path d="M201,196.1v3.5c0,0.8-0.2,1.4-0.5,1.8c-0.5,0.6-1.5,0.9-2.9,0.9c-0.9,0-1.7-0.1-2.3-0.4c-0.4-0.2-0.7-0.5-0.9-0.9
				c-0.1-0.4-0.2-0.8-0.2-1.3v-3.5c0-0.1,0-0.2-0.1-0.3c-0.1-0.1-0.2-0.1-0.3-0.2v-0.2h2.3v0.2c-0.1,0-0.2,0.1-0.3,0.2
				c-0.1,0.1-0.1,0.2-0.1,0.3v3.2c0,0.4,0,0.7,0.1,0.8c0.1,0.2,0.2,0.4,0.3,0.5c0.3,0.3,0.8,0.4,1.4,0.4c0.6,0,1.1-0.1,1.4-0.4
				c0.2-0.1,0.3-0.3,0.3-0.5c0.1-0.2,0.1-0.5,0.1-0.8v-3.2c0-0.1,0-0.2-0.1-0.3c-0.1-0.1-0.2-0.1-0.3-0.2v-0.2h2.2v0.2
				c-0.1,0-0.2,0.1-0.3,0.2C201,195.9,201,196,201,196.1z"/>
			<path d="M207.3,199.4v2.1c0,0.1,0,0.2,0.1,0.3c0.1,0.1,0.2,0.1,0.3,0.2v0.2h-2.3v-0.2c0.1,0,0.2-0.1,0.3-0.2
				c0.1-0.1,0.1-0.2,0.1-0.3v-5.4c0-0.1,0-0.2-0.1-0.3c-0.1-0.1-0.2-0.1-0.3-0.2v-0.2h4.3c0.8,0,1.5,0.1,1.9,0.4
				c0.3,0.1,0.4,0.4,0.6,0.6c0.1,0.3,0.2,0.6,0.2,0.9c0,0.7-0.2,1.1-0.7,1.5c-0.4,0.3-1.1,0.5-2.1,0.5H207.3z M207.3,198.2h2.2
				c0.4,0,0.7,0,0.9-0.1c0.2-0.1,0.4-0.3,0.4-0.6c0-0.3-0.1-0.5-0.4-0.6c-0.2-0.1-0.4-0.1-0.9-0.1h-2.2V198.2z"/>
			<path d="M218.2,199.3v1.6h4.2c0.1,0,0.2,0,0.3-0.1c0.1-0.1,0.1-0.2,0.2-0.3h0.2v1.9h-0.2c0-0.1-0.1-0.2-0.2-0.3
				c-0.1-0.1-0.2-0.1-0.3-0.1h-6.1v-0.2c0.1,0,0.2-0.1,0.3-0.2c0.1-0.1,0.1-0.2,0.1-0.3v-5.4c0-0.1,0-0.2-0.1-0.3
				c-0.1-0.1-0.2-0.1-0.3-0.2v-0.2h5.9c0.1,0,0.2,0,0.3-0.1c0.1-0.1,0.1-0.2,0.2-0.3h0.2v1.9h-0.2c0-0.1-0.1-0.2-0.2-0.3
				c-0.1-0.1-0.2-0.1-0.3-0.1h-4v1.4h2.5c0.1,0,0.2,0,0.3-0.1c0.1-0.1,0.1-0.2,0.2-0.3h0.2v1.9h-0.2c0-0.1-0.1-0.2-0.2-0.3
				c-0.1-0.1-0.2-0.1-0.3-0.1H218.2z"/>
		</g>
	</g>
</g>
<path class="st1" d="M158,42.7c2.9,6.1,3.8,12.4,2.7,19c-1.2,6.7-4.2,12.4-8.9,17.1c-6.3,6.3-13.8,9.4-22.6,9.5
	c-8.8-0.1-16.3-3.3-22.6-9.5c-6.3-6.3-9.5-13.8-9.4-22.5c0-8.9,3.2-16.4,9.4-22.6c9.7-9.7,23.8-12.1,36.2-6.3l-2.2,2.2
	c-5.5-2.3-11.1-2.9-17-1.7c-5.8,1.1-10.8,3.8-15,7.9c-5.8,5.8-8.6,12.6-8.6,20.5c0,7.9,2.8,14.7,8.6,20.5c5.8,5.8,12.6,8.6,20.5,8.6
	c7.9,0,14.7-2.8,20.5-8.6c4.2-4.2,6.8-9.2,7.9-15c1.2-5.8,0.6-11.5-1.7-17L158,42.7z"/>
<polygon points="115.3,69.7 132.9,50.7 128.6,52.4 133.8,49.5 113.9,47.8 131.2,47.9 122.1,44.3 133.8,47.7 109.3,21.4 133,44.4 
	131.9,42.1 135.1,45.9 135.5,26 136.1,45.6 140.7,34.3 137.3,46 157.6,27.5 139.9,46.5 144.2,44.8 139,47.7 159,49.4 141.6,49.3 
	150.7,52.9 139,49.5 163.6,75.7 139.8,52.8 141,55.1 137.7,51.3 137.3,71.2 136.7,51.6 132.1,62.9 135.6,51.2 "/>
</svg>
