<?xml version="1.0" encoding="utf-8"?>
<!-- Generator: Adobe Illustrator 22.0.1, SVG Export Plug-In . SVG Version: 6.00 Build 0)  -->
<svg version="1.1" id="Capa_1" xmlns="http://www.w3.org/2000/svg" xmlns:xlink="http://www.w3.org/1999/xlink" x="0px" y="0px"
	 viewBox="0 0 64 63" style="enable-background:new 0 0 64 63;" xml:space="preserve">
<style type="text/css">
	.st0{fill-rule:evenodd;clip-rule:evenodd;fill:#2A2A2A;}
	.st1{fill:#2A2A2A;}
</style>
<g>
	<path class="st1" d="M54.5,60.4c1.4,0,2.5-1.1,2.5-2.5c0-1.4-1.1-2.5-2.5-2.5c-1.4,0-2.5,1.1-2.5,2.5C52,59.3,53.1,60.4,54.5,60.4
		 M53.8,59.4v-2.8h1.1 M55.6,59.4L54.9,58 M53.8,58h1.1 M54.9,58c0.3,0,0.6-0.3,0.6-0.6c0-0.4-0.3-0.7-0.6-0.7"/>
	<path class="st0" d="M54.6,45.6c-1.3,2.9-1.9,4.2-3.6,6.7c-2.3,3.6-5.6,8-9.7,8c-3.6,0-4.6-2.4-9.5-2.3c-4.9,0-5.9,2.4-9.6,2.3
		c-4.1,0-7.2-4-9.5-7.6c-6.5-9.9-7.2-21.6-3.2-27.8c2.9-4.4,7.4-7,11.6-7c4.3,0,7,2.4,10.6,2.4c3.5,0,5.6-2.4,10.6-2.4
		c3.8,0,7.8,2.1,10.6,5.6C43.7,28.6,45.2,42,54.6,45.6L54.6,45.6z"/>
	<path class="st0" d="M38.6,13.9c1.8-2.3,3.2-5.6,2.7-9c-3,0.2-6.4,2.1-8.5,4.6c-1.8,2.2-3.4,5.5-2.8,8.8
		C33.3,18.4,36.7,16.4,38.6,13.9L38.6,13.9z"/>
</g>
</svg>
