<svg xmlns="http://www.w3.org/2000/svg" viewBox="0 0 67.59 83.13"><defs><style>.cls-1{fill:#2c3438;}.cls-2{fill:#191a1b;}</style></defs><title>iconos-empresa</title><g id="Capa_1" data-name="Capa 1"><path class="cls-1" d="M41.73,11a6.94,6.94,0,1,0-10.44,6V79.06h7V17A6.92,6.92,0,0,0,41.73,11Zm-6.94,4.74A4.74,4.74,0,1,1,39.52,11,4.74,4.74,0,0,1,34.79,15.74Z"/><path class="cls-2" d="M38.29,79.81h-7a.75.75,0,0,1-.75-.75V17.41a7.69,7.69,0,1,1,8.5,0V79.06A.74.74,0,0,1,38.29,79.81ZM32,78.31h5.5V17a.77.77,0,0,1,.37-.65,6.19,6.19,0,1,0-6.24,0A.77.77,0,0,1,32,17Zm2.75-61.82A5.49,5.49,0,1,1,40.28,11,5.49,5.49,0,0,1,34.79,16.49Zm0-9.47a4,4,0,1,0,4,4A4,4,0,0,0,34.79,7Z"/><path class="cls-1" d="M20.73,30a6.94,6.94,0,1,0-10.44,6V79.06h7V36A6.92,6.92,0,0,0,20.73,30Zm-6.94,4.74A4.74,4.74,0,1,1,18.52,30,4.74,4.74,0,0,1,13.79,34.74Z"/><path class="cls-2" d="M17.29,79.81h-7a.75.75,0,0,1-.75-.75V36.41a7.69,7.69,0,1,1,8.5,0V79.06A.74.74,0,0,1,17.29,79.81ZM11,78.31h5.5V36a.77.77,0,0,1,.37-.65,6.19,6.19,0,1,0-6.24,0A.77.77,0,0,1,11,36Zm2.75-42.82A5.49,5.49,0,1,1,19.28,30,5.49,5.49,0,0,1,13.79,35.49Zm0-9.47a4,4,0,1,0,4,4A4,4,0,0,0,13.79,26Z"/><path class="cls-1" d="M60.73,30a6.94,6.94,0,1,0-10.44,6V79.06h7V36A6.92,6.92,0,0,0,60.73,30Zm-6.94,4.74A4.74,4.74,0,1,1,58.52,30,4.74,4.74,0,0,1,53.79,34.74Z"/><path class="cls-2" d="M57.29,79.81h-7a.75.75,0,0,1-.75-.75V36.41a7.69,7.69,0,1,1,8.5,0V79.06A.74.74,0,0,1,57.29,79.81ZM51,78.31h5.5V36a.77.77,0,0,1,.37-.65,6.19,6.19,0,1,0-6.24,0A.77.77,0,0,1,51,36Zm2.75-42.82A5.49,5.49,0,1,1,59.28,30,5.49,5.49,0,0,1,53.79,35.49Zm0-9.47a4,4,0,1,0,4,4A4,4,0,0,0,53.79,26Z"/></g></svg>