<svg xmlns="http://www.w3.org/2000/svg" viewBox="0 0 81.09 83.13"><defs><style>.cls-1{fill:#263238;}.cls-2{fill:#cacace;}.cls-3,.cls-4{fill:#191a1b;}.cls-3{stroke:#191a1b;stroke-linecap:round;stroke-linejoin:round;}</style></defs><title>iconos-empresa</title><g id="Capa_2" data-name="Capa 2"><path class="cls-1" d="M64.54,33.16,64.42,33l11-10.95a2.13,2.13,0,0,0,0-3L62.92,6.63a2.13,2.13,0,0,0-3,0L49,17.58l-.12-.12a2.13,2.13,0,0,0-3,0L31.17,32.12A8.65,8.65,0,0,0,30,42.89l-.46.83-3.72,3.72a2.13,2.13,0,0,0,0,3l1.36,1.35L6,73l3,3L30.2,54.81l1.35,1.36a2.13,2.13,0,0,0,3,0l4.32-4.33a8.64,8.64,0,0,0,11-1L64.54,36.17A2.13,2.13,0,0,0,64.54,33.16Zm-3.13-22,9.45,9.45L61.41,30,52,20.59Z"/><rect class="cls-1" x="60.17" y="14.29" width="3.24" height="3.75" transform="translate(6.67 48.43) rotate(-45)"/><rect class="cls-1" x="64.22" y="18.33" width="3.24" height="3.75" transform="translate(4.99 52.47) rotate(-45)"/><rect class="cls-1" x="56.97" y="17.49" width="3.24" height="3.75" transform="translate(3.47 47.1) rotate(-45)"/><rect class="cls-1" x="61.02" y="21.54" width="3.24" height="3.75" transform="translate(1.79 51.15) rotate(-45)"/><path class="cls-2" d="M75.28,18.08,62.83,5.63a2.12,2.12,0,0,0-3,0L49.18,16.28l2.94,3.07,9.21-9.21,9.45,9.45L61.37,29l3.36,3.51a2.88,2.88,0,0,0-.27-.34L64.33,32l11-10.95A2.13,2.13,0,0,0,75.28,18.08Z"/><rect class="cls-3" x="3.15" y="61.88" width="29.7" height="4.24" transform="translate(-39.98 31.47) rotate(-45)"/></g><g id="Capa_6" data-name="Capa 6"><path class="cls-4" d="M65.93,32.93l-1.41-1.41L63,33l.84.83a1.14,1.14,0,0,1,0,1.59L49.17,50.13a7.64,7.64,0,0,1-9.72.89l-.69-.47-4.91,4.91a1.12,1.12,0,0,1-1.59,0L30.2,53.39,9,74.58,7.42,73,28.61,51.81l-2.07-2.07a1.12,1.12,0,0,1,0-1.59l3.72-3.72.92-1.57-.33-.51a7.69,7.69,0,0,1,1-9.52L46.54,18.16a1.12,1.12,0,0,1,1.59,0L49,19l1.52-1.52-1.42-1.42-.18.19a3.1,3.1,0,0,0-3.75.5L30.46,31.42a9.68,9.68,0,0,0-1.6,11.49l-.11.2-3.62,3.63a3.11,3.11,0,0,0,0,4.41l.65.66L4.6,73,9,77.4,30.2,56.22l.65.65a3.1,3.1,0,0,0,2.21.92h0a3.1,3.1,0,0,0,2.2-.92L39,53.11a9.61,9.61,0,0,0,11.55-1.57L65.25,36.87a3.1,3.1,0,0,0,.5-3.75Z"/><polygon class="cls-4" points="62.15 30.71 72.28 20.59 61.41 9.72 51.13 20.01 52.56 21.4 61.41 12.55 69.45 20.59 60.72 29.32 62.15 30.71"/><path class="cls-4" d="M76.07,18.38,63.62,5.92a3.12,3.12,0,0,0-4.41,0L48.08,17.05l1.44,1.39,11.1-11.1a1.12,1.12,0,0,1,1.59,0L74.66,19.79a1.12,1.12,0,0,1,0,1.59L63.77,32.27l1.43,1.4L76.08,22.79A3.12,3.12,0,0,0,76.07,18.38Z"/><polygon class="cls-4" points="63.41 33.45 64.93 31.93 61.52 28.52 61.41 28.62 53.38 20.59 53.48 20.48 49.07 16.07 47.55 17.59 63.41 33.45"/></g></svg>