<svg xmlns="http://www.w3.org/2000/svg" viewBox="0 0 84.34 83.13"><defs><style>.cls-1{fill:#2c3438;}.cls-1,.cls-2,.cls-4,.cls-5,.cls-7{fill-rule:evenodd;}.cls-2{fill:#a8a8b1;}.cls-3{fill:#7f7f84;}.cls-4{fill:#97979a;}.cls-5{fill:#dcdce5;}.cls-6{fill:#fff;}.cls-7,.cls-8{fill:#191a1b;}</style></defs><title>iconos-empresa</title><g id="Capa_1" data-name="Capa 1"><path class="cls-1" d="M66.13,15.45l1.07,38s-.51.12-.29.55,0,.61,0,1,.3.7,0,1a3.84,3.84,0,0,1-2.7,1.45c-6,1-9,0-9,0l0,8h7l19,0-.1-48a14.62,14.62,0,0,1-3-2C77.12,14.43,66.13,15.45,66.13,15.45Z"/><path class="cls-2" d="M2.2,51.58l64-.13a22.5,22.5,0,0,1,1,4c0,1-5,3-9,2s-55,.11-55,.11Z"/><path class="cls-3" d="M60.54,58.23A10,10,0,0,1,58.09,58c-3.89-1-54.36.12-54.87.13H2.79l-1.18-7,65-.13.11.34a21.35,21.35,0,0,1,1,4.16,1.31,1.31,0,0,1-.62,1A12,12,0,0,1,60.54,58.23ZM43.68,56.55c7.48,0,13.37.11,14.65.43,3.8.94,8.13-.95,8.39-1.58A19.87,19.87,0,0,0,65.84,52l-63,.13.84,5C7.17,57,28.65,56.55,43.68,56.55Z"/><polygon class="cls-4" points="26.91 63 27.21 57.17 41.91 57 41.91 62 26.91 63"/><polygon class="cls-2" points="18.22 62.55 50.22 62.48 51.23 64.48 51.23 65.48 18.23 65.55 18.22 62.55"/><path class="cls-3" d="M17.73,66.05v-4L50.53,62l1.2,2.38V66Zm1-3v2l32-.07V64.6L49.91,63Z"/><polygon class="cls-5" points="2.63 16.08 2.7 52.08 66.7 51.95 66.63 14.95 2.63 16.08"/><polygon class="cls-6" points="17.63 16.05 62.7 50.96 66.7 50.95 65.63 14.95 17.63 16.05"/><path class="cls-7" d="M4.31,15.08,65.14,15l14,0a2.3,2.3,0,0,1,1.65.69h0a2.29,2.29,0,0,1,.69,1.65L81.6,64a2.35,2.35,0,0,1-.68,1.65,2.33,2.33,0,0,1-1.66.69l-22.09,0a2.3,2.3,0,0,1-1.65-.68l0,0a2.34,2.34,0,0,1-.65-1.61l0-5.79-12.05,0v3.4l8.28,0a.67.67,0,0,1,.67.67v3.37a.67.67,0,0,1-.67.67l-32.46.07a.67.67,0,0,1-.67-.67V62.43a.66.66,0,0,1,.66-.67l8.28,0v-3.4l-22.46,0a2.3,2.3,0,0,1-1.65-.68l0,0a2.34,2.34,0,0,1-.65-1.61V51.71L2,17.42a2.33,2.33,0,0,1,.64-1.61l0,0a2.32,2.32,0,0,1,1.42-.68h.23Zm26.37,40.2,8.25,0a.67.67,0,1,0,0-1.33H30.68a.67.67,0,1,0,0,1.34ZM67.5,26.67h7.61a.67.67,0,1,1,0,1.34H67.5l0,23.56V54.5h3.62a.66.66,0,0,1,.67.67v6a.66.66,0,0,1-.66.67h-6a.66.66,0,0,1-.67-.66V58.26l-8.39,0v5.79a1,1,0,0,0,.27.68l0,0a1,1,0,0,0,.71.29l22.09,0a1,1,0,0,0,.71-.29,1,1,0,0,0,.29-.71l-.1-46.76a1,1,0,0,0-1-1l-11.91,0h.06v0h0v0h0v0h0v0h0v0h0v0h0v0h0v0h0v0h0v0h0v0h0v0h0v0h0v0h0v0h0v0h0v0h0v9.38Zm-1.62,33.8h4.64V55.83h-3v.09a2.34,2.34,0,0,1-.68,1.65h-.07v0h-.14l0,0h-.76v2.3ZM3.39,51l62.82-.13,0-23.56V17.29h0v0h0v0h0v0h0v0h0v0h0v0h0v0h0v0h-.14v0h0a1.11,1.11,0,0,0-.34-.22h-.37l-60.82.13H4.23a1,1,0,0,0-.62.29h0a1,1,0,0,0-.29.71L3.39,51Zm62.82,1.21-62.82.13v3.67a1,1,0,0,0,.27.68l0,0a1,1,0,0,0,.71.29l23.13,0,14.56,0,13.39,0,9.73,0h0a1,1,0,0,0,.71-.29,1,1,0,0,0,.29-.71V52.25ZM41.43,58.31l-13.23,0v3.4l13.23,0v-3.4ZM19.27,65.13l31.12-.07V63l-8.28,0-14.57,0H19.26v2ZM65.41,16.32h0Z"/><path class="cls-8" d="M18.6,66.72a1,1,0,0,1-.65-.27.91.91,0,0,1-.27-.65V62.43a.9.9,0,0,1,.91-.92l8,0v-2.9l-22.21,0h0a2.56,2.56,0,0,1-1.83-.75l0-.05a2.58,2.58,0,0,1-.72-1.78V51.71L1.73,17.42a2.57,2.57,0,0,1,.71-1.78l0-.05a2.64,2.64,0,0,1,1.57-.75h.23l0,.25v-.25l74.85-.16h0a2.62,2.62,0,0,1,1.8.73l0,0a2.57,2.57,0,0,1,.76,1.83L81.84,64a2.48,2.48,0,0,1-.75,1.82,2.56,2.56,0,0,1-1.83.77l-22.09,0h0a2.57,2.57,0,0,1-1.83-.75l-.05-.05a2.57,2.57,0,0,1-.71-1.78V58.53L43,58.56v2.9l8,0h0a.88.88,0,0,1,.65.27.91.91,0,0,1,.27.65v3.37a.91.91,0,0,1-.27.65.93.93,0,0,1-.65.27l-32.46.07Zm8.51-8.63V62l-8.53,0a.4.4,0,0,0-.29.12.41.41,0,0,0-.12.3V65.8a.43.43,0,0,0,.12.29.43.43,0,0,0,.3.13h0l32.46-.07a.38.38,0,0,0,.29-.12.43.43,0,0,0,.13-.3V62.36a.41.41,0,0,0-.42-.42h0l-8.53,0v-3.9l12.55,0,0,6a2.08,2.08,0,0,0,2.09,2.08h0l22.09,0a2.07,2.07,0,0,0,1.48-.62,2,2,0,0,0,.6-1.47l-.09-46.76a2.06,2.06,0,0,0-.59-1.45l0,0a2.26,2.26,0,0,0-1.47-.61l-75.08.17a2.16,2.16,0,0,0-1.25.6,2.16,2.16,0,0,0-.6,1.48l.08,38.63a2.12,2.12,0,0,0,.58,1.44,2.09,2.09,0,0,0,1.51.64h0ZM19,65.38V62.84l31.63-.06v2.53Zm.49-2v1.54l30.62-.07V63.28Zm37.65,2a1.28,1.28,0,0,1-.88-.37,1.24,1.24,0,0,1-.37-.88V58l8.89,0v3.14a.41.41,0,0,0,.42.41h6a.4.4,0,0,0,.29-.12.42.42,0,0,0,.12-.3v-6a.41.41,0,0,0-.42-.42H67.31l-.06-27,7.86,0a.42.42,0,0,0,0-.84H67.25l0-9.66v-.15h0l0-.17h0l0-.08v-.06l-.94-.11.16.62.07,33.87-63.32.13L3.07,17.42a1.27,1.27,0,0,1,.36-.89l.15-.14h0a1.23,1.23,0,0,1,.58-.23H4.3L65.36,16v0l.19,0,0,0,1.53.51-.06-.13h0l0-.08h0l-.14-.35h.36l11.91,0h0a1.27,1.27,0,0,1,.89.36,1.29,1.29,0,0,1,.36.89L80.51,64a1.26,1.26,0,0,1-1.25,1.25l-22.09,0Zm-.76-6.79v5.54a.79.79,0,0,0,.2.51.8.8,0,0,0,.55.24h0l22.09,0A.75.75,0,0,0,80,64l-.1-46.76a.71.71,0,0,0-.22-.53.75.75,0,0,0-.53-.22h0l-11.54,0,0,.2h0l0,.09.09,0h-.09v.4l0,9.17h7.36a.92.92,0,0,1,.92.92.92.92,0,0,1-.92.92H67.75l.06,26h3.37a.88.88,0,0,1,.65.27.91.91,0,0,1,.27.65v6a.91.91,0,0,1-.26.65,1,1,0,0,1-.65.27h-6a.92.92,0,0,1-.92-.91V58.51ZM3.73,16.94a.79.79,0,0,0-.16.48l.07,33.37L66,50.66l-.07-33.4v-.05L65.8,17v0l-.07-.11h0l-.07-.07a.7.7,0,0,0-.25-.17l-.24-.05h-.1l-60.83.13a.67.67,0,0,0-.46.22ZM28,62v-3.9l13.73,0V62Zm.49-3.41v2.91l12.73,0v-2.9Zm37.19,2.14V58l.61-.27h0l.36-.25.08-.07a2.11,2.11,0,0,0,.62-1.49v-.34h3.45v5.13Zm.49-2.38v1.88h4.14V56.08H67.8a2.53,2.53,0,0,1-.75,1.67l-.19.16h0l-.3.22h0l0,.06h0ZM4.4,57.3a1.25,1.25,0,0,1-.88-.36,1.28,1.28,0,0,1-.37-.89V52.13L66.46,52v3.92a1.25,1.25,0,0,1-1.25,1.25L4.4,57.3Zm-.76-4.67v3.42a.74.74,0,0,0,.2.51.77.77,0,0,0,.55.24h0l60.81-.13a.75.75,0,0,0,.76-.75V52.5Zm27,2.9a1,1,0,0,1-.65-.27.91.91,0,0,1-.27-.65A1,1,0,0,1,30,54a.91.91,0,0,1,.65-.27h8.25a.9.9,0,0,1,.91.91.87.87,0,0,1-.26.65.91.91,0,0,1-.65.27l-8.25,0Zm8.25-1.35H30.68a.43.43,0,0,0-.29.12.41.41,0,0,0,0,.6.4.4,0,0,0,.29.12h0l8.25,0a.4.4,0,0,0,.29-.12.37.37,0,0,0,.12-.3.41.41,0,0,0-.41-.41Z"/></g><g id="Capa_2" data-name="Capa 2"><path class="cls-8" d="M20.16,37.7l8.08,3.76a1.66,1.66,0,0,0,.66.14A1.56,1.56,0,0,0,30.48,40v0a1.57,1.57,0,0,0-.91-1.42l-5.06-2.35,5.06-2.35a1.59,1.59,0,0,0,.91-1.43v0a1.58,1.58,0,0,0-1.58-1.57,1.55,1.55,0,0,0-.66.15l-8.08,3.76a1.57,1.57,0,0,0-.91,1.42v.11A1.59,1.59,0,0,0,20.16,37.7Z"/><path class="cls-8" d="M30.55,45.36a1.58,1.58,0,0,0,1.27.64h0a1.57,1.57,0,0,0,1.49-1.09l5.33-16.5a1.57,1.57,0,0,0-1.5-2.05h0a1.57,1.57,0,0,0-1.49,1.09L30.32,44A1.58,1.58,0,0,0,30.55,45.36Z"/><path class="cls-8" d="M38.52,32.44a1.59,1.59,0,0,0,.91,1.43l5.06,2.35-5.06,2.35A1.57,1.57,0,0,0,38.52,40v0A1.56,1.56,0,0,0,40.1,41.6a1.66,1.66,0,0,0,.66-.14l8.08-3.76a1.59,1.59,0,0,0,.91-1.43v-.11a1.57,1.57,0,0,0-.91-1.42L40.76,31a1.52,1.52,0,0,0-.66-.15,1.59,1.59,0,0,0-.85.25,1.57,1.57,0,0,0-.73,1.32v0Z"/></g></svg>