<svg xmlns="http://www.w3.org/2000/svg" viewBox="0 0 81.09 83.13"><defs><style>.cls-1{fill:#cacace;}.cls-1,.cls-3,.cls-5{stroke:#191a1b;stroke-miterlimit:10;stroke-width:2px;}.cls-2{fill:#191a1b;}.cls-3{fill:#2c3438;}.cls-4{fill:#fff;}.cls-5{fill:none;}</style></defs><title>iconos-empresa</title><g id="Capa_2" data-name="Capa 2"><path d="M71.54,16.86h-62V26.5h4.17v9.9h2.08v5.31a24.62,24.62,0,0,0,49.24,0V36.4h2.34V26.5h4.17ZM52,42.06A11.35,11.35,0,1,1,30.78,36.4H50.45A11.32,11.32,0,0,1,52,42.06Z"/><path class="cls-1" d="M51.4,36.5a12,12,0,1,1-21.8,0H16.51a24.94,24.94,0,0,0-.51,5,24.5,24.5,0,0,0,49,0,24.94,24.94,0,0,0-.51-5Z"/><circle class="cls-2" cx="41" cy="39" r="5.5"/><polygon class="cls-3" points="9.5 16.5 9.5 26.5 13.5 26.5 13.5 36.5 67.5 36.5 67.5 26.5 71.5 26.5 71.5 16.5 9.5 16.5"/></g><g id="Capa_6" data-name="Capa 6"><path class="cls-4" d="M52.5,41.5c0,.28,0,.55,0,.82l10.76,8.34A24.27,24.27,0,0,0,65,41.5a24.94,24.94,0,0,0-.41-4.44l-13,0A11.8,11.8,0,0,1,52.5,41.5Z"/><path class="cls-5" d="M51.4,36.5a12,12,0,1,1-21.8,0H16.51a24.94,24.94,0,0,0-.51,5,24.5,24.5,0,0,0,49,0,24.94,24.94,0,0,0-.51-5Z"/></g></svg>