<svg xmlns="http://www.w3.org/2000/svg" viewBox="0 0 90.42 83.13"><defs><style>.cls-1{fill:#cacace;}.cls-1,.cls-3{stroke:#191a1b;stroke-miterlimit:10;stroke-width:2px;}.cls-2{fill:#191a1b;}.cls-3{fill:none;}</style></defs><title>iconos-empresa</title><g id="Capa_3" data-name="Capa 3"><path class="cls-1" d="M85.66,50,71.41,77a5.59,5.59,0,0,1-4.2,2.76H10.09a4.54,4.54,0,0,1-4.55-4.54V30.86a4.55,4.55,0,0,1,4.54-4.55h4.18v3.87H11.48a2.08,2.08,0,0,0-2.07,2.07V73.83a2.06,2.06,0,0,0,2.06,2.06h2.86l13.5-27.31a4.61,4.61,0,0,1,3.73-2.76H64.63v-11A4.23,4.23,0,0,1,68.5,39v6.79H83.67C85.46,45.84,87,47.61,85.66,50Z"/></g><g id="Capa_4" data-name="Capa 4"><path class="cls-2" d="M55.25,33.15a1.43,1.43,0,0,0-1.43-1.43H25a1.43,1.43,0,0,0,0,2.85H53.82A1.43,1.43,0,0,0,55.25,33.15Z"/><path class="cls-2" d="M53.82,20.5H25a1.43,1.43,0,0,0,0,2.85H53.82a1.43,1.43,0,1,0,0-2.85Z"/><path class="cls-2" d="M25,45.87h.35A6.41,6.41,0,0,1,27.54,43H25a1.43,1.43,0,1,0,0,2.85Z"/><path class="cls-2" d="M58,16.31a1.28,1.28,0,0,1,1.28,1.27V41.91h2.13V15.24a1.19,1.19,0,0,0-.32-.82L51.39,3.93a1.22,1.22,0,0,0-.89-.39H20.63A3.23,3.23,0,0,0,17.4,6.77c0,.41-.12,40.93,0,54.37a2.13,2.13,0,0,0,.09.61l2.05-4.14V6.77a1.1,1.1,0,0,1,1.1-1.1H48.21A1.28,1.28,0,0,1,49.49,7v8.29a1.07,1.07,0,0,0,1.07,1.07Zm-6.32-9,6.29,6.84H51.63Z"/></g><g id="Capa_6" data-name="Capa 6"><path class="cls-3" d="M85.66,50,71.41,77a5.59,5.59,0,0,1-4.2,2.76H10.09a4.54,4.54,0,0,1-4.55-4.54V30.86a4.55,4.55,0,0,1,4.54-4.55h4.18v3.87H11.48a2.08,2.08,0,0,0-2.07,2.07V73.83a2.06,2.06,0,0,0,2.06,2.06h2.86l13.5-27.31a4.61,4.61,0,0,1,3.73-2.76H64.63v-11A4.23,4.23,0,0,1,68.5,39v6.79H83.67C85.46,45.84,87,47.61,85.66,50Z"/></g></svg>