<svg id="Layer_1" data-name="Layer 1" xmlns="http://www.w3.org/2000/svg" viewBox="0 0 31 30"><defs><style>.cls-1{fill:#fff;}</style></defs><title>ITEMS-ICONS-MSWINDWS</title><path class="cls-1" d="M29.23,12.59H27.44a13.24,13.24,0,1,0-1.55,9,1.2,1.2,0,1,0-2.08-1.21A10.85,10.85,0,1,1,25,12.59H23.21a.61.61,0,0,0-.55.35.6.6,0,0,0,.08.64l3,3.61a.59.59,0,0,0,.92,0l3-3.61a.6.6,0,0,0,.08-.64A.61.61,0,0,0,29.23,12.59Z"/><path class="cls-1" d="M14.42,4.76A1.21,1.21,0,0,0,13.21,6v7.31a2.1,2.1,0,0,0,1.21,3.83,2.19,2.19,0,0,0,.89-.2l4.19,2.41a1.19,1.19,0,0,0,.6.17,1.21,1.21,0,0,0,.6-2.25l-4.19-2.42a2.08,2.08,0,0,0-.89-1.54V6A1.21,1.21,0,0,0,14.42,4.76Zm0,11.14a.9.9,0,1,1,.9-.9A.9.9,0,0,1,14.42,15.9Z"/></svg>