<svg id="Layer_1" data-name="Layer 1" xmlns="http://www.w3.org/2000/svg" viewBox="0 0 31 30"><defs><style>.cls-1{fill:#fff;}</style></defs><title>ITEMS-ICONS-MSWINDWS</title><path class="cls-1" d="M26.51,13.56a3.61,3.61,0,0,0-1.7.37V10.48a2.16,2.16,0,0,0-2.16-2.15H18.94a3.73,3.73,0,0,0,.36-1.69A3.66,3.66,0,0,0,15.47,3a3.65,3.65,0,0,0-3.82,3.64A3.73,3.73,0,0,0,12,8.33H8.29a2.15,2.15,0,0,0-2.15,2.15v3.45a3.74,3.74,0,0,0-1.65-.34A3.66,3.66,0,0,0,.85,17.42a3.92,3.92,0,0,0,1,2.66,3.53,3.53,0,0,0,2.65,1.16,3.89,3.89,0,0,0,1.65-.33v3.94A2.15,2.15,0,0,0,8.29,27h5.8a1.22,1.22,0,0,0,1-.52,1.34,1.34,0,0,0,.14-1.22,3.15,3.15,0,0,0-.85-1.21,1.21,1.21,0,0,1-.5-1.13,1.42,1.42,0,0,1,1.57-1.39A1.42,1.42,0,0,1,17,22.92a1.31,1.31,0,0,1-.52,1.18,3.23,3.23,0,0,0-.81,1.15,1.27,1.27,0,0,0,.14,1.18A1.35,1.35,0,0,0,17,27h5.7a2.16,2.16,0,0,0,2.16-2.15v-4a3.74,3.74,0,0,0,1.7.36,3.65,3.65,0,0,0,3.64-3.82A3.66,3.66,0,0,0,26.51,13.56Zm0,6A1.74,1.74,0,0,1,25,18.84a3.85,3.85,0,0,0-.56-.49l-1.33-.89v7.39a.45.45,0,0,1-.45.45H17.74a3,3,0,0,0,1-2.38,3.12,3.12,0,0,0-3.28-3.09,3.12,3.12,0,0,0-3.28,3.09,2.87,2.87,0,0,0,1,2.37H8.29A.45.45,0,0,1,8,25.16a.4.4,0,0,1-.13-.31V19.16l-.06-.84H6.63l-.23.19c-.13.11-.24.22-.38.36a1.76,1.76,0,0,1-1.53.67,1.84,1.84,0,0,1-1.39-.6,2.27,2.27,0,0,1-.55-1.52A2,2,0,0,1,4.49,15.3,1.76,1.76,0,0,1,6,16a3.87,3.87,0,0,0,.47.43l1.36,1V10.48A.45.45,0,0,1,8.29,10h7.14l-.94-1.34A4.79,4.79,0,0,0,14,8.17a1.76,1.76,0,0,1-.67-1.53A2,2,0,0,1,15.47,4.7a2,2,0,0,1,2.12,1.94,1.77,1.77,0,0,1-.67,1.53,3.44,3.44,0,0,0-.47.52L15.52,10h7.13a.45.45,0,0,1,.45.45v6.85l1.33-.91a3.3,3.3,0,0,0,.55-.49,1.78,1.78,0,0,1,1.53-.66,2,2,0,0,1,1.94,2.12A2,2,0,0,1,26.51,19.51Z"/></svg>