<svg id="Layer_1" data-name="Layer 1" xmlns="http://www.w3.org/2000/svg" viewBox="0 0 31 30"><defs><style>.cls-1{fill:#fff;}</style></defs><title>ITEMS-ICONS-MSWINDWS</title><path class="cls-1" d="M15.08,29a1.16,1.16,0,0,0,.42.07,1.23,1.23,0,0,0,.42-.07C27.65,24.92,27.47,15.33,27.34,8.33h0c0-.74,0-1.44,0-2.11A1.29,1.29,0,0,0,26,4.93,13,13,0,0,1,16.39,1.3a1.28,1.28,0,0,0-1.78,0A13,13,0,0,1,5,4.93,1.29,1.29,0,0,0,3.69,6.22c0,.67,0,1.37,0,2.11C3.53,15.33,3.35,24.92,15.08,29ZM6.22,8.38l0-.92A15,15,0,0,0,15.5,4a15,15,0,0,0,9.26,3.51c0,.3,0,.61,0,.92.13,6.8.28,14.51-9.27,18C6,22.89,6.09,15.18,6.22,8.38Z"/><path class="cls-1" d="M13.26,18.57a1.3,1.3,0,0,0,.91.37,1.26,1.26,0,0,0,.9-.37l5.33-5.32a1.28,1.28,0,0,0-1.81-1.82l-4.42,4.42L12.41,14.1a1.25,1.25,0,0,0-.9-.37h0A1.26,1.26,0,0,0,10.23,15a1.3,1.3,0,0,0,.37.91Z"/></svg>