<svg id="Layer_1" data-name="Layer 1" xmlns="http://www.w3.org/2000/svg" viewBox="0 0 31 30"><defs><style>.cls-1{fill:#fff;}</style></defs><title>ITEMS-ICONS-MSWINDWS</title><path class="cls-1" d="M23.42,10.66H21a26.5,26.5,0,0,0,.25-3.52V7c0-.85,0-2.85-1.16-4a3,3,0,0,0-2.2-.87c-2.7,0-2.82,3-2.93,5.37-.16,3.71-.48,6-3.58,6H3a1,1,0,0,0-1,1V26.89a1,1,0,0,0,1,1H22.44c2,0,4.67-1.69,5.57-5.43l1-6.07a.86.86,0,0,0,0-.16A5.59,5.59,0,0,0,23.42,10.66ZM8.91,25.89H4V15.44h4.9ZM26,22.08c-.64,2.61-2.31,3.81-3.6,3.81H10.92V15.44h.41c5.25,0,5.46-4.94,5.59-7.89.12-2.7.32-3.44.92-3.44a1,1,0,0,1,.78.28c.58.58.57,2.05.57,2.6v.15a23.15,23.15,0,0,1-.42,4.33,1,1,0,0,0,.21.83,1,1,0,0,0,.78.37h3.66A3.59,3.59,0,0,1,27,16.15Z"/></svg>