<svg xmlns="http://www.w3.org/2000/svg" viewBox="0 0 192.66 124.8"><defs><style>.cls-1{fill:#606161;}</style></defs><title>LOGOS MAXIM GRIS</title><g id="Layer_2" data-name="Layer 2"><polygon class="cls-1" points="82.11 4.05 82.11 83.64 104.33 83.64 104.33 33.58 116.99 83.64 136.68 83.64 150.18 31.61 150.18 83.64 172.96 83.64 172.96 4.05 138.93 4.05 127.54 51.58 115.86 4.05 82.11 4.05"/><path class="cls-1" d="M73.66,40.43A17.69,17.69,0,0,0,81,25.57c0-10.52-8.19-22.8-31.3-22.8C27.94,2.77,18.56,14.36,17,25.21l-.49,3.51H38.2l.62-2.27c.85-3.15,2.42-6.5,10.33-6.5,4.25,0,9.32,1.1,9.32,6.33,0,3.42-.81,6.5-10.58,6.5H38.47v17H48.86c11.35,0,12.8,4.8,12.8,9,0,6.09-4.12,9.44-11.61,9.44-7,0-11.56-2.85-12.85-8l-.58-2.34H14.68L15,61.27c1.23,11.59,10.93,24,34.48,24,25.81,0,35-13.59,35-26.3A20.4,20.4,0,0,0,73.66,40.43Z"/><path class="cls-1" d="M18.38,114.26l-1.2,3.42H11.24l6.57-17.54H25.7l6.83,17.54H26.17l-1.27-3.42Zm5.46-3.8c-1-2.76-1.78-5.21-2.25-6.92h-.08c-.49,1.89-1.28,4.39-2.12,6.92Z"/><path class="cls-1" d="M41.24,112c0,1.35.62,2.7,2.35,2.7,1.4,0,1.8-.5,2.09-1.2h5.78c-.57,1.77-2.37,4.52-8,4.52-6,0-8.17-3.4-8.17-6.88,0-4,2.52-7.12,8.28-7.12,6.13,0,8,3.51,8,6.84a7.93,7.93,0,0,1-.06,1.14Zm4.47-2.59c0-1.24-.45-2.3-2.13-2.3s-2.18,1-2.28,2.3Z"/><path class="cls-1" d="M56.07,108.16c0-1.28,0-2.64,0-3.83h5.75a19.3,19.3,0,0,1,.14,2.17c.61-1.28,2.15-2.48,4.87-2.5v4.54c-3.33-.12-4.83.52-4.83,3.65v5.49H56.07Z"/><path class="cls-1" d="M86.92,111c0,4.16-3.08,7-8.51,7-5.61,0-8.39-3.11-8.39-7,0-4,2.9-7,8.58-7C83.82,104,86.92,106.94,86.92,111ZM76,111c0,2.54.89,3.66,2.46,3.66s2.39-1.13,2.39-3.62c0-2.75-.82-3.69-2.42-3.69S76,108.24,76,111Z"/><path class="cls-1" d="M95.9,113.55c.25.86,1.09,1.33,2.37,1.33s1.67-.3,1.67-.92-.7-.89-2.78-1.29c-5.45-1-6.24-2.55-6.24-4.43s1.61-4.24,7-4.24c5.17,0,7,2.24,7.17,4.12H99.84c-.12-.47-.47-1.15-2.06-1.15-1,0-1.43.37-1.43.82s.51.75,3.08,1.24c5,1,6.14,2.43,6.14,4.53,0,2.38-2.06,4.44-7.48,4.44-5.16,0-7.32-2.09-7.65-4.45Z"/><path class="cls-1" d="M115.73,116.74v5.82h-5.86V107.92c0-1.2,0-2.66,0-3.59h5.73a10,10,0,0,1,.15,1.49,5.26,5.26,0,0,1,4.43-1.82c3.34,0,6.2,2.33,6.2,6.68,0,4.94-3.3,7.32-6.95,7.32A4.68,4.68,0,0,1,115.73,116.74Zm4.62-5.86c0-2.47-.88-3.38-2.39-3.38-1.85,0-2.42,1.07-2.42,3.56,0,2.31.57,3.5,2.29,3.5S120.35,113.44,120.35,110.88Z"/><path class="cls-1" d="M145.35,113.72a33.55,33.55,0,0,0,.19,4h-5.43a5,5,0,0,1-.24-1.24c-.76.83-1.92,1.56-4.47,1.56-3.55,0-5.47-1.88-5.47-4.26,0-3.13,3-4.49,7.82-4.49h1.94v-.74c0-.85-.36-1.48-1.78-1.48s-1.68.52-1.82,1.38h-5.43c.21-2.23,1.78-4.42,7.4-4.41,5.19,0,7.29,1.71,7.29,4.93Zm-5.66-2h-1.3c-2,0-2.7.6-2.7,1.59,0,.78.55,1.41,1.73,1.41,2,0,2.27-1.15,2.27-2.59Z"/><path class="cls-1" d="M165.57,113.05c-.47,2.41-2.32,5-7.77,5s-8-3.08-8-6.88c0-4,2.95-7.12,8.23-7.12,6,0,7.46,3.4,7.56,5H160a1.77,1.77,0,0,0-1.94-1.68c-1.48,0-2.23,1.18-2.23,3.62,0,2.75.82,3.76,2.2,3.76a2,2,0,0,0,2-1.66Z"/><path class="cls-1" d="M175.07,112c0,1.35.61,2.7,2.35,2.7,1.39,0,1.79-.5,2.09-1.2h5.78c-.58,1.77-2.37,4.52-8,4.52-6,0-8.18-3.4-8.18-6.88,0-4,2.53-7.12,8.29-7.12,6.13,0,8,3.51,8,6.84a7.93,7.93,0,0,1-.06,1.14Zm4.46-2.59c0-1.24-.44-2.3-2.13-2.3s-2.17,1-2.27,2.3Z"/></g></svg>