<svg xmlns="http://www.w3.org/2000/svg" viewBox="0 0 237.75 124.8"><defs><style>.cls-1{fill:#606161;}</style></defs><title>LOGOS MAXIM GRIS</title><g id="Layer_2" data-name="Layer 2"><path class="cls-1" d="M52.19,94A39.27,39.27,0,1,1,90.3,64.25a43.38,43.38,0,1,0-33,29.37A39.46,39.46,0,0,1,52.19,94Z"/><path class="cls-1" d="M37.77,32.72c-.09-.09-.13-.14-.24-.08-1-.26-8-1.89-13.63,2.54a17.84,17.84,0,0,0-6.21,12A13,13,0,0,0,20.29,57c3.43,4,6,4.75,7.7,4.75h.19a6.12,6.12,0,0,0-1,.16,5.76,5.76,0,0,0-2.85,1.61C20.76,67.15,23,73.31,25,75.64s4.11,4.94,6.19,5h.07a1,1,0,0,0,1-.46c.33-.7-.59-1.81-.75-2a2,2,0,0,1,.31-2.53c.22-.23.46-.44.69-.66a8.93,8.93,0,0,0,1.94-2.27,8.29,8.29,0,0,0,.07-7.67,6.18,6.18,0,0,0-1.77-2,6.74,6.74,0,0,0-4.12-1.33c.28,0,.53-.08.73-.11l.34-.06a3.1,3.1,0,0,0,1.64-1.36A12.41,12.41,0,0,0,33,50.41C31.67,43.8,31.5,39.08,34.76,36l3-2.82,0,0A.28.28,0,0,0,37.77,32.72Z"/><path class="cls-1" d="M46.78,38.4C57.47,51.87,62.51,54.47,70.93,52.21c7.32-2,13.46-4.11,16.37,1.22A34.84,34.84,0,0,0,24.78,33.15C28.66,31.2,38.44,27.88,46.78,38.4Z"/><path class="cls-1" d="M33.38,80h5.25l-.33-.33H36.8a42.4,42.4,0,0,0,2.72-8.35S43.36,79,43.68,80h.56L49,70.29h.45l.71,9.95h4.41v-.67S52.18,80,51.86,75s-.6-10.66-.6-10.66H50.17l-5.64,12H44s-5.19-13.74-8.68-14.05v.4s4.59,5.08,1.41,11-3.49,5.68-3.49,5.68Z"/><path class="cls-1" d="M117.52,52.09c-3.78-10.36-7.77-19.21-7.77-19.21h-.92s-9.76,24-10.58,25.56-1.46,2.3-4,2.35v.72h9.19v-.82h-1.75s-.8-.83-.08-2.77,2-5.83,2-5.83h9s3.71,8.37,2.73,8.37v1h9.28v-.59S121.31,62.45,117.52,52.09Zm-12.83-2,3.84-9.66,3.27,9.66Z"/><path class="cls-1" d="M103.06,85.53c-3.79-10.36-7.77-19.21-7.77-19.21h-.92s-9.77,24-10.58,25.56-1.47,2.3-4,2.35V95H89v-.82H87.27s-.8-.83-.08-2.77,2-5.83,2-5.83h9s3.72,8.36,2.74,8.36V95h9.27v-.59S106.84,95.89,103.06,85.53Zm-12.83-2,3.83-9.66,3.27,9.66Z"/><path class="cls-1" d="M198.67,52.09c-3.78-10.36-7.77-19.21-7.77-19.21H190s-9.76,24-10.58,25.56-1.46,2.3-4,2.35v.72h9.19v-.82h-1.75s-.8-.83-.08-2.77,2-5.83,2-5.83h9s3.72,8.37,2.73,8.37v1h9.28v-.59S202.46,62.45,198.67,52.09Zm-12.83-2,3.84-9.66L193,50.11Z"/><path class="cls-1" d="M127,60.59c1.71-.11,1.37-3,1.37-3V35.66c0-1.65-3.47-1.71-3.47-1.71v-.74h11.72v.86a3.19,3.19,0,0,0-3.19,1.36s-.05,12.87,0,18.56,2.4,5.41,2.4,5.41h5.69c2.33,0,2.5-3.93,2.5-3.93h.68v3.07a3.13,3.13,0,0,1-1.47,3H125.61v-.8Z"/><path class="cls-1" d="M165.3,47.36v.74c2.91-.3,2.91,1.71,2.91,1.71V60.07a20.93,20.93,0,0,1-7.78-.73c-3.25-1.19-7.22-5.08-7.94-9.23s-.39-8.75,1.35-11.1,4.77-4.28,9.89-4,8.33,2.07,8.49,4.33c.1,1.33.12,1.72.13,1.83h1V33.85a80,80,0,0,0-11.19-1A18.23,18.23,0,0,0,151.7,36.5a12.68,12.68,0,0,0-4.61,7.18,16.21,16.21,0,0,0,.25,9.08A11.8,11.8,0,0,0,149,55.84a14.65,14.65,0,0,0,5.42,4.22,22.55,22.55,0,0,0,9.48,2.13,24.22,24.22,0,0,0,4.73-.45c.86-.17,1.71-.37,2.55-.62a13.07,13.07,0,0,0,2.57-.87l-.18-.34c0-1.1-.06-7.52,0-9.8.07-2.5,2.94-2,2.94-2v-.74Z"/><path class="cls-1" d="M172.35,41.2h0S172.35,41.27,172.35,41.2Z"/><path class="cls-1" d="M207.73,53.92h-.88v6.7a8.61,8.61,0,0,0,6.92,1.85c4.51-.55,8.21-3.38,8.54-7.89s-2.89-7.93-5.23-9.3-6.14-4.2-5.93-6.48,1.8-4.25,5.17-4a4.77,4.77,0,0,1,4.41,4.51h.92V33.68s-7.12-2.06-11.26.71-3.48,8.22-1.09,10.67,7.89,6.69,8.44,8.32.81,6.91-4.3,7S207.56,54.79,207.73,53.92Z"/><path class="cls-1" d="M62.38,95H74.64v-.8s-3.85,0-4-2,0-23.1,0-23.1.53-.76,3.09-.47S78.07,71,78,74.8s-1,6.18-5.75,6.61v.71a8.22,8.22,0,0,0,7.61-2.33c3.42-3.47,2.61-6.75,2.13-9s-4.28-4.18-5.8-4.09-14.11,0-14.11,0v.76s3.7-.61,3.8,1.48,0,21.48,0,21.48.09,3-1.76,3.42H62.52Z"/><path class="cls-1" d="M134.83,74.37H136V67.51A28.66,28.66,0,0,0,124.93,66c-4.34.44-8.92,2.17-11.81,5.61-3.18,3.79-3.44,9.26-1.84,13.78a14.58,14.58,0,0,0,4.18,6.23,15.32,15.32,0,0,0,8.29,3.42c2.93.33,6.11.74,9-.1,4-1.15,3.25-7.16,3.25-7.16h-.6s-.45,4.31-4.45,5a13.46,13.46,0,0,1-9.59-1.75c-4.93-3.27-6.66-10.16-5.18-15.68,1.1-4.1,4.6-7.51,10.41-7.36S135.2,70.72,134.83,74.37Z"/><path class="cls-1" d="M221.09,74.37h1.18V67.51A28.61,28.61,0,0,0,211.19,66c-4.34.44-8.92,2.17-11.81,5.61-3.18,3.79-3.44,9.26-1.83,13.78a14.47,14.47,0,0,0,4.17,6.23A15.32,15.32,0,0,0,210,95.05c2.93.33,6.12.74,9-.1,4-1.15,3.25-7.16,3.25-7.16h-.6s-.45,4.31-4.45,5a13.46,13.46,0,0,1-9.59-1.75c-4.93-3.27-6.66-10.16-5.18-15.68,1.1-4.1,4.6-7.51,10.41-7.36S221.46,70.72,221.09,74.37Z"/><path class="cls-1" d="M152.13,67.32v-.69H141v.62s2.64-.19,3.06,1.65V93.34c-.74,1.45-3.06.92-3.06.92V95h11.17v-.62s-2.64.18-3.06-1.66,0-1.81,0-1.81l-.22,0V69.1C149,66.59,152.13,67.32,152.13,67.32Z"/><path class="cls-1" d="M192.19,67.32v-.69H181v.62s2.64-.19,3.05,1.65V93.34c-.74,1.45-3.05.92-3.05.92V95h11.16v-.62s-2.64.18-3.05-1.66,0-1.81,0-1.81l-.23,0V69.1C189.06,66.59,192.19,67.32,192.19,67.32Z"/><path class="cls-1" d="M174.36,71.93h.83V66.41H156.92v1s3.68-.54,3.8,1.55,0,22.57,0,22.57,0,2.51-1.5,2.51h-1.51v.59h12V94h-2.51s-1.33.34-1.33-3.09V68.71h6.85S175.15,69,174.36,71.93Z"/><path class="cls-1" d="M165.16,78.66h8.11a1.1,1.1,0,0,0,.63-.84h.62v6.06h-1.13s.09-3.14-1.54-3.2-6.19,0-6.19,0Z"/><path class="cls-1" d="M226.89,89.46a9.11,9.11,0,0,1,1.3-.09,2.57,2.57,0,0,1,1.46.32,1,1,0,0,1,.4.8,1.09,1.09,0,0,1-.86,1h0a1,1,0,0,1,.66.77,8.07,8.07,0,0,0,.37,1.11h-.88a4.61,4.61,0,0,1-.32-.94c-.14-.52-.35-.68-.84-.69h-.44v1.63h-.85Zm.85,1.75h.51c.59,0,.94-.25.94-.65s-.35-.64-.92-.64a2.64,2.64,0,0,0-.53,0Z"/><path class="cls-1" d="M228.55,95a3.58,3.58,0,1,1,3.58-3.57A3.57,3.57,0,0,1,228.55,95Zm0-6.64a3.07,3.07,0,1,0,3.07,3.07A3.07,3.07,0,0,0,228.55,88.31Z"/><path class="cls-1" d="M65.32,105.56v7.51c0,1.85.68,2.44,1.52,2.44s1.56-.58,1.56-2.44v-7.51h2.15v7.21c0,2.94-1.38,4.33-3.71,4.33s-3.67-1.42-3.67-4.25v-7.29Z"/><path class="cls-1" d="M72.68,111c0-.93,0-1.59-.08-2.32h1.86l.1,1h0a2.76,2.76,0,0,1,2.31-1.1c1.64,0,2.5,1.06,2.5,3V117H77.27v-5.22c0-.83-.2-1.63-1.14-1.63a1.27,1.27,0,0,0-1.21,1,2.4,2.4,0,0,0-.1.74V117H72.68Z"/><path class="cls-1" d="M87.66,117.1c-2.07,0-3.49-1.46-3.49-4.23,0-3,1.74-4.28,3.57-4.28,2,0,3.45,1.5,3.45,4.23,0,3.33-2,4.28-3.51,4.28Zm.08-1.39c1.06,0,1.3-1.62,1.3-2.88S88.8,110,87.7,110s-1.39,1.65-1.39,2.85c0,1.39.28,2.88,1.41,2.88Z"/><path class="cls-1" d="M97.91,116.79a4.47,4.47,0,0,1-1.65.27c-2.33,0-3.87-1.45-3.87-4.16a4,4,0,0,1,4.21-4.29,4,4,0,0,1,1.41.23l-.33,1.44a3.15,3.15,0,0,0-1-.19c-1.38,0-2.1,1.26-2.1,2.78,0,1.69.8,2.71,2.1,2.71a2.76,2.76,0,0,0,1-.19Z"/><path class="cls-1" d="M100.69,113.33c0,1.84,1,2.35,2.17,2.35a5.23,5.23,0,0,0,1.74-.29l.33,1.29a7.73,7.73,0,0,1-2.45.38c-2.53,0-3.87-1.54-3.87-4.09,0-2.72,1.54-4.38,3.63-4.38s3.09,1.57,3.09,3.77a5.49,5.49,0,0,1-.06,1Zm2.65-1.29c0-1.32-.5-2.1-1.26-2.1-.92,0-1.35,1.14-1.39,2.1Zm1.46-6.68-2.06,2.33h-1.36l1.44-2.33Z"/><path class="cls-1" d="M112.83,115.08A11.08,11.08,0,0,0,113,117H111l-.12-.83h0a2.55,2.55,0,0,1-2.06,1,2.36,2.36,0,0,1-2.47-2.44c0-2.11,2.13-3,4.33-3v-.22A1.29,1.29,0,0,0,109.2,110a3.76,3.76,0,0,0-1.83.46l-.4-1.24a6.3,6.3,0,0,1,2.69-.59c2.53,0,3.17,1.45,3.17,3.21Zm-2.11-2.25c-.84,0-2.35.21-2.35,1.65a1.1,1.1,0,0,0,1.07,1.26,1.22,1.22,0,0,0,1.22-.94,1.4,1.4,0,0,0,.06-.43Z"/><path class="cls-1" d="M114.81,111c0-.93,0-1.59-.08-2.32h1.87l.1,1h0a2.74,2.74,0,0,1,2.3-1.1c1.65,0,2.51,1.06,2.51,3V117H119.4v-5.22c0-.83-.2-1.63-1.14-1.63a1.27,1.27,0,0,0-1.2,1,2.4,2.4,0,0,0-.1.74V117h-2.15Z"/><path class="cls-1" d="M126.63,117.1c-2.07,0-3.49-1.46-3.49-4.23,0-3,1.74-4.28,3.57-4.28,2,0,3.45,1.5,3.45,4.23,0,3.33-2,4.28-3.51,4.28Zm.08-1.39c1.06,0,1.3-1.62,1.3-2.88s-.24-2.85-1.34-2.85-1.39,1.65-1.39,2.85c0,1.39.28,2.88,1.41,2.88Z"/><path class="cls-1" d="M141.47,105.26v9.47c0,.68,0,1.61.08,2.23h-1.83l-.14-1h-.06a2.32,2.32,0,0,1-2,1.12c-1.91,0-3-1.74-3-4.23,0-2.89,1.48-4.28,3.07-4.28a1.81,1.81,0,0,1,1.7.9h0v-4.23Zm-2.13,6.61a2.28,2.28,0,0,0,0-.51,1.29,1.29,0,0,0-1.16-1.25c-1.09,0-1.47,1.3-1.47,2.78,0,1.65.53,2.72,1.43,2.72.4,0,.9-.17,1.16-1a1.38,1.38,0,0,0,.08-.53Z"/><path class="cls-1" d="M145.16,113.33c0,1.84,1,2.35,2.16,2.35a5.29,5.29,0,0,0,1.75-.29l.32,1.29a7.69,7.69,0,0,1-2.45.38c-2.53,0-3.87-1.54-3.87-4.09,0-2.72,1.55-4.38,3.63-4.38s3.09,1.57,3.09,3.77a5.49,5.49,0,0,1-.06,1ZM147.8,112c0-1.32-.5-2.1-1.26-2.1-.92,0-1.34,1.14-1.38,2.1Z"/><path class="cls-1" d="M154.5,111c0-.93,0-1.59-.08-2.32h1.87l.1,1h0a2.74,2.74,0,0,1,2.3-1.1c1.65,0,2.51,1.06,2.51,3V117h-2.15v-5.22c0-.83-.2-1.63-1.14-1.63a1.27,1.27,0,0,0-1.2,1,2.4,2.4,0,0,0-.1.74V117H154.5Z"/><path class="cls-1" d="M169.78,114.56c0,.9,0,1.71.08,2.4H168l-.12-.86h0a2.8,2.8,0,0,1-2.19,1c-1.78,0-2.5-1.14-2.5-3.28v-5.1h2.14v4.88c0,1.18.24,2,1.13,2a1.12,1.12,0,0,0,1.1-.81,1.88,1.88,0,0,0,.12-.71v-5.35h2.14Z"/><path class="cls-1" d="M174.36,106.68v2h1.88V110h-1.88v4.28c0,1,.46,1.27,1,1.27a3.52,3.52,0,0,0,.66-.06l0,1.41a6.13,6.13,0,0,1-1.4.13,2.71,2.71,0,0,1-1.73-.5c-.48-.41-.72-1-.72-2.24V110h-1.16v-1.31h1.16V107.3Z"/><path class="cls-1" d="M177.53,111c0-.76,0-1.62-.08-2.32h1.86l.12,1.24h.06a2.28,2.28,0,0,1,2-1.37c.2,0,.32,0,.46,0v1.8a3.24,3.24,0,0,0-.46,0,1.83,1.83,0,0,0-1.73,1.42,3.9,3.9,0,0,0-.08.78V117h-2.14Z"/><path class="cls-1" d="M184,107.62a1.05,1.05,0,1,1,1.19-1,1.05,1.05,0,0,1-1.19,1ZM183,117v-8.24h2.15V117Z"/><path class="cls-1" d="M188.84,113.33c0,1.84,1,2.35,2.16,2.35a5.24,5.24,0,0,0,1.75-.29l.32,1.29a7.69,7.69,0,0,1-2.45.38c-2.52,0-3.87-1.54-3.87-4.09,0-2.72,1.55-4.38,3.63-4.38s3.09,1.57,3.09,3.77a5.49,5.49,0,0,1-.06,1Zm2.64-1.29c0-1.32-.5-2.1-1.26-2.1-.92,0-1.34,1.14-1.38,2.1Z"/><path class="cls-1" d="M195,111c0-.93-.05-1.59-.09-2.32h1.87l.1,1h0a2.74,2.74,0,0,1,2.31-1.1c1.64,0,2.5,1.06,2.5,3V117h-2.14v-5.22c0-.83-.2-1.63-1.15-1.63a1.27,1.27,0,0,0-1.2,1,2.4,2.4,0,0,0-.1.74V117H195Z"/><path class="cls-1" d="M206.21,106.68v2h1.88V110h-1.88v4.28c0,1,.46,1.27,1,1.27a3.52,3.52,0,0,0,.66-.06l0,1.41a6.13,6.13,0,0,1-1.4.13,2.71,2.71,0,0,1-1.73-.5c-.48-.41-.72-1-.72-2.24V110H202.9v-1.31h1.16V107.3Z"/><path class="cls-1" d="M211,113.33c0,1.84,1,2.35,2.17,2.35a5.23,5.23,0,0,0,1.74-.29l.32,1.29a7.64,7.64,0,0,1-2.45.38c-2.52,0-3.87-1.54-3.87-4.09,0-2.72,1.55-4.38,3.63-4.38s3.09,1.57,3.09,3.77a5.49,5.49,0,0,1-.06,1Zm2.65-1.29c0-1.32-.5-2.1-1.27-2.1-.92,0-1.34,1.14-1.38,2.1Z"/><path class="cls-1" d="M217,115.25a3.62,3.62,0,0,0,1.68.44c.76,0,1.22-.33,1.22-.94s-.28-.85-1.18-1.34c-1.46-.73-2-1.52-2-2.35,0-1.42,1.22-2.47,3-2.47a4.29,4.29,0,0,1,1.87.4l-.42,1.34a2.84,2.84,0,0,0-1.35-.35c-.74,0-1.1.4-1.1.86s.24.69,1.16,1.2c1.31.66,2,1.47,2,2.5,0,1.68-1.38,2.52-3.23,2.52a4.34,4.34,0,0,1-2.09-.47Z"/></g></svg>