<svg xmlns="http://www.w3.org/2000/svg" viewBox="0 0 325.5 124.8"><defs><style>.cls-1{fill:#606161;}</style></defs><title>LOGOS MAXIM GRIS</title><g id="Layer_2" data-name="Layer 2"><polygon class="cls-1" points="3.96 88.2 17.75 73.42 17.75 49.81 40.84 49.81 55.48 36.27 3.96 36.27 3.96 88.2"/><polygon class="cls-1" points="11.72 93.58 25.68 79.62 48.42 79.62 48.42 56.91 63.06 43.44 63.06 92.71 11.72 93.58"/><path class="cls-1" d="M127.5,36.27H96.14L68.58,93.58H93l3.62-9h29.12l3.27,9h26.19ZM102.86,71.18l8.53-17.4,8.53,17.4Z"/><polygon class="cls-1" points="159.21 36.27 159.21 93.58 216.93 93.58 216.93 76.35 182.12 76.35 182.12 36.27 159.21 36.27"/><polygon class="cls-1" points="206.93 36.27 226.57 93.58 253.97 93.58 264.31 61.18 275.68 93.58 303.07 93.58 322.08 36.27 299.11 36.27 288.77 71.18 278.26 36.27 253.63 36.27 242.94 71.18 232.95 36.27 206.93 36.27"/></g></svg>