<svg xmlns="http://www.w3.org/2000/svg" viewBox="0 0 126.48 124.8"><defs><style>.cls-1{fill:#606161;}</style></defs><title>LOGOS MAXIM GRIS</title><g id="Layer_3" data-name="Layer 3"><path class="cls-1" d="M88.06,44.22V43.06l.29-.1,4.87-4.12V41.5L105.4,28.14l-.39-.43-9.23,7.12L95.22,33l-4,4.45.08-2.29-4.85,3.79v-3.1l-7.72,7.9V38.29L84,29.38l.55,3.11L92.28,16l-.5-.29-6.23,8.82V22.22l-6,10.36v-.8H78l0,.09V28.71H74.44v8.06l-2,1.83V36.75l-1.23,2a28.33,28.33,0,0,0-2.68-1.24l1.74-4.17.89,2.86,2.65-13,1.86,2.12L79.18,6l-5,12.12-.4-3L70.7,27,70,24.22,66.35,36l-1.12-1.12-2,5.28-1.86-24,0-.27H57.76V35.33h-.42c-.75,0-1.49,0-2.22.1l-1.51-4.75a.8.8,0,0,0-.88-.54L48,30.91a.79.79,0,0,0-.66.79L47.39,37a29.69,29.69,0,0,0-3.23,1.35l-3.54-3.65a.78.78,0,0,0-1-.1l-3.93,2.83a.79.79,0,0,0-.24,1l2.22,4.27a30.6,30.6,0,0,0-3.5,3.61L30,43.66a.78.78,0,0,0-1,.13l-3.19,3.63a.79.79,0,0,0,0,1l4.11,4.85q-.57,1.31-1,2.67l-6.05-.3a.79.79,0,0,0-.81.64l-.93,4.74a.78.78,0,0,0,.51.89L27.45,64c0,.41,0,.82,0,1.24,0,.78,0,1.55.1,2.31l-5.89,2a.79.79,0,0,0-.52.89l.9,4.75a.77.77,0,0,0,.8.64l6.46-.26c.33.9.71,1.79,1.12,2.65L26.14,82.6a.79.79,0,0,0-.06,1L29,87.48a.79.79,0,0,0,1,.21L34.88,85a29.56,29.56,0,0,0,2.62,2.63l-2.63,5.24a.79.79,0,0,0,.25,1l4,2.77a.78.78,0,0,0,1-.1l4.14-4.39c.89.43,1.8.82,2.73,1.16v6a.79.79,0,0,0,.67.78l4.79.69a.79.79,0,0,0,.87-.55l1.53-5.16c.83.06,1.66.11,2.5.11.54,0,1.07,0,1.59,0l1.3,5a.8.8,0,0,0,.85.58l4.81-.53a.8.8,0,0,0,.7-.76l.2-5.75a30.4,30.4,0,0,0,3.13-1.24l4.57,4a.8.8,0,0,0,1,0l3.66-3.16a.78.78,0,0,0,.15-1l-2.62-4.13A30.87,30.87,0,0,0,80,84.78l4.66,2a.78.78,0,0,0,1-.32l2.52-4.12a.79.79,0,0,0-.16-1L84.3,78.23a29,29,0,0,0,1.53-3.84l4.65.63a.78.78,0,0,0,.87-.56l1.34-4.64a.79.79,0,0,0-.43-.94l-5-2.29c0-.44,0-.89,0-1.34,0-.09,0-.18,0-.27l5.46,1.62,7.08-3.68V47.37l-7.28-5.64ZM75,37V29.28h2.4v5.79l1-2.71h.48v2.36l6-10.36v1.95l5.39-7.63L84.77,30.59l-.5-2.86-6.14,10.4v7l7.72-7.9v2.87l4.8-3.76L90.56,39,95,34.13l.5,1.67,7.29-5.62L93.8,40V37.58l-5.7,4.85-4.71,1.73c.08-.35.17-.73.21-.85l.06-.19L83.53,43c-.15-.15-.36-.07-.55,0l-.18.06-.11,1.52-.11.5,4.9-1.61v6.41H83.66V48h-1l-2,1.38-2-2.06a14.7,14.7,0,0,1,.81-2.06l-.26-.51h0l-1,.51-.15.08v2l0,.12,0,.05V49H74.77l.57-10.77-3.91,6.5-.73-1.54L67.17,46.5l4.72-7.7v1.13Zm8.06,13-.34-.53v-.8l.15-.1h.19Zm-9.19-5.7v5L71.48,47.8S69,49.32,69,49.27s1.13-3.51,1.13-3.51l.86.62Zm.73-3.46-.13-.09.15-.25Zm-1.75,28.7a2.49,2.49,0,0,1,0,.47,13.89,13.89,0,0,1-9.26,11.16,2.61,2.61,0,0,1-1.45-5,8.72,8.72,0,0,0,5.57-7,2.61,2.61,0,0,1,5.18.42ZM58.34,16.47h2.43l2,26.28,2.64-6.83,1.16,1.17L70,26.39l.72,3,2.91-11.27.29,2.23,3.77-9.12L75.34,24.05,73.51,22,71.07,33.89l-.69-2.23-4,9.67-.16-2.63-2.9,5.16,1.3,9.72,6.35-3.31V54l4.83-3.6V54l6.4-4.3V64.87H60l0,.25a2.73,2.73,0,1,1-2.7-3.1,2.71,2.71,0,0,1,.75.12l.37.11ZM36.45,54.7c2-5,7-9,9.44-10.37a5.07,5.07,0,0,1,4.61-.11,4.76,4.76,0,0,1,2.86,2.89.3.3,0,0,1-.37.34s-4.55-1.26-6.37.17c-2.58,2-7.11,6.22-7.77,9.17-.75,3.38.35,5.05.36,5.06a.34.34,0,0,1,0,.45c-.31.29-1.51-.08-1.9-.38a4.49,4.49,0,0,1-1.59-3.49A9.19,9.19,0,0,1,36.45,54.7Zm14.94-1.19A8.71,8.71,0,0,0,46,60.69a2.61,2.61,0,0,1-5.19-.29,3.67,3.67,0,0,1,0-.46,13.87,13.87,0,0,1,9-11.4,2.61,2.61,0,0,1,1.57,5Zm1.9,31.67a4.44,4.44,0,0,1-3.53,1.48,9.25,9.25,0,0,1-3.7-.89c-5-2.18-8.74-7.35-10.06-9.78a5.1,5.1,0,0,1,0-4.61,4.76,4.76,0,0,1,3-2.76.3.3,0,0,1,.27.09.29.29,0,0,1,.06.28c0,.05-1.41,4.51,0,6.38,1.93,2.64,6,7.31,8.9,8.07,3.35.86,5.06-.18,5.08-.19a.34.34,0,0,1,.44,0C54,83.61,53.61,84.8,53.29,85.18Zm1.18-5.74a2.62,2.62,0,0,1-2.57,2.15,3.73,3.73,0,0,1-.46,0,13.91,13.91,0,0,1-11.1-9.34,2.61,2.61,0,0,1,5-1.41,8.71,8.71,0,0,0,7,5.61A2.62,2.62,0,0,1,54.47,79.44Zm22.62-4.09c-2.15,5-7.29,8.79-9.71,10.12a5.09,5.09,0,0,1-4.61,0,4.73,4.73,0,0,1-2.78-3,.29.29,0,0,1,.37-.33s4.52,1.38,6.38,0c2.63-2,7.27-6,8-9,.85-3.36-.21-5.06-.22-5.07a.33.33,0,0,1,0-.44c.32-.29,1.51.12,1.89.43A4.44,4.44,0,0,1,78,71.64,9.21,9.21,0,0,1,77.09,75.35Zm8.47-20.07a28.94,28.94,0,0,0-2.22-4.83H87.7l-.06,1.34ZM92,64.36l-4-.86v-13h.08V44.24l4-1.38Z"/><path class="cls-1" d="M30.19,105.53q3.72,0,5.52,1.61a6.19,6.19,0,0,1,1.8,4.85,6.61,6.61,0,0,1-1.73,5,7.17,7.17,0,0,1-5.18,1.68l-4.8,0H24.07v-.51l1.73-.26V106.3l-1.73-.25v-.52ZM35.41,112a5.39,5.39,0,0,0-1.52-4.15,6.16,6.16,0,0,0-4.34-1.41H27.74v11.26c.8,0,1.76.08,2.86.08a4.46,4.46,0,0,0,3.64-1.41A6.77,6.77,0,0,0,35.41,112Z"/><path class="cls-1" d="M51.23,117.9a23.17,23.17,0,0,1-2.42.63,14.43,14.43,0,0,1-2.71.25,7.18,7.18,0,0,1-5.1-1.71,6.34,6.34,0,0,1-1.82-4.86A6.78,6.78,0,0,1,41,107.09a7.18,7.18,0,0,1,5.19-1.7,18.92,18.92,0,0,1,4.73.58v2.8H50.2l-.27-1.61a5.5,5.5,0,0,0-1.66-.74,8.05,8.05,0,0,0-2.05-.25,4.54,4.54,0,0,0-3.76,1.48,7.2,7.2,0,0,0-1.19,4.54,6.7,6.7,0,0,0,1.23,4.36A4.42,4.42,0,0,0,46.12,118a9.2,9.2,0,0,0,1.77-.19,5.11,5.11,0,0,0,1.41-.47v-3.71l-1.73-.25v-.53h5v.53l-1.31.25Z"/><path class="cls-1" d="M61,118.78a7.15,7.15,0,0,1-5.11-1.73A6.36,6.36,0,0,1,54,112.21a6.86,6.86,0,0,1,1.75-5.1A7.17,7.17,0,0,1,61,105.39a22.31,22.31,0,0,1,4.5.49l.07,2.85H64.9L64.6,107a6.17,6.17,0,0,0-1.63-.65,8,8,0,0,0-1.89-.22,4.59,4.59,0,0,0-3.77,1.46,7.21,7.21,0,0,0-1.18,4.56,6.64,6.64,0,0,0,1.24,4.34A4.41,4.41,0,0,0,61,118a8.28,8.28,0,0,0,2.15-.27,4.55,4.55,0,0,0,1.61-.71l.37-2h.66l-.06,3.07A18.12,18.12,0,0,1,61,118.78Z"/><path class="cls-1" d="M71.16,112.73v5.08l2.24.26v.51H67.62v-.51l1.6-.26V106.3l-1.73-.25v-.52h10.1v3.13h-.66l-.32-2.12a29.53,29.53,0,0,0-3.25-.13h-2.2v5.44h4l.32-1.56h.61v4h-.61l-.32-1.57Z"/><path class="cls-1" d="M81.5,118.58v-.51l2.14-.26V106.37h-.51a20.44,20.44,0,0,0-3.48.19l-.27,2h-.67v-3.07H90.56v3.07h-.68l-.27-2a12.81,12.81,0,0,0-1.32-.12c-.68,0-1.42,0-2.22,0h-.49v11.42l2.14.26v.51Z"/></g></svg>