<svg xmlns="http://www.w3.org/2000/svg" viewBox="0 0 214.8 124.8"><defs><style>.cls-1{fill:#606161;}</style></defs><title>LOGOS MAXIM GRIS</title><g id="Layer_4" data-name="Layer 4"><path class="cls-1" d="M200.8,95.88c-.07.1-.19.2-.21.31-.5,2.45-.49,2.45-3,2.45-6.49,0-13,0-19.45,0-1.31,0-1.75.38-1.76,1.67a4.68,4.68,0,0,0,6.23,4.56,15.28,15.28,0,0,0,3.4-2c.27-.17.54-.52.81-.52,3.7,0,7.4,0,11.26,0a11.85,11.85,0,0,1-4,5.14c-6.63,5-14.09,6-21.88,3.84-6-1.67-8.53-6.5-7.62-13A22.14,22.14,0,0,1,191.42,80c5.11,1.24,8.32,4.36,9.15,9.68a1.74,1.74,0,0,0,.23.45Zm-22.53-3.44c3.46,0,6.83,0,10.2,0,.89,0,1.1-.39,1.11-1.17a4.38,4.38,0,0,0-4.13-4.47A7,7,0,0,0,178.27,92.44Z"/><path class="cls-1" d="M130.89,80.38h10.8l-1,4.1a33.55,33.55,0,0,1,4.8-3.43c4.16-2,8.43-2.3,12.64.09,2.87,1.64,3.82,4.38,4.18,7.37.94,7.8-3.61,18.16-11.26,21.91a16.24,16.24,0,0,1-9.67,1.69,7.66,7.66,0,0,1-5.18-3.67c-.74,3-1.42,5.67-2.09,8.39-.35,1.42-.67,2.85-1.08,4.26-.09.32-.51.77-.78.77-3.84,0-7.68,0-11.64,0Zm11.67,22.76a15.54,15.54,0,0,0,3.08-1.16c3.07-2,4.94-7.43,3.9-11a3.11,3.11,0,0,0-3.24-2.59,5.19,5.19,0,0,0-4.49,1.88,12.31,12.31,0,0,0-3,9.21C139,101.88,140.08,102.89,142.56,103.14Z"/><path class="cls-1" d="M89.17,98.64H87.3c-6.87,0-13.74,0-20.61,0-1.27,0-1.54.5-1.57,1.56a4.71,4.71,0,0,0,6.27,4.66A17.42,17.42,0,0,0,74.7,103a3.38,3.38,0,0,1,1.42-.63c3.29-.06,6.57,0,9.86,0a8.77,8.77,0,0,1,.89.11,13.15,13.15,0,0,1-4,5c-6.65,5-14.14,6.13-22,3.94-5.87-1.64-8.47-6.43-7.67-12.69A22.12,22.12,0,0,1,80.13,80c5.86,1.41,9.27,5.56,9.36,11.59C89.52,93.91,89.28,96.22,89.17,98.64ZM67,92.45c3.52,0,6.93,0,10.34,0,.77,0,1-.34,1-1a4.43,4.43,0,0,0-4-4.62A6.94,6.94,0,0,0,67,92.45Z"/><path class="cls-1" d="M90.58,101.92a3.65,3.65,0,0,1,.49-.06c3.62,0,7.25,0,11,0-.11,1.51,0,3,1.71,3.45,2.07.59,4.14.61,5.82-1a1.9,1.9,0,0,0-.55-3.37,34.75,34.75,0,0,0-4.3-1.38c-1.94-.55-3.94-.94-5.85-1.6-4-1.4-5.39-4.32-4.27-8.39,1.27-4.61,4.55-7.27,8.82-8.75a25.56,25.56,0,0,1,16.17-.24c4,1.22,5.87,4.37,5.22,8.1a2.86,2.86,0,0,1-.14.41H113.82c-1.17-2.78-2.14-3.39-4.82-2.76a4.25,4.25,0,0,0-2,1.27,1.51,1.51,0,0,0,.51,2.49,20.29,20.29,0,0,0,3.15,1.11c2.84.87,5.78,1.48,8.51,2.6,3.3,1.36,4.29,3.76,3.68,7.24-1,5.41-4.61,8.24-9.44,9.78a32.14,32.14,0,0,1-16,.88C92.56,110.75,89.42,106.3,90.58,101.92Z"/><path class="cls-1" d="M38.25,92.18c.07-1.94-.18-3.52-1.93-4.26A5.07,5.07,0,0,0,30.78,89c-2.31,2-3.12,4.82-3.75,7.65a16.09,16.09,0,0,0-.28,3.86c.08,2.46,1.43,3.68,3.91,3.67A5.74,5.74,0,0,0,36,100.69a1.45,1.45,0,0,1,1.57-.94c3.37,0,6.74,0,10.12,0,.33,0,.66,0,1.14.07a17.84,17.84,0,0,1-6.75,8.72,23,23,0,0,1-14.17,3.67,25.16,25.16,0,0,1-6.24-1,10.46,10.46,0,0,1-7.57-11.67c.68-6.09,3.15-11.46,8.07-15.28,6.6-5.13,14.09-6,22-3.62,4.26,1.3,7,6.08,6.42,10.46-.08.59-.17,1.11-1,1-.6,0-1.21,0-1.81,0Z"/><path class="cls-1" d="M114.86,72.13c1.22-1.17,2.36-2.1,3.29-3.2,4.09-4.86,4.5-10.27,2.17-16-.61-1.52-1.42-3-2.12-4.43a12.1,12.1,0,0,1,11.27-17.44c5.94.15,11.06,5.13,11.93,11.48A22,22,0,0,1,139,55.31a32.51,32.51,0,0,1-14.27,15.22A14.27,14.27,0,0,1,114.86,72.13Z"/><path class="cls-1" d="M83.92,34.64a54.18,54.18,0,0,0,3.51,7.12,12.47,12.47,0,0,0,6.94,4.89,30,30,0,0,0,9.45.92,11.34,11.34,0,0,1,10.57,5.81,11.92,11.92,0,0,1-8.38,18A15.23,15.23,0,0,1,93.79,67.9,32.49,32.49,0,0,1,81.64,46.25,16,16,0,0,1,83,36.19C83.3,35.63,83.64,35.1,83.92,34.64Z"/><path class="cls-1" d="M120.55,2.91a43.33,43.33,0,0,1-1.23,4.42c-2.3,5.91-6.85,8.87-13,9.58-1.63.19-3.27.17-4.91.25a12.11,12.11,0,0,0-9.9,18.26c3,5.14,9.81,7.25,15.8,5a21.92,21.92,0,0,0,10-8.23,32.48,32.48,0,0,0,6.51-19.82A14.22,14.22,0,0,0,120.55,2.91Z"/></g></svg>