<svg xmlns="http://www.w3.org/2000/svg" viewBox="0 0 214.8 124.8"><defs><style>.cls-1,.cls-2{fill:#606161;}.cls-2{fill-rule:evenodd;}</style></defs><title>LOGOS MAXIM GRIS</title><g id="Layer_4" data-name="Layer 4"><path class="cls-1" d="M124.18,49.55l1.41-7.71H107l-1.45,7.71h18.62ZM119.24,76.6l3.08-16.86H103.7l-3.21,17.49-.21,1.15H89.52l.31-1.66,2.4-13a30.47,30.47,0,0,1-2.83,6A20.35,20.35,0,0,1,85,74.83h0A17.43,17.43,0,0,1,79.51,78a18.86,18.86,0,0,1-6.36,1h0a16.89,16.89,0,0,1-6.84-1.32c-.32-.14-.65-.3-1-.47h0a13.73,13.73,0,0,1-4.27-3.54h0a17.65,17.65,0,0,1-3.27-6.44,31.13,31.13,0,0,1-1.06-8.49,39.18,39.18,0,0,1,.7-7.46,35.11,35.11,0,0,1,2.09-6.81h0a25.84,25.84,0,0,1,3.35-5.76,20.38,20.38,0,0,1,4.51-4.3h0c.48-.34,1-.65,1.43-.93s1-.54,1.49-.79a18.71,18.71,0,0,1,8.19-1.84h0A17.29,17.29,0,0,1,84.64,32a14.32,14.32,0,0,1,5,3.14h0a16,16,0,0,1,3.34,5,21.88,21.88,0,0,1,1.6,6.3l.15,1.39-1.39.16-7.64.85-1.35.15-.2-1.34h0c-.05-.34-.1-.65-.17-1a7,7,0,0,0-.21-.85,6.48,6.48,0,0,0-1.6-2.94,4.38,4.38,0,0,0-1.6-1,6.86,6.86,0,0,0-2.24-.33,7.89,7.89,0,0,0-2.69.47,9.57,9.57,0,0,0-2.59,1.47c-.23.2-.44.39-.64.59s-.42.44-.64.7A16.55,16.55,0,0,0,69,49.91h0q-.21.6-.42,1.29c-.13.44-.25.87-.36,1.3a26.82,26.82,0,0,0-.84,6.62,16.1,16.1,0,0,0,.5,4.29,8.39,8.39,0,0,0,1.44,3v0h0a6.42,6.42,0,0,0,.54.63,6.85,6.85,0,0,0,.55.52,5,5,0,0,0,3.29,1.17,6.44,6.44,0,0,0,2.45-.47,7.72,7.72,0,0,0,2.28-1.46l0,0h0c.19-.17.38-.36.57-.56s.38-.43.56-.66a13.68,13.68,0,0,0,2.21-4.81l.33-1.24,1.27.22,8,1.39,1.27.22L97.9,32.87l.21-1.16h29.33l0-.12h31.37l-.3,1.66-1.34,7.31L157,41.72H136.42l-1.34,7.18h19.86l-.3,1.65-1.34,7.32L153.09,59H133.2l-1.84,9.1h22.3l-.3,1.65L152,77.1l-.21,1.16H118.94l.3-1.66Z"/><path class="cls-1" d="M83.23,60.59l8,1.39.54.09-.17.52a30.51,30.51,0,0,1-3,6.61,19.23,19.23,0,0,1-4.21,4.87h0a16.56,16.56,0,0,1-5.2,3,18.07,18.07,0,0,1-6,1h0a16,16,0,0,1-6.47-1.24c-.32-.14-.62-.29-.91-.44h0a13.1,13.1,0,0,1-4-3.3h0A16.92,16.92,0,0,1,58.7,67a30,30,0,0,1-1-8.23h0a38.11,38.11,0,0,1,.68-7.28,33.53,33.53,0,0,1,2-6.63h0c.25-.59.52-1.16.79-1.7s.58-1.07.88-1.58a20.36,20.36,0,0,1,5.87-6.37h0c.45-.32.91-.62,1.37-.89a16,16,0,0,1,1.41-.76,17.81,17.81,0,0,1,7.79-1.75,16.3,16.3,0,0,1,5.82,1A13.64,13.64,0,0,1,89,35.72h0a14.85,14.85,0,0,1,3.15,4.67,20.67,20.67,0,0,1,1.53,6l0,.46-.47,0-7.63.86-.45.05-.07-.45h0c0-.35-.11-.69-.18-1s-.15-.63-.23-.92a7.47,7.47,0,0,0-1.85-3.35,5.44,5.44,0,0,0-1.94-1.2,7.64,7.64,0,0,0-2.55-.38,8.79,8.79,0,0,0-3,.53,10.57,10.57,0,0,0-2.84,1.61c-.25.21-.5.43-.73.66s-.47.49-.7.76a17.51,17.51,0,0,0-3,5.47h0c-.15.44-.3.88-.43,1.33s-.26.89-.37,1.34a27.8,27.8,0,0,0-.88,6.85A17.05,17.05,0,0,0,67,63.61a9.49,9.49,0,0,0,1.6,3.3h0a8.23,8.23,0,0,0,.59.71c.21.21.42.41.64.6a6,6,0,0,0,3.89,1.38,7.3,7.3,0,0,0,2.8-.53A8.7,8.7,0,0,0,79,67.44h0c.22-.2.44-.41.65-.64s.41-.47.61-.72a14.51,14.51,0,0,0,2.38-5.14l.11-.41.42.07Z"/><polygon class="cls-1" points="90.8 76.78 98.86 32.92 98.93 32.54 99.32 32.54 126.25 32.54 126.81 32.54 126.7 33.09 125.37 40.41 125.3 40.79 124.91 40.79 106.28 40.79 104.48 50.38 122.61 50.38 123.18 50.38 123.07 50.94 121.68 58.31 121.61 58.69 121.22 58.69 102.97 58.69 99.62 76.95 99.55 77.33 99.16 77.33 91.26 77.33 90.69 77.33 90.8 76.78 90.8 76.78"/><polygon class="cls-1" points="120.16 76.78 128.17 32.92 128.24 32.54 128.63 32.54 157.16 32.54 157.72 32.54 157.62 33.09 156.28 40.41 156.21 40.8 155.82 40.8 135.65 40.8 133.95 49.85 153.26 49.85 153.82 49.85 153.72 50.4 152.38 57.72 152.31 58.1 151.92 58.1 132.43 58.1 130.22 69.08 151.98 69.08 152.54 69.08 152.44 69.63 151.1 76.95 151.03 77.33 150.64 77.33 120.62 77.33 120.06 77.33 120.16 76.78 120.16 76.78"/><path class="cls-2" d="M24.71,89.9l1.65.32A5.56,5.56,0,0,1,24.87,93a3.23,3.23,0,0,1-2.24.91,2.54,2.54,0,0,1-2.25-1.18,5.46,5.46,0,0,1-.85-3.42,10.13,10.13,0,0,1,.58-3.47,6,6,0,0,1,1.55-2.19,3.45,3.45,0,0,1,2.09-.75,2.87,2.87,0,0,1,2.08.91,4.28,4.28,0,0,1,1,2.51l-1.6.21a2.41,2.41,0,0,0-.48-1.33,1.37,1.37,0,0,0-1-.43,1.85,1.85,0,0,0-1.17.48,3.85,3.85,0,0,0-1,1.66,7.42,7.42,0,0,0-.43,2.51,3.48,3.48,0,0,0,.48,2,1.45,1.45,0,0,0,1.12.7,1.66,1.66,0,0,0,1.18-.59,3.06,3.06,0,0,0,.8-1.6Z"/><path class="cls-2" d="M30.21,85.84h.32a2.37,2.37,0,0,1,1.92.91,3.65,3.65,0,0,1,.75,2.56,5.83,5.83,0,0,1-.91,3.26,2.6,2.6,0,0,1-2.08,1.28v-1.6a1.48,1.48,0,0,0,.86-.69A5.36,5.36,0,0,0,31.65,89a2,2,0,0,0-.32-1.22,1,1,0,0,0-.85-.43.62.62,0,0,0-.27,0v-1.6Zm-3,4.7A6.85,6.85,0,0,1,28,87.28a2.92,2.92,0,0,1,2.24-1.44v1.6a1.77,1.77,0,0,0-.53.27A3.26,3.26,0,0,0,29,88.83a5.66,5.66,0,0,0-.27,1.66,2.49,2.49,0,0,0,.32,1.33,1.1,1.1,0,0,0,.85.48,2.24,2.24,0,0,0,.27,0v1.6a.61.61,0,0,1-.32.06A2.37,2.37,0,0,1,28,93a3.62,3.62,0,0,1-.75-2.46Z"/><path class="cls-2" d="M35,86h1.44l-.11,1a2.29,2.29,0,0,1,1.76-1.12,1.39,1.39,0,0,1,1.5,1.33,3,3,0,0,1,.85-1,2,2,0,0,1,1.18-.37,1.35,1.35,0,0,1,1.07.48A2,2,0,0,1,43,87.66,8.94,8.94,0,0,1,42.87,89l-.69,4.7H40.57l.75-4.7c.11-.59.16-.91.16-1a.67.67,0,0,0-.16-.53.57.57,0,0,0-.43-.16c-.37,0-.69.21-1,.74a6.09,6.09,0,0,0-.59,2.14l-.59,3.47H37.16L37.9,89c.06-.53.11-.85.11-1a.88.88,0,0,0-.16-.53.6.6,0,0,0-.43-.16,1.12,1.12,0,0,0-.69.32,3.32,3.32,0,0,0-.59,1c0,.27-.16.8-.27,1.5l-.58,3.52H33.74L35,86Z"/><path class="cls-2" d="M45.38,83.06H47L46.66,85H45.11l.27-1.92ZM45,86H46.5l-1.22,7.69H43.73L45,86Z"/><path class="cls-2" d="M46.61,91.56l1.55-.33a1.66,1.66,0,0,0,.48.91,1.32,1.32,0,0,0,1.6,0,.71.71,0,0,0,.32-.58.48.48,0,0,0-.16-.38c0-.11-.26-.21-.64-.37a8.17,8.17,0,0,1-1.71-1,2.17,2.17,0,0,1-.53-1.5,2.42,2.42,0,0,1,.69-1.82,2.59,2.59,0,0,1,1.93-.69,2.15,2.15,0,0,1,2.4,2l-1.44.32a1.13,1.13,0,0,0-1.23-.91,1,1,0,0,0-.7.22A.68.68,0,0,0,49,88a.57.57,0,0,0,.16.42,3.59,3.59,0,0,0,1,.48,3.49,3.49,0,0,1,1.5.86,1.93,1.93,0,0,1,.53,1.44,2.58,2.58,0,0,1-.69,1.92,2.44,2.44,0,0,1-1.92.81,2.75,2.75,0,0,1-2.89-2.35Z"/><path class="cls-2" d="M54.73,83.06h1.55L56,85H54.41l.32-1.92ZM54.25,86H55.8l-1.18,7.69H53L54.25,86Z"/><path class="cls-2" d="M59.38,85.84h.32a2.37,2.37,0,0,1,1.92.91,3.65,3.65,0,0,1,.75,2.56,5.46,5.46,0,0,1-.91,3.26,2.61,2.61,0,0,1-2.08,1.28v-1.6a1.43,1.43,0,0,0,.85-.69A5.24,5.24,0,0,0,60.82,89a2.1,2.1,0,0,0-.32-1.22,1,1,0,0,0-.86-.43.58.58,0,0,0-.26,0v-1.6Zm0-.8v-1L60,82.85h1.65L59.91,85Zm-3,5.5a6.85,6.85,0,0,1,.74-3.26,3,3,0,0,1,2.25-1.44v1.6a1.92,1.92,0,0,0-.54.27,3.63,3.63,0,0,0-.64,1.12,5.65,5.65,0,0,0-.26,1.66,2.4,2.4,0,0,0,.32,1.33,1.08,1.08,0,0,0,.85.48,2.71,2.71,0,0,0,.27,0v1.6a.63.63,0,0,1-.32.06A2.39,2.39,0,0,1,57.13,93a3.67,3.67,0,0,1-.74-2.46Zm3-6.46v1h-.54l.54-1Z"/><path class="cls-2" d="M64.19,86h1.49l-.16,1a3.89,3.89,0,0,1,1.07-.9,2.18,2.18,0,0,1,1-.27,1.27,1.27,0,0,1,1.12.53,2,2,0,0,1,.43,1.45,12.62,12.62,0,0,1-.16,1.54l-.69,4.33H66.7l.69-4.33c.11-.69.16-1.06.16-1.17a1.05,1.05,0,0,0-.21-.64.52.52,0,0,0-.48-.21.87.87,0,0,0-.65.26,2.78,2.78,0,0,0-.69.91,10.26,10.26,0,0,0-.48,2l-.48,3.15H63L64.19,86Z"/><polygon class="cls-2" points="72.89 93.69 74.55 83.06 80.16 83.06 79.84 84.88 75.94 84.88 75.51 87.39 79.36 87.39 79.09 89.2 75.24 89.2 74.5 93.69 72.89 93.69 72.89 93.69"/><path class="cls-2" d="M85.34,90.49H82.83V89.26H84l.06-.22a2.09,2.09,0,0,0-.32-1.28.81.81,0,0,0-.75-.42h-.16v-1.5h.32a1.92,1.92,0,0,1,1.65.85,4.07,4.07,0,0,1,.65,2.46,10.37,10.37,0,0,1-.11,1.34Zm-2.51,1.87a1.67,1.67,0,0,0,1-1l1.39.32a3.56,3.56,0,0,1-1.12,1.66,2.28,2.28,0,0,1-1.23.53V92.36Zm0-1.87H81.44v.21a2.13,2.13,0,0,0,.32,1.23.94.94,0,0,0,.8.48.64.64,0,0,0,.27,0v1.49a.63.63,0,0,1-.32.06,2.31,2.31,0,0,1-1.87-1,4.34,4.34,0,0,1-.75-2.61,6.24,6.24,0,0,1,.85-3.16,2.77,2.77,0,0,1,2.09-1.33v1.5a1.25,1.25,0,0,0-.75.48,2.5,2.5,0,0,0-.48,1.44h1.23v1.23Z"/><path class="cls-2" d="M91.27,93.69h-1.5l.16-.8a2.63,2.63,0,0,1-.85.75l0,0V92.3a1.92,1.92,0,0,0,.42-.26,2.23,2.23,0,0,0,.64-1.13,5.59,5.59,0,0,0,.27-1.65A2.29,2.29,0,0,0,90,87.87a.94.94,0,0,0-.75-.48H89V85.84h0a1.85,1.85,0,0,1,1.7,1.23l.65-4h1.54L91.27,93.69Zm-2.24,0a2.48,2.48,0,0,1-.86.22,1.68,1.68,0,0,1-1.44-.81,3.93,3.93,0,0,1-.59-2.45,6.86,6.86,0,0,1,.8-3.37A2.38,2.38,0,0,1,89,85.84v1.55a1.18,1.18,0,0,0-.49.32,2.84,2.84,0,0,0-.64,1.12,6.4,6.4,0,0,0-.26,1.76A2.24,2.24,0,0,0,88,91.88a.94.94,0,0,0,.8.48A1.91,1.91,0,0,1,89,92.3v1.39Z"/><path class="cls-2" d="M98.37,90.49H95.86V89.26H97V89a2.12,2.12,0,0,0-.27-1.28.85.85,0,0,0-.75-.42h-.16v-1.5h.32a1.93,1.93,0,0,1,1.66.85,4.07,4.07,0,0,1,.64,2.46,8.85,8.85,0,0,1-.11,1.34Zm-2.51,1.87a1.46,1.46,0,0,0,.91-1l1.44.32a3.49,3.49,0,0,1-1.12,1.66,2.25,2.25,0,0,1-1.23.53V92.36Zm0-1.87H94.47v.21a2.13,2.13,0,0,0,.32,1.23,1,1,0,0,0,.81.48.58.58,0,0,0,.26,0v1.49a.59.59,0,0,1-.32.06,2.32,2.32,0,0,1-1.87-1,4.34,4.34,0,0,1-.75-2.61,6.15,6.15,0,0,1,.86-3.16,2.73,2.73,0,0,1,2.08-1.33v1.5a1.31,1.31,0,0,0-.75.48,2.66,2.66,0,0,0-.48,1.44h1.23v1.23Z"/><path class="cls-2" d="M100.08,86h1.44l-.21,1.5c.54-1.13,1.12-1.66,1.76-1.66a1.45,1.45,0,0,1,.75.21l-.64,1.71a1.09,1.09,0,0,0-.43-.1,1.11,1.11,0,0,0-.69.26,2.59,2.59,0,0,0-.75,1.07,14.77,14.77,0,0,0-.48,2.3l-.43,2.4H98.85L100.08,86Z"/><path class="cls-2" d="M105.91,85.89a3.21,3.21,0,0,1,.69,0,2.22,2.22,0,0,1,1.66.59,2,2,0,0,1,.53,1.49,3.3,3.3,0,0,1-.05.7,17.34,17.34,0,0,1-.32,2.08c-.11.91-.22,1.55-.22,1.92a8.64,8.64,0,0,0,.11,1.07h-1.5a4.4,4.4,0,0,1-.1-.85,3,3,0,0,1-.8.8V92.25a.49.49,0,0,0,.26-.11,1.24,1.24,0,0,0,.48-.58,4.48,4.48,0,0,0,.32-1.18v-.27c0,.06-.21.06-.37.11s-.48.11-.69.16V89a4.09,4.09,0,0,0,1.28-.26,2,2,0,0,0,.1-.7.62.62,0,0,0-.21-.53.73.73,0,0,0-.59-.21,1,1,0,0,0-.58.16V85.89Zm-.38,2.3L104,88a2.91,2.91,0,0,1,1-1.66,2.84,2.84,0,0,1,1-.48V87.5a.85.85,0,0,0-.38.69Zm.38,5.45a2,2,0,0,1-.91.27,1.48,1.48,0,0,1-1.18-.65,2.48,2.48,0,0,1-.48-1.6,2.85,2.85,0,0,1,.54-1.81,2.67,2.67,0,0,1,1.81-.75c.11,0,.16,0,.22-.06v1.34a1.34,1.34,0,0,0-.75.32.88.88,0,0,0-.32.75,1.1,1.1,0,0,0,.16.64.74.74,0,0,0,.53.27.85.85,0,0,0,.38-.11v1.39Z"/><polygon class="cls-2" points="109.48 93.69 111.14 83.06 112.74 83.06 111.03 93.69 109.48 93.69 109.48 93.69"/><path class="cls-2" d="M121.08,93.69h-1.5l.16-.8a2.73,2.73,0,0,1-.85.75c-.06,0-.06,0-.11,0V92.3a2.27,2.27,0,0,0,.48-.26,3.5,3.5,0,0,0,.64-1.13,5.58,5.58,0,0,0,.21-1.65,2.6,2.6,0,0,0-.32-1.39.92.92,0,0,0-.74-.48h-.27V85.84h0a1.87,1.87,0,0,1,1.76,1.23l.64-4h1.55l-1.65,10.63Zm-2.3,0a2.24,2.24,0,0,1-.8.22,1.73,1.73,0,0,1-1.5-.81,4.41,4.41,0,0,1-.53-2.45,6.75,6.75,0,0,1,.8-3.37,2.36,2.36,0,0,1,2-1.44v1.55a1.09,1.09,0,0,0-.43.32,2.19,2.19,0,0,0-.64,1.12,6.41,6.41,0,0,0-.27,1.76,2.32,2.32,0,0,0,.32,1.29.94.94,0,0,0,.75.48,1.91,1.91,0,0,0,.27-.06v1.39Z"/><path class="cls-2" d="M128.18,90.49h-2.56V89.26h1.23V89a2.57,2.57,0,0,0-.27-1.28.89.89,0,0,0-.8-.42h-.16v-1.5H126a2,2,0,0,1,1.66.85,4.14,4.14,0,0,1,.64,2.46,10.37,10.37,0,0,1-.11,1.34Zm-2.56,1.87a1.45,1.45,0,0,0,1-1l1.44.32a4.5,4.5,0,0,1-1.12,1.66,2.25,2.25,0,0,1-1.28.53V92.36Zm0-1.87h-1.39v.21a1.78,1.78,0,0,0,.37,1.23.94.94,0,0,0,.75.48.44.44,0,0,0,.27,0v1.49a.38.38,0,0,1-.27.06,2.24,2.24,0,0,1-1.87-1,4.34,4.34,0,0,1-.75-2.61,5.7,5.7,0,0,1,.86-3.16,2.65,2.65,0,0,1,2-1.33v1.5a1.18,1.18,0,0,0-.7.48,3.13,3.13,0,0,0-.53,1.44h1.23v1.23Z"/><polygon class="cls-2" points="131.87 93.69 133.52 83.06 139.4 83.06 139.13 84.88 134.91 84.88 134.54 87.28 138.65 87.28 138.38 89.04 134.22 89.04 133.79 91.93 138.38 91.93 138.12 93.69 131.87 93.69 131.87 93.69"/><polygon class="cls-2" points="139.24 93.69 140.9 83.06 142.5 83.06 140.79 93.69 139.24 93.69 139.24 93.69"/><path class="cls-2" d="M148,90.49h-2.56V89.26h1.22V89a2.58,2.58,0,0,0-.26-1.28.89.89,0,0,0-.8-.42h-.16v-1.5h.32a2,2,0,0,1,1.71.85,4.14,4.14,0,0,1,.64,2.46,10.37,10.37,0,0,1-.11,1.34Zm-2.56,1.87a1.45,1.45,0,0,0,1-1l1.39.32a4,4,0,0,1-1.07,1.66,2.28,2.28,0,0,1-1.28.53V92.36Zm0-1.87h-1.39v.21a2.06,2.06,0,0,0,.32,1.23,1.08,1.08,0,0,0,.8.48.45.45,0,0,0,.27,0v1.49a.46.46,0,0,1-.27.06,2.24,2.24,0,0,1-1.87-1,4.34,4.34,0,0,1-.75-2.61,5.7,5.7,0,0,1,.86-3.16,2.65,2.65,0,0,1,2-1.33v1.5a1.15,1.15,0,0,0-.7.48,2.92,2.92,0,0,0-.53,1.44h1.23v1.23Z"/><path class="cls-2" d="M152.49,90.81l1.49.32a3.84,3.84,0,0,1-1.12,2.08,2.43,2.43,0,0,1-1.66.7,2.17,2.17,0,0,1-1.76-.86,4.07,4.07,0,0,1-.64-2.46,6.21,6.21,0,0,1,.43-2.51,3.61,3.61,0,0,1,1.23-1.65,2.67,2.67,0,0,1,1.65-.59,2.05,2.05,0,0,1,1.61.69,2.86,2.86,0,0,1,.69,1.87l-1.5.22c0-.86-.37-1.23-.9-1.23a1.06,1.06,0,0,0-.75.32,2.34,2.34,0,0,0-.64,1.23,5.41,5.41,0,0,0-.27,1.92,1.83,1.83,0,0,0,.21,1,.78.78,0,0,0,.64.37,1.16,1.16,0,0,0,.75-.32,3.54,3.54,0,0,0,.54-1.12Z"/><path class="cls-2" d="M155.16,87.55l.26-1.55h.75l.16-1.23,1.82-1.44L157.72,86h1l-.26,1.55h-.91L157,90.81c-.1.53-.16.91-.16,1,0,.21.06.32.16.37a.43.43,0,0,0,.38.16c.1,0,.26,0,.53,0l-.27,1.55a4.28,4.28,0,0,1-.8.11,1.6,1.6,0,0,1-1.17-.43,1.57,1.57,0,0,1-.43-1.18c0-.26.11-.8.21-1.65l.49-3.1Z"/><path class="cls-2" d="M159.59,86h1.5l-.27,1.5c.53-1.13,1.12-1.66,1.76-1.66a1.34,1.34,0,0,1,.75.21l-.59,1.71a1.65,1.65,0,0,0-.48-.1,1.1,1.1,0,0,0-.64.26,2.59,2.59,0,0,0-.75,1.07,10,10,0,0,0-.53,2.3l-.37,2.4h-1.55L159.59,86Z"/><path class="cls-2" d="M164.51,83.06h1.55L165.79,85h-1.6l.32-1.92ZM164,86h1.61l-1.23,7.69h-1.55L164,86Z"/><path class="cls-2" d="M169.85,90.81l1.55.32a4.82,4.82,0,0,1-1.12,2.08,2.69,2.69,0,0,1-1.71.7,2.33,2.33,0,0,1-1.77-.86,4.14,4.14,0,0,1-.64-2.46,7.21,7.21,0,0,1,.43-2.51,3.61,3.61,0,0,1,1.23-1.65,2.8,2.8,0,0,1,1.65-.59,2.05,2.05,0,0,1,1.61.69,2.86,2.86,0,0,1,.69,1.87l-1.49.22c-.06-.86-.38-1.23-.91-1.23a1.18,1.18,0,0,0-.75.32,2.77,2.77,0,0,0-.64,1.23,7.24,7.24,0,0,0-.27,1.92,1.43,1.43,0,0,0,.27,1,.68.68,0,0,0,.59.37,1.06,1.06,0,0,0,.74-.32,2.72,2.72,0,0,0,.54-1.12Z"/><path class="cls-2" d="M173.8,83.06h1.6L175.08,85h-1.55l.27-1.92ZM173.37,86h1.55l-1.23,7.69h-1.55L173.37,86Z"/><path class="cls-2" d="M180.58,93.69h-1.49l.16-.8a2.64,2.64,0,0,1-.86.75,0,0,0,0,1,0,0V92.3a2.27,2.27,0,0,0,.48-.26,2.67,2.67,0,0,0,.59-1.13,5.59,5.59,0,0,0,.27-1.65,2.7,2.7,0,0,0-.32-1.39,1.11,1.11,0,0,0-.81-.48h-.21V85.84h0a2,2,0,0,1,1.76,1.23l.59-4h1.55l-1.66,10.63Zm-2.24,0a2.18,2.18,0,0,1-.85.22A1.71,1.71,0,0,1,176,93.1a4.38,4.38,0,0,1-.58-2.45,6.75,6.75,0,0,1,.8-3.37,2.37,2.37,0,0,1,2.08-1.44v1.55a1.22,1.22,0,0,0-.48.32,2.73,2.73,0,0,0-.59,1.12,5,5,0,0,0-.26,1.76,2.24,2.24,0,0,0,.32,1.29.85.85,0,0,0,.74.48c.11,0,.16-.06.27-.06v1.39Z"/><path class="cls-2" d="M184.7,85.89a3,3,0,0,1,.69,0,2.14,2.14,0,0,1,1.6.59,2,2,0,0,1,.59,1.49,3.3,3.3,0,0,1-.05.7,17.34,17.34,0,0,1-.32,2.08,12.2,12.2,0,0,0-.22,1.92,8.64,8.64,0,0,0,.11,1.07h-1.49a3.72,3.72,0,0,1-.11-.85,6,6,0,0,1-.8.8V92.25a.83.83,0,0,0,.27-.11,1.61,1.61,0,0,0,.42-.58,2.4,2.4,0,0,0,.32-1.18l.06-.27a2.21,2.21,0,0,1-.38.11c-.26,0-.48.11-.69.16V89a4,4,0,0,0,1.28-.26,5.11,5.11,0,0,0,.11-.7.81.81,0,0,0-.22-.53.79.79,0,0,0-.58-.21.94.94,0,0,0-.59.16V85.89Zm-.43,2.3-1.5-.16a3.3,3.3,0,0,1,.91-1.66,3.67,3.67,0,0,1,1-.48V87.5a.89.89,0,0,0-.43.69Zm.43,5.45a2,2,0,0,1-.91.27,1.43,1.43,0,0,1-1.18-.65,2.48,2.48,0,0,1-.48-1.6,2.58,2.58,0,0,1,.54-1.81,2.67,2.67,0,0,1,1.81-.75.31.31,0,0,0,.22-.06v1.34a1.19,1.19,0,0,0-.75.32,1,1,0,0,0-.37.75,1.11,1.11,0,0,0,.21.64.74.74,0,0,0,.53.27,1.51,1.51,0,0,0,.38-.11v1.39Z"/><path class="cls-2" d="M193.62,93.69h-1.5l.16-.8a2.63,2.63,0,0,1-.85.75,0,0,0,0,1-.05,0V92.3a1.11,1.11,0,0,0,.42-.26,2.23,2.23,0,0,0,.64-1.13,5.59,5.59,0,0,0,.27-1.65,2.7,2.7,0,0,0-.32-1.39,1.09,1.09,0,0,0-.8-.48h-.21V85.84h0a1.85,1.85,0,0,1,1.7,1.23l.65-4h1.55l-1.66,10.63Zm-2.24,0a2.23,2.23,0,0,1-.86.22,1.68,1.68,0,0,1-1.44-.81,4.29,4.29,0,0,1-.59-2.45,6.86,6.86,0,0,1,.8-3.37,2.38,2.38,0,0,1,2.09-1.44v1.55a1.16,1.16,0,0,0-.48.32,2.62,2.62,0,0,0-.59,1.12,4.74,4.74,0,0,0-.27,1.76,2.32,2.32,0,0,0,.32,1.29.81.81,0,0,0,.75.48c.1,0,.16-.06.27-.06v1.39Z"/><path class="cls-2" d="M83.15,61.05l8,1.39c-1.6,4.92-3.9,8.71-7,11.27a16.37,16.37,0,0,1-11,3.9c-4.7,0-8.39-1.6-11-4.81s-4-7.9-4-14A34.77,34.77,0,0,1,60.82,45a21.39,21.39,0,0,1,7.37-9.46A17.46,17.46,0,0,1,78.5,32.26a14,14,0,0,1,10.15,3.79c2.57,2.57,4.06,6,4.54,10.42l-7.64.85a9.44,9.44,0,0,0-2.4-5.55,6.54,6.54,0,0,0-4.81-1.71A9.81,9.81,0,0,0,72.2,42.3a15.72,15.72,0,0,0-4.54,7.11A29.3,29.3,0,0,0,66,59.08c0,3.52.75,6.19,2.24,8.12a6.65,6.65,0,0,0,5.5,2.88,8.19,8.19,0,0,0,5.67-2.3,13.21,13.21,0,0,0,3.79-6.73Z"/><polygon class="cls-2" points="91.26 76.86 99.32 33.01 126.25 33.01 124.91 40.33 105.89 40.33 103.92 50.85 122.61 50.85 121.22 58.22 102.58 58.22 99.16 76.86 91.26 76.86 91.26 76.86"/><polygon class="cls-2" points="120.62 76.86 128.63 33.01 157.16 33.01 155.82 40.33 135.26 40.33 133.39 50.32 153.26 50.32 151.92 57.63 132.05 57.63 129.65 69.55 151.98 69.55 150.64 76.86 120.62 76.86 120.62 76.86"/></g></svg>