<svg xmlns="http://www.w3.org/2000/svg" viewBox="0 0 126.48 124.8"><defs><style>.cls-1{fill:#606161;}</style></defs><title>LOGOS MAXIM GRIS</title><g id="Layer_4" data-name="Layer 4"><path class="cls-1" d="M104.9,78.75c3,1,4.61,0,4.66-2.85-5.61-7.64-13.3-11.8-24-11.31C69.15,67,62.51,76.23,61.81,89.52q3.54,19.64,24.44,22.8c10,.39,17.44-3.72,23.15-10.93q-.16-4.27-4.18-2.22c-5.08,5.44-11.38,8.71-19.45,8.24-11.85-2.61-17.1-9.27-18.66-18.21.47-12.38,7.8-18.08,19-19.48,8.45-.83,14.64,2.26,18.81,9Zm-4.66,17.1c1.66-.11,3.16.2,3.53,3.48-5.2,4.34-10.6,6.69-16.24,6.81-12-1.72-17.41-8-19.13-16.94q.33-15.67,18.65-18.69c10.29.66,16.4,5.1,16.4,15-1.12,8.78-6.55,14-16.24,14.72q-10.53-2-12.7-11.56.72-10.84,12.38-12.19c5.38.49,9.8,2,9.65,8.23q.1,7.71-8,10c-4-1-6.36-3-7.08-6.18a10.44,10.44,0,0,1,1-3.8c1.61-1.27,4.5-2,5.46.48l.33,3.17c1.94.07,2.92-1.35,2.74-3.88-.1-1.28-1-2.45-3.23-3.09-5.62.15-7.82,3-7.39,7.12q.24,5.55,8.2,7.29c6.18-1.25,9-5.23,9.48-11.09-.84-8.14-5.71-9.59-11.41-9.65C78.1,76.53,73.12,80.7,73.23,88.87q1.93,10.77,13.5,12.68a17.36,17.36,0,0,0,13.51-5.7ZM58.12,26.66q4.59,1.43,4.66-2.85c-5.61-7.64-13.3-11.8-24-11.31C22.37,14.91,15.73,24.14,15,37.42q3.54,19.63,24.44,22.81c10,.39,17.45-3.73,23.15-10.93-.1-2.85-1.5-3.59-4.18-2.22C53.36,52.52,47.07,55.79,39,55.32c-11.85-2.61-17.1-9.27-18.65-18.21.46-12.38,7.79-18.08,19-19.48,8.45-.83,14.64,2.26,18.81,9Zm-4.66,17.1c1.66-.11,3.16.2,3.54,3.48-5.21,4.34-10.61,6.69-16.24,6.81-12-1.72-17.42-8-19.14-16.94Q22,21.44,40.27,18.42c10.29.66,16.4,5.1,16.4,15-1.12,8.79-6.54,14-16.24,14.73q-10.53-2-12.7-11.56.73-10.85,12.38-12.19c5.38.49,9.8,2,9.65,8.23q.12,7.71-8,10c-4-1-6.36-3-7.07-6.18a10.39,10.39,0,0,1,1-3.8c1.62-1.27,4.5-2,5.47.48.11,1.05.21,2.11.32,3.17,1.94.06,2.92-1.36,2.74-3.88-.09-1.29-1-2.45-3.22-3.09-5.63.15-7.82,3-7.4,7.12q.24,5.55,8.2,7.29c6.18-1.25,9-5.23,9.49-11.09-.85-8.14-5.72-9.59-11.42-9.66-8.46,1.43-13.44,5.59-13.33,13.77Q28.38,47.55,40,49.46a17.33,17.33,0,0,0,13.51-5.7Zm11.38-6.85v3.51H101a12.6,12.6,0,0,1,1.92,1.08H69.15v1.3h35.31a9.53,9.53,0,0,1,1,1.14H70.1v1.3h36.13a7.46,7.46,0,0,1,.57,1.53h-36v1.3H107a7.83,7.83,0,0,1,0,1.53H70.68v1.3h36a7,7,0,0,1-.46,1.14H70v1.3h35.41a9.31,9.31,0,0,1-1,1.14H69v1.3H103a13.28,13.28,0,0,1-1.61,1H64.84v3.51H103.2c11.78-4.85,10.4-19.86-.66-23.37Zm0-24v3.5h36.12a13.72,13.72,0,0,1,1.66.91H69.08v1.3h35.17a10.82,10.82,0,0,1,1,1.14H70v1.3h36.09a8.27,8.27,0,0,1,.61,1.53h-36v1.3H107a7.11,7.11,0,0,1,0,1.53H70.61v1.3h36.11a8.43,8.43,0,0,1-.43,1.15H70v1.29h35.58a9,9,0,0,1-.93,1.15H68.94v1.3h34.23a15,15,0,0,1-1.85,1.16H64.81v3.51h38.36c11.79-4.85,10.4-19.87-.66-23.37ZM16.34,88.06v3.5H52.46a13.54,13.54,0,0,1,1.92,1.09H19.77v1.29H56a9.58,9.58,0,0,1,1,1.15H20.72v1.29h37a8.94,8.94,0,0,1,.57,1.54H21.4v1.3H58.52a7.45,7.45,0,0,1-.32,2.8v-1.27H21.29v1.3H58.2a10.87,10.87,0,0,1-.46,1.14H20.66v1.3H57a11.28,11.28,0,0,1-1,1.14H19.63v1.3H54.46a14.51,14.51,0,0,1-1.6,1H16.34v3.51H54.7c11.79-4.85,10.4-19.87-.66-23.37Zm0-24v3.51H52.43a13.72,13.72,0,0,1,1.66.91H20.58v1.3H55.75a9.24,9.24,0,0,1,1,1.14H21.53v1.3H57.62a8.27,8.27,0,0,1,.61,1.53h-36v1.3H58.48a7.82,7.82,0,0,1,0,1.53H22.11v1.3H58.22A8.24,8.24,0,0,1,57.8,79H21.48v1.3H57.05a9.77,9.77,0,0,1-.92,1.14H20.45v1.3H54.67a13.18,13.18,0,0,1-1.84,1.17H16.32v3.5H54.68c11.78-4.84,10.4-19.86-.66-23.37ZM112.78,9.35H13.7a3.43,3.43,0,0,0-3.43,3.42V112a3.43,3.43,0,0,0,3.43,3.42h99.08a3.43,3.43,0,0,0,3.43-3.42V12.77a3.43,3.43,0,0,0-3.43-3.42ZM13.7,4.15h99.08a8.69,8.69,0,0,1,6.15,2.54,8.56,8.56,0,0,1,2.56,6.08V112a8.56,8.56,0,0,1-2.56,6.08,8.69,8.69,0,0,1-6.15,2.54H13.7a8.71,8.71,0,0,1-6.15-2.54A8.56,8.56,0,0,1,5,112V12.77A8.56,8.56,0,0,1,7.55,6.69,8.71,8.71,0,0,1,13.7,4.15Z"/></g></svg>