<svg xmlns="http://www.w3.org/2000/svg" viewBox="0 0 214.8 124.8"><defs><style>.cls-1{fill:#606161;}</style></defs><title>LOGOS MAXIM GRIS</title><g id="Layer_4" data-name="Layer 4"><path class="cls-1" d="M31.69,59.7c0,4.13,0,8.25,0,12.38a1,1,0,0,1-.27.72Q29.19,75.23,27,77.69a.63.63,0,0,1-.51.23H15.71a.64.64,0,0,1-.52-.22Q13,75.24,10.74,72.8a.93.93,0,0,1-.27-.71V55.23c0-.51,0-.46-.46-.46H8.82c-.31,0-.31,0-.32-.31V47a.16.16,0,0,1,.16-.17H19.11c.73,0,.73,0,.73.71v6.83c0,.35,0,.36-.34.36H18.39c-.57,0-.51-.06-.52.49V71.18c0,.31,0,.32.34.32h5.72c.34,0,.34,0,.34-.36,0-1.56,0-3.13,0-4.69q0-9.51,0-19c0-.56-.11-.55.54-.55h6.61c.18,0,.27.06.26.25s0,.22,0,.34Z"/><path class="cls-1" d="M184.45,55.21a3.12,3.12,0,0,1,.09-.74c0-.21.12-.3.34-.29h.68l5.37-.09a.66.66,0,0,1,.41,0c-.08.55-.16,1.1-.25,1.66q-.54,3.39-1.09,6.77c-.23,1.39-.43,2.78-.7,4.16a7.45,7.45,0,0,0-.14,1.49A1.6,1.6,0,0,0,190.78,70c.38,0,.77,0,1.17,0a2.57,2.57,0,0,1-.17.85c0,.15-.2.14-.32.16l-2.23.34-4.88.76a.35.35,0,0,1-.29,0c.15-.61.3-1.24.45-1.87l.33-1.41c0-.08.07-.17,0-.23s-.15,0-.22.07c-.74.56-1.49,1.09-2.28,1.58a15.8,15.8,0,0,1-4.09,1.88,7.07,7.07,0,0,1-3.87,0A4.57,4.57,0,0,1,171,67.65a15.14,15.14,0,0,1,.56-3.91l1.38-5.63a5.54,5.54,0,0,0,.16-1.35,1.13,1.13,0,0,0-.78-1.11,2.83,2.83,0,0,0-1-.2,9.47,9.47,0,0,0-1.39.06,3.6,3.6,0,0,1,.4-.94c.09-.17.27-.12.42-.13,1,0,2,0,3,0s1.85,0,2.77-.06a.49.49,0,0,1,.36.07c-.07.42-.13.85-.2,1.28-.42,2.62-.84,5.25-1.27,7.87-.16,1-.35,2-.51,3a2.91,2.91,0,0,0,2.31,3.48,5.18,5.18,0,0,0,2.65-.14,8.57,8.57,0,0,0,1.55-.6A22,22,0,0,0,185,67a1.24,1.24,0,0,0,.46-.74q1-4.34,2.06-8.67a2.85,2.85,0,0,0,.05-1.3,1.35,1.35,0,0,0-1-1,3.89,3.89,0,0,0-1.52-.05Z"/><path class="cls-1" d="M206.3,53.41c-.09.46-.18.87-.25,1.29,0,.18-.17.17-.29.17l-2,.06-3.54.07c-.39,0-.39,0-.48.37l-2.94,11.87a2.81,2.81,0,0,0-.06,1.35,1.21,1.21,0,0,0,.94.94,3.75,3.75,0,0,0,1.73,0,12.63,12.63,0,0,0,3.92-1.63A18.71,18.71,0,0,0,205,66.77a.34.34,0,0,1,.51,0c.17.15.36.28.5.39s0,.13,0,.15a26.93,26.93,0,0,1-6,3.53,12,12,0,0,1-4.26.93,4.87,4.87,0,0,1-1.56-.18,2,2,0,0,1-1.52-2.26,23.91,23.91,0,0,1,.75-3.93c.81-3.28,1.64-6.56,2.46-9.84l.06-.2c.05-.27,0-.3-.25-.29l-3.2,0h-.13c-.38,0-.39,0-.32-.38a1.84,1.84,0,0,0,0-.25c0-.23.13-.3.35-.32a9.73,9.73,0,0,0,7.49-4.91.69.69,0,0,1,.74-.41,4.65,4.65,0,0,0,.65,0,1.05,1.05,0,0,1,0,.47l-.93,3.76a.72.72,0,0,0,0,.39C202.27,53.53,204.27,53.4,206.3,53.41Z"/><path class="cls-1" d="M39.57,53.25v7.2c0,.17-.07.22-.23.22H36.82c-.18,0-.26-.06-.24-.25V47.24c0-.37,0-.37.38-.37.75,0,1.51,0,2.26,0a.49.49,0,0,1,.52.32l3.4,6.74a1.06,1.06,0,0,0,.27.41v-6.9c0-.1,0-.2,0-.3s.06-.27.25-.26h2.56c.18,0,.25.08.24.26a2.09,2.09,0,0,0,0,.25v12.8a1.47,1.47,0,0,0,0,.21c0,.2-.05.29-.26.28-.86,0-1.71,0-2.56,0-.22,0-.29-.13-.37-.29l-1.77-3.5-1.69-3.34A.6.6,0,0,0,39.57,53.25Z"/><path class="cls-1" d="M116.18,70.54v7.21c0,.1-.06.15-.16.16H113.5c-.3,0-.31,0-.31-.31,0-.59,0-1.19,0-1.79V64.59c0-.49,0-.47.45-.47.72,0,1.45,0,2.17,0a.51.51,0,0,1,.55.35l3.34,6.62c.08.15.16.29.23.44H120V64.68c0-.62-.08-.55.58-.56h2c.43,0,.43,0,.43.45v13c0,.32,0,.33-.34.33-.78,0-1.56,0-2.35,0a.48.48,0,0,1-.49-.3l-3.4-6.74c-.06-.12-.13-.24-.2-.36Z"/><path class="cls-1" d="M84,54.54a.26.26,0,0,0,.15.19,3,3,0,0,1,1.24,1.43c.51,1.09.9,2.24,1.34,3.36a7.4,7.4,0,0,1,.41,1.11.93.93,0,0,1-.4,0H84c-.38,0-.39,0-.53-.34l-1.56-3.88a3.48,3.48,0,0,0-.46-.9,1.11,1.11,0,0,0-1-.46c-.14,0-.22,0-.21.2v4.86c0,.1,0,.2,0,.3s-.06.22-.22.22H77.22c-.15,0-.24-.05-.23-.22a2.26,2.26,0,0,0,0-.26V47.32c0-.45,0-.45.44-.45h3.11c.85,0,1.7,0,2.56,0a6.35,6.35,0,0,1,1.05.16,2.54,2.54,0,0,1,1.62,1.22,4.64,4.64,0,0,1,.59,2.58,4.74,4.74,0,0,1-.46,2,3.22,3.22,0,0,1-1.56,1.51Zm-2.85-4.88c-.24,0-.48,0-.72,0s-.24,0-.24.21v2.39c0,.14.06.21.2.2a6.44,6.44,0,0,0,1.86-.14,1.09,1.09,0,0,0,.78-.77,1.84,1.84,0,0,0,0-1.09,1,1,0,0,0-.81-.73A5.35,5.35,0,0,0,81.17,49.66Z"/><path class="cls-1" d="M104.08,53.78v-6.7c0-.14.06-.21.2-.21h4.22a6.25,6.25,0,0,1,1.61.16,3.67,3.67,0,0,1,2.19,1.65,7,7,0,0,1,1,2.67,14.75,14.75,0,0,1-.07,5.34,5.67,5.67,0,0,1-1.41,2.83,3.08,3.08,0,0,1-1.39.87,5.8,5.8,0,0,1-1.8.29h-4.31c-.13,0-.21-.06-.2-.2v-6.7Zm3.15,0c0,1.15,0,2.3,0,3.45,0,.21.06.32.29.3s.51,0,.77,0a1.61,1.61,0,0,0,1.78-1.38c0-.11,0-.22.07-.33a12.06,12.06,0,0,0,.14-2.55,7,7,0,0,0-.3-2,1.74,1.74,0,0,0-1.44-1.23,5.51,5.51,0,0,0-.81-.05c-.53,0-.49,0-.49.48Z"/><path class="cls-1" d="M36.58,71V64.72a1.51,1.51,0,0,0,0-.3c0-.24.1-.29.31-.29,1.62,0,3.24,0,4.86,0a3.54,3.54,0,0,1,3,1.75,6.63,6.63,0,0,1,1,2.57,15.23,15.23,0,0,1,0,5.51,6.38,6.38,0,0,1-.81,2,3.74,3.74,0,0,1-2.61,1.82,5.78,5.78,0,0,1-1.1.11H36.83c-.17,0-.27,0-.25-.24V71Zm3.15,0v2.9c0,.2,0,.39,0,.59s.06.29.27.28l1,0a1.55,1.55,0,0,0,1.53-1.14,3.74,3.74,0,0,0,.12-.45,12.38,12.38,0,0,0,.13-3.1,5.81,5.81,0,0,0-.28-1.54A1.73,1.73,0,0,0,41,67.3a5.93,5.93,0,0,0-.94,0c-.35,0-.35,0-.35.36Z"/><path class="cls-1" d="M126.75,53.74V47.09c0-.17.08-.23.23-.22h.09c1.59,0,3.18,0,4.78,0A3.68,3.68,0,0,1,135,48.8a7.44,7.44,0,0,1,.94,2.9,16.44,16.44,0,0,1-.06,4.75,6.53,6.53,0,0,1-.83,2.23,3.75,3.75,0,0,1-2.66,1.89,5.16,5.16,0,0,1-.88.1h-4.4c-.39,0-.39,0-.39-.4Zm3.13,0v3.45c0,.34,0,.34.32.34s.68,0,1,0a1.46,1.46,0,0,0,1.37-1,3.46,3.46,0,0,0,.23-.82,14.91,14.91,0,0,0,.07-3.06,4.58,4.58,0,0,0-.3-1.46,1.73,1.73,0,0,0-1.35-1.11,4.43,4.43,0,0,0-.81-.07c-.6,0-.55-.08-.55.54Z"/><path class="cls-1" d="M92.86,68.65v3.76a3.4,3.4,0,0,0,.13,1,1.73,1.73,0,0,0,2,1.29,1.63,1.63,0,0,0,1.35-1,3.22,3.22,0,0,0,.26-1.37V64.58c0-.5-.06-.47.49-.47.81,0,1.62,0,2.43,0,.41,0,.41,0,.41.39,0,2.61,0,5.23,0,7.85A6.81,6.81,0,0,1,99,75.82a4,4,0,0,1-3.46,2.08A10.9,10.9,0,0,1,93,77.75a3.67,3.67,0,0,1-2.32-1.46,5.54,5.54,0,0,1-1-2.55,11.5,11.5,0,0,1-.16-2v-7c0-.1,0-.2,0-.3s.05-.26.24-.26h2.9c.16,0,.23.07.23.23s0,.2,0,.3Z"/><path class="cls-1" d="M169.33,54.16c-.2,1.59-.4,3.12-.58,4.66,0,.21-.12.31-.33.28h-.13c-.51,0-.51,0-.56-.5a2.56,2.56,0,0,0-1.2-2,4.35,4.35,0,0,0-1.87-.67,6.55,6.55,0,0,0-5.7,1.88,10.42,10.42,0,0,0-3.28,6.75,8.8,8.8,0,0,0,.09,2.71,3.61,3.61,0,0,0,3.15,3,10,10,0,0,0,5.26-.66,13.91,13.91,0,0,0,2.75-1.45c.29-.2.24-.23.53,0l.39.33s0,0,0,.09a.57.57,0,0,1-.11.11,19.39,19.39,0,0,1-5.72,3.15,11.73,11.73,0,0,1-4.16.61,6.6,6.6,0,0,1-4.66-2A5.53,5.53,0,0,1,151.68,67a9.29,9.29,0,0,1,1.93-6.3,16.44,16.44,0,0,1,6-5.26,11.21,11.21,0,0,1,6.14-1.05c.44,0,.87.11,1.3.17a1.72,1.72,0,0,0,1.42-.3C168.72,54.06,169,54.17,169.33,54.16Z"/><path class="cls-1" d="M66.63,53.78V47.43a2.26,2.26,0,0,0,0-.26c0-.21.06-.33.29-.3h7.8c.31,0,.32,0,.32.31v2.35c0,.29,0,.3-.31.3H70.15c-.3,0-.31,0-.31.31q0,.77,0,1.53c0,.35,0,.35.35.35H74.5c.59,0,.53-.06.53.51v1.88c0,.47,0,.43-.45.43H70.06c-.16,0-.23.06-.23.22q0,1.11,0,2.22c0,.23.12.25.3.24h4.56c.33,0,.34,0,.34.33v2.47c0,.32,0,.33-.34.33H67.06c-.43,0-.43,0-.43-.45Z"/><path class="cls-1" d="M47.91,71V64.51c0-.37,0-.37.38-.37,2.55,0,5.09,0,7.64,0,.35,0,.36,0,.36.34v2.26c0,.33,0,.34-.36.34H51.32c-.16,0-.23.08-.23.24,0,.58,0,1.16,0,1.75,0,.14.07.2.21.2h4.56c.44,0,.43,0,.43.41v2c0,.45,0,.41-.43.41H51.47c-.37,0-.37,0-.38.37v1.88c0,.45,0,.45.44.45H56c.19,0,.29,0,.28.26,0,.87,0,1.73,0,2.6,0,.2-.06.28-.27.27-.47,0-.94,0-1.4,0H48.47c-.11,0-.22,0-.34,0s-.22-.08-.22-.23,0-.2,0-.3Z"/><path class="cls-1" d="M111.14,77.91h-3c-.23,0-.26-.13-.29-.29-.12-.54-.24-1.08-.37-1.62-.08-.35-.08-.35-.44-.35h-2.86c-.24,0-.35.06-.4.31-.11.58-.25,1.14-.37,1.71,0,.16-.08.25-.27.25h-3a1.59,1.59,0,0,1,.1-.51Q102,71,103.83,64.55c.12-.44.12-.44.56-.44q1.31,0,2.61,0c.39,0,.39,0,.49.36q1.8,6.48,3.59,13A.79.79,0,0,1,111.14,77.91Zm-5.46-10h-.08l-.21.91-.78,3.48c-.07.35-.06.36.3.37h1.45c.39,0,.39,0,.31-.38l-.3-1.32Z"/><path class="cls-1" d="M136.05,77.86a.38.38,0,0,1-.25,0c-.9,0-1.79,0-2.69,0-.25,0-.34-.08-.39-.33-.1-.55-.26-1.1-.37-1.66,0-.23-.16-.29-.38-.29q-1.47,0-2.94,0c-.23,0-.33.08-.37.3-.11.54-.23,1.08-.35,1.63-.07.33-.07.34-.41.34h-2.51c-.37,0-.37,0-.28-.36l1.65-6c.65-2.35,1.31-4.71,2-7.06.15-.54.18-.43.58-.43.86,0,1.73,0,2.6,0,.38,0,.39,0,.49.37q1.34,4.81,2.66,9.65l.93,3.32A1.19,1.19,0,0,1,136.05,77.86Zm-6.63-5.23h2.21l-1.07-4.73h-.08Z"/><path class="cls-1" d="M92.67,46.88a6.09,6.09,0,0,1,1.71.22,3.18,3.18,0,0,1,2,1.75,6.12,6.12,0,0,1,.47,1.67c0,.34,0,.36-.32.39L95.29,51l-1,.08c-.36,0-.36,0-.45-.32a4.64,4.64,0,0,0-.16-.53,1.4,1.4,0,0,0-1.73-.8.94.94,0,0,0-.69.82.85.85,0,0,0,.51.94,3.52,3.52,0,0,0,.68.26,16,16,0,0,1,2.41.84,4.59,4.59,0,0,1,1.21.79,3.37,3.37,0,0,1,1,2.09,7.45,7.45,0,0,1-.06,2.21,3.94,3.94,0,0,1-3.73,3.28,8.49,8.49,0,0,1-2.46-.17,3.26,3.26,0,0,1-2.15-1.61A6.72,6.72,0,0,1,88,56.34c0-.22,0-.32.26-.33l1.15-.1c.43,0,.87-.06,1.31-.11.22,0,.32,0,.33.27a2.91,2.91,0,0,0,.21.87A1.6,1.6,0,0,0,92.94,58a1.25,1.25,0,0,0,1.17-1,1.38,1.38,0,0,0-.46-1.46A4.22,4.22,0,0,0,92.33,55,11.52,11.52,0,0,1,91,54.59a6.08,6.08,0,0,1-1-.51,3.7,3.7,0,0,1-1.75-3.39,4.13,4.13,0,0,1,.17-1.1,3.56,3.56,0,0,1,3.36-2.67Z"/><path class="cls-1" d="M114,60.67a11.67,11.67,0,0,1,.35-1.44q1.62-6,3.23-11.92a1,1,0,0,0,0-.16c0-.24.17-.29.39-.29h2.64c.41,0,.41,0,.52.39.58,2.15,1.17,4.3,1.75,6.45s1.17,4.3,1.75,6.46a.87.87,0,0,1,.07.45.42.42,0,0,1-.29.05h-2.55c-.32,0-.33,0-.4-.31-.12-.54-.23-1.08-.35-1.63-.07-.3-.08-.31-.4-.31h-2.81c-.35,0-.35,0-.43.37-.12.55-.24,1.11-.35,1.67,0,.12-.07.21-.21.21Zm4.27-5.24h2c.13,0,.18-.07.16-.19a1.55,1.55,0,0,0,0-.21c-.3-1.37-.6-2.74-.91-4.11,0-.09,0-.2-.13-.26Z"/><path class="cls-1" d="M59,56.54l.47-2.07c.55-2.42,1.09-4.84,1.64-7.27.07-.33.07-.33.42-.33h2.77c.33,0,.34,0,.25.34-.85,3-1.69,5.92-2.54,8.89-.39,1.38-.79,2.76-1.18,4.13-.13.44-.13.44-.57.44H57.7c-.43,0-.43,0-.54-.4L55,52.73l-1.48-5.2-.12-.41c-.06-.19,0-.26.2-.26h2.86c.34,0,.34,0,.41.34.35,1.54.69,3.08,1,4.61l1,4.24A1,1,0,0,0,59,56.54Z"/><path class="cls-1" d="M69.07,72.5v5.2c0,.17-.08.22-.23.22H66c-.16,0-.22-.08-.22-.24s0-.22,0-.34V67.58c0-.59,0-.51-.53-.51H62.76c-.33,0-.34,0-.34-.32V64.48c0-.34,0-.34.33-.34h9c.1,0,.2,0,.3,0s.31.05.3.29c0,.79,0,1.59,0,2.38,0,.22-.09.27-.28.27H69.55c-.52,0-.48,0-.48.48Z"/><path class="cls-1" d="M84.36,68.71c0-1.4,0-2.81,0-4.22,0-.39,0-.4.39-.4h2.47c.36,0,.37,0,.37.34,0,2.69,0,5.38,0,8.06a9.16,9.16,0,0,1-.33,2.61,3.6,3.6,0,0,1-2.85,2.74,5.21,5.21,0,0,1-2.74-.19,3.22,3.22,0,0,1-1.73-1.56,6.44,6.44,0,0,1-.7-2.75c0-.15,0-.27.2-.3l2.64-.46c.22,0,.24.06.23.22a4.73,4.73,0,0,0,.09.93,1.78,1.78,0,0,0,.2.56.77.77,0,0,0,.75.46.81.81,0,0,0,.74-.49,2.9,2.9,0,0,0,.26-1.33c0-1.4,0-2.81,0-4.22Z"/><path class="cls-1" d="M51.39,53.79V60.1c0,.1,0,.2,0,.3s-.06.28-.26.27c-.81,0-1.62,0-2.43,0-.24,0-.3-.1-.28-.31a1.47,1.47,0,0,0,0-.21V47.37c0-.52,0-.51.54-.49s1.31,0,2,0c.47,0,.47,0,.47.45Z"/><path class="cls-1" d="M99.14,53.79v-6.6c0-.31,0-.34.31-.32.77.05,1.54,0,2.3,0,.36,0,.36,0,.36.34s0,.71,0,1.07V60.16c0,.58.07.51-.53.51H99.49c-.34,0-.35,0-.35-.36Z"/><path class="cls-1" d="M77.22,71V77.6c0,.31,0,.32-.3.32H74.57c-.29,0-.3,0-.3-.32V64.71a2.81,2.81,0,0,0,0-.29c0-.24.09-.29.3-.29h2.26c.39,0,.39,0,.39.4Z"/><path class="cls-1" d="M144.46,62.41v-15c0-.1,0-.2,0-.3s0-.3.26-.27h0c.64,0,.57,0,.57.53v30c0,.59.08.53-.57.53-.29,0-.29,0-.3-.32V62.41Z"/></g></svg>