<svg xmlns="http://www.w3.org/2000/svg" viewBox="0 0 195.38 124.8"><defs><style>.cls-1{fill:#606161;}</style></defs><title>LOGOS MAXIM GRIS</title><g id="Layer_3" data-name="Layer 3"><path class="cls-1" d="M89.69,20.58a11.48,11.48,0,0,0-2.24,5.64,10.69,10.69,0,0,0,3,8.85,10.9,10.9,0,0,0,16.95-1.57c2.08-3.3,2.19-6.9,1.53-10.61-1.25-7-6.76-11-13.32-11.58-3.91-.35-7.46.7-11,2.11a37.54,37.54,0,0,0-7.18,4.17,34.1,34.1,0,0,0-5.26,4.5,38.51,38.51,0,0,0-9.09,16.65c-.21.74-.39,1.48-.66,2.2A30.3,30.3,0,0,1,66.55,20.1,30.73,30.73,0,0,1,77.19,9.45,31.84,31.84,0,0,1,97.06,5a28.78,28.78,0,0,1,12,4,31.35,31.35,0,0,1,12,12A31,31,0,0,1,125,37.79a30.79,30.79,0,0,1-1.9,9.45A17.44,17.44,0,0,1,114.4,57c-8.35,4.22-16.35,3.48-24-1.55a20.41,20.41,0,0,1-7.66-9.5A22.78,22.78,0,0,1,83.58,26,9.88,9.88,0,0,1,89.69,20.58Z"/><path class="cls-1" d="M9,91.54c0-3.35,0-6.71,0-10.06,0-1,.16-1.35,1.26-1.33,3.78.08,7.57,0,11.36.06.53,0,1.41-.54,1.6.56.24,1.46-.23,2.51-1.31,2.81a6.34,6.34,0,0,1-1.63.21c-1.89,0-3.79,0-5.68,0-.72,0-1,.2-.91.94a19.26,19.26,0,0,1,0,3.31c-.15,1.22.35,1.43,1.44,1.37,1.61-.09,3.23,0,4.84-.05.76,0,.91.23.92.93,0,2.75.05,2.75-2.74,2.74-1.22,0-2.45,0-3.67,0-.64,0-.79.21-.78.81,0,1.53,0,3.07,0,4.61,0,.69.22.86.87.85,2.13,0,4.26,0,6.39,0s3,1,2.8,2.94c-.05.52-.22.64-.72.63q-6.63,0-13.25,0c-.76,0-.79-.32-.78-.9C9,98.48,9,95,9,91.54Z"/><path class="cls-1" d="M99.49,67.18C88.1,69.3,76.23,64,71.3,52.84A19.84,19.84,0,0,1,73.1,34C73.15,52.13,82,63.22,99.49,67.18Z"/><path class="cls-1" d="M112.32,90.84c.12.1.19.22.29.25,2.81.82,4,3.17,3.77,6.15a5.58,5.58,0,0,1-4.81,5.22c-3.19.67-6.44.29-9.66.37-.8,0-.46-.6-.46-.94,0-3.78,0-7.56,0-11.34,0-3.07,0-6.15,0-9.22,0-.78.15-1.1,1-1.15,3-.18,5.9-.48,8.81.26,2,.5,3.6,1.56,4,3.73.46,2.49-.08,4.7-2.29,6.26Zm-5.43,1.52c-.63,0-1.26,0-1.88,0s-.68.2-.67.69c0,2.25,0,4.49,0,6.73,0,.4.09.66.59.65a22,22,0,0,0,5.73-.45,3.25,3.25,0,0,0,2.7-3.25,3.5,3.5,0,0,0-2.4-3.87A11,11,0,0,0,106.89,92.36Zm-2.54-6.2v1.17c0,2.64,0,2.62,2.61,2.65a6.22,6.22,0,0,0,3.91-1,3.84,3.84,0,0,0,1.45-4.09c-.23-1.46-1.41-2-2.68-2.29a12.6,12.6,0,0,0-3.52-.2c-2.08.09-1.73-.26-1.77,1.75C104.34,84.82,104.35,85.49,104.35,86.16Z"/><path class="cls-1" d="M94.16,94.84c0,4.36-1.9,7.41-5.44,8.2-7.45,1.67-11.36-3.27-10.29-10s7.25-7.86,11.95-5.76c2.62,1.17,3.49,3.59,3.78,6.26C94.2,94,94.16,94.4,94.16,94.84Zm-4.54-.37A6.86,6.86,0,0,0,89,91.53a2.84,2.84,0,0,0-2.65-1.64,2.75,2.75,0,0,0-2.82,1.66A8.32,8.32,0,0,0,83.4,98a2.77,2.77,0,0,0,2.89,1.94,3,3,0,0,0,2.9-2.17A9.45,9.45,0,0,0,89.62,94.47Z"/><path class="cls-1" d="M55.49,95.66c.71,4.3,4.57,5.79,7.94,3.07.71-.56.93-.36,1.3.26,1.13,1.93.86,3-1.26,3.71-3.53,1.23-7,1.27-10-1.31-2.51-2.16-2.78-5.19-2.42-8.25.75-6.39,6.87-7.78,10.82-6.18,2.71,1.1,3.62,3.43,3.77,6.17.14,2.53.14,2.53-2.3,2.53Zm3.24-6.19a3,3,0,0,0-3.2,2.91c0,.45,0,.75.57.74,1.58,0,3.15,0,4.73,0,.31,0,.6.06.65-.44A2.91,2.91,0,0,0,58.73,89.47Z"/><path class="cls-1" d="M30.8,103.36A9.31,9.31,0,0,1,26,102.29a2.24,2.24,0,0,1,0-3.58c.39-.24.57.13.81.27a6.94,6.94,0,0,0,4.37,1.15c.94-.1,1.84-.38,2-1.51s-.59-1.71-1.6-2-2-.49-3-.8c-2.35-.74-3.54-2.25-3.56-4.43a4.73,4.73,0,0,1,3.51-4.52,10.49,10.49,0,0,1,7.28.23,2.17,2.17,0,0,1,.77,3.78c-.37.38-.53,0-.77-.12a7.71,7.71,0,0,0-4.48-1.24c-.84.07-1.61.29-1.73,1.27s.64,1.28,1.35,1.52,1.44.4,2.16.58c3.28.86,4.66,2.48,4.5,5.27s-2.16,4.64-5.2,5.06C31.82,103.33,31.18,103.33,30.8,103.36Z"/><path class="cls-1" d="M168.22,88.48a7.81,7.81,0,0,1,7-1.66,4.55,4.55,0,0,1,3.44,4c.3,2.9.06,5.83.13,8.74,0,.55,0,1.11,0,1.66,0,1.57,0,1.48-1.5,1.6-1.18.1-1.42-.29-1.39-1.41.07-3,.05-6,0-9,0-2.43-1-3.33-3.46-3.27a6.35,6.35,0,0,0-2.43.45,2.64,2.64,0,0,0-1.81,2.72c.08,3.19,0,6.39,0,9.58,0,.73-.17.92-.89.91-2,0-2,0-2-1.92,0-6.9,0-13.8,0-20.7,0-.47-.37-1.23.41-1.37a2,2,0,0,1,2.16.9,2.8,2.8,0,0,1,.27,1.49C168.21,83.58,168.22,85.9,168.22,88.48Z"/><path class="cls-1" d="M48.89,98.61c.3.52.55.92.77,1.34a1.63,1.63,0,0,1-.56,2.27,7.57,7.57,0,0,1-7.21.42,4.38,4.38,0,0,1-2.15-3.85c-.07-5.36,0-10.72,0-16.09,0-.79.26-1.06,1-1a11.53,11.53,0,0,1,1.77.11c1.34.29,1.81,1.12,1.83,3s0,1.92,1.92,1.92h1.3c1.54,0,1.54,0,1.54,1.46,0,2,0,2-2,2-2.72,0-2.72,0-2.72,2.78,0,1.3,0,2.6,0,3.9,0,1-.1,2.07.94,2.63A2.81,2.81,0,0,0,48.33,99Z"/><path class="cls-1" d="M147.35,95.78v4.38c0,.71.23,1.24,1.05,1.28.48,0,.57.31.55.72s0,.66-.49.8a3.28,3.28,0,0,1-3.81-1.29c-.38-.63-.54-.15-.76,0a7.18,7.18,0,0,1-6.37,1.26,3.91,3.91,0,0,1-3.12-3.33,4.89,4.89,0,0,1,2.16-5.34,11.85,11.85,0,0,1,6.79-1.62c1,0,1.13-.33,1-1.16a2.52,2.52,0,0,0-2.58-2.42A7.86,7.86,0,0,0,137,90c-.4.23-.9.94-1.32,0-.34-.71-.73-1.47.12-2.13a3.74,3.74,0,0,1,.62-.34,11.42,11.42,0,0,1,7.28-.73,4.18,4.18,0,0,1,3.46,4C147.37,92.47,147.23,94.13,147.35,95.78Zm-2.91,1.06V95.43c0-.37-.12-.62-.53-.61-1.88.05-3.79,0-5.46,1.08s-1.7,3.82-.06,4.64A4.27,4.27,0,0,0,144.44,96.84Z"/><path class="cls-1" d="M126.94,95.44c-1.5,0-3,0-4.49,0-.7,0-.86.19-.77.87.59,4.3,4.94,6.09,8.56,3.54.32-.23.61-1.25,1.24-.37.5.71,1,1.51.1,2.31a5.83,5.83,0,0,1-2.85,1.34c-2.9.51-5.67.39-7.94-1.84a6.62,6.62,0,0,1-1.89-3.73c-.48-2.85-.53-5.67,1.27-8.16a7.21,7.21,0,0,1,8-2.48c2.54.77,4.06,3,4.21,6.32.11,2.21.11,2.21-2,2.21h-3.43Zm-1.32-2.15h3.2c.32,0,.68.12.72-.48A3.66,3.66,0,0,0,126.79,89a4.17,4.17,0,0,0-5.09,3.52c-.1.57,0,.78.61.76C123.42,93.26,124.52,93.29,125.62,93.29Z"/><path class="cls-1" d="M71.81,88.26a4.63,4.63,0,0,1,4.38-1.83c1.53.2,2.07.94,1.71,2.43a7.76,7.76,0,0,1-.22.79c-.52,1.48-.52,1.46-2,.91-2-.79-4,.38-3.85,2.58.18,2.91,0,5.84.06,8.76,0,.81-.25,1-1,.95a26.57,26.57,0,0,0-3,0c-.54,0-.66-.17-.66-.67q0-7.34,0-14.67c0-.57.2-.74.74-.78C69.56,86.62,70.92,86.78,71.81,88.26Z"/><path class="cls-1" d="M157.7,103.36c-4.38.16-7.24-2.29-7.79-6.69-.38-3.06,0-5.9,2.42-8.15a8.33,8.33,0,0,1,9.46-.8c.69.47,1.23,1,.91,2-.43,1.29-.76,1.38-1.8.52a4.74,4.74,0,0,0-7.85,2.58,9.19,9.19,0,0,0,.16,4.91c1,3.2,4.82,4.26,7.64,2.15.44-.33.79-1.12,1.45-.19.53.76.8,1.43,0,2.18A7,7,0,0,1,157.7,103.36Z"/><path class="cls-1" d="M88,112.28a1.71,1.71,0,0,1,1.7,1,1.67,1.67,0,0,1-.47,2c-.8.65-.57,1,.15,1.57s1.1.41,1.45-.32c.14-.28.25-.58.4-.85a.37.37,0,0,1,.48-.22.46.46,0,0,1,.34.55,2,2,0,0,1-.29.76c-.61.85-.48,1.46.51,1.89.4.18.63.46.32.93s-.64.19-.87,0a1.69,1.69,0,0,0-2.31-.12,2.84,2.84,0,0,1-1.91.48,2,2,0,0,1-1.85-1,1.78,1.78,0,0,1,.42-2.06c.52-.55.67-.91.11-1.55a1.77,1.77,0,0,1-.12-2.1A2.07,2.07,0,0,1,88,112.28Zm-.29,6.82c.6,0,1.72-.49,1.78-.8a5.45,5.45,0,0,0-1.91-1.44,1.33,1.33,0,0,0-1,1.19C86.47,118.77,87,119.07,87.66,119.1Zm-.84-4.84c0,.43.19,1.14.76,1.15A1.38,1.38,0,0,0,88.81,114c.07-.64-.47-.91-1-.94S86.8,113.43,86.82,114.26Z"/><path class="cls-1" d="M29.78,116.13v-2.84c0-.39,0-.81.56-.84s.58.45.65.88c.09.67-.39,1.57.33,2a4.59,4.59,0,0,0,2.68.12c.49,0,.51-.4.51-.77,0-.55,0-1.1,0-1.66,0-.39.21-.56.6-.55s.56.18.57.57c0,2,0,4.08.06,6.13,0,.42-.21.78-.72.76s-.52-.4-.52-.77v-.48c0-1.94,0-1.94-2-2-1.43-.07-1.55,0-1.57,1.47a5.61,5.61,0,0,1,0,.71c0,.43.17,1.06-.56,1.08s-.61-.56-.61-1C29.78,117.94,29.78,117,29.78,116.13Z"/><path class="cls-1" d="M103.38,116.14c0-1,0-2,0-3,0-.46.12-.76.66-.74.82,0,1.66,0,2.47.11a1.88,1.88,0,0,1,1.68,1.44,1.76,1.76,0,0,1-.61,2c-1,.66-.67,1.22-.11,1.88.3.36.63.71.89,1.09.15.22.63.42.24.76a.77.77,0,0,1-1,0,7.22,7.22,0,0,1-.78-.87,5.32,5.32,0,0,0-.36-.47c-.49-.48-.93-1.38-1.59-1.2s-.23,1.1-.3,1.69c0,.44,0,.93-.6,1s-.58-.51-.59-.92c0-.94,0-1.88,0-2.82Zm1.18-1.39c.16.41-.4,1.23.68,1.22s1.91-.66,1.84-1.42c-.09-1-.84-1.06-1.62-1.15C104.29,113.27,104.62,114.11,104.56,114.75Z"/><path class="cls-1" d="M131.31,116.07a3.49,3.49,0,0,1,3.6-3.8,3.86,3.86,0,0,1-.09,7.71C132.76,120,131.31,118.38,131.31,116.07Zm1.18.09c0,1.71,1,2.91,2.44,2.87a2.6,2.6,0,0,0,2.48-2.88c0-1.76-1.06-3-2.54-2.92S132.48,114.42,132.49,116.16Z"/><path class="cls-1" d="M47.79,116.06A3.52,3.52,0,0,1,44,120a3.57,3.57,0,0,1-3.52-3.67c0-2.41,1.42-4,3.65-4A3.49,3.49,0,0,1,47.79,116.06Zm-6.13.06c0,1.73,1.07,2.93,2.56,2.92a2.76,2.76,0,0,0,2.45-2.93,2.62,2.62,0,0,0-2.59-2.87A2.58,2.58,0,0,0,41.66,116.12Z"/><path class="cls-1" d="M148.81,119.83a1.64,1.64,0,0,1-1.84-.74,8,8,0,0,0-.79-1c-.35-.4-.59-1.08-1.26-.88s-.27.87-.35,1.33c0,.31,0,.63-.07.94s-.32.43-.61.44-.5-.21-.5-.53V113c0-.32.14-.53.49-.53a8.7,8.7,0,0,1,2.92.16,1.89,1.89,0,0,1,1.4,1.58,1.67,1.67,0,0,1-.76,1.93c-.82.47-.74.93-.17,1.55A5.66,5.66,0,0,1,148.81,119.83Zm-3.5-6.43c-.38-.05-.94.08-.74.85.15.58-.59,1.53.58,1.7.93.14,2-.58,1.94-1.3C147.06,113.69,146.36,113.47,145.31,113.4Z"/><path class="cls-1" d="M113.39,116.24c0-1,0-2,0-2.95,0-.39,0-.83.55-.84l3,0c.31,0,.68,0,.68.46s-.4.51-.76.51-.79,0-1.18,0c-.68,0-1.09.35-1.09,1.1s.4,1,1,1c.39,0,.79,0,1.18,0s.66,0,.68.46-.29.51-.63.51-.79,0-1.18,0c-.69,0-.92.24-1,.94-.15,1.06.17,1.45,1.22,1.3a5.18,5.18,0,0,1,1.18,0c.32,0,.65.13.64.55s-.32.48-.66.48c-1,0-2,0-3,0-.53,0-.67-.28-.66-.75,0-1,0-1.89,0-2.84Z"/><path class="cls-1" d="M61.77,116.08c0-.91,0-1.81,0-2.72,0-.73.26-1,1-1,.9,0,1.8,0,2.71,0,.3,0,.54.07.55.44s-.2.5-.51.51c-.47,0-.95,0-1.42,0-.65,0-1.13,0-1.12.9s.23,1.29,1.12,1.25c.39,0,.79,0,1.18,0s.63.13.65.52-.3.51-.64.52-.54-.06-.82-.07c-1.5,0-1.58.07-1.49,1.59,0,.56.23.78.78.76s1.18,0,1.77,0c.27,0,.58,0,.61.38a.49.49,0,0,1-.47.58c-1.17,0-2.35.06-3.52,0-.38,0-.3-.49-.31-.8,0-1,0-2,0-2.94Z"/><path class="cls-1" d="M55.08,116.38c0,1.12,0,2,0,2.77,0,.41,0,.79-.61.78s-.56-.43-.56-.82c0-1.49,0-3,0-4.47,0-.87-.16-1.36-1.15-1.25-.38,0-1,.19-1-.5s.54-.5.9-.51c1.21,0,2.43,0,3.65,0,.37,0,.87,0,.82.58a.63.63,0,0,1-.78.55c-1.49-.32-1.38.52-1.25,1.53A5.14,5.14,0,0,1,55.08,116.38Z"/><path class="cls-1" d="M155.05,112.44h2.23c.31,0,.69,0,.67.45a.51.51,0,0,1-.65.5c-1.52-.25-1.51.68-1.47,1.76,0,1.29,0,2.59,0,3.89,0,.34.08.83-.57.81s-.58-.44-.59-.82c-.07-1.49.07-3,0-4.48,0-.84-.23-1.24-1.13-1.16-.39,0-1,.18-1-.49s.63-.4,1-.44A13.16,13.16,0,0,1,155.05,112.44Z"/><path class="cls-1" d="M71,116.14c0-1,0-2,0-3,0-.45.11-.75.65-.75s.63.34.63.78c0,1.41.08,2.83,0,4.23-.09,1.18.5,1.36,1.45,1.41.54,0,1.55-.39,1.52.51,0,.72-1,.46-1.61.48h-.11C71,119.73,71,119.73,71,117.2Z"/><path class="cls-1" d="M124,119.87a3,3,0,0,1-1.39-.21.52.52,0,0,1-.33-.67c.1-.4.39-.28.66-.21a2.79,2.79,0,0,0,2.07.09c.93-.44,1-1.12.31-1.84a7,7,0,0,0-1.64-.92c-.89-.49-1.56-1.15-1.34-2.25a2,2,0,0,1,2.12-1.52,7,7,0,0,1,1.63.2.48.48,0,0,1,.43.6c-.09.38-.37.3-.65.25a11.22,11.22,0,0,0-1.41-.14.89.89,0,0,0-1,.72.92.92,0,0,0,.48,1.1c.52.28,1,.6,1.54.86a2,2,0,0,1,1.27,2.39c-.25,1.19-1.17,1.48-2.21,1.55Z"/><path class="cls-1" d="M184.43,102.86a2,2,0,0,1-1.94-2,2,2,0,0,1,3.95.07A2,2,0,0,1,184.43,102.86Zm.82-2.94,0,0c.26-.18.11-.34-.06-.44a1.41,1.41,0,0,0-1.82.24,1.46,1.46,0,0,0-.39,1.82,1.53,1.53,0,0,0,1.73.94,1.44,1.44,0,0,0,1.28-1.34C186.06,100.64,186.22,99.9,185.25,99.92Z"/><path class="cls-1" d="M185.25,99.92c.12.66-.19,1.31.16,2.2-.62-.39-1.14-1.71-1.39,0a1.82,1.82,0,0,1-.32-2c.26-.63,1-.17,1.58-.19Z"/></g></svg>