<svg xmlns="http://www.w3.org/2000/svg" viewBox="0 0 214.8 124.8"><defs><style>.cls-1{fill:#606161;}</style></defs><title>LOGOS MAXIM GRIS</title><g id="Layer_4" data-name="Layer 4"><polygon class="cls-1" points="51.29 45.75 204.81 34.52 204.81 24.83 33.84 37.33 51.29 45.75"/><polygon class="cls-1" points="111.84 74.96 204.81 74.96 204.81 38.68 58.77 49.35 111.84 74.96"/><polygon class="cls-1" points="11.56 19.57 11.56 34.41 17.04 34.41 204.81 20.68 204.81 19.57 11.56 19.57"/><polygon class="cls-1" points="11.56 74.96 35.29 74.96 11.56 64.02 11.56 74.96"/><path class="cls-1" d="M59.69,90.31H47.6q-8.07,0-8.06,5.79h4q0-2.89,4-2.9H59.69c2.68,0,4,1,4,2.9V99H47.6q-8.07,0-8.06,5.8t8.06,5.79H67.75V96.1Q67.75,90.31,59.69,90.31Zm4,17.37H47.6q-4,0-4-2.89c0-1.94,1.34-2.9,4-2.9H63.72Z"/><path class="cls-1" d="M189.69,90.31q-8.06,0-8.06,5.79v14.48h4V96.1q0-2.89,4-2.9h12.09V90.31Z"/><path class="cls-1" d="M130.24,99h-12.1c-2.68,0-4-1-4-2.89s1.35-2.9,4-2.9H137.6q-1.68-2.9-7.36-2.89h-12.1q-8.06,0-8.06,5.79t8.06,5.79h12.1c2.68,0,4,1,4,2.9s-1.35,2.89-4,2.89h-12.1c-.29,0-.56,0-.82,0h-6.56c1.11,2,3.56,2.94,7.38,2.94h12.1q8.06,0,8.06-5.79T130.24,99Z"/><path class="cls-1" d="M95,99H82.87q-4,0-4-2.89t4-2.9h19.45q-1.66-2.9-7.36-2.89H82.87q-8.06,0-8.06,5.79t8.06,5.79H95c2.69,0,4,1,4,2.9s-1.34,2.89-4,2.89H82.87c-.29,0-.56,0-.82,0H75.49q1.65,2.94,7.38,2.94H95q8.06,0,8.06-5.79T95,99Z"/><path class="cls-1" d="M10.67,92.38v18.2h4V97.77H34.56V95.4H14.7v-3q0-2.89,4-2.89H35v-2.9H18.73Q10.68,86.59,10.67,92.38Z"/><path class="cls-1" d="M165.51,101.89q8.06,0,8.06-5.79t-8.06-5.79H153.42q-8.07,0-8.06,5.79v8.69q0,5.79,8.06,5.79h12.09c3.84,0,6.3-1,7.4-3h-6.32a8.91,8.91,0,0,1-1.08.07H153.42q-4,0-4-2.89v-2.9ZM149.39,96.1q0-2.89,4-2.9h12.09q4,0,4,2.9t-4,2.89H149.39Z"/></g></svg>