<svg xmlns="http://www.w3.org/2000/svg" viewBox="0 0 126.07 124.8"><defs><style>.cls-1{fill:#606161;}</style></defs><title>LOGOS MAXIM GRIS</title><g id="Layer_2" data-name="Layer 2"><circle class="cls-1" cx="86.41" cy="37.41" r="3.9"/><path class="cls-1" d="M85.49,12.25c-22.12-10.2-38.67-2.79-44.92,0s-13.18,8.37-13,11.45,1.16,6.25,6.74,6.44,15.39-4,17.21-5.38,1.54-4.91-.09-5.39,10-.1,14.43,4c0,0,22.8-1.35,29.63,17.32a21.54,21.54,0,0,1-9.14,5.58s-12.8-5.2-13.85-5.87-9-2.7-16.26,2.59c0,0-1.16-12.31-15.78-11.64s-14.62,6.26-14.62,6.26,4,14,21.64,12.31a34.46,34.46,0,0,0,11.84-5.1c6-4,16.35.1,18.08,1.83s14.24,6.06,22.51,1.92,9.72-3.75,9.72-3.75S107.62,22.45,85.49,12.25ZM35,43.39c-.46.54-1.87.11-3.17-1s-2-2.41-1.51-3,1.88-.12,3.17,1S35.49,42.84,35,43.39Zm7.23,3c-.25.67-1.57.8-2.95.3s-2.3-1.46-2.06-2.13,1.57-.8,3-.3S42.5,45.77,42.26,46.44Zm4.15.55c-1,0-1.85-.4-1.85-.9s.83-.89,1.85-.89,1.84.4,1.84.89S47.43,47,46.41,47Zm5.2-1.65c-.68.14-1.28,0-1.36-.33s.42-.72,1.1-.86,1.28,0,1.36.32S52.29,45.19,51.61,45.34Z"/><path class="cls-1" d="M109.64,51S100.53,57.49,93,55.1s-17-10-29.53-4.75-18.94,5.63-28.73,0S16.5,47.63,16.5,47.63s-.9,8.59.6,12.32S26.28,76,51,78.1l-.38-.74S48.34,75.71,48.25,75s1-.23.89-1.2-2.09-2.69-1.49-3.06,1.56-.15,2-1.12S54,59.21,63.85,56.44,80.88,55.32,88,59s16,1.35,21.66-2.24C109.64,56.74,110.08,51.44,109.64,51Z"/><path class="cls-1" d="M22.46,70.83a1.55,1.55,0,0,0,.23,1c.32.55,4.72,6.27,4.72,6.27s15.48,5.19,26.53,2.44a2.92,2.92,0,0,0-1.24-.37c-.73,0-8,.23-14.51-1.83S22.46,70.83,22.46,70.83Z"/><path class="cls-1" d="M33.32,82.69s-.92,0,.36.69S45.41,90.3,49,90.94s8.53,1.79,11.23.64,3.25-3.75,3.39-5.82-1.69-3.52-5-3.57-8.43,2.11-13.42,2A61.76,61.76,0,0,1,33.32,82.69Z"/><path class="cls-1" d="M68.78,85.53s-2.74,5.78-5.33,7h3.68s4.26-4.81,4.49-6.28Z"/><path class="cls-1" d="M75.06,86.31s-2.93,5-3.76,5.46a13.92,13.92,0,0,0,3.39,0s2.66-4.59,2.66-5.27Z"/><path class="cls-1" d="M108.42,59.78c-.51,0-.69.28-1.65,1S99,66,92.24,65.6s-14.11-4.21-19.15-5.82-13.33-1.78-18,3.67-4.51,6.78-2.37,6a2,2,0,0,0,2.09,2.1,4.2,4.2,0,0,0,4.14,3.19,4,4,0,1,0,0-8.08,4.33,4.33,0,0,0-2.45.75,5.74,5.74,0,0,1-1.36-.12s.18-.68,1.33-1.37,4-.6,6.18.82a24.43,24.43,0,0,0,5.5,2.48c.55.18.69.46.73-.28a2.46,2.46,0,0,0-.55-1.46s3.4.23,4.36,1,1.42,1.15,2,.73-1-1.65-.46-1.65S77,68.86,78.5,69.13s2,0,3.34.09,2.84.14,3.85,1.61A18,18,0,0,1,88,78.71c0,2.65,1.23,6.18-6.88,7.19a7.31,7.31,0,0,1-.32,1.47c-.18.41-1.23,2.7-1.23,2.7s3.34-1.39,6.18-2.94S91,84.34,91.33,81s-3.07-9.66-2.94-10-.32-1.29,1.61-1.15,11.73.32,14.16-1.47S108.92,59.78,108.42,59.78Zm-49.13,9a2.05,2.05,0,1,1-2,2.05A2.05,2.05,0,0,1,59.29,68.82Z"/><path class="cls-1" d="M7.09,104.12H17V107H11.22v2.38h5.41v2.82H11.22v4.92H7.09Z"/><path class="cls-1" d="M29.19,111.86H23.67v2.38h6.18v2.85H19.53v-13h10V107H23.67v2.08h5.52Z"/><path class="cls-1" d="M32.13,104.31A36.74,36.74,0,0,1,37,104c3,0,4.82.4,6.33,1.29a5.42,5.42,0,0,1,2.78,5,6.09,6.09,0,0,1-2.67,5.35c-1.69,1.12-4.22,1.6-7.24,1.6a30.71,30.71,0,0,1-4.11-.23Zm4.14,10.2a5.71,5.71,0,0,0,.86,0c2.67,0,4.66-1.21,4.66-4.14,0-2.54-1.8-3.73-4.27-3.73a8.93,8.93,0,0,0-1.25.07Z"/><path class="cls-1" d="M58,111.86H52.47v2.38h6.19v2.85H48.34v-13h10V107H52.47v2.08H58Z"/><path class="cls-1" d="M72.45,116.75a11.43,11.43,0,0,1-3.86.54c-5.75,0-8.28-3-8.28-6.47,0-4.57,4-6.9,8.55-6.9a11.29,11.29,0,0,1,3.84.56l-.8,2.76a8.35,8.35,0,0,0-2.85-.47c-2.35,0-4.41,1.18-4.41,3.82,0,2.35,1.67,3.81,4.5,3.81a10,10,0,0,0,2.74-.37Z"/><path class="cls-1" d="M80.69,117.31c-4.77,0-7.4-3-7.4-6.63,0-3.77,2.93-6.78,7.65-6.78,5,0,7.47,3.1,7.47,6.57,0,4.18-3,6.84-7.7,6.84Zm.21-2.76c2,0,3.15-1.61,3.15-4s-1.19-3.93-3.2-3.93-3.2,1.69-3.2,4,1.21,3.94,3.2,3.94Z"/><path class="cls-1" d="M97.35,117.31c-4.77,0-7.39-3-7.39-6.63,0-3.77,2.92-6.78,7.65-6.78,5,0,7.46,3.1,7.46,6.57,0,4.18-3,6.84-7.69,6.84Zm.21-2.76c2,0,3.15-1.61,3.15-4s-1.19-3.93-3.2-3.93-3.19,1.69-3.19,4,1.21,3.94,3.19,3.94Z"/><path class="cls-1" d="M107.26,104.31a36.43,36.43,0,0,1,5.07-.29,9.14,9.14,0,0,1,4.89,1,3.65,3.65,0,0,1,1.75,3.12,3.92,3.92,0,0,1-1.5,3.2,8.62,8.62,0,0,1-5.12,1.34c-.41,0-.75,0-1,0v4.4h-4.09Zm4.09,5.72c.23,0,.5,0,.93,0,1.6,0,2.61-.7,2.61-1.81s-.76-1.62-2.33-1.62a7.05,7.05,0,0,0-1.21.08Z"/></g></svg>