<svg xmlns="http://www.w3.org/2000/svg" viewBox="0 0 124.74 124.8"><defs><style>.cls-1{fill:#606161;}</style></defs><title>LOGOS MAXIM GRIS</title><g id="Layer_3" data-name="Layer 3"><path class="cls-1" d="M92.2,22.84l-7.37,5.74a22.28,22.28,0,0,1,2.83,10.84C87.66,52.06,77,62.38,63.6,63c-.83,3.71-2.37,12.45-2.5,13.24-.16,1-.76.39-.76.39L60,62.9c-12.87-1.1-23-11.19-23-23.48a22.22,22.22,0,0,1,3-11.19l-7.28-5.66A34.8,34.8,0,0,0,22.06,47.51c0,20.25,18.05,36.67,40.31,36.67s40.32-16.42,40.32-36.67A34.77,34.77,0,0,0,92.2,22.84Z"/><path class="cls-1" d="M33.63,19.41s11.42-.29,9.55,6.59a19.24,19.24,0,0,0-3.69,11.34A19.76,19.76,0,0,0,59.42,56.91l.53,0V8.81S45.06,8.35,33.63,19.41Z"/><path class="cls-1" d="M91.33,19.41C79.9,8.35,65,8.81,65,8.81v42.8L63.3,56.76a9.81,9.81,0,0,0,1.78.14h.47a20.07,20.07,0,0,0,7.3-1.37l.06,0h0A19.58,19.58,0,0,0,85.47,37.34,19.3,19.3,0,0,0,81.79,26C79.91,19.12,91.33,19.41,91.33,19.41Z"/><path class="cls-1" d="M10.39,86.39v6.89h9.44V86.39h2.54v16.46H19.83V95.14H10.39v7.71H7.84V86.39Z"/><path class="cls-1" d="M28.68,97.33c.06,2.88,2.23,4.08,4.78,4.08a10.67,10.67,0,0,0,3.88-.61l.46,1.54a13.29,13.29,0,0,1-4.69.76c-4.28,0-6.89-2.42-6.89-6a6.2,6.2,0,0,1,6.6-6.37c4.57,0,5.76,3.39,5.76,5.56a4.25,4.25,0,0,1-.09,1Zm7.44-1.54a3.24,3.24,0,0,0-3.5-3.49,3.85,3.85,0,0,0-3.91,3.49Z"/><path class="cls-1" d="M42.31,94.23c0-1.24-.05-2.22-.11-3.2h2.23l.11,1.91h.09a5,5,0,0,1,4.43-2.17A4.12,4.12,0,0,1,53,93.13h.06a5.11,5.11,0,0,1,1.59-1.53,5.28,5.28,0,0,1,3.07-.83c1.88,0,4.63,1,4.63,5.12v7H59.85V96.16c0-2.29-1-3.64-3-3.64a3.32,3.32,0,0,0-3,1.93,3.19,3.19,0,0,0-.21,1.08v7.32H51.08v-7.1c0-1.88-1-3.23-2.92-3.23A3.45,3.45,0,0,0,45,94.67a2.65,2.65,0,0,0-.2,1v7.13H42.31Z"/><path class="cls-1" d="M70,88.2V91h3.65v1.64H70V99c0,1.46.5,2.29,1.91,2.29a6,6,0,0,0,1.48-.14l.12,1.63a8,8,0,0,1-2.26.3,4,4,0,0,1-2.75-.91,4.09,4.09,0,0,1-1-3.1V92.67H65.32V91h2.17V88.86Z"/><path class="cls-1" d="M86.94,100a16.17,16.17,0,0,0,.21,2.83H84.86l-.23-1.49h-.09a5.51,5.51,0,0,1-4.28,1.76c-2.84,0-4.29-1.69-4.29-3.39,0-2.86,3-4.42,8.43-4.4v-.24c0-1-.32-2.76-3.19-2.74a7.69,7.69,0,0,0-3.67.88L77,91.79a10.39,10.39,0,0,1,4.63-1c4.31,0,5.35,2.46,5.35,4.83Zm-2.48-3.2c-2.78,0-5.94.37-5.94,2.66,0,1.42,1.1,2,2.38,2a3.54,3.54,0,0,0,3.44-2,1.78,1.78,0,0,0,.12-.68Z"/><path class="cls-1" d="M101.59,102.41a11.35,11.35,0,0,1-4,.69c-4.23,0-7-2.42-7-6s3-6.29,7.53-6.29a9.28,9.28,0,0,1,3.53.63L101.07,93a7.14,7.14,0,0,0-2.95-.57c-3.22,0-5,2-5,4.47,0,2.74,2.08,4.42,4.86,4.42a8.45,8.45,0,0,0,3.13-.56Z"/><path class="cls-1" d="M107.7,96.45h0c.35-.41.82-.92,1.22-1.34L113.11,91h3l-5.41,4.86,6.16,7h-3.1L109,97.19l-1.3,1.22v4.44h-2.55V85.52h2.55Z"/><path class="cls-1" d="M24.88,115.06a3.86,3.86,0,0,0,1.91.49c1.31,0,2.11-.63,2.11-1.54s-.5-1.31-1.78-1.72-2.24-1-2.24-2,1.05-1.88,2.54-1.88a4,4,0,0,1,1.74.34l-.23.45a3.23,3.23,0,0,0-1.55-.35c-1.41,0-1.89.77-1.89,1.35,0,.81.56,1.22,1.82,1.64,1.44.49,2.2,1,2.2,2.15s-.91,2-2.78,2a4.45,4.45,0,0,1-2.09-.49Z"/><path class="cls-1" d="M33.15,116a.49.49,0,0,1-.51-.49.49.49,0,0,1,.53-.49.49.49,0,0,1,.52.49.5.5,0,0,1-.53.49Z"/><path class="cls-1" d="M38.12,113.29,37,115.87H36.4l3.17-7.38h.6l3.15,7.38h-.63l-1.11-2.58Zm3.27-.44-1.07-2.46c-.2-.52-.32-.89-.45-1.31h0c-.13.43-.27.81-.45,1.28l-1.08,2.49Z"/><path class="cls-1" d="M46.63,116a.47.47,0,0,1-.5-.49.49.49,0,0,1,.53-.49.49.49,0,0,1,.52.49.5.5,0,0,1-.53.49Z"/><path class="cls-1" d="M55.21,108.6a15.35,15.35,0,0,1,2.25-.16,5.35,5.35,0,0,1,3.53,1A3.24,3.24,0,0,1,62.08,112a3.67,3.67,0,0,1-1.14,2.79,5.59,5.59,0,0,1-3.78,1.13c-.68,0-1.31,0-1.95-.06Zm.63,6.84a13.83,13.83,0,0,0,1.41,0c2.8,0,4.19-1.32,4.19-3.46,0-1.87-1.2-3.15-4-3.15a8.81,8.81,0,0,0-1.58.12Z"/><path class="cls-1" d="M65.6,113.19A2.15,2.15,0,0,0,68,115.53a4.27,4.27,0,0,0,1.73-.29l.15.4a4.72,4.72,0,0,1-2,.34,2.62,2.62,0,0,1-2.9-2.64,2.68,2.68,0,0,1,2.8-2.84,2.27,2.27,0,0,1,2.43,2.37,1,1,0,0,1,0,.32Zm4-.42a1.71,1.71,0,0,0-1.86-1.84,2,2,0,0,0-2.07,1.84Z"/><path class="cls-1" d="M84.21,115.61a6.49,6.49,0,0,1-2.36.37c-2.12,0-4.14-1.14-4.14-3.75,0-2.19,1.67-3.85,4.44-3.85a5.3,5.3,0,0,1,2,.32l-.19.44a4.75,4.75,0,0,0-1.82-.32c-2.36,0-3.8,1.29-3.8,3.42s1.35,3.29,3.7,3.29a5.47,5.47,0,0,0,2-.34Z"/><path class="cls-1" d="M87.65,116a.49.49,0,0,1-.51-.49.5.5,0,0,1,.54-.49.49.49,0,0,1,.52.49.5.5,0,0,1-.54.49Z"/><path class="cls-1" d="M93.43,115.87l-2.91-7.38h.65l1.54,4c.42,1.07.78,2,1,2.82h0c.26-.83.66-1.78,1.11-2.82l1.7-4h.67L94,115.87Z"/><path class="cls-1" d="M99.55,116a.47.47,0,0,1-.5-.49.49.49,0,0,1,.53-.49.49.49,0,0,1,.52.49.5.5,0,0,1-.53.49Z"/></g></svg>