<svg xmlns="http://www.w3.org/2000/svg" viewBox="0 0 214.8 124.8"><defs><style>.cls-1{fill:#606161;}</style></defs><title>LOGOS MAXIM GRIS</title><g id="Layer_4" data-name="Layer 4"><polygon class="cls-1" points="79.1 48.96 75.22 71.31 81.47 71.31 82.98 62.83 91.64 62.83 92.7 57.46 83.8 57.46 84.45 54.07 93.77 54.07 94.75 48.96 79.1 48.96"/><polygon class="cls-1" points="107.53 48.96 101.2 48.96 97.36 71.31 112.89 71.31 113.79 66.04 104.55 66.08 107.53 48.96"/><path class="cls-1" d="M127.43,49h-6.21l-2.74,15.49A6,6,0,0,0,123,71.31a15.38,15.38,0,0,0,10.07-.7s4.21-.94,5.31-7.78S140.71,49,140.71,49h-6.29L132,63.22a4,4,0,0,1-3.72,3.19c-3.39.49-3.27-2.58-3.11-4S127.43,49,127.43,49Z"/><path class="cls-1" d="M193.75,55.12c.2-4.58-4.23-5.85-6.72-6.16s-11.7,0-11.7,0l-4,22.34h6.22L179,63.39s4.93-1.5,5.58,2.68.75,6.87,8.56,4.78l.6-4s-2.09,1.29-2.64-.5-.85-4.08-1.69-4.68A8.11,8.11,0,0,0,193.75,55.12Zm-6.25,1a2.07,2.07,0,0,1-2.07,2.06h-5.75l.83-4.13h4.92a2.07,2.07,0,0,1,2.07,2.07Z"/><path class="cls-1" d="M157.62,48.55a8.27,8.27,0,0,1,6.21,2.28,8.73,8.73,0,0,1,2.22,6.36,18,18,0,0,1-1.53,7.47,12,12,0,0,1-4.21,5.19,10.93,10.93,0,0,1-6.23,1.8,8.55,8.55,0,0,1-6.38-2.28A8.7,8.7,0,0,1,145.45,63,17.66,17.66,0,0,1,147,55.53a12.12,12.12,0,0,1,4.31-5.19A11.19,11.19,0,0,1,157.62,48.55Zm2.37,8.7a4.53,4.53,0,0,0-.74-2.74,2.49,2.49,0,0,0-2.13-1,3.87,3.87,0,0,0-2.8,1.29,9.09,9.09,0,0,0-2,3.55,14.25,14.25,0,0,0-.76,4.62c0,2.48,1,3.71,3.07,3.71a3.76,3.76,0,0,0,2.71-1.27,8.72,8.72,0,0,0,2-3.44A14.89,14.89,0,0,0,160,57.25Z"/><path class="cls-1" d="M198.48,75.05a2.75,2.75,0,1,1,2.74-2.74A2.74,2.74,0,0,1,198.48,75.05Zm0-5a2.28,2.28,0,1,0,2.28,2.28A2.28,2.28,0,0,0,198.48,70Z"/><path class="cls-1" d="M198.08,72.75v1h-.57V71.07h.79a1.39,1.39,0,0,1,.82.2.75.75,0,0,1,.26.62.68.68,0,0,1-.13.42.83.83,0,0,1-.37.29c.41.61.67,1,.8,1.19H199l-.65-1Zm0-.47h.19a.72.72,0,0,0,.4-.09.32.32,0,0,0,.13-.29.28.28,0,0,0-.13-.27.76.76,0,0,0-.41-.09h-.18Z"/><polygon class="cls-1" points="54.17 60.55 56.8 60.55 55.49 53.61 54.17 60.55"/><path class="cls-1" d="M16.23,41.51V74.94H68.37V41.51Zm10,26.7H21.62v-20h4.62ZM45.83,65.7a8.43,8.43,0,0,1-2,1.47,11.28,11.28,0,0,1-2.46.9,10.67,10.67,0,0,1-2.53.31,9.06,9.06,0,0,1-4-.89,10.27,10.27,0,0,1-3.13-2.35,10.91,10.91,0,0,1-2-3.33A10.39,10.39,0,0,1,28.92,58a10.12,10.12,0,0,1,.68-3.6,9.89,9.89,0,0,1,2-3.2,10.23,10.23,0,0,1,3.16-2.29A10,10,0,0,1,39,48.07a9.49,9.49,0,0,1,4.89,1.21A7.88,7.88,0,0,1,47,52.44l-3.56,2.48a4.09,4.09,0,0,0-.86-1.31,4.36,4.36,0,0,0-1.14-.84,4.74,4.74,0,0,0-1.27-.46,6.91,6.91,0,0,0-1.27-.12,4.86,4.86,0,0,0-2.31.53A5.14,5.14,0,0,0,34.9,54.1a6,6,0,0,0-1,1.92,8.09,8.09,0,0,0-.31,2.18A7.26,7.26,0,0,0,34,60.48a6.14,6.14,0,0,0,1.06,2,5.14,5.14,0,0,0,1.66,1.34,4.77,4.77,0,0,0,2.19.49,5.79,5.79,0,0,0,1.28-.15,5.73,5.73,0,0,0,1.27-.48,4.54,4.54,0,0,0,1.12-.85,3.89,3.89,0,0,0,.81-1.28l3.78,2.22A5.7,5.7,0,0,1,45.83,65.7Zm12.42,2.51-.85-4.46H53.57l-.84,4.46H48l5.35-20h4.3l5.35,20Z"/></g></svg>