<svg xmlns="http://www.w3.org/2000/svg" viewBox="0 0 514.82 124.8"><defs><style>.cls-1{fill:#606161;}</style></defs><title>LOGOS MAXIM GRIS</title><g id="Layer_2" data-name="Layer 2"><path class="cls-1" d="M317.86,43.65c0-16.58,12.59-28.95,29.45-28.94A28.38,28.38,0,0,1,376.1,43.59c0,16.5-12.79,28.87-29.79,28.86C330.27,72.44,317.86,59.88,317.86,43.65Zm10.44.06a20.78,20.78,0,0,0,.41,4.42c2.65,13.17,17.91,19.6,28.74,11.92,7.06-5,9.14-12.21,7.79-20.52a18.57,18.57,0,0,0-22.63-15.14C333.89,26.43,328.3,33.88,328.3,43.71Z"/><path class="cls-1" d="M148.67,43.62c0-16.57,12.59-28.92,29.47-28.91a28.32,28.32,0,0,1,28.75,28.74c-.06,16.49-12.72,29.28-29.82,29C159.64,72.15,148.33,58.43,148.67,43.62Zm47.76-.13a16.46,16.46,0,0,0-.34-3.76C194,26.05,178.11,19.17,167,27.29c-7.19,5.24-9.07,12.71-7.37,21.14A18.51,18.51,0,0,0,182,62.77C190.66,60.79,196.42,53.18,196.43,43.49Z"/><path class="cls-1" d="M40.29,15.94c-2,4.8-3.93,9.42-5.86,14-2.06,5-4.09,9.92-6.22,14.84-.59,1.34-.22,1.55,1.07,1.54,4-.06,8.06,0,12.1-.05,1.35,0,1.45.33.88,1.46Q36.08,59.93,30,72.14a1.75,1.75,0,0,1-1.88,1.13c-2.46-.07-4.91,0-7.37,0-6,0-10-4-10.08-9.94-.05-8,0-15.9,0-23.85,0-4.39.13-8.78,0-13.16A9.82,9.82,0,0,1,21,15.88c5.83.27,11.69.06,17.53.06Z"/><path class="cls-1" d="M40.57,73.12c0-.68.45-1.09.74-1.55Q51.09,56.2,60.88,40.84c.3-.47,1-1,.69-1.5s-1-.25-1.6-.26c-5.08,0-10.17,0-15.26,0-1.24,0-1.58-.15-.88-1.4Q49.62,27.39,55.28,17a1.88,1.88,0,0,1,1.93-1.09c5,0,9.94.06,14.91,0,1.2,0,1.43.41,1.43,1.51q0,27.19,0,54.38c0,.92,0,1.49-1.26,1.48-10.4,0-20.81,0-31.22,0A1.94,1.94,0,0,1,40.57,73.12Z"/><path class="cls-1" d="M276.79,43.56c8.5-9,16.75-17.67,24.94-26.4a4.12,4.12,0,0,1,3.46-1.5c3.24.12,6.49,0,10.18,0l-6.18,6.43C304,27.56,298.76,33,293.45,38.37c-1,1.05-1.06,1.62-.18,2.76,7.51,9.77,15,19.59,22.42,29.39.16.22.29.46.59.94-4,0-7.68,0-11.39,0-.75,0-1-.55-1.3-1l-17.46-23c-.21-.28-.44-.54-.41-.51-2.8,2.63-5.59,5.27-8.4,7.88a2.09,2.09,0,0,0-.53,1.77c0,4.32-.06,8.65,0,13,0,1.44-.19,2.09-1.84,1.94a40.59,40.59,0,0,0-6.14,0c-1.49.1-1.93-.26-1.92-1.86.07-16.67,0-33.34,0-50,0-3.92,0-4,4-3.91,1.9,0,4.45-.83,5.53.35.94,1,.29,3.54.3,5.41C276.8,28.7,276.79,35.94,276.79,43.56Z"/><path class="cls-1" d="M107.61,43.56c5.89-6.25,11.53-12.22,17.18-18.19l8.32-8.78a2.07,2.07,0,0,1,1.59-.91c3.67,0,7.34,0,11.43,0-1.61,1.7-3,3.16-4.37,4.6-5.88,6.1-11.74,12.22-17.68,18.27-.89.9-.89,1.39-.15,2.36,7.37,9.59,14.67,19.22,22,28.84.34.46.66.93,1.2,1.68H135.59c-.74,0-.93-.62-1.26-1.06L116.51,46.89Q112.25,50.94,108,55c-.51.48-.33,1.09-.33,1.65,0,4.39-.08,8.77,0,13.16,0,1.45-.44,1.73-1.75,1.68-2.28-.11-4.57-.07-6.85,0-.94,0-1.3-.19-1.3-1.23q.06-26.67,0-53.35c0-1,.35-1.25,1.3-1.22,2.4.06,4.8.1,7.19,0,1.26-.06,1.39.45,1.39,1.51C107.59,25.82,107.61,34.48,107.61,43.56Z"/><path class="cls-1" d="M439.74,43.57c0-8.77,0-17.54,0-26.31,0-1.18.24-1.6,1.52-1.59q19.29.08,38.59,0c1.27,0,1.59.38,1.53,1.58a48.63,48.63,0,0,0,0,5.79c.12,1.55-.5,1.77-1.88,1.77-9.36-.06-18.71,0-28.07-.07-1.38,0-1.74.35-1.71,1.72q.15,5.87,0,11.75c0,1.36.41,1.61,1.68,1.6,8.18-.05,16.37,0,24.56-.05,1.28,0,1.87.19,1.76,1.67a45.59,45.59,0,0,0,0,6c.07,1.22-.39,1.41-1.48,1.41-8.13,0-16.26,0-24.39-.07-1.62,0-2.17.29-2.13,2.05.12,6.37,0,12.75.07,19.12,0,1.19-.25,1.64-1.53,1.59-2.33-.11-4.68-.11-7,0-1.31.06-1.52-.44-1.51-1.61C439.76,61.11,439.74,52.34,439.74,43.57Z"/><path class="cls-1" d="M387.73,43.66c0-8.71,0-17.43,0-26.14,0-1.39.23-1.87,1.76-1.86q19,.11,38.07,0c1.36,0,1.83.31,1.73,1.72a46.45,46.45,0,0,0,0,5.78c.08,1.32-.31,1.66-1.63,1.65-9.36-.07-18.71,0-28.07-.08-1.67,0-2,.5-1.95,2,.1,3.79.09,7.6,0,11.4,0,1.32.34,1.66,1.66,1.65,8.24-.07,16.48,0,24.73-.06,1.24,0,1.75.19,1.65,1.58a52.41,52.41,0,0,0,0,6.14c.06,1.14-.35,1.32-1.38,1.32-8.3,0-16.6,0-24.9-.06-1.38,0-1.77.34-1.75,1.74.07,6.49,0,13,.06,19.47,0,1.23-.33,1.59-1.56,1.54-2.21-.1-4.44-.11-6.66,0-1.33.06-1.77-.26-1.76-1.7C387.77,61.08,387.73,52.37,387.73,43.66Z"/><path class="cls-1" d="M239.21,48.23c0,7.19,0,14.39,0,21.58,0,1.24-.2,1.76-1.6,1.68a55.75,55.75,0,0,0-6.84,0c-1.49.09-1.69-.5-1.68-1.79,0-14.22,0-28.43.06-42.65,0-1.73-.34-2.26-2.17-2.21-4.67.16-9.35,0-14,.08-1.13,0-1.54-.25-1.48-1.44.1-2.1.08-4.21,0-6.31,0-1.08.17-1.52,1.4-1.51q21.32.06,42.64,0c1,0,1.29.29,1.26,1.28-.07,2.22-.1,4.44,0,6.66.06,1.15-.36,1.33-1.38,1.32-4.74-.05-9.48.07-14.22-.07-1.77-.06-2.06.51-2,2.13C239.26,34.07,239.21,41.15,239.21,48.23Z"/><path class="cls-1" d="M298.06,106.71c1.72-3.56,3.56-7.06,5.11-10.7.85-2,2.35-1.35,3.66-1.32,1.47,0,.74,1.34.83,2.06.4,3.4.78,6.82.86,10.3,1.33-3.48,3-6.78,4.37-10.21.68-1.71,1.57-2.55,3.44-2.21a12.55,12.55,0,0,0,2,0c-.71,1.46-1.34,2.75-2,4l-5.91,11.91c-.52,1-3.69,1.85-4.54,1.13a1.24,1.24,0,0,1-.26-.78c-.32-3.54-1-7.06-.79-10.68-.78.18-.74.89-.93,1.37-1.3,3.25-3.05,6.29-4.63,9.4-.84,1.66-2.51.64-3.78.76-1.11.11-.7-1-.77-1.59-.46-4.47-.81-9-1.34-13.41-.18-1.58,0-2.19,1.85-2.23s2.45.55,2.38,2.38c-.12,3.26,0,6.52,0,9.77Z"/><path class="cls-1" d="M97.48,111.69c1-2,1.87-3.91,2.82-5.83,2.79-5.58,5.61-11.15,8.35-16.76A2.21,2.21,0,0,1,111,87.59c3.94.08,3.88,0,4.32,3.9q1.07,9.23,2.33,18.42c.19,1.42.14,2.11-1.63,2-2.55-.18-2.56,0-2.9-2.63,0-.29-.1-.57-.13-.86-.41-3.51-.43-3.29-3.88-3.57-2.92-.24-4.8.52-5.47,3.49a1.87,1.87,0,0,1-.17.31C101.76,112.24,101.76,112.24,97.48,111.69Zm13.88-20.15-4.72,10.12c1.7,0,3.2,0,4.69,0,.91,0,1-.29,1-1.11C111.94,97.64,111.67,94.71,111.36,91.54Z"/><path class="cls-1" d="M239.41,109.33a15.51,15.51,0,0,1-2.95,2.28c-3.73,1.74-7.48-.11-8-4.16-1-7.46,4.78-14.33,12.41-13,1,.18,1-.33,1.17-1,.37-1.89.81-3.77,1-5.67.13-1.13.63-1.27,1.58-1.27,3,0,2.91,0,2.42,2.82-1.22,7.12-2.95,14.15-3.8,21.33-.13,1-.53,1.21-1.42,1.16C240.42,111.79,238.53,112.43,239.41,109.33Zm-6.73-4.15c.17,1.34.23,2.83,1.72,3.39s2.84-.16,3.87-1.34a5.91,5.91,0,0,0,1.39-2.41c.39-1.52.73-3,1.05-4.59.49-2.34-.23-3-2.63-2.57C235.07,98.24,232.67,101.58,232.68,105.18Z"/><path class="cls-1" d="M131.65,109.33a15,15,0,0,1-3,2.27c-3.72,1.75-7.47-.1-8-4.14-1-7.46,4.78-14.34,12.41-13,1,.18,1-.32,1.17-1,.37-1.88.81-3.76,1-5.67.13-1.12.62-1.27,1.58-1.27,3,0,2.91,0,2.43,2.81-1.21,7.07-2.95,14-3.77,21.16-.14,1.2-.61,1.34-1.62,1.36C132.37,111.91,130.93,112.05,131.65,109.33Zm-6.72-4.15c.16,1.34.22,2.82,1.71,3.39s2.84-.16,3.87-1.34a5.87,5.87,0,0,0,1.39-2.4c.39-1.52.73-3.06,1-4.6.49-2.33-.23-3-2.63-2.57C127.31,98.24,124.91,101.58,124.93,105.18Z"/><path class="cls-1" d="M263.89,87.28c.58,0,1.17,0,1.75,0,2.78.22,5.45.86,6.69,3.65a8,8,0,0,1-1,8.28c-2.15,3-5.36,3.74-8.8,3.81-2.5.06-2.49,0-2.94,2.53-.28,1.6-.71,3.19-.88,4.81-.13,1.32-.73,1.55-1.92,1.52-2.61-.08-2.62,0-2.15-2.54,1.21-6.53,2.47-13,3.6-19.59.26-1.48.75-2.32,2.35-2.31,1.1,0,2.21-.15,3.31-.23Zm-1.15,12.26a6.66,6.66,0,0,0,3.91-1.24,4.93,4.93,0,0,0,2-4.24c-.07-2.45-1.75-3.46-5.11-3.33-.94,0-1.34.36-1.49,1.27-.3,1.9-.62,3.79-1.06,5.66C260.64,99.24,261.35,99.65,262.74,99.54Z"/><path class="cls-1" d="M359,112.2a12.21,12.21,0,0,1-5.29-1c-.92-.38-1.14-.86-.67-1.72a6.86,6.86,0,0,0,.55-1.28c.26-.93.64-1.16,1.61-.68a8.53,8.53,0,0,0,5.77.84,3.6,3.6,0,0,0,3.07-2.75c.37-1.63-.61-2.67-1.81-3.49s-2.54-1.45-3.71-2.32a6.47,6.47,0,0,1,.32-10.9c3.28-2.15,6.82-2.07,10.43-.91.79.26,1,.66.58,1.43a7.13,7.13,0,0,0-.65,1.62c-.23.87-.65.91-1.41.56a7.87,7.87,0,0,0-4.47-.52,3.25,3.25,0,0,0-3,2.31c-.42,1.48.44,2.45,1.54,3.24.66.47,1.38.87,2.09,1.28,4,2.26,5.33,4.82,4.41,8.52-.79,3.23-4.05,5.59-7.95,5.76C360,112.22,359.49,112.2,359,112.2Z"/><path class="cls-1" d="M168,108.67c-1.81,2.13-3.53,3.6-6.12,3.54a5,5,0,0,1-5.13-4.52,11.83,11.83,0,0,1,11.52-13.4,22.7,22.7,0,0,1,4.87.37c.93.19,1.27.57,1.06,1.54-1,4.91-2.24,9.79-2.38,14.84,0,.58-.19.86-.8.81a5.06,5.06,0,0,0-1.23,0c-1.56.27-2.15-.33-1.8-1.88A8.36,8.36,0,0,0,168,108.67ZM168,97.54c-2.92.08-5.88,2.79-6.63,6.1-.57,2.5,0,4.47,1.31,5,1.54.58,3.33-.45,4.66-2.62s1.47-4.64,2.07-7C169.74,97.67,169,97.54,168,97.54Z"/><path class="cls-1" d="M457.63,101.63c0,5.8-4.2,10.47-9.46,10.57s-8-2.6-7.82-7.94a10.16,10.16,0,0,1,9.92-10C454.94,94.24,457.65,96.94,457.63,101.63Zm-12.94,3.88a3.47,3.47,0,0,0,2.17,3.17c1.55.59,3.17,0,4.45-1.54a9.09,9.09,0,0,0,2-5.66,3.48,3.48,0,0,0-2-3.61,3.64,3.64,0,0,0-4.27,1.07C445.52,100.52,444.89,102.5,444.69,105.51Z"/><path class="cls-1" d="M388.84,101.69c0,5.71-4.19,10.37-9.36,10.51-5.39.14-8.09-2.59-7.92-8a10.15,10.15,0,0,1,10-9.92C386.18,94.25,388.86,97,388.84,101.69Zm-12.93,3.24c.12,1.62.48,3.06,2.14,3.74a3.79,3.79,0,0,0,4.34-1.38,9.09,9.09,0,0,0,2.11-5.79,3.52,3.52,0,0,0-1.95-3.63,3.66,3.66,0,0,0-4.29,1.06A9.06,9.06,0,0,0,375.91,104.93Z"/><path class="cls-1" d="M290.2,101.59c0,5.66-4,10.35-9.07,10.61-5.54.28-8.41-2.54-8.2-8.07a10.14,10.14,0,0,1,10-9.85C287.52,94.27,290.21,97,290.2,101.59Zm-12.92,3.58a3.55,3.55,0,0,0,2.17,3.51,3.79,3.79,0,0,0,4.33-1.42,8.93,8.93,0,0,0,2.07-6,3.4,3.4,0,0,0-2-3.43,3.61,3.61,0,0,0-4.15,1C278.12,100.43,277.47,102.45,277.28,105.17Z"/><path class="cls-1" d="M182.75,97.25c1.85-1.79,3.71-3.08,6.25-3s4.24,1.58,4.32,4.25c.11,3.67-1.12,7.14-1.63,10.71a1.91,1.91,0,0,1-.1.34c-.21.75.07,1.94-.73,2.17a10.13,10.13,0,0,1-3.48.08c-.78-.06-.36-.72-.29-1.1.57-3.09,1.19-6.18,1.77-9.28.24-1.29.41-2.69-1-3.42s-2.62.07-3.63,1a9.08,9.08,0,0,0-2.51,5.1c-.41,2-.86,4-1.09,6-.16,1.42-.75,1.79-2.11,1.73-2.56-.1-2.56,0-2.07-2.61.82-4.42,1.71-8.83,2.43-13.26.4-2.42,2.14-1.2,3.26-1.3,1.47-.14.37,1.07.59,1.63A3.59,3.59,0,0,1,182.75,97.25Z"/><path class="cls-1" d="M466,97.27c1.84-1.86,3.73-3.1,6.25-3a4.07,4.07,0,0,1,4.32,4.26c.13,3-.85,5.88-1.28,8.83-.08.57-.2,1.14-.31,1.72-.58,2.83-.58,2.79-3.51,2.8-1.09,0-1.39-.2-1.13-1.36.67-3,1.2-6.07,1.76-9.11.24-1.29.4-2.69-1-3.41s-2.63.09-3.63,1a9.14,9.14,0,0,0-2.51,5.11c-.39,1.94-.85,3.88-1.07,5.85-.15,1.43-.58,2-2.14,1.9-2.51-.15-2.52,0-2.07-2.47.83-4.53,1.69-9.06,2.5-13.6.41-2.31,2.15-.94,3.24-1.11,1.35-.21.44.94.57,1.47A6.11,6.11,0,0,1,466,97.27Z"/><path class="cls-1" d="M410.83,109.25c-1.81,1.87-3.58,3.09-6,3a4,4,0,0,1-4.18-4c-.22-3.15.8-6.12,1.28-9.17,0-.29.12-.57.17-.86.69-3.91.69-3.91,4.85-3.35q-.9,5-1.79,10A9.79,9.79,0,0,0,405,106a2.32,2.32,0,0,0,1,2.44,2.44,2.44,0,0,0,2.79-.35,7.43,7.43,0,0,0,2.83-4.69c.48-2.22,1-4.44,1.3-6.7.19-1.71.87-2.2,2.54-2.07,2.11.16,2.13,0,1.76,2.11-.85,4.71-1.69,9.42-2.58,14.12-.4,2.09-2.08.87-3.15,1-1.33.19-.53-.92-.62-1.48A9.82,9.82,0,0,1,410.83,109.25Z"/><path class="cls-1" d="M325.06,112.2c-5.42,0-7.91-2.79-7.55-8.28A10.24,10.24,0,0,1,328,94.3c2.64.1,4.64,1.63,5,3.81.42,2.71-.64,4.58-3.3,5.65a17.29,17.29,0,0,1-6.87,1c-1.17,0-1.27.51-1,1.36a3.22,3.22,0,0,0,2.94,2.59,10.9,10.9,0,0,0,4.32-.39c.47-.13,1.32-1.19,1.54.24.15,1,.95,2.22-.7,2.76A12.94,12.94,0,0,1,325.06,112.2Zm-.87-10.59a11.37,11.37,0,0,0,3.32-.65c.92-.38,1.71-1,1.47-2.08s-1.22-1.48-2.31-1.42a4.68,4.68,0,0,0-3.7,2.32c-.34.51-.9,1.12-.53,1.72C322.7,101.93,323.41,101.58,324.19,101.61Z"/><path class="cls-1" d="M218.47,112.2c-5.24,0-7.84-3-7.29-8.53a10.23,10.23,0,0,1,10.54-9.37c2.55.12,4.51,1.62,4.89,3.72a4.75,4.75,0,0,1-3.2,5.71,16.71,16.71,0,0,1-6.86,1.06c-1.25,0-1.38.51-1.11,1.45a3.21,3.21,0,0,0,2.83,2.5,10.9,10.9,0,0,0,4.5-.4c.43-.13,1.22-1.13,1.42.17.15.91,1,2.08-.43,2.72A11.7,11.7,0,0,1,218.47,112.2Zm-.86-10.59a11.1,11.1,0,0,0,3.47-.62c1-.4,1.84-1,1.52-2.2s-1.3-1.41-2.38-1.32a4.69,4.69,0,0,0-3.66,2.39c-.31.47-.8,1-.51,1.58S217,101.57,217.61,101.61Z"/><path class="cls-1" d="M146.93,107.11c1.9-3.86,3.66-7.34,5.31-10.87.56-1.2,1.22-1.84,2.63-1.62a21.2,21.2,0,0,0,3,0c-.87,1.56-1.64,2.91-2.4,4.27-2.26,4-4.51,8-6.79,12-1,1.8-2.72.64-4.1.86s-.9-1-1-1.62c-.89-4.76-1.65-9.54-2.53-14.3-.21-1.12.17-1.26,1.13-1.27,3,0,3.06-.07,3.49,2.82C146.12,100.56,146.49,103.68,146.93,107.11Z"/><path class="cls-1" d="M483.11,112.19a8.86,8.86,0,0,1-2.94-.32c-2.11-.59-2.16-.73-1.48-2.71.33-1,.68-1.31,1.7-.79a6.18,6.18,0,0,0,3.39.66,2.44,2.44,0,0,0,2.43-1.68c.31-1.15-.54-1.81-1.43-2.35a23.33,23.33,0,0,1-2.67-1.65,4.64,4.64,0,0,1,.12-7.4c2.58-2,5.5-2,8.51-1.26.88.22,1.21.76.69,1.52s.09,2.28-1.68,1.64a4.94,4.94,0,0,0-3.76-.1c-1.63.73-1.82,2-.38,3,.69.52,1.52.86,2.26,1.32,1.86,1.15,3.06,2.67,2.74,5a5.28,5.28,0,0,1-3.56,4.37A8.44,8.44,0,0,1,483.11,112.19Z"/><path class="cls-1" d="M427.66,89.85a9.49,9.49,0,0,1-.46,3.68c-.2,1,.14,1.12.93,1h.53c2.44,0,2.38,0,1.87,2.34-.19.85-.61,1-1.33,1-2.78.11-2.81.12-3.37,2.89-.41,2-.75,4-1.06,6-.17,1.11.31,1.75,1.52,1.82.52,0,1.6-.37,1.27.75-.26.93.51,2.44-1.19,2.72a9,9,0,0,1-3.31,0,3.16,3.16,0,0,1-2.71-3.35c0-3.3,1.07-6.43,1.6-9.64.12-.7.31-1.28-.76-1.23-.57,0-1.51.22-1.17-.86.28-.86-.37-2.39,1.27-2.4,1.15,0,1.8-.31,1.79-1.48a2.53,2.53,0,0,1,2.69-2.86A12,12,0,0,0,427.66,89.85Z"/><path class="cls-1" d="M208,108.06c.08.74.1,1.43.23,2.1a1.18,1.18,0,0,1-1,1.53,12.54,12.54,0,0,1-5.89.38c-3.85-.73-5.77-3.9-5.2-8.38a11,11,0,0,1,13-9.25c.58.12,2-.11,1.38,1.28-.43.89.23,2.76-2.13,2.21-4.63-1.08-9,3.81-7.64,8.36.59,2,2.46,2.86,5.17,2.36C206.54,108.52,207.19,108.28,208,108.06Z"/><path class="cls-1" d="M399.61,86.57c-1.56,8.18-3.1,16.18-4.57,24.2-.22,1.21-1,1.08-1.76,1.08-2.87,0-2.87,0-2.35-2.64,1.36-7,2.78-13.94,4-20.94.25-1.43.76-1.88,2.12-1.72A21,21,0,0,0,399.61,86.57Z"/><path class="cls-1" d="M340.73,97.8c1.41-1.89,2.73-3.42,5-3.54,1-.05,1.48.15,1.11,1.26a9.77,9.77,0,0,0-.31,1.54c-.16.9-.4,1.45-1.61,1.49-2.19.08-3.35,1.75-4.15,3.56-1.12,2.54-1.27,5.33-1.88,8-.14.6,0,1.54-.66,1.65a15.37,15.37,0,0,1-3.65,0c-.42,0-.21-.59-.14-.9,1-5.09,2.13-10.16,2.66-15.34.11-1.13.81-.91,1.47-.93,2.41-.06,2.41,0,2.14,2.4C340.71,97.14,340.73,97.31,340.73,97.8Z"/><path class="cls-1" d="M496.27,12.54a8,8,0,0,1,7.94,8.05,8,8,0,1,1-16.09-.23A7.94,7.94,0,0,1,496.27,12.54ZM500,24.8c.15.12.28.15.42,0a6.66,6.66,0,0,0,.7-7.5,5.71,5.71,0,0,0-5.86-2.95,6.11,6.11,0,0,0-5,5.56,6.43,6.43,0,0,0,3.31,6.25c2.38,1.19,5.4.53,6.49-1.4Z"/><path class="cls-1" d="M438.48,94.64c-1.05,5.55-2.08,10.92-3.09,16.3-.13.72-.51.89-1.2.93-3.35.19-3.34.21-2.68-3.18.8-4.18,1.64-8.36,2.34-12.56.21-1.25.7-1.66,1.92-1.51A22.06,22.06,0,0,0,438.48,94.64Z"/><path class="cls-1" d="M437.18,91.84a2,2,0,0,1-2.31-2.21,2.47,2.47,0,0,1,2.49-2.58,2.11,2.11,0,0,1,2.3,2.27A2.33,2.33,0,0,1,437.18,91.84Z"/><path class="cls-1" d="M500.09,24.75c-1.63.31-2.68-.15-2.83-2-.08-1-.79-1.24-1.64-1.13s-.39.9-.52,1.38c-.19.71.52,1.87-1.09,1.79-.76,0-1-.26-1-1,0-2,0-4.08,0-6.12,0-.59.07-1,.77-1.1a9.28,9.28,0,0,1,4.16.1c1.84.61,2.23,2.17.95,3.64-.16.17-.85.21-.35.66,1.14,1.05.88,2.61,1.49,3.84Zm-5-5.79c0,.63-.12,1.35.82,1.14.69-.15,1.69-.09,1.61-1.17-.06-.86-.87-1-1.57-1C495.09,17.81,495,18.39,495.09,19Z"/></g></svg>