<svg xmlns="http://www.w3.org/2000/svg" viewBox="0 0 79.44 124.8"><defs><style>.cls-1,.cls-2{fill:#606161;}.cls-1{fill-rule:evenodd;}</style></defs><title>LOGOS MAXIM GRIS</title><g id="Layer_3" data-name="Layer 3"><path class="cls-1" d="M59.39,42.15h2.39V77.34A19.22,19.22,0,0,1,55.32,70v0a17,17,0,0,0-3.73-3.78c-1.95-1.57-3.7-3-4.07-6.46.12-.64-.07-.94-.42-1a10.07,10.07,0,0,1,1.77-.84,17.21,17.21,0,0,0,2.25-.2c1-.18,1.9-.53,2.11-1.22v-.14c0-.06,0-.13-.06-.2a.46.46,0,0,0-.16-.26l-.09-.09c.09-.12.17-.25.25-.37A14.12,14.12,0,0,0,55,54.77l.16-.15c.1-.16,0-.29.06-.26a2.69,2.69,0,0,1,.19.42,1.59,1.59,0,0,0,.49.78c.31.21.66.12,1.08-.52l.05-.22A2.11,2.11,0,0,0,55.08,53l0,0a4.91,4.91,0,0,0,2.15-1.3,7.12,7.12,0,0,1,.79-.62,1.62,1.62,0,0,0,.22.55h0a.78.78,0,0,0,.36.32.61.61,0,0,0,.54,0,1.37,1.37,0,0,0,.57-.58l.05-.2a1.28,1.28,0,0,0-.87-1.06h0v0A2.29,2.29,0,0,0,59.07,49a.82.82,0,0,0-.24-.52.77.77,0,0,0-.56-.18,2,2,0,0,0-1,.34l-.42.18a5.09,5.09,0,0,0,2.85-4.45,6.88,6.88,0,0,0-.22-1.87,1.66,1.66,0,0,0-.12-.31Zm2.39,44.29v5.81H13V59.43c.18,1,.4,2,.63,3,.08.39.16.78.25,1.19l0,0a2.25,2.25,0,0,0,.39.77.36.36,0,0,0,.52,0,.6.6,0,0,0,.16-.33,3.67,3.67,0,0,0,0-1.09c0-.69,0-1.4.05-2.11a26.27,26.27,0,0,0,.82,5.24,11.29,11.29,0,0,0,2.7,5.14,21.73,21.73,0,0,0,3.1,3.47,4,4,0,0,0,.74.54c.39.21.66.17.71-.2a19.54,19.54,0,0,0,1.15,1.9l0,0a26.65,26.65,0,0,0,6.49,5.23,58.69,58.69,0,0,0,7.49,3.61l0,0a43.39,43.39,0,0,0,17.79,1.7,33.42,33.42,0,0,0,5.73-1.22ZM13,50.7v-.15a.56.56,0,0,0,.06-.17l.2-.54h0c-.1.28-.19.57-.27.85Z"/><rect class="cls-2" x="10.71" y="107.89" width="53.37" height="0.24"/><path class="cls-1" d="M13.53,111.37v-1.82h.38v.71h.71v-.71H15v1.82h-.37v-.8h-.71v.8Zm5.73-.9a1.09,1.09,0,0,1,.09-.47.74.74,0,0,1,.17-.25.69.69,0,0,1,.23-.16.93.93,0,0,1,.39-.08.84.84,0,0,1,.65.25,1.09,1.09,0,0,1,0,1.39.94.94,0,0,1-1.28,0,1,1,0,0,1-.25-.68Zm.39,0a.69.69,0,0,0,.14.47.47.47,0,0,0,.36.16.48.48,0,0,0,.36-.16.74.74,0,0,0,.14-.48.69.69,0,0,0-.14-.47.51.51,0,0,0-.73,0,.68.68,0,0,0-.13.47Zm6.05.91v-1.51h-.55v-.31h1.46v.31h-.55v1.51Zm5.11,0v-1.82h1.35v.31h-1v.4h.92v.3h-.92v.5h1v.31Zm5.68,0v-1.81h.36v1.5h.92v.31Zm7.83-.23-.22.27a1.26,1.26,0,0,1-.29-.2,1,1,0,0,1-.23.14.73.73,0,0,1-.3.05.67.67,0,0,1-.52-.19.58.58,0,0,1-.13-.34.6.6,0,0,1,.1-.32.9.9,0,0,1,.32-.24,1.09,1.09,0,0,1-.14-.21.35.35,0,0,1,0-.2.33.33,0,0,1,.14-.27.51.51,0,0,1,.37-.12.58.58,0,0,1,.37.12.39.39,0,0,1,.13.3.35.35,0,0,1-.07.21.88.88,0,0,1-.26.22l.25.34a.71.71,0,0,0,.08-.21l.32.07a.86.86,0,0,1-.09.24.46.46,0,0,1-.07.14l.15.12.14.08Zm-1-1,.09-.08a.22.22,0,0,0,.11-.16.14.14,0,0,0-.06-.11.14.14,0,0,0-.13,0,.17.17,0,0,0-.13,0,.14.14,0,0,0,0,.09.27.27,0,0,0,.08.16Zm-.14.37a.55.55,0,0,0-.18.15.32.32,0,0,0-.06.17.25.25,0,0,0,.07.19.29.29,0,0,0,.2.07.45.45,0,0,0,.16,0,.69.69,0,0,0,.17-.11Zm5.89.25.37,0a.38.38,0,0,0,.13.26.36.36,0,0,0,.26.09.36.36,0,0,0,.27-.08.21.21,0,0,0,.09-.18.14.14,0,0,0,0-.1.24.24,0,0,0-.13-.08l-.29-.08a1,1,0,0,1-.42-.18.44.44,0,0,1-.17-.36.43.43,0,0,1,.08-.27.52.52,0,0,1,.23-.18.91.91,0,0,1,.35-.07.81.81,0,0,1,.52.15.53.53,0,0,1,.19.4l-.37,0a.42.42,0,0,0-.1-.2.4.4,0,0,0-.24-.06.41.41,0,0,0-.25.07.11.11,0,0,0-.06.11.15.15,0,0,0,.06.11,1,1,0,0,0,.34.12,1.73,1.73,0,0,1,.39.13.61.61,0,0,1,.21.18.68.68,0,0,1,.06.29.61.61,0,0,1-.08.3.5.5,0,0,1-.25.2.91.91,0,0,1-.39.07.76.76,0,0,1-.53-.16.73.73,0,0,1-.23-.46Zm5.76.59v-1.82h.59a1.9,1.9,0,0,1,.44,0,.46.46,0,0,1,.27.17.63.63,0,0,1,.1.35.58.58,0,0,1-.06.28.43.43,0,0,1-.16.19.41.41,0,0,1-.19.08,1.81,1.81,0,0,1-.38,0h-.23v.69Zm.38-1.51v.51h.19a.85.85,0,0,0,.29,0,.22.22,0,0,0,.12-.09.29.29,0,0,0,0-.14.25.25,0,0,0-.06-.17.27.27,0,0,0-.14-.07h-.44ZM62,111.37h-.39l-.16-.42h-.73l-.15.42h-.39l.7-1.82h.4Zm-.68-.72-.25-.68-.24.68Z"/><path class="cls-2" d="M72,121.2H2.81V54.47a9,9,0,0,1,9-8.9h.51V92.93H62.45V45.57H63a9,9,0,0,1,9,8.9Zm-68.84-.33H71.64V54.47A8.64,8.64,0,0,0,63,45.9h-.18V93.26H12V45.9h-.18a8.65,8.65,0,0,0-8.7,8.57Z"/><path class="cls-1" d="M69.63,31.05c-.07.14-.13.29-.2.41-.92.34-1.13,0-1.23-.87a4,4,0,0,1-.52-.1L67.35,30c-.58-.19-.62-.33-.73-.91.07-.51.37-.62.89-.72a.75.75,0,0,1,1.32.19c0,.43-.06.41-.26.71a4.4,4.4,0,0,0,.15.65,2.85,2.85,0,0,0,0,.31c.69-.25.76.31.89.86Z"/><path class="cls-1" d="M69.4,37.63a1.87,1.87,0,0,1-.32.52,1.81,1.81,0,0,1-.17.77.67.67,0,0,1-1.08-.42c-.66-.38-.9-.78-.48-1.47.12-.13.69-.08.87-.08.19-.26.58-.19.87-.2a1.67,1.67,0,0,1,.31.88Z"/><path class="cls-1" d="M69.35,48.7c-.31.41-.89.57-1.17,0,0-.49-.07-.72.46-.74.61.16.63.12.71.7Z"/><path class="cls-1" d="M68.5,23.64c-.14.51-.88.82-1.1.2-.28-.26.09-.57.27-.71.47,0,.59,0,.83.51Z"/><path class="cls-1" d="M68.42,22a1,1,0,0,1-1,.62c-.43-.2-.82-1.12-.22-1.36.64,0,1,0,1.17.74Z"/><path class="cls-1" d="M68.54,41.93a1.94,1.94,0,0,1-.21.27c-1.28.41-1.09-1.33-.15-1a1.39,1.39,0,0,1,.36.7Z"/><path class="cls-1" d="M68.16,43.62c-.33.56-1.1.51-1.13-.22a.91.91,0,0,1,.35-.62c.76,0,.71.15.78.84Z"/><path class="cls-1" d="M67.85,33.84a1.42,1.42,0,0,1-.42.52c-.71,0-1.2-.58-.66-1.15,0-.41.54-.28.79-.25a1.47,1.47,0,0,1,.29.88Z"/><path class="cls-1" d="M67.23,45.44c-.2.65-1,.32-1.24,0,0-.43-.13-.92.33-1.08.69,0,.81.5.91,1.13Z"/><path class="cls-1" d="M67,40.36c0,.45-1.25.49-1-.49.08-.18.44-.19.62-.2a1,1,0,0,1,.37.69Z"/><path class="cls-1" d="M66.48,31.65c-.26.59-.83.51-1.27.2-.14-.54-.06-.62.38-.88.59,0,.81.13.89.68Z"/><path class="cls-1" d="M66.78,42.42c-.24.63-.56.82-1.1.3-.17-.62-.17-.72.47-1h.22a1.15,1.15,0,0,1,.41.7Z"/><path class="cls-1" d="M66,33.75c-.08.45-.3.41-.57.7.35.25.4.19.56.64,0,1.08-1,1-1.5.35a4.4,4.4,0,0,1-.18-.51c-.64-.29-.71-.53-.77-1.16-.41-.29-.44-.32-.46-.85a5.2,5.2,0,0,1,.65-.51c0-.08-.37-.17-.47-.21a2.17,2.17,0,0,1-.32-.27.79.79,0,0,1,1-1.09,1.21,1.21,0,0,1,.29,1.27l-.24.24a.73.73,0,0,0,.38.17c.09.14.18.28.29.42.8-.42,1.2.12,1.3.81Z"/><path class="cls-1" d="M65.5,21.1c-.54.56-1.11.21-1.35-.38,0-.77.2-.73.87-.62.08.06.16.14.25.2a2.2,2.2,0,0,0,.19.3,3.9,3.9,0,0,0,0,.5Z"/><path class="cls-1" d="M66,37.67c-.14.49-.24.51-.72.63-.06.13-.13.25-.18.35a.86.86,0,0,1-1.18-.4c-.07-.83.09-.85.82-.92a.7.7,0,0,1,.87-.52,1.15,1.15,0,0,1,.39.86Z"/><path class="cls-1" d="M66.17,48.24c-.18.42-.34.4-.83.38-.2-.1-.21-.26-.34-.42A1,1,0,0,1,64.35,47c.46-.5.91-.28,1.28.19.12.28.36.41.51.66a3,3,0,0,0,0,.43Z"/><path class="cls-1" d="M65.15,27.89c-.22.63-.76.7-1.32.33-.23-.71.22-1,.85-1.07.38.08.4.42.47.74Z"/><path class="cls-1" d="M65,25.27c-.16.58-.41.73-1,.39-.31-.65-.43-1.13.46-1.16.4.18.44.4.53.77Z"/><path class="cls-1" d="M65.38,43.64l-.26.35c-.45,0-.62-.3-.62-.68.41-.36.79-.17.88.33Z"/><path class="cls-1" d="M65,39.67a.59.59,0,0,1-1,.21c-.15-.28-.29-.61,0-.87.65-.34.91.09,1,.66Z"/><path class="cls-1" d="M65.16,45.11c-.31.43-.7.31-1.06,0,0-.34-.12-.63.17-.88.73-.25.84.39.89.9Z"/><path class="cls-1" d="M64.59,41.08a.79.79,0,0,1-.68.63,6.59,6.59,0,0,1-.15,1.52c-.65.69-1.13-.24-1.27-.82h-.24c-.32.41-.66.26-1.09.12a.5.5,0,0,1-.16,0c0,.1-.28.27-.36.3a.89.89,0,0,1,0,1.11c-.76,0-.95-.13-.86-.94.31-.4.38-.26.06-.69,0-.41-.12-.56.25-.74l.77,0a.84.84,0,0,1,.5-.24s0,.07,0,.09l-.14.16c0,.25.11.75.45.63,0-.5-.19-.77.07-1.24-.71-.2-.94-.92-.13-1.19H62a1,1,0,0,1,.35.61,2.68,2.68,0,0,0,.11-.31c.22-.23.94-.11,1,.19.71,0,1,0,1.08.79Z"/><path class="cls-1" d="M63.9,23.34c-.1.22-.19.43-.3.64-1.17,0-1.25-1.43-.05-1.34a1.92,1.92,0,0,1,.35.7Z"/><path class="cls-1" d="M64.11,41.13c-.09.09-.21.13-.21,0l.16-.1a.25.25,0,0,0,0,.13Z"/><path class="cls-1" d="M63,35.57c-.34.73-.89.57-1.3,0-.12-.42-.17-.67.25-.9.79,0,1,.13,1,.91Z"/><path class="cls-1" d="M62.73,25.86l-.25.44c-.06.82-.74,1.18-1.27.43-.64-.2-.75-.39-.83-1,0-.08.06-.17.09-.28a1.15,1.15,0,0,1-.81-.35c-.08-.21-.4-.13-.6-.13a1,1,0,0,1-.76-1c.15-.34.69-.43,1-.52.33-.36.91-.29,1.12-.77,0-.5-.41-.58-.69-.84-.32-.7-.19-.94.52-1a1.45,1.45,0,0,1,.61.59c.53.34,1,.73.6,1.37.06.18.12.34.19.5,0,.64,0,.73-.45,1.12,0,.1.48.32.59.41.19.44.19.49.66.54a.64.64,0,0,1,.26.57Z"/><path class="cls-1" d="M63.29,47.64a1.32,1.32,0,0,1-.33.52,1.4,1.4,0,0,1-.34.82,1.57,1.57,0,0,1-.64-.06c-.2-.38-.23-.47-.59-.55a2.42,2.42,0,0,1-.22.62c-.33.09-.45.22-.81,0-.43-.53-.28-.95.34-1.17a1.63,1.63,0,0,0,.39.13c.08-.45,0-.67.52-.67.56.25.52-.38,1-.39.45.22.59.21.66.7Z"/><path class="cls-1" d="M63.17,45.66c-.21.49-.2.54-.81.56-.49-.22-.46-.42-.39-1,.3-.64,1.08-.08,1.2.4Z"/><path class="cls-1" d="M62.66,33.64a.67.67,0,0,1-.68.54c-.35-.1-.71-.37-1-.06-.84,0-1-.1-1.1-.95.14-.43.49-.9,1-.56a5.7,5.7,0,0,0,.42.43,1.61,1.61,0,0,1,.93-.19,2.42,2.42,0,0,0,.31.33,3.12,3.12,0,0,0,.09.46Z"/><path class="cls-1" d="M62.5,31.4c-.2.51-.36.58-.89.66a1,1,0,0,1-.79.29c-.26-.32-.6-1-.19-1.29a1.09,1.09,0,0,1,.54-.06c.31-.45,0-.6,0-1,.15-.26.3-.55.65-.47s.78.85.35,1.22c0,.18.24.28.31.41s0,.17,0,.26Z"/><path class="cls-1" d="M61.93,15.94a5.09,5.09,0,0,0-.16.53c-.38.79-1.41.26-1.35-.57.29-.65.74-.56,1.31-.52a3.38,3.38,0,0,0,.2.56Z"/><path class="cls-1" d="M62.33,44.27c-.12.61-.39.67-1,.41a.53.53,0,0,1,.26-1c.5.09.59.14.73.58Z"/><path class="cls-1" d="M62.29,53.14c-.36.88-1.57.88-1.59-.21.1-.51.6-.65,1-.66s.46.52.54.87Z"/><path class="cls-1" d="M62.23,55.23a.81.81,0,0,1-1.34.26c-.09-.21-.27-.72-.07-.93l.47-.26c.59,0,.81.4.94.93Z"/><path class="cls-1" d="M61.93,50.34A.8.8,0,0,1,61,51a.75.75,0,0,1-.45-1.13.94.94,0,0,1,1.21.12,3.88,3.88,0,0,0,.15.36Z"/><path class="cls-1" d="M61,28.64c-.17.46-.32.55-.79.56A.67.67,0,0,1,60.62,28a1,1,0,0,1,.33.65Z"/><path class="cls-1" d="M60.56,18.81a3.83,3.83,0,0,1-.39.51c0,.61-.07.82-.72.84-.67-.3-.57-.83-.33-1.4a.2.2,0,0,1,0-.11,1.11,1.11,0,0,1-.54-.14c-.29-.7-.38-1.2.57-1.23.31.08.44.29.59.57a.83.83,0,0,1,.76.51c0,.16.05.3.08.45Z"/><path class="cls-1" d="M60.21,16.39c-.32.53-.61.59-1.07.16a1.15,1.15,0,0,1,.16-1.14l.49,0c.32.17.37.64.42,1Z"/><path class="cls-1" d="M61,45.39c-.25.38-1,.37-1.17-.09s0-1.1.61-1.12A2.75,2.75,0,0,1,61,45.39Z"/><path class="cls-1" d="M60.29,26.52a1.15,1.15,0,0,1-.92.39,1.4,1.4,0,0,1-.24-.94c.68-.72,1,0,1.16.55Z"/><path class="cls-1" d="M60.45,45.21l0,0a.28.28,0,0,1-.06-.08s0,0,.06,0a.15.15,0,0,0,0,.1Z"/><path class="cls-1" d="M60.31,46.55c-.13.21-.36.19-.6.25-.94-.52-.21-1.41.48-.75.05.18.08.34.12.5Z"/><path class="cls-1" d="M58.82,14.74c-.06.5-.07.53-.48.74-.65,0-.74-.38-.85-.88-.14-.07-.28-.13-.43-.22a7.69,7.69,0,0,1-.28-.72,3.62,3.62,0,0,1-.46-.06c-1.16.63-1.13-.11-1.16-.92-.37-.26-.46-1.22.16-1.24a1.18,1.18,0,0,1,.81.65,1.83,1.83,0,0,0,.34,0,1.27,1.27,0,0,1,.75,1,1.52,1.52,0,0,1,.68.25,6.5,6.5,0,0,0,.22.62c.53.07.6.28.7.76Z"/><path class="cls-1" d="M60,57.23c-.18.42-.5.44-.93.31-.14-.34-.31-.68-.09-1,.51-.26.72.09,1,.45,0,.11,0,.2.06.29Z"/><path class="cls-1" d="M59.94,59.11c-.24.45-.16.53-.79.51-.43-.21-.46-.51-.39-1,.29-.4.64-.26,1-.12a1.51,1.51,0,0,1,.16.57Z"/><path class="cls-1" d="M58.72,21.1c-.26.47-.69.41-1.16.28l-.28-.49c0-.73.11-.79.81-.81.48.21.55.55.63,1Z"/><path class="cls-1" d="M59.66,54.17c-.24.38-.35.57-.86.42-.26-.24.21-.18.41-.28,0-.14,0-.3,0-.46a.61.61,0,0,1-.18-.11l-.1.06c0,.27-.1.68-.47.45-.43-.78.42-1.11,1-.69a1.84,1.84,0,0,1,.21.61Z"/><path class="cls-1" d="M59.83,61.3c-.13,1-1.69,1.13-1.38-.18L58.7,61c.09-.47.37-.4.81-.38a2.12,2.12,0,0,1,.32.68Z"/><path class="cls-1" d="M57.58,27.81a.78.78,0,0,1-1.06.67,2.09,2.09,0,0,1-.28-.17c-.12.12-.22.22-.33.31-.57,0-.81,0-1-.61a.92.92,0,0,1,.19-.72c0-.22,0-.42,0-.64.23-.34.81-.62,1.17-.36.54,0,1-.07,1,.63-.13.29.12.6.17.89Z"/><path class="cls-1" d="M58.11,53a.83.83,0,0,1-1.12.44,1.32,1.32,0,0,1-.2-.72c.12-.43.76-.7,1.08-.34.16,0,.22.51.24.62Z"/><path class="cls-1" d="M57.14,25.07c0,.75-.66.74-1.16.5a2.37,2.37,0,0,1-.29-.34c-.33.48-.47.54-1.08.44a.93.93,0,0,1-.75.47v.1c.36.68.1,1.48-.73,1-.34-.55-.39-1.42.51-1.25,0,0,0,0,0-.08h-.08c-.11-.24-.21-.49-.31-.75a1,1,0,0,1-1.06-.81.89.89,0,0,1,.93-.67.45.45,0,0,0,.26.06c0-.14.14-.21.27-.31-.06-.55-.25-.92.07-1.45-.07-.48-.15-.78.29-1,.2,0,.41.05.63.06a3.83,3.83,0,0,0,.46.33c.6,0,.81.26,1.07.77l.43.09c.57.54.2,1.06-.37,1.34l0,.79c.4.11.85.26.93.69Z"/><path class="cls-1" d="M57.84,59.08c-.77.54-1.59.22-1.62-.79.3-.5.71-.39,1.21-.14.29.13.38.67.41.93Z"/><path class="cls-1" d="M56.55,18.2c-.23.31-.33.42-.73.43-.51-.18-.7-.42-.64-.95a.83.83,0,0,1,1.3,0c0,.18.05.34.07.5Z"/><path class="cls-1" d="M55.48,9.63c-.21.58-.73.66-1.22.31-.71-.92.67-1.88,1.14-.81a3.73,3.73,0,0,0,.08.5Z"/><path class="cls-1" d="M56.84,61.47c-.31.49-.67.32-1.12.14a4.22,4.22,0,0,1-.27-.36c0-.34-.16-.78.3-.8a.11.11,0,0,0,.08.07,1,1,0,0,1,1,.95Z"/><path class="cls-1" d="M54.55,16.35c0,.89-1.49,1-1.29-.26.32-.6.73-.65,1.22-.18,0,.16,0,.3.07.44Z"/><path class="cls-1" d="M54.69,29.37c-.25.7-1,.5-1.27-.1a1.44,1.44,0,0,1,.1-.79c.87-.47,1.1.19,1.17.89Z"/><path class="cls-1" d="M55.36,58.14l-.09.15c-1.19.64-1.71-1.3-.72-1.34.62.29.68.54.81,1.19Z"/><path class="cls-1" d="M54.18,20.43a1.69,1.69,0,0,0-.12.28c-.79.84-1.51-1.32-.23-1a2.55,2.55,0,0,1,.35.7Z"/><path class="cls-1" d="M53.6,8.67c-.35.85-.49.87-1.24.37-.15-.68-.3-1,.36-1.34l.43,0a1.7,1.7,0,0,1,.45.93Z"/><path class="cls-1" d="M52.91,16.91c-.23.62-.72.41-1.26.37-.23.13-.76.29-1,.09-.21-.46-.27-.76.09-1.15.06-.51.16-1.12.8-1.14.17.15.36.31.53.44s0,.29.09.43a1.31,1.31,0,0,1,.73,1Z"/><path class="cls-1" d="M52.3,13.62c0,.08-.06.12-.08.18-.58.5-1.74.24-1.25-.66l.45-.47c.37,0,.55,0,.74.33a5.63,5.63,0,0,0,.14.62Z"/><path class="cls-1" d="M52.26,19.22A.66.66,0,0,1,51,18.88a.77.77,0,0,1,.88-.43c.35.08.35.47.37.77Z"/><path class="cls-1" d="M53.09,59.8a.87.87,0,0,1-.54.58c-.16.27,0,.63-.36.79-.79,0-.8-.38-.87-1.1-.31-.67-.26-1.22.6-1.25a3.22,3.22,0,0,0,.32.32c.74,0,.65-.06.85.66Z"/><path class="cls-1" d="M50,16.19c-.2.58-.36.8-1,.82-.45-.21-.9-.53-.76-1.12l.41-.37c.3,0,.61.05.91.06a1.61,1.61,0,0,1,.41.61Z"/><path class="cls-1" d="M50.07,19.22c-.11.42-.18.51-.58.65-.58,0-.92-.22-.94-.86a.72.72,0,1,1,0-1.42c.3.07.5.43.61.7.45.15.87.36.94.93Z"/><path class="cls-1" d="M49.57,5.58a.79.79,0,0,1-.72.39c-.31-.3-.59-.83-.3-1.24.73-.4.94.31,1,.85Z"/><path class="cls-1" d="M49.25,13a1,1,0,0,1-.9.4c-.15-.12-.29-.25-.42-.37-.77,0-1.16-.1-1.19-.89.13-.43-.12-.66-.14-1.11a1,1,0,0,1,1-.52,1.13,1.13,0,0,0,.27.22c.3.55.29.45.91.43.47.29.39.82.4,1.3,0,.18.05.36.09.54Z"/><path class="cls-1" d="M48.76,14.49c-.3.74-.81.73-1.32.16,0-.3-.18-.69.07-1,.64-.34,1.1.19,1.25.79Z"/><path class="cls-1" d="M49.9,59.19c0,.48-.75,0-.84-.08a3.53,3.53,0,0,1-.15-.39,1.8,1.8,0,0,0,.11-.2l.67,0c.12.1.16.53.21.69Z"/><path class="cls-1" d="M49.92,61c-.15.35-.77.49-1,.11,0-.54.3-1.22.87-.69a3.71,3.71,0,0,0,.11.58Z"/><path class="cls-1" d="M48.06,20c-.31.49-.79.39-1.26.22a1.05,1.05,0,0,1-.28-.85c.26-.42.83-.36,1.23-.21a4.24,4.24,0,0,1,.31.84Z"/><path class="cls-1" d="M47,21.14a.82.82,0,0,1-1.31.33c-.22-.61-.43-1.15.36-1.34.68,0,.77.48.95,1Z"/><path class="cls-1" d="M46.51,10.36a.87.87,0,0,1-.9.49,1,1,0,0,1-.46-1,.82.82,0,0,1,1.34.23,1.72,1.72,0,0,0,0,.32Z"/><path class="cls-1" d="M46,17c-.07.25-.24.54-.54.55,0,.42.24.84.06,1.23.22.52.33,1-.16,1.3-.7,0-1-.14-1-.87,0-.16.25-.29.25-.45a3.7,3.7,0,0,1-.36-.68s-.06,0-.07,0a3.1,3.1,0,0,0-.61.53c-.89,0-.93-.41-1-1.12a2,2,0,0,1,.64-.36c.17-.49.34-.69.92-.52.11.1.29.29.45.28,0-.32.36-.53.61-.68.59,0,.76.33.87.81Z"/><path class="cls-1" d="M44.09,14.58c-.54.56-1.2-.15-1.22-.75.24-.35.29-.58.81-.45.34.14.38.89.41,1.2Z"/><path class="cls-1" d="M43.47,7.37c-.2.43-.65.68-1.06.35-.34-.64-.17-1.1.59-1.12a.94.94,0,0,1,.47.77Z"/><path class="cls-1" d="M43.06,16a.53.53,0,0,1-.22.31c-.74,0-.9-.22-1-.93.09-.61.57-.59,1-.21a4.16,4.16,0,0,1,.25.83Z"/><path class="cls-1" d="M42.58,19.55c-.35.58-.55.62-1.18.26-.27-.5-.21-1.22.54-1.13.49.14.56.37.64.87Z"/><path class="cls-1" d="M40.46,19.65c-.05.48-.15.77-.7.79-.44-.25-.64-.35-.66-.89a.71.71,0,0,1,1.36.1Z"/><path class="cls-1" d="M39.73,13.78a1,1,0,0,1-.89.66c-.55-.43-.52-.39-.55-1.11.44-.59,1-.59,1.38,0a3.93,3.93,0,0,0,.06.48Z"/><path class="cls-1" d="M39.05,19.91c0,.47-.48.73-.88.74l-.42-.31c-.12-.53-.11-.92.4-1.19a1,1,0,0,1,.9.76Z"/><path class="cls-1" d="M38.13,4.77c-.55.87-1.59.32-1.28-.64l.34-.21.53,0a1.94,1.94,0,0,1,.41.87Z"/><path class="cls-1" d="M38.25,17.19c-.1.67-.91.68-1.3.21-.18-.58-.29-.42-.89-.43a.8.8,0,0,1,.47-1.48,1.58,1.58,0,0,1,.8,1c.32,0,.52-.16.77.16a4.58,4.58,0,0,0,.15.56Z"/><path class="cls-1" d="M37.82,12.77c-.2.54-.59.91-1.23.63-.16,0-.32.12-.47.18-.41,0-.9-.05-1-.51q0-.35,0-.69a.85.85,0,0,1-.07-.77c.16-.08.34-.15.52-.25A.87.87,0,0,1,37,10.89l.19.43c.06.58,0,.53.47.8a5.38,5.38,0,0,0,.2.65Z"/><path class="cls-1" d="M37.21,20.06a1.31,1.31,0,0,1-.66.59c-.21.74-.81,1-1.31.31,0-.22-.09-.43-.12-.66-.28-.08-.89,0-.9-.48h-.09c-.51.94-1.54.39-1.41-.6a.84.84,0,0,1,1.1-.35c.11.14.22.28.35.42.25,0,.52-.27.8-.33s.62.44.75.78c0,0,0,0,.07,0,.53-.46.89-.57,1.36,0l.06.32Z"/><path class="cls-1" d="M34.89,11.52c-.2.46-.7.85-1.2.51-.3-.56-.06-.73.23-1.22.51-.27.89.29,1,.71Z"/><path class="cls-1" d="M32.11,11.31c0,.09-.09.16-.13.24a.83.83,0,0,1-.93.11c-.33-.63-.23-1.33.63-1.21.4.11.41.47.43.86Z"/><path class="cls-1" d="M31.26,19.32c-.35.76-.65.37-1.27.39a.8.8,0,0,1-1.2,0,.84.84,0,0,1,.15-1c.46-.15.39-.13.48-.6.13-.31.45-.34.75-.39s.5.42.6.77c.28,0,.47.67.49.87Z"/><path class="cls-1" d="M30.58,10.54c-.16.57-.3.72-1,.67-.7-.43-.11-1.14.36-1.39.4.08.49.36.6.72Z"/><path class="cls-1" d="M29.34,15.27c-.42.73-1.06.92-1.59.17a1.61,1.61,0,0,1-.1-.35c-.43-.11-.71.08-1-.36,0-.36-.07-.69.25-.94a.16.16,0,0,1,0-.08.92.92,0,0,1,1.08.35c.15.23.34.17.58.22.6.22.62.38.75,1Z"/><path class="cls-1" d="M24.74,19.73c-.18.51-.34.64-.89.66-.45-.2-.43-.71-.44-1.13.58-.63,1.08-.23,1.33.47Z"/><path class="cls-1" d="M24.06,24.57c-.36.64-1.34,1-1.38-.05A.83.83,0,0,1,24,24.11a3.12,3.12,0,0,0,.09.46Z"/><path class="cls-1" d="M19.07,14.55a3.84,3.84,0,0,0-.22.39c-.93.65-1.65-1.41-.19-1.22.33.09.38.55.41.83Z"/><path class="cls-1" d="M18.13,22.26c-.23.67-.47.9-1.2.93a3.35,3.35,0,0,1-.47-.21c-.32-1,.05-1.46,1.08-1.49.45.08.54.36.59.77Z"/><path class="cls-1" d="M16.66,14.38a.81.81,0,0,1-.58.54c-.47,0-.56-.22-.78-.57,0-.48,0-.91.66-.92l.49.24c.17.16.16.5.21.71Z"/><path class="cls-1" d="M13.24,19.38c-.48.87-1.88.06-1.38-.74.55-.25.94-.32,1.3.25a2.64,2.64,0,0,0,.08.49Z"/><path class="cls-1" d="M69.2,31.12c-.26.27-.41.14-.63-.14a.39.39,0,0,1,.44-.39,1,1,0,0,1,.19.53Z"/><path class="cls-1" d="M69,37.46c-.06.11-.09.2-.13.29h-.17c-.17-.46.22-.94.3-.28Z"/><path class="cls-1" d="M68.44,28.76c-.18.21-.49,0-.43-.25.07-.07.28,0,.38,0s0,.18,0,.26Z"/><path class="cls-1" d="M68.93,48.71c-.24.25-.49,0-.49-.31.19-.2.42.17.49.31Z"/><path class="cls-1" d="M68.61,38.61a.46.46,0,0,1-.16.15c-.17-.08-.22-.34,0-.35a2.26,2.26,0,0,0,.13.2Z"/><path class="cls-1" d="M68,22.12a.64.64,0,0,1-.42.12c-.15-.28-.34-.61.14-.62.27.11.25.24.28.5Z"/><path class="cls-1" d="M68.26,30.06c-.05.13-.16.09-.27.08a1.64,1.64,0,0,1,0-.25c.06-.08.14-.15.22-.24a2.47,2.47,0,0,0,.09.41Z"/><path class="cls-1" d="M68.16,37.79c-.17.36-.54.35-.56-.11a.5.5,0,0,0,.13-.36.28.28,0,0,0,.11-.08c.26.19.26.27.32.55Z"/><path class="cls-1" d="M67.53,29.3c-.06.14-.07.25-.25.25-.28-.25-.34-.47,0-.73.2,0,.19.36.2.48Z"/><path class="cls-1" d="M67.5,33.67c0,.14-.15.29-.23.4h-.08c-.37-.34-.16-.38.08-.71h.08a1.33,1.33,0,0,0,.15.32Z"/><path class="cls-1" d="M66.13,31.64c-.29.31-.38,0-.41-.21.22-.25.37,0,.41.21Z"/><path class="cls-1" d="M65.66,35.28c-.29.69-.7.14-.82-.3a.65.65,0,0,1,.82.3Z"/><path class="cls-1" d="M65.61,33.82a.39.39,0,0,1-.57.08c0-.69.41-.93.57-.08Z"/><path class="cls-1" d="M65.13,20.89a.56.56,0,0,0,0,.12c-.4,0-.44-.14-.45-.51a.52.52,0,0,1,.49.39Z"/><path class="cls-1" d="M65.47,37.48h-.08a.62.62,0,0,1,0-.13h.07v.11Z"/><path class="cls-1" d="M65.79,48.16c-.08.18-.24.21-.25,0l.21,0,0,0Z"/><path class="cls-1" d="M64.71,28c-.08.1-.22.08-.36.09s0-.29,0-.47a1,1,0,0,0,.19-.08.7.7,0,0,1,.16.46Z"/><path class="cls-1" d="M65.24,47.43a.45.45,0,0,1-.27.31c-.22-.21-.42-.31-.29-.69.34-.16.43.12.56.38Z"/><path class="cls-1" d="M64.79,38.3a.28.28,0,0,1-.06.08c-.28,0-.39-.27-.3-.51h.25a1.29,1.29,0,0,1,.11.44Z"/><path class="cls-1" d="M64.55,34.24c0,.08-.1.13-.14.19s-.06,0-.06-.06a2.53,2.53,0,0,1,0-.39c.17,0,.13.07.2.26Z"/><path class="cls-1" d="M64.18,33.24a.23.23,0,0,0,0,.07H64a.58.58,0,0,1,0-.34c.06,0,.12.23.12.27Z"/><path class="cls-1" d="M64,31.76l-.08.15a.36.36,0,1,1-.06-.72,1,1,0,0,1,.14.57Z"/><path class="cls-1" d="M63.29,42.58l-.1.06s0,0,0-.09a.21.21,0,0,0,.12,0Z"/><path class="cls-1" d="M62.55,35.47a.37.37,0,0,1-.14.09.5.5,0,0,1-.08-.39h.13a2.63,2.63,0,0,0,.09.3Z"/><path class="cls-1" d="M62.58,41l-.16,0a.15.15,0,0,1,0-.18c.09,0,.16.14.18.21Z"/><path class="cls-1" d="M62.69,45.76c0,.12-.24,0-.26,0a2,2,0,0,1,.07-.29c.12,0,.14.2.19.28Z"/><path class="cls-1" d="M62.14,33.7a.69.69,0,0,1-.2,0c-.19-.11-.14-.12-.18-.32l.28-.07c.09.09.08.23.1.36Z"/><path class="cls-1" d="M62,31.44l-.06.08-.16,0v-.1l.16-.07.06.12Z"/><path class="cls-1" d="M61.5,16c-.06.15-.14.28-.18.41-.34,0-.52,0-.41-.43H61a.57.57,0,0,1,.41-.3c0,.12.08.22.12.32Z"/><path class="cls-1" d="M62.5,48.55c-.07.07-.15.11-.21.06s.1-.15.21-.15v.09Z"/><path class="cls-1" d="M61.89,30.23h0s-.15-.24-.05-.24.08.14.1.24Z"/><path class="cls-1" d="M61.55,26.09c-.59.55-1-.69,0-.26a.77.77,0,0,0,0,.26Z"/><path class="cls-1" d="M61.94,48s-.08,0,0-.1a.24.24,0,0,0,0,.1Z"/><path class="cls-1" d="M61.53,37.46a.44.44,0,0,0-.08.15c-.36,0-.49-.2-.5-.53.33-.07.48,0,.58.38Z"/><path class="cls-1" d="M61.86,53.19a.28.28,0,0,1-.31.19c-.19-.17-.31-.77.08-.79.2.16.2.37.23.6Z"/><path class="cls-1" d="M61.82,55.3c-.34.17-.65.08-.67-.34.38-.4.55,0,.67.34Z"/><path class="cls-1" d="M61.5,50.45c-.15.29-.54.16-.45-.16s.36,0,.45.16Z"/><path class="cls-1" d="M60.71,24.87l-.05.09c-.33,0-.75,0-.55-.45a1.29,1.29,0,0,1,.53-.08c0,.16,0,.3.07.44Z"/><path class="cls-1" d="M60.87,33.59a.92.92,0,0,0,0,.09c-.16,0-.14,0-.28-.06a1,1,0,0,1,0-.18l.2-.16a2.85,2.85,0,0,1,.12.31Z"/><path class="cls-1" d="M61,39.26l-.11.05-.07-.06a.16.16,0,0,1,0-.1h.1a.67.67,0,0,0,.06.12Z"/><path class="cls-1" d="M60.15,18.68c0,.1-.06.1-.12.12-.3-.13-.39-.63,0-.48,0,.12.07.25.11.36Z"/><path class="cls-1" d="M60.3,23.9c-.25,0-.45.05-.46-.31.22.07.37.12.46.31Z"/><path class="cls-1" d="M60.89,48.64s0,.07-.06.08-.2-.15-.17-.28a.27.27,0,0,0,.12,0l.11.22Z"/><path class="cls-1" d="M60.46,37a.07.07,0,0,0,0,.06L60.28,37a.25.25,0,0,0,0-.08l.18-.06s0,.1,0,.14Z"/><path class="cls-1" d="M60.54,42.26c0,.14-.54-.07-.23-.24a.5.5,0,0,0,.13,0,1,1,0,0,0,.1.21Z"/><path class="cls-1" d="M59.78,19.7a.31.31,0,0,1-.24.07c-.12-.12,0-.28.11-.38a.58.58,0,0,1,.13.31Z"/><path class="cls-1" d="M60.4,43.57c0,.07-.16,0-.21,0s-.12-.31.09-.32a.42.42,0,0,1,.12.27Z"/><path class="cls-1" d="M60.11,36.2a1.7,1.7,0,0,1,0,.22h-.14a.36.36,0,0,1-.14-.34c.07,0,.11-.08.12-.13h.16c0,.08,0,.18,0,.24Z"/><path class="cls-1" d="M60,37.6c0,.07,0,.14-.05.22l-.15,0a.65.65,0,0,1-.06-.34.47.47,0,0,0,.19,0l.07.2Z"/><path class="cls-1" d="M59.48,24.45c-.26.27-.72-.09-.73-.41.19-.2.6,0,.69.19a.93.93,0,0,0,0,.22Z"/><path class="cls-1" d="M59.24,17.94c-.08.13-.1.18-.22.23l-.1,0a1,1,0,0,1,.13-.36h.1a1,1,0,0,0,.09.18Z"/><path class="cls-1" d="M59.66,40.24c0,.19-.94-.31-.28-.48.19.1.23.28.28.48Z"/><path class="cls-1" d="M59.51,36.81,59.2,37c-.12-.06,0-.52,0-.63.09.14.18.28.27.4Z"/><path class="cls-1" d="M59.2,33.64c-.25.82-.9-.57-.29-.59a.86.86,0,0,1,.29.59Z"/><path class="cls-1" d="M59.22,35.07c0,.09,0,.17-.06.23H59a.35.35,0,0,1-.1-.32H59v-.07H59a.13.13,0,0,1,0-.06c.09,0,.17.14.22.21Z"/><path class="cls-1" d="M59.18,36c-.07-.06-.09,0-.1-.16a.07.07,0,0,0,.06,0,.48.48,0,0,0,0,.18Z"/><path class="cls-1" d="M58.43,14.8c0,.11-.07.2-.1.3-.45,0-.37-.33-.2-.64.22.06.25.07.3.34Z"/><path class="cls-1" d="M59,39.2c-.12.12-.22.22-.33.31a1,1,0,0,1,0-.74,1.6,1.6,0,0,0,.23,0,2.35,2.35,0,0,0,.14.4Z"/><path class="cls-1" d="M59.5,59.17l0,.08h-.11c-.08-.1-.15-.16-.15-.3a.26.26,0,0,1,.24,0,2.5,2.5,0,0,1,.07.26Z"/><path class="cls-1" d="M59.51,61.49c-.2.31-.94.54-.76-.06.53,0,.12-.63.66-.44,0,.18.07.34.1.5Z"/><path class="cls-1" d="M58.74,36.61a.55.55,0,0,1-.19.34c-.14,0-.25-.08-.25-.28s0-.34.05-.5c.27-.3.37.36.39.44Z"/><path class="cls-1" d="M58.25,21a.7.7,0,0,1-.16.1c-.25-.12-.23-.28-.2-.59.29.08.27.2.36.49Z"/><path class="cls-1" d="M59.06,51.07a.19.19,0,0,1,0,.08h-.18a2.48,2.48,0,0,1,0-.41h.08a.52.52,0,0,1,.18.32Z"/><path class="cls-1" d="M57.51,14s-.07.06-.11.06a1.09,1.09,0,0,0,0-.18h.1a.27.27,0,0,0,0,.13Z"/><path class="cls-1" d="M57.72,35l-.14.09-.13-.1c0-.14,0-.3.06-.47.18,0,.19.36.21.48Z"/><path class="cls-1" d="M56.71,13c0,.05,0,.1-.05.14a.27.27,0,0,1-.12,0,.94.94,0,0,1-.07-.48.23.23,0,0,0,.11,0,1.71,1.71,0,0,0,.13.34Z"/><path class="cls-1" d="M57.14,27.93c-.1.18-.08.25-.31.25-.24-.21,0-.48.21-.61,0,.12.06.25.1.36Z"/><path class="cls-1" d="M57.66,53c0,.1-.13.13-.21.17s-.07-.28,0-.41a.42.42,0,0,0,.14,0l.06.26Z"/><path class="cls-1" d="M56.78,25.26c-.47.5-.59-.73-.05-.23a1.32,1.32,0,0,0,.05.23Z"/><path class="cls-1" d="M56.43,22.9a1,1,0,0,0-.11.23h-.2c-.26-.32-.17-.38.18-.45a.71.71,0,0,0,.13.22Z"/><path class="cls-1" d="M56.16,18.05l-.13.19c-.44,0-.34-.86.13-.19Z"/><path class="cls-1" d="M55.92,13.31c-.11.12-.1.14-.27.15-.09-.17-.17-.36.06-.48.13,0,.15.21.21.33Z"/><path class="cls-1" d="M56.17,26.83a2,2,0,0,0-.09.25c-.25,0-.23-.18-.24-.38a1.29,1.29,0,0,0,.26-.08c0,.07,0,.14.07.21Z"/><path class="cls-1" d="M55.53,12.22l-.1,0,0-.16.14-.05c0,.07,0,.12,0,.18Z"/><path class="cls-1" d="M55.72,24.17a.5.5,0,0,1,0,.13c-.32,0-.66-.61,0-.52l.06.39Z"/><path class="cls-1" d="M55.6,22.18a1.74,1.74,0,0,0-.11.18c-.31,0-.54-.16-.37-.53s.43.21.48.35Z"/><path class="cls-1" d="M55.71,28.15l-.13.08a.33.33,0,0,1-.12-.36c.22,0,.2.11.25.28Z"/><path class="cls-1" d="M55.51,23.19a3.74,3.74,0,0,1-.58,0c0-.38,0-.36.35-.42a.56.56,0,0,1,.23.42Z"/><path class="cls-1" d="M56.39,61.36c0,.06-.11.06-.14.06s-.13-.11-.13-.25l.08-.09a.56.56,0,0,1,.19.28Z"/><path class="cls-1" d="M56.18,54.53a.28.28,0,0,0-.08.06.82.82,0,0,1,0-.22c.06,0,.08.1.1.16Z"/><path class="cls-1" d="M55.1,25.26l-.09,0c-.11-.14-.26-.24-.14-.44H55c0,.14,0,.26.07.39Z"/><path class="cls-1" d="M54.43,22.91a1.36,1.36,0,0,0-.11.2c-.83,0-.07-1.29.11-.2Z"/><path class="cls-1" d="M54.4,21.77h-.11a.32.32,0,0,1,0-.15l.09,0a.37.37,0,0,0,0,.18Z"/><path class="cls-1" d="M54.14,16.46c-.33.74-.94-.42-.1-.45a.93.93,0,0,1,.1.45Z"/><path class="cls-1" d="M54.35,24.18c-.26.42-.86-.12-.27-.44.2.08.23.22.27.44Z"/><path class="cls-1" d="M54.28,29.34l-.06.07a.65.65,0,0,1-.19,0c-.12-.19-.33-.38-.11-.62a.92.92,0,0,0,.29,0c0,.18,0,.36.07.52Z"/><path class="cls-1" d="M54.16,25.52l-.14.13c-.13-.12-.22-.21-.17-.39.08,0,.14-.13.24-.08s0,.23.07.34Z"/><path class="cls-1" d="M55,58c-.37.39-.74-.85-.18-.42,0,.14.12.28.18.42Z"/><path class="cls-1" d="M53.19,8.81c-.24.39-.57-.06-.42-.31a3,3,0,0,1,.06-.36.59.59,0,0,0,.19,0,2.22,2.22,0,0,1,.17.66Z"/><path class="cls-1" d="M53.55,27c-.13-.11-.25-.19-.14-.4a1.72,1.72,0,0,0,.14.4Z"/><path class="cls-1" d="M53,24.56l-.19.11c-.2-.19-.12-.35.15-.36,0,.09,0,.18,0,.25Z"/><path class="cls-1" d="M52.46,17c-.31.33-.47-.09-.51-.3l.36-.1a2.37,2.37,0,0,0,.15.4Z"/><path class="cls-1" d="M51.87,13.55c0,.1-.1.12-.21.17l-.29-.17a.56.56,0,0,1,.11-.35h.28c0,.12.07.25.11.36Z"/><path class="cls-1" d="M51.81,19.12c-.06.07-.14,0-.22,0a.43.43,0,0,1-.05-.16.24.24,0,0,1,.22-.08c0,.07,0,.14.05.22Z"/><path class="cls-1" d="M51.66,15.87c-.1.1-.14.26-.26.31s-.09-.24-.08-.39l.3-.09a.71.71,0,0,0,0,.17Z"/><path class="cls-1" d="M51.39,22.57s0,.06,0,.08c-.46,0-.46-.47,0-.28a1.24,1.24,0,0,0,.06.2Z"/><path class="cls-1" d="M51.21,17s-.14,0-.18,0-.09-.15-.07-.31a1.06,1.06,0,0,0,.2,0c0,.09,0,.16.05.23Z"/><path class="cls-1" d="M49.53,16.38c-.35.52-.78-.11-.42-.34l.25,0a.67.67,0,0,1,.17.37Z"/><path class="cls-1" d="M49.59,19.36c-.29.43-.81-.26-.38-.52.3,0,.34.29.38.52Z"/><path class="cls-1" d="M49.12,5.55l-.08,0-.13-.32H49a.57.57,0,0,1,.11.3Z"/><path class="cls-1" d="M48.31,14.53c-.08.1-.16.08-.26.1a.42.42,0,0,1-.14-.51c.24.08.37.16.4.41Z"/><path class="cls-1" d="M47.82,12.37c-.23.52-.89,0-.61-.34a2.58,2.58,0,0,0,.46,0,1.85,1.85,0,0,0,.15.39Z"/><path class="cls-1" d="M47.5,19.84l-.12,0a.38.38,0,0,1-.14-.14c.06-.08.21.05.26.1Z"/><path class="cls-1" d="M46.44,21.13a.34.34,0,0,1-.06.06A.3.3,0,0,1,46,21c.07-.18.11-.18.27-.24a.72.72,0,0,1,.14.36Z"/><path class="cls-1" d="M46.06,10.34c-.07.06-.14.09-.19.13a.27.27,0,0,1-.22-.24c.05-.13.17-.12.3-.12s.08.15.11.23Z"/><path class="cls-1" d="M45.56,17a.21.21,0,0,1-.05.07.38.38,0,0,1-.31-.1c0-.08,0-.2,0-.3.3,0,.29.11.37.33Z"/><path class="cls-1" d="M45.28,19.59a.1.1,0,0,1-.05.07c-.16,0-.26,0-.36-.16.1-.12.15-.1.29-.14a1.71,1.71,0,0,1,.12.23Z"/><path class="cls-1" d="M45.19,18.4a.22.22,0,0,1-.06.07c-.31,0-.44-.44-.13-.45a.66.66,0,0,1,.19.38Z"/><path class="cls-1" d="M44.15,17.52c-.2.2-.35-.22-.3-.39h.08a.76.76,0,0,1,.22.39Z"/><path class="cls-1" d="M43.54,18.07c-.29.32-.54-.07-.55-.38.37,0,.41,0,.55.38Z"/><path class="cls-1" d="M42.14,19.54c-.2,0-.25-.11-.4-.21,0-.36.12-.26.34-.11a2.61,2.61,0,0,0,.06.32Z"/><path class="cls-1" d="M40,19.94,40,20h-.15a.46.46,0,0,1-.18-.38.27.27,0,0,1,.26-.05c0,.12.07.24.12.36Z"/><path class="cls-1" d="M39.34,13.74c-.09.42-.62.38-.53-.09,0-.06.26-.63.39-.3h.07a3.91,3.91,0,0,0,.07.39Z"/><path class="cls-1" d="M37.71,4.8a.43.43,0,0,1,0,.07c-.31,0-.42-.23-.29-.52h.14a1,1,0,0,1,.19.46Z"/><path class="cls-1" d="M37.87,17.27a.36.36,0,0,1-.51,0,.85.85,0,0,1,0-.23c.28-.21.46-.09.54.25Z"/><path class="cls-1" d="M36.62,16.47l0,.07a1.24,1.24,0,0,1-.27,0c-.1-.05-.15-.1-.15-.21a.43.43,0,0,0,.13.09l.34,0Z"/><path class="cls-1" d="M34.36,11.6c-.31.42-.58-.13-.29-.35.22,0,.25.15.29.35Z"/><path class="cls-1" d="M33.68,19.72c-.24.54-1-.39-.19-.42a.9.9,0,0,1,.19.42Z"/><path class="cls-1" d="M31.76,11.15a.88.88,0,0,0-.12.26c-.39,0-.44-.14-.39-.54.38,0,.32,0,.51.28Z"/><path class="cls-1" d="M30.82,19.38a.74.74,0,0,1-.18,0,.28.28,0,0,1-.16-.38c.27.09.27.11.34.34Z"/><path class="cls-1" d="M30.11,10.78c0,.06-.08.09-.1.13-.38,0-.35-.15-.36-.5.08-.1.37.05.43.15a.51.51,0,0,0,0,.22Z"/><path class="cls-1" d="M30.25,18.36c-.14.47-.52.09-.43-.2a.77.77,0,0,0,.25,0,1.08,1.08,0,0,0,.18.23Z"/><path class="cls-1" d="M29.73,19.33c-.22.23-.6.43-.61-.13.39-.2.41-.22.61.13Z"/><path class="cls-1" d="M28.94,15.28a.51.51,0,0,1-.63.26c-.16-.44-.15-.4.06-.81h.34a1.26,1.26,0,0,1,.23.56Z"/><path class="cls-1" d="M27.61,14.49c-.17.23-.4.31-.6.07,0-.18.13-.27.22-.42h.28c0,.12.06.25.1.36Z"/><path class="cls-1" d="M24.36,19.8a1.27,1.27,0,0,0-.13.22c-.33,0-.59-.2-.45-.6.33,0,.47,0,.58.38Z"/><path class="cls-1" d="M23.57,24.51c-.14.51-.6.15-.42,0l.4-.07a.15.15,0,0,0,0,.1Z"/><path class="cls-1" d="M21.35,70.4c0-.07-.29-.67-.13-.67.05.22.09.46.13.67Z"/><path class="cls-1" d="M20.9,66.08c0,.1,0,.2,0,.28,0-.16,0-.32,0-.5l.06.22Z"/><path class="cls-1" d="M20.88,65.54a.26.26,0,0,0,0,.11,1.58,1.58,0,0,1,0-.38c0,.1,0,.18.06.27Z"/><path class="cls-1" d="M18.62,14.41l-.05.08a.56.56,0,0,1-.16-.42.39.39,0,0,0,.14,0c0,.13.05.26.07.36Z"/><path class="cls-1" d="M17.73,22.23c0,.1-.08.17-.11.24-.49,0-.75.15-.67-.48a.91.91,0,0,1,.69-.06,1.54,1.54,0,0,0,.09.3Z"/><path class="cls-1" d="M16.24,14.39a1.05,1.05,0,0,1-.08.13c-.43,0-.45-.19-.52-.51.07-.08.36,0,.46-.06a.74.74,0,0,1,.14.44Z"/><path class="cls-1" d="M12.79,19.33l0,.06c-.34,0-.71-.38-.31-.59.28,0,.33.33.36.53Z"/><path class="cls-1" d="M64.34,55.64c-.44.79-1.34-.17-.82-.85.34-.17.66.2.78.47a2.22,2.22,0,0,0,0,.38Z"/><path class="cls-1" d="M58.38,63.66c-.44.79-1.32-.18-.81-.85.34-.18.66.19.77.47,0,.13,0,.26,0,.38Z"/><path class="cls-1" d="M53.54,64.09c-.25.47-.78-.1-.48-.5.21-.1.39.12.46.28a1.5,1.5,0,0,0,0,.22Z"/><path class="cls-1" d="M55.77,60.23a.32.32,0,0,0,.32-.32.32.32,0,0,0-.63,0,.32.32,0,0,0,.31.32Z"/><path class="cls-1" d="M57.86,56.14a.31.31,0,1,0,0-.61.31.31,0,1,0,0,.61Z"/><path class="cls-1" d="M53.58,61.79a.32.32,0,1,0,0-.63.32.32,0,0,0,0,.63Z"/><path class="cls-1" d="M60,55.94a.42.42,0,1,0-.42-.41.42.42,0,0,0,.42.41Z"/><path class="cls-1" d="M66.79,52.7a.67.67,0,0,0,.68-.67.68.68,0,1,0-.68.67Z"/><path class="cls-1" d="M64.07,50.51a.68.68,0,1,0,0-1.35.68.68,0,0,0,0,1.35Z"/><path class="cls-1" d="M68.57,46.33a.68.68,0,1,0-.68-.67.68.68,0,0,0,.68.67Z"/><path class="cls-1" d="M64.44,53a.42.42,0,0,0,.42-.41.42.42,0,0,0-.42-.42.42.42,0,0,0,0,.83Z"/><path class="cls-1" d="M76.63,78.08c-.66,1-2.92,2.33-4.27,3-10.74,7-21.51,8.17-34,4.54-5.13-2.12-10.15-4.55-13.87-8.76C21.1,72,19.25,64,23.31,59a13.18,13.18,0,0,1,6-4.19c6.38-1.81,9.63,5.72,16.39,4.39.72-.23,1.76-.71,1.51.47.61,5.86,4.9,6,7.86,10.43,4,7.22,9.44,10.74,17.74,9.09a18.75,18.75,0,0,0,3.83-1.14ZM22.5,74.28C24,77.2,19.14,72,18.78,71.17c-2.93-2.74-3.65-9.06-3.51-12.86.13-.72.38-1.43.49-2.14,1.41-3,2.7-5.29,5.44-7.15a12.81,12.81,0,0,1,7.56-.78,10,10,0,0,1,4.95,4.25c1,1,.18,1.46-.73,1.66-11.07.34-15.06,10.56-10.56,20.16ZM32.09,49c-.32,1.12-2-.69-2-.81-10.43-4.51-15.73,6.52-15.47,14.88.13.76,0,2-.47.48-1.34-6.32-2.66-10.91.83-16.71,2.1-2.23,4.44-5.6,7.87-5.71,5.51.35,8.6,2.23,9.21,7.87Zm1.38-8.56c-.08.89-.79,5.06-2,3.19-7.71-6.29-15.81-2-18.72,6.62-.19.54-.25.33-.51-.09-.57-2.71.62-5.57,1.66-8,1-3.39,3.93-5.72,6.81-7.43,5.61-2.45,12.14-.83,12.73,5.72Zm6.3,4.27c-.32.68-.35.61-1.1.26-2.45-.14-3.5.84-4.63,2.94-.11.89-.76,1.93-.88.4a6.24,6.24,0,0,1,1.33-3.57c1.5-1.22,4.39-2.72,5.28,0Zm.19,2c-.48.56-.65.55-1.35.63-3.24-.55-3.66,3.25-3.28,5.56-1.26,1.61-1.44-1.77-1.5-2.35a7.86,7.86,0,0,1,.84-3.07c1-1.38,4.85-3.54,5.29-.77Zm.11,1.83a1.44,1.44,0,0,1-1,.57c-1.89,1.14-2.23,4.9-1.15,6.71,0,.43-.38.26-.7.25-4.38-3.32,1.76-11.36,2.89-7.53Zm1.12-7.09c-.84,1.49-3.32-1.9-1.24.44.55,1.3-.38,2.08-1.3.78C36.72,41.34,35,43.8,33.85,45c-2.43.09,1.29-3.63,1.68-4-.4,0-1,0-.68-.6,1.72-1.47,5.83-2,6.34,1.05Zm1.68,17.07c-.37.4-2.07-.26-2.5-.39-3.18-1.62-3.48-9.52.73-9,.47.12.31.88.13,1.19-2,2.16-.77,6.24,1.28,7.85a.45.45,0,0,1,.36.33ZM42.46,31.1c-.28,2.43-1.64,6.54-5,6.17-.11-.36.08-.77.09-1.14.61-3.46-2-6.47-5-7.69-.43-.07-1.67-.56-1.67-.28,4,1.17,7.2,5.35,5.55,9.5-.25.31-2,2.58-2.5,2.26a8.28,8.28,0,0,0-7.29-6.84A15.29,15.29,0,0,0,15.16,38c-.95,0,1.11-3.49,1.65-3.95,1.06-1.26,2.85-3.47,4.32-4.26,2.22-2.12,6-2,8.81-1.88-1.19-1.13-4.64-.52-6.14-.47-.08-2.69,7.28-4.39,9-4.33,4.64.66,8.87,3.18,9.65,8ZM43,44.47a.68.68,0,0,1-.33.36s-1.79,2.87-1.85,2.8c-.5-1.54-.6-3,1.28-3.06,0-.85-2.31.56-1.45-.72.14-1.24,2.14-.32,2.35.62Zm.19-3.67c-.62,2.42-1.92-.72-2.41-1.33a5,5,0,0,0-2.09-.81c-.26-.24-1.36.09-1.23-.34,1.81-1.92,5.28.52,5.73,2.48ZM44,49c-1.12,1.19-3.68-2.8-1.22-2.87.15.14.06,1,0,1.19-.59,1,1.07,1.06,1.2,1.68Zm.23-5.15c-1,1.73-1.14-.6-1.86-.82-.35-.93,1.43-.54,1.86.82Zm.6-3.36c-.44,1.85-2.14,1.11-1.37,0,.31-1.46-1.41-3-2.69-3.3-.25-.9,2.91.24,3.93,2a6.06,6.06,0,0,0,.13,1.33Zm.37,4c-.43.93-2.3,1.06-.76,0,.19-.44-.35-.85.42-.87a1.37,1.37,0,0,1,.34.91ZM46,48.66c-.64,1.41-4-1-2.64-2.06,1.29,0,.55,1.85,2.41,1.8a.34.34,0,0,1,.23.26Zm1,9.57c-1.68,1.34-4.53-.84-5.32-2.3-1.22-1.54-1.27-7.41,1.49-5.94A1.29,1.29,0,0,1,43,51.57c-1.68,4.61,3.18,4.2,4,6.66Zm.92-11.15c-3.38,3.6-4.71-3.09-2.26-.45.66.5,2.23.37,2.26.45Zm-.34-16.53c-.4,3.21-1.27,6.39-5.32,5.8-.55,0-1.07.22-.87-.45A7.49,7.49,0,0,0,43,30.64c-.39-3.11-2.11-4.53-4.46-6.3-1.55-1-3.24-1.42-4.79-2.28,0-1,5.95-.1,7-.28.73-.49,1.13-.31,1.47.35.47-1.05,1.13.24,1.26.7,2.86,1.66,3.68,4.39,4.08,7.72ZM48,41.19c-.11,1.56-.55,3.13-2.52,2.43a.55.55,0,0,1,.17-.82c1.56-.23,1.32-2.56.76-3.58.11,1.38.05,3.23-1.84,3.29-.62-.15.44-1.15.55-1.37a4.42,4.42,0,0,0-1.5-3.76c.05-1.87,2.7,1.65,2.69,1.4.9-.66,1.65,1.87,1.69,2.41Zm.84,1.28a7.71,7.71,0,0,1-.67,2.07c-1.22.85-3.42-.09-1.93-.64,1.15.11,1.29.13,1.7-.85.16-.37.52-1.29.9-.58Zm.52,1.86c-.61,4.05-5.52.8-2.84.73,2.13,1.24,2.26-1.81,2.84-.73Zm3.57,12c-.32,1.1-3.24,1.17-4.3,1.2-3.4-.46-6-3.22-4.87-6.69,1.68-1.81,1.45-.39,1.5,1,.67,3.4,4.42,4.79,7.56,4.17a.67.67,0,0,1,.11.3Zm.47-24.77c-.26,3.38-1.74,7-5.66,6.68-3.94-.93-.76-1.85-.4-3.63,1.41-4.25,1.35-6.85-1.46-10.45-.54-.36-1.38-.69-.51-1.17.37,0,.81.3,1.16.18,0-1.16,1.66-3.11,2.8-2.49.64.07.88.73,1.25,1.17,2.24-.39.82,1.77-.68,1.75,0,.07,1.88,1.64,1.91,2.74a9.16,9.16,0,0,1,1.59,5.22Zm3.32,23.31c-1.13,1.75-1-2-1.83-.39-3.48,1.36-6.52,1.25-8.58-2.13-.34-1-.8-3.47,1-3.23l.13.7c1.58,5.33,8.71,1.64,9.24,5Zm2-25.58c-.25.81-.72.28-.78,1.22,1.49,1.15-.68,1.12-.08,1.84,0,1.44-1.6,1.27-1.73,1.95,0,2.79-1.09,5.78-3.92,6.86-1.16.24-2.27.54-3.28-.2-.39-.45-1.28-1.65-.53-2.18A6,6,0,0,0,53,35.73a9,9,0,0,0,1-3.78c.32-.69-.65-1.49.91-1.31.05-.59.17-.76.74-.78.61.65,1.07,0,1.68-.32.06-1.1,1.16-1.34,1.3-.25Zm.78,21.89c-.64,1-1.15.33-1.18-.5-.75,0-2,1.85-3.33,2-2.51.7-6.22-.63-7.16-3.18,0-.56.16-2.57,1.1-2,1.06,2.87,6.4,2.34,8.53,1.32,1.24-.76,1.6,0,1.17,1.06-.42.53.73.24.87,1.25ZM62,37.53c-.2.46-.36.52-.86.55-.14.77,1.05,1.59-.43,1.64-.32-.09-.5-.65-.73-.12.13,1.13-1,1.41-1.21.49-.09-.1-1.21,1.66-.13,1.62.74.28.82,2,.8,2.62-.13,5.88-10,6.81-9.89,1,.28-.38,1,.2,1.32.39,1.76.43,6.83-.77,6.75-3.05-.36,1.33-3.33,2.16-4.47,2.47-2.56.09-4.91-3.5-2.65-3.12,2.21-.07,4.06-1.81,5.39-3.39.28-.68.56-2.6,1.17-2.62a7.08,7.08,0,0,0,1.11,1.66c.39-.41-1.76-1.47.44-2-.25-.72-.78.1-1.45-.27-1-.93.61-2,1-.86.56.53-.25-1.29.4-1.74,2-.07.17,2.52,1.69,2.62a1.61,1.61,0,0,1,.37,1.22c.72-.32,1.28.13,1.37.9Z"/><path class="cls-1" d="M43.28,106.29a2.74,2.74,0,0,1-2.37-1.58,7.7,7.7,0,0,1-1-4,8.28,8.28,0,0,1,.94-4.17A2.58,2.58,0,0,1,43.28,95c1,0,1.54.44,2.17,1.54a8.27,8.27,0,0,1,.95,4.17,7.6,7.6,0,0,1-1,4c-.64,1.05-1.18,1.58-2.15,1.58Zm-.05-.46c-.56,0-1-.48-1.37-1.45a10.56,10.56,0,0,1-.56-3.7,11.49,11.49,0,0,1,.54-3.83c.38-1,.81-1.42,1.39-1.42s.9.41,1.27,1.42a11.46,11.46,0,0,1,.55,3.83,10.56,10.56,0,0,1-.56,3.7c-.38,1-.69,1.45-1.26,1.45Z"/><path class="cls-1" d="M37.76,106.09c-1-1,0-5.38-1.63-5.44l-1,0v3.6a2.43,2.43,0,0,0,.23,1.28,1.25,1.25,0,0,0,1,.35v.33H33v-.33a.55.55,0,0,0,.6-.31,2.36,2.36,0,0,0,.24-1.29l0-7.39c0-.65,0-1.21-.22-1.33a2.83,2.83,0,0,0-1-.13v-.39L36.35,95c3.43-.08,3.16,5.36.37,5.44,1.34,0,1.56,3,1.59,4.45,0,.88.59.85,1.21.6s.15,0,.36.47a2.58,2.58,0,0,1-2.12.15Zm-1.91-5.89h-.72V95.52l.89,0a1.41,1.41,0,0,1,1.19.59,2.64,2.64,0,0,1,.43,1.58c0,1.68-.59,2.53-1.79,2.53Z"/><path class="cls-1" d="M11.22,104.37v-7.5a2.47,2.47,0,0,0-.2-1.23.84.84,0,0,0-.76-.33V95h3.5v.32a.91.91,0,0,0-.81.32,2.39,2.39,0,0,0-.23,1.28v7.22a4.37,4.37,0,0,0,.07,1c.08.29.12.38.39.44,1.72.36,1.77-2,2.08-3.27l.41-.14,0,4.08H10.11v-.51c.36,0,.77.08.91-.13a2.56,2.56,0,0,0,.2-1.25Z"/><path class="cls-1" d="M47.35,101.81c.35,1.38.67,4.47,2.56,4a1.77,1.77,0,0,0,1-.58,1.94,1.94,0,0,0,.36-1.34,3,3,0,0,0-1-2c-.6-.62-1.54-1.2-2.13-1.85a4,4,0,0,1-.8-3.87A1.85,1.85,0,0,1,49.62,95a4.23,4.23,0,0,1,1.34.86c.1.07.38-.66.38-.92h.33l.18,4.38-.48,0a15,15,0,0,0-.8-2.86A1.34,1.34,0,0,0,48,97a3.11,3.11,0,0,0,1.22,2.13,15.66,15.66,0,0,1,1.75,1.51,5.05,5.05,0,0,1,1,1.34,3.72,3.72,0,0,1-.23,3.42,2.2,2.2,0,0,1-1.66.88,2.37,2.37,0,0,1-2.42-1.18l-.05,1.12-.54,0-.11-4.44Z"/><path class="cls-1" d="M54.33,96.71,54,95.35l1.07-.45,2.35,9.62a4.13,4.13,0,0,0,.39,1.1.76.76,0,0,0,.64.41v.32l-3.08-.08V106c.22.07,1.07,0,1.07-.38l-1.19-4.29H54l-.79,3.88c-.07.34,0,.71.21.78a1.13,1.13,0,0,0,.38,0v.33H51.56V106a.58.58,0,0,0,.63-.4Zm.8,4.17-.55-2.2-.52,2.22Z"/><path class="cls-1" d="M59.14,101.81c.36,1.38.67,4.47,2.56,4a1.77,1.77,0,0,0,1-.58,2,2,0,0,0,.36-1.34,3,3,0,0,0-1-2c-.6-.62-1.55-1.2-2.13-1.85a3.93,3.93,0,0,1-.8-3.87A1.85,1.85,0,0,1,61.41,95a4.23,4.23,0,0,1,1.34.86c.1.07.39-.66.39-.92h.32l.18,4.38-.48,0a16.46,16.46,0,0,0-.79-2.86,1.35,1.35,0,0,0-2.64.55A3.12,3.12,0,0,0,61,99.14a15.56,15.56,0,0,1,1.74,1.51,4.65,4.65,0,0,1,1,1.34,3.69,3.69,0,0,1-.22,3.42,2.21,2.21,0,0,1-1.66.88,2.36,2.36,0,0,1-2.42-1.18l-.06,1.12-.54,0-.1-4.44Z"/><path class="cls-1" d="M18.92,96.71l-.31-1.36,1.08-.45L22,104.52a4.57,4.57,0,0,0,.38,1.1.79.79,0,0,0,.65.41v.32L20,106.27V106c.21.07,1.06,0,1.06-.38l-1.18-4.29H18.56l-.79,3.88c-.07.34-.05.71.2.78a1.17,1.17,0,0,0,.38,0v.33h-2.2V106a.59.59,0,0,0,.63-.4Zm.8,4.17-.55-2.2-.53,2.22Z"/><path class="cls-1" d="M23.72,101.81c.36,1.38.68,4.47,2.56,4a1.83,1.83,0,0,0,1-.58,2,2,0,0,0,.35-1.34,3,3,0,0,0-1-2c-.59-.62-1.54-1.2-2.12-1.85a3.91,3.91,0,0,1-.8-3.87A1.83,1.83,0,0,1,26,95a4.26,4.26,0,0,1,1.35.86c.1.07.38-.66.38-.92h.33l.18,4.38-.48,0a15.75,15.75,0,0,0-.8-2.86,1.35,1.35,0,0,0-2.63.55,3.12,3.12,0,0,0,1.23,2.13,15.56,15.56,0,0,1,1.74,1.51,4.85,4.85,0,0,1,1,1.34,3.72,3.72,0,0,1-.22,3.42,2.21,2.21,0,0,1-1.66.88A2.36,2.36,0,0,1,24,105.11l-.06,1.12-.54,0-.1-4.44Z"/></g></svg>