<svg xmlns="http://www.w3.org/2000/svg" viewBox="0 0 201.66 124.8"><defs><style>.cls-1{fill:#606161;}</style></defs><title>LOGOS MAXIM GRIS</title><g id="Layer_3" data-name="Layer 3"><path class="cls-1" d="M100.78,2q43.77,0,87.55,0a3,3,0,0,1,2.32.9c2.57,2.59,5.2,5.12,7.83,7.64a2.17,2.17,0,0,1,.76,1.74q0,39.83,0,79.64a2,2,0,0,1-.67,1.64q-4.09,3.92-8.11,7.9a2.17,2.17,0,0,1-1.66.66q-88,0-176,0a2.12,2.12,0,0,1-1.65-.68q-4-3.93-8-7.8A2,2,0,0,1,2.43,92q0-39.88,0-79.76a2.06,2.06,0,0,1,.67-1.65C5.79,8,8.47,5.43,11.1,2.78a2.54,2.54,0,0,1,2-.75Zm0,4.46H42.9c-9.39,0-18.78,0-28.18,0a2.52,2.52,0,0,0-2,.8C11,9.05,9.22,10.76,7.43,12.46A1.93,1.93,0,0,0,6.78,14q0,38.11,0,76.24a2.06,2.06,0,0,0,.71,1.63c1.79,1.7,3.57,3.42,5.3,5.19a2.47,2.47,0,0,0,2,.79q86.06,0,172.1,0a2.42,2.42,0,0,0,1.89-.73q2.6-2.65,5.3-5.2a2.16,2.16,0,0,0,.75-1.73q0-38.06,0-76.11a2.18,2.18,0,0,0-.76-1.74c-1.71-1.61-3.41-3.23-5-4.92a2.92,2.92,0,0,0-2.31-.93Q143.74,6.51,100.77,6.5Z"/><path class="cls-1" d="M61.11,113.75a7.9,7.9,0,0,1,3.19.56,4.06,4.06,0,0,1,2.71,4,3.92,3.92,0,0,1-2.67,3.85,8.29,8.29,0,0,1-6.57-.06,4,4,0,0,1-2.58-3.93,4.06,4.06,0,0,1,2.73-3.83A8.26,8.26,0,0,1,61.11,113.75Zm0,1.48c-2.17,0-3.37,1.09-3.35,3s1.31,2.91,3.49,2.9c2,0,3.21-1.15,3.19-3.05S63.31,115.22,61.15,115.23Z"/><path class="cls-1" d="M143.36,122.52c-1.22,0-2.43,0-3.65,0-.67,0-1-.11-1-.88.05-2.3,0-4.61,0-6.92,0-.67.21-.86.86-.85,2.47,0,4.95,0,7.42,0,.6,0,.81.18.81.78s-.28.69-.78.68c-1.63,0-3.27,0-4.9,0-.82,0-1,.3-1,1s.21,1,.93.93c1.46-.05,2.93,0,4.4,0,.49,0,.88,0,.89.69s-.36.8-.93.8c-1.43,0-2.86.06-4.28,0-1.05-.07-1,.49-1,1.22s0,1.2.95,1.15c1.55-.08,3.11,0,4.66,0,.49,0,1.25-.36,1.27.68s-.81.71-1.34.74C145.62,122.56,144.49,122.52,143.36,122.52Z"/><path class="cls-1" d="M103,122.52c-1.29,0-2.59,0-3.89,0-.6,0-.8-.17-.79-.78,0-2.34,0-4.69,0-7,0-.7.26-.84.88-.83,2.43,0,4.86,0,7.29,0,.56,0,.94,0,.93.78s-.41.68-.89.68c-1.55,0-3.1,0-4.65,0-.78,0-1.09.16-1.1,1s.34,1,1,.93c1.42,0,2.84,0,4.27,0,.53,0,.85.06.84.73s-.24.78-.81.77c-1.43,0-2.86,0-4.27,0-1-.06-1.09.35-1.06,1.16s0,1.28,1,1.22c1.63-.1,3.27,0,4.9,0,.54,0,1,0,1,.75s-.52.69-1,.69Z"/><path class="cls-1" d="M159.06,119.79c1.19-.19,2.2-.58,3,.75.55.92,2.93.9,3.86.24a.91.91,0,0,0,.47-.83.86.86,0,0,0-.76-.73c-1.06-.24-2.12-.45-3.18-.7a4.88,4.88,0,0,1-2.28-1,1.74,1.74,0,0,1,0-2.89c1.57-1.32,6-1.29,7.49,0a3,3,0,0,1,.57.66c.33.54.49,1-.48,1-.79,0-1.58.26-2.18-.7-.4-.65-2.8-.63-3.45-.14s-.32.91.23,1.07a29.51,29.51,0,0,0,2.93.66,7.41,7.41,0,0,1,2.47.86,2.09,2.09,0,0,1,.22,3.56c-1.72,1.42-6.3,1.37-8-.09A3,3,0,0,1,159.06,119.79Z"/><path class="cls-1" d="M34,118.14c0-1.13.06-2.26,0-3.39-.07-.94.49-.93,1.08-.84s1.45-.47,1.43.77c0,.82-.38,1.9.16,2.41s1.67.11,2.54.18h.13c2,0,2,0,2-2a1.42,1.42,0,0,1,2.15-1.38c.37.16.31.46.31.73,0,2.35,0,4.69,0,7,0,1.2-.8.78-1.38.82s-1.22.19-1.12-.8c.08-.7,0-1.43,0-2.13s-.23-.87-.87-.84c-1.05,0-2.1.05-3.14,0-.69,0-.88.24-.82.87,0,.46,0,.92,0,1.38,0,1.52-.53,1.9-2,1.55-.5-.11-.43-.43-.43-.74C33.94,120.57,34,119.36,34,118.14Z"/><path class="cls-1" d="M82.52,113.9c1.34,0,2.68,0,4,0,.6,0,.79.18.79.79s-.28.7-.76.67h-.13c-2.74.1-2.74.1-2.74,2.85v2.89a1.42,1.42,0,0,1-2.14,1.42c-.45-.18-.32-.54-.32-.84,0-1.8,0-3.6,0-5.4,0-.71-.21-1-.92-.93a7.62,7.62,0,0,1-1.51,0c-.48-.06-1.24.39-1.26-.68s.69-.73,1.2-.75C80,113.88,81.26,113.9,82.52,113.9Z"/><path class="cls-1" d="M123.58,122.52c-1.17,0-2.35,0-3.52,0-.58,0-.8-.16-.79-.77,0-2.34,0-4.69,0-7,0-1.25.89-.65,1.42-.74s1.14-.11,1.1.84c-.08,1.67,0,3.34,0,5,0,.94.16,1.34,1.2,1.26,1.37-.1,2.76,0,4.14,0,.62,0,.78.22.78.8s-.3.67-.78.66C125.92,122.51,124.75,122.52,123.58,122.52Z"/><path class="cls-1" d="M100.78,93.43q-41.94,0-83.89,0a4.18,4.18,0,0,1-2.66-1C11.59,90.52,11,88.07,11,84.89c.13-22.94.07-45.87.05-68.81a3,3,0,0,1,.79-2c2.11-2.79,4.81-3.41,8.26-3.41q82.32.17,164.65.06a4.15,4.15,0,0,1,2.63,1.07c2.58,1.89,3.18,4.29,3.16,7.44-.14,22.93-.08,45.86-.06,68.8a3.31,3.31,0,0,1-.9,2.19c-2.05,2.65-4.64,3.27-8,3.25C154.7,93.37,127.74,93.43,100.78,93.43ZM145.94,68.9c3.6,4.71,7,9.19,10.47,13.67.32.41.44.69,0,1.17s-.53,1.16.56,1.12c1.63,0,3.27,0,4.9-.07.29,0,.71.19.87-.25a.72.72,0,0,0-.4-.94c-.48-.26-.3-.74-.3-1.13q0-10.31,0-20.62c0-.55-.06-1.09.53-1.43.36-.19.33-.57.27-.89-.1-.48-.52-.34-.83-.34h-4.27c-.27,0-.65-.13-.75.25s-.14.79.29,1c.74.34.66,1,.66,1.61,0,3.94,0,7.88,0,11.82,0,.24.21.58-.24.78l-9.9-13.12a.72.72,0,0,1-.05-.86c.3-.7.29-1.45-.79-1.47-1.76,0-3.52,0-5.28,0-.28,0-.65-.06-.7.33s-.21.83.23,1c.8.33.66,1,.66,1.58v19.5c0,.79.13,1.6-.7,2.13a.68.68,0,0,0-.22.79c.1.42.46.27.72.28H146c.26,0,.63.16.77-.22a.85.85,0,0,0-.22-.92,1.44,1.44,0,0,1-.57-1.06C145.94,78.13,145.94,73.65,145.94,68.9Zm-15.51,5.45c3.33-1.19,4.83-3.73,5.35-6.93a6.48,6.48,0,0,0-5.52-7.54c-4.71-.69-9.45-.2-14.18-.33-.24,0-.53,0-.6.29a.64.64,0,0,0,.3.76c.66.34.61.91.61,1.51,0,6.2,0,12.41,0,18.61a4.93,4.93,0,0,1-.6,3.12c-.44.61-.45,1.35.77,1.28,1.42-.09,2.84,0,4.27,0,1,0,1.31-.56.69-1.31a2.69,2.69,0,0,1-.53-2c0-1.55,0-3.1.07-4.65,0-2.73,0-2.7,2.75-2.6A2.47,2.47,0,0,1,126.26,76c1,2,2.2,3.85,3.34,5.75.37.61.66,1.12,0,1.72-.39.33-.28.89-.17,1.3.15.56.71.27,1.07.28,1.81,0,3.61,0,5.41,0,.32,0,.86.24.93-.31s.24-1.1-.41-1.45a4.2,4.2,0,0,1-1.58-1.58C133.34,79.29,131.9,76.84,130.43,74.35Zm-30.83-15c-2.65,0-5.29,0-7.93,0-.37,0-.89-.28-1.09.27a.9.9,0,0,0,.5,1.16,1.77,1.77,0,0,1,.78,1.82q0,9.43,0,18.87c0,.76-.06,1.4-.79,1.81a1,1,0,0,0-.52,1.16c.17.59.71.31,1.07.31q7.86,0,15.72,0c.54,0,1.11-.09,1.37.58.08.2.24.39.47.35s.27-.37.27-.6c0-1.89,0-3.78,0-5.66,0-.23.12-.54-.19-.65a.55.55,0,0,0-.72.34,1.14,1.14,0,0,1-1.19.7c-3.4,0-6.8,0-10.19,0-.74,0-.92-.25-.89-.93,0-1.39,0-2.77,0-4.16,0-.66.2-.85.85-.84,1.85,0,3.69,0,5.54,0,.7,0,1.44-.14,1.78.77.12.33.46.33.75.26s.23-.41.23-.63q0-2.89,0-5.79c0-.22.08-.53-.28-.59s-.65,0-.72.34c-.19,1.07-1,1-1.73.94s-1.68.06-2.51,0c-1.28-.06-3,.65-3.7-.19s-.13-2.49-.23-3.78c-.06-.87.3-1,1.08-1,3.18,0,6.37,0,9.56,0,.66,0,1.36-.11,1.69.71a.57.57,0,0,0,.62.33c.3,0,.24-.3.24-.49V59c0-.2,0-.46-.26-.48a.48.48,0,0,0-.39.22c-.31.87-1,.69-1.69.69ZM53.78,69c0,2.68.07,5.37-.16,8.05a3.53,3.53,0,0,1-1.54,2.88,6.12,6.12,0,0,1-5.91.26c-1.78-.78-2.38-2.37-2.38-4.23,0-4.9,0-9.81-.06-14.71,0-.54,0-1,.63-1.21a.51.51,0,0,0,.36-.6c-.08-.43-.45-.29-.71-.29H38.1c-.27,0-.63-.11-.7.32a.55.55,0,0,0,.43.67c.72.17.69.7.69,1.27,0,2.68,0,5.37,0,8.05a76.44,76.44,0,0,0,.24,8.29,7.68,7.68,0,0,0,5.94,7,17.49,17.49,0,0,0,8,.06,7.21,7.21,0,0,0,5.87-6,19.55,19.55,0,0,0,.31-3.5c0-4.66,0-9.31,0-14,0-.54-.1-1.11.66-1.28a.47.47,0,0,0,.37-.57c-.06-.36-.36-.3-.59-.3h-6c-.23,0-.53-.1-.64.23a.51.51,0,0,0,.35.7c.82.22.79.82.79,1.48C53.77,64,53.78,66.52,53.78,69Zm10.54,3A18.15,18.15,0,0,0,65,77.11c2.44,8.2,13,11,19,4.94a1.4,1.4,0,0,1,1.19-.48c1.14.07,1.42-.44.89-1.42-.71-1.33-1.43-2.65-2.18-4-.16-.29-.19-.85-.72-.69s-.87.3-.84.93A2.11,2.11,0,0,1,81,78.32a8.73,8.73,0,0,1-3.6,1.41c-2.58.29-5.11.13-6.68-2.38a10.49,10.49,0,0,1-.58-10.11c1.23-2.92,3.68-4.42,6.42-4,2.26.34,4.43.94,5.55,3.32.26.56.82.9,1.22-.06.56-1.35,1.17-2.68,1.76-4s.14-2-1.3-1.88a3,3,0,0,1-1.87-.46c-4.42-2.33-11.68-1.86-15.23,3.32A14.87,14.87,0,0,0,64.32,72Zm112.62,6.21h1.79c2.24,0,2.24,0,2.92,2.16.17.56.32,1.13.53,1.67a1.49,1.49,0,0,1-.2,1.72c-.61.7-.21,1,.61,1,1.43,0,2.86,0,4.28,0,.66,0,1.56.31,1.92-.14.47-.62-.57-.92-.79-1.48-2.65-6.82-5.34-13.62-8-20.44-.33-.84-.58-1.81.61-2.34.39-.18.32-.58.24-.89s-.46-.28-.73-.28h-5.79c-.27,0-.64-.12-.74.27s-.18.75.15.92c1.53.79.93,1.94.52,3-1.46,3.78-2.88,7.58-4.45,11.32-1.3,3.1-2,6.46-4,9.28-.33.48-.14.78.48.78h5c.24,0,.52,0,.63-.28a.53.53,0,0,0-.26-.73c-.68-.41-.59-1-.35-1.64.5-1.24.67-2.86,1.57-3.61S175.52,78.33,176.94,78.23ZM76.31,28.74l1.25-.43c1.39-.5,1.39-.5,1.39,1,0,6.24,0,12.49,0,18.74,0,.88.23,1.1,1.1,1.1q20.5,0,41,0c1,0,1.17-.29,1.17-1.2,0-5.87,0-11.74,0-17.61,0-2.44,0-2.43,2.35-2.07.24,0,.53.34.76-.06a2.05,2.05,0,0,0-1.15-2.71c-7.66-2-15.32-3.92-23-5.9a3,3,0,0,0-1.58,0q-10.44,2.78-20.88,5.5c-2.64.69-2.64.7-2.5,3.45A1.62,1.62,0,0,0,76.31,28.74Zm-52.12,56H32.1c.49,0,1-.15,1.29.49.1.23.25.46.56.36s.23-.41.23-.64c0-1.8,0-3.61,0-5.41,0-.26.17-.63-.22-.75s-.65.13-.78.45c-.23.53-.65.55-1.14.55-3.39,0-6.78,0-10.17,0-.71,0-.9-.18-.9-.9,0-5.82,0-11.65,0-17.47,0-.47,0-.92.56-1.1a.53.53,0,0,0,.35-.71c-.1-.33-.4-.23-.63-.23h-5c-.23,0-.54-.1-.62.25s0,.61.31.72c.76.25.65.86.65,1.44,0,6.49,0,13,0,19.47,0,.9-.07,1.65-.95,2.12a.8.8,0,0,0-.41,1c.12.55.57.38.92.38Z"/><path class="cls-1" d="M124.83,64.19c1,0,2.09,0,3.13,0a3,3,0,0,1,3.21,2.94,2.88,2.88,0,0,1-2.94,3.32c-2.21.13-4.42.1-6.64.18-.66,0-.86-.21-.84-.86,0-1.59,0-3.18,0-4.76,0-.77.29-.9,1-.87,1,0,2.08,0,3.13,0Z"/><path class="cls-1" d="M174.12,74.69l2.79-7.75,2.69,7.18c.18.47,0,.58-.47.58C177.51,74.68,175.89,74.69,174.12,74.69Z"/><path class="cls-1" d="M100.57,48.27c-6.41,0-12.83,0-19.24,0-1,0-1.26-.25-1.25-1.25q.08-9.3,0-18.6A1.24,1.24,0,0,1,81.18,27c6.11-1.73,12.22-3.5,18.32-5.27a3.2,3.2,0,0,1,1.84,0c6.2,1.76,12.39,3.53,18.6,5.25a1.24,1.24,0,0,1,1.1,1.44Q121,37.75,121,47c0,1-.21,1.26-1.23,1.26C113.39,48.25,107,48.27,100.57,48.27Zm-.1-1c2.18,0,4.38-.16,6.54,0,1.87.19,2.79-1,3.95-2a.42.42,0,0,0,.08-.65.38.38,0,0,0-.51-.18c-2.54.87-5.16.3-7.73.47-.61,0-.91-.1-.9-.81,0-2.22,0-4.45,0-6.67,0-.54.07-.85.73-.84,3.52,0,7,0,10.56,0,.33,0,.79,0,.72.45-.22,1.69.62,3.48-.59,5.1-.42.55-.36,1.22.68,1.16.71,0,1.43,0,2.14,0,1,0,1.34-.66.73-1.43a2,2,0,0,1-.43-1.36q0-4.28,0-8.55c0-.44-.09-.89.33-1.28.61-.55.29-.89-.35-1.15-1.28-.53-2.54-1.09-3.79-1.66-.44-.2-1-.46-1.27-.07s.23.85.59,1.1A4.63,4.63,0,0,1,114,33.69c-.09.67-.27.82-.89.82q-5.16,0-10.31,0c-.7,0-1-.17-.93-.91,0-2,0-4,0-6,0-.37-.08-.75.34-1,1-.58,1.85-1.46,3.08-1.59.32,0,.57-.06.57-.48s-.33-.42-.61-.42H96c-.3,0-.72-.11-.73.43s.25.44.58.47a6.64,6.64,0,0,1,2.34,1.11A1.82,1.82,0,0,1,99.24,28c-.08,1.88,0,3.77,0,5.66,0,.65-.17.86-.84.86-3.48,0-7,0-10.44,0-.28,0-.6.09-.79-.24a6.27,6.27,0,0,1,.62-3.92l1.88-1.85a.54.54,0,0,0,.09-.69c-.12-.19-.3,0-.44,0l-4.8,1.85c-.53.2-.68.66-.3.95.68.51.55,1.16.55,1.81q0,4,0,7.92c0,.57.12,1.15-.52,1.57-.38.24-.25.79-.16,1.17s.56.25.86.26c.75,0,1.51,0,2.26,0,1.07,0,1-.55.63-1.18a2.58,2.58,0,0,1-.58-1.47c0-1,0-2.1,0-3.14,0-.7.17-.94.9-.94,3.4,0,6.79,0,10.19,0,.6,0,.9.1.89.81,0,2.22,0,4.45,0,6.67,0,.54-.09.88-.74.84-2.58-.17-5.2.38-7.74-.43-.2-.06-.41-.17-.57,0a.59.59,0,0,0-.09.59,6.4,6.4,0,0,0,3.22,2.11Z"/></g></svg>