<svg xmlns="http://www.w3.org/2000/svg" viewBox="0 0 214.8 124.8"><defs><style>.cls-1{fill:#606161;}</style></defs><title>LOGOS MAXIM GRIS</title><g id="Layer_2" data-name="Layer 2"><path class="cls-1" d="M57.84,59.19l1.64-30.38L34.84,44.29,5,42.87,20.14,66.13,17.53,96,42.73,80.6l29.53,1.75Zm-18.8,3,6.08-9.75.45-.07,2.18,5,3.4,11.84Zm-1.39.34L31,73.27,26.33,55.93ZM31.46,74.34l7.19-.6,3.69,5.93-22.93,14ZM69.61,80,52.4,70l-2.2-7.68,6.64-2.81ZM56.93,31.59,44.61,51.35H38.19L35.1,45.3h0ZM7.61,45,25.1,55.22l2,7.38-6,3.16Z"/><path class="cls-1" d="M84.37,56.67V33.32h3.85l6.4,19.92,6.44-19.92h3.84V56.67h-2V35.53h-.47L95.55,56.67H93.72L86.86,35.53h-.49V56.67Z"/><path class="cls-1" d="M114.18,56.67V33.32h2.16V56.67Z"/><path class="cls-1" d="M127.63,35V56.67h-2.1V33.32h3.52L140.25,53V33.32h2.1V56.67H140Z"/><path class="cls-1" d="M165,54.79v1.88H151.14V33.32h13.39v1.87H153.3v8.18h8.13v1.88H153.3v9.54Z"/><path class="cls-1" d="M178.25,33.32q4.16,0,6.26,1.59a5.59,5.59,0,0,1,2.1,4.75,6.24,6.24,0,0,1-1.17,3.9A6.47,6.47,0,0,1,182,45.74l5.62,10.93h-2.45l-5.43-10.61h-5.76V56.67h-2.17V33.32Zm.3,1.87h-4.62v9h5.27A5.55,5.55,0,0,0,183,43.05a4.22,4.22,0,0,0,1.34-3.35,4,4,0,0,0-1.43-3.4A7.08,7.08,0,0,0,178.55,35.19Z"/><path class="cls-1" d="M90.89,67.64q4.27,0,6.47,1.44a4.8,4.8,0,0,1,2.19,4.29,5.09,5.09,0,0,1-.85,3,6,6,0,0,1-2.73,2v.18a7.35,7.35,0,0,1,3.4,2.25,5.69,5.69,0,0,1,1.08,3.56,5.89,5.89,0,0,1-2.14,5Q96.17,91,91.83,91H83.5V67.64Zm0,1.88h-5v8.27h5.68a6.94,6.94,0,0,0,4.16-1.07,3.6,3.6,0,0,0,1.46-3.07,3.5,3.5,0,0,0-1.54-3.12A8.75,8.75,0,0,0,90.86,69.52Zm.34,10.12H85.84v9.47h6.09a7.24,7.24,0,0,0,4.5-1.22A4.18,4.18,0,0,0,98,84.39a4.09,4.09,0,0,0-1.68-3.58A9,9,0,0,0,91.2,79.64Z"/><path class="cls-1" d="M106.61,79.32a13.3,13.3,0,0,1,2.73-8.77,9.49,9.49,0,0,1,14.37,0,13.4,13.4,0,0,1,2.7,8.77,13.4,13.4,0,0,1-2.7,8.77,9.47,9.47,0,0,1-14.37,0A13.3,13.3,0,0,1,106.61,79.32Zm2.47,0a12.3,12.3,0,0,0,2,7.46,6.82,6.82,0,0,0,10.92,0,12.37,12.37,0,0,0,2-7.46,12.39,12.39,0,0,0-2-7.47,6.86,6.86,0,0,0-10.92,0A12.32,12.32,0,0,0,109.08,79.32Z"/><path class="cls-1" d="M134.59,91V67.64h2.34V89.11h11.33V91Z"/><path class="cls-1" d="M169.92,89.11V91h-15V67.64h14.51v1.88H157.22v8.17H166v1.88h-8.81v9.54Z"/><path class="cls-1" d="M175.32,79.32a13.3,13.3,0,0,1,2.73-8.77,9.49,9.49,0,0,1,14.37,0,13.4,13.4,0,0,1,2.7,8.77,13.4,13.4,0,0,1-2.7,8.77,9.47,9.47,0,0,1-14.37,0A13.3,13.3,0,0,1,175.32,79.32Zm2.47,0a12.3,12.3,0,0,0,2,7.46,6.83,6.83,0,0,0,10.92,0,12.37,12.37,0,0,0,2-7.46,12.39,12.39,0,0,0-2-7.47,6.86,6.86,0,0,0-10.92,0A12.32,12.32,0,0,0,177.79,79.32Z"/><polygon class="cls-1" points="202.47 33.31 199.57 33.31 192.26 56.67 194.36 56.67 196.1 50.95 196.1 50.95 198.1 44.38 198.1 44.38 200.99 34.82 204.67 47.13 200.49 47.13 199.96 49.01 205.22 49.01 207.56 56.67 209.79 56.67 202.47 33.31"/></g></svg>