<svg xmlns="http://www.w3.org/2000/svg" viewBox="0 0 281.35 124.8"><defs><style>.cls-1{fill:#606161;}</style></defs><title>LOGOS MAXIM GRIS</title><g id="Layer_3" data-name="Layer 3"><path class="cls-1" d="M127.54,40.62c0-.68,0-1.36,0-2,0-.85.26-1.9-.15-2.49-.58-.86-1.43.24-2.22.27A2.69,2.69,0,0,1,122.45,35a2.3,2.3,0,0,1,.37-2.83,2.22,2.22,0,0,1,2.93-.51c1.41.83,1.82.28,1.73-1.13,0-.51,0-1,0-1.53-.09-1.17.56-2.88-.31-3.39-1.37-.78-3.2-.34-4.82-.2-.93.08-.82.74-.45,1.38a2.42,2.42,0,0,1-.44,3.36,2.24,2.24,0,0,1-3,.14,2.75,2.75,0,0,1-.9-3.35,3.74,3.74,0,0,1,3.66-2.78,47.23,47.23,0,0,1,4.76,0c1.16.06,1.62-.3,1.57-1.51a28.19,28.19,0,0,1,.12-4.41,3.72,3.72,0,0,1,3.59-3.46,2.5,2.5,0,0,1,2.67,1.4,2.28,2.28,0,0,1-.35,2.69,2.38,2.38,0,0,1-2.92.63c-1.79-.72-1.88-.65-1.91,1.27,0,3.37,0,3.37,3.38,3.36.46,0,.91,0,1.36,0,1.07,0,1.54-.45,1-1.48a2.43,2.43,0,0,1,.59-3.47,2.22,2.22,0,0,1,3,.08c1.19,1,1.13,2.26.64,3.57A3.71,3.71,0,0,1,135,25.29c-1.64.05-3.28.06-4.93,0-1,0-1.27.35-1.26,1.3q0,9,0,18c0,.94.26,1.32,1.24,1.28,1.7-.06,3.41-.07,5.1,0A3.88,3.88,0,0,1,139,50.2a2.39,2.39,0,0,1-1.63,2.18,2.28,2.28,0,0,1-2.52-.53,2.37,2.37,0,0,1-.64-2.64c.7-2,.69-2-1.52-2.05-3.86,0-3.86,0-3.87,3.92v1.53c0,1.23.55,1.54,1.61.94a2.37,2.37,0,0,1,3.32.6,2.23,2.23,0,0,1,.08,2.84,2.72,2.72,0,0,1-3.33.95,3.55,3.55,0,0,1-2.77-3.28c-.14-1.74-.16-3.5-.19-5.26,0-2.23,0-2.22-2.33-2.24a23.39,23.39,0,0,1-4.58-.18,3.83,3.83,0,0,1-3.2-3.83,2.45,2.45,0,0,1,1.51-2.45,2.31,2.31,0,0,1,2.67.45,2.42,2.42,0,0,1,.59,2.81c-.73,1.92-.73,1.92,1.31,1.94,4.08,0,4.08,0,4.08-4.09Z"/><path class="cls-1" d="M154.54,37.36a8,8,0,0,1,2.83-.78,2.48,2.48,0,0,1,2.4,1.58,2.26,2.26,0,0,1-.57,2.64,2.35,2.35,0,0,1-2.66.55c-2-.69-2-.7-2,1.42,0,3.13,0,3.13,3.11,3.13h1.53c1.23,0,1.55-.49.94-1.58a2.38,2.38,0,0,1,.48-3.22,2.24,2.24,0,0,1,3-.18,2.65,2.65,0,0,1,1,3.16A3.7,3.7,0,0,1,161.41,47a32.73,32.73,0,0,1-5.6.14c-.94,0-1.3.3-1.27,1.27.05,1.81,0,3.63,0,5.44-.06,2.41-1.42,4-3.56,4.26a2.58,2.58,0,0,1-2.84-1.41A2.24,2.24,0,0,1,148.5,54a2.27,2.27,0,0,1,3.06-.54c1.25.72,1.79.38,1.72-1,0-.34,0-.68,0-1,0-4.62,0-4.6-4.73-4.27-1.13.08-1.44.5-.89,1.49a2.52,2.52,0,0,1,.35,2.1,2.52,2.52,0,0,1-4.91-1.06,3.87,3.87,0,0,1,3.9-3.74c1.69-.1,3.4-.08,5.09,0,.89,0,1.18-.27,1.18-1.16q0-9.09,0-18.19c0-1-.38-1.27-1.29-1.25-1.7,0-3.41.06-5.1,0a3.85,3.85,0,0,1-3.78-3.66A2.52,2.52,0,0,1,144.56,19a2.23,2.23,0,0,1,2.67.38,2.35,2.35,0,0,1,.62,2.92c-.75,1.69-.6,1.86,1.31,1.88.17,0,.34,0,.51,0,4,0,3.94,0,3.62-4-.09-1.17-.56-1.4-1.52-.84a2.44,2.44,0,0,1-2.43.19,2.32,2.32,0,0,1-1.4-2.79,2.48,2.48,0,0,1,2.81-1.95,4,4,0,0,1,3.78,4.07,34,34,0,0,1,0,3.91c-.08,1.15.4,1.45,1.47,1.4,1.64-.07,3.29-.06,4.93,0a3.84,3.84,0,0,1,3.79,3.65,2.53,2.53,0,0,1-1.42,2.68,2.29,2.29,0,0,1-2.69-.37,2.38,2.38,0,0,1-.62-2.92c.71-1.73.6-1.86-1.32-1.89-4.11-.07-4.12-.07-4.12,4Z"/><path class="cls-1" d="M201.63,94.44h-8.12c.06-.22.06-.39.11-.41,3.12-1,3.23-1.16,3.21-4.52,0-3.18,0-6.35,0-9.52,0-2.57-.16-2.79-2.64-3.58a6.85,6.85,0,0,1-1-.65c2.34,0,4.19,0,6,0,.83,0,.87.81,1.1,1.35,1.7,4,3.38,8,5.07,12,.71-.22.72-.8.9-1.23,1.56-3.64,3.12-7.28,4.61-11a1.69,1.69,0,0,1,1.89-1.25c1.56.07,3.13,0,4.81,0-.15.33-.17.48-.24.51-3,1-3,1-3,4.21s0,6.23,0,9.35c0,2.35.1,3.9,3.05,4.12.15,0,.3.11.27.49h-8c0-.79.61-.59,1-.66a2.81,2.81,0,0,0,2.56-3.06c0-3.67,0-7.34,0-11-.84.12-.84.81-1.06,1.26-1.85,4-3.65,7.92-5.49,11.87-.24.53-.21,1.36-1,1.39s-.9-.9-1.16-1.46c-2-4.35-4-8.72-6-13-.55,0-.56.32-.56.59,0,3.34-.08,6.69,0,10,.08,2.47.46,2.79,2.87,3.49C201.11,93.89,201.42,93.85,201.63,94.44Z"/><path class="cls-1" d="M15.58,79.5c0,3.88-.05,7.76,0,11.63a2.38,2.38,0,0,0,2.12,2.49,2.48,2.48,0,0,1,1.39.74h-8c0-.14,0-.32.07-.34,3.09-1,3.25-1.15,3.27-4.52,0-2.66,0-5.32,0-8,0-3.86,0-3.86-3.24-5.75,1.89,0,3.77,0,5.66,0,.71,0,.77.75,1,1.24,1.72,4.06,3.43,8.13,5.3,12.57l2.6-6.15,2.76-6.57c.24-.57.42-1.16,1.26-1.14,1.74,0,3.49,0,5.25,0,0,.28,0,.45,0,.46-3.12,1.23-3.12,1.23-3.12,4.68,0,2.5,0,5,0,7.48s-.47,5.44,3.33,6H27.15c.15-.26.18-.4.25-.43,3.44-1.29,3.46-1.33,3.44-5,0-3.16,0-6.31,0-9.53-.76.15-.77.76-1,1.17C27.93,84.81,26,89,24.11,93.15c-.2.44-.26,1-.93,1s-.73-.61-.93-1.06L16,79.43Z"/><path class="cls-1" d="M141.23,39.26c1.46-3.46,2.8-6.44,4-9.5a2.2,2.2,0,0,1,2.63-1.69c.94.11,1.9,0,3.07.21-3.18.52-2.64,2.84-2.66,4.86s0,3.85,0,5.78,0,3.73,2.48,4.2h-6c3.16-.59,2.73-3,2.74-5.2s0-4.42,0-6.65c-.8,0-.77.66-.95,1-1.47,3.12-2.89,6.27-4.34,9.4-.23.49-.26,1.28-1,1.23s-.7-.8-.93-1.3c-1.58-3.41-3.16-6.84-4.95-10.73a13.42,13.42,0,0,0-.29,3.92c0,1.08,0,2.15,0,3.23,0,2.15-.28,4.48,2.77,5.06h-6.11c3-.6,2.5-3,2.52-5.06,0-1.93,0-3.85,0-5.78,0-2.84,0-2.88-2.7-4a19.11,19.11,0,0,1,4.49-.17c.74,0,.82.68,1,1.18Z"/><path class="cls-1" d="M112,88.46c.45.82.87,1.66,1.35,2.46A5.88,5.88,0,0,0,117.63,94c2.11.31,3.6-.4,4.15-2a3.67,3.67,0,0,0-1.86-4.6c-1.56-.8-3.23-1.36-4.82-2.1a4.76,4.76,0,0,1-3-4.18c-.3-4.19,3.68-6.86,7.81-5.24.87.34,1.73,1.22,2.56-.18.22-.38.89-.3.94.38a28.57,28.57,0,0,1,.08,5.64c-1-.41-1-1.25-1.25-1.86A5.62,5.62,0,0,0,118,76.26c-1.39-.23-2.69,0-3.34,1.37a3.19,3.19,0,0,0,.71,3.89A8,8,0,0,0,118,83.06c1,.42,2.1.83,3.11,1.33,2.64,1.32,3.58,3,3.2,5.72a5.75,5.75,0,0,1-4.94,4.71,8.21,8.21,0,0,1-4-.34c-.93-.34-1.84-1.24-2.73.17-.26.41-.91.22-.9-.43C111.77,92.33,111.29,90.44,112,88.46Z"/><path class="cls-1" d="M85.31,82.56A13.06,13.06,0,0,1,89.43,82c1.26-.08.58,1.11,1.13,1.66a8,8,0,0,1,3.15-1.8c2.7-.52,4.63.86,4.77,3.61.09,1.75,0,3.51,0,5.27,0,1.51-.33,3.16,2.07,3.46a16.59,16.59,0,0,1-6.63,0C96.42,94,96,92.28,96,90.81s0-3.18,0-4.76C95.92,84,95,82.91,93.38,83a3,3,0,0,0-3.11,3.23c0,1.59,0,3.17,0,4.76s-.24,3,1.86,3.4H86c2.13-.42,1.67-2.07,1.69-3.47s0-3.06,0-4.59S87.88,83.06,85.31,82.56Z"/><path class="cls-1" d="M147.33,83.63a8.22,8.22,0,0,1,3.16-1.79c2.7-.54,4.66.84,4.79,3.59.1,2,.08,4,0,5.95,0,1.4.2,2.5,1.81,3H151c2.13-.42,1.79-2.06,1.78-3.55,0-1.7.05-3.41,0-5.1-.11-1.85-1.09-2.8-2.59-2.72a3,3,0,0,0-3.08,3.07c0,1.64,0,3.28,0,4.93,0,1.42-.31,3,1.8,3.4h-6.12c1.83-.42,1.77-1.76,1.72-3.16-.05-1.65,0-3.29,0-4.93s.16-3.27-2.47-3.74a15.12,15.12,0,0,1,4.19-.6C147.51,81.87,146.88,83,147.33,83.63Z"/><path class="cls-1" d="M74,94.53a6.27,6.27,0,0,1-4.09-6.48A6.35,6.35,0,0,1,82.26,85.8a6.75,6.75,0,0,1-3.85,8.74l-.66-.64c2.37-2,2.87-8.21.86-10.44-1.21-1.35-4.17-1.74-5.11.71a10.56,10.56,0,0,0,.08,8.22c.32.77.68,1.72,1.78,1.83Z"/><path class="cls-1" d="M168.05,92.84a3.15,3.15,0,0,1-3.66,1.94,3,3,0,0,1-2.55-3.16c-.1-2.14-.09-4.3,0-6.44,0-1.25-.07-2.14-1.67-1.88-.39.07-1,.16-1-.55s.63-.63,1-.56c1.5.22,1.71-.62,1.6-1.8-.05-.56,0-1.13,0-1.7,0-.85.56-.85,1.15-.82s1.33-.22,1.34.79c0,.22,0,.45,0,.68.06,2.61.06,2.61,2.59,2.83.49,0,1.16,0,1.09.7s-.69.42-1.11.44c-2.57.14-2.58.13-2.57,2.81,0,1.47,0,2.94,0,4.41C164.41,93.12,165.44,93.86,168.05,92.84Z"/><path class="cls-1" d="M242.81,94.44h-6.58c1.85-.53,1.78-1.89,1.72-3.35-.08-1.63-.08-3.28,0-4.92s0-3.06-2.24-3.63a11.74,11.74,0,0,1,4.13-.56c.19,0,.54.16.55.27.24,2.33,1.14.57,1.73.25a3.37,3.37,0,0,1,2.56-.6A1.63,1.63,0,0,1,246,83.63a1.44,1.44,0,0,1-1.31,1.53c-.9.09-1.6-.26-1.61-1.28s-.58-.76-1.08-.5a2.33,2.33,0,0,0-1.48,2.26c.05,1.69,0,3.39,0,5.09C240.54,93.33,240.54,93.33,242.81,94.44Z"/><path class="cls-1" d="M177.33,93.46a5.14,5.14,0,0,0,.4-6c-.29-.49.16-.39.28-.54a3.32,3.32,0,0,0-.54-4.12,2,2,0,0,0-2.23-.22c-.77.39-.82,1-.64,1.72a1.3,1.3,0,0,1-.82,1.66,1.27,1.27,0,0,1-1.56-.24,1.7,1.7,0,0,1-.07-2.06c.88-1.53,3.62-2.29,6.18-1.73,1.78.39,2.62,1.39,2.69,3.58.06,2-.12,4-.13,6,0,1.64,1,2.34,2.4,1.72a.31.31,0,0,0,.16-.23c0-.06-.14-.18-.2-.17s-.22.15-.21.18c.44,1.21-.5,1.51-1.27,1.78a2.19,2.19,0,0,1-2.62-.66c-.49-.63-.87-1-1.57-.34Z"/><path class="cls-1" d="M263.16,87.62c2-1,2.4-2.22,1.61-4a2.08,2.08,0,0,0-2.5-1.27c-1.08.24-1.43,1-1,2.06a1.1,1.1,0,0,1-.67,1.39,1.34,1.34,0,0,1-1.59,0,1.43,1.43,0,0,1-.44-1.68,2.94,2.94,0,0,1,1.44-1.6,6.69,6.69,0,0,1,5.74-.39A2.78,2.78,0,0,1,267.53,85c0,2,0,4,0,5.94a6.75,6.75,0,0,0,.05,1.35,1.23,1.23,0,0,0,1.14,1.09c.62,0,.82-.45,1-1,.12-.32,0-.8.47-1,.19,1.81-.51,3-1.92,3.39A2.74,2.74,0,0,1,265,93.08a13.73,13.73,0,0,1,.12-3.49C265.13,87.74,265.12,87.74,263.16,87.62Z"/><path class="cls-1" d="M228.39,86.72a4.46,4.46,0,0,0,0-2.68,2,2,0,0,0-2.4-1.67c-1.25.13-1.54.95-1.3,2.09a1.19,1.19,0,0,1-.81,1.49,1.31,1.31,0,0,1-1.57-.27,1.58,1.58,0,0,1-.13-1.9c.84-1.62,3.64-2.45,6.27-1.87,1.85.41,2.64,1.49,2.65,3.76,0,1.93,0,3.86-.08,5.78a2.24,2.24,0,0,0,.58,1.88c.67.47,1.15-.43,1.74-.7a2.25,2.25,0,0,1-2.68,2.2,2.74,2.74,0,0,1-2.24-2.71c.15-1.41.18-2.82.26-4.24Z"/><path class="cls-1" d="M135.21,87.74c-.57-.3-1.22.34-1.78-.14,1.83-1.15,2.12-1.87,1.52-3.64a2.07,2.07,0,0,0-2.46-1.58c-1.19.18-1.58.93-1.18,2.11a1.13,1.13,0,0,1-.71,1.38,1.35,1.35,0,0,1-1.59-.08,1.4,1.4,0,0,1-.45-1.54,2.69,2.69,0,0,1,1.23-1.56,6.61,6.61,0,0,1,6-.53,2.88,2.88,0,0,1,1.81,3c0,2,0,4.08,0,6.11s.47,2.29,2.47,1.68c-.51,1-1.06,1.78-2.17,1.9a2.47,2.47,0,0,1-2.66-1.67C135.43,91.36,135.81,89.55,135.21,87.74Z"/><path class="cls-1" d="M248.56,94.37c1.72-.4,1.77-1.65,1.72-3-.06-1.53,0-3.06,0-4.59,0-1.84.31-3.75-2.44-4.19a12.14,12.14,0,0,1,4.09-.6c1-.06.9.62.91,1.25,0,2.66.06,5.32,0,8-.05,1.44.13,2.6,1.77,3.17Z"/><path class="cls-1" d="M60.11,82.6A12.55,12.55,0,0,1,63.94,82c1-.11,1.26.3,1.25,1.23,0,2.49,0,5,0,7.45,0,1.52-.33,3.16,1.78,3.77h-6c2.09-.5,1.78-2.12,1.75-3.62,0-1.3,0-2.6,0-3.89C62.65,85.08,63.21,83,60.11,82.6Z"/><path class="cls-1" d="M45.66,94.42H39.19c1.9-.49,1.82-1.91,1.77-3.36s-.08-3,0-4.57c.11-1.81,0-3.41-2.7-3.92a13.42,13.42,0,0,1,4.41-.6c.91,0,.75.67.75,1.2,0,2.59,0,5.19,0,7.79C43.44,93.23,43.44,93.23,45.66,94.42Z"/><path class="cls-1" d="M55.32,93.22c.5-2.09.09-2.83-1.93-3.61a19.37,19.37,0,0,1-2.83-1.12c-2.71-1.55-2.7-4.48,0-6.21,0,.46,0,.92,0,1.38-.25,1.66.63,2.5,2.1,3a15.78,15.78,0,0,1,2.68,1c2.64,1.38,2.94,4.16.72,6.23A1.17,1.17,0,0,1,55.32,93.22Z"/><path class="cls-1" d="M177.58,93.72a4.74,4.74,0,0,1-3.44,1.15,2.8,2.8,0,0,1-2.64-1.52,3.17,3.17,0,0,1,.2-3.39c1.17-1.58,2.94-2,4.76-2.18-2.27,1.55-3.22,3.34-2.41,5s2.07,1,3.28.73Z"/><path class="cls-1" d="M225.37,88.47l-.49.69c-1.86,2.61-1.22,4.2,2.19,4.85a4,4,0,0,1-4,.6,2.62,2.62,0,0,1-1.8-2.62,3.16,3.16,0,0,1,1.85-3.17c.71-.32,1.46-.54,2.2-.81Z"/><path class="cls-1" d="M262.19,88.19c-3,3.4-2.1,5.56,1.09,5.84-1.55,1-3.3,1.14-4.44.21a3,3,0,0,1-.87-3.68A4.2,4.2,0,0,1,262.19,88.19Z"/><path class="cls-1" d="M132.15,94.51c-1.41.5-2.73.58-3.74-.78a3.1,3.1,0,0,1-.21-3.5c.86-1.61,2.44-1.93,4.52-2.27-1.89,1.75-3.09,3.33-1.56,5.5Z"/><path class="cls-1" d="M95.18,105a3.43,3.43,0,0,1,3.48,3.56,3.51,3.51,0,1,1-7,0A3.45,3.45,0,0,1,95.18,105Zm2.68,3.58a2.72,2.72,0,0,0-2.83-2.9,2.62,2.62,0,0,0-2.65,2.87,2.9,2.9,0,0,0,2.87,2.94A2.61,2.61,0,0,0,97.86,108.62Z"/><path class="cls-1" d="M74,79.72c.92-1.47,1.82-3,2.78-4.4.55-.84,1.38-1.35,2.24-.52s.18,1.48-.45,2C77.19,77.9,75.75,79,74.34,80Z"/><path class="cls-1" d="M248.93,79.68c.92-1.47,1.82-3,2.78-4.41.52-.78,1.32-1.25,2.13-.55s.27,1.54-.42,2.1c-1.38,1.09-2.8,2.14-4.21,3.2Z"/><path class="cls-1" d="M141.25,56a1.71,1.71,0,0,1,1.81,1.78,1.73,1.73,0,0,1-1.84,2,1.75,1.75,0,0,1-1.86-1.8A1.78,1.78,0,0,1,141.25,56Z"/><path class="cls-1" d="M55.32,93.22a1.17,1.17,0,0,0,.7.66c-1.48,1.3-3.17,1.25-4.93.78-.66-.17-1.27-.81-2,0-.28.29-.71,0-.74-.35a18.47,18.47,0,0,1,0-3.79C49.69,92,50.45,94,52.74,94.2A2.83,2.83,0,0,0,55.32,93.22Z"/><path class="cls-1" d="M143.1,14.42c-.12,1.14-.7,1.85-1.82,1.87a1.73,1.73,0,0,1-1.91-1.89,1.71,1.71,0,0,1,2-1.82A1.76,1.76,0,0,1,143.1,14.42Z"/><path class="cls-1" d="M179.55,108.52c-.92.52-2.84-.33-2.48,1.93.31,2,2,.41,2.58,1.23-2.08,1.11-3.26.5-3.26-1.79v-2.21c0-2.82.53-3.17,3.47-2.25-.67,1-3.06-.73-2.77,1.75C177.3,109,178.89,107.5,179.55,108.52Z"/><path class="cls-1" d="M199.78,105.83c-.2.08-.31.18-.39.15-.81-.21-1.77-.67-2.19.42s.66,1.48,1.44,1.88,1.56,1,1.47,2a1.93,1.93,0,0,1-1.56,1.79,2.13,2.13,0,0,1-2.47-.9c.73-.31,1.12.33,1.69.32s1.24-.11,1.53-.8a1.19,1.19,0,0,0-.61-1.57c-.47-.3-1-.5-1.48-.8a1.67,1.67,0,0,1-.79-1.9,1.69,1.69,0,0,1,1.35-1.36A1.65,1.65,0,0,1,199.78,105.83Z"/><path class="cls-1" d="M50.52,83.66c0-.46,0-.92,0-1.38a4.72,4.72,0,0,1,3.73-.4c.53.12,1.07.62,1.66-.07.35-.4.77-.09.77.41a12.94,12.94,0,0,1,.08,3.25c-.83-.28-.82-1-1.15-1.46C54.19,82,51.59,81.83,50.52,83.66Z"/><path class="cls-1" d="M65.46,76.36c-.15,1-.62,1.76-1.67,1.81a1.67,1.67,0,0,1-.22-3.33C64.65,74.73,65.21,75.36,65.46,76.36Z"/><path class="cls-1" d="M139.54,111.87a6.6,6.6,0,0,1-2.82.12c-.64-.06-.53-.63-.54-1.06,0-1.47.06-2.94,0-4.41-.06-1.14.4-1.54,1.48-1.41.62.07,1.31-.15,2,.26-.67,1.07-2.72-.63-2.71,1.61,0,2,1.73.6,2.38,1.49-.89.54-2.73-.15-2.4,2C137.17,112.42,138.8,110.88,139.54,111.87Z"/><path class="cls-1" d="M42,78.22c-1-.17-1.67-.7-1.63-1.78a1.66,1.66,0,0,1,3.32,0A1.74,1.74,0,0,1,42,78.22Z"/><path class="cls-1" d="M116.86,111.89c-.57-1.18-.26-2.43-.25-3.64,0-1.57.12-3-2.2-2.89h5.13a1.43,1.43,0,0,1-.08.29c-2.08-.19-2.27,1-2.16,2.69a9.45,9.45,0,0,1-.14,3.51l-.12-.12v-5.06h0v5.06A1.07,1.07,0,0,0,116.86,111.89Z"/><path class="cls-1" d="M156.74,105.26a10.63,10.63,0,0,1,.18,4.09c-.06,1.5.17,2.45,2,2.14a4.68,4.68,0,0,1,1.14.18,5.51,5.51,0,0,1-3.23.37c-.42,0-.54-.36-.54-.72v-6.07Z"/><path class="cls-1" d="M74,108.14c.23-1-.14-2,.61-2.9v6.92c-.92-1.19-.3-2.34-.6-3.34A.59.59,0,0,0,74,108.14Z"/><path class="cls-1" d="M70.28,108.82l-.18,3.09-.43,0V105c.93,1,.31,2.17.62,3.1A.57.57,0,0,0,70.28,108.82Z"/><path class="cls-1" d="M132.15,94.51l-1-1.05c2.69.63,3.8-.18,3.93-2.87l.12-2.85c.6,1.81.22,3.62,0,5.43C134.18,93.57,133.53,94.87,132.15,94.51Z"/><path class="cls-1" d="M70.28,108.82a.57.57,0,0,1,0-.68H74a.59.59,0,0,1,0,.68Z"/><path class="cls-1" d="M225.37,88.47l-.06-.46,3.08-1.29.3,1.16C227.46,87.35,226.55,88.66,225.37,88.47Z"/><path class="cls-1" d="M77.75,93.9l.66.64a5.55,5.55,0,0,1-4.38,0l1.33-.31A5,5,0,0,0,77.75,93.9Z"/><path class="cls-1" d="M117.16,111.85c-.08.21-.18.24-.3,0a1.07,1.07,0,0,1,.14-.16h0Z"/><path class="cls-1" d="M117,111.73h0v-5.06h0Z"/></g></svg>