<svg xmlns="http://www.w3.org/2000/svg" viewBox="0 0 214.8 124.8"><defs><style>.cls-1{fill:#606161;}</style></defs><title>LOGOS MAXIM GRIS</title><g id="Layer_4" data-name="Layer 4"><path class="cls-1" d="M158.34,87.06a4.64,4.64,0,0,1-1.53-.26,3.66,3.66,0,0,1-1.27-.72l.91-1.26a1,1,0,0,0,.25.25,3,3,0,0,0,.49.31,3.36,3.36,0,0,0,.66.26,3,3,0,0,0,.79.1,1.48,1.48,0,0,0,1-.25.78.78,0,0,0,.31-.66.55.55,0,0,0-.12-.35,1.12,1.12,0,0,0-.33-.26A3.39,3.39,0,0,0,159,84l-.65-.21a3.19,3.19,0,0,1-1.2-.6,1.3,1.3,0,0,1-.42-1A2.49,2.49,0,0,1,157,81a2.83,2.83,0,0,1,.7-.87,3.35,3.35,0,0,1,1-.55,4,4,0,0,1,1.2-.18,3.34,3.34,0,0,1,1.34.25,3.75,3.75,0,0,1,1,.58l-.9,1.19a.73.73,0,0,0-.2-.2,1.84,1.84,0,0,0-.4-.25,2.93,2.93,0,0,0-.53-.21,2.51,2.51,0,0,0-.62-.08,1.44,1.44,0,0,0-1,.27,1,1,0,0,0-.32.74.54.54,0,0,0,.09.31.78.78,0,0,0,.27.23,2.63,2.63,0,0,0,.44.19l.59.18a5,5,0,0,1,.77.26,2.26,2.26,0,0,1,.59.36,1.28,1.28,0,0,1,.37.49,1.59,1.59,0,0,1,.14.68,2.59,2.59,0,0,1-.28,1.22,2.5,2.5,0,0,1-.72.83,3.18,3.18,0,0,1-1,.47A4.71,4.71,0,0,1,158.34,87.06Z"/><path class="cls-1" d="M162,87l.33-1.52h1.17L163.14,87Z"/><path class="cls-1" d="M168.14,79.45h1.3L170.53,87H169l-.24-1.87h-2.42l-1,1.87h-1.5Zm.62,4.62-.33-3-1.61,3Z"/><path class="cls-1" d="M171.18,87l.33-1.52h1.16L172.34,87Z"/><path class="cls-1" d="M177.82,79.45h2.62a3.19,3.19,0,0,1,1.26.23,2.41,2.41,0,0,1,.89.62,2.53,2.53,0,0,1,.52.92,3.78,3.78,0,0,1,.17,1.14,4.78,4.78,0,0,1-.34,1.84,4.26,4.26,0,0,1-2.34,2.42,4.29,4.29,0,0,1-1.76.35h-2.62Zm1.28,6.24a2.34,2.34,0,0,0,1.1-.25,2.55,2.55,0,0,0,.84-.69,2.79,2.79,0,0,0,.54-1,3.56,3.56,0,0,0,.19-1.18,2.08,2.08,0,0,0-.4-1.34,1.47,1.47,0,0,0-1.21-.51H179l-1.05,5Z"/><path class="cls-1" d="M185.15,79.45H190l-.27,1.28h-3.43L186,82.54h3l-.25,1.19h-3l-.41,2h3.52L188.52,87h-5Z"/><path class="cls-1" d="M195.21,87a2.46,2.46,0,0,1-1.17-.27,2.71,2.71,0,0,1-.86-.72,3.3,3.3,0,0,1-.53-1,3.71,3.71,0,0,1-.19-1.19,3.81,3.81,0,0,1,.15-1,4.17,4.17,0,0,1,.43-1,5,5,0,0,1,.68-.93,4.77,4.77,0,0,1,1.95-1.25,4,4,0,0,1,1.21-.18,2.75,2.75,0,0,1,1.63.45,2.11,2.11,0,0,1,.82,1.19l-1.28.77a1.51,1.51,0,0,0-.22-.53,1.06,1.06,0,0,0-.35-.35,1.77,1.77,0,0,0-.45-.18,1.84,1.84,0,0,0-.47-.06,2.13,2.13,0,0,0-1.08.29,2.73,2.73,0,0,0-.82.73,3.43,3.43,0,0,0-.53,1,3.31,3.31,0,0,0-.18,1,2.68,2.68,0,0,0,.1.76,1.91,1.91,0,0,0,.31.64,1.44,1.44,0,0,0,.49.43,1.35,1.35,0,0,0,.67.16,2.35,2.35,0,0,0,.51-.06,2.29,2.29,0,0,0,.53-.2,2.33,2.33,0,0,0,.5-.36,2.45,2.45,0,0,0,.42-.52l1.05.69a3,3,0,0,1-.64.75,4.55,4.55,0,0,1-.83.54,4.6,4.6,0,0,1-.94.34A3.74,3.74,0,0,1,195.21,87Z"/><path class="cls-1" d="M199,87l.33-1.52h1.16L200.14,87Z"/><path class="cls-1" d="M201.53,79.45h1.54l.66,5.69,3.05-5.69h1.53L204,87h-1.23Z"/><path class="cls-1" d="M206.61,87l.33-1.52h1.16L207.77,87Z"/><rect class="cls-1" x="177.22" y="42.58" width="8.06" height="32.44"/><polygon class="cls-1" points="186.48 59.72 186.48 56.23 204.07 43.04 207.65 43.04 207.65 49.18 198.48 56.6 198.02 60.27 207.65 68.97 207.65 75.02 203.89 75.02 186.48 59.72"/><path class="cls-1" d="M148.35,50h25.48V42.58H143.22S148,47.44,148.35,50Z"/><polygon class="cls-1" points="150.28 55.32 150.28 75.02 173.83 75.02 173.83 68.06 158.53 68.06 158.53 59.9 164.94 59.9 164.94 55.32 150.28 55.32"/><path class="cls-1" d="M7.16,43.18v6.74H21.77l5.08,7.42h5.3l5.23-7.57H51.46a35.78,35.78,0,0,1,7-6.59H34.35l-5.3,6.21L24.2,43.18Z"/><rect class="cls-1" x="9.58" y="54.92" width="7.95" height="20.15"/><rect class="cls-1" x="41.39" y="54.92" width="7.95" height="20.15"/><path class="cls-1" d="M68.62,67c-5.34-.54-9.48-4.19-9.48-8.61s4.14-8.06,9.48-8.6v-8c-9.76.63-17.48,7.83-17.48,16.62s7.72,16,17.48,16.62Z"/><path class="cls-1" d="M71.34,41.74v8c5.34.54,9.48,4.19,9.48,8.6S76.68,66.43,71.34,67v8c9.75-.62,17.48-7.83,17.48-16.62S81.09,42.36,71.34,41.74Z"/><path class="cls-1" d="M138.83,62.2A10.23,10.23,0,0,0,135.35,43v-.1H82.91A61.23,61.23,0,0,1,89.44,50h13.19V74.69h7.55V50h24.48a3.25,3.25,0,0,1,2.58,3.18,3.21,3.21,0,0,1-.63,1.9v-.24H125.17v4.9L140.53,73h4.28V67.11Z"/><rect class="cls-1" x="4.8" y="57.27" width="205.2" height="3.51"/></g></svg>