<svg xmlns="http://www.w3.org/2000/svg" viewBox="0 0 214.8 124.8"><defs><style>.cls-1{fill:#606161;}</style></defs><title>LOGOS MAXIM GRIS</title><g id="Layer_5" data-name="Layer 5"><path class="cls-1" d="M54,84.13s15.61,13.54,16.05,13.4l.66.09s.27.08.09-.47-1-5.44-1-5.44l-4.19-4.78-3.4-4.26-2.66-.26Z"/><path class="cls-1" d="M41.45,91.13A30.94,30.94,0,1,1,72.39,60.19,31,31,0,0,1,41.45,91.13Zm0-44.88A13.94,13.94,0,1,0,55.39,60.19,14,14,0,0,0,41.45,46.25Z"/><path class="cls-1" d="M97.09,42.53A16,16,0,0,0,86,46.74a14.89,14.89,0,0,0-4.52,11c0,7.08,4.94,11.85,12.29,11.85h0a15.9,15.9,0,0,0,11.09-4.17,14.9,14.9,0,0,0,4.41-10.93C109.34,47.12,104.65,42.53,97.09,42.53Zm1.62,18.89a5.59,5.59,0,0,1-3.94,1.72h0c-4.18,0-5.06-3.18-5.06-5.85a9.33,9.33,0,0,1,2.54-6.51A5.76,5.76,0,0,1,96.34,49c3.21,0,4.84,2,4.84,5.92A9.37,9.37,0,0,1,98.71,61.42Z"/><polygon class="cls-1" points="114.81 41.41 109.51 69.14 117.17 69.14 122.47 41.41 114.81 41.41"/><polygon class="cls-1" points="120.56 69.14 128.22 69.14 131.88 49.77 124.22 49.77 120.56 69.14"/><path class="cls-1" d="M128.55,48.91h0c2.56,0,4.34-1.63,4.34-4a3.48,3.48,0,0,0-3.74-3.53,4,4,0,0,0-4.23,4A3.43,3.43,0,0,0,128.55,48.91Z"/><path class="cls-1" d="M146.85,49.77l-3.08,6.91c-.71,1.62-1.24,2.87-1.66,3.89l0-.14c-.14-1-.3-2.06-.46-3.39l-.92-7.27h-7.88l3.94,19.37h7.52l11.45-19.37Z"/><path class="cls-1" d="M166.25,49.33c-7.21,0-12.44,4.93-12.44,11.73,0,6.29,4.95,8.53,9.2,8.53h0c7.49,0,12.52-4.8,12.52-11.93C175.56,52.76,171.73,49.33,166.25,49.33ZM164,63.55h0c-1.44,0-2.19-.89-2.19-2.56,0-1.84.89-5.62,3.64-5.62,1.78,0,2.15,1.43,2.15,2.63C167.58,60.3,166.47,63.55,164,63.55Z"/><path class="cls-1" d="M187.6,56.71c-1.88-.74-2.07-1.17-2.07-1.17,0-.26.59-.44,1.44-.44a11.1,11.1,0,0,1,4.25.83l.49.19,1.88-5.49-.38-.2a13.32,13.32,0,0,0-5.79-1.1c-5.86,0-9.65,2.82-9.65,7.18,0,3.55,3.81,5.07,5.07,5.58s2,.92,2,1.29-.55.43-1.33.43a15.53,15.53,0,0,1-5.66-1.49l-.5-.23-1.86,5.46.29.22c1.39,1,4.07,1.73,7,1.82H183c3.41,0,6.22-.93,7.93-2.61a6.26,6.26,0,0,0,1.87-4.61C192.84,58.71,189.3,57.36,187.6,56.71Z"/><path class="cls-1" d="M99.43,79.29v1.5A3.22,3.22,0,0,1,99,82.48a2.92,2.92,0,0,1-1.25,1.13,4.16,4.16,0,0,1-1.88.4,4.54,4.54,0,0,1-1.9-.37,3,3,0,0,1-1.26-1.06,2.86,2.86,0,0,1-.45-1.6V78.45a3.25,3.25,0,0,1,.44-1.69,3,3,0,0,1,1.25-1.13,4.3,4.3,0,0,1,1.88-.4,4.06,4.06,0,0,1,1.61.32,3.23,3.23,0,0,1,1.24.9,3,3,0,0,1,.67,1.34H97.79a1.65,1.65,0,0,0-.42-.74,2,2,0,0,0-.71-.48,2.41,2.41,0,0,0-.84-.16,2.33,2.33,0,0,0-1.11.26,1.81,1.81,0,0,0-.74.71,2.15,2.15,0,0,0-.26,1.07V81A1.78,1.78,0,0,0,94,82a1.81,1.81,0,0,0,.75.64,2.54,2.54,0,0,0,1.13.24A2.45,2.45,0,0,0,97,82.6a1.7,1.7,0,0,0,.73-.7A2.06,2.06,0,0,0,98,80.82v-.37H95.9V79.29Z"/><path class="cls-1" d="M104.31,75.32h1.22l3.76,8.6h-1.54L104.92,77l-2.83,6.93h-1.54Zm-2,5.57h5.37V82h-5.37Z"/><path class="cls-1" d="M113,84l-.66-.12a5.31,5.31,0,0,1-1.23-.35A5.84,5.84,0,0,1,110,83l.89-.93a4,4,0,0,0,1.28.64,5,5,0,0,0,1.52.22,3.51,3.51,0,0,0,1.72-.35,1.07,1.07,0,0,0,.61-1h0a.94.94,0,0,0-.28-.72,1.8,1.8,0,0,0-.71-.39,10,10,0,0,0-1.13-.23h-.09l-.11,0a13.43,13.43,0,0,1-1.66-.33,2.47,2.47,0,0,1-1.1-.68,2,2,0,0,1-.46-1.41h0a2.17,2.17,0,0,1,.43-1.36,2.58,2.58,0,0,1,1.23-.86,5.73,5.73,0,0,1,2-.3,6.36,6.36,0,0,1,2.12.4,7.28,7.28,0,0,1,1,.5l-.81,1a5,5,0,0,0-1.16-.54,3.85,3.85,0,0,0-1.16-.18,3.14,3.14,0,0,0-1.62.35,1.11,1.11,0,0,0-.58,1h0a.86.86,0,0,0,.3.69,1.85,1.85,0,0,0,.74.38c.3.08.71.16,1.24.25h.26a9.61,9.61,0,0,1,1.54.38,2.36,2.36,0,0,1,1,.71,2,2,0,0,1,.42,1.33h0a2.12,2.12,0,0,1-.44,1.35,2.86,2.86,0,0,1-1.28.85,6.09,6.09,0,0,1-2,.29Z"/><path class="cls-1" d="M121,83.62a2.85,2.85,0,0,1-1.26-1.11,3.09,3.09,0,0,1-.45-1.67V78.41a3.07,3.07,0,0,1,.45-1.67A2.85,2.85,0,0,1,121,75.63a4.25,4.25,0,0,1,1.87-.4,4.3,4.3,0,0,1,1.88.4A3,3,0,0,1,126,76.74a3.07,3.07,0,0,1,.45,1.67v2.43a3.09,3.09,0,0,1-.45,1.67,3,3,0,0,1-1.26,1.11,4.3,4.3,0,0,1-1.88.39A4.25,4.25,0,0,1,121,83.62Zm3-1a1.74,1.74,0,0,0,.74-.68,2,2,0,0,0,.26-1V78.36a2,2,0,0,0-.26-1,1.8,1.8,0,0,0-.74-.68,2.49,2.49,0,0,0-1.12-.24,2.45,2.45,0,0,0-1.11.24,1.74,1.74,0,0,0-.74.68,1.94,1.94,0,0,0-.26,1v2.52a1.89,1.89,0,0,0,.26,1,1.68,1.68,0,0,0,.74.68,2.45,2.45,0,0,0,1.11.24A2.49,2.49,0,0,0,124,82.58Z"/><path class="cls-1" d="M128.73,75.32h1.43v8.6h-1.43Zm.72,7.46h5.83v1.14h-5.83Z"/><path class="cls-1" d="M138.39,83.92H137v-8.6h1.43Z"/><path class="cls-1" d="M140.92,75.32h1.29l5,6.65-.17.16V75.32h1.42v8.6h-1.31l-5-6.55.16-.15v6.7h-1.41Z"/><path class="cls-1" d="M151,75.32h1.43v8.6H151Zm.7,0h5.85v1.15h-5.85Zm0,3.76h5.08v1.15h-5.08Zm0,3.7h5.85v1.14h-5.85Z"/><path class="cls-1" d="M159.55,75.32H161v8.6h-1.44Zm.63,3.82h3.48a1.53,1.53,0,0,0,.72-.17,1.17,1.17,0,0,0,.49-.47,1.42,1.42,0,0,0,.17-.7,1.45,1.45,0,0,0-.17-.7,1.23,1.23,0,0,0-.49-.47,1.53,1.53,0,0,0-.72-.17h-3.48V75.32h3.42a3.57,3.57,0,0,1,1.55.31,2.3,2.3,0,0,1,1.41,2.17,2.33,2.33,0,0,1-.37,1.31,2.55,2.55,0,0,1-1,.87,3.76,3.76,0,0,1-1.55.31h-3.42ZM163,80l1.42-.27L167,83.92h-1.7Z"/><path class="cls-1" d="M171.41,75.32h1.22l3.76,8.6h-1.54L172,77l-2.82,6.93h-1.55Zm-2,5.57h5.36V82h-5.36Z"/><path class="cls-1" d="M180.05,84l-.66-.12a5.31,5.31,0,0,1-1.23-.35,5.84,5.84,0,0,1-1.07-.59L178,82a4.16,4.16,0,0,0,1.28.64,5,5,0,0,0,1.53.22,3.49,3.49,0,0,0,1.71-.35,1.07,1.07,0,0,0,.61-1h0a1,1,0,0,0-.27-.72,1.91,1.91,0,0,0-.72-.39,10,10,0,0,0-1.13-.23h-.09l-.11,0a13.82,13.82,0,0,1-1.66-.33,2.47,2.47,0,0,1-1.1-.68,2,2,0,0,1-.45-1.41h0a2.22,2.22,0,0,1,.42-1.36,2.56,2.56,0,0,1,1.24-.86,5.63,5.63,0,0,1,1.95-.3,5.49,5.49,0,0,1,1.08.11,5.55,5.55,0,0,1,1,.29,6.87,6.87,0,0,1,1,.5l-.82,1a4.85,4.85,0,0,0-1.16-.54,3.85,3.85,0,0,0-1.16-.18,3.19,3.19,0,0,0-1.62.35,1.11,1.11,0,0,0-.58,1h0a.86.86,0,0,0,.3.69,1.92,1.92,0,0,0,.74.38c.3.08.71.16,1.24.25h.26a9.76,9.76,0,0,1,1.55.38,2.33,2.33,0,0,1,1,.71,2,2,0,0,1,.42,1.33h0a2.12,2.12,0,0,1-.44,1.35,2.8,2.8,0,0,1-1.28.85,6,6,0,0,1-2,.29Z"/><path class="cls-1" d="M200.22,55.88h.62L200,54.49a.6.6,0,0,0,.19-.06.83.83,0,0,0,.39-.32,1,1,0,0,0,0-1,1,1,0,0,0-.38-.32,1.48,1.48,0,0,0-.57-.11h-1.49v3.16h.52V54.55h.79Zm-1.59-2.74h1a.53.53,0,0,1,.26.06.39.39,0,0,1,.18.18.51.51,0,0,1,.06.25.53.53,0,0,1-.06.26.37.37,0,0,1-.18.17.55.55,0,0,1-.26.06h-1Z"/><path class="cls-1" d="M199.37,58.19a3.72,3.72,0,1,1,3.72-3.72A3.73,3.73,0,0,1,199.37,58.19Zm0-6.94a3.22,3.22,0,1,0,3.22,3.22A3.22,3.22,0,0,0,199.37,51.25Z"/><path class="cls-1" d="M55.11,77.08c2,2.06,4,4.21,5.85,6.38s3.71,4.42,5.44,6.74a56,56,0,0,1,4.47,7.33c.22-1.59,2.81-23.7-21.83-26.13C51.18,73.21,53.17,75.09,55.11,77.08Z"/><path class="cls-1" d="M65,91.4C63,89.3,61.1,87.15,59.2,85s-3.72-4.4-5.49-6.68-3.29-4.45-4.82-6.8c-.2,1.72-2.32,24.39,21.83,26.12C68.74,95.59,66.89,93.47,65,91.4Z"/></g></svg>