<svg xmlns="http://www.w3.org/2000/svg" viewBox="0 0 341.96 124.8"><defs><style>.cls-1{fill:#606161;}</style></defs><title>LOGOS MAXIM GRIS</title><g id="Layer_3" data-name="Layer 3"><path class="cls-1" d="M79.53,71.31c0,.94,0,1.79,0,2.55s0,1.44,0,2.06a.9.9,0,0,0,.73.92l3.11.78.09,1c-2.23,0-4.45-.07-6.68-.07s-4.58,0-7,.07l-.12-1,3.45-.87c.47-.11.72-.36.76-.74,0-.63,0-1.33,0-2.11s0-1.65,0-2.59V52.12c0-.8,0-1.53,0-2.18s0-1.23,0-1.75a.82.82,0,0,0-.67-.8l-3.48-.92-.06-1c2.42.06,4.77.09,7.07.09l1.73,0,2.55-.09,2.55-.07,1.62,0c4.3,0,7.54.68,9.69,2a6.61,6.61,0,0,1,3.23,5.94A7.68,7.68,0,0,1,96,59a14.81,14.81,0,0,1-6.76,3.37q1.78,2.27,3.29,4.39c1,1.41,1.94,2.7,2.81,3.88s1.65,2.21,2.36,3.11a15.12,15.12,0,0,0,2,2.13,8.12,8.12,0,0,0,1,.69,5.45,5.45,0,0,0,1,.49,10.73,10.73,0,0,0,1.09.33c.38.09.81.19,1.28.28l.08,1a31.45,31.45,0,0,1-3.39.22c-.77,0-1.44,0-2,0a9.66,9.66,0,0,1-1.55-.19,7,7,0,0,1-1.24-.37,6.05,6.05,0,0,1-1.09-.58,9.42,9.42,0,0,1-2.29-2.11c-.75-.93-1.53-2-2.33-3.14s-1.64-2.41-2.52-3.72-1.79-2.61-2.75-3.87c-.29-.38-.53-.68-.73-.9a2.31,2.31,0,0,0-1.48-.78,10.66,10.66,0,0,0-1.2-.1l-2,0Zm0-10c1.14,0,2.2.07,3.17.07q4.86,0,7.11-1.74t2.26-5.45q0-3.6-2.16-5.25c-1.44-1.1-3.69-1.66-6.76-1.66-.52,0-1.08,0-1.68.05s-1.25.08-1.94.14Z"/><path class="cls-1" d="M142.69,61.3q0,8.19-5.51,13.16t-15.4,5q-9.39,0-14.53-4.6c-3.42-3.06-5.14-7.22-5.14-12.45q0-8.19,5.54-13T123,44.67q9.42,0,14.56,4.46T142.69,61.3Zm-34.44.31q0,7.71,3.7,11.81t10.86,4.11q7,0,10.39-3.73t3.35-11.7q0-7.47-3.56-11.49t-11-4q-7.2,0-10.47,3.73T108.25,61.61Z"/><path class="cls-1" d="M176.46,53.7l-1.12.15-1.94-6.2a29.46,29.46,0,0,0-6.42-.76q-7,0-10.94,4T152.12,62q0,7.12,4.27,11.32t11.51,4.2a21.72,21.72,0,0,0,4.77-.52V70.64c0-.78,0-1.5,0-2.15s0-1.24,0-1.77a.8.8,0,0,0-.68-.78L168.47,65l-.06-1c2.41,0,4.73.07,6.94.07s4.43,0,6.52-.07l.14,1-3.06.76c-.44.13-.69.37-.72.73,0,.63,0,1.28,0,1.93s0,1.36,0,2.12v7.57l-.17.17a53.56,53.56,0,0,1-10.52,1.15q-9.85,0-15.68-4.4T146,62.77q0-8.39,6.05-13.12t16.52-4.75a50,50,0,0,1,9.48,1l.17.19Z"/><path class="cls-1" d="M202.29,45l12.45,28.93A7.59,7.59,0,0,0,216,76.1a3.59,3.59,0,0,0,1.64.86l2.63.66.06,1q-3.67-.08-6.81-.07c-2.14,0-4.65,0-7.55.07l-.11-1,2.66-.66a2.13,2.13,0,0,0,.8-.37.76.76,0,0,0,.24-.62,3.88,3.88,0,0,0-.29-1.25c-.2-.51-.48-1.19-.83-2l-2.64-6.34H192.31l-2.95,6.31c-.39.89-.7,1.59-.92,2.11A3.28,3.28,0,0,0,188.1,76a.69.69,0,0,0,.27.6,2.26,2.26,0,0,0,.79.35l2.61.64.06,1.06c-2.66,0-4.82-.07-6.51-.07s-3.56,0-5.63.07l-.14-1,2.83-.73A3,3,0,0,0,184,76a9,9,0,0,0,1.12-1.84L199.4,45.31Zm-8.95,19.24H204.9l-5.47-13Z"/><path class="cls-1" d="M227.14,52.19V71.31c0,1.86,0,3.4.06,4.63a.79.79,0,0,0,.7.81l3.33.83.06,1.06c-2.34,0-4.25-.07-5.75-.07s-3.39,0-5.8.07l-.12-1,3.45-.87c.49-.13.74-.37.76-.74,0-1.27.06-2.84.06-4.7V52.12q0-2.37-.06-3.93a.82.82,0,0,0-.67-.8l-3.48-.92-.06-1c2.42.06,4.32.09,5.73.09q1.26,0,2.55-.09l23.56,24.82V52c0-1.52,0-2.84-.06-4,0-.36-.26-.6-.73-.73l-3.31-.8-.06-1.09c2.4.06,4.33.09,5.81.09s3.41,0,5.75-.09l.11,1-3.53.92a.83.83,0,0,0-.68.8c0,1,0,2.35,0,3.93V78.57l-2.36.19Z"/><path class="cls-1" d="M276,78.57q-3.45,0-7.63.07l-.11-1,4.15-1c.46-.11.71-.35.73-.73,0-1.2.05-2.73.05-4.59V47.65h-9.9l-2.49,6.29-1.13.17-.72-8.47.19-.19q6.9.09,13.21.09h7.49q6.29,0,13.26-.09l.17.19-1.76,8.3-1.13.17-1.79-6.46h-9.9V71.26q0,2.79.06,4.59c0,.38.26.62.72.73l4.15,1,.06,1Q279.3,78.57,276,78.57Z"/><path class="cls-1" d="M333.77,61.3q0,8.19-5.51,13.16t-15.4,5q-9.39,0-14.53-4.6c-3.43-3.06-5.14-7.22-5.14-12.45q0-8.19,5.53-13t15.35-4.76q9.4,0,14.56,4.46T333.77,61.3Zm-34.44.31q0,7.71,3.7,11.81t10.86,4.11q7,0,10.39-3.73t3.35-11.7q0-7.47-3.56-11.49t-11-4q-7.2,0-10.47,3.73T299.33,61.61Z"/><path class="cls-1" d="M38.57,54.46q0-3.59-2.16-5.25t-6.76-1.65c-.52,0-1.08,0-1.68,0s-1.25.08-1.94.15V61.58c1.14.05,2.2.08,3.17.08q4.86,0,7.11-1.74T38.57,54.46Z"/><path class="cls-1" d="M47.08,37.15H19.79A11.6,11.6,0,0,0,8.19,48.76V76a11.6,11.6,0,0,0,11.6,11.61H47.08A11.6,11.6,0,0,0,58.68,76V48.76A11.6,11.6,0,0,0,47.08,37.15Zm1.33,22.74a1.26,1.26,0,1,1-1.26,1.25A1.25,1.25,0,0,1,48.41,59.89Zm-1.2,19.32c-.77,0-1.44,0-2,0A9.66,9.66,0,0,1,43.63,79a7,7,0,0,1-1.24-.36A6.76,6.76,0,0,1,41.3,78,9.69,9.69,0,0,1,39,75.91c-.75-.92-1.53-2-2.33-3.13S35,70.37,34.16,69.05s-1.79-2.61-2.75-3.87c-.29-.38-.53-.68-.73-.9a2.61,2.61,0,0,0-.65-.52,2.89,2.89,0,0,0-.83-.26,9,9,0,0,0-1.2-.09l-2,0v8.21c0,.94,0,1.8,0,2.55s0,1.45,0,2.06a.9.9,0,0,0,.73.92l3.11.79.09,1c-2.23-.05-4.45-.07-6.68-.07s-4.58,0-6.95.07l-.12-1L19.72,77c.47-.11.72-.35.76-.73,0-.63,0-1.34,0-2.12s0-1.65,0-2.59V52.38c0-.8,0-1.53,0-2.17s0-1.23,0-1.76a.83.83,0,0,0-.67-.8l-3.48-.92-.06-1c2.42.06,4.77.1,7.07.1.46,0,1,0,1.73,0l2.55-.08,2.55-.07,1.62,0c4.3,0,7.54.68,9.69,2a6.58,6.58,0,0,1,3.23,5.94,7.66,7.66,0,0,1-2.22,5.71,14.81,14.81,0,0,1-6.76,3.37C36.92,64.16,38,65.63,39,67s1.94,2.7,2.81,3.88,1.65,2.21,2.36,3.11a15.12,15.12,0,0,0,2,2.13,8.24,8.24,0,0,0,.95.7,6.13,6.13,0,0,0,1,.48,8.68,8.68,0,0,0,1.09.33c.38.1.81.19,1.28.29l.08,1A33.86,33.86,0,0,1,47.21,79.21Z"/><circle class="cls-1" cx="123.2" cy="62.48" r="2.59"/><circle class="cls-1" cx="313.48" cy="62.48" r="2.59"/></g></svg>