<svg xmlns="http://www.w3.org/2000/svg" viewBox="0 0 139.41 124.8"><defs><style>.cls-1{fill:#606161;}</style></defs><title>LOGOS MAXIM GRIS</title><g id="Layer_2" data-name="Layer 2"><path class="cls-1" d="M98.63,38H43.68A13.91,13.91,0,0,0,29.77,51.86v52.83A13.91,13.91,0,0,0,43.68,118.6h55a13.91,13.91,0,0,0,13.91-13.91V51.86A13.91,13.91,0,0,0,98.63,38ZM56.29,87.87c.11,4.06-.51,6-1.07,6.35-.06,0-.19.13-.53,0-1.67-.67-1.64-2.16-1.31-6.36,0-.64.1-1.33.15-2.06.35-5.44,1.28-9.18,2-10.35A9.1,9.1,0,0,1,58,73.32v4.75c-1.67,1.07-1.75,1.25-1.83,1.48S56.16,82.6,56.29,87.87Zm5.34-5.39V69.77H77.79V82.48Zm41.22-20.3c-1.64,12.06-10,14.74-10,14.74S102,79,102,86.89s-.15,22.33-.15,22.33H81.57V68a2.75,2.75,0,0,0-2.75-2.75h-18A2.76,2.76,0,0,0,58,68v3.59c-.63.36-3,1.77-3.8,3.11-1,1.64-1.89,6.07-2.21,11-.05.73-.1,1.41-.15,2-.32,4.06-.53,6.75,2.26,7.86a2.25,2.25,0,0,0,.86.18,1.82,1.82,0,0,0,1.08-.34c1.25-.87,1.82-3.43,1.71-7.62-.06-2.55-.14-6.61-.13-7.69l.38-.27v29.35H38.09V58s1.49-10,11.39-10.27,44.14,0,44.14,0S104.48,50.11,102.85,62.18Z"/><path class="cls-1" d="M133.75,25.2l-4.29-2.71a.5.5,0,0,0-.7.18l-2.22,4-.3-.1.52-4.59a.51.51,0,0,0-.25-.49l-3.68-2.15a.51.51,0,0,0-.4,0,.48.48,0,0,0-.3.26L114.9,34.45a.51.51,0,0,0,0,.4.53.53,0,0,0,.29.28l3.22,1.22a.5.5,0,0,0,.6-.21l2.2-3.66.57.11L121.33,37a.51.51,0,0,0,.38.54l2.47.6.12,0a.54.54,0,0,0,.4-.2l9.18-12.08a.48.48,0,0,0-.13-.72Z"/><path class="cls-1" d="M121.1,18.56a.5.5,0,0,0-.3-.3l-5.9-2.14a.5.5,0,0,0-.38,0,.49.49,0,0,0-.26.29l-5.15,15.38a.51.51,0,0,0,.28.62l2.77,1.21a.51.51,0,0,0,.2,0,.5.5,0,0,0,.44-.25L121.06,19A.48.48,0,0,0,121.1,18.56Z"/><path class="cls-1" d="M113,16.52a.51.51,0,0,0-.33-.4l-5.32-1.79a.51.51,0,0,0-.5.1l-2.94,2.67.25-3.42a.49.49,0,0,0-.34-.51l-5-1.67a.48.48,0,0,0-.42.05.49.49,0,0,0-.23.36l-2,16.75a.5.5,0,0,0,.45.56l2.77.24a.49.49,0,0,0,.52-.34l1.81-5.42h0l-.49,5.73a.52.52,0,0,0,.37.53l4,1h.13a.45.45,0,0,0,.29-.1.49.49,0,0,0,.21-.38l.33-9L112.83,17A.5.5,0,0,0,113,16.52Z"/><path class="cls-1" d="M96.38,16.67l.76-5a.51.51,0,0,0-.42-.57l-12.66-2a.44.44,0,0,0-.38.1.47.47,0,0,0-.19.34L83,15.22a.5.5,0,0,0,.41.54l2.51.44-.5,9.85a.5.5,0,0,0,.46.52l4.16.35h0a.5.5,0,0,0,.49-.37l2.55-9.46h2.8A.49.49,0,0,0,96.38,16.67Z"/><path class="cls-1" d="M82,9.1l-9.53-.58a.54.54,0,0,0-.38.14.48.48,0,0,0-.16.36V25.09a.5.5,0,0,0,.5.5h7a.49.49,0,0,0,.49-.43l.41-2.65a.52.52,0,0,0-.12-.41.49.49,0,0,0-.38-.17H77.26V20.85h3.55a.5.5,0,0,0,.5-.5V17.29a.5.5,0,0,0-.5-.5H78.18V15.7l3,0a.52.52,0,0,0,.49-.43l.75-5.55A.5.5,0,0,0,82,9.1Z"/><path class="cls-1" d="M69.54,8.52H64.33a.49.49,0,0,0-.49.45l-.42,3.67-.5,0-1-3.55a.49.49,0,0,0-.51-.37l-5.55.35a.52.52,0,0,0-.36.19.53.53,0,0,0-.1.4l3.07,15.84a.49.49,0,0,0,.49.41h2.48a.5.5,0,0,0,.5-.5v-.22a.52.52,0,0,0,.49.37H65.6a.5.5,0,0,0,.43-.24v.09a.5.5,0,0,0,.5.5h3.64a.48.48,0,0,0,.36-.16.45.45,0,0,0,.14-.36L70,9A.51.51,0,0,0,69.54,8.52Z"/><path class="cls-1" d="M53.47,9.39l-7.81.93a.5.5,0,0,0-.44.49V26.53a.5.5,0,0,0,.5.5h3.87a.5.5,0,0,0,.5-.5V23.21l1.77,0,.66,2.9a.5.5,0,0,0,.53.39l2.88-.24a.54.54,0,0,0,.36-.18.54.54,0,0,0,.1-.39L54,9.81A.52.52,0,0,0,53.47,9.39Zm-2.53,9.32V20H50V18.71Z"/><path class="cls-1" d="M38.78,13.09c-6.55-2.18-9.41,2.33-9.44,2.37a.54.54,0,0,0,0,.56l3.47,4.8a.51.51,0,0,0,.59.17l.3-.12,4.15,9.62a.5.5,0,0,0,.34.29h.11a.52.52,0,0,0,.32-.11c.22-.19,5.35-4.48,5.9-7.11C45,21.17,45.49,15.33,38.78,13.09Zm1.07,10.43-1.66-3.73c.76,0,2,.08,2.19,1.07A4.06,4.06,0,0,1,39.85,23.52Z"/><path class="cls-1" d="M28.67,16a.5.5,0,0,0-.59-.27l-3.76,1A.51.51,0,0,0,24,17a.54.54,0,0,0,0,.43c1,2.09,3.68,7.81,3.95,9.18.05.25,0,.36,0,.37a1.61,1.61,0,0,1-1.05-.16l-4.43-8.63a.5.5,0,0,0-.63-.23l-4,1.56a.45.45,0,0,0-.28.26.53.53,0,0,0,0,.39c.11.25,2.49,6.12,4.89,8.87l.12.14c1.72,2,3.17,3.64,5.45,3.64a6.86,6.86,0,0,0,2.82-.71c3.37-1.53,2.81-5.18,2-6.9Z"/><path class="cls-1" d="M19.32,29.77c.12-1.21.39-6-2.76-8.09-3.54-2.31-11.68,2.78-12,3a.5.5,0,0,0-.16.68l2.86,4.76a.5.5,0,0,0,.43.25h0a8.62,8.62,0,0,1,1.51.12L15,38.25a.51.51,0,0,0,.4.2.56.56,0,0,0,.27-.08l1.5-.95a.38.38,0,0,0,.21.07h.1a.51.51,0,0,0,.4-.49V36.7a.51.51,0,0,0-.26-.44h0a16.44,16.44,0,0,1-1.23-3.62c.35-.07,1.08.13,2.07,1.35,1.24,1.54,1.6,2,1.6,2a.5.5,0,0,0,.68.1l2.66-1.85a.52.52,0,0,0,.21-.38.5.5,0,0,0-.16-.4ZM14,27v.48h-.48V27Z"/></g></svg>