<svg xmlns="http://www.w3.org/2000/svg" viewBox="0 0 136.95 124.8"><defs><style>.cls-1{fill:#606161;}</style></defs><title>LOGOS MAXIM GRIS</title><g id="Layer_2" data-name="Layer 2"><path class="cls-1" d="M123.1,25.41a20.85,20.85,0,0,1-8.3,5.16,16.21,16.21,0,0,1-4.84.81l-.07-.12h0a55.93,55.93,0,0,0-12.45-13c5.31-1.84,9.24-5,11-10.41-1.64,2.52-4.47,3-6.95,4C98.72,13,95.84,13.93,93,15a.71.71,0,0,1-.68-.11A55,55,0,0,0,76,8.48a53.38,53.38,0,0,0-9.6-1.18H62.17A55.07,55.07,0,0,0,9.32,58.68c0,.13.06.3-.12.38v6.55c.25.24,0,.58.2.88l.1-.3a10.59,10.59,0,0,1,8-7.33c4.91-1.19,9,.64,12.6,4a4.06,4.06,0,0,1,1.38,3.24c.24-.16.24-.41.33-.61,1.9-4.28,5.1-6.8,9.86-7,4-.2,7.31,1.46,10.22,4a5.36,5.36,0,0,1,1.46,2.26c.13.36,0,.75.18,1.29.18-.43.29-.71.39-1a11,11,0,0,1,11-7.31A14.41,14.41,0,0,1,74.24,62a4.9,4.9,0,0,1,1.35,2.25c.07.23.1.48.17.84.13-.28.19-.43.25-.58a11,11,0,0,1,10.57-6.84,14.56,14.56,0,0,1,8.87,3.58,5.21,5.21,0,0,1,2.21,4.09,3.35,3.35,0,0,0,.25-.55,10.81,10.81,0,0,1,10.9-7.13,13.41,13.41,0,0,1,10.68,5.88,54.93,54.93,0,0,0-5.79-25.75,14.64,14.64,0,0,0,4.4-2,25.13,25.13,0,0,0,7.2-7.36,17.48,17.48,0,0,0,2.45-5.92v-.37A12.8,12.8,0,0,0,123.1,25.41ZM75,20.79a31.62,31.62,0,0,1,4.5-1.06,5.31,5.31,0,0,1,5,1.57,5,5,0,0,0,1.31,1c.41.22.62.23.78-.3a15.46,15.46,0,0,1,1.25-3.14,8,8,0,0,1,4.32-3.59.69.69,0,0,1,.53,0,13.85,13.85,0,0,1,4.87,3.09,11.74,11.74,0,0,0-3.72,2.75c-1,1-1.17,1.58-.75,2.37a2.54,2.54,0,0,0,2.75,1.19c.16,0,.32-.11.47-.16s0,0,.06,0,0,0-.06,0l.09.09A6.92,6.92,0,0,1,94,27.85c-.15.14-.25.06-.36-.05C91.84,26,89.59,26,87.27,26.25a10.37,10.37,0,0,0-3.35,1,6.88,6.88,0,0,0-2.63,2.06c0-.5,0-1,.11-1.49a3.23,3.23,0,0,0-3-3.72,18.91,18.91,0,0,0-8,.68c-2.12.59-4.24,1.13-6.36,1.7L64,26.4h0A29.24,29.24,0,0,1,75,20.79Zm37.76,17.13a33.24,33.24,0,0,1-4.33.64c-3.07.27-6.17.25-9.24.61a28.1,28.1,0,0,0-4.53.88,1.38,1.38,0,0,0-.49.23,28.53,28.53,0,0,1-2.56,1.84c-.4.27-.34.43,0,.72A12.59,12.59,0,0,0,94,44.53a10,10,0,0,1,2.41,1.81c.25.28.26.4-.07.65-1,.74-2,1.54-3,2.32a13,13,0,0,1-2.22,1.44,2.4,2.4,0,0,1-2.82-.32c-.53-.45-1-.94-1.54-1.42-.31-.3-.63-.6-.92-.92a7.43,7.43,0,0,0-6.24-2.49c-1.31.08-2.63.08-4,.15-.49,0-.67-.11-.65-.65a23.63,23.63,0,0,0,0-3.57,3.29,3.29,0,0,0-1.25-2.31,18.39,18.39,0,0,0-9-3.77c-3.11-.46-6.24-.74-9.38-1A9.09,9.09,0,0,1,49,31.57a31,31,0,0,1-4.12-5.28c.51.28.91.46,1.26.7a16,16,0,0,0,8.31,2.32c3.3.18,6.58-.12,9.87-.18,2.92-.05,5.84-.27,8.76-.21a16.69,16.69,0,0,1,4.45.6A5.72,5.72,0,0,1,81.37,33c.28.66.52,1.34.79,2A8.4,8.4,0,0,0,82.64,36c.44.81.47.8,1.19.25a68,68,0,0,1,6.75-4.54,12.59,12.59,0,0,1,9.49-1.52A45,45,0,0,0,108,31.43c0,.05.09.06.13,0h1.24l.61,0h0v0h0a10.08,10.08,0,0,1,2.49,4.16,18.27,18.27,0,0,0,.6,1.81C113.21,37.74,113.1,37.85,112.75,37.92Z"/><path class="cls-1" d="M72.29,110.68a14.09,14.09,0,0,1,1.55-9.18A11.39,11.39,0,0,1,76.78,98h-.33A19.48,19.48,0,0,1,68,97.45a6.92,6.92,0,0,1-5.24-4.9,10.57,10.57,0,0,1-.4-3.17,24.62,24.62,0,0,1,.32-3.19,5.94,5.94,0,0,1-1.12,1.37,16,16,0,0,1-6.7,3.37c-1.17.3-1.72-.24-1.68-1.43a19.58,19.58,0,0,0,.13-2c-.13-2.14-1.45-3.34-3.46-3.07a5.93,5.93,0,0,0-4.4,2.86,4.1,4.1,0,0,0,.73,5.38,7.42,7.42,0,0,0,2.75,1.61,17,17,0,0,0,7,.57c.7-.06,1.4-.14,2.18-.23-.56.82-.62,1.73-1.25,2.55a11.21,11.21,0,0,1,4.32-.89,14.57,14.57,0,0,1,9.79,4,5.13,5.13,0,0,1,.86,1,3.47,3.47,0,0,1-.39,4.81,14.83,14.83,0,0,1-7,3.63c-1.19.32-1.73-.25-1.67-1.5,0-.63.17-1.26.14-1.9-.1-2.23-1.5-3.46-3.66-3.09a5.72,5.72,0,0,0-4.46,3.32,3.9,3.9,0,0,0,.65,4.53A6.84,6.84,0,0,0,58.29,113a14.59,14.59,0,0,0,5.28.77c1.35,0,2.68-.29,4-.27-.12.29-.28.58-.37.88a4,4,0,0,1-2.85,3,.52.52,0,0,0,0,.13,54.2,54.2,0,0,0,12.16-1.34c-.4-.27-.67-.47-1-.65A6.66,6.66,0,0,1,72.29,110.68Z"/><path class="cls-1" d="M43.78,68.18a2.83,2.83,0,0,0-3.23-2.79,5.85,5.85,0,0,0-4.8,3.24,4,4,0,0,0,.66,4.74A6.89,6.89,0,0,0,38.78,75a13.67,13.67,0,0,0,6.29.91c1.16-.07,2.32-.19,3.55-.29-.6.78-.58,1.78-1.2,2.5a14.71,14.71,0,0,1,3-.66c4-.39,7.33,1.1,10.35,3.51a5.16,5.16,0,0,1,2.21,4A13,13,0,0,1,67,79a21.25,21.25,0,0,1-8.92-.7,6.86,6.86,0,0,1-5-5.5,13.29,13.29,0,0,1,0-4.91,1.08,1.08,0,0,0,0-.67A5.9,5.9,0,0,1,51.61,69a17.53,17.53,0,0,1-6,2.92c-1.46.41-2.12-.23-1.91-1.74A9.29,9.29,0,0,0,43.78,68.18Z"/><path class="cls-1" d="M87.87,67.28a2.75,2.75,0,0,0-3-2.66,5.74,5.74,0,0,0-4.91,3.13,4,4,0,0,0,.68,4.94,7.41,7.41,0,0,0,3,1.81,16.93,16.93,0,0,0,6.9.55c.72,0,1.44-.14,2.25-.22-.59.87-.63,1.86-1.25,2.61a13,13,0,0,1,4.18-.82,13.56,13.56,0,0,1,4.28.66c-3.67-3-3.42-6.74-2.68-10.75a13.72,13.72,0,0,1-.94,1.12,15.42,15.42,0,0,1-6.84,3.5c-1.23.32-1.85-.33-1.69-1.59A9.66,9.66,0,0,0,87.87,67.28Z"/><path class="cls-1" d="M21.8,68.43a2.86,2.86,0,0,0-3.3-2.92A5.72,5.72,0,0,0,13.66,69a3.89,3.89,0,0,0,.78,4.56,7.08,7.08,0,0,0,3,1.85,14.68,14.68,0,0,0,5.35.68c1.27-.05,2.53-.2,3.8-.33l-1,2.49a.85.85,0,0,0,.23,0,11.84,11.84,0,0,1,7.86,0c.09,0,.19.09.26,0-3.72-2.76-3.48-6.6-2.8-10.66a7.17,7.17,0,0,1-1.16,1.34A16.42,16.42,0,0,1,23.38,72c-1.19.3-1.76-.23-1.71-1.46A19.09,19.09,0,0,0,21.8,68.43Z"/><path class="cls-1" d="M25.5,78.2h0l0,0h0Z"/><path class="cls-1" d="M76.8,90.3c-1,.08-1.45-.33-1.44-1.35a6.37,6.37,0,0,1,.07-1,5.41,5.41,0,0,0,0-1.84,2.71,2.71,0,0,0-2.87-2.42,5.62,5.62,0,0,0-4.15,1.89A4.31,4.31,0,0,0,69,92.5a8.66,8.66,0,0,0,1,.64,12.23,12.23,0,0,0,5.32,1.12,36.23,36.23,0,0,0,4.93-.36c-.63.83-.63,1.9-1.33,2.67a12.47,12.47,0,0,1,8.4-.32c-3.54-2.89-3.27-6.64-2.66-10.49a7.8,7.8,0,0,1-2,1.94,19.52,19.52,0,0,1-5.4,2.5A2.45,2.45,0,0,1,76.8,90.3Z"/><path class="cls-1" d="M31.14,89.43A9.1,9.1,0,0,0,31.2,87a2.74,2.74,0,0,0-3-2.54,5.73,5.73,0,0,0-4.73,2.71,4.11,4.11,0,0,0,.71,5.62,7.47,7.47,0,0,0,2.42,1.45A14.28,14.28,0,0,0,32.1,95c1.3,0,2.58-.2,3.95-.32-.56.86-.6,1.85-1.24,2.61A12.56,12.56,0,0,1,43.09,97c-3.48-2.92-3.27-6.64-2.53-10.61a5.85,5.85,0,0,1-1,1.29A16,16,0,0,1,32.87,91C31.6,91.37,31,90.75,31.14,89.43Z"/><path class="cls-1" d="M108.31,95.17a6.48,6.48,0,0,1-1.92-4.72,21.62,21.62,0,0,1,.36-4.69,12.54,12.54,0,0,1-1.86,1.78,20.15,20.15,0,0,1-5.5,2.57,2.64,2.64,0,0,1-.79.1,1.07,1.07,0,0,1-1.21-1.16,5,5,0,0,1,0-.86,7.08,7.08,0,0,0,0-1.78,2.75,2.75,0,0,0-3.16-2.77,5.66,5.66,0,0,0-5,3.5,3.88,3.88,0,0,0,.86,4.54,6.91,6.91,0,0,0,2.68,1.71,14.24,14.24,0,0,0,5.46.77c1.31,0,2.6-.22,4-.33-.58.79-.59,1.72-1.25,2.51l1.16-.34a10.73,10.73,0,0,1,5.54-.11c.38.09.45-.14.62-.33S108.43,95.28,108.31,95.17Z"/><path class="cls-1" d="M106.75,85.73v0l0,0Z"/><path class="cls-1" d="M66,67.82a3,3,0,0,0-3.8-3,6.69,6.69,0,0,0-.77.2,6,6,0,0,0-3.07,2.28,4.14,4.14,0,0,0,.73,5.89,9.94,9.94,0,0,0,6.2,2.09,31.59,31.59,0,0,0,5.54-.34c-.59.8-.61,1.79-1.21,2.55a12.73,12.73,0,0,1,8.18-.14c-3.49-2.77-3.33-6.45-2.68-10.4a7.47,7.47,0,0,1-1.4,1.45,18.91,18.91,0,0,1-6,2.88,1.93,1.93,0,0,1-.42.06c-1,.08-1.5-.34-1.47-1.39C65.9,69.21,66.05,68.52,66,67.82Z"/><path class="cls-1" d="M116.7,68.9a21,21,0,0,1-4.42,2c-2,.65-2.69.06-2.38-2a5.71,5.71,0,0,0-.06-2.14,2.67,2.67,0,0,0-2.48-2.21,5.86,5.86,0,0,0-5.79,4.1,3.9,3.9,0,0,0,.7,3.5,6.34,6.34,0,0,0,2.57,1.95,13.16,13.16,0,0,0,5.48,1c1.47,0,2.93-.2,4.48-.36-.62.79-.61,1.8-1.34,2.61a11.82,11.82,0,0,1,4-.86c.29,0,.3-.21.35-.41.26-1.18.55-2.36.78-3.55a41.48,41.48,0,0,0,.74-6.1A7.61,7.61,0,0,1,116.7,68.9Z"/><path class="cls-1" d="M87.65,109a6.84,6.84,0,0,1-.89.23c-1.14.21-1.68-.26-1.64-1.42a11.16,11.16,0,0,0,0-2.77,2.77,2.77,0,0,0-2.85-2.38,5.06,5.06,0,0,0-1.81.34,6,6,0,0,0-2.89,2.21,4.16,4.16,0,0,0,.72,5.9,10.1,10.1,0,0,0,5.57,2.06,5.67,5.67,0,0,0,3.38-.61c1.9-.93,3.78-1.88,5.6-3,.53-.33,1-.51.85-1.41a7.62,7.62,0,0,1,.28-2.83A15.91,15.91,0,0,1,87.65,109Z"/><path class="cls-1" d="M49.81,110.44a15.17,15.17,0,0,1,.29-4.68,14.82,14.82,0,0,1-7.28,4.17c-1.42.43-2-.14-1.91-1.62A9.09,9.09,0,0,0,41,106a2.77,2.77,0,0,0-3.14-2.54,5.92,5.92,0,0,0-5,3.47.62.62,0,0,0,.26.94,62,62,0,0,0,8.86,5,5.13,5.13,0,0,0,3.65.6,2.05,2.05,0,0,1,.42,0c-.1.15-.13.22-.18.28-.31.41-.28.64.28.79,1.15.32,2.27.72,3.41,1.06,1.4.4,2.81.73,4.36,1a1.34,1.34,0,0,0-.23-.19A6.94,6.94,0,0,1,49.81,110.44Z"/><path class="cls-1" d="M22.65,79.86c-3.87.25-7.71.24-11.23-1.92a55.28,55.28,0,0,0,6.87,14.79C17.65,87.67,18.89,83.34,22.65,79.86Z"/><path class="cls-1" d="M21.77,97.43a55.7,55.7,0,0,0,6.9,7,12.07,12.07,0,0,1,3.83-5.68A18.6,18.6,0,0,1,21.77,97.43Z"/><path class="cls-1" d="M40.24,79.81a22.59,22.59,0,0,1-4.41-.75c2.36,1.44,4.81,2.77,5.18,6a13,13,0,0,1,3.68-5.36A20.75,20.75,0,0,1,40.24,79.81Z"/><path class="cls-1" d="M89.12,78.86a22.52,22.52,0,0,1-9-.5,13.88,13.88,0,0,1,3.49,2.52,4.6,4.6,0,0,1,1.54,3.57A12.84,12.84,0,0,1,89.12,78.86Z"/><path class="cls-1" d="M102.38,78.36a17.45,17.45,0,0,1,2.83,2,5.43,5.43,0,0,1,2,3.78c.18,0,.15-.22.2-.34a12,12,0,0,1,3.3-4.69c.07-.06.17-.11.14-.22A23,23,0,0,1,102.38,78.36Z"/><polygon class="cls-1" points="107.25 84.12 107.25 84.11 107.24 84.12 107.25 84.12"/><path class="cls-1" d="M46.17,98.34A15,15,0,0,1,49,100.45a5.38,5.38,0,0,1,1.71,3.23,12.69,12.69,0,0,1,3.54-5A24.9,24.9,0,0,1,46.17,98.34Z"/><path class="cls-1" d="M90.28,97.5a17.34,17.34,0,0,1,2.79,2,6,6,0,0,1,1.85,3A12.22,12.22,0,0,1,98.32,98,24.19,24.19,0,0,1,90.28,97.5Z"/><path class="cls-1" d="M111.22,87.2a3.93,3.93,0,0,0,.38,3.64,53.6,53.6,0,0,0,3.62-7.13A5.05,5.05,0,0,0,111.22,87.2Z"/><path class="cls-1" d="M107.25,84.12h0l0,.09Z"/><path class="cls-1" d="M106.79,85.57l0,.16C106.84,85.69,106.89,85.65,106.79,85.57Z"/><path class="cls-1" d="M106.75,85.73h0Z"/><path class="cls-1" d="M109.36,31.43h-.75A.75.75,0,0,0,109.36,31.43Z"/></g></svg>