<svg xmlns="http://www.w3.org/2000/svg" viewBox="0 0 214.8 124.8"><defs><style>.cls-1,.cls-2{fill:#606161;}.cls-1{fill-rule:evenodd;}</style></defs><title>LOGOS MAXIM GRIS</title><g id="Layer_5" data-name="Layer 5"><path class="cls-1" d="M58.74,68.63v1.56c-17.42-.27-46.35.26-52.26-.77,6.33-1.59,34.84-.53,52.26-.79Z"/><path class="cls-1" d="M67,68.63v1.56c17.41-.27,46.35.26,52.26-.77-6.32-1.59-34.85-.53-52.26-.79Z"/><path class="cls-2" d="M25,63.87a6.75,6.75,0,0,0,3.78-1A4.79,4.79,0,0,0,31,58.76c0-2.26-1-3.91-3.91-6.07l-.66-.49c-2-1.5-2.53-2.34-2.53-3.44,0-1.43,1.07-2.45,2.83-2.45a3,3,0,0,1,2.6,1.17A2.9,2.9,0,0,1,30,49.05c0,.29.07.42.23.42s.27-.19.27-.71c0-1.86.09-2.55.09-2.85s-.11-.25-.33-.29a11.74,11.74,0,0,0-3.16-.41c-3.32,0-5.5,1.88-5.5,4.51,0,1.93.9,3.59,3.52,5.64l1.1.85c2,1.56,2.32,2.64,2.32,3.81a2.88,2.88,0,0,1-3.19,2.71,3.27,3.27,0,0,1-3.4-2.39,5.09,5.09,0,0,1-.22-1.23c0-.19,0-.39-.23-.39s-.26.26-.29.61-.11,1.81-.11,3.13c0,.52.07.63.46.79a8,8,0,0,0,3.46.62Zm18-6.54a.25.25,0,0,1,.25.18l1.9,5a.38.38,0,0,1-.23.54c-.23,0-.33.08-.33.22s.29.16.72.19c1.91,0,3.64,0,4.5,0s1.1,0,1.1-.23-.13-.19-.32-.19a5.43,5.43,0,0,1-1-.1c-.51-.14-1.2-.47-2.1-2.6-1.52-3.62-5.33-13.33-5.9-14.63-.24-.55-.39-.76-.59-.76s-.39.26-.68.95l-6,15c-.48,1.18-.93,2-2,2.14-.19,0-.52,0-.74,0s-.29.05-.29.19.15.23.45.23c1.24,0,2.56-.07,2.82-.07.73,0,1.76.07,2.52.07.26,0,.4,0,.4-.23s-.07-.19-.36-.19h-.34c-.75,0-1-.31-1-.75a4.9,4.9,0,0,1,.36-1.44l1.29-3.41c0-.14.1-.19.21-.19Zm-4.83-1.19c-.09,0-.12-.07-.09-.16l2.18-5.86c0-.1.07-.22.15-.22s.1.12.11.22L42.61,56c0,.06,0,.13-.12.13Zm18.21-3.68c0-3.62,0-4.29.06-5.05s.23-1.24.88-1.36a7.26,7.26,0,0,1,.92-.07c.29,0,.42-.06.42-.22s-.16-.21-.49-.21c-.94,0-2.67.07-3.25.07s-2.13-.07-3.26-.07c-.35,0-.52,0-.52.21s.15.22.41.22a4.12,4.12,0,0,1,.79.07c.78.16,1,.55,1,1.36s.05,1.43.05,5.05v4.18c0,2.19,0,4.07-.12,5.07-.1.69-.22,1.21-.69,1.31a3.81,3.81,0,0,1-.85.1c-.29,0-.39.07-.39.19s.17.23.47.23c.48,0,1.1,0,1.65,0s1.1,0,1.36,0c1,0,1.83,0,2.9.07s2.31.07,4,.07c1.24,0,1.36-.11,1.5-.63a19.15,19.15,0,0,0,.36-2.74c0-.29,0-.41-.2-.41s-.23.15-.26.36a2.89,2.89,0,0,1-.62,1.43c-.59.64-1.51.66-2.78.66-1.85,0-2.47-.17-2.88-.53s-.5-2.06-.5-5.11Zm9.93,3.46c0,3.46.91,5.22,2.12,6.32a7.68,7.68,0,0,0,5.28,1.63,7.14,7.14,0,0,0,4.95-1.7c2-1.72,2.27-4.53,2.27-7.17V52.46c0-3.62,0-4.29,0-5.05s.24-1.24.88-1.36a4.36,4.36,0,0,1,.69-.07c.29,0,.43-.06.43-.22s-.17-.21-.5-.21c-.92,0-2.42.07-2.71.07,0,0-1.52-.07-2.74-.07-.34,0-.5,0-.5.21s.15.22.41.22a5.31,5.31,0,0,1,.85.07c.79.16,1,.55,1,1.36s0,1.43,0,5.05v3c0,2.45-.06,4.59-1.37,5.9a4.7,4.7,0,0,1-3.29,1.29,4.42,4.42,0,0,1-3-1c-1.16-.94-1.86-2.4-1.86-5.85V52.46c0-3.62,0-4.29.06-5.05s.23-1.24.88-1.36a4.13,4.13,0,0,1,.68-.07c.24,0,.39-.06.39-.22s-.17-.21-.52-.21c-.87,0-2.37.07-2.93.07-.72,0-2.22-.07-3.48-.07-.36,0-.53,0-.53.21s.14.22.4.22a5.64,5.64,0,0,1,.94.07c.78.16,1,.55,1,1.36s0,1.43,0,5.05Zm21.3.72c0,2.19,0,4.07-.12,5.07-.1.69-.21,1.21-.69,1.31a3.52,3.52,0,0,1-.85.1c-.29,0-.38.07-.38.19s.16.23.48.23,1.08,0,1.63,0,1.1,0,1.37,0c.59,0,1.43.07,2.32.14s1.88.15,2.74.15c4.41,0,6.89-1.69,8-2.8a9.45,9.45,0,0,0,2.6-6.65,8.48,8.48,0,0,0-2.31-6.05c-2.6-2.71-6.57-2.71-9.54-2.71-1.43,0-2.93.07-3.67.07s-2.16-.07-3.43-.07c-.36,0-.52,0-.52.21s.15.22.41.22a5.56,5.56,0,0,1,.92.07c.79.16,1,.55,1,1.36s0,1.43,0,5.05Zm3-4.57c0-1.88,0-3.94,0-4.76a.44.44,0,0,1,.29-.48,6.65,6.65,0,0,1,1.54-.16,9.47,9.47,0,0,1,6.77,2.38,8.1,8.1,0,0,1,2.28,6c0,2.45-.48,4.62-2,5.93A7.66,7.66,0,0,1,94,62.63c-1.88,0-2.82-.49-3.12-.94a5.38,5.38,0,0,1-.26-1.81c0-.45,0-2.29,0-4.81Z"/><path class="cls-2" d="M29,79.79a1.69,1.69,0,0,0,.9-.24,1.14,1.14,0,0,0,.52-1c0-.54-.23-.92-.92-1.43L29.34,77c-.47-.36-.61-.55-.61-.81s.26-.58.68-.58a.72.72,0,0,1,.62.27.7.7,0,0,1,.13.37c0,.07,0,.1.06.1s.07,0,.07-.16c0-.44,0-.61,0-.68s0,0-.08-.07a2.77,2.77,0,0,0-.75-.09c-.79,0-1.3.44-1.3,1.07,0,.45.21.84.83,1.33l.26.21c.47.36.55.62.55.89a.69.69,0,0,1-.76.65.78.78,0,0,1-.8-.56,2,2,0,0,1-.05-.29c0-.06,0-.1-.06-.1s-.06.06-.06.14,0,.44,0,.74c0,.12,0,.15.11.19a1.85,1.85,0,0,0,.82.16Zm2.77-1.72c0,.52,0,1,0,1.19s-.05.29-.16.32a1,1,0,0,1-.21,0c-.07,0-.08,0-.08,0s0,0,.11,0h1.29l1,0c.22,0,.27,0,.31-.14A4.67,4.67,0,0,0,34,79c0-.06,0-.1,0-.1s-.06,0-.07.08c0,.24-.11.35-.25.42a1.6,1.6,0,0,1-.53.06c-.58,0-.66-.08-.68-.46,0-.17,0-.69,0-.88v-.44s0-.07,0-.07l.81,0c.21,0,.29.1.32.22a1.41,1.41,0,0,1,0,.2.06.06,0,0,0,.06,0s0,0,0-.11,0-.26,0-.37a3.8,3.8,0,0,1,0-.41,0,0,0,0,0,0,0s-.06,0-.1.07-.13.06-.27.08h-.9s0,0,0-.07V75.8s0-.07,0-.07.71,0,.8,0c.29,0,.35.09.37.2a.45.45,0,0,1,0,.21s0,.07.06.07,0,0,0-.06,0-.31,0-.37c0-.26,0-.33,0-.37s0-.06,0-.06l-.1,0a1,1,0,0,1-.25,0H31.32c-.08,0-.13,0-.13,0s0,.06.1.06h.22c.18,0,.22.14.23.33s0,.33,0,1.2Zm5.58,1.72a3.21,3.21,0,0,0,1-.14.2.2,0,0,0,.15-.17,4.61,4.61,0,0,0,.12-.74s0-.08-.05-.08-.06,0-.07.11a1.3,1.3,0,0,1-.19.37c-.22.26-.54.31-1,.31a1.9,1.9,0,0,1-1.78-2A1.87,1.87,0,0,1,36,76a1.48,1.48,0,0,1,1.07-.36,1.67,1.67,0,0,1,1.15.36.93.93,0,0,1,.22.51c0,.08,0,.12,0,.12s.06,0,.07-.12,0-.43,0-.61,0-.27,0-.31,0-.07-.08-.07l-.57-.1a6.2,6.2,0,0,0-.82,0,2.41,2.41,0,0,0-1.77.59,2.12,2.12,0,0,0-.66,1.55,2.09,2.09,0,0,0,.7,1.67,2.81,2.81,0,0,0,1.92.62Zm2.51-1.72c0,.52,0,1,0,1.19s-.06.29-.17.32a.94.94,0,0,1-.2,0c-.07,0-.09,0-.09,0s0,0,.11,0H41c.07,0,.11,0,.11,0s0,0-.07,0l-.28,0c-.16,0-.19-.15-.22-.32s0-.67,0-1.19V78s0,0,.05,0H41a.21.21,0,0,1,.11,0c.07.09.33.47.55.79a2.69,2.69,0,0,0,.79.82,1,1,0,0,0,.59.11h.53c.07,0,.11,0,.11,0s0,0-.07,0l-.15,0a1.18,1.18,0,0,1-.63-.39c-.33-.34-.73-.85-1.22-1.47a1.62,1.62,0,0,0,.74-1.26,1,1,0,0,0-.39-.79,1.84,1.84,0,0,0-1-.23H39.39c-.08,0-.12,0-.12,0s0,.06.09.06h.22c.2,0,.24.14.25.33s0,.33,0,1.2Zm.66-2.27s0-.07.05-.07a.75.75,0,0,1,.3,0,.91.91,0,0,1,.87,1,1,1,0,0,1-.34.85.57.57,0,0,1-.4.1,2.82,2.82,0,0,1-.43-.05.11.11,0,0,1-.05-.11Zm3.6,2.27c0,.52,0,1,0,1.19s0,.29-.16.32a1.18,1.18,0,0,1-.21,0c-.07,0-.1,0-.1,0s0,0,.13,0H45l1,0c.22,0,.26,0,.3-.14a4.72,4.72,0,0,0,.08-.63c0-.06,0-.1,0-.1s0,0-.06.08c0,.24-.11.35-.26.42a1.54,1.54,0,0,1-.52.06c-.58,0-.68-.08-.69-.46V77.63s0-.07,0-.07l.8,0c.21,0,.29.1.32.22s0,.14,0,.2,0,0,0,0,.06,0,.06-.11a3.15,3.15,0,0,1,0-.37,2.88,2.88,0,0,1,0-.41s0,0,0,0,0,0-.09.07-.13.06-.27.08h-.91s0,0,0-.07V75.8s0-.07,0-.07.72,0,.81,0c.28,0,.33.09.37.2a.69.69,0,0,1,0,.21s0,.07,0,.07.05,0,.05-.06a2.4,2.4,0,0,0,0-.37c0-.26,0-.33,0-.37s0-.06,0-.06-.05,0-.08,0a1.08,1.08,0,0,1-.25,0H43.65c-.08,0-.12,0-.12,0s0,.06.1.06h.22c.19,0,.23.14.24.33s0,.33,0,1.2Zm4.32,0c0,.52,0,1,0,1.19s-.06.29-.17.32a.94.94,0,0,1-.2,0c-.07,0-.1,0-.1,0s0,0,.13,0h1.59c.06,0,.11,0,.11,0s0,0-.1,0l-.28,0c-.17,0-.21-.15-.22-.3s0-.69,0-1.21V75.76h.71c.5,0,.65.16.66.32l0,0c0,.1,0,.12,0,.12s0,0,.06-.09,0-.54,0-.66,0-.11,0-.11l-.15,0-.4,0H47.82l-.56,0a1.94,1.94,0,0,1-.25-.07s0,0-.07.11-.11.55-.11.64,0,.1,0,.1.06,0,.07-.07a.93.93,0,0,1,.1-.21c.08-.12.22-.15.55-.16h.84Zm4.4.16s0,0,.05,0l.46,1.2a.09.09,0,0,1-.06.12c-.05,0-.08,0-.08.06s.07,0,.18,0h1.06c.2,0,.26,0,.26,0s0,0-.07,0l-.23,0c-.13,0-.29-.11-.51-.62-.36-.85-1.27-3.16-1.39-3.47-.07-.13-.1-.17-.15-.17s-.09.05-.15.22l-1.42,3.54c-.11.28-.22.47-.48.51l-.18,0s-.07,0-.07,0,0,0,.11,0h1.27c.06,0,.09,0,.09,0s0,0-.08,0h-.08c-.18,0-.24-.09-.24-.18a1,1,0,0,1,.09-.35l.31-.81a0,0,0,0,1,0,0Zm-1.16-.29s0,0,0,0l.52-1.39s0,0,0,0,0,0,0,0l.51,1.4s0,0,0,0Zm3.62.13c0,.52,0,1,0,1.19s0,.29-.16.32a.79.79,0,0,1-.21,0s-.08,0-.08,0,0,0,.11,0h1.51c.08,0,.13,0,.13,0s0,0-.07,0l-.28,0c-.18,0-.2-.15-.22-.32s0-.67,0-1.19V78s0,0,0,0h.49a.21.21,0,0,1,.1,0l.56.79a2.68,2.68,0,0,0,.77.82,1.07,1.07,0,0,0,.61.11h.53c.07,0,.11,0,.11,0s0,0-.07,0l-.16,0a1.15,1.15,0,0,1-.63-.39c-.33-.34-.72-.85-1.23-1.47a1.56,1.56,0,0,0,.74-1.26,1,1,0,0,0-.38-.79,1.82,1.82,0,0,0-1-.23H54.85c-.08,0-.12,0-.12,0s0,.06.09.06H55c.18,0,.24.14.24.33s0,.33,0,1.2ZM56,75.8s0-.07,0-.07a.75.75,0,0,1,.3,0,.9.9,0,0,1,.86,1,1,1,0,0,1-.33.85.6.6,0,0,1-.41.1,2.68,2.68,0,0,1-.42-.05s0,0,0-.11Zm3.59,2.27c0,.55,0,1,0,1.22s-.06.26-.17.29a1,1,0,0,1-.21,0c-.06,0-.08,0-.08,0s0,0,.11,0h1.6s.09,0,.09,0,0,0-.08,0l-.29,0c-.16,0-.2-.13-.22-.28s0-.68,0-1.23v-1c0-.87,0-1,0-1.2s0-.3.2-.33h.17s.1,0,.1-.06-.05,0-.13,0H59.2c-.1,0-.14,0-.14,0s0,.06.08.06a.71.71,0,0,1,.21,0c.12,0,.18.13.19.32s0,.33,0,1.2Zm1.13-3.87s0-.07-.08-.07a.24.24,0,0,0-.11.06,8.07,8.07,0,0,0-.91.7s0,0,0,.08a0,0,0,0,0,0,0l.1,0a3.32,3.32,0,0,1,1-.33.55.55,0,0,1,.19,0s0,0,0-.1-.13-.25-.17-.33Zm2.9,4s.06,0,.07,0l.44,1.2c0,.07,0,.11,0,.12s-.08,0-.08.06.07,0,.16,0h1.08c.2,0,.26,0,.26,0s0,0-.09,0l-.23,0c-.11,0-.27-.11-.49-.62-.36-.85-1.27-3.16-1.41-3.47,0-.13-.08-.17-.13-.17s-.1.05-.16.22l-1.41,3.54c-.13.28-.24.47-.48.51l-.18,0s-.07,0-.07,0,0,0,.11,0h1.26c.06,0,.1,0,.1,0s0,0-.08,0h-.1c-.16,0-.22-.09-.22-.18a1.27,1.27,0,0,1,.08-.35l.31-.81s0,0,0,0Zm-1.14-.29s0,0,0,0l.51-1.39s0,0,0,0,0,0,0,0l.5,1.4s0,0,0,0Zm5.31.13c0,.52,0,1,0,1.19s0,.29-.16.32a1.18,1.18,0,0,1-.21,0c-.07,0-.08,0-.08,0s0,0,.11,0h.71l.55,0c.21,0,.44,0,.65,0a2.43,2.43,0,0,0,1.88-.68,2.19,2.19,0,0,0,.62-1.56,2,2,0,0,0-.55-1.45A3,3,0,0,0,69,75.44H67.31c-.1,0-.12,0-.12,0s0,.06.08.06h.22c.19,0,.23.14.25.33s0,.33,0,1.2Zm.7-1.09c0-.44,0-.94,0-1.13a.11.11,0,0,1,.06-.11,1.19,1.19,0,0,1,.36,0,2.28,2.28,0,0,1,1.61.56A2,2,0,0,1,71,77.68a1.77,1.77,0,0,1-.47,1.4,1.85,1.85,0,0,1-1.31.4c-.44,0-.66-.11-.73-.22a1,1,0,0,1-.06-.42c0-.11,0-.55,0-1.15ZM73,78.07c0,.52,0,1,0,1.19s-.06.29-.17.32a.94.94,0,0,1-.2,0c-.07,0-.08,0-.08,0s0,0,.11,0H73.9l1,0c.22,0,.28,0,.31-.14a3.51,3.51,0,0,0,.08-.63c0-.06,0-.1,0-.1s-.06,0-.07.08c0,.24-.11.35-.25.42a1.6,1.6,0,0,1-.53.06c-.58,0-.66-.08-.68-.46,0-.17,0-.69,0-.88v-.44s0-.07,0-.07l.8,0c.22,0,.29.1.31.22a.49.49,0,0,1,0,.2s0,0,.06,0,0,0,0-.11,0-.26,0-.37c0-.29,0-.38,0-.41s0,0,0,0-.06,0-.1.07a.51.51,0,0,1-.27.08h-.9s0,0,0-.07V75.8s0-.07,0-.07.7,0,.8,0c.28,0,.34.09.37.2a.63.63,0,0,1,0,.21s0,.07.06.07,0,0,0-.06,0-.31,0-.37a2.71,2.71,0,0,1,0-.37s0-.06,0-.06-.06,0-.09,0a1,1,0,0,1-.25,0H72.54c-.1,0-.13,0-.13,0s0,.06.1.06h.22c.18,0,.22.14.23.33s0,.33,0,1.2Zm5.77,1.72a1.63,1.63,0,0,0,.9-.24,1.13,1.13,0,0,0,.53-1c0-.54-.24-.92-.93-1.43L79.1,77c-.47-.36-.61-.55-.61-.81s.26-.58.68-.58a.68.68,0,0,1,.61.27.65.65,0,0,1,.16.37c0,.07,0,.1,0,.1s.06,0,.06-.16c0-.44,0-.61,0-.68s0,0-.08-.07a2.68,2.68,0,0,0-.74-.09c-.79,0-1.31.44-1.31,1.07,0,.45.21.84.84,1.33L79,78c.47.36.56.62.56.89a.68.68,0,0,1-.75.65A.79.79,0,0,1,78,79a2,2,0,0,1,0-.29c0-.06,0-.1-.06-.1s0,.06-.06.14,0,.44,0,.74c0,.12,0,.15.11.19a1.91,1.91,0,0,0,.82.16ZM83,78.23s.06,0,.06,0l.45,1.2a.08.08,0,0,1,0,.12c-.07,0-.08,0-.08.06s.07,0,.16,0h1.08c.2,0,.26,0,.26,0s0,0-.09,0l-.23,0c-.12,0-.29-.11-.49-.62-.36-.85-1.27-3.16-1.41-3.47,0-.13-.08-.17-.14-.17s-.09.05-.16.22L81,79.08c-.11.28-.22.47-.48.51l-.16,0c-.06,0-.07,0-.07,0s0,0,.11,0h1.26c.06,0,.1,0,.1,0s0,0-.1,0h-.08c-.18,0-.22-.09-.22-.18a1.27,1.27,0,0,1,.08-.35l.31-.81s0,0,0,0Zm-1.14-.29s0,0,0,0l.53-1.39s0,0,0,0,0,0,0,0l.51,1.4s0,0,0,0Zm4.32-.86c0-.87,0-1,0-1.2s.06-.3.21-.33h.22c.07,0,.1,0,.1-.06s0,0-.11,0H85.07c-.09,0-.13,0-.13,0s0,.06.1.06h.18c.19,0,.23.14.24.33s0,.33,0,1.2v1c0,.52,0,1,0,1.19s0,.29-.16.32a1.18,1.18,0,0,1-.21,0c-.07,0-.1,0-.1,0s0,0,.13,0H86.5l1,0c.29,0,.31,0,.36-.16a5.23,5.23,0,0,0,.08-.64c0-.07,0-.1-.06-.1s0,0,0,.08a.85.85,0,0,1-.15.35c-.14.15-.36.15-.66.15s-.58,0-.68-.12-.12-.5-.12-1.21Z"/><path class="cls-2" d="M88.53,77.9a1.61,1.61,0,0,0,1.76,1.89,1.68,1.68,0,0,0,1.17-.42A2.1,2.1,0,0,0,92,77.68v-.6c0-.87,0-1,0-1.2s.06-.3.21-.33h.16c.07,0,.1,0,.1-.06s0,0-.11,0H91.08c-.09,0-.13,0-.13,0s0,.06.1.06h.2c.2,0,.24.14.25.33v1.9a2,2,0,0,1-.31,1.4,1.17,1.17,0,0,1-.79.3,1.07,1.07,0,0,1-.7-.23c-.27-.22-.44-.57-.44-1.39v-2c0-.21.07-.3.22-.33h.17s.08,0,.08-.06,0,0-.13,0H88.09c-.08,0-.12,0-.12,0s0,.06.09.06h.22c.18,0,.22.14.24.33s0,.33,0,1.2Zm5,.17c0,.52,0,1,0,1.19s0,.29-.15.32a1.05,1.05,0,0,1-.21,0c-.07,0-.09,0-.09,0s0,0,.11,0h.71l.55,0c.22,0,.46,0,.66,0A2.53,2.53,0,0,0,97,79.08a2.23,2.23,0,0,0,.62-1.56,2.11,2.11,0,0,0-.55-1.45,3,3,0,0,0-2.27-.63H93.14c-.08,0-.13,0-.13,0s0,.06.1.06h.22c.19,0,.23.14.25.33v2.19ZM94.29,77V75.85a.12.12,0,0,1,.07-.11,1.22,1.22,0,0,1,.37,0,2.24,2.24,0,0,1,1.6.56,1.94,1.94,0,0,1,.55,1.42,1.74,1.74,0,0,1-.48,1.4,1.8,1.8,0,0,1-1.29.4c-.46,0-.68-.11-.75-.22a1.27,1.27,0,0,1,0-.42c0-.11,0-.55,0-1.15Z"/><path class="cls-1" d="M199,70.83c-.1.69.11.8.59.33.66-.8.76-3.4.84-5.66.16-1.43.67-2.37.66-3.36a13.63,13.63,0,0,0-.69-4c-.14-.26-.77-.31-.65.14a14.21,14.21,0,0,1,.62,3.59,6.71,6.71,0,0,1-.45,2.41,9.2,9.2,0,0,0-.11,1.89c0,.38-.28.4-.29,0a32.72,32.72,0,0,0-.11-4.58,5.49,5.49,0,0,0-1.07-2,5.7,5.7,0,0,1-.57-1.47c-.05-.28-.09-.54-.16-.82l-.21-.85c-.16-.3-.77,0-.7.4l.55,2.41a8.79,8.79,0,0,0,1.23,1.94,2.05,2.05,0,0,1,.3,1.07c.08.88.09,2.16.09,3.6l.33,2.34a8.12,8.12,0,0,1-.2,2.57Z"/><path class="cls-1" d="M198.24,57.56c0-.21.08-.26.32-.18a.75.75,0,0,1,.45.43.39.39,0,0,1,.07.26c0,.14,0,.27,0,.41a.88.88,0,0,0,.08.39l.25.71c0,.32,0,.43-.22.32a3.76,3.76,0,0,1-1-2.34Z"/><path class="cls-1" d="M196.09,68.45c.11.79.55.62.55,0a30.5,30.5,0,0,0,0-4.18,9,9,0,0,0-.7-3.38c-.23-.43-.64-.46-.44.09a10.19,10.19,0,0,1,.59,3.37c0,.4-.2.39-.27.07a6.51,6.51,0,0,1-.45-2.06c-.05-.31-.09-.59-.17-.9a2.46,2.46,0,0,0-.67-1.4,6.26,6.26,0,0,1-1.75-2.67c-.32-.86-.81-.33-.67.25a6.84,6.84,0,0,0,.75,1.62,2.71,2.71,0,0,0,.35.4A6.75,6.75,0,0,1,194.35,61a4,4,0,0,1,.37,1.62,12.2,12.2,0,0,0,1,3.4A3.92,3.92,0,0,1,196,67l.12,1.41Z"/><path class="cls-1" d="M193.33,57.34a3.64,3.64,0,0,0,.94,1.84c.2.21.38.07.24-.23a4.32,4.32,0,0,1-.55-1.57c-.07-.41-.71-.36-.63,0Z"/><path class="cls-1" d="M197.73,69.31c0,.74.46.81.58.06a22,22,0,0,0,.22-4.55,16.12,16.12,0,0,0-.17-2.49,2.74,2.74,0,0,0-.39-1.06c-.25-.34-.42-.42-.4.09a19.33,19.33,0,0,1,.35,3.15c0,.37-.15.45-.27.15a.79.79,0,0,1-.06-.29l-.26-2.45a4.44,4.44,0,0,0-.78-2A8.7,8.7,0,0,1,195,56.91c-.14-.67-.47-.63-.57-.15a.88.88,0,0,0,0,.43,6.55,6.55,0,0,0,1.37,2.93,2.23,2.23,0,0,1,.68,1.46,27.66,27.66,0,0,0,.92,4.73,3.26,3.26,0,0,1,.21,1.1c0,.92,0,1.46,0,1.9Z"/><path class="cls-1" d="M195.49,57c-.06-.41.4-.4.65-.07a.61.61,0,0,1,.12.34l.08.64a4.6,4.6,0,0,0,.39,1.07,1,1,0,0,1,.09.29c0,.18,0,.27-.12.26s-.12-.06-.19-.12a4.63,4.63,0,0,1-1-2.41Z"/><path class="cls-1" d="M189.75,58.59a3.64,3.64,0,0,0,1.49,1.76,4.07,4.07,0,0,1,1.94,2.13c.45,1.3.63,2.15.81,2.73a1,1,0,0,0,.18.41c.15.19.34.16.44-.07a1.22,1.22,0,0,0,0-.38c0-2.4-.26-3.87-.86-4.63-.23-.24-.34-.22-.35,0a.4.4,0,0,0,.07.3,4.28,4.28,0,0,1,.31,1.1c0,.36-.14.35-.25.05a3,3,0,0,0-1.16-1.64,7.42,7.42,0,0,1-1.71-1.5,4.47,4.47,0,0,1-.41-.73c0-.08-.07-.19-.17-.23s-.34.18-.4.38a.41.41,0,0,0,0,.29Z"/><path class="cls-1" d="M190.77,57.9a3.22,3.22,0,0,0,1.17,1.38c.24.12.39,0,.19-.28a3.42,3.42,0,0,1-.75-1.19c-.17-.33-.76-.15-.61.09Z"/><path class="cls-1" d="M188.05,58.84c-.29-.22-.54.08-.36.45a1.92,1.92,0,0,0,.68.76,2.7,2.7,0,0,0,.49.23,7.09,7.09,0,0,1,.67.32,1.57,1.57,0,0,1,.58.44c.76.82,1.28,1.94,2.09,3,.2.27.55.14.48-.26a16.25,16.25,0,0,0-1-2.68c-.11-.27-.74-.52-.63-.14l.24.48c0,.1-.06.18-.11.07a5,5,0,0,0-.64-.85,1.06,1.06,0,0,0-.4-.3,8.13,8.13,0,0,0-.86-.39,7.13,7.13,0,0,1-.61-.42l-.67-.69Z"/><path class="cls-1" d="M188.48,63.3c2.62,2,5,3.94,7.2,5.81.33.25.73.55,1.32,1a.46.46,0,0,1,.07.63,2.38,2.38,0,0,1-3,.31c-1.94-1.77-3.88-3.5-5.8-5.24a.62.62,0,0,1-.24-.34c-.11-.34,0-.6.32-.37,2,1.76,3.93,3.52,5.86,5.2a1.6,1.6,0,0,0,1.94.33c.12-.08.16-.18.12-.26a1.32,1.32,0,0,0-.33-.29l-.65-.52-6.87-5.63c-.4-.26-.35-.95.07-.6Z"/><path class="cls-1" d="M188.48,64.23,195.2,70c.26.26.11.5-.25.34a4.75,4.75,0,0,1-.86-.59l-5.68-5c-.37-.38-.22-.76.07-.55Z"/><path class="cls-1" d="M188.12,65.85l4.39,4.07.61.55c.2.2-.08.49-.48.25a5.37,5.37,0,0,1-.6-.49c-1.39-1.31-2.77-2.63-4.1-4-.29-.32-.11-.61.18-.39Z"/><path class="cls-1" d="M188.56,58.89a2,2,0,0,0,.75.65c.22.08.31,0,.27-.19a1.42,1.42,0,0,0-.21-.36.94.94,0,0,0-.37-.29c-.39-.15-.55,0-.44.19Z"/><path class="cls-1" d="M187.9,66.51c1.41,1.35,2.56,2.6,4.4,4.32a1.33,1.33,0,0,0,1.22.37c.14,0,.24-.08.36,0a.23.23,0,0,1,.06.41,1.53,1.53,0,0,1-1.3.14,2.69,2.69,0,0,1-.91-.7c-1.26-1.24-2.5-2.53-3.74-3.81l-.26-.29a.51.51,0,0,1-.15-.23c-.05-.24.08-.4.32-.2Z"/><path class="cls-1" d="M187.36,66.82a6.26,6.26,0,0,1,.85.93c1,1.13,2,2.2,3,3.11.12.15.14.23,0,.27s-.52-.17-.88-.52c-1-1.1-2.07-2.25-3.12-3.52-.13-.19,0-.41.18-.27Z"/><path class="cls-1" d="M187.1,67.35q1.65,1.91,3.4,3.67a1.92,1.92,0,0,0,1.22.51c.25,0,.4.35.15.43a1.57,1.57,0,0,1-1.15-.21,4.38,4.38,0,0,1-1.08-.89c-1.16-1.27-2-2.15-2.57-2.85a.9.9,0,0,1-.2-.27c-.15-.33-.06-.68.23-.39Z"/><path class="cls-1" d="M187.46,68.82c.82,1,1.7,2.23,2.32,2.36.29,0,.4.38.13.42a1.48,1.48,0,0,1-1.17-.55l-1.56-2c-.12-.25.1-.44.28-.27Z"/><path class="cls-1" d="M170.54,51.6c.33.36.07.58-.38.57a2.15,2.15,0,0,1-2-1.46,1.15,1.15,0,0,1,.13-1,3.27,3.27,0,0,1,.74-.89c.15-.15.33-.15.65-.1s.3-.11.15-.26-.19-.18-.06-.3a.88.88,0,0,1,1,0l1.05.38a2.08,2.08,0,0,0,1.2,0,1.92,1.92,0,0,1,1.89.62c.15.22.17.39,0,.56a5.76,5.76,0,0,1-1.52.9,1.18,1.18,0,0,1-.68,0c-.22,0-.27-.16-.15-.34a1.94,1.94,0,0,1,.85-.34.68.68,0,0,0,.37-.18.22.22,0,0,0,0-.36,1.21,1.21,0,0,0-1.35.29,1.49,1.49,0,0,1-.77.19c-1.25-.31-2.09.81-1.07,1.73Zm-1.4-.61c.25.23.38.19.4-.21a1.26,1.26,0,0,1,1-1.38,3.41,3.41,0,0,1,1,0c.19,0,.23-.11.11-.29a1.05,1.05,0,0,0-.95-.23,2.06,2.06,0,0,0-.64.47.38.38,0,0,1-.46,0,.56.56,0,0,0-.46,0c-.56.47-.64,1-.05,1.67Z"/><path class="cls-1" d="M170.23,47.58c-.24-.2-.24-.46.11-.77a5.68,5.68,0,0,1,.83-.6,2.08,2.08,0,0,0,1-1.44c0-.26,0-.39.16-.25s.37.55.25,1.07a1.44,1.44,0,0,1-.44.69,1.76,1.76,0,0,0-.44.83,1.54,1.54,0,0,1-.3.7.36.36,0,0,1-.39.11,2.74,2.74,0,0,1-.75-.34Z"/><path class="cls-1" d="M171.75,47.78c-.19.18-.05.41.18.3a.94.94,0,0,0,.51-1.34c-.17-.25-.41-.13-.36.08a.77.77,0,0,1-.33,1Z"/><path class="cls-1" d="M172.84,45.28c0,.27.19.3.31.09s-.06-.71.33-.46c.16.09.27,0,.31-.14a1.32,1.32,0,0,0-.37-1c-.13-.13-.21-.09-.28.08a5.37,5.37,0,0,0-.3,1.39Z"/><path class="cls-1" d="M172.67,46c-.26.19,0,.54.31.47,2.25-.94,2.09-2.7,1.48-3.25-.14-.06-.19-.05-.16.1a2,2,0,0,1-.39,1.8c-.58.46-1.14.8-1.24.88Z"/><path class="cls-1" d="M173.06,46.61a19.48,19.48,0,0,0,2-1.17c.17-.11.29-.09.39,0a.92.92,0,0,1-.4,1.17,6.16,6.16,0,0,1-2.08,1c-.18,0-.22-.08-.12-.26s1.18-.4,1.79-.92c.23-.21.19-.4-.17-.29a15.43,15.43,0,0,1-1.39.77c-.26.07-.35-.14-.05-.36Z"/><path class="cls-1" d="M172.37,48.18c.18-.12,1.4-.43,2.43-.89.53-.15.95,0,1,.24.1.57-.31.93-1.19,1.09-.39,0-.53-.18-.32-.33l.66-.37a.15.15,0,0,0,0-.25.53.53,0,0,0-.35,0,8.56,8.56,0,0,0-1.5.72,1.08,1.08,0,0,1-.83,0c-.17-.06-.1-.15.05-.23Z"/><path class="cls-1" d="M175.29,44.89a1.79,1.79,0,0,1,.44-.52c.2-.23.44,0,.35.19a1.58,1.58,0,0,1-.35.44c-.11.17-.1.28,0,.36l.15.12c.08.1.18.09.27,0a1.78,1.78,0,0,0-.09-2.14c-.15-.15-.28-.1-.37.08l-.16.48a1,1,0,0,1-.24.44.59.59,0,0,0-.25.58c0,.14.15.14.25,0Z"/><path class="cls-1" d="M176.92,44.67a7.51,7.51,0,0,1,2.09.87,1.09,1.09,0,0,0,.83.05c.08-.08.16,0,.16.07a2.13,2.13,0,0,1-.57,1.09.25.25,0,0,1-.32,0,15.85,15.85,0,0,0-2.48-1.33.12.12,0,0,1,.07-.23,16.84,16.84,0,0,1,2.13,1c.24.09.38,0,.35-.13A.28.28,0,0,0,179,46a8.21,8.21,0,0,0-2.18-1c-.19-.07-.17-.26.07-.24Z"/><path class="cls-1" d="M175.44,48.84c-.11-.19-.39-.05-.35.22a1.26,1.26,0,0,0,.4.74.45.45,0,0,0,.72-.29,1,1,0,0,0-.35-.89c-.09-.11-.26,0-.19.12.24.38-.07.58-.23.1Z"/><path class="cls-1" d="M176.39,48.11c-.14-.2-.37-.14-.29.19a1.87,1.87,0,0,0,.44,1c.31.25.69.11,1.11-.34a.58.58,0,0,0,0-.65,3.74,3.74,0,0,0-1.51-1.14c-.18-.07-.27,0-.14.16a12.07,12.07,0,0,1,1.09,1c.11.2,0,.33-.12.35s-.15,0-.22-.11a1.34,1.34,0,0,1-.33-.43Z"/><path class="cls-1" d="M176.41,45.62a4.73,4.73,0,0,1,2.41,1.61.69.69,0,0,1-.16.88c-.22.21-.4.15-.64,0a4.43,4.43,0,0,1-.93-.78c-.08-.1,0-.21.09-.14l.66.31a.33.33,0,0,0,.29-.57,10.58,10.58,0,0,0-1.73-1.05c-.26-.14-.26-.33,0-.29Z"/><path class="cls-1" d="M175.93,46.25c-.12-.15-.07-.27.13-.2a4.5,4.5,0,0,1,1.5.88c.11.14.05.23-.13.16l-.27-.15c-.09,0-.13,0-.1.09s0,.23-.16.19l-1.16-.51c-.12-.06-.15-.17,0-.18s.31-.1.2-.28Z"/><path class="cls-1" d="M193.66,46.25A22.16,22.16,0,0,1,200,55.33a3.56,3.56,0,0,0,1.12,1.87c.26.25.14.37-.18.43a3.68,3.68,0,0,1-3.59-1.89c-2.24-4-4.22-6.67-6-8.11-.32-.34-.23-1,.15-.54a26.51,26.51,0,0,1,6,7.53,5.65,5.65,0,0,0,1.48,1.7c.44.35.63.3.59-.09a22.62,22.62,0,0,0-6.19-9.62c-.35-.34-.07-.6.3-.36Z"/><path class="cls-1" d="M192.62,46.76a24.67,24.67,0,0,1,6.29,8.5c.31.73-.13.8-.45.47a30.16,30.16,0,0,0-6.22-8.64c-.56-.38,0-.57.38-.33Z"/><path class="cls-1" d="M191.45,48.44a20,20,0,0,1,5.36,7.1c.15.71-.58,1.07-1.29.58-.94-.88-2.88-4-4.57-5.66-.22-.34,0-1.07.21-.75a27.44,27.44,0,0,1,4.32,5.43c.26.43.63.4.41-.1a29.17,29.17,0,0,0-4.54-5.91c-.28-.23-.33-1.2.1-.69Z"/><path class="cls-1" d="M190.73,50.93a14.79,14.79,0,0,1,3.59,4.46c.23.93-.26,1.43-1.35,1.14a2.88,2.88,0,0,1-1.1-.94L189.78,53c-.16-.24,0-.81.29-.55.91,1.06,1.86,2.31,2.9,3.35a.43.43,0,0,0,.66-.54,25.51,25.51,0,0,0-3.09-3.85c-.15-.26,0-.72.19-.47Z"/><path class="cls-1" d="M190.14,51.44a22,22,0,0,1,3,3.55c.12.25-.09.42-.25.27a33.82,33.82,0,0,1-3-3.39c-.09-.2.07-.57.21-.43Z"/><path class="cls-1" d="M189.69,53.34a11.25,11.25,0,0,1,2.1,2.68c.23,1-.11,1.54-1.51,1.15a8.34,8.34,0,0,1-2-2c-.15-.25.1-.69.29-.51a11.55,11.55,0,0,0,1.79,1.83c.48.3,1,0,.74-.47a9.3,9.3,0,0,0-1.77-2.2c-.28-.33,0-.68.33-.44Z"/><path class="cls-1" d="M188.81,53.72a9.27,9.27,0,0,1,2,2.31c.09.22-.18.33-.35.18l-1.74-1.9c-.2-.24-.09-.77.09-.59Z"/><path class="cls-1" d="M188.1,55.28a9,9,0,0,1,1.45,1.84c.3.92-.84,1.42-1.46,1.11a3.8,3.8,0,0,1-1.39-1.4c-.14-.26.1-.54.3-.38a10.1,10.1,0,0,0,1.08,1.15.51.51,0,0,0,.77-.58,8.52,8.52,0,0,0-1.06-1.39c-.13-.2.11-.53.31-.35Z"/><path class="cls-1" d="M187.47,55.7a5.12,5.12,0,0,1,.94,1c.27.39-.15.68-.44.42s-.48-.54-.77-.88c-.07-.1-.18-.2-.17-.33a.27.27,0,0,1,.44-.2Z"/><path class="cls-1" d="M186.44,57l.85,1.1a.59.59,0,0,1-.15.81l-.74.61c-.25.16-.47-.11-.35-.38s1-.63.61-1l-.54-.69c-.15-.33.11-.54.32-.4Z"/><path class="cls-1" d="M185.93,57.44l.41.81c.1.26-.19.44-.33.25l-.48-.84c-.11-.31.3-.46.4-.22Z"/><path class="cls-1" d="M186.74,44.8a15.48,15.48,0,0,1,3.3,1.79c.69.56,1,1.16.73,1.81-.23.36-.51.29-.82.06a14,14,0,0,0-2.74-1.94c-.32-.14-.29-.65,0-.5a10.56,10.56,0,0,1,2.55,1.68c.42.26.59-.11.38-.34a13.13,13.13,0,0,0-3.13-2c-.47-.34-.61-.73-.28-.56Z"/><path class="cls-1" d="M187.38,46.93a12.53,12.53,0,0,1,3,2.35,1.68,1.68,0,0,1-.33,1.65.55.55,0,0,1-.32.1,2.12,2.12,0,0,1-.78-.39,7.81,7.81,0,0,1-1.16-.92c-.33-.37-.34-.93-.07-.71l1.6,1.08c.45.32.68-.31.48-.7S188,48,187.31,47.47c-.24-.22-.2-.64.07-.54Z"/><path class="cls-1" d="M187.5,48l1.95,1.38c.22.25-.18.38-.38.27a9.7,9.7,0,0,1-1.57-1.28c-.12-.15-.15-.49,0-.37Z"/><path class="cls-1" d="M187.93,50.22l1.29,1.11a.92.92,0,0,1,.31,1.11,1.69,1.69,0,0,1-.5.69.5.5,0,0,1-.65-.05l-1-.81c-.2-.24,0-.71.22-.57l.75.55c.38.35.59-.26.37-.55a6.14,6.14,0,0,0-1-1c-.2-.32,0-.66.18-.48Z"/><path class="cls-1" d="M187.6,51.4c-.13-.22.09-.44.27-.33l.58.41a.27.27,0,0,1-.26.46l-.59-.54Z"/><path class="cls-1" d="M187.27,52.58a3.1,3.1,0,0,1,.9.94c.37.62,0,1-.33,1.54-.23.22-.48.31-.71.15l-1-.83c-.25-.22,0-.77.29-.49l.52.45c.33.26.73-.3.54-.64l-.47-.58c-.16-.19-.05-.68.24-.54Z"/><path class="cls-1" d="M186.58,53.68c-.25-.27.07-.55.26-.41l.34.3c.21.21,0,.61-.26.4l-.34-.29Z"/><path class="cls-1" d="M185.9,54.29a4.41,4.41,0,0,1,.75,1c.4.74-.88,2.08-1.42,1.43l-.73-.95c-.16-.31,0-.64.33-.45l.45.56c.43.35.79-.27.64-.63l-.33-.49c-.17-.31.11-.76.31-.51Z"/><path class="cls-1" d="M185,55.3c-.13-.24.12-.49.3-.35l.4.44c.16.26-.14.48-.29.37L185,55.3Z"/><path class="cls-1" d="M186.83,59.86c1,1.84,1.15,5.35.28,6.46-.3.3-.61.3-.64-.14a11.21,11.21,0,0,0-.91-4.23c-.12-.35,0-1.17.22-.83a10.15,10.15,0,0,1,1,3.63c.06.42.22.53.35.13a8.39,8.39,0,0,0-.69-4.6c-.14-.34.19-.64.36-.42Z"/><path class="cls-1" d="M186.15,60.24a8.39,8.39,0,0,1,.9,3.41.14.14,0,0,1-.28,0,7.7,7.7,0,0,0-.88-2.86c-.1-.29.08-.87.26-.57Z"/><path class="cls-1" d="M183.17,52.31c1.88-1.46,1.59-2.62,1.25-4.65s-1-2.73-1.83-3.29c-.25-.18-.5-.34-.74-.49a4.1,4.1,0,0,1-1.49-1,1.14,1.14,0,0,1,.39-1.79,1.84,1.84,0,0,1,1-.11,18.15,18.15,0,0,1,9.5,3.38,3,3,0,0,0,1.94.7c.46.06.54.25.28.59a3.14,3.14,0,0,1-3.36.39c-.12,0-.16-.11-.15-.25l.14-.58c.05-.22.27-.27.34,0l.23.43a.6.6,0,0,0,.47.22c.51,0,.75-.11.54-.45a17.65,17.65,0,0,0-8.83-4,3.21,3.21,0,0,0-1.6,0,.67.67,0,0,0-.16,1.16l2,1.14a3.05,3.05,0,0,1,1.59,1.8c.47,1.57,1.35,4.75.28,6.13a3.45,3.45,0,0,1-1.5,1.39c-.36.06-.52-.49-.23-.79Z"/><path class="cls-1" d="M167.68,50.2l-1.09-.08c-.34,0-.55-.51-.71-1.2a3,3,0,0,1,.92-2.82c.19-.24.14-.31,0-.31s-.09-.15,0-.26l.21-.18c.12-.17-.09-.32-.24-.26A5.39,5.39,0,0,0,165,46.57a1,1,0,0,0-.14,1l.51,2.38c.18.56.45.84.81.9l1.42.09a.37.37,0,0,0,.05-.72Z"/><path class="cls-1" d="M166.51,49a1.21,1.21,0,0,0,1.84.19c.2-.12.13-.34-.06-.31a1.39,1.39,0,0,1-1.52-.28c-.23-.15-.42.11-.26.4Z"/><path class="cls-1" d="M168.85,47.19c.23-.12.29.06.11.22a3.09,3.09,0,0,1-2.37.85c-.38-.13-.45-.41-.28-.78a5.2,5.2,0,0,1,.89-1.38,1,1,0,0,0,.21-.88c-.07-.48.2-.68.57-.81s.69.51.33.74a2,2,0,0,0-.33.25.57.57,0,0,0-.13.33c0,.06,0,.11,0,.18a.79.79,0,0,0,0,.23.27.27,0,0,1-.08.32,3.91,3.91,0,0,1-.67.69c-.24.33-.2.49,0,.56a4.35,4.35,0,0,0,1.71-.52Z"/><path class="cls-1" d="M168.11,46c-.15-.3.27-.78.52-.25a.85.85,0,0,1-.4,1.16c-.16,0-.23,0-.21-.1a.71.71,0,0,0,.09-.81Z"/><path class="cls-1" d="M177.42,79.07c1,.73.88,4,2.25,4.36.59.19.5-.1.31-.21-.9-.37-.79-3.94-2.23-4.49-.52-.11-.69,0-.33.34Z"/><path class="cls-1" d="M178.67,79c1.07.69,1.06,4.47,2.5,4.46.32,0,.39-.1.18-.21-.92-.52-.93-4.22-2.43-4.52-.4,0-.48.07-.25.27Z"/><path class="cls-1" d="M180.64,80.36c.53.35.53,3.14,1.91,3.21.3,0,.29-.07.15-.18-1.16-1.06-.58-2.83-1.87-3.29-.29-.07-.36.11-.19.26Z"/><path class="cls-1" d="M177.45,77.71a9.91,9.91,0,0,0,2,.2.33.33,0,0,1-.09.65c-.59,0-2.17.11-2.6-.44-.14-.33-.06-.58.32-.54a2.26,2.26,0,0,1,.33.13Z"/><path class="cls-1" d="M184.46,79.14a.32.32,0,0,1-.62-.17A1,1,0,0,1,185,78a.94.94,0,0,1,.75,1.55.63.63,0,0,0-.11.71,1.58,1.58,0,0,1,0,1.48c-.11.35-.11.61.07.7a.9.9,0,0,1-.15,1.31c-.87.38-1.39,0-1.74-.77a.34.34,0,1,1,.66-.1c.18.59.9.21.64-.13a.67.67,0,0,1-.33-.93,1.61,1.61,0,0,0,0-1.69.62.62,0,0,1,.28-.84c.51-.35-.42-1-.58-.16Z"/><path class="cls-1" d="M176.62,78.11c-.22-1.13-2.08-1.28-2.06,0a.77.77,0,0,0,.23.64.74.74,0,0,1,0,.84,1.66,1.66,0,0,0,0,1.29,1.18,1.18,0,0,1,0,1c-.16.3-.29.39-.2.8a1,1,0,0,0,1.62.56,1.24,1.24,0,0,0,.49-.89c0-.22-.39-.4-.56-.21l-.25.43a.3.3,0,0,1-.55-.25.78.78,0,0,1,.31-.4.63.63,0,0,0,0-.68,2.05,2.05,0,0,1-.08-1.34l.18-.63a.59.59,0,0,0-.22-.66c-.4-.29-.08-.77.25-.61s.16.2.29.44.77.24.6-.31Z"/><path class="cls-1" d="M176.7,83.48a1.16,1.16,0,0,0,.51.17c1.79.15,3.65.25,5.59.27a1,1,0,0,0,.49-.12c.58-.37,1,.26.55.5a2,2,0,0,1-1.06.27c-.93-.11-6.21.14-6.74-.67-.16-.44.1-.68.66-.42Z"/><path class="cls-1" d="M179.4,41.73c-.8-.07-1.51,0-1.61,1.14-.11.77.14,1.25.81,1.42,1.72.53,3,1.19,3.27,2.75,0,.82.18,1.15.35,1.31s.23,0,.22-.17c.09-1.61-.36-2.72-1.36-3.31a7.75,7.75,0,0,0-2.22-1.1c-1-.2-.58-1.83.39-1.64.33,0,.49-.28.15-.4Z"/><path class="cls-1" d="M178.89,42.47c1.26-.3,1.62,1.23,0,.87-.22-.1-.25-.25,0-.28.53,0,.51-.37,0-.38-.18,0-.14-.15,0-.21Z"/><path class="cls-1" d="M179.62,43.67a3,3,0,0,1,2.31.88c.27.26-.43.36-.63.12-.24-.6-.93-.79-1.71-.89-.16,0-.16-.11,0-.11Z"/><path class="cls-1" d="M180.37,46.14a3.17,3.17,0,0,1,1.17,1.44,3.92,3.92,0,0,0,1.05,1.58.44.44,0,0,1-.06.6l-.88.65a.36.36,0,0,1-.38-.57,2.34,2.34,0,0,1,.32-.31.78.78,0,0,0,.11-.57,5.1,5.1,0,0,0-1.53-2.64c-.18-.22,0-.33.2-.18Z"/><path class="cls-1" d="M179.91,47.18a5.64,5.64,0,0,1,1,3,.81.81,0,0,1-.42.73,3.08,3.08,0,0,1-.94.37c-.33,0-.49-.14-.49-.37a12,12,0,0,0-.14-2.59c0-.33.23-.32.29-.12a6.81,6.81,0,0,1,.33,1.94c0,.35.26.38.63.06.33-.55,0-1.56-.55-2.77-.12-.33.05-.47.25-.22Z"/><path class="cls-1" d="M179.4,47.42a5.9,5.9,0,0,1,.7,2,.61.61,0,0,1,0,.3c-.07.18-.25.18-.29,0a7.3,7.3,0,0,0-.56-2.2c-.1-.22,0-.38.15-.16Z"/><path class="cls-1" d="M180.24,46.75A7.07,7.07,0,0,1,181.38,49c.1.28-.19.43-.26.22a10.26,10.26,0,0,0-1-2.36c-.11-.21,0-.3.13-.14Z"/><path class="cls-1" d="M178.81,48.8c.05,1.5.22,3.25-1.67,3-.74-.13-.08-1.81.1-2.18s.38-.23.34.1l-.16,1.09c0,.41.37.41.66-.05a4.5,4.5,0,0,0,.25-1.87c0-.35.37-.63.48-.05Z"/><path class="cls-1" d="M177.78,49.2c0-.24.33-.26.33,0a5.76,5.76,0,0,1-.05,1.17c0,.32-.56.36-.45-.07a5.55,5.55,0,0,0,.17-1.07Z"/><path class="cls-1" d="M175.93,50.44c.07-.29-.2-.39-.37-.17a4.74,4.74,0,0,1-.59.83.37.37,0,0,0,0,.5,1,1,0,0,0,1.61-.41l.31-1.24c.07-.41-.51-.44-.63.11a3,3,0,0,1-.39,1.08c-.12.19-.34.07-.23-.09a1.35,1.35,0,0,0,.3-.61Z"/><path class="cls-1" d="M171.3,50.3c-.28-.29.09-.52.52-.29,1.44,1.32,1.55,2.59.74,3.82-.29.25-.51.14-.41-.18a2.48,2.48,0,0,0-.85-3.35Z"/><path class="cls-1" d="M160.23,55.33a4.37,4.37,0,0,0-.28-.67c-.11-.25-.07-.41.08-.51a2.34,2.34,0,0,0,.27-.15,1.92,1.92,0,0,0,.46-.35c.28-.17.57-.06.59.2a.36.36,0,0,1-.09.31c-.33.4-.68.48-.39,1a.35.35,0,0,1-.42.52c-.15-.07-.17-.22-.22-.36Z"/><path class="cls-1" d="M161.24,55.9c-.31-1-.17-1.48.55-1.89.39-.19.66.18.47.47-.41.33-.64.45-.4,1s-.31.82-.62.38Z"/><path class="cls-1" d="M162.84,56c.12.53-.48.66-.65.2l-.13-.83a.6.6,0,0,1,.33-.69l.38-.32a.35.35,0,0,1,.44.52l-.3.29a.75.75,0,0,0-.07.83Z"/><path class="cls-1" d="M170.78,50.46c1.3,1.13,1.81,2.3,1.18,3.55-2.24,2.68-5.37,3.48-4.14,6.18.15.33,0,.4-.18.26-1.18-1.46-.94-3,.78-4.53l2.52-2.2c.73-.95.33-1.74-.59-2.5-.43-.52,0-1,.43-.76Z"/><path class="cls-1" d="M168.26,58.62c.45,2.2,1.54,1.13,3.71,1.33a2.42,2.42,0,0,1,1.14,4.34c-.37.23-1.08-.14-.52-.62a1.66,1.66,0,0,0-.65-3c-2.14-.33-4.16.22-4.11-2,0-.41.44-.59.43,0Z"/><path class="cls-1" d="M171.12,52.77c.18-.46-.06-.66-.36-.41a5.49,5.49,0,0,1-1.95,1.38c-4.36,2-3.88,7.88.15,8.39l2.7.08c.34,0,.49.29.22.69s.06.51.38.26a1,1,0,0,0-.54-1.75c-1.81,0-3,0-3.43-.34-2.67-1.46-2.14-5,.93-6.74.95-.57,1.75-1.12,1.9-1.56Z"/><path class="cls-1" d="M163.72,54.92a2.61,2.61,0,0,1,1.43,2.89c-.72,1.37-.91,2.31-.37,2.6a12.24,12.24,0,0,0,1.48,1.12,4.33,4.33,0,0,1,.87,2.29c0,.37.3.59.83.8.35.16.12.55-.24.46A1.36,1.36,0,0,1,166.55,64c-.18-.81-.12-1.64-.86-2.13a12.59,12.59,0,0,1-1.49-1.13,1.42,1.42,0,0,1-.32-1.54c1.2-2.31.57-3-.41-3.85-.25-.24-.16-.57.25-.4Z"/><path class="cls-1" d="M163.18,55.51c.55.18.8.76.79,1.69a2.24,2.24,0,0,1-.2.94c-.34.77-.9,1.3-.34,2.5a5,5,0,0,0,1.64,1.49,2.27,2.27,0,0,1,.84,2.17,1.78,1.78,0,0,0,1.33,1.75,1.13,1.13,0,0,0,.83,0,.59.59,0,0,1,.66.2c.19.23.26.45,0,.55a2.09,2.09,0,0,1-.77.19c-1.71,0-2.63-.94-2.74-2.82a1.94,1.94,0,0,0-.95-1.75,5.75,5.75,0,0,1-1.54-1.55,2.22,2.22,0,0,1,.14-2.13c.58-1.2.71-2.08.09-2.6-.33-.36-.24-.65.18-.58Z"/><path class="cls-1" d="M169.29,66.32a1.3,1.3,0,0,1,.54.15c.08.08.06.17-.05.25a.51.51,0,0,1-.63-.23c0-.1,0-.16.14-.17Z"/><path class="cls-1" d="M169.84,66.07a1.12,1.12,0,0,1,.74.21c.14.16.11.27-.05.34a.92.92,0,0,1-.75-.23c-.12-.14-.11-.25.06-.32Z"/><path class="cls-1" d="M170.57,65.73a1.1,1.1,0,0,1,.92.33c.08.15.07.25-.07.29a.78.78,0,0,1-.92-.36c-.07-.15,0-.23.07-.26Z"/><path class="cls-1" d="M171.66,63c.09-.23,0-.39-.21-.34a.81.81,0,0,0-.3.17,1,1,0,0,0-.5,1.14.4.4,0,0,0,.46.4.83.83,0,0,0,.37-.15l.26-.23a.22.22,0,0,0,0-.33.54.54,0,0,1-.11-.66Z"/><path class="cls-1" d="M168.66,64.05c-.22-.3-.47.43-.29.59a.72.72,0,0,1,.09.57.73.73,0,0,0,.64.93c.19,0,.23-.09.13-.22a.9.9,0,0,1-.26-.78,1.91,1.91,0,0,0-.31-1.09Z"/><path class="cls-1" d="M170,65.55c.21.12.15.23-.08.34-.41.14-.82-.39-.77-1a.6.6,0,0,0-.12-.54c-.33-.59-.26-1,.08-1.14s.37-.07.33.1a.57.57,0,0,0,.11.59.81.81,0,0,1,.11.81.76.76,0,0,0,.34.85Z"/><path class="cls-1" d="M170.67,65.28c.13.17,0,.24-.21.24a.91.91,0,0,1-.72-.55,1,1,0,0,1,0-.67.55.55,0,0,0,0-.58c-.46-.91.37-1.31,1.07-1.15.15,0,.18.15,0,.3a1,1,0,0,0-.17,1.54c.17.16.18.33,0,.47a.28.28,0,0,0,0,.4Z"/><path class="cls-1" d="M174.6,63.1a1.44,1.44,0,0,1,.31,1.83,2.25,2.25,0,0,1-.81.61,1.6,1.6,0,0,0-.66.42,1.73,1.73,0,0,1-.63.5.59.59,0,0,1-.6,0c-.62-.54-1.61-1-1.24-1.61a1.13,1.13,0,0,1,1.28-.58.73.73,0,0,1,.46.78c0,.18-.13.22-.3.13L172.1,65c-.2-.07-.31.05-.17.24l.43.4a.29.29,0,0,0,.46-.08,4.56,4.56,0,0,1,1.3-.87.48.48,0,0,0,.23-.66l-.25-.44c-.11-.33.17-.7.5-.48Z"/><path class="cls-1" d="M175.75,67c.22.09.42-.13.16-.29a3,3,0,0,0-2.25-.51c-.37.17-.46.48-.16.63l1.07.31.74.3c.18.07.46-.07.24-.26a2.74,2.74,0,0,0-1-.44c-.24-.07-.22-.2.07-.15a3.34,3.34,0,0,1,1.1.41Z"/><path class="cls-1" d="M176.51,65a.85.85,0,0,0-.41-.25,1,1,0,0,0-.75.18,1.27,1.27,0,0,0-.42.41c-.36.77.89,1.12,1.4,1.25.28,0,.4-.18.22-.3a2.55,2.55,0,0,1-1-.65c-.27-.56.42-.49.7-.37s.35-.08.21-.27Z"/><path class="cls-1" d="M176.07,65.4a4.49,4.49,0,0,1,1,.51c.17.07.14.38-.08.34a4,4,0,0,1-1.07-.49.2.2,0,0,1,.15-.36Z"/><path class="cls-1" d="M177.9,66.27a3.09,3.09,0,0,0-2,1.27c-.3.5-.13.84.31.89a2.12,2.12,0,0,0,.5-.05,4.59,4.59,0,0,1,1.5-.33c.33,0,.31-.34,0-.41a4.17,4.17,0,0,0-1.65.25c-.25.07-.21-.15-.1-.29a3.26,3.26,0,0,1,1.53-.89.23.23,0,0,0-.1-.44Z"/><path class="cls-1" d="M178.2,67.3c-.2.23-1.37.37-1-.11.18-.22,1.35-.29,1,.11Z"/><path class="cls-1" d="M176,63.65c.16,0,.18-.07.11-.22a1.2,1.2,0,0,0-.77-.48c-.17,0-.25,0-.28.15,0,.61.26,1.12,1.09,1.46.22,0,.3,0,.2-.21l-.46-.48c-.11-.13-.07-.22.11-.22Z"/><path class="cls-1" d="M176.14,62.5c.26,1.13-1.5.35-1.32-1.43,0-.11.07-.2.19-.13a.69.69,0,0,1,.34.79c0,.37.27.63.32.42s.06-.12.15,0a1.23,1.23,0,0,1,.32.4Z"/><path class="cls-1" d="M176.3,63.13A3.94,3.94,0,0,0,177.57,66a.43.43,0,0,0,.66-.32,1.77,1.77,0,0,0-.15-1c-.1-.17-.36-.2-.37,0v.53c0,.17-.11.24-.26.1a2.48,2.48,0,0,1-.63-1.71c.07-.29-.58-.91-.53-.41Z"/><path class="cls-1" d="M178.42,65.41a4,4,0,0,0,.77,3.06c.88.4.92-.71.83-1.31-.21-.44-.33-.44-.42-.17l0,.69c0,.21-.07.3-.26.17a4.49,4.49,0,0,1-.44-2.19c0-.51-.42-.71-.44-.25Z"/><path class="cls-1" d="M179,66.28c.06-.28.33-.22.42,0l.07.58c0,.8-.69.23-.49-.59Z"/><path class="cls-1" d="M177.12,64.07c.2-.4.53.15.52.38-.06.54-.63.08-.52-.38Z"/><path class="cls-1" d="M182,45a1.41,1.41,0,0,1,1.5,1c.16.64-.41.85-.74.56-.17-.11-.11-.22,0-.22.27,0,.44,0,.34-.33a1,1,0,0,0-1-.69c-.4,0-.35-.29-.12-.34Z"/><path class="cls-1" d="M182.48,45.68c.45,0,.29.63,0,.33-.14-.18-.11-.28,0-.33Z"/><path class="cls-1" d="M183,47A1.1,1.1,0,0,1,184,48.08c.09.47,0,.86-.23,1.05s-1-.12-1.06-.34.06-.31.29-.22.49.11.58-.2c0-.63-.22-1-.69-1A.2.2,0,0,1,183,47Z"/><path class="cls-1" d="M182.92,47.77c.21,0,.32.09.27.42s-.2.18-.38,0,0-.33.11-.4Z"/><path class="cls-1" d="M183.35,49.35c.61.08,1,.34.93,1.13a2.07,2.07,0,0,1-1,1.29c-.19.07-.29,0-.3-.19-.09-.35.11-.65.48-.92.18-.32.16-.49-.07-.6l-.48-.22c-.26-.22,0-.59.4-.49Z"/><path class="cls-1" d="M182.91,50.19c.28-.1.42,0,.44.31s-.14.25-.4.18-.21-.4,0-.49Z"/><path class="cls-1" d="M181.81,42.18a4.07,4.07,0,0,1,4,2.26c.06.21,0,.36-.33.34a1.83,1.83,0,0,1-1.11-.55c-.09-.11,0-.13.07-.13.44,0,.56-.06.37-.36a2.87,2.87,0,0,0-2.64-1c-.44,0-.81-.5-.37-.55Z"/><path class="cls-1" d="M183.39,43.26a1.74,1.74,0,0,1,.81.09c.18.14.25.26,0,.37a1,1,0,0,1-.8-.09c-.23-.14-.25-.32-.05-.37Z"/><path class="cls-1" d="M185.19,42.93a4.51,4.51,0,0,0,2.14,1.74c.33.1.5,0,.49-.22a1.2,1.2,0,0,0-.8-1.14c-.14,0-.18,0-.11.1.15.47-.1.52-.36.29a2.46,2.46,0,0,0-1.16-.92c-.27-.07-.33,0-.2.15Z"/><path class="cls-1" d="M180.87,75.45a8.38,8.38,0,0,0-.72,3.67c0,.35.07.6.43.68l2.13.14c.36,0,.58-.14.59-.49.14-1,.49-1.6,1-1.63l1.7-.29c.28,0,.4,0,.46.14a.86.86,0,0,0,.84.15c.14-.07.22-.15.08-.19s-.21-.4.06-.69c1.21-.65,1.63-1.23,1.51-2.24.05-.35-.59-.44-.76,0a2.22,2.22,0,0,1-.66,1.3,6.83,6.83,0,0,1-3.26,1,1.34,1.34,0,0,0-1.28.75l-.45,1.1c-.07.24-.19.37-.4.35l-1-.08c-.21,0-.28-.12-.26-.29a9.1,9.1,0,0,1,.42-2.57c.24-.48-.17-1.47-.45-.8Z"/><path class="cls-1" d="M186,74c-.8.19-.39,1.14.11.77a1.69,1.69,0,0,1,.88-.52,1.74,1.74,0,0,0-1-.25Z"/><path class="cls-1" d="M185.74,76.2c-.8.19-.84-.83-.24-.72a2.54,2.54,0,0,0,1,.15,1.52,1.52,0,0,1-.77.57Z"/><path class="cls-1" d="M184.47,73.84c-.74.44,0,1.21.37.69a1.87,1.87,0,0,1,.69-.8,1.85,1.85,0,0,0-1.06.11Z"/><path class="cls-1" d="M181.79,77.28c-.53.63.35,1.16.54.57a1.79,1.79,0,0,1,.4-.95,1.66,1.66,0,0,0-.94.38Z"/><path class="cls-1" d="M191.14,76.36c-.81,0-.63,1-.07.78a1.73,1.73,0,0,1,1-.31,1.67,1.67,0,0,0-.91-.47Z"/><path class="cls-1" d="M191.79,75.22c-.52.65.37,1.15.55.55a1.73,1.73,0,0,1,.32-1,1.47,1.47,0,0,0-.87.4Z"/><path class="cls-1" d="M193,75.37c-.69.45,0,1.21.35.69a1.89,1.89,0,0,1,.65-.8,1.75,1.75,0,0,0-1,.11Z"/><path class="cls-1" d="M192.93,77.21c-.8.2-.82-.82-.22-.73a2.38,2.38,0,0,0,1,.17,1.52,1.52,0,0,1-.77.56Z"/><path class="cls-1" d="M184.24,76c-.47.68-1.16-.06-.63-.39a2.49,2.49,0,0,0,.85-.56,1.51,1.51,0,0,1-.22,1Z"/><path class="cls-1" d="M179.63,73.89c.84,0,.69,1,.1.78a1.79,1.79,0,0,0-1-.29,1.74,1.74,0,0,1,.91-.49Z"/><path class="cls-1" d="M177.54,72.33c.72.44,0,1.25-.33.73a1.82,1.82,0,0,0-.7-.78,1.7,1.7,0,0,1,1,0Z"/><path class="cls-1" d="M175.81,72.56c.84.13.52,1.13,0,.8a1.88,1.88,0,0,0-.93-.45,1.74,1.74,0,0,1,1-.35Z"/><path class="cls-1" d="M176.47,74.93c.84,0,.65-1,.07-.76a1.82,1.82,0,0,1-1,.29,1.78,1.78,0,0,0,.91.47Z"/><path class="cls-1" d="M177.65,74.28c.77.33.95-.67.33-.67a1.8,1.8,0,0,1-1-.11,1.83,1.83,0,0,0,.69.78Z"/><path class="cls-1" d="M171.85,73c.74.44,1-.59.41-.66a1.9,1.9,0,0,1-1-.23,1.92,1.92,0,0,0,.58.89Z"/><path class="cls-1" d="M169.67,73.14c.76.4,1-.63.39-.69a1.73,1.73,0,0,1-1-.17,1.78,1.78,0,0,0,.61.86Z"/><path class="cls-1" d="M168.86,71c.8.26.35,1-.16.81-.14,0-.4-.45-.9-.56a1.92,1.92,0,0,1,1.06-.25Z"/><path class="cls-1" d="M165.6,68.3c.24.83-.64.85-.74.3-.1-.11.15-.59,0-1.07a1.84,1.84,0,0,1,.77.77Z"/><path class="cls-1" d="M164.32,67.72c.24.83-.66.86-.75.31-.08-.1.15-.6,0-1.08a2,2,0,0,1,.77.77Z"/><path class="cls-1" d="M163.61,69.46c.63.38,1-.44.45-.68a1.81,1.81,0,0,1-1-.41,1.54,1.54,0,0,0,.54,1.09Z"/><path class="cls-1" d="M165.16,70.49c.6.44,1.06-.33.51-.63a1.91,1.91,0,0,1-.93-.51,1.55,1.55,0,0,0,.42,1.14Z"/><path class="cls-1" d="M180.7,71.62c.21,0,.36.11.35.3a2.81,2.81,0,0,0,0,.71c0,.22-.07.35-.24.35-.44,0-.75.09-.67.46s0,.47-.29.31a1.18,1.18,0,0,1,.85-2.13Z"/><path class="cls-1" d="M181.48,73.61c.17-.12.41-.23.59,0a1.69,1.69,0,0,0,.41.53.35.35,0,0,1-.06.5c-.31.25-.52.44,0,.84.15.11,0,.25-.25.26a1.19,1.19,0,0,1-.67-2.16Z"/><path class="cls-1" d="M189.59,73.49a.32.32,0,0,1,.49,0c1.12.82.27,2.54-.81,2.12-.12-.06-.13-.1-.05-.15q.6-.53,0-.87a.32.32,0,0,1-.13-.5,6.23,6.23,0,0,0,.47-.57Z"/><path class="cls-1" d="M187,71.07c.51.13.7,1.07,1.62,1a.91.91,0,0,1,.89,1.13,2,2,0,0,1-1.14,1,.7.7,0,0,1-.84-.1l-.55-.49c-.16-.11-.27-.14-.36-.06s-.19,0-.16-.23,0-.36-.18-.15-.56.44-.76,0-.06-.45-.27-.29a5.47,5.47,0,0,1-.89.77c-.2.11-.33.22-.36.33a.74.74,0,0,1-1.07.4c-.44-.33-.61-.59-.62-.81a.81.81,0,0,1,.42-.89,6.09,6.09,0,0,0,1.3-.62c.17-.13.16-.21,0-.25a2.3,2.3,0,0,0-1.19.16.31.31,0,0,0-.2.2,1,1,0,0,1-.49.81c-.25.14-.44.16-.58,0a1.72,1.72,0,0,1-.11-.29,3.37,3.37,0,0,1,0-.84,1.75,1.75,0,0,1,.12-.32.61.61,0,0,1,.76-.24,2.65,2.65,0,0,0,1.32.07,1.31,1.31,0,0,1,1.09,0,.32.32,0,0,1,.11.45A5.37,5.37,0,0,1,183.58,73c-.22.19-.17.45.15.19A6.48,6.48,0,0,1,185.24,72c.13-.06.22-.07.26,0s.16.07.27-.07a.78.78,0,0,1,.37-.33.24.24,0,0,1,.3,0,6.22,6.22,0,0,1,1,1.28c.13.26.3.37.48.27.4-.18.38-.36.09-.55a4.68,4.68,0,0,1-.86-.55,1.35,1.35,0,0,1-.48-.76c0-.22.11-.23.33-.17Z"/><path class="cls-1" d="M182.41,69.09l.83,1.25c.09.13.2.12.31,0s.28-.1.32.12c.11.72-.54.84-.94.34l-1-1.44c-.15-.34.27-.48.45-.27Z"/><path class="cls-1" d="M183.1,68.84c.71,1,1,2.1,2.09,2.72.33.11.52,0,.6-.36a2.3,2.3,0,0,0-.11-1.28l-.74-1.87c-.11-.27-.23-.26-.34,0a1.21,1.21,0,0,0,.18,1c.16.27.31.62.48,1,.19.54-.15.77-.39.49l-.75-1.19a1.53,1.53,0,0,0-.73-.79c-.36-.13-.46,0-.29.24Z"/><path class="cls-1" d="M184.13,69c-.07-.22.11-.41.29-.22l.58,1c.22.35-.24.51-.31.33l-.56-1.1Z"/><path class="cls-1" d="M186,68.7c-.1-.47-.23-.55-.37-.61s-.25,0-.23.16a3.72,3.72,0,0,0,1.16,2.46c.31.09.51.05.5-.26a7.51,7.51,0,0,0-.43-2.16,2,2,0,0,1-.13-.61c0-.27-.13-.34-.31-.15a1,1,0,0,0-.08.85l.37,1.09c.11.4-.09.37-.19.21a2.71,2.71,0,0,1-.29-1Z"/><path class="cls-1" d="M185.45,62.36c.59,1.21,1,4.15.52,5-.19.36-.44.42-.74.18-.54-.46-.95-1.91-1.47-3.06a1.14,1.14,0,0,1-.11-.79c.08-.29.18-.34.31-.16.43.91.79,2.14,1.24,2.94.13.23.4.25.41-.15a6.88,6.88,0,0,0-.61-3.45c-.16-.31.3-.86.45-.47Z"/><path class="cls-1" d="M184.12,63.28c-.14-.26,0-.52.33-.36a3.58,3.58,0,0,1,1,2.59c0,.32-.29.32-.36.11a8.59,8.59,0,0,0-.93-2.34Z"/><path class="cls-1" d="M181.26,65a11,11,0,0,0,2.35,3.38.54.54,0,0,0,.81-.41,6.87,6.87,0,0,0-1-3.84.33.33,0,0,0-.58.26c.28,1,.76,1.76,1,2.81.09.44-.15.49-.35.27a25.17,25.17,0,0,1-1.76-2.8c-.34-.45-.63-.08-.46.33Z"/><path class="cls-1" d="M181.74,63.82a4.32,4.32,0,0,1,1.59,2.6c.07.38-.18.45-.29.24a12.52,12.52,0,0,0-1.5-2.61c-.13-.18,0-.34.2-.23Z"/><path class="cls-1" d="M178.86,65c.84,1,1.68,2.09,2.53,3.35.47.53,1.05.39,1.08-.33a5.53,5.53,0,0,0-1.67-3.08c-.32-.25-.49,0-.34.17a15.23,15.23,0,0,1,1.47,2.24c.21.53-.21.67-.4.42a25.7,25.7,0,0,0-2.37-3.06c-.24-.25-.55,0-.3.29Z"/><path class="cls-1" d="M179.65,64.34l1.94,2.7c.2.33-.05.41-.22.24l-2-2.55c-.15-.32,0-.64.24-.39Z"/><path class="cls-1" d="M188,44a.83.83,0,0,1,.08.54.44.44,0,0,0,0,.4c.31.27,1.14,1,1.39.68a.68.68,0,0,0-.27-1.1c-.11-.06-.17-.06-.15,0,0,.5-.51.38-.54,0a1.18,1.18,0,0,0-.43-.72c-.22-.11-.22,0-.13.11Z"/><path class="cls-1" d="M185.27,46.35c.69.7,1.91.66,1.16-.82-.09-.09.13-.11-.39-.61,0-.08-.16-.11-.16,0s-.1.11-.21.13a3.64,3.64,0,0,1-.72,0c-.24-.06-.17.34.14.44,1.34.1,1,.92.26.65-.13,0-.22,0-.08.27Z"/><path class="cls-1" d="M185.82,48.52c.45.73,1.13-.42,0-.86l-.37-.33c-.15-.21.06-.46.22-.33a.9.9,0,0,0,.83.15c.19-.11.36-.17.34.19a3.68,3.68,0,0,0,.28,1.6c.41,1.17-.88,1.14-1.46,0-.12-.36,0-.57.15-.42Z"/><path class="cls-1" d="M184.14,55.54a8.83,8.83,0,0,1,1.57,4.25c0,.37-.25.56-.51.22-.42-.69-1.13-2.2-1.66-3-.17-.42.11-.74.3-.46a10.84,10.84,0,0,1,1,1.85c.09.22.25.18.17-.09A10.23,10.23,0,0,0,184,56c-.16-.25.06-.64.19-.45Z"/><path class="cls-1" d="M183.41,57.31A16.71,16.71,0,0,1,185,60.39c.61,1.68-.66,2.82-1.41,1.67a26.55,26.55,0,0,1-1.31-2.82c-.18-.47.17-.74.4-.44A19,19,0,0,0,184,61.48c.27.47.88.11.58-.67a15.56,15.56,0,0,0-1.5-3.06c-.2-.48.17-.69.37-.44Z"/><path class="cls-1" d="M182.77,58.65c-.15-.35.15-1,.36-.54l1.14,2.27c.22.45-.29.66-.42.44l-1.08-2.17Z"/><path class="cls-1" d="M182.2,59.38a17.62,17.62,0,0,0,1.13,2.69c.73,1.47-.85,2.48-1.62,1.25L180,60.48a.32.32,0,1,1,.5-.38c.55.87,1.07,2.08,1.65,2.81.34.5,1,.19.66-.54a20.62,20.62,0,0,1-1.21-2.84c-.18-.32.37-.75.57-.15Z"/><path class="cls-1" d="M181.13,59.25,182.44,62c.27.65-.19.69-.4.36l-1.23-2.45c-.17-.29,0-.37,0-.51s.22-.38.33-.11Z"/><path class="cls-1" d="M179.65,60.42a13,13,0,0,1,1.56,3.11c.32,1.4-1,1.26-1.37.78a21.13,21.13,0,0,1-2.37-3.26c-.22-.4.25-.6.5-.34a24.78,24.78,0,0,0,2.23,3c.26.36.61-.06.44-.37a18,18,0,0,0-1.54-2.84c-.28-.34.35-.41.55-.12Z"/><path class="cls-1" d="M178.37,60.05a29.52,29.52,0,0,1,1.77,2.75c.14.27,0,.5-.25.29a7.58,7.58,0,0,1-1.8-2.78c0-.22.14-.45.28-.26Z"/><path class="cls-1" d="M176.91,60.82A16,16,0,0,1,179,63.91c.15.4,0,.54-.37.49-1.51-.53-2.67-2.47-3.58-3.92a.32.32,0,0,1,.53-.35c.66,1,1.36,2,2.17,3,.2.15.27,0,.15-.17a24,24,0,0,0-1.39-2c-.18-.33.19-.4.4-.15Z"/><path class="cls-1" d="M182.7,50.63l.05,2.24a1.73,1.73,0,0,1-.7,1.38c-.29.16-.35,0-.24-.5s.45-.43.38-1v-2c0-.46.43-.61.51-.11Z"/><path class="cls-1" d="M181.92,51a10.81,10.81,0,0,1-.24,3c-.38,1.11-1.66,1.36-1.87.34a7.07,7.07,0,0,1,.43-2.83c.11-.25.42-.26.41.08a10.76,10.76,0,0,0-.28,2.27c0,.55.42.41.78-.18a7.42,7.42,0,0,0,.26-2.7c0-.39.48-.59.51,0Z"/><path class="cls-1" d="M181.19,51.07a6.41,6.41,0,0,1-.18,2.42c-.06.25-.33.25-.36,0l.16-2.41c.06-.27.31-.38.38,0Z"/><path class="cls-1" d="M179.82,51.91l-.41,2.34c-.07.61-.6.92-1.46,1a1.15,1.15,0,0,1-1-.41.89.89,0,0,1,.08-.62c.27-.79.59-1.39.78-2.08.22-.43.55-.19.48.1L177.76,54c-.14.33-.14.58.18.6.51,0,.84-.29,1-1l.34-1.77c.12-.51.58-.37.56.07Z"/><path class="cls-1" d="M179,51.85a17.06,17.06,0,0,1-.32,1.94c-.22.5-.59.29-.49,0a16.11,16.11,0,0,0,.38-1.91c0-.24.42-.39.43,0Z"/><path class="cls-1" d="M177.5,52.47l-.7,1.87a1,1,0,0,1-1.39.4c-.45-.27-.4-.63-.17-1a13.09,13.09,0,0,0,.94-1.77c.1-.26.44-.24.34.15a9.18,9.18,0,0,1-.75,1.66c-.25.44.23.73.56.32a12.54,12.54,0,0,0,.88-1.83c.1-.26.37-.18.29.22Z"/><path class="cls-1" d="M177,52.31a4,4,0,0,1-.7,1.55c-.22.28-.47.07-.34-.22a7.22,7.22,0,0,0,.66-1.49c0-.19.38-.31.38.16Z"/><path class="cls-1" d="M175.81,52.22a3.33,3.33,0,0,1-.8,1.35c-.27.13-.36-.11-.25-.3a7.88,7.88,0,0,0,.75-1.18c.09-.21.35-.15.3.13Z"/><path class="cls-1" d="M174.53,53.35c-.1.14-.15.26,0,.36l.28.26c.17.21,0,.37-.26.37a.92.92,0,0,1-.66-.47.47.47,0,0,1,.13-.57,12.57,12.57,0,0,0,1-1.17c.16-.28.49-.11.27.31a4.54,4.54,0,0,1-.7.91Z"/><path class="cls-1" d="M175.18,55.19c-.58.76-.75,1.74,0,3.69.19.58-.1.89-.64,1.07s-.71.06-.74-.2a2.58,2.58,0,0,0-.14-1,16.47,16.47,0,0,1-.66-1.81,3,3,0,0,1,.68-2.42c.22-.32.8-.1.51.33a2.7,2.7,0,0,0-.57,1.72,13,13,0,0,0,.54,2.06c.14.4.38.21.32,0a13,13,0,0,1-.46-2.18,2.06,2.06,0,0,1,.61-1.56.31.31,0,0,1,.51.35Z"/><path class="cls-1" d="M175.46,55.19a3.68,3.68,0,0,0-.33,2.76,5.69,5.69,0,0,0,1,2.24,1.05,1.05,0,0,0,1.76-.43,2.06,2.06,0,0,0-.15-.89,5.32,5.32,0,0,1,0-2.92c.15-.43-.47-.51-.6-.21a5.45,5.45,0,0,0-.1,3.29c.11.54-.38.79-.67.39-.94-1.67-.91-2.88-.37-3.87.2-.47-.28-.74-.56-.36Z"/><path class="cls-1" d="M176.91,55.52c-.34.51-.47,1.38-.14,3,.13.47-.22.48-.34.28a4.27,4.27,0,0,1-.06-3.5c.2-.38.68-.18.54.19Z"/><path class="cls-1" d="M180.31,55.57a12.19,12.19,0,0,0,.05,3.34,1.18,1.18,0,0,1-2.35,0,6.21,6.21,0,0,1,.08-3.13.29.29,0,0,1,.58.06,5.11,5.11,0,0,0,.1,2.89c.22.36.5.4.68.2s.06-.61,0-.86a9.56,9.56,0,0,1,.22-2.69c.06-.35.64-.24.6.18Z"/><path class="cls-1" d="M179.38,55.55a12.89,12.89,0,0,0,0,2.63c-.06.43-.5.41-.58.1a9.56,9.56,0,0,1,.19-2.74c.08-.3.43-.26.41,0Z"/><path class="cls-1" d="M181.94,54.73a4.76,4.76,0,0,1,.55,3.24c-.49,1-1.22,1.21-1.66.65a6.34,6.34,0,0,1-.4-3.11.29.29,0,1,1,.58,0,8.36,8.36,0,0,0,.15,2.24c.12.37.59.35.71-.1a5.79,5.79,0,0,0-.27-2.32c-.07-.44.05-.88.34-.56Z"/><path class="cls-1" d="M181.49,55.21a17.88,17.88,0,0,0,.19,1.85c0,.49-.4.24-.38.09a8.85,8.85,0,0,1-.18-2c0-.26.29-.35.37,0Z"/><path class="cls-1" d="M183.19,53.75a2.29,2.29,0,0,1,.22,2.52c-.17.22-.35.29-.55.13a3.91,3.91,0,0,1-.7-1.69c0-.19,0-.34.18-.42a.33.33,0,0,1,.51,0l.08.3c.06.15,0,.22-.13.22s-.09.58.16.62.23,0,.26-.12c0-.57-.33-.87-.3-1.48,0-.24.12-.28.27-.12Z"/><path class="cls-1" d="M184,53.32c.41.18.58.9,1,1,.13,0,.24.15.08.31l-.41.5c-.31.18-.48.1-.6-.11s-.11-.22,0-.31c.36-.36-.24-.74-.37-1.09s.09-.34.3-.25Z"/><path class="cls-1" d="M185.33,52a1.5,1.5,0,0,0,.9.57c.22,0,.27.11.22.35-.19.53-.62.71-.95,1.15a.38.38,0,0,1-.57,0,4,4,0,0,1-.7-.81.24.24,0,0,1,.31-.36l.5.42c.18.16.49-.11.34-.39l-.45-.54c-.14-.27.19-.55.4-.35Z"/><path class="cls-1" d="M186,51.22c.38.44.67-.18.37-.56l-.43-.4a.46.46,0,0,1-.08-.51c0-.14.09-.17.18-.08a5,5,0,0,0,.85.64,1.2,1.2,0,0,1,.3.15.42.42,0,0,1,0,.29,3.65,3.65,0,0,1-.34,1.24c-.4.59-.85.37-1.35-.21-.12-.19-.11-.38.14-.6s.22-.13.32,0Z"/><path class="cls-1" d="M189,76.54a1.74,1.74,0,0,0,2.14-.67c.79-1.12,1.61-2.18,2.47-1.72.32.53.83.2.61-.36,0-.44-.88,0-.87-.77,0-.35.08-.33-.19-.25-.54.22-.52.52-.76.85s-.6.24-.77-.11-.12-.29-.3,0c-.33.41.05.85-.36,1.53-.51.86-1.06,1.17-1.66,1-.35-.13-.5.41-.31.52Z"/><path class="cls-1" d="M188.35,76.86c1.94.37,3.14,1.36,6.16-.13a.28.28,0,0,0,.2-.34c0-.29.15-.47.6-.55.29,0,.32,0,.25.19-.22.47-.07.66.47.59.24,0,.17-.08.15.22s-.31.39-.84.4a.29.29,0,0,0-.29.11,2.18,2.18,0,0,1-.94.47c-.15.05-.16.05-.15.2s.17.29.28.32.12,0,0,.18c-.35.26-.77.14-1.21-.21-.08-.11-.17-.09-.27-.08a6.72,6.72,0,0,1-2.49,0c-.17-.06-.23-.06-.28,0s0,.38.07.39.07.07-.12.12c-.39.09-.61-.16-.72-.64,0-.25-.19-.35-.41-.4l-.86-.3c-.24-.18-.17-.51.42-.55Z"/><path class="cls-1" d="M194.91,73.54c1-.82,2.23.54,1.56,1.53-.91.81-1.63.84-2.23.45-.5-.74-.06-1.37.67-2Zm.19.48c.57-.49,1.19-.11.93.51a1.09,1.09,0,0,1-1.28.44c-.25-.2-.13-.52.35-1Z"/><path class="cls-1" d="M197.18,74.17a2.46,2.46,0,0,1,.52-.15c.17,0,.31,0,.33.25a1.15,1.15,0,0,0,0,.37c0,.19-.08.29-.28.26a2.49,2.49,0,0,1-.64-.19.3.3,0,0,1,.07-.54Z"/><path class="cls-1" d="M197.11,73c.17-.17.25-.14.36,0a2.16,2.16,0,0,0,.29.4c.08.13.05.19,0,.29a1.39,1.39,0,0,1-.7.32c-.36,0-.39-.25-.33-.51a1.22,1.22,0,0,1,.42-.51Z"/><path class="cls-1" d="M196.09,72.73c-.05.36,0,.55.47.47a1,1,0,0,0,.47-.36c.11-.12.07-.22-.06-.33a1.37,1.37,0,0,1-.27-.23c-.17-.16-.3-.16-.41,0a1.42,1.42,0,0,0-.2.41Z"/><path class="cls-1" d="M197.8,72.63c-.29.17,0,.83.34.58a.58.58,0,0,1,.65-.21c.37,0,.54-.55.22-.89s-.81-.22-.84.07a.47.47,0,0,1-.37.45Z"/><path class="cls-1" d="M179.16,72.44,178.6,72a.6.6,0,0,1-.21-.48c0-.57-.27-.76-.53-.85s-.18,0-.19.15l0,.4c-.06.13-.16.11-.28.09-1.61-.16-1.26-1.5-2.33-1.35-.26,0-.23,0,.11.31.12.15.17.35-.16.48a1.32,1.32,0,0,0-.42.07c-.48.23-.62-.44-1.37-.21-.11.07-.19.12,0,.18a.71.71,0,0,1,.28.92l-.7,2a1.49,1.49,0,0,0,.4,1.49c.66.26.85.51.36.77-.15,0-.15,0,0,.16a.91.91,0,0,0,1-.16.72.72,0,0,1,.73-.13c.95.27,1.33.54.71.86-.13,0-.16,0,.09.15.92.22,1-.81,2.1-.36.26.11.38.26.19.45s-.15.11,0,.16a.88.88,0,0,0,1-.65c.17-.26.3-.32.7-.47a1,1,0,0,0,.29-.63c0-.25-.07-.36-.3-.25-1.84,1-3.8.43-6.09-.52a.7.7,0,0,1-.4-.87l.56-1.65c.67-1.32,2.42-.71,4.76.92.27.28.37-.29.16-.52Z"/><path class="cls-1" d="M171.88,71.22c-.22-.22,0-.55.28-.4a2.62,2.62,0,0,1,1,1c.13.24-.16.49-.35.33a3.81,3.81,0,0,0-.92-1Z"/><path class="cls-1" d="M172.25,73.28c.41-.14.53.41.12.71a7,7,0,0,1-2.35.2.34.34,0,0,0-.33.07,1,1,0,0,1-1.16.13c-.09,0-.08-.08,0-.11.33-.2.27-.34,0-.46l-1.33-.64a.2.2,0,0,0-.27,0,1,1,0,0,1-1.06,0c-.15-.11-.15-.18,0-.19.36,0,.38-.41.38-.92a4.08,4.08,0,0,1,1.21-2.61.4.4,0,0,0,0-.66c-.09,0-.09-.06,0-.09.61-.2.77.73,1.54.62.07,0,.14-.07.17.14,0,.37-.38.47-1,.37a.25.25,0,0,0-.23.15,4.72,4.72,0,0,0-.86,1.64c-.07.4,0,.66.2.74a5.46,5.46,0,0,0,4.84.91Z"/><path class="cls-1" d="M169.78,69.22c.58-.6,2.23-.23,1.85,1.41-.35,1-.88,1.36-1.63,1.1a1.93,1.93,0,0,1-.22-2.51Zm.31.46c.33-.43,1.08-.15.8.73-.2.67-.5.82-.87.53a1.41,1.41,0,0,1,.07-1.26Z"/><path class="cls-1" d="M171.77,68.4c.12-.18.26-.24.41-.15l.33.24a.31.31,0,0,1,.09.44,1.07,1.07,0,0,1-.6.33.34.34,0,0,1-.41-.3.84.84,0,0,1,.18-.56Z"/><path class="cls-1" d="M170.73,68c0-.29.13-.34.33-.29l.42.15c.24.07.3.24.15.49a2.22,2.22,0,0,1-.28.31c-.27.18-.46.15-.59-.09l0-.57Z"/><path class="cls-1" d="M169.66,68.25c-.08-.4,0-.44.21-.47a2,2,0,0,0,.41,0c.21-.08.32,0,.29.32v.23a.59.59,0,0,1-.08.32c-.31.53-.72,0-.83-.37Z"/><path class="cls-1" d="M165.93,71a5.14,5.14,0,0,1-3.74-2.5.88.88,0,0,1,.06-1,3.29,3.29,0,0,1,1.33-1.06.83.83,0,0,1,1,.07,6.72,6.72,0,0,1,1.81,3c0,.51.51.5.6,0l-.13-.59c0-.22,0-.34,0-.41.45-.58.44-1,.12-1.35-.11-.12-.16-.2-.19,0-.22.59-.44.58-.66.18A5.13,5.13,0,0,0,164.83,66c-.17-.11-.23-.22-.19-.33-.1-.74-.38-.76-.66-.82s-.21,0-.14.15c.13.41-.08.68-.56.82a3.52,3.52,0,0,0-2,1.76c-.11.29-.33.3-.62.07-.14-.19-.19-.12-.18.14a.86.86,0,0,0,.62.88.3.3,0,0,1,.32.25,2.47,2.47,0,0,0,.49.68c.28.24.1.33-.3.38-.18-.07-.19,0,0,.17a1.1,1.1,0,0,0,.91.33.35.35,0,0,1,.36.09l.58.37c.26.14.23.29-.1.47-.15,0-.21.09,0,.17a.74.74,0,0,0,1.07-.11.22.22,0,0,1,.3-.06,2.55,2.55,0,0,0,1.32.12.25.25,0,0,0-.07-.5Z"/><path class="cls-1" d="M160.56,64c.45-.77,1.37-.92,2.09.11s.31,2.23-.68,2.09a1.8,1.8,0,0,1-1.41-2.2Zm.46.48c0-.56.73-.75,1,.06s.17,1-.25,1a1.31,1.31,0,0,1-.77-1.06Z"/><path class="cls-1" d="M161.2,62.48c0-.22,0-.37.18-.41a1,1,0,0,1,.62,0,.32.32,0,0,1,.21.35A1.69,1.69,0,0,1,162,63c-.41.51-.77.09-.84-.53Z"/><path class="cls-1" d="M160.19,62.81c-.42-.52,1-1,.93-.33.22,1-.43,1.21-.93.33Z"/><path class="cls-1" d="M159.43,63.54c.7.66,1.53.26.66-.66-.25-.4-1,.47-.66.66Z"/><path class="cls-1" d="M160,61.89c0-.14-.07-.23-.22-.29-1.42-.84,1-1.74.81-.38a.23.23,0,0,0,0,.3c.38.54-.37.94-.56.37Z"/><path class="cls-1" d="M172.36,75a1,1,0,1,1-1.46,1.29c-.85-1.32.77-2.15,1.46-1.29Zm-1,.33c-.37.49.17.88.5.6s-.17-.89-.5-.6Z"/><path class="cls-1" d="M168,78.23a1,1,0,1,1-1.45,1.29c-.84-1.3.78-2.14,1.45-1.29Zm-1,.33c-.37.5.17.88.5.61.35-.42-.17-.9-.5-.61Z"/><path class="cls-1" d="M190.24,81.5a1,1,0,1,1-1.46,1.31c-.85-1.32.77-2.14,1.46-1.31Zm-1,.35c-.37.48.16.86.49.59s-.16-.89-.49-.59Z"/><path class="cls-1" d="M174.16,78.37c.25.16.22.42-.08.44a3,3,0,0,1-2-1.68c-.13-.37.26-.73.53-.3a4.12,4.12,0,0,0,1.51,1.54Z"/><path class="cls-1" d="M172.4,81.64a6.35,6.35,0,0,1,1.55.21c.13.05.18.07.22.23l0,.41c0,.16-.06.24-.24.17a5,5,0,0,0-1.52-.52.25.25,0,0,1,0-.5Z"/><path class="cls-1" d="M169.25,81.6c2.83-2.3,4,2,.41.92-.21-.12-.21-.22,0-.31a3.51,3.51,0,0,1,.94-.43.42.42,0,0,1,.46.08c.21.17.51-.33,0-.38a1.63,1.63,0,0,0-1.1.4c-.56.27-1,.11-.71-.28Z"/><path class="cls-1" d="M164.28,74.08c3.69-.11,2.08,3.92-.22,1-.09-.21,0-.29.2-.25a4.41,4.41,0,0,1,1,.23c.22.09.32.18.34.35s.62,0,.22-.29a1.61,1.61,0,0,0-1.12-.36c-.62-.12-.88-.51-.42-.63Z"/><path class="cls-1" d="M192.68,79.11c-3.32-1.44-3.26,3-.13,1,.16-.16.13-.26-.07-.3a4.54,4.54,0,0,0-1-.15.46.46,0,0,0-.43.2c-.15.22-.57-.17-.09-.35a1.55,1.55,0,0,1,1.15.06c.61.12,1-.15.59-.45Z"/><path class="cls-1" d="M186.45,79.56a8.58,8.58,0,0,0,3-.23c.36-.19.73.21.33.46a6,6,0,0,1-3.25.35c-.58-.08-.47-.56-.07-.58Z"/><path class="cls-1" d="M188.39,81.52c.28.31-.12.53-.44.4-1.36-.91-.31-1.49,1.68-1.85.41-.08.52.42.25.5l-1.47.47c-.2,0-.29.13-.18.26l.16.22Z"/><path class="cls-1" d="M186.36,82.51l1.57-.36c.3-.08.57.45.22.62l-1.46.34c-.48.11-.62-.46-.33-.6Z"/><path class="cls-1" d="M168.86,78.66c3,.35,4.9,1.47,3.63,2.69-.42.11-.53,0-.55-.27s.58-.33.07-.74a8.76,8.76,0,0,0-3.2-1.12c-.41-.12-.36-.55.05-.56Z"/><path class="cls-1" d="M166.9,76c3.1,1.44,2.33,2.72,1.39,2.15-.09-.06-.1-.16,0-.28s.1-.18,0-.27a9.89,9.89,0,0,0-1.58-1.2c-.24-.18-.13-.51.22-.4Z"/><path class="cls-1" d="M166.9,75.6A17.63,17.63,0,0,0,169.33,77a9.54,9.54,0,0,0,1.78.72c.83,0,.92-.61.48-.85s-.13.34-.75.15a23.76,23.76,0,0,1-3.57-1.78c-.37-.19-.59.11-.37.33Z"/><path class="cls-1" d="M178.61,85.36a.41.41,0,0,1,.8,0,5.56,5.56,0,0,1,0,1.58.44.44,0,0,1-.83.05,3,3,0,0,1,0-1.65Z"/><path class="cls-1" d="M180.14,85.69c0-.83.89-.75.92,0l0,1.26c0,.6-.88.56-.89.12Z"/><path class="cls-1" d="M175.42,87.31c.36-.1.76.09.58.55-.11.14-.3.15-.54.11s-.39-.58,0-.66Z"/><path class="cls-1" d="M183.8,88c.4.13.36.52,0,.7s-.67-.07-.56-.41a.46.46,0,0,1,.56-.29Z"/><path class="cls-1" d="M176,86.94a3.1,3.1,0,0,1,1.9-.7c.33-.06.44.57,0,.71a2.1,2.1,0,0,0-1.09.34.43.43,0,0,1-.49.14l-.36-.29c-.1,0-.06-.13,0-.2Z"/><path class="cls-1" d="M181.46,86.54a3.69,3.69,0,0,1,1.89,1c.08.1.11.18,0,.25L183,88c-.15.09-.2,0-.29-.08a2.77,2.77,0,0,0-1.17-.7c-.1,0-.17-.08-.17-.22,0-.33,0-.52.14-.48Z"/><path class="cls-1" d="M180.37,89c.54.4,1.19.54,1.63.92.12.1.22.21.08.37l-.23.28a.37.37,0,0,1-.53,0c-.51-.31-1-.57-1.41-.81s0-.91.46-.74Z"/><path class="cls-1" d="M178,87.34c.18-.11.31-.14.42,0l.37.27c.13.08.18.17,0,.3-.69.53-1.61.67-2.07,1.44a1.3,1.3,0,0,1-.93.46c-.15,0-.22-.09-.2-.31.08-1.06,1.4-1.45,2.38-2.11Z"/><path class="cls-1" d="M179.7,87.9a.56.56,0,0,1,.52-.22c.65,0,.8,0,.44.52-.84,1-1.95,1.09-2.43,1.9-.1.23-.25.22-.41.14L177.5,90c-.19-.22-.11-.43.11-.62.61-.55,1.47-.84,2.09-1.43Z"/><path class="cls-1" d="M181,88c.14-.18.28-.14.42,0,.63.51,1.73.69,2.5,1.87.06.13,0,.21-.1.27a1.55,1.55,0,0,1-.61,0,1,1,0,0,1-.5-.33,2.31,2.31,0,0,0-.6-.48c-.39-.21-.76-.33-1.15-.58s-.19-.45,0-.73Z"/><path class="cls-1" d="M178.08,85.26a3.74,3.74,0,0,0-2.06.19.69.69,0,0,1-.84-.16c-.58-.58-1-.84-1.16-.43s-.37.33-.58,0l-.56-1c-.11-.37-.48-.48-1-.43-.3,0-.43.19-.37.47l.2.47c.2.35,0,.44-.26.15-.63-.81-1.17-1.19-1.76-1.19-.26,0-.34.11-.27.38l.15.45c.08.27,0,.22-.2.12-.59-.51-1.18-.84-1.74-.53-.15.09-.26.19-.1.41s.11.25-.08.3l-1.14.36c-.37.19-.57.41-.22.73a4.91,4.91,0,0,0,2.45.19c.2,0,.31.1.17.26a1.29,1.29,0,0,1-.48.44c-.13.07-.13.17,0,.32a.89.89,0,0,0,1,.23l1.13-.45c.21-.07.27,0,.19.19l-.48.54c-.15.23-.15.44.22.59a2.2,2.2,0,0,0,2-.66c.31-.29.55-.18.48,0l-.37.56c-.14.22,0,.4.28.44,1.12,0,1.74-1.41,2.18-1.44.2-.11.44,0,.78-.22.74-.44,1.4-.77,1.79-.63.87.11,1.13-.52.62-.73Z"/><path class="cls-1" d="M167.17,83.25a3.9,3.9,0,0,1-1.58-2.74c-.11-.37-.3-.34-.4-.11s-.45.33-.45,0c0-1.32-.06-2-.48-2.38s-.62-.26-.72.11l-.15.66c-.06.42-.37.22-.34,0,0-1.16,0-2.13-.42-2.39-.23-.2-.4-.17-.46.06-.13.61-.2.66-.55.21-.5-.71-.75-.77-.77-.16,0,.94.15,1.11-.76,1-.4,0-.59.24-.29.52l1,.66c.19.14.31.25,0,.25l-1-.2c-.3,0-.38.11-.27.36.27.62,1.1,1.1,2.5,1.43.22.07.22.26,0,.25l-1.36,0c-.27,0-.27.17-.22.32.39.66,1.06,1.11,2.49,1,.18,0,.38-.08.38.22s0,.43.22.47a3.5,3.5,0,0,1,3.29.79c.37.28.62-.13.33-.39Z"/><path class="cls-1" d="M166.53,80.71c.35-.29.94-.2.9.3a.65.65,0,0,1-.66.29.34.34,0,0,1-.24-.59Z"/><path class="cls-1" d="M163.87,83.5c.39-.15.65,0,.73.49,0,.33-.25.4-.61.36a.49.49,0,0,1-.12-.85Z"/><path class="cls-1" d="M166.65,81.55a2,2,0,0,0,.7-.1c.52-.18.76.34.47.59a.42.42,0,0,0-.18.51c.41,1,0,1-.5.25a1,1,0,0,0-.57-.53c-.37-.15-.35-.72.08-.72Z"/><path class="cls-1" d="M164.7,83.72c-.28-.5.09-.88.56-.57a.84.84,0,0,0,.66.29,1,1,0,0,1,.65.21c.15.15.13.27,0,.27-.42,0-.79,0-1,.4s-.67.42-.77,0a1.61,1.61,0,0,0-.12-.63Z"/><path class="cls-1" d="M160.39,76.76a2.5,2.5,0,0,1-.95-3.62c.31-.77-.07-1.3-.52-.74-.25.23-.47.07-.36-.28.41-1.32.37-2.17-.31-2.35-.51-.16-.72.22-.79.87-.14.43-.49.49-.42.08.26-.75.26-1.25-.06-1.46s-.51,0-.59.39-.44.19-.54-.14-.37-.33-.56-.2a.57.57,0,0,1-.66.15c-.41,0-.44.18-.3.45.33.37.24.63-.18.4s-.64.22-.44.55a2.64,2.64,0,0,0,1.08.81c.28.12.35.25,0,.21-.6-.11-.6.11-.52.35.1.64.9,1,2,1.32.31.1.33.32.07.28l-.42,0c-.25,0-.31.1-.17.3a2.78,2.78,0,0,0,1.73,1,1.61,1.61,0,0,1,1,.84,5.62,5.62,0,0,0,1.6,1.32c.4.17.56-.15.26-.45Z"/><path class="cls-1" d="M159.8,74.26a2.91,2.91,0,0,0,.88.27c.33,0,.5.5.19.63s-.59.2-.56.75-.44.53-.5.24a2.3,2.3,0,0,0-.35-1.27c-.22-.38-.09-.73.34-.62Z"/><path class="cls-1" d="M160.21,73.39c.46-.08.76,0,.73.54-.07.23-.3.29-.62.23-.53-.11-.51-.63-.11-.77Z"/><path class="cls-1" d="M156.73,76a.42.42,0,0,1,.76.2c.1.37,0,.59-.39.63s-.55-.61-.37-.83Z"/><path class="cls-1" d="M157.64,76.22a.4.4,0,0,1,.76-.19,1.07,1.07,0,0,0,.55.58c.71.41.73.77.18.67s-.68-.23-.8,0c-.3.4-.92.19-.8-.2a2,2,0,0,0,.11-.81Z"/><path class="cls-1" d="M155.52,68.45c-.42-1-.49-1.74-.12-2a.41.41,0,0,0,0-.54c-.16-.16-.09-.24.09-.3s.36-.22.57-.52c.75-.66.31-1.36-.55-.8-.33.18-.47-.19-.17-.27.85-.35,1.44-.76,1.33-1.41,0-.31-.16-.4-.39-.24-.61.28-.79.23-.51-.14a1.22,1.22,0,0,0,.42-1.28c-.08-.26-.23-.39-.55-.21s-.63.43-.93.18c-.55-.26-.84.24-.91,1.34,0,.46-.21.35-.54-.14-.11-.18-.3-.11-.57.2a.71.71,0,0,0-.1.91l.37.65c.14.33,0,.4-.16.33-.68-.39-.91-.23-.71.45a1.37,1.37,0,0,0,1,.87.57.57,0,0,1,.38.62c0,.22.14.45.61.66.29.12.56.38.8,1.48a1,1,0,0,0,.48.69c.26.19.51-.11.2-.51Z"/><path class="cls-1" d="M156.91,65.8c.47,0,.69.26.51.69a.64.64,0,0,1-.77,0,.39.39,0,0,1,.26-.7Z"/><path class="cls-1" d="M152.58,66.54c.43-.08.63.18.51.69a.47.47,0,0,1-.72.16.53.53,0,0,1,.21-.85Z"/><path class="cls-1" d="M153.36,67a.42.42,0,0,1,.77.22l.11.37.47.62c.19.29,0,.58-.22.37s-.69-.57-.93-.34c-.43.17-.75-.08-.61-.44a6,6,0,0,0,.41-.8Z"/><path class="cls-1" d="M156.24,66.44a6.27,6.27,0,0,0,.77.46c.38.09.51.69-.1.71-.27,0-.48.22-.6.65s-.31.26-.42,0c-.13-.44.17-.94-.06-1.24s.11-.74.41-.58Z"/><path class="cls-1" d="M192.07,83.17c-.9-1.27,1.74-1.56,1.11,0a.38.38,0,0,0-.14.47c.22.7-.95.68-.77,0,.08-.19,0-.34-.2-.49Z"/><path class="cls-1" d="M199,78c-1.37-.66.78-2.23,1-.57a.4.4,0,0,0,.11.49c.53.49-.51,1.05-.64.41,0-.21-.2-.3-.43-.33Z"/><path class="cls-1" d="M203,70.49c-1.45-.36.22-2.34.77-.81,0,.18,0,.35.23.44.63.33-.15,1.21-.52.56-.07-.18-.25-.22-.48-.19Z"/><path class="cls-1" d="M194.31,85.53c1.55,0,.15,2.3-.68.88a.37.37,0,0,0-.29-.39c-.68-.25.07-1.16.46-.62.09.18.29.19.51.13Z"/><path class="cls-1" d="M201.93,79c1.3-.62,1.25,1.93-.16,1.09a.34.34,0,0,0-.44-.19c-.7.11-.59-.94.09-.76.16.1.33,0,.51-.14Z"/><path class="cls-1" d="M206.11,70.58c1.17-1,1.58,1.65.16,1.1a.52.52,0,0,0-.56-.08c-.77.17-.72-.92-.08-.78.19.07.34,0,.48-.24Z"/><path class="cls-1" d="M181.63,85.51a13.63,13.63,0,0,1,2.75,1,1.27,1.27,0,0,0,1.14,0c2.2-.76,4-1.46,6.09-1.31.37,0,.46.29-.23.32a2.28,2.28,0,0,0-1.17.21c-1.56.56-2.77,1.29-3.61,1.17-1,0-1,.39-.57.46a4.81,4.81,0,0,0,2.46-.42,8.28,8.28,0,0,1,3.41-1.25c.33,0,.48,0,.18.34a8.91,8.91,0,0,1-3.58,1.66c-1.25.31-2,.76-2.83.44a7.34,7.34,0,0,1-1.77-1,6,6,0,0,0-2.4-.86c-.45-.11-.3-.83.13-.73Z"/><path class="cls-1" d="M185.5,88.31c1.82.74,4.58-1.11,5.84-1.1.45,0,.55.24.28.35l-3.23,1c-.34.09-.3.26-.07.26,1.79-.29,2.92-1.32,4-1.17.22,0,.3.16,0,.3a21.85,21.85,0,0,1-4.21,1.39c-1.61.07-2.31-.38-2.62-1.06Z"/><path class="cls-1" d="M184.24,86.08c1.07-.06,1.73-1,2.87-1.62.33-.21.68-.07,1.23-.3a2,2,0,0,1,2-.15c.22.19.29.3,0,.27a2.36,2.36,0,0,0-1.65.41l-1.23.25c-.59.14-.82.43-.37.37l.59-.11c.49,0,.82-.42,1.43-.45a7.74,7.74,0,0,0,1.34-.29c.31-.1.41.48,0,.52-.62.13-1.19.13-1.85.33a26.26,26.26,0,0,0-3.11,1.1c-.35.22-1.16,0-1.28-.33Z"/><path class="cls-1" d="M192.53,84.61c.15-.47,1.67-.8,2.92-2.34a22.63,22.63,0,0,1,3.82-3c.35-.31.35-.16.29.07a3.43,3.43,0,0,1-1.7,1.76,9.2,9.2,0,0,0-2.62,2.16c-.22.34-.08.36.43,0a7.65,7.65,0,0,1,2.19-1.76,4.57,4.57,0,0,0,1.76-1.78c.16-.31.24-.22.22.31a2.71,2.71,0,0,1-1.37,2,10.69,10.69,0,0,1-3.13,2,3.06,3.06,0,0,0-2.17.92c-.36.5-1,0-.64-.36Z"/><path class="cls-1" d="M195,84.32a8.24,8.24,0,0,0,4.7-3c.24-.22.58-.19.51.11a7.36,7.36,0,0,1-2.78,2.48c-.31.18-.27.41,0,.3a10.1,10.1,0,0,0,3.07-2.69c.15-.21.26-.11.27.08.09.4-.24.87-.85,1.37a8.68,8.68,0,0,1-2.16,1.68,12.79,12.79,0,0,1-2.76.07c-.26,0-.33-.26,0-.36Z"/><path class="cls-1" d="M193.88,83a5.35,5.35,0,0,0,.29-1.27,2.25,2.25,0,0,1,1-1.33,18,18,0,0,0,2.22-1.9c.11-.13.19-.14.22.18,0,.53-.8.89-1.81,1.88l-.81.83c-.2.35.06.35.36.07a9,9,0,0,1,1.68-1.7c.32-.24.4-.13.3.21a1.78,1.78,0,0,1-.88,1A5.5,5.5,0,0,0,195,82.48a2.13,2.13,0,0,1-.95.83c-.18,0-.19-.16-.14-.33Z"/><path class="cls-1" d="M200.15,79a4.7,4.7,0,0,0,1.21-2.54,16.25,16.25,0,0,1,2.31-4.21c.31-.26.39-.21.28.17-.59,1.58-1.52,3-2,4.23-.09.32,0,.37.22.19,1-1.22,1.47-3.48,2.33-4.92.34-.49.38-.23.38.14a10.5,10.5,0,0,1-1.74,4.63c-.45.55-1.09.75-1.35,1.25a5.2,5.2,0,0,1-1.13,1.44c-.45.38-.65-.14-.47-.38Z"/><path class="cls-1" d="M200.58,77.19c-1.24-2.08.55-4.25,1.36-5.12.32-.26.48-.11.37.12a2.18,2.18,0,0,0-.59,1.17,4.71,4.71,0,0,1-.81,1.52c-.32.61-.15.79.05.52.75-1.12,1.09-2.67,1.63-3.23.27-.31.48-.07.44.22a13.34,13.34,0,0,1-1.39,2.71,2.85,2.85,0,0,0-.53,1.34c-.13.65-.22,1.12-.53.75Z"/><path class="cls-1" d="M202.26,77.78a6.09,6.09,0,0,0,1.84-2.26,2.7,2.7,0,0,1,1.37-2.08c.53-.22.49-.09.17.29-.83.88-.94,2.19-1.76,3.07-.21.29-.18.36.11.23.59-.35,1-2.55,2-3.48.32-.2.45-.2.23.27-.59,1.15-.86,2.5-1.74,3.54a2.74,2.74,0,0,1-.75.4c-.34.11-.66.15-1,.28-.5.18-.72.14-.45-.26Z"/><path class="cls-1" d="M204.1,69.09c-.94-.84-1.29-2.15-.67-4.45.15-.34,0-.34.24-.16.72.93-.41,1.08.18,3.37.1.23.3.18.22,0a3,3,0,0,1-.07-1.77,1.15,1.15,0,0,0,.06-.51c-.06-.25,0-.29.25-.15s.28.56.13,1.4a2.8,2.8,0,0,0,0,1.32,1.27,1.27,0,0,1,0,1c-.09.22-.23.18-.38,0Z"/><path class="cls-1" d="M204.18,71.07a25.78,25.78,0,0,0,.54-3c0-1.79.22-3.21.81-3.78.22-.18.37-.2.41.16a2.25,2.25,0,0,1-.38,1.57,5.6,5.6,0,0,0-.32,2.12c0,.27.34.4.37,0a4.48,4.48,0,0,1,.32-2.15,2,2,0,0,0,.23-1.44c0-.29.07-.28.25-.1s.3.36.3,1.14a7.61,7.61,0,0,1-.48,2.53A18.73,18.73,0,0,0,205,70.19a1.43,1.43,0,0,0-.16.93c0,.51-.69.44-.61-.05Z"/><path class="cls-1" d="M205.38,69.91l1.13-1.65a6.8,6.8,0,0,0,.46-2.78c0-.29.07-.36.24-.23a.6.6,0,0,1,.22.75l-.31,1.41-.22.93c-.05.29.21.31.22,0a2.61,2.61,0,0,1,.33-1.24,3.35,3.35,0,0,0,.07-1.85c0-.25,0-.25.25,0a1.44,1.44,0,0,1,.28,1.37,1.62,1.62,0,0,0-.14.87,1.74,1.74,0,0,1-.43,1.24l-1.55,1.32c-.68.41-.72.2-.55-.17Z"/><path class="cls-1" d="M152.36,58.21l1.64.26V58.4a.47.47,0,0,0-.18-.48,1.77,1.77,0,0,0-.67-.28v-.09l2.09.33V58a1.73,1.73,0,0,0-.58,0,.73.73,0,0,0-.33.17.65.65,0,0,0-.12.33l1.12.17a1.35,1.35,0,0,0,.42,0,.19.19,0,0,0,.13-.07.34.34,0,0,0,.07-.18l0-.19a1,1,0,0,0-.15-.77,1.49,1.49,0,0,0-.73-.51v-.09l1.26.35L156,60h-.11l0-.11a.45.45,0,0,0,0-.24.33.33,0,0,0-.14-.11l-.36-.09-2.64-.41-.33,0a.48.48,0,0,0-.18.07.41.41,0,0,0-.11.24l0,.11-.11,0,.41-2.68,1.18.19V57a2.35,2.35,0,0,0-.66.1.62.62,0,0,0-.32.32,1.77,1.77,0,0,0-.14.48l0,.33Z"/><path class="cls-1" d="M152.92,53.27l1.31.3v.1a1.39,1.39,0,0,0-.88.14.71.71,0,0,0-.44.48.54.54,0,0,0,.06.42.65.65,0,0,0,.58.24,1,1,0,0,0,.32-.15c.08-.06.23-.2.47-.42a2.4,2.4,0,0,1,.82-.59,1.29,1.29,0,0,1,.73,0,1.33,1.33,0,0,1,.78.52,1.07,1.07,0,0,1,.17.87,2.18,2.18,0,0,1-.11.27,1.84,1.84,0,0,1-.22.3.33.33,0,0,0-.11.17.27.27,0,0,0,0,.14.36.36,0,0,0,.15.15l0,.08-1.48-.37v-.08a2,2,0,0,0,1.06-.15.85.85,0,0,0,.48-.55.53.53,0,0,0-.08-.46.64.64,0,0,0-.37-.26.71.71,0,0,0-.29,0,.86.86,0,0,0-.29.11,4.11,4.11,0,0,0-.41.36,4.37,4.37,0,0,1-.59.49,1.42,1.42,0,0,1-.5.2,1.55,1.55,0,0,1-.52,0,1.26,1.26,0,0,1-.73-.48.9.9,0,0,1-.16-.79.7.7,0,0,1,.11-.27,1.64,1.64,0,0,1,.19-.24.5.5,0,0,0,.15-.2.1.1,0,0,0,0-.1s-.08-.07-.2-.12l0-.07Z"/><path class="cls-1" d="M154.57,49.51l1,.44,0,.09A1.63,1.63,0,0,0,155,50a.54.54,0,0,0-.51.41l-.1.22,2.88,1.24a1.67,1.67,0,0,0,.37.14.47.47,0,0,0,.16,0,.51.51,0,0,0,.14-.18l0-.1.1,0-.65,1.56-.1,0,.05-.09a.5.5,0,0,0,0-.24.35.35,0,0,0-.09-.15s-.15-.09-.35-.18l-2.87-1.23-.08.2a.58.58,0,0,0,0,.51,1.29,1.29,0,0,0,.54.52l0,.09-1-.44Z"/><path class="cls-1" d="M158.23,49l-.58,1,.27.32a1,1,0,0,0,.24.23.32.32,0,0,0,.28,0,1.23,1.23,0,0,0,.22-.23l.09.05-.55.92-.08-.05a.56.56,0,0,0,0-.34,3.87,3.87,0,0,0-.39-.57l-2.2-2.68,0,0,3.44.74a1.78,1.78,0,0,0,.65.07.32.32,0,0,0,.22-.14l.08.06-.79,1.35-.09-.06,0,0a.54.54,0,0,0,.07-.27.22.22,0,0,0-.1-.12.51.51,0,0,0-.1,0l-.23-.06-.51-.12Zm-.23,0-1.45-.32.95,1.16.5-.84Z"/><path class="cls-1" d="M160.17,48l-.09-.07.06-.08a.37.37,0,0,0,.09-.2.28.28,0,0,0-.06-.18,1.44,1.44,0,0,0-.29-.25l-2.14-1.62a1.33,1.33,0,0,0-.32-.22.22.22,0,0,0-.18,0,.31.31,0,0,0-.16.13l-.07.09-.08-.07.83-1.16a2,2,0,0,1,.72-.63,1.37,1.37,0,0,1,1-.08,2.7,2.7,0,0,1,1,.49,3.12,3.12,0,0,1,.57.58,1.83,1.83,0,0,1,.3.59,1.49,1.49,0,0,1,.07.55,1.72,1.72,0,0,1-.15.58,1.5,1.5,0,0,1-.24.38L160.17,48Zm-2.34-3.31,2.53,1.92a1.11,1.11,0,0,0,.27.17h.11a.27.27,0,0,0,.13-.13A.65.65,0,0,0,161,46a2.74,2.74,0,0,0-1-1.1,3.14,3.14,0,0,0-1.12-.61,1,1,0,0,0-.63,0,1.19,1.19,0,0,0-.4.41Z"/><path class="cls-1" d="M160.67,41.26a1.4,1.4,0,0,1,1.25-.55,2.35,2.35,0,0,1,1.43.68,2.59,2.59,0,0,1,.75,1.19,1.55,1.55,0,0,1-.3,1.54,1.44,1.44,0,0,1-1.44.48,2.69,2.69,0,0,1-2.08-2.06,1.42,1.42,0,0,1,.39-1.28Zm.16.11a.75.75,0,0,0,0,.88,3.43,3.43,0,0,0,.87,1.06,3.08,3.08,0,0,0,1.32.84.63.63,0,0,0,.8-.59,1.27,1.27,0,0,0-.24-.66,4.29,4.29,0,0,0-.74-.84,4.38,4.38,0,0,0-1-.73,1.18,1.18,0,0,0-.62-.16.56.56,0,0,0-.4.2Z"/><path class="cls-1" d="M164.46,38.25l.84,1.09-.08,0a1.42,1.42,0,0,0-.76-.45.76.76,0,0,0-.64.09.49.49,0,0,0-.21.38.58.58,0,0,0,.11.38.77.77,0,0,0,.19.17.8.8,0,0,0,.33.09,5.85,5.85,0,0,0,.62,0,2.17,2.17,0,0,1,1,.09,1.17,1.17,0,0,1,.57.45,1.28,1.28,0,0,1,.28.91,1,1,0,0,1-.4.78,1.3,1.3,0,0,1-.26.14,1.79,1.79,0,0,1-.36.08.52.52,0,0,0-.18.07.32.32,0,0,0-.07.13.48.48,0,0,0,0,.22l-.07,0-.92-1.25.07-.06a2,2,0,0,0,.91.57.87.87,0,0,0,.71-.11.55.55,0,0,0,.22-.41.66.66,0,0,0-.12-.45,1.3,1.3,0,0,0-.22-.19.88.88,0,0,0-.3-.09,2,2,0,0,0-.54,0,3.24,3.24,0,0,1-.77,0,1.41,1.41,0,0,1-.5-.17,1.15,1.15,0,0,1-.38-.35,1.26,1.26,0,0,1-.28-.86.92.92,0,0,1,.36-.7,1,1,0,0,1,.26-.15,1.17,1.17,0,0,1,.3,0,.61.61,0,0,0,.24-.06.11.11,0,0,0,0-.09.9.9,0,0,0-.08-.24l.05,0Z"/><path class="cls-1" d="M167.71,36.74l1.51-.65,0,.11-.07,0a.46.46,0,0,0-.22.15.39.39,0,0,0,0,.17,1.43,1.43,0,0,0,.14.42l.76,1.87a2.47,2.47,0,0,0,.33.65.63.63,0,0,0,.31.19.54.54,0,0,0,.39,0,.69.69,0,0,0,.34-.31.9.9,0,0,0,.1-.5A3,3,0,0,0,171,38l-.64-1.55a1.35,1.35,0,0,0-.17-.36.37.37,0,0,0-.17-.11.57.57,0,0,0-.3.05l0-.1,1-.43.05.11-.07,0a.27.27,0,0,0-.18.15.3.3,0,0,0,0,.23,1.42,1.42,0,0,0,.11.35l.57,1.44a4.48,4.48,0,0,1,.33,1,1.07,1.07,0,0,1-.11.69,1.09,1.09,0,0,1-.61.56,1.28,1.28,0,0,1-.65.11,1.09,1.09,0,0,1-.59-.28,2.48,2.48,0,0,1-.42-.72l-.75-1.87a2,2,0,0,0-.21-.4.22.22,0,0,0-.14-.08.51.51,0,0,0-.27,0l0-.09Z"/><path class="cls-1" d="M172.65,35.05l2.07,2.16-.37-1.74a1.06,1.06,0,0,0-.19-.48.4.4,0,0,0-.4-.08l0-.11,1-.24,0,.11a.71.71,0,0,0-.25.16.42.42,0,0,0-.07.19,1.64,1.64,0,0,0,.06.41l.72,3.36h-.08l-2.82-2.89.55,2.57a.74.74,0,0,0,.22.44.37.37,0,0,0,.32.06h.07l0,.11-1.1.24,0-.11a.48.48,0,0,0,.33-.22.87.87,0,0,0,0-.46l-.62-2.85-.08-.1a1.75,1.75,0,0,0-.22-.18h-.24l0-.11Z"/><path class="cls-1" d="M177.32,38.24l0,.11-1.64.23,0-.11h.11c.1,0,.17,0,.21-.1a.22.22,0,0,0,.08-.15,2.54,2.54,0,0,0,0-.39l-.37-2.69a1.4,1.4,0,0,0-.08-.39.3.3,0,0,0-.13-.12.3.3,0,0,0-.22,0l-.09,0,0-.11,1.64-.25,0,.12-.1,0a.34.34,0,0,0-.22.09.26.26,0,0,0-.07.15,1.65,1.65,0,0,0,0,.39l.37,2.69a1.63,1.63,0,0,0,.08.39.2.2,0,0,0,.13.12.32.32,0,0,0,.2,0Z"/><path class="cls-1" d="M177.56,38.28v-.11h.11a.34.34,0,0,0,.2-.06A.23.23,0,0,0,178,38a1.15,1.15,0,0,0,0-.39l0-2.71a1.18,1.18,0,0,0,0-.4.2.2,0,0,0-.1-.13.34.34,0,0,0-.22-.06h-.09l0-.11h1.43a1.63,1.63,0,0,1,.93.19,1.54,1.54,0,0,1,.64.73,3.12,3.12,0,0,1,.24,1.13,3.37,3.37,0,0,1-.11.81,2,2,0,0,1-.27.6A1.45,1.45,0,0,1,180,38a1.76,1.76,0,0,1-.54.23,1.72,1.72,0,0,1-.45,0Zm1.18-3.91,0,3.22a1.64,1.64,0,0,0,0,.32s0,.07.06.08a.27.27,0,0,0,.19,0,.67.67,0,0,0,.59-.35,2.84,2.84,0,0,0,.26-1.46,3.37,3.37,0,0,0-.2-1.27,1.06,1.06,0,0,0-.39-.51,1.51,1.51,0,0,0-.56-.08Z"/><path class="cls-1" d="M183.22,34.51a1.41,1.41,0,0,1,1.2.66,2.78,2.78,0,0,1-.1,2.92,1.46,1.46,0,0,1-1.37.7,1.49,1.49,0,0,1-1.27-.86,2.68,2.68,0,0,1-.27-1.44A2.41,2.41,0,0,1,182,35a1.37,1.37,0,0,1,1.22-.49Zm0,.19c-.29,0-.53.17-.71.54a3.74,3.74,0,0,0-.27,1.35,3.3,3.3,0,0,0,.16,1.58.62.62,0,0,0,.54.38.48.48,0,0,0,.41-.12,1.36,1.36,0,0,0,.36-.59,4.57,4.57,0,0,0,.21-1.1,5.62,5.62,0,0,0,0-1.24,1.21,1.21,0,0,0-.25-.59.65.65,0,0,0-.41-.21Z"/><path class="cls-1" d="M187.65,35.39l-.22,1.35-.1,0a1.64,1.64,0,0,0-.17-.88.79.79,0,0,0-.51-.42.47.47,0,0,0-.4.09.61.61,0,0,0-.21.35,1,1,0,0,0,0,.25.8.8,0,0,0,.17.31,3.87,3.87,0,0,0,.42.46,2.24,2.24,0,0,1,.62.81,1.42,1.42,0,0,1,.06.74,1.31,1.31,0,0,1-.47.81,1,1,0,0,1-.85.22.79.79,0,0,1-.28-.1,2.21,2.21,0,0,1-.29-.2.47.47,0,0,0-.18-.1.17.17,0,0,0-.13,0,.54.54,0,0,0-.14.16h-.08l.28-1.53.09,0a2,2,0,0,0,.2,1.06.87.87,0,0,0,.55.46.53.53,0,0,0,.46-.11.67.67,0,0,0,.23-.39.58.58,0,0,0,0-.29.69.69,0,0,0-.13-.29,2.83,2.83,0,0,0-.37-.4,3.4,3.4,0,0,1-.52-.58,1.46,1.46,0,0,1-.21-.48,2.53,2.53,0,0,1,0-.55,1.37,1.37,0,0,1,.43-.77.89.89,0,0,1,.76-.21,1.25,1.25,0,0,1,.29.11,1.47,1.47,0,0,1,.23.18.48.48,0,0,0,.21.15.11.11,0,0,0,.09,0s.07-.09.11-.2Z"/><path class="cls-1" d="M191.49,40.16l2-2,1.13.63-.05.11-.09-.05a.42.42,0,0,0-.23-.06.22.22,0,0,0-.15.09,1.2,1.2,0,0,0-.19.31l-1.28,2.4a2.3,2.3,0,0,0-.17.35.28.28,0,0,0,0,.18.31.31,0,0,0,.15.15l.1.06-.06.1-1.46-.82.06-.09.09.05a.56.56,0,0,0,.22.06.6.6,0,0,0,.16-.08,2.12,2.12,0,0,0,.2-.34l1.43-2.68-2.83,2.71-.06,0,.68-3.89-1.36,2.56c-.1.18-.15.29-.17.33a.48.48,0,0,0,0,.29.49.49,0,0,0,.24.23l-.06.11-.95-.53,0-.1h0a.34.34,0,0,0,.21.06.37.37,0,0,0,.18,0,.44.44,0,0,0,.16-.17,1.27,1.27,0,0,0,.15-.26l1.23-2.29a3.81,3.81,0,0,0,.16-.36.4.4,0,0,0,0-.18.3.3,0,0,0-.16-.15l-.08-.06.05-.09,1.13.63-.48,2.83Z"/><path class="cls-1" d="M196.12,40.26l-1,1.36.05,0a.44.44,0,0,0,.5.06,1.57,1.57,0,0,0,.55-.49l.08.06L195.09,43,195,43a2.24,2.24,0,0,0,.24-.55.71.71,0,0,0,0-.38.74.74,0,0,0-.25-.26l-.66.94a1.56,1.56,0,0,0-.22.36.16.16,0,0,0,0,.15c0,.05.05.09.14.15l.15.11a1,1,0,0,0,.73.22,1.65,1.65,0,0,0,.78-.44l.07.05-.87,1-2.23-1.64.07-.09.09.07a.37.37,0,0,0,.22.08.33.33,0,0,0,.15-.07,1.54,1.54,0,0,0,.24-.29l1.57-2.2a1.91,1.91,0,0,0,.18-.29.34.34,0,0,0,0-.19.38.38,0,0,0-.15-.21l-.09-.07.07-.09,2.15,1.59-.7,1-.07-.05a1.86,1.86,0,0,0,.22-.64.8.8,0,0,0-.13-.44,1.25,1.25,0,0,0-.37-.34l-.26-.19Z"/><path class="cls-1" d="M198.42,44.12,198,46a2.29,2.29,0,0,0-.11.59.39.39,0,0,0,.1.24l-.08.08-1.15-1.08.07-.08a.41.41,0,0,0,.24.11.16.16,0,0,0,.12-.05.2.2,0,0,0,.05-.09c0-.06.06-.19.1-.37l.25-1-.87.23a1.14,1.14,0,0,0-.47.21.2.2,0,0,0-.06.15.24.24,0,0,0,0,.2l.13.16-.06.08-.91-.84.08-.08a.65.65,0,0,0,.33.11,3,3,0,0,0,.72-.13l1.12-.3.43-1.7c.07-.28.11-.44.11-.47a.6.6,0,0,0,0-.19.63.63,0,0,0-.08-.17l.07-.08,1.17,1.08-.07.09-.06-.06a.21.21,0,0,0-.18-.08.17.17,0,0,0-.13,0c0,.05-.06.07-.07.11l-.09.35-.23.84.61-.17a1.16,1.16,0,0,0,.56-.25.26.26,0,0,0,.08-.13.19.19,0,0,0,0-.15.68.68,0,0,0-.14-.18l.07-.09.87.82-.07.08a.58.58,0,0,0-.19-.13.9.9,0,0,0-.24,0l-.52.14-1.07.27Z"/><path class="cls-1" d="M199.08,48.13l-.08.06-1.12-1.25.09-.08.06.08a.41.41,0,0,0,.2.13.24.24,0,0,0,.16,0c.06,0,.15-.1.3-.23l2-1.83a2.23,2.23,0,0,0,.28-.28.34.34,0,0,0,0-.18.35.35,0,0,0-.1-.19l-.08-.08.08-.09L202,45.43l-.08.07-.07-.08a.35.35,0,0,0-.19-.13.24.24,0,0,0-.16,0,1.74,1.74,0,0,0-.31.23l-2,1.83a1.83,1.83,0,0,0-.27.29.4.4,0,0,0,0,.17.38.38,0,0,0,.1.2l.08.09Z"/><path class="cls-1" d="M204.13,48.3l-1.12.88,0-.08a1.58,1.58,0,0,0,.42-.82.87.87,0,0,0-.15-.7.76.76,0,0,0-.51-.31,1.2,1.2,0,0,0-.67.06,3,3,0,0,0-.88.51,3.76,3.76,0,0,0-.73.7,1.41,1.41,0,0,0-.33.69.82.82,0,0,0,.18.61,1,1,0,0,0,.47.35,2.2,2.2,0,0,0,.78.07l-.27.22a1.72,1.72,0,0,1-.76-.14,1.44,1.44,0,0,1-.54-.44,1.82,1.82,0,0,1-.34-.89,1.91,1.91,0,0,1,.22-1,2.58,2.58,0,0,1,.7-.81,2.48,2.48,0,0,1,1-.49,1.8,1.8,0,0,1,1,0,1.42,1.42,0,0,1,.74.51,1.6,1.6,0,0,1,.29.69,1,1,0,0,0,.08.29.16.16,0,0,0,.14.07.49.49,0,0,0,.22-.08l.06.06Z"/><path class="cls-1" d="M202.61,52.22l-.46-1-.43,0-.32.08a.32.32,0,0,0-.18.21.73.73,0,0,0,.06.33l-.1,0-.44-1,.1,0a.5.5,0,0,0,.29.19,2.93,2.93,0,0,0,.66,0l3.41-.35,0,0-2.53,2.49a2.15,2.15,0,0,0-.43.51.31.31,0,0,0,0,.25l-.1.06-.65-1.42.1-.06,0,.06a.38.38,0,0,0,.18.22.2.2,0,0,0,.13,0l.1-.07.18-.15.38-.38Zm.17-.17,1.07-1-1.47.15.4.89Z"/><path class="cls-1" d="M206.38,54l-1.94,2.29,1.67-.53a.92.92,0,0,0,.44-.22.41.41,0,0,0,0-.42l.11,0,.3,1-.11,0a.84.84,0,0,0-.15-.25.36.36,0,0,0-.19-.05,1.36,1.36,0,0,0-.4.08l-3.23,1,0-.09,2.6-3.1-2.46.77a.67.67,0,0,0-.41.26.39.39,0,0,0,0,.31l0,.09-.11,0-.33-1.1.11,0a.5.5,0,0,0,.24.31.73.73,0,0,0,.47,0l2.73-.85.08-.1a.73.73,0,0,0,.16-.23.38.38,0,0,0,0-.23l.11,0,.33,1.1Z"/><path class="cls-1" d="M207.67,58.29a1.42,1.42,0,0,1-.38,1.33,2.43,2.43,0,0,1-1.42.7,2.62,2.62,0,0,1-1.4-.16,1.51,1.51,0,0,1-.95-1.22,1.55,1.55,0,0,1,.54-1.45,2.42,2.42,0,0,1,1.33-.58,2.38,2.38,0,0,1,1.56.26,1.43,1.43,0,0,1,.72,1.12Zm-.19.05c0-.28-.25-.48-.64-.57a3.45,3.45,0,0,0-1.37,0,3.33,3.33,0,0,0-1.47.51.64.64,0,0,0-.26.61.56.56,0,0,0,.21.39,1.26,1.26,0,0,0,.64.23,3.84,3.84,0,0,0,1.1,0,4.65,4.65,0,0,0,1.17-.29,1.29,1.29,0,0,0,.53-.38.62.62,0,0,0,.09-.46Z"/><path class="cls-1" d="M208.31,63.16H207v-.1a1.63,1.63,0,0,0,.82-.32.76.76,0,0,0,.32-.59.47.47,0,0,0-.15-.38.53.53,0,0,0-.37-.15.49.49,0,0,0-.25.05.66.66,0,0,0-.27.21,5,5,0,0,0-.38.51,2,2,0,0,1-.67.75,1.15,1.15,0,0,1-.71.18,1.28,1.28,0,0,1-.87-.33,1,1,0,0,1-.34-.81.85.85,0,0,1,0-.29,1.77,1.77,0,0,1,.15-.34.46.46,0,0,0,.07-.18.22.22,0,0,0-.06-.14.61.61,0,0,0-.18-.11V61l1.53,0v.1a1.81,1.81,0,0,0-1,.38.89.89,0,0,0-.36.64.58.58,0,0,0,.59.6.71.71,0,0,0,.29-.05,1,1,0,0,0,.25-.18,4.07,4.07,0,0,0,.33-.44,3.11,3.11,0,0,1,.48-.62,1.55,1.55,0,0,1,.43-.29,1.27,1.27,0,0,1,.52-.1,1.29,1.29,0,0,1,.82.31.84.84,0,0,1,.32.73,1.08,1.08,0,0,1,0,.3,1.51,1.51,0,0,1-.15.26.73.73,0,0,0-.1.23.15.15,0,0,0,0,.1.78.78,0,0,0,.24.07v.07Z"/><rect class="cls-2" x="131.5" y="32.2" width="1.82" height="60.4"/></g></svg>