<svg id="Layer_1" data-name="Layer 1" xmlns="http://www.w3.org/2000/svg" viewBox="0 0 214.8 124.8"><defs><style>.cls-1{fill:#606161;fill-rule:evenodd;}</style></defs><title>LOGOS MAXIM GRIS</title><path class="cls-1" d="M126.27,9.15a25.38,25.38,0,0,1-.16,23.26,15.92,15.92,0,0,0,4-8.58,10.3,10.3,0,0,1,.91,2.86,13.78,13.78,0,0,0-.12-9.73s4.57,7.09-.41,13.38a15.39,15.39,0,0,0-.32-1.77,22.53,22.53,0,0,1-5.46,6.29c5.65-1.57,8.22-4.36,9.34-8,2.82-9.32-7.77-17.68-7.77-17.68Z"/><path class="cls-1" d="M133.41,32.27a.21.21,0,0,0-.29,0c-.14.12-6.57,7-19,5.35a88.39,88.39,0,0,1-10.3-2.18c.9-1.82,1.55-4.43-1.12-5.93-3.81-2.16-9,1.56-9.29,2.06-.12.2,0,.3.2.31.67.07,5.79-.07,8,3-5.43-1.34-6.08,1-5.28,3.37A29.81,29.81,0,0,0,99.81,45a.26.26,0,0,1,0,.3.69.69,0,0,1-.27.17c-8.59,2.87-15,11.36-19,18.64a27.32,27.32,0,0,1-3.07-12.61,27.76,27.76,0,0,1,36.12-26.23l0-.06A29.21,29.21,0,0,0,78.43,68.06a69.52,69.52,0,0,0-3.25,7.74c-.37,1.12-.43,2.06.27,2.37s1.16-.08,2.15-1.45c3.18-4.36,16.63-24.33,26-18,4.65,3.14,6.11,6.06,3.4,8.78a30.6,30.6,0,0,1-6.89,4.42c-3.18,1.5-4.9,1.81-4.64,2.93s1.58,1,6.93-.36c6.15-1.59,20.13-5.23,12.91-17.06-3.26-5.36-6.59-9.4-8.83-12.72a.21.21,0,0,1,0-.27c.07-.11.27-.09.27-.09,23.73-1.76,26.62-11.38,26.71-11.7,0-.07.1-.26,0-.36Z"/><path class="cls-1" d="M130.13,63.38a27.82,27.82,0,0,1-44.87,7.26c-.83,1-1.6,2-2.31,2.94A29.22,29.22,0,0,0,130.19,63.4l-.06,0Z"/><path class="cls-1" d="M35.89,108.24c-2.79,0-4.45-1.67-4.48-5.89h8.82c.17-2.22-1-7.4-5.72-7.4-3.71,0-6.27,2.73-6.27,7.29s2.81,7.43,6.83,7.42A10.69,10.69,0,0,0,40,108.5l-.53-1.13a8.59,8.59,0,0,1-3.54.87Zm-1.44-12c2.08,0,2.94,2.41,2.94,4.72H31.45c0-2.58,1.07-4.73,3-4.72Z"/><path class="cls-1" d="M90.45,97.16a3,3,0,0,1,1,.22l.86-2.29a3.67,3.67,0,0,0-1.13-.17,4.59,4.59,0,0,0-4.41,2.66,10.84,10.84,0,0,0-.43-2.32,22,22,0,0,0-4.81.22v.83l2.4.45v11.3l-2.2.48v.85h7.28v-.88l-2.16-.42V99.42a3.66,3.66,0,0,1,3.55-2.26Z"/><path class="cls-1" d="M71.28,98.93c.65-1.37,1.47-2.31,2.9-2.35,1.74,0,2.71,2,2.71,5.71,0,4.17-.55,6.22-3.85,6.22a3.1,3.1,0,0,1-1.76-.4V98.93Zm-.1-1.7a12,12,0,0,0-.41-2A22,22,0,0,0,66,95.5v.83l2.4.45v17.46l-2.18.49v.84h7.29v-.87l-2.17-.43v-4.88a5.27,5.27,0,0,0,1.9.26c4.44,0,6.82-2.34,6.82-7.34,0-4.29-1.79-7.37-5-7.37a4.22,4.22,0,0,0-3.79,2.29Z"/><path class="cls-1" d="M63.39,108.06V99.59c0-3.21-1.46-4.66-4.07-4.66a6.92,6.92,0,0,0-4.5,2.1,3.55,3.55,0,0,0-3.63-2.1A6.72,6.72,0,0,0,47,96.76l-.31-1.5a30.79,30.79,0,0,0-4.93.21v.83l2.4.47v11.32s-2,.44-2.06.46,0,.84,0,.84h6.63v-.84l-1.65-.38v-9.5a4.76,4.76,0,0,1,3.31-2.15c1.57,0,2,1.43,2,3.2v9.67H57v-.84l-1.7-.49V98.85c.94-1.36,2.19-2.33,3.22-2.33,1.57,0,1.95,1.43,1.95,3.2v9.67h5.19v-.84l-2.23-.49Z"/><path class="cls-1" d="M104.38,107.85V99.08a3.88,3.88,0,0,0-1-2.74A5.86,5.86,0,0,0,99.14,95a7.84,7.84,0,0,0-4.75,1.55l.6,2.57H96l.32-1.94a3.53,3.53,0,0,1,2.29-.78,3.16,3.16,0,0,1,2.17.67,2,2,0,0,1,.62,1.57v2.17h-1.2c-3.09,0-6.58,1.64-6.58,5.2,0,3,2.46,3.73,3.93,3.74a4.72,4.72,0,0,0,4-2.09l.55,1.83a24.54,24.54,0,0,0,4.35-.19v-1l-2.1-.45Zm-5.47-.11a2.41,2.41,0,0,1-2.5-2.53,3.39,3.39,0,0,1,3.64-3.3h1.39v3.86a2.63,2.63,0,0,1-2.53,2Z"/><path class="cls-1" d="M24.78,90.83a10.65,10.65,0,0,0-4.6-1c-3.95,0-6.32,2.12-6.32,4.89,0,5.9,9.48,5.14,9.52,10.28,0,2-1.28,3.49-4,3.49a4.89,4.89,0,0,1-3.82-1.76c-.27-1.08-.53-2.08-.53-2.08h-.88v3.66a9,9,0,0,0,5.09,1.55c3.66,0,6.93-1.39,7-5.28,0-7-9.54-6.53-9.56-10.66,0-1.71,1.54-2.7,3.62-2.7a5,5,0,0,1,3.14,1.16L24,94.44h.74V90.83Z"/><path class="cls-1" d="M165.71,97.15a3,3,0,0,1,1.06.22l.86-2.3a4,4,0,0,0-1.13-.16,4.58,4.58,0,0,0-4.42,2.66,10.36,10.36,0,0,0-.43-2.33,22.6,22.6,0,0,0-4.81.23v.83l2.4.45v11.31l-2.2.48v.85h7.29v-.88l-2.17-.42V99.41a3.65,3.65,0,0,1,3.55-2.26Z"/><path class="cls-1" d="M140.63,108.07v-8.5c0-3.21-1.46-4.66-4.08-4.66a6.69,6.69,0,0,0-4.21,1.83L132,95.23a27.78,27.78,0,0,0-4.94.24v.83l2.41.45v11.36l-2.06.48v.82h6.63v-.85l-1.66-.38V98.64a4.77,4.77,0,0,1,3.31-2.14c1.57,0,2,1.43,2,3.2v9.71h5.08v-.85l-2.13-.49Z"/><path class="cls-1" d="M179,107h-6.14c-1.5,0-3-.33-3-1.74a1.47,1.47,0,0,1,.72-1.19,5.85,5.85,0,0,0,3.44,1c3.59,0,5.5-2.4,5.5-5.1a4.8,4.8,0,0,0-1.38-3.43l2.5-.44v-.89h-4.8a6.67,6.67,0,0,0-1.82-.26c-3.25,0-5.49,2.15-5.49,5a5,5,0,0,0,1.21,3.35,3.3,3.3,0,0,0,1,5.94c-1.29.21-3,1.15-3,2.8,0,2.8,3.43,3.55,5.89,3.55,4.42,0,7.44-2.25,7.43-5.33a3.63,3.63,0,0,0-2-3.29Zm-5-10.74c1.6,0,2.73,1.35,2.73,3.71,0,3-1.31,3.89-2.73,3.89s-2.74-.92-2.74-3.89c0-2.36,1.14-3.71,2.74-3.71Zm.71,17.94c-1.26,0-4.42,0-4.42-2.63,0-1.22,1-1.76,1.86-2.06l6.17,0a1.72,1.72,0,0,1,.79,1.68c0,1.94-1.77,3-4.4,3Z"/><path class="cls-1" d="M186.33,115.65c1.53-1,2.27-2.33,3.33-5.26l5-13.79,2.29-.6v-.82h-3.68s-3.16,9.35-3.54,10.44c0,0-.52-2.16-1.15-4.1L187,96.46,188.2,96v-.83h-6.65V96l2.21.6,4.5,12.76-.57,1.57a5.35,5.35,0,0,1-2.57,3.22l1.21,1.5Z"/><path class="cls-1" d="M151.32,108.24c-2.79,0-4.46-1.67-4.49-5.9h8.83c.18-2.22-1-7.41-5.72-7.41-3.71,0-6.28,2.74-6.28,7.3s2.82,7.44,6.84,7.43a10.77,10.77,0,0,0,4.9-1.16l-.53-1.13a8.64,8.64,0,0,1-3.55.87Zm-1.44-12c2.08,0,3,2.42,3,4.73h-6c0-2.58,1.06-4.73,3-4.73Z"/><polygon class="cls-1" points="125.4 109.39 112.21 109.39 112.21 108.58 114.25 108.1 114.25 91.48 112.22 91.01 112.22 90.19 124.99 90.19 124.99 93.77 124.18 93.77 123.69 91.7 117.47 91.7 117.47 98.52 123.71 98.53 123.71 99.99 117.47 99.99 117.47 107.86 124.47 107.86 125.54 106.18 126.31 106.41 125.4 109.39 125.4 109.39"/><path class="cls-1" d="M197.54,93.13a1.11,1.11,0,0,1-.84-.38l.25-.25a.85.85,0,0,0,.62.28c.33,0,.49-.11.49-.34s-.14-.28-.53-.4-.74-.27-.74-.7a.69.69,0,0,1,.78-.66,1.06,1.06,0,0,1,.77.32l-.25.26a.7.7,0,0,0-.55-.23c-.28,0-.4.14-.4.3s.11.24.52.37.76.29.76.71-.27.72-.88.72Z"/><path class="cls-1" d="M200.6,93.09V91.42c0,.07-.09.24-.15.38l-.58,1.33-.57-1.33c-.06-.14-.13-.31-.15-.38v1.67h-.33V90.72h.37l.53,1.27a3.69,3.69,0,0,1,.16.4c0-.1.1-.26.16-.4l.52-1.27h.38v2.37Z"/></svg>