<svg xmlns="http://www.w3.org/2000/svg" xmlns:xlink="http://www.w3.org/1999/xlink" viewBox="0 0 214.8 124.8"><defs><style>.cls-1,.cls-2{fill:#606161;}.cls-2{fill-rule:evenodd;}.cls-3{fill:url(#radial-gradient);}</style><radialGradient id="radial-gradient" cx="-285.63" cy="110.28" r="86.52" gradientTransform="matrix(0, -0.43, 0.09, 0, 122.07, -59.67)" gradientUnits="userSpaceOnUse"><stop offset="0.53" stop-color="#999"/><stop offset="0.7" stop-color="#ccc"/><stop offset="0.91" stop-color="#fff"/></radialGradient></defs><title>LOGOS MAXIM GRIS</title><g id="Layer_4" data-name="Layer 4"><path class="cls-1" d="M100.41,71.76s3.47,0,7.19,0c3.1,0,6.32.22,7.56.3,2.72.17,3.51.55,0,.67-1.54,0-4.49.24-7.42.29-3.76.07-7.29.1-7.29.1H67.72V71.76Z"/><path class="cls-1" d="M27,73.15s-3.47,0-7.19,0c-3.1,0-6.32-.21-7.56-.29-2.72-.18-3.51-.56,0-.68,1.54-.05,4.49-.23,7.42-.29,3.76-.07,7.29-.1,7.29-.1H59.65v1.39Z"/><path class="cls-2" d="M195.56,71.32c-.08.7.12.81.61.33.66-.81.76-3.43.84-5.72.17-1.44.68-2.38.66-3.38a13.41,13.41,0,0,0-.68-4c-.14-.27-.79-.32-.66.13a14.46,14.46,0,0,1,.62,3.63,6.63,6.63,0,0,1-.45,2.43,8.19,8.19,0,0,0-.11,1.91c0,.38-.29.4-.29,0A33,33,0,0,0,196,62a5.58,5.58,0,0,0-1.08-2,5.63,5.63,0,0,1-.57-1.49c-.06-.28-.09-.55-.16-.82l-.21-.86c-.16-.31-.79,0-.71.4l.55,2.43a8.68,8.68,0,0,0,1.24,2,2.06,2.06,0,0,1,.3,1.1c.08.88.11,2.17.11,3.62l.33,2.37A8.63,8.63,0,0,1,195.56,71.32Z"/><path class="cls-2" d="M194.76,57.93c0-.21.09-.27.32-.18a.77.77,0,0,1,.46.42.52.52,0,0,1,.07.27c0,.14,0,.28,0,.42a1.24,1.24,0,0,0,.09.38L196,60c0,.32,0,.43-.22.32A3.91,3.91,0,0,1,194.76,57.93Z"/><path class="cls-2" d="M192.6,68.92c.11.8.55.62.55,0a29.48,29.48,0,0,0,0-4.22,9.13,9.13,0,0,0-.71-3.42c-.23-.43-.65-.46-.45.1a10.46,10.46,0,0,1,.61,3.4c0,.4-.21.39-.29.06a7.07,7.07,0,0,1-.45-2.07,8.91,8.91,0,0,0-.16-.9,2.44,2.44,0,0,0-.69-1.41,6.55,6.55,0,0,1-1.76-2.7c-.32-.88-.82-.34-.68.25a6.62,6.62,0,0,0,.77,1.64,2.18,2.18,0,0,0,.35.4,6.51,6.51,0,0,1,1.15,1.27,4.19,4.19,0,0,1,.37,1.65,12.46,12.46,0,0,0,1,3.42,4.06,4.06,0,0,1,.26,1.08Z"/><path class="cls-2" d="M189.8,57.7a3.92,3.92,0,0,0,.95,1.87c.2.2.39.07.25-.23a4.31,4.31,0,0,1-.55-1.59C190.37,57.33,189.73,57.39,189.8,57.7Z"/><path class="cls-2" d="M194.25,69.78c.05.75.45.83.58.07a23.15,23.15,0,0,0,.23-4.59,17.8,17.8,0,0,0-.18-2.52,2.65,2.65,0,0,0-.4-1.07c-.25-.35-.42-.43-.4.09a20.73,20.73,0,0,1,.36,3.18c0,.37-.15.46-.27.15a1.46,1.46,0,0,1-.07-.3l-.26-2.46a4.34,4.34,0,0,0-.79-2,8.75,8.75,0,0,1-1.52-3.07c-.14-.69-.47-.65-.57-.16a.93.93,0,0,0,0,.44,6.57,6.57,0,0,0,1.38,3,2.31,2.31,0,0,1,.69,1.46,28.06,28.06,0,0,0,.93,4.78,3.3,3.3,0,0,1,.2,1.1C194.2,68.8,194.22,69.33,194.25,69.78Z"/><path class="cls-2" d="M192,57.34c0-.43.41-.41.66-.08a.71.71,0,0,1,.13.35l.08.64a5.25,5.25,0,0,0,.38,1.08,1,1,0,0,1,.11.29c0,.19,0,.27-.14.26s-.12-.06-.18-.12A4.55,4.55,0,0,1,192,57.34Z"/><path class="cls-2" d="M186.19,59a3.87,3.87,0,0,0,1.5,1.78,4.09,4.09,0,0,1,2,2.15c.45,1.3.64,2.16.81,2.74a1.12,1.12,0,0,0,.18.42c.16.2.36.17.44-.07a1,1,0,0,0,0-.39c0-2.42-.27-3.9-.87-4.66-.23-.25-.34-.22-.36,0a.53.53,0,0,0,.07.3,4.34,4.34,0,0,1,.32,1.12c0,.36-.14.34-.24,0a3,3,0,0,0-1.19-1.66,7.73,7.73,0,0,1-1.72-1.51,4.17,4.17,0,0,1-.41-.74c0-.09-.07-.19-.17-.23s-.35.18-.4.39A.33.33,0,0,0,186.19,59Z"/><path class="cls-2" d="M187.22,58.28a3.37,3.37,0,0,0,1.18,1.38c.24.13.4,0,.19-.28a4,4,0,0,1-.76-1.2C187.67,57.84,187.08,58,187.22,58.28Z"/><path class="cls-2" d="M184.48,59.22c-.29-.23-.54.08-.36.46a2.06,2.06,0,0,0,.68.76,2.3,2.3,0,0,0,.5.24c.25.1.48.21.68.31a1.79,1.79,0,0,1,.58.44c.76.84,1.29,2,2.11,3,.19.26.56.14.48-.26a16,16,0,0,0-1-2.72c-.11-.27-.75-.52-.64-.13l.23.49c.05.1,0,.17-.11.07A5.44,5.44,0,0,0,187,61a1.31,1.31,0,0,0-.4-.3q-.36-.18-.87-.39a5.89,5.89,0,0,1-.62-.43C185,59.72,184.74,59.5,184.48,59.22Z"/><path class="cls-2" d="M184.9,63.71c2.65,2,5.06,4,7.28,5.88.33.25.74.56,1.33,1a.46.46,0,0,1,.07.63,2.41,2.41,0,0,1-3,.33c-2-1.79-3.91-3.55-5.86-5.3a.63.63,0,0,1-.23-.34c-.11-.35,0-.61.32-.37,2,1.77,4,3.54,5.91,5.24a1.66,1.66,0,0,0,2,.34c.12-.09.15-.19.11-.27s-.23-.21-.33-.29l-.65-.53-6.94-5.67C184.44,64.06,184.49,63.37,184.9,63.71Z"/><path class="cls-2" d="M184.9,64.65l6.79,5.85c.26.26.12.51-.24.35a5.52,5.52,0,0,1-.88-.6l-5.73-5C184.47,64.83,184.62,64.45,184.9,64.65Z"/><path class="cls-2" d="M184.54,66.3,189,70.41l.62.55c.19.19-.09.48-.48.25a3.61,3.61,0,0,1-.61-.5c-1.41-1.32-2.79-2.65-4.14-4C184.07,66.37,184.25,66.07,184.54,66.3Z"/><path class="cls-2" d="M185,59.28a2.34,2.34,0,0,0,.75.65c.22.08.31,0,.26-.2a1,1,0,0,0-.2-.36.83.83,0,0,0-.38-.29C185.05,58.93,184.88,59,185,59.28Z"/><path class="cls-2" d="M184.33,67c1.42,1.36,2.57,2.63,4.43,4.36a1.34,1.34,0,0,0,1.24.37c.14,0,.23-.08.37,0a.23.23,0,0,1,0,.42,1.51,1.51,0,0,1-1.31.14,2.75,2.75,0,0,1-.91-.71c-1.29-1.25-2.53-2.55-3.77-3.84l-.27-.3c-.06-.08-.13-.13-.15-.23S184.09,66.75,184.33,67Z"/><path class="cls-2" d="M183.79,67.27a8.56,8.56,0,0,1,.86.94c1,1.14,2,2.23,3,3.14.14.15.15.24,0,.27s-.53-.18-.89-.52c-1.05-1.11-2.09-2.27-3.15-3.55C183.47,67.35,183.61,67.14,183.79,67.27Z"/><path class="cls-2" d="M183.52,67.8c1.1,1.28,2.25,2.52,3.43,3.72a2,2,0,0,0,1.23.51c.25,0,.4.34.16.43a1.62,1.62,0,0,1-1.17-.21,3.94,3.94,0,0,1-1.08-.91c-1.18-1.26-2-2.16-2.6-2.86a1.1,1.1,0,0,1-.2-.28C183.13,67.86,183.22,67.51,183.52,67.8Z"/><path class="cls-2" d="M183.88,69.29c.83,1,1.72,2.25,2.35,2.37.29.06.4.39.12.44a1.52,1.52,0,0,1-1.17-.56l-1.58-2C183.47,69.31,183.7,69.11,183.88,69.29Z"/><path class="cls-2" d="M166.8,51.91c.34.37.08.6-.39.58a2.15,2.15,0,0,1-2-1.47,1.16,1.16,0,0,1,.13-1,3.71,3.71,0,0,1,.74-.9c.16-.15.33-.14.66-.1s.3-.1.14-.26-.18-.18,0-.3a.88.88,0,0,1,1,0l1.05.39a2.27,2.27,0,0,0,1.2,0,1.92,1.92,0,0,1,1.91.62c.17.22.18.39,0,.57a5.57,5.57,0,0,1-1.54.9,1.07,1.07,0,0,1-.69,0c-.22,0-.27-.16-.14-.34a1.92,1.92,0,0,1,.85-.35.66.66,0,0,0,.38-.17.24.24,0,0,0,0-.37,1.24,1.24,0,0,0-1.36.29,1.41,1.41,0,0,1-.78.19C166.62,49.85,165.78,51,166.8,51.91Zm-1.4-.62c.25.24.39.2.4-.2a1.25,1.25,0,0,1,1-1.39,2.87,2.87,0,0,1,1,0c.2,0,.24-.12.12-.29a1,1,0,0,0-1-.24,1.82,1.82,0,0,0-.64.47.42.42,0,0,1-.47,0,.52.52,0,0,0-.46,0C164.88,50.08,164.79,50.62,165.4,51.29Z"/><path class="cls-2" d="M166.49,47.85c-.24-.19-.24-.46.11-.78a5.92,5.92,0,0,1,.84-.6,2,2,0,0,0,1-1.46c0-.26,0-.37.17-.24a.93.93,0,0,1,.25,1.08,1.33,1.33,0,0,1-.44.69,1.89,1.89,0,0,0-.44.84,1.7,1.7,0,0,1-.31.71.33.33,0,0,1-.39.11A3.35,3.35,0,0,1,166.49,47.85Z"/><path class="cls-2" d="M168,48.06c-.19.18-.06.41.18.3a.94.94,0,0,0,.51-1.36c-.16-.25-.41-.12-.36.09A.79.79,0,0,1,168,48.06Z"/><path class="cls-2" d="M169.13,45.54c0,.27.18.29.32.09s-.08-.73.33-.47c.16.09.26,0,.3-.14a1.24,1.24,0,0,0-.37-1c-.12-.13-.2-.09-.27.08A4.63,4.63,0,0,0,169.13,45.54Z"/><path class="cls-2" d="M169,46.21c-.26.2,0,.54.3.48,2.29-.95,2.11-2.72,1.5-3.28-.13-.07-.19-.06-.16.09a2.1,2.1,0,0,1-.39,1.83C169.62,45.78,169.06,46.14,169,46.21Z"/><path class="cls-2" d="M169.35,46.89a20.79,20.79,0,0,0,2.05-1.19c.16-.12.29-.1.39,0,.2.42.05.81-.4,1.16a6,6,0,0,1-2.09,1c-.19,0-.23-.08-.13-.25s1.2-.41,1.81-.94c.23-.21.18-.4-.18-.29s-1,.69-1.4.78C169.14,47.31,169.05,47.1,169.35,46.89Z"/><path class="cls-2" d="M168.65,48.47c.19-.14,1.42-.44,2.47-.91.52-.16.95,0,1,.24.1.58-.32.94-1.21,1.1-.39,0-.52-.17-.32-.33l.67-.38a.15.15,0,0,0,0-.24c-.08-.06-.25,0-.35,0a10.05,10.05,0,0,0-1.52.73,1.16,1.16,0,0,1-.84,0C168.44,48.63,168.5,48.55,168.65,48.47Z"/><path class="cls-2" d="M171.6,45.15a1.68,1.68,0,0,1,.44-.54c.22-.23.44,0,.36.2a2,2,0,0,1-.36.45c-.11.16-.1.27,0,.35a.81.81,0,0,1,.15.13c.09.09.19.08.28,0a1.83,1.83,0,0,0-.09-2.17c-.16-.15-.29-.1-.38.08l-.15.5a.94.94,0,0,1-.25.44.64.64,0,0,0-.26.59C171.39,45.26,171.5,45.27,171.6,45.15Z"/><path class="cls-2" d="M173.25,44.92a7.2,7.2,0,0,1,2.11.88,1.19,1.19,0,0,0,.83.06c.09-.09.16-.06.17.06a2.11,2.11,0,0,1-.59,1.1.23.23,0,0,1-.31,0,17.16,17.16,0,0,0-2.5-1.35.12.12,0,0,1,.07-.23,17.86,17.86,0,0,1,2.15,1c.23.1.37,0,.34-.12s-.07-.11-.14-.16a9,9,0,0,0-2.2-1.05C173,45.08,173,44.89,173.25,44.92Z"/><path class="cls-2" d="M171.75,49.13c-.11-.19-.39-.06-.35.21a1.26,1.26,0,0,0,.41.76.46.46,0,0,0,.72-.3,1,1,0,0,0-.35-.89c-.09-.11-.27,0-.2.11C172.22,49.41,171.92,49.61,171.75,49.13Z"/><path class="cls-2" d="M172.71,48.39c-.14-.21-.38-.14-.3.19a2,2,0,0,0,.45,1c.32.25.7.12,1.12-.34a.61.61,0,0,0,0-.66,3.92,3.92,0,0,0-1.53-1.16c-.18-.06-.27,0-.14.17a12.1,12.1,0,0,1,1.09,1c.12.2,0,.34-.12.35s-.15,0-.22-.1A1.48,1.48,0,0,1,172.71,48.39Z"/><path class="cls-2" d="M172.73,45.88a4.9,4.9,0,0,1,2.44,1.62.74.74,0,0,1-.17.9c-.23.2-.4.15-.64,0a4.25,4.25,0,0,1-.94-.79c-.09-.09,0-.2.09-.14l.67.31c.42.11.49-.44.29-.58a12.2,12.2,0,0,0-1.74-1.06C172.46,46,172.46,45.83,172.73,45.88Z"/><path class="cls-2" d="M172.25,46.52c-.12-.16-.07-.27.12-.22a4.61,4.61,0,0,1,1.52.9c.11.14.05.24-.12.16l-.28-.15c-.09,0-.13,0-.11.09s0,.23-.17.19c-.41-.2-.79-.37-1.15-.51-.13-.06-.16-.17,0-.19C172.31,46.8,172.37,46.7,172.25,46.52Z"/><path class="cls-2" d="M190.14,46.52a22.35,22.35,0,0,1,6.42,9.16,3.52,3.52,0,0,0,1.12,1.89c.26.25.13.37-.18.43a3.71,3.71,0,0,1-3.62-1.9c-2.26-4.09-4.27-6.74-6.07-8.2-.32-.34-.23-1,.15-.53A26.53,26.53,0,0,1,194,55a5.85,5.85,0,0,0,1.48,1.72q.66.51.6-.09a22.6,22.6,0,0,0-6.25-9.71C189.49,46.53,189.77,46.27,190.14,46.52Z"/><path class="cls-2" d="M189.08,47a24.68,24.68,0,0,1,6.36,8.58c.31.74-.14.81-.45.48a30.67,30.67,0,0,0-6.28-8.72C188.14,47,188.68,46.78,189.08,47Z"/><path class="cls-2" d="M187.9,48.73a20.14,20.14,0,0,1,5.42,7.15c.15.73-.59,1.09-1.31.59-.94-.89-2.9-4.08-4.61-5.7-.22-.36-.05-1.09.21-.77A27.72,27.72,0,0,1,192,55.49c.26.42.64.39.42-.1a29.92,29.92,0,0,0-4.58-6C187.53,49.19,187.47,48.21,187.9,48.73Z"/><path class="cls-2" d="M187.19,51.23a15,15,0,0,1,3.61,4.5c.24,1-.26,1.44-1.36,1.16a3.06,3.06,0,0,1-1.1-.94l-2.12-2.63c-.16-.25,0-.82.3-.56.92,1.07,1.87,2.34,2.92,3.38a.43.43,0,0,0,.67-.54A25.41,25.41,0,0,0,187,51.71C186.84,51.45,187,51,187.19,51.23Z"/><path class="cls-2" d="M186.59,51.75a21,21,0,0,1,3,3.59c.12.24-.08.42-.26.27a35.62,35.62,0,0,1-3-3.42C186.28,52,186.45,51.62,186.59,51.75Z"/><path class="cls-2" d="M186.12,53.66a10.91,10.91,0,0,1,2.14,2.72c.23,1-.12,1.55-1.53,1.16a8.45,8.45,0,0,1-2-2.07c-.16-.25.08-.7.29-.52a11,11,0,0,0,1.8,1.85c.48.31,1,0,.74-.47a9.44,9.44,0,0,0-1.78-2.22C185.52,53.78,185.82,53.43,186.12,53.66Z"/><path class="cls-2" d="M185.24,54.06a8.9,8.9,0,0,1,2,2.32c.08.23-.18.34-.36.18l-1.75-1.91C185,54.4,185.06,53.87,185.24,54.06Z"/><path class="cls-2" d="M184.53,55.63A8.81,8.81,0,0,1,186,57.48c.31.93-.85,1.43-1.48,1.12a4,4,0,0,1-1.39-1.4c-.14-.28.1-.55.3-.4A8.84,8.84,0,0,0,184.51,58a.51.51,0,0,0,.77-.57,8.06,8.06,0,0,0-1.06-1.4C184.09,55.78,184.32,55.44,184.53,55.63Z"/><path class="cls-2" d="M183.9,56.06a5.05,5.05,0,0,1,.93,1c.28.39-.14.68-.44.42s-.49-.54-.77-.89c-.07-.09-.18-.2-.17-.33A.27.27,0,0,1,183.9,56.06Z"/><path class="cls-2" d="M182.85,57.33l.86,1.11a.6.6,0,0,1-.15.82l-.74.61c-.25.16-.48-.11-.35-.38s1-.64.6-1.06l-.53-.7C182.38,57.4,182.65,57.19,182.85,57.33Z"/><path class="cls-2" d="M182.34,57.8l.41.82c.11.26-.19.45-.33.25l-.48-.85C181.83,57.72,182.25,57.56,182.34,57.8Z"/><path class="cls-2" d="M183.16,45.05a15.63,15.63,0,0,1,3.34,1.81c.68.56,1,1.17.73,1.83-.25.36-.52.29-.83.06a14.71,14.71,0,0,0-2.78-2c-.31-.14-.28-.66,0-.49A10.42,10.42,0,0,1,186.21,48c.43.25.6-.11.39-.35a12.74,12.74,0,0,0-3.17-2C183,45.27,182.82,44.88,183.16,45.05Z"/><path class="cls-2" d="M183.8,47.2a12.11,12.11,0,0,1,3,2.38,1.63,1.63,0,0,1-.33,1.65.49.49,0,0,1-.32.1,2.09,2.09,0,0,1-.79-.39,7.28,7.28,0,0,1-1.16-.93c-.33-.37-.36-.94-.07-.72l1.6,1.1c.47.31.7-.32.49-.71s-1.81-1.4-2.48-1.94C183.5,47.52,183.54,47.11,183.8,47.2Z"/><path class="cls-2" d="M183.92,48.32l2,1.39c.22.25-.19.39-.39.27a9,9,0,0,1-1.59-1.29C183.8,48.54,183.77,48.2,183.92,48.32Z"/><path class="cls-2" d="M184.35,50.51l1.31,1.13a.92.92,0,0,1,.31,1.12,1.91,1.91,0,0,1-.5.7.53.53,0,0,1-.67-.06l-1-.82c-.21-.24,0-.71.22-.57l.74.56c.4.34.61-.27.38-.56a6.13,6.13,0,0,0-1-1C184,50.68,184.12,50.33,184.35,50.51Z"/><path class="cls-2" d="M184,51.71c-.12-.23.09-.45.28-.33l.58.42a.27.27,0,0,1-.27.45Z"/><path class="cls-2" d="M183.69,52.9a3.39,3.39,0,0,1,.91.94c.38.63,0,1-.33,1.56-.24.22-.48.32-.73.15l-1-.83c-.25-.22,0-.78.29-.49l.53.45c.33.26.74-.3.55-.65l-.48-.58C183.28,53.24,183.39,52.76,183.69,52.9Z"/><path class="cls-2" d="M183,54c-.25-.28.08-.56.27-.41l.34.3c.22.22,0,.61-.26.41Z"/><path class="cls-2" d="M182.32,54.63a5.34,5.34,0,0,1,.75,1c.4.75-.89,2.09-1.44,1.45l-.73-1c-.17-.32,0-.65.33-.46l.46.57c.43.35.79-.28.64-.64l-.33-.49C181.82,54.83,182.11,54.37,182.32,54.63Z"/><path class="cls-2" d="M181.43,55.65c-.12-.25.14-.5.32-.35l.39.44c.17.26-.13.48-.29.36Z"/><path class="cls-2" d="M183.24,60.24c1,1.86,1.17,5.4.29,6.53-.3.31-.62.31-.65-.14a11.32,11.32,0,0,0-.91-4.27c-.13-.35,0-1.18.21-.84a9.73,9.73,0,0,1,1,3.67c.07.41.23.53.35.12a8.3,8.3,0,0,0-.69-4.63C182.74,60.32,183.07,60,183.24,60.24Z"/><path class="cls-2" d="M182.56,60.63a8.28,8.28,0,0,1,.9,3.45.14.14,0,1,1-.27,0,7.74,7.74,0,0,0-.89-2.89C182.2,60.91,182.38,60.33,182.56,60.63Z"/><path class="cls-2" d="M179.54,52.63c1.91-1.48,1.63-2.64,1.27-4.69s-1-2.75-1.85-3.33c-.24-.17-.49-.33-.74-.49a4.43,4.43,0,0,1-1.51-1,1.15,1.15,0,0,1,.4-1.8,1.78,1.78,0,0,1,1-.11,18.33,18.33,0,0,1,9.6,3.4,2.91,2.91,0,0,0,1.95.71c.45.06.54.26.28.61a3.23,3.23,0,0,1-3.39.39.21.21,0,0,1-.15-.26l.13-.59c.06-.21.28-.27.35,0l.23.44a.65.65,0,0,0,.48.23c.52,0,.74-.12.54-.47a17.93,17.93,0,0,0-8.91-4,3,3,0,0,0-1.61,0,.66.66,0,0,0-.17,1.16l2,1.14a3.16,3.16,0,0,1,1.6,1.83c.48,1.58,1.36,4.79.28,6.2a3.5,3.5,0,0,1-1.52,1.39C179.42,53.49,179.26,52.93,179.54,52.63Z"/><path class="cls-2" d="M163.93,50.5l-1.1-.09c-.35,0-.56-.51-.73-1.2a3,3,0,0,1,.93-2.85c.2-.24.15-.31,0-.31s-.09-.15,0-.26l.21-.19c.12-.17-.08-.31-.23-.27a5.83,5.83,0,0,0-1.77,1.5,1.1,1.1,0,0,0-.14,1l.52,2.4c.18.57.46.84.81.91l1.43.08A.37.37,0,0,0,163.93,50.5Z"/><path class="cls-2" d="M162.74,49.23a1.22,1.22,0,0,0,1.86.21c.19-.14.13-.36-.07-.33a1.39,1.39,0,0,1-1.52-.27C162.77,48.69,162.58,48.94,162.74,49.23Z"/><path class="cls-2" d="M165.1,47.46c.24-.13.29,0,.12.23a3.13,3.13,0,0,1-2.4.85c-.38-.13-.45-.41-.29-.78a5,5,0,0,1,.91-1.39,1,1,0,0,0,.2-.89c-.07-.49.21-.7.59-.82s.69.51.32.74a1.35,1.35,0,0,0-.32.26.58.58,0,0,0-.14.32,1.28,1.28,0,0,0,0,.19,1,1,0,0,0,0,.24.26.26,0,0,1-.07.31,4.52,4.52,0,0,1-.69.7c-.23.34-.19.5,0,.56A4.19,4.19,0,0,0,165.1,47.46Z"/><path class="cls-2" d="M164.35,46.22c-.15-.31.28-.79.52-.26a.93.93,0,0,1,0,.69.88.88,0,0,1-.45.48c-.16.06-.23,0-.2-.1A.7.7,0,0,0,164.35,46.22Z"/><path class="cls-2" d="M173.74,79.64c1,.74.9,4,2.29,4.39.6.2.49-.09.31-.21-.92-.37-.81-4-2.26-4.53C173.56,79.18,173.39,79.34,173.74,79.64Z"/><path class="cls-2" d="M175,79.61c1.08.69,1.07,4.51,2.53,4.5.32,0,.38-.11.18-.22-.93-.53-.95-4.25-2.46-4.57C174.86,79.3,174.78,79.4,175,79.61Z"/><path class="cls-2" d="M177,80.94c.54.35.55,3.17,1.94,3.24.3,0,.28-.07.15-.19-1.17-1.06-.58-2.86-1.89-3.32C176.9,80.61,176.83,80.78,177,80.94Z"/><path class="cls-2" d="M173.78,78.26a10.24,10.24,0,0,0,2.07.21.33.33,0,0,1-.1.65c-.6,0-2.2.11-2.63-.44-.13-.34-.05-.58.32-.55A2,2,0,0,1,173.78,78.26Z"/><path class="cls-2" d="M180.85,79.7a.33.33,0,0,1-.63-.16,1.05,1.05,0,0,1,1.13-1,1,1,0,0,1,.75,1.57.63.63,0,0,0-.1.71,1.67,1.67,0,0,1,0,1.51c-.12.34-.11.6.07.71a.91.91,0,0,1-.16,1.31c-.87.39-1.4,0-1.74-.78-.13-.45.55-.64.66-.09s.9.2.64-.15a.67.67,0,0,1-.33-.93,1.65,1.65,0,0,0,0-1.7.6.6,0,0,1,.28-.84C182,79.51,181,78.83,180.85,79.7Z"/><path class="cls-2" d="M172.94,78.67c-.21-1.14-2.09-1.29-2.08,0a.75.75,0,0,0,.24.64.76.76,0,0,1,0,.85,1.7,1.7,0,0,0,0,1.31,1.18,1.18,0,0,1,0,1c-.16.3-.29.39-.21.81a1,1,0,0,0,1.63.56,1.21,1.21,0,0,0,.5-.89c0-.23-.39-.4-.56-.21l-.25.42a.31.31,0,0,1-.56-.24.74.74,0,0,1,.31-.4.71.71,0,0,0,0-.7,2,2,0,0,1-.09-1.35l.19-.63a.62.62,0,0,0-.22-.67c-.41-.3-.09-.79.24-.62s.17.2.29.45C172.62,79.36,173.11,79.22,172.94,78.67Z"/><path class="cls-2" d="M173,84.09a1.51,1.51,0,0,0,.51.17c1.81.15,3.67.25,5.63.27a.87.87,0,0,0,.5-.13c.58-.37,1,.27.56.51a2.06,2.06,0,0,1-1.07.28c-.94-.11-6.27.14-6.81-.69C172.19,84.06,172.45,83.82,173,84.09Z"/><path class="cls-2" d="M175.74,42c-.8-.08-1.52,0-1.62,1.15-.11.77.14,1.26.82,1.43,1.74.53,3,1.2,3.3,2.77,0,.83.19,1.17.36,1.31s.23,0,.22-.17q.13-2.43-1.38-3.33A7.51,7.51,0,0,0,175.2,44c-1-.2-.58-1.85.4-1.66C175.93,42.36,176.09,42.08,175.74,42Z"/><path class="cls-2" d="M175.23,42.71c1.28-.31,1.64,1.23,0,.86-.22-.09-.25-.24-.05-.28.54,0,.52-.37,0-.38C175,42.89,175.06,42.76,175.23,42.71Z"/><path class="cls-2" d="M176,43.91a3.07,3.07,0,0,1,2.33.88c.27.27-.43.37-.63.13-.25-.61-.94-.8-1.72-.9C175.77,44,175.78,43.91,176,43.91Z"/><path class="cls-2" d="M176.74,46.41a3.38,3.38,0,0,1,1.18,1.44A3.73,3.73,0,0,0,179,49.44a.46.46,0,0,1-.06.61l-.89.66a.36.36,0,0,1-.39-.57,1.86,1.86,0,0,1,.32-.31.71.71,0,0,0,.11-.57,5,5,0,0,0-1.54-2.67C176.35,46.37,176.53,46.25,176.74,46.41Z"/><path class="cls-2" d="M176.27,47.44a5.83,5.83,0,0,1,1,3,.82.82,0,0,1-.42.74,2.91,2.91,0,0,1-.95.38c-.34,0-.5-.14-.5-.38a11.62,11.62,0,0,0-.13-2.61c-.05-.33.23-.32.29-.13a7.06,7.06,0,0,1,.33,2c0,.37.26.39.63.07.34-.56,0-1.57-.55-2.8C175.88,47.34,176.07,47.2,176.27,47.44Z"/><path class="cls-2" d="M175.75,47.69a6.1,6.1,0,0,1,.71,2.06.65.65,0,0,1,0,.31c-.06.17-.24.18-.28,0a7.65,7.65,0,0,0-.57-2.22C175.5,47.63,175.63,47.47,175.75,47.69Z"/><path class="cls-2" d="M176.59,47a6.81,6.81,0,0,1,1.15,2.3c.1.27-.19.43-.26.22a11.12,11.12,0,0,0-1-2.38C176.36,46.94,176.47,46.85,176.59,47Z"/><path class="cls-2" d="M175.16,49.08c.05,1.52.21,3.29-1.69,3-.74-.12-.08-1.82.1-2.19s.39-.24.35.1l-.17,1.09c0,.42.38.41.67,0a4.41,4.41,0,0,0,.24-1.88C174.64,48.78,175,48.51,175.16,49.08Z"/><path class="cls-2" d="M174.1,49.49c0-.24.34-.26.35,0a6.46,6.46,0,0,1,0,1.16c0,.34-.58.37-.46-.06A5.73,5.73,0,0,0,174.1,49.49Z"/><path class="cls-2" d="M172.25,50.74c.07-.29-.2-.39-.38-.17a5.06,5.06,0,0,1-.59.84.38.38,0,0,0,0,.51,1,1,0,0,0,1.62-.42l.32-1.25c.08-.42-.5-.44-.63.12a3.14,3.14,0,0,1-.39,1.08c-.13.19-.35.07-.23-.08A1.83,1.83,0,0,0,172.25,50.74Z"/><path class="cls-2" d="M167.57,50.6c-.27-.29.09-.53.53-.29,1.46,1.33,1.57,2.61.76,3.86-.31.24-.52.13-.42-.18A2.52,2.52,0,0,0,167.57,50.6Z"/><path class="cls-2" d="M156.4,55.67a5,5,0,0,0-.28-.68c-.12-.25-.07-.4.09-.5l.26-.15a3.19,3.19,0,0,0,.47-.35c.27-.19.57-.07.6.19a.4.4,0,0,1-.11.32c-.32.4-.67.49-.38,1a.36.36,0,0,1-.43.53C156.47,56,156.45,55.82,156.4,55.67Z"/><path class="cls-2" d="M157.43,56.24c-.33-1-.19-1.47.55-1.89.39-.2.67.18.47.47-.41.32-.64.46-.4,1S157.74,56.69,157.43,56.24Z"/><path class="cls-2" d="M159,56.33c.13.54-.49.67-.66.21l-.14-.84a.63.63,0,0,1,.34-.7l.38-.32a.35.35,0,0,1,.45.53l-.31.28A.77.77,0,0,0,159,56.33Z"/><path class="cls-2" d="M167.05,50.77c1.32,1.13,1.83,2.32,1.18,3.57-2.26,2.71-5.41,3.51-4.17,6.23.15.34,0,.41-.17.27-1.21-1.46-.95-3,.78-4.57l2.54-2.22c.73-.95.33-1.76-.59-2.52C166.19,51,166.64,50.5,167.05,50.77Z"/><path class="cls-2" d="M164.51,59c.46,2.22,1.56,1.13,3.74,1.34a2.43,2.43,0,0,1,1.15,4.37c-.37.24-1.09-.13-.52-.62,1.53-1.24.59-2.73-.66-3.07-2.16-.33-4.2.22-4.14-2C164.1,58.58,164.51,58.4,164.51,59Z"/><path class="cls-2" d="M167.4,53.09c.18-.47-.07-.65-.36-.41a5.76,5.76,0,0,1-2,1.39c-4.4,2-3.91,8,.15,8.46l2.72.09c.35,0,.5.29.23.69s.07.52.38.27a1,1,0,0,0-.54-1.77c-1.82,0-3,0-3.46-.34-2.7-1.47-2.16-5.06.94-6.8C166.44,54.1,167.24,53.55,167.4,53.09Z"/><path class="cls-2" d="M159.93,55.26a2.64,2.64,0,0,1,1.44,2.91c-.72,1.39-.92,2.33-.37,2.62a11,11,0,0,0,1.49,1.15,4.45,4.45,0,0,1,.88,2.3c0,.37.3.59.83.81.36.16.13.55-.24.47a1.37,1.37,0,0,1-1.18-1.12c-.17-.83-.13-1.66-.87-2.16a11.76,11.76,0,0,1-1.5-1.14,1.41,1.41,0,0,1-.32-1.55c1.21-2.33.58-3.07-.42-3.88C159.43,55.42,159.51,55.09,159.93,55.26Z"/><path class="cls-2" d="M159.38,55.86c.56.17.81.76.8,1.7a2.42,2.42,0,0,1-.2.95c-.34.77-.91,1.32-.34,2.52a4.92,4.92,0,0,0,1.65,1.5,2.34,2.34,0,0,1,.84,2.2,1.82,1.82,0,0,0,1.34,1.76,1.15,1.15,0,0,0,.84,0,.6.6,0,0,1,.66.2c.2.24.27.46,0,.56a1.81,1.81,0,0,1-.76.19c-1.73,0-2.66-.94-2.77-2.84a2,2,0,0,0-1-1.77A5.74,5.74,0,0,1,159,61.22a2.24,2.24,0,0,1,.15-2.15c.58-1.22.71-2.1.1-2.63C158.87,56.08,159,55.78,159.38,55.86Z"/><path class="cls-2" d="M165.55,66.77a1.34,1.34,0,0,1,.54.15c.08.09.07.17-.05.26a.5.5,0,0,1-.63-.25C165.38,66.84,165.4,66.78,165.55,66.77Z"/><path class="cls-2" d="M166.1,66.52a1.09,1.09,0,0,1,.75.2c.14.17.12.29,0,.35a1,1,0,0,1-.76-.23C165.92,66.7,165.94,66.59,166.1,66.52Z"/><path class="cls-2" d="M166.84,66.17a1,1,0,0,1,.92.34c.09.14.07.24-.06.28a.76.76,0,0,1-.93-.36C166.69,66.28,166.74,66.21,166.84,66.17Z"/><path class="cls-2" d="M167.94,63.39c.09-.22,0-.4-.22-.35a1.11,1.11,0,0,0-.3.17,1.07,1.07,0,0,0-.5,1.15.41.41,0,0,0,.46.41.9.9,0,0,0,.37-.15,3,3,0,0,0,.27-.23.22.22,0,0,0,0-.34A.52.52,0,0,1,167.94,63.39Z"/><path class="cls-2" d="M164.9,64.48c-.22-.31-.46.42-.29.6a.7.7,0,0,1,.11.56.73.73,0,0,0,.63.94c.19,0,.24-.09.15-.22a.85.85,0,0,1-.27-.78A1.93,1.93,0,0,0,164.9,64.48Z"/><path class="cls-2" d="M166.23,66c.2.13.15.24-.09.34-.42.15-.83-.4-.78-1a.56.56,0,0,0-.12-.53c-.34-.6-.26-1,.09-1.16s.37-.06.33.1a.62.62,0,0,0,.11.61.81.81,0,0,1,.11.81A.77.77,0,0,0,166.23,66Z"/><path class="cls-2" d="M166.93,65.71c.14.19,0,.25-.21.26a.93.93,0,0,1-.72-.56,1,1,0,0,1,0-.69.53.53,0,0,0-.05-.57c-.45-.92.38-1.33,1.08-1.17.16.05.19.15,0,.31a1,1,0,0,0-.17,1.55c.16.17.18.33,0,.47A.27.27,0,0,0,166.93,65.71Z"/><path class="cls-2" d="M170.91,63.52a1.47,1.47,0,0,1,.32,1.84,2.45,2.45,0,0,1-.83.62,1.49,1.49,0,0,0-.66.43,1.85,1.85,0,0,1-.64.5.59.59,0,0,1-.61,0c-.63-.55-1.63-1.07-1.25-1.63a1.14,1.14,0,0,1,1.28-.58.76.76,0,0,1,.49.79c0,.18-.15.22-.32.13l-.31-.15c-.2-.07-.31,0-.17.24l.44.4a.29.29,0,0,0,.46-.08,4.71,4.71,0,0,1,1.3-.87.48.48,0,0,0,.24-.67L170.4,64C170.29,63.67,170.57,63.3,170.91,63.52Z"/><path class="cls-2" d="M172.07,67.46c.22.1.42-.13.16-.29a3,3,0,0,0-2.26-.51c-.38.16-.48.49-.18.64l1.09.3.75.31c.17.07.46-.07.23-.27a3.19,3.19,0,0,0-1-.44c-.27-.07-.23-.2,0-.15A3.51,3.51,0,0,1,172.07,67.46Z"/><path class="cls-2" d="M172.83,65.46a.9.9,0,0,0-.42-.24,1,1,0,0,0-.75.17,1.39,1.39,0,0,0-.42.42c-.36.78.89,1.12,1.41,1.26.29,0,.41-.17.23-.3a2.82,2.82,0,0,1-1-.65c-.27-.57.42-.51.72-.38S173,65.66,172.83,65.46Z"/><path class="cls-2" d="M172.39,65.84a5.58,5.58,0,0,1,1,.5c.17.09.13.41-.09.37a4.41,4.41,0,0,1-1.07-.51A.2.2,0,0,1,172.39,65.84Z"/><path class="cls-2" d="M174.23,66.72a3.1,3.1,0,0,0-2,1.28c-.31.51-.12.86.32.9a2.83,2.83,0,0,0,.5-.05,4.46,4.46,0,0,1,1.52-.33c.33,0,.32-.36,0-.42a4.06,4.06,0,0,0-1.66.25c-.26.07-.21-.15-.1-.3a3.34,3.34,0,0,1,1.54-.89A.23.23,0,0,0,174.23,66.72Z"/><path class="cls-2" d="M174.54,67.75c-.21.24-1.38.38-1-.11C173.72,67.42,174.91,67.36,174.54,67.75Z"/><path class="cls-2" d="M172.26,64.07c.17,0,.19-.07.12-.21a1.21,1.21,0,0,0-.79-.5c-.16,0-.24,0-.27.16,0,.61.26,1.12,1.09,1.47.23,0,.32,0,.21-.21l-.47-.48C172,64.16,172.08,64.08,172.26,64.07Z"/><path class="cls-2" d="M172.45,62.91c.28,1.14-1.51.36-1.33-1.44,0-.12.07-.2.2-.13a.71.71,0,0,1,.35.79c0,.37.26.64.32.44s0-.13.15-.07A1.12,1.12,0,0,1,172.45,62.91Z"/><path class="cls-2" d="M172.63,63.55a4,4,0,0,0,1.27,2.88.44.44,0,0,0,.67-.31,1.82,1.82,0,0,0-.15-1.07c-.1-.17-.36-.2-.37,0v.53c0,.17-.11.25-.26.1a2.47,2.47,0,0,1-.64-1.71C173.22,63.68,172.57,63.05,172.63,63.55Z"/><path class="cls-2" d="M174.77,65.85a4,4,0,0,0,.77,3.09c.89.4.93-.72.83-1.33-.21-.44-.34-.44-.41-.16l0,.69c0,.21-.08.31-.27.17a4.43,4.43,0,0,1-.44-2.21C175.18,65.59,174.78,65.38,174.77,65.85Z"/><path class="cls-2" d="M175.34,66.72c.06-.27.33-.21.42,0l.07.59C175.83,68.13,175.14,67.56,175.34,66.72Z"/><path class="cls-2" d="M173.45,64.49c.21-.4.54.16.52.39C173.91,65.42,173.34,65,173.45,64.49Z"/><path class="cls-2" d="M178.41,45.25a1.42,1.42,0,0,1,1.51,1c.17.65-.41.85-.75.56-.17-.11-.11-.21,0-.22.28,0,.44,0,.34-.32a1,1,0,0,0-1-.7C178.13,45.56,178.18,45.3,178.41,45.25Z"/><path class="cls-2" d="M178.86,45.94c.45,0,.29.63,0,.32C178.71,46.09,178.73,46,178.86,45.94Z"/><path class="cls-2" d="M179.36,47.24a1.12,1.12,0,0,1,1.07,1.13c.08.47,0,.85-.24,1s-1-.12-1.07-.34,0-.31.29-.22.5.11.58-.2q0-1-.69-1A.2.2,0,0,1,179.36,47.24Z"/><path class="cls-2" d="M179.3,48c.21,0,.32.1.28.44-.08.18-.21.18-.39,0S179.15,48.11,179.3,48Z"/><path class="cls-2" d="M179.73,49.64c.63.08,1.06.35.94,1.13a2.08,2.08,0,0,1-1,1.32c-.19.07-.29,0-.31-.21s.12-.64.49-.92c.19-.32.17-.49-.07-.59l-.48-.24C179.07,49.92,179.29,49.55,179.73,49.64Z"/><path class="cls-2" d="M179.29,50.49c.29-.11.43,0,.44.32s-.13.25-.4.18S179.12,50.59,179.29,50.49Z"/><path class="cls-2" d="M178.18,42.42a4.06,4.06,0,0,1,4,2.27c.06.21,0,.35-.33.35a2,2,0,0,1-1.13-.56c-.09-.11,0-.14.07-.14.45.06.57-.06.37-.36a2.84,2.84,0,0,0-2.66-1C178.1,42.92,177.73,42.45,178.18,42.42Z"/><path class="cls-2" d="M179.77,43.5a1.76,1.76,0,0,1,.82.09c.18.13.25.26,0,.37a1.14,1.14,0,0,1-.81-.09C179.6,43.73,179.58,43.55,179.77,43.5Z"/><path class="cls-2" d="M181.59,43.16a4.47,4.47,0,0,0,2.17,1.76c.33.11.5,0,.49-.22a1.21,1.21,0,0,0-.81-1.15c-.14,0-.18,0-.12.1.16.47-.1.52-.35.28a2.6,2.6,0,0,0-1.18-.93C181.52,42.93,181.47,43,181.59,43.16Z"/><path class="cls-2" d="M177.23,76a8.67,8.67,0,0,0-.72,3.71c0,.35.07.59.44.68l2.15.14c.35,0,.57-.14.59-.48q.21-1.62,1.05-1.65l1.72-.3c.28,0,.4,0,.46.14a.87.87,0,0,0,.86.16c.12-.08.22-.16.08-.2s-.22-.4,0-.7c1.22-.65,1.65-1.24,1.53-2.25.05-.36-.6-.46-.77,0a2.22,2.22,0,0,1-.66,1.3,6.85,6.85,0,0,1-3.3,1,1.29,1.29,0,0,0-1.28.75l-.46,1.1c-.07.26-.2.38-.41.37l-1-.08c-.21,0-.28-.13-.26-.3a9.24,9.24,0,0,1,.43-2.59C177.93,76.3,177.52,75.31,177.23,76Z"/><path class="cls-2" d="M182.4,74.48c-.81.2-.39,1.16.11.78a1.83,1.83,0,0,1,.88-.53A1.74,1.74,0,0,0,182.4,74.48Z"/><path class="cls-2" d="M182.14,76.74c-.8.19-.84-.84-.23-.73a2.43,2.43,0,0,0,1,.15A1.59,1.59,0,0,1,182.14,76.74Z"/><path class="cls-2" d="M180.86,74.35c-.74.46,0,1.23.38.7a1.87,1.87,0,0,1,.69-.8A1.91,1.91,0,0,0,180.86,74.35Z"/><path class="cls-2" d="M178.17,77.83c-.55.64.34,1.17.53.56a1.83,1.83,0,0,1,.41-1A1.64,1.64,0,0,0,178.17,77.83Z"/><path class="cls-2" d="M187.61,76.9c-.83,0-.65,1-.07.79a1.72,1.72,0,0,1,1-.32A1.79,1.79,0,0,0,187.61,76.9Z"/><path class="cls-2" d="M188.25,75.75c-.52.65.38,1.16.55.55a1.89,1.89,0,0,1,.32-1A1.51,1.51,0,0,0,188.25,75.75Z"/><path class="cls-2" d="M189.46,75.9c-.7.46,0,1.23.36.7a1.77,1.77,0,0,1,.65-.8A1.7,1.7,0,0,0,189.46,75.9Z"/><path class="cls-2" d="M189.41,77.76c-.81.19-.84-.84-.23-.73a2.37,2.37,0,0,0,1,.15A1.61,1.61,0,0,1,189.41,77.76Z"/><path class="cls-2" d="M180.64,76.52c-.48.69-1.17-.06-.64-.4a2.66,2.66,0,0,0,.86-.56A1.71,1.71,0,0,1,180.64,76.52Z"/><path class="cls-2" d="M176,74.4c.85,0,.69,1,.1.79a2,2,0,0,0-1-.29A1.66,1.66,0,0,1,176,74.4Z"/><path class="cls-2" d="M173.87,72.84c.73.44,0,1.25-.33.73a1.86,1.86,0,0,0-.71-.79A1.74,1.74,0,0,1,173.87,72.84Z"/><path class="cls-2" d="M172.13,73.07c.84.12.52,1.14,0,.8a1.84,1.84,0,0,0-.95-.45A1.73,1.73,0,0,1,172.13,73.07Z"/><path class="cls-2" d="M172.8,75.46c.84,0,.65-1,.06-.77a1.77,1.77,0,0,1-1,.29A1.82,1.82,0,0,0,172.8,75.46Z"/><path class="cls-2" d="M174,74.81c.78.33,1-.68.34-.68a1.9,1.9,0,0,1-1-.11A1.92,1.92,0,0,0,174,74.81Z"/><path class="cls-2" d="M168.13,73.46c.74.44,1-.59.42-.67a1.8,1.8,0,0,1-1-.24A2,2,0,0,0,168.13,73.46Z"/><path class="cls-2" d="M165.94,73.65c.76.41,1-.64.38-.68a1.79,1.79,0,0,1-1-.2A1.91,1.91,0,0,0,165.94,73.65Z"/><path class="cls-2" d="M165.11,71.51c.82.25.35,1-.16.81-.14,0-.41-.46-.9-.57A1.74,1.74,0,0,1,165.11,71.51Z"/><path class="cls-2" d="M161.83,68.76c.24.84-.66.87-.76.31-.09-.1.16-.6,0-1.08A1.93,1.93,0,0,1,161.83,68.76Z"/><path class="cls-2" d="M160.53,68.18c.24.84-.66.87-.76.31-.08-.1.16-.6,0-1.08A2,2,0,0,1,160.53,68.18Z"/><path class="cls-2" d="M159.81,69.94c.64.37,1-.45.46-.68a2,2,0,0,1-1-.42A1.59,1.59,0,0,0,159.81,69.94Z"/><path class="cls-2" d="M161.38,71c.6.44,1.07-.33.52-.63a1.86,1.86,0,0,1-1-.52A1.6,1.6,0,0,0,161.38,71Z"/><path class="cls-2" d="M177.06,72.11c.22,0,.37.11.35.3a3.56,3.56,0,0,0,0,.73c0,.23-.07.34-.23.35-.44,0-.76.09-.68.47s0,.47-.29.31A1.2,1.2,0,0,1,177.06,72.11Z"/><path class="cls-2" d="M177.84,74.13c.18-.14.42-.25.59,0a1.81,1.81,0,0,0,.43.54.37.37,0,0,1-.06.51c-.31.24-.52.44,0,.85.16.1,0,.24-.25.25A1.2,1.2,0,0,1,177.84,74.13Z"/><path class="cls-2" d="M186,74a.32.32,0,0,1,.5,0c1.13.83.27,2.56-.82,2.13-.12,0-.14-.1-.05-.16q.6-.51,0-.87a.31.31,0,0,1-.13-.49A5.29,5.29,0,0,0,186,74Z"/><path class="cls-2" d="M183.4,71.56c.5.13.71,1.09,1.64,1a.93.93,0,0,1,.9,1.14,2.1,2.1,0,0,1-1.16,1,.72.72,0,0,1-.84-.11l-.56-.5c-.16-.11-.28-.13-.36-.05s-.2,0-.17-.23,0-.36-.18-.16c-.3.36-.57.44-.77,0s-.05-.47-.27-.3a4.81,4.81,0,0,1-.9.77c-.19.11-.33.22-.36.34a.75.75,0,0,1-1.08.4c-.45-.33-.61-.59-.62-.81a.79.79,0,0,1,.43-.9,5.42,5.42,0,0,0,1.3-.64c.17-.12.16-.2,0-.25a2.52,2.52,0,0,0-1.21.17.32.32,0,0,0-.19.19,1,1,0,0,1-.49.83c-.26.14-.46.17-.59,0a1.78,1.78,0,0,1-.12-.29,3.93,3.93,0,0,1,0-.84,1.75,1.75,0,0,1,.12-.32.62.62,0,0,1,.76-.25,2.61,2.61,0,0,0,1.34.07,1.35,1.35,0,0,1,1.09,0,.32.32,0,0,1,.11.46A4.85,4.85,0,0,1,180,73.48c-.22.19-.16.46.16.2a6.63,6.63,0,0,1,1.52-1.24c.13,0,.22-.06.27,0s.15.07.26-.06a.85.85,0,0,1,.37-.34.25.25,0,0,1,.31,0,6.24,6.24,0,0,1,1,1.29c.14.27.3.38.49.29.39-.19.38-.38.09-.57a4.85,4.85,0,0,1-.88-.55,1.34,1.34,0,0,1-.48-.77C183,71.52,183.17,71.5,183.4,71.56Z"/><path class="cls-2" d="M178.78,69.56l.84,1.26c.1.14.21.12.32,0s.28-.1.31.12c.12.72-.53.85-.94.35l-1-1.45A.27.27,0,0,1,178.78,69.56Z"/><path class="cls-2" d="M179.47,69.3c.73,1,1,2.13,2.12,2.75.33.12.53,0,.61-.35a2.37,2.37,0,0,0-.11-1.3l-.75-1.89c-.12-.27-.23-.26-.35,0a1.33,1.33,0,0,0,.19,1,10.51,10.51,0,0,1,.48,1c.2.54-.15.78-.39.5l-.76-1.21a1.51,1.51,0,0,0-.74-.79C179.42,68.94,179.32,69,179.47,69.3Z"/><path class="cls-2" d="M180.52,69.52c-.07-.22.11-.42.29-.22l.58,1c.23.35-.22.52-.3.34Z"/><path class="cls-2" d="M182.45,69.17c-.1-.48-.24-.55-.38-.62s-.25,0-.23.16A3.73,3.73,0,0,0,183,71.19c.32.1.53.06.51-.26a8.11,8.11,0,0,0-.43-2.18,1.67,1.67,0,0,1-.13-.6c0-.28-.14-.35-.32-.16a1,1,0,0,0-.07.86l.36,1.09c.12.41-.1.38-.19.22A2.63,2.63,0,0,1,182.45,69.17Z"/><path class="cls-2" d="M181.86,62.77c.59,1.22,1,4.19.52,5q-.28.54-.75.18c-.54-.48-1-1.93-1.49-3.09a1.21,1.21,0,0,1-.1-.8c.07-.29.18-.34.31-.16.44.92.8,2.16,1.25,3,.13.23.41.25.43-.16a6.94,6.94,0,0,0-.64-3.47C181.25,62.93,181.7,62.38,181.86,62.77Z"/><path class="cls-2" d="M180.51,63.7c-.14-.26,0-.53.33-.37a3.54,3.54,0,0,1,1,2.62c0,.32-.29.33-.36.11A8.73,8.73,0,0,0,180.51,63.7Z"/><path class="cls-2" d="M177.62,65.39A10.83,10.83,0,0,0,180,68.81a.53.53,0,0,0,.81-.42,6.9,6.9,0,0,0-1-3.87.33.33,0,0,0-.57.27c.28,1,.76,1.76,1,2.82.1.44-.16.5-.35.29a27,27,0,0,1-1.77-2.84C177.75,64.61,177.45,65,177.62,65.39Z"/><path class="cls-2" d="M178.11,64.25a4.34,4.34,0,0,1,1.6,2.62c.08.38-.17.45-.29.24a11.8,11.8,0,0,0-1.51-2.63C177.77,64.3,177.91,64.13,178.11,64.25Z"/><path class="cls-2" d="M175.2,65.42c.85,1,1.7,2.11,2.56,3.38.47.54,1.06.4,1.08-.33a5.45,5.45,0,0,0-1.68-3.1c-.32-.26-.49,0-.35.16a15.64,15.64,0,0,1,1.49,2.27c.2.54-.2.68-.41.43a25.49,25.49,0,0,0-2.38-3.1C175.26,64.88,175,65.15,175.2,65.42Z"/><path class="cls-2" d="M176,64.77l2,2.72c.21.34-.05.42-.22.25l-2-2.58C175.61,64.83,175.77,64.52,176,64.77Z"/><path class="cls-2" d="M184.47,44.22a.76.76,0,0,1,.07.54.4.4,0,0,0,.06.39c.3.28,1.15,1,1.4.7a.68.68,0,0,0-.27-1.11c-.12-.07-.17-.06-.15,0,0,.51-.52.4-.55,0a1,1,0,0,0-.43-.72C184.38,44,184.37,44.06,184.47,44.22Z"/><path class="cls-2" d="M181.67,46.61c.69.72,1.93.67,1.17-.82-.08-.08.14-.11-.39-.62-.06-.09-.17-.11-.17,0s-.09.11-.2.13a3.67,3.67,0,0,1-.72,0c-.25-.06-.19.35.13.44,1.35.11,1,.94.26.66C181.62,46.32,181.54,46.35,181.67,46.61Z"/><path class="cls-2" d="M182.23,48.81c.46.73,1.13-.44,0-.87l-.38-.34c-.16-.2,0-.46.22-.33a.84.84,0,0,0,.84.14c.19-.1.35-.15.34.2a3.56,3.56,0,0,0,.28,1.61c.41,1.19-.9,1.16-1.47,0C182,48.86,182.11,48.66,182.23,48.81Z"/><path class="cls-2" d="M180.54,55.89a9.13,9.13,0,0,1,1.58,4.28c0,.38-.25.57-.52.23-.42-.69-1.14-2.23-1.68-3-.16-.42.12-.74.31-.46a9.77,9.77,0,0,1,1,1.87c.09.23.26.18.17-.09a10.3,10.3,0,0,0-1.07-2.36C180.17,56.09,180.4,55.7,180.54,55.89Z"/><path class="cls-2" d="M179.8,57.68a17.92,17.92,0,0,1,1.62,3.1c.61,1.7-.67,2.85-1.43,1.69a28.38,28.38,0,0,1-1.32-2.86c-.18-.46.17-.74.41-.43a20,20,0,0,0,1.27,2.71c.27.47.89.11.6-.69a16.69,16.69,0,0,0-1.53-3.08C179.22,57.64,179.59,57.42,179.8,57.68Z"/><path class="cls-2" d="M179.14,59c-.14-.34.16-1,.36-.54l1.16,2.3c.22.45-.29.65-.41.43Z"/><path class="cls-2" d="M178.57,59.76a17,17,0,0,0,1.15,2.71c.73,1.49-.86,2.51-1.64,1.28l-1.69-2.89a.31.31,0,1,1,.49-.37c.56.88,1.08,2.09,1.67,2.83.35.51,1,.2.66-.53A25.32,25.32,0,0,1,178,59.92C177.81,59.59,178.38,59.16,178.57,59.76Z"/><path class="cls-2" d="M177.5,59.64l1.31,2.72c.28.66-.19.71-.4.37l-1.23-2.48c-.18-.28,0-.37,0-.5S177.39,59.35,177.5,59.64Z"/><path class="cls-2" d="M176,60.82a13.26,13.26,0,0,1,1.58,3.12c.31,1.43-1,1.28-1.39.81a21.22,21.22,0,0,1-2.38-3.29c-.22-.41.24-.63.49-.36a27.31,27.31,0,0,0,2.25,3.08c.27.35.62-.06.44-.38a17.45,17.45,0,0,0-1.55-2.86C175.16,60.59,175.8,60.52,176,60.82Z"/><path class="cls-2" d="M174.7,60.44a31.46,31.46,0,0,1,1.8,2.77c.14.28,0,.5-.26.3a7.66,7.66,0,0,1-1.81-2.81C174.38,60.48,174.57,60.25,174.7,60.44Z"/><path class="cls-2" d="M173.23,61.22a15.84,15.84,0,0,1,2.11,3.11c.16.42,0,.55-.37.5-1.53-.53-2.69-2.49-3.61-4-.19-.34.3-.68.53-.35a36.29,36.29,0,0,0,2.19,3.06c.21.15.28,0,.16-.17-.38-.62-.87-1.32-1.4-2C172.65,61,173,61,173.23,61.22Z"/><path class="cls-2" d="M179.08,50.93l.06,2.27a1.8,1.8,0,0,1-.71,1.38c-.3.17-.36,0-.26-.5s.46-.43.39-1,0-1.34,0-2C178.54,50.59,179,50.43,179.08,50.93Z"/><path class="cls-2" d="M178.29,51.27a11,11,0,0,1-.24,3c-.39,1.12-1.68,1.38-1.89.35a7.36,7.36,0,0,1,.44-2.87c.11-.25.42-.25.41.09a11,11,0,0,0-.27,2.29c0,.56.41.42.77-.18a7.28,7.28,0,0,0,.27-2.71C177.77,50.84,178.26,50.66,178.29,51.27Z"/><path class="cls-2" d="M177.55,51.38a6.73,6.73,0,0,1-.17,2.44c-.06.24-.35.25-.37,0l.17-2.43C177.24,51.11,177.48,51,177.55,51.38Z"/><path class="cls-2" d="M176.17,52.22l-.4,2.36c-.08.63-.62.94-1.49,1a1.13,1.13,0,0,1-1-.41.86.86,0,0,1,.08-.63c.28-.79.59-1.4.79-2.09.21-.43.55-.19.48.09l-.52,1.78c-.15.34-.15.58.17.61.52.05.85-.28,1-1l.34-1.78C175.74,51.64,176.19,51.78,176.17,52.22Z"/><path class="cls-2" d="M175.34,52.16a15.28,15.28,0,0,1-.32,2c-.22.49-.59.29-.5,0a15.27,15.27,0,0,0,.39-1.93C175,51.94,175.33,51.79,175.34,52.16Z"/><path class="cls-2" d="M173.83,52.79l-.71,1.89a1,1,0,0,1-1.4.4c-.45-.27-.4-.63-.17-1a11.83,11.83,0,0,0,.95-1.79c.1-.26.45-.23.35.15a9.13,9.13,0,0,1-.77,1.68c-.25.45.24.74.57.32a11.31,11.31,0,0,0,.88-1.84C173.64,52.31,173.92,52.39,173.83,52.79Z"/><path class="cls-2" d="M173.32,52.62a4.4,4.4,0,0,1-.71,1.58c-.22.27-.47.06-.35-.23a6.68,6.68,0,0,0,.68-1.5C173,52.27,173.32,52.15,173.32,52.62Z"/><path class="cls-2" d="M172.13,52.54a3.38,3.38,0,0,1-.81,1.36c-.28.12-.37-.11-.24-.3a9.37,9.37,0,0,0,.74-1.2C171.91,52.19,172.18,52.25,172.13,52.54Z"/><path class="cls-2" d="M170.84,53.68c-.1.13-.16.27,0,.36l.29.26c.16.21-.05.38-.26.38a1,1,0,0,1-.67-.48.5.5,0,0,1,.12-.58,9.39,9.39,0,0,0,1-1.18c.17-.28.5-.1.28.32A5,5,0,0,1,170.84,53.68Z"/><path class="cls-2" d="M171.48,55.54c-.58.76-.75,1.75.05,3.72.19.58-.09.9-.64,1.08s-.72,0-.75-.2a2.85,2.85,0,0,0-.14-1,14.91,14.91,0,0,1-.66-1.83,3.07,3.07,0,0,1,.67-2.45c.23-.32.81-.09.52.34a2.7,2.7,0,0,0-.57,1.74A11.46,11.46,0,0,0,170.5,59c.14.4.39.21.32,0a12.28,12.28,0,0,1-.45-2.18,2.06,2.06,0,0,1,.61-1.59A.31.31,0,0,1,171.48,55.54Z"/><path class="cls-2" d="M171.78,55.54a3.64,3.64,0,0,0-.34,2.78,5.45,5.45,0,0,0,1,2.26,1.05,1.05,0,0,0,1.77-.44,2,2,0,0,0-.15-.9,5.56,5.56,0,0,1,0-2.93c.16-.44-.47-.52-.61-.21a5.54,5.54,0,0,0-.1,3.32c.12.53-.38.79-.68.38-.94-1.67-.9-2.9-.37-3.9C172.54,55.43,172.05,55.15,171.78,55.54Z"/><path class="cls-2" d="M173.24,55.87c-.35.52-.48,1.39-.14,3.06.12.47-.23.48-.34.27a4.2,4.2,0,0,1-.06-3.52C172.88,55.29,173.38,55.49,173.24,55.87Z"/><path class="cls-2" d="M176.67,55.92a12.33,12.33,0,0,0,.05,3.36,1.2,1.2,0,0,1-2.38,0,6.25,6.25,0,0,1,.09-3.17.3.3,0,0,1,.59.08,5.19,5.19,0,0,0,.09,2.91c.22.36.51.4.69.19s.06-.6,0-.86a9.39,9.39,0,0,1,.23-2.72C176.13,55.39,176.7,55.5,176.67,55.92Z"/><path class="cls-2" d="M175.74,55.9a12.46,12.46,0,0,0,0,2.65c0,.44-.49.41-.57.09a9.27,9.27,0,0,1,.18-2.75C175.4,55.59,175.75,55.62,175.74,55.9Z"/><path class="cls-2" d="M178.32,55.07a4.92,4.92,0,0,1,.56,3.27c-.51,1-1.24,1.22-1.69.66a6.62,6.62,0,0,1-.41-3.15.3.3,0,1,1,.6,0,8.15,8.15,0,0,0,.15,2.27c.12.38.59.35.71-.1a5.87,5.87,0,0,0-.27-2.34C177.89,55.19,178,54.75,178.32,55.07Z"/><path class="cls-2" d="M177.86,55.56a18.5,18.5,0,0,0,.19,1.87c0,.48-.41.23-.39.08a9.73,9.73,0,0,1-.18-2C177.5,55.25,177.78,55.17,177.86,55.56Z"/><path class="cls-2" d="M179.58,54.08a2.32,2.32,0,0,1,.22,2.54c-.18.22-.36.29-.56.14a3.7,3.7,0,0,1-.7-1.7c0-.2,0-.36.18-.44s.36-.15.51,0l.08.31c.06.16,0,.23-.14.22s-.08.59.17.62.24,0,.26-.11c0-.58-.33-.88-.3-1.49C179.34,54,179.43,53.92,179.58,54.08Z"/><path class="cls-2" d="M180.41,53.65c.41.19.59.91,1,1,.13,0,.23.15.09.31l-.42.51c-.31.18-.49.1-.61-.11s-.11-.23,0-.33c.36-.35-.24-.74-.37-1.09S180.2,53.55,180.41,53.65Z"/><path class="cls-2" d="M181.72,52.29a1.55,1.55,0,0,0,.93.59c.21,0,.26.1.21.34-.19.55-.62.72-1,1.16a.38.38,0,0,1-.57,0,4.92,4.92,0,0,1-.72-.82.26.26,0,0,1,.34-.37l.48.43c.19.15.5-.11.35-.39l-.45-.55C181.18,52.38,181.52,52.1,181.72,52.29Z"/><path class="cls-2" d="M182.4,51.53c.39.44.68-.18.38-.57l-.44-.41a.46.46,0,0,1-.08-.5c0-.15.09-.18.18-.09a5.32,5.32,0,0,0,.85.65c.09,0,.25.09.31.16a.38.38,0,0,1,.05.28,3.87,3.87,0,0,1-.36,1.25c-.39.6-.86.38-1.35-.2-.13-.2-.11-.4.14-.61S182.3,51.36,182.4,51.53Z"/><path class="cls-2" d="M185.42,77.08a1.76,1.76,0,0,0,2.16-.68c.8-1.12,1.61-2.19,2.49-1.73.32.53.83.2.61-.37,0-.44-.89,0-.88-.77,0-.34.09-.34-.19-.25-.55.22-.53.52-.76.86s-.61.24-.78-.11-.12-.29-.31,0,.06.85-.36,1.53c-.51.87-1.07,1.19-1.67,1C185.37,76.43,185.23,77,185.42,77.08Z"/><path class="cls-2" d="M184.79,77.41c2,.37,3.16,1.36,6.21-.14a.28.28,0,0,0,.2-.34c0-.3.15-.48.61-.55.29,0,.31,0,.24.19q-.33.69.48.6c.25,0,.18-.09.14.22s-.29.39-.83.4a.3.3,0,0,0-.29.1,2.37,2.37,0,0,1-1,.49c-.14,0-.16.05-.14.2s.17.29.27.31.13,0,0,.2c-.36.26-.78.13-1.23-.23-.07-.1-.17-.09-.27-.07a6.83,6.83,0,0,1-2.51,0c-.17,0-.24,0-.28,0s0,.38.07.39.07.07-.13.13c-.38.08-.61-.17-.72-.66,0-.24-.19-.35-.42-.4l-.87-.31C184.11,77.77,184.19,77.44,184.79,77.41Z"/><path class="cls-2" d="M191.4,74.06c1-.83,2.25.54,1.58,1.53-.92.83-1.64.85-2.25.46C190.22,75.3,190.67,74.67,191.4,74.06Zm.19.48c.57-.5,1.2-.11.94.52a1.14,1.14,0,0,1-1.3.44Q190.87,75.17,191.59,74.54Z"/><path class="cls-2" d="M193.69,74.69a1.94,1.94,0,0,1,.53-.15c.17-.05.3,0,.33.25a.92.92,0,0,0,0,.37c0,.21-.08.29-.28.26a2.4,2.4,0,0,1-.65-.18A.31.31,0,0,1,193.69,74.69Z"/><path class="cls-2" d="M193.62,73.46c.18-.17.25-.14.37,0a3,3,0,0,0,.28.41c.09.12.06.19,0,.29a1.44,1.44,0,0,1-.72.32c-.36,0-.38-.26-.32-.52A1.28,1.28,0,0,1,193.62,73.46Z"/><path class="cls-2" d="M192.6,73.24c-.06.35,0,.55.46.47a1,1,0,0,0,.48-.36c.11-.12.06-.23-.06-.33a1.38,1.38,0,0,1-.27-.24c-.17-.16-.31-.15-.41,0A1.36,1.36,0,0,0,192.6,73.24Z"/><path class="cls-2" d="M194.31,73.14c-.28.17,0,.83.36.58a.55.55,0,0,1,.64-.21c.38,0,.55-.54.23-.89s-.82-.23-.85.06S194.57,73,194.31,73.14Z"/><path class="cls-2" d="M175.51,72.94l-.57-.48a.58.58,0,0,1-.21-.49c0-.57-.27-.76-.53-.86s-.19,0-.2.15l-.05.4c-.06.15-.16.11-.28.11-1.63-.17-1.27-1.52-2.35-1.36-.26,0-.24,0,.11.31.13.14.17.35-.16.47a1,1,0,0,0-.42.08c-.49.23-.62-.44-1.39-.21-.11.07-.19.13,0,.18a.7.7,0,0,1,.29.92l-.71,2a1.49,1.49,0,0,0,.41,1.5c.67.26.86.51.36.77-.15,0-.16,0,0,.18a.92.92,0,0,0,1.06-.18.69.69,0,0,1,.73-.12c1,.26,1.35.54.73.86-.15,0-.18,0,.07.16.93.22,1-.82,2.12-.37.27.12.4.26.2.46-.13,0-.15.11.05.16a.9.9,0,0,0,1-.67c.17-.25.31-.31.71-.47a1,1,0,0,0,.3-.63c0-.25-.08-.37-.31-.25-1.86,1-3.84.43-6.16-.53a.72.72,0,0,1-.4-.87l.58-1.66c.67-1.33,2.44-.72,4.79.92C175.62,73.75,175.72,73.18,175.51,72.94Z"/><path class="cls-2" d="M168.15,71.71c-.22-.22,0-.56.3-.4a2.65,2.65,0,0,1,1,1c.12.26-.17.5-.36.34A4.09,4.09,0,0,0,168.15,71.71Z"/><path class="cls-2" d="M168.52,73.79c.43-.14.55.42.14.72a7.43,7.43,0,0,1-2.38.2.38.38,0,0,0-.33.07,1.05,1.05,0,0,1-1.16.14q-.16-.06,0-.12c.34-.2.26-.35,0-.46l-1.35-.65a.2.2,0,0,0-.28,0,1,1,0,0,1-1.06,0c-.16-.11-.16-.18,0-.19.37-.06.37-.41.37-.93a4.13,4.13,0,0,1,1.23-2.63.41.41,0,0,0,0-.67q-.15,0,0-.09c.61-.2.78.74,1.55.63.08,0,.15-.07.17.13,0,.38-.37.48-1,.38a.26.26,0,0,0-.24.15,4.9,4.9,0,0,0-.85,1.66c-.08.4,0,.67.19.75A5.53,5.53,0,0,0,168.52,73.79Z"/><path class="cls-2" d="M166,69.69c.59-.61,2.25-.22,1.86,1.42-.34,1-.89,1.37-1.63,1.12A2,2,0,0,1,166,69.69Zm.31.46c.33-.42,1.09-.15.81.74-.2.68-.5.83-.88.54A1.45,1.45,0,0,1,166.35,70.15Z"/><path class="cls-2" d="M168.05,68.87c.13-.19.26-.24.41-.16l.33.25a.32.32,0,0,1,.1.45,1.23,1.23,0,0,1-.61.33.34.34,0,0,1-.41-.31A.8.8,0,0,1,168.05,68.87Z"/><path class="cls-2" d="M167,68.47c0-.28.12-.34.32-.29l.42.15c.25.07.3.24.15.49a2.47,2.47,0,0,1-.27.32c-.28.18-.48.15-.6-.1Z"/><path class="cls-2" d="M165.92,68.72c-.09-.41,0-.46.2-.48a3.07,3.07,0,0,0,.42,0c.22-.08.32,0,.3.32,0,.09,0,.17,0,.24a.67.67,0,0,1-.07.31C166.45,69.62,166,69.07,165.92,68.72Z"/><path class="cls-2" d="M162.15,71.52A5.16,5.16,0,0,1,158.38,69a.86.86,0,0,1,.06-1A3.41,3.41,0,0,1,159.78,67a.83.83,0,0,1,1,.08,6.57,6.57,0,0,1,1.83,3c0,.51.51.5.59,0l-.11-.6c0-.22,0-.34,0-.41.45-.59.44-1,.11-1.36-.11-.13-.15-.21-.19,0-.22.59-.44.58-.66.17a5.36,5.36,0,0,0-1.31-1.43c-.19-.11-.25-.22-.21-.33-.1-.75-.38-.77-.66-.83s-.21,0-.14.15c.12.42-.08.69-.57.84a3.43,3.43,0,0,0-2,1.77c-.12.3-.34.3-.64.07-.14-.2-.19-.12-.17.15a.87.87,0,0,0,.62.88.3.3,0,0,1,.32.25,2.42,2.42,0,0,0,.5.69c.28.24.1.34-.3.37-.19-.06-.19,0,0,.19a1.07,1.07,0,0,0,.91.33A.37.37,0,0,1,159,71l.6.37c.26.15.23.3-.1.47-.17.05-.21.1,0,.19a.76.76,0,0,0,1.08-.11.24.24,0,0,1,.31-.08,2.51,2.51,0,0,0,1.33.14C162.49,71.9,162.49,71.54,162.15,71.52Z"/><path class="cls-2" d="M156.74,64.41c.45-.78,1.39-.93,2.1.11s.31,2.25-.68,2.11A1.82,1.82,0,0,1,156.74,64.41Zm.47.48c0-.56.73-.75,1,0s.16,1.07-.26,1A1.32,1.32,0,0,1,157.21,64.89Z"/><path class="cls-2" d="M157.39,62.89c0-.22,0-.37.17-.42a1,1,0,0,1,.63.05.28.28,0,0,1,.2.35,1.53,1.53,0,0,1-.15.56C157.82,63.93,157.45,63.52,157.39,62.89Z"/><path class="cls-2" d="M156.36,63.22c-.41-.52,1-.95.95-.33C157.52,63.94,156.87,64.12,156.36,63.22Z"/><path class="cls-2" d="M155.59,64c.71.67,1.55.26.67-.67C156,62.9,155.26,63.77,155.59,64Z"/><path class="cls-2" d="M156.14,62.3a.28.28,0,0,0-.23-.29c-1.42-.85,1.05-1.77.82-.4a.29.29,0,0,0,0,.32C157.09,62.47,156.33,62.87,156.14,62.3Z"/><path class="cls-2" d="M168.64,75.55a1,1,0,1,1-1.47,1.31C166.31,75.53,168,74.7,168.64,75.55Zm-1,.34c-.38.49.17.88.5.6S168,75.59,167.66,75.89Z"/><path class="cls-2" d="M164.27,78.79a1,1,0,1,1-1.47,1.31C161.94,78.77,163.59,77.93,164.27,78.79Zm-1,.34c-.37.49.17.88.51.6A.39.39,0,0,0,163.29,79.13Z"/><path class="cls-2" d="M186.68,82.09a1,1,0,1,1-1.47,1.32C184.35,82.07,186,81.24,186.68,82.09Zm-1,.34c-.38.5.17.88.5.61S186,82.13,185.7,82.43Z"/><path class="cls-2" d="M170.46,78.92c.25.18.22.44-.09.45a3,3,0,0,1-2-1.7c-.14-.37.26-.73.52-.29A4.12,4.12,0,0,0,170.46,78.92Z"/><path class="cls-2" d="M168.68,82.23a6.5,6.5,0,0,1,1.57.2c.13.06.18.08.22.24l0,.42c0,.15-.07.24-.24.17a5.4,5.4,0,0,0-1.53-.54A.25.25,0,0,1,168.68,82.23Z"/><path class="cls-2" d="M165.51,82.19c2.85-2.32,4,2,.41.92-.2-.11-.21-.22,0-.31a4.16,4.16,0,0,1,1-.43c.23-.06.36,0,.47.08s.52-.33,0-.38a1.59,1.59,0,0,0-1.11.4C165.66,82.74,165.22,82.58,165.51,82.19Z"/><path class="cls-2" d="M160.5,74.59c3.72-.1,2.09,4-.23,1-.09-.21,0-.29.19-.25a4.86,4.86,0,0,1,1,.24c.21.09.31.19.33.35s.62,0,.23-.3a1.71,1.71,0,0,0-1.14-.36C160.29,75.1,160,74.72,160.5,74.59Z"/><path class="cls-2" d="M189.16,79.68c-3.36-1.46-3.3,3-.14,1,.16-.17.14-.27-.08-.31a4,4,0,0,0-1-.15.41.41,0,0,0-.43.21c-.15.22-.58-.18-.1-.37a1.59,1.59,0,0,1,1.16.08C189.17,80.25,189.54,80,189.16,79.68Z"/><path class="cls-2" d="M182.87,80.13a8.77,8.77,0,0,0,3-.23c.35-.19.73.21.33.45a6,6,0,0,1-3.28.37C182.35,80.63,182.47,80.15,182.87,80.13Z"/><path class="cls-2" d="M184.83,82.1c.27.32-.13.54-.45.4-1.37-.91-.31-1.49,1.7-1.86.42-.07.52.42.24.5l-1.48.48c-.2.06-.3.14-.18.26Z"/><path class="cls-2" d="M182.78,83.11l1.57-.37c.31-.07.58.46.23.62l-1.48.36C182.61,83.83,182.47,83.24,182.78,83.11Z"/><path class="cls-2" d="M165.11,79.22c3.07.35,4.95,1.49,3.67,2.72-.43.12-.55,0-.56-.28s.59-.33.07-.75a8.87,8.87,0,0,0-3.23-1.12C164.65,79.66,164.7,79.23,165.11,79.22Z"/><path class="cls-2" d="M163.12,76.56c3.14,1.46,2.37,2.76,1.42,2.17-.09,0-.1-.15,0-.28s.09-.18,0-.28a10.56,10.56,0,0,0-1.6-1.19C162.68,76.78,162.79,76.45,163.12,76.56Z"/><path class="cls-2" d="M163.13,76.14a19,19,0,0,0,2.46,1.44,8.33,8.33,0,0,0,1.79.72c.84.06.93-.6.48-.85s-.12.33-.75.15a27.42,27.42,0,0,1-3.6-1.79C163.14,75.61,162.9,75.91,163.13,76.14Z"/><path class="cls-2" d="M175,86a.41.41,0,0,1,.81,0,5.64,5.64,0,0,1,0,1.59.44.44,0,0,1-.84,0A3,3,0,0,1,175,86Z"/><path class="cls-2" d="M176.5,86.32c0-.84.9-.76.92,0l0,1.27c0,.6-.88.56-.89.12Z"/><path class="cls-2" d="M171.73,88c.37-.1.77.1.59.56-.11.14-.31.15-.55.1S171.38,88,171.73,88Z"/><path class="cls-2" d="M180.2,88.63c.39.12.35.53,0,.71s-.7-.08-.58-.41A.47.47,0,0,1,180.2,88.63Z"/><path class="cls-2" d="M172.32,87.57a3.29,3.29,0,0,1,1.91-.71c.34,0,.45.59,0,.72a2.1,2.1,0,0,0-1.09.35.44.44,0,0,1-.51.14l-.36-.28C172.21,87.73,172.25,87.65,172.32,87.57Z"/><path class="cls-2" d="M177.82,87.17a3.76,3.76,0,0,1,1.91,1c.09.1.11.19,0,.26l-.38.23c-.16.09-.2,0-.29-.08a2.86,2.86,0,0,0-1.19-.71c-.09,0-.15-.08-.16-.23C177.65,87.33,177.67,87.12,177.82,87.17Z"/><path class="cls-2" d="M176.73,89.65c.54.4,1.2.55,1.63.94.13.1.23.21.09.37l-.23.27a.37.37,0,0,1-.53,0,15.89,15.89,0,0,0-1.43-.82C175.84,90.14,176.28,89.49,176.73,89.65Z"/><path class="cls-2" d="M174.38,88c.17-.11.32-.15.42,0l.38.25c.12.09.18.18,0,.32-.68.53-1.62.67-2.09,1.45a1.37,1.37,0,0,1-.93.47c-.16,0-.23-.1-.21-.31C172.06,89.05,173.38,88.64,174.38,88Z"/><path class="cls-2" d="M176.06,88.54a.55.55,0,0,1,.52-.22c.65,0,.81,0,.44.53-.84,1-2,1.1-2.45,1.91-.09.24-.25.23-.42.15l-.32-.3c-.19-.22-.1-.42.11-.62C174.55,89.43,175.42,89.14,176.06,88.54Z"/><path class="cls-2" d="M177.41,88.63c.13-.18.26-.13.4,0,.64.51,1.76.69,2.53,1.88.06.13,0,.22-.1.27a1.43,1.43,0,0,1-.62,0,1.15,1.15,0,0,1-.5-.34,2.59,2.59,0,0,0-.61-.48c-.39-.21-.76-.34-1.16-.58S177.16,88.9,177.41,88.63Z"/><path class="cls-2" d="M174.42,85.87a4,4,0,0,0-2.08.21.71.71,0,0,1-.86-.18c-.58-.58-1-.84-1.17-.42-.18.26-.37.34-.57,0l-.57-1c-.11-.37-.48-.48-1-.42-.31,0-.44.18-.37.47l.2.47c.19.36,0,.44-.26.15-.64-.82-1.19-1.2-1.78-1.2q-.39,0-.27.39l.14.45c.09.28,0,.22-.18.12-.61-.51-1.2-.84-1.77-.53-.15.09-.27.19-.1.41s.11.25-.08.31l-1.16.36c-.36.19-.57.42-.22.73a4.79,4.79,0,0,0,2.47.19c.22,0,.32.1.19.27a1.32,1.32,0,0,1-.49.44q-.19.11,0,.33a.92.92,0,0,0,1,.23l1.14-.46c.2-.07.27,0,.18.2l-.47.54c-.17.24-.16.45.22.59a2.22,2.22,0,0,0,2-.66c.32-.29.55-.19.49,0l-.38.58c-.13.21,0,.39.3.43,1.12,0,1.74-1.43,2.18-1.45.21-.12.45,0,.8-.22.74-.46,1.41-.78,1.81-.65C174.66,86.72,174.93,86.09,174.42,85.87Zm-4.54,1.67c-.25.43.35.42.58-.27,0-.2.23-.29.53-.33s.14-.72,0-.51a.9.9,0,0,1-.52.24,1,1,0,0,1-1-.46l-.51-.85c-.15-.25-.27-.13-.15.13l.24.5c.11.22,0,.34-.22.36a2.35,2.35,0,0,1-1.95-1.24c-.18-.27-.34-.14-.18.07l.26.4c.13.18.11.29-.1.31a3.16,3.16,0,0,1-1.93-.87c-.2-.12-.27-.1-.2.06l.09.24c.08.2,0,.25-.2.25l-1,0c-.26,0-.3.18.15.2a7,7,0,0,1,2.37.31c.13,0,.23.09.11.29l-.39.37c-.18.14-.16.28.1.2a2.44,2.44,0,0,1,1.85-.41.3.3,0,0,1,.2.47l-.2.43c0,.19-.07.33.2.13.45-.46.89-.81,1.33-.76C169.88,86.88,170.16,87.1,169.88,87.54Z"/><path class="cls-2" d="M163.41,83.86a4,4,0,0,1-1.6-2.77c-.11-.37-.3-.35-.41-.1s-.45.33-.45,0c.05-1.34-.06-2-.49-2.41s-.61-.27-.72.11l-.14.66c-.06.42-.39.22-.35,0,.05-1.16,0-2.15-.42-2.42-.24-.19-.4-.17-.48.07-.12.62-.18.66-.54.21-.5-.72-.76-.77-.78-.16,0,1,.14,1.12-.77,1-.41,0-.6.24-.29.53l1.06.66c.19.14.31.25,0,.25l-1-.19q-.45,0-.27.36c.27.62,1.11,1.1,2.51,1.44.23.07.24.26,0,.25l-1.38.06c-.28,0-.27.15-.21.32.39.67,1.06,1.12,2.51,1,.18,0,.38-.07.39.22s0,.43.22.47a3.57,3.57,0,0,1,3.32.8C163.45,84.53,163.7,84.11,163.41,83.86Zm-2.06-1c.26,0,.18-.06.11-.2-.28-.61-.41-.22-.78-.45s-.57-1-.52-2c.05-.27-.11-.38-.16,0l-.09.52c0,.25-.13.32-.37.2a2.21,2.21,0,0,1-.93-1.43c0-.23-.1-.36-.23-.41a1.9,1.9,0,0,1-.63-.94c-.06-.21-.22-.23-.19,0a.35.35,0,0,1-.14.34c-.2.07-.24.14,0,.21s.71.54,1,1.32c.07.16,0,.24-.11.24l-1-.08c-.42-.08-.24.17,0,.23l1.09.23a1.05,1.05,0,0,1,.88.63c.15.25.13.41-.06.46a10,10,0,0,1-1.21.21c-.3,0-.28.1.05.23.61.27,1.85-.35,2.18.19.07.15,0,.45.21.45Z"/><path class="cls-2" d="M162.75,81.29c.37-.29,1-.19.92.3a.68.68,0,0,1-.67.3A.35.35,0,0,1,162.75,81.29Z"/><path class="cls-2" d="M160.08,84.1c.39-.15.65,0,.74.5,0,.33-.25.41-.62.36A.5.5,0,0,1,160.08,84.1Z"/><path class="cls-2" d="M162.88,82.13a1.83,1.83,0,0,0,.71-.09c.52-.19.76.34.47.59a.44.44,0,0,0-.19.51c.42,1,0,1-.49.26a1.09,1.09,0,0,0-.58-.54A.37.37,0,0,1,162.88,82.13Z"/><path class="cls-2" d="M160.91,84.32c-.28-.49.1-.88.56-.57a.92.92,0,0,0,.68.3,1,1,0,0,1,.64.2c.17.16.14.29,0,.29-.44,0-.82,0-1,.4s-.67.41-.77,0A1.54,1.54,0,0,0,160.91,84.32Z"/><path class="cls-2" d="M156.56,77.3a2.52,2.52,0,0,1-.95-3.65c.31-.77-.07-1.32-.53-.75-.25.23-.48.07-.37-.28.42-1.32.39-2.19-.31-2.37-.51-.17-.72.23-.8.88-.13.43-.49.49-.42.08.26-.76.26-1.27-.05-1.48s-.52,0-.61.4-.43.19-.54-.15-.37-.32-.56-.2a.6.6,0,0,1-.66.16c-.42,0-.46.18-.32.46.34.36.25.63-.17.39s-.65.22-.45.56a2.55,2.55,0,0,0,1.1.81c.28.14.35.25,0,.21-.61-.1-.61.11-.52.37.09.64.9,1,2,1.32.3.11.33.33.08.28l-.44,0c-.25,0-.31.1-.17.31a2.82,2.82,0,0,0,1.75,1,1.57,1.57,0,0,1,1,.86,6.15,6.15,0,0,0,1.61,1.32C156.71,77.92,156.87,77.6,156.56,77.3Zm-2.09-2.22c.11.14,0,.26-.15.1s-.58-.25-1-.27c-.14,0-.19-.17,0-.13,1.09-.14.12-1.23-1.22-1.42-.3,0-.18-.28,0-.19,1.78.67.91-1.14-.62-1.41-.24-.06-.2-.23,0-.16,1,.32.49-.18,0-.62-.18-.2,0-.39.19-.22.43.49.54.56.8.09.06-.16.19-.13.14.09a1.16,1.16,0,0,0,.08,1.15c.9,1.37.83.5,1.33-.58.1-.21.21-.18.14.06l-.44,1.32c-.24.74.05,1.31.7,1.13.17-.07.23,0,.11.18S154.23,74.78,154.47,75.08Z"/><path class="cls-2" d="M156,74.78a3,3,0,0,0,.89.27c.33,0,.5.51.19.65s-.6.19-.57.75-.44.54-.49.24a2.42,2.42,0,0,0-.36-1.29C155.4,75,155.54,74.66,156,74.78Z"/><path class="cls-2" d="M156.38,73.9c.46-.08.76,0,.74.54-.07.25-.31.29-.63.24C156,74.56,156,74.05,156.38,73.9Z"/><path class="cls-2" d="M152.87,76.58a.42.42,0,0,1,.77.19c.09.38,0,.6-.38.65S152.69,76.81,152.87,76.58Z"/><path class="cls-2" d="M153.8,76.76a.4.4,0,0,1,.76-.19,1.07,1.07,0,0,0,.55.58c.71.41.74.78.18.68s-.68-.23-.8,0c-.31.39-.93.2-.81-.2A2.59,2.59,0,0,0,153.8,76.76Z"/><path class="cls-2" d="M151.65,68.92c-.42-1.06-.49-1.77-.13-2a.4.4,0,0,0,0-.55c-.14-.16-.07-.25.1-.29s.36-.23.57-.53c.77-.67.32-1.37-.56-.81-.32.18-.46-.2-.16-.28.86-.34,1.46-.76,1.35-1.42,0-.31-.18-.4-.41-.25-.61.29-.78.25-.52-.13a1.22,1.22,0,0,0,.44-1.3c-.08-.26-.24-.39-.55-.2s-.65.44-1,.18c-.54-.27-.84.24-.9,1.35,0,.46-.22.35-.55-.15-.11-.17-.3-.1-.58.21a.75.75,0,0,0-.1.93l.37.64c.14.34,0,.4-.16.34-.68-.39-.92-.24-.7.46a1.33,1.33,0,0,0,1,.87.56.56,0,0,1,.39.62c0,.23.15.46.61.68.29.12.58.37.81,1.48a1,1,0,0,0,.49.71C151.71,69.63,152,69.32,151.65,68.92Zm-1.36-2.09c.54.5.76,0,.33-.31-.34-.12-.26-.31,0-.53.49-.47.56-.64.22-.5s-.53-.1-.57-.51.09-.59.35-.73c.61-.31.66-.42.2-.42-.22.05-.35,0-.3-.27a1.5,1.5,0,0,1,.55-1c.14-.16.22-.29-.09-.29s-.72.16-.66.69l-.11.81c-.07.31-.2.38-.41.2-.4-.37-.53-.39-.36-.06.52.8.85,1.49.31,1.63-.22,0-.26.08-.13.21s.81.24.6.75Z"/><path class="cls-2" d="M153.05,66.24c.48.05.69.26.52.69a.63.63,0,0,1-.78,0A.39.39,0,0,1,153.05,66.24Z"/><path class="cls-2" d="M148.68,67c.43-.09.64.19.52.69a.47.47,0,0,1-.72.17A.52.52,0,0,1,148.68,67Z"/><path class="cls-2" d="M149.47,67.41a.43.43,0,0,1,.79.22l.1.37.47.63c.19.29,0,.58-.22.38s-.7-.59-.94-.35c-.43.17-.75-.08-.62-.45A5,5,0,0,0,149.47,67.41Z"/><path class="cls-2" d="M152.38,66.89c.24.16.5.31.77.46s.52.7-.09.73c-.29,0-.48.22-.62.65s-.3.26-.41,0c-.14-.44.16-1-.07-1.25S152.07,66.72,152.38,66.89Z"/><path class="cls-2" d="M188.54,83.77c-.91-1.28,1.75-1.57,1.11,0a.39.39,0,0,0-.13.48c.22.71-1,.68-.78,0C188.83,84.08,188.72,83.92,188.54,83.77Z"/><path class="cls-2" d="M195.54,78.59c-1.4-.66.79-2.24,1-.57a.39.39,0,0,0,.11.48c.53.51-.51,1.07-.65.42C196,78.72,195.78,78.63,195.54,78.59Z"/><path class="cls-2" d="M199.52,71c-1.46-.36.22-2.36.78-.81,0,.18,0,.36.23.43.65.35-.15,1.23-.52.58C199.94,71,199.75,70.94,199.52,71Z"/><path class="cls-2" d="M190.8,86.15c1.57,0,.14,2.33-.69.89a.37.37,0,0,0-.29-.39c-.69-.26.07-1.17.46-.63C190.37,86.19,190.56,86.21,190.8,86.15Z"/><path class="cls-2" d="M198.48,79.6c1.31-.62,1.27,2-.15,1.1a.38.38,0,0,0-.44-.2c-.72.12-.6-.93.07-.76C198.14,79.85,198.31,79.77,198.48,79.6Z"/><path class="cls-2" d="M202.69,71.07c1.19-1,1.6,1.66.17,1.11a.47.47,0,0,0-.55-.09c-.79.18-.73-.93-.09-.78C202.41,71.38,202.56,71.27,202.69,71.07Z"/><path class="cls-2" d="M178,86.12a13.43,13.43,0,0,1,2.77,1.07,1.29,1.29,0,0,0,1.16,0c2.21-.77,4.08-1.47,6.14-1.31.38,0,.46.29-.23.31a2.51,2.51,0,0,0-1.19.21c-1.56.57-2.79,1.3-3.62,1.19-1,0-1.08.4-.6.47a4.92,4.92,0,0,0,2.49-.44,8.54,8.54,0,0,1,3.45-1.25c.33,0,.48-.06.17.33a8.87,8.87,0,0,1-3.61,1.68c-1.26.32-2,.76-2.86.44a7.15,7.15,0,0,1-1.79-1,6,6,0,0,0-2.41-.88C177.41,86.76,177.57,86,178,86.12Z"/><path class="cls-2" d="M181.91,89c1.83.74,4.62-1.14,5.88-1.12.46,0,.56.23.29.35l-3.25,1c-.35.11-.31.27-.07.27,1.79-.29,2.94-1.33,4-1.18.23,0,.32.17,0,.31a22.27,22.27,0,0,1-4.25,1.4C182.93,90.09,182.22,89.65,181.91,89Z"/><path class="cls-2" d="M180.63,86.71c1.08-.06,1.75-1,2.9-1.63.33-.22.68-.07,1.24-.31a2,2,0,0,1,2-.15c.22.19.29.31,0,.27a2.29,2.29,0,0,0-1.66.43l-1.25.25c-.59.13-.83.42-.37.36l.61-.1c.47,0,.8-.44,1.44-.46a9.35,9.35,0,0,0,1.34-.29c.32-.1.42.48.06.53a16.81,16.81,0,0,0-1.88.32,24.25,24.25,0,0,0-3.13,1.12C181.58,87.27,180.76,87.09,180.63,86.71Z"/><path class="cls-2" d="M189,85.23c.14-.48,1.67-.8,2.94-2.36.76-1,2.23-1.82,3.86-3,.34-.33.34-.17.29.06a3.63,3.63,0,0,1-1.72,1.78,8.88,8.88,0,0,0-2.64,2.18c-.23.34-.08.35.43,0a7.63,7.63,0,0,1,2.21-1.78,4.67,4.67,0,0,0,1.78-1.8c.16-.3.24-.22.21.31a2.71,2.71,0,0,1-1.37,2,10.5,10.5,0,0,1-3.16,2,3.15,3.15,0,0,0-2.2.94C189.27,86.09,188.59,85.58,189,85.23Z"/><path class="cls-2" d="M191.5,84.94a8.28,8.28,0,0,0,4.74-3.07c.25-.23.59-.2.52.12a7.62,7.62,0,0,1-2.8,2.49c-.32.17-.28.42,0,.3a10,10,0,0,0,3.09-2.72c.15-.21.26-.11.28.09.08.4-.25.87-.86,1.38a8.81,8.81,0,0,1-2.18,1.7,13.76,13.76,0,0,1-2.79.07C191.24,85.31,191.17,85,191.5,84.94Z"/><path class="cls-2" d="M190.36,83.58a6.19,6.19,0,0,0,.29-1.28,2.21,2.21,0,0,1,1-1.34A19.27,19.27,0,0,0,193.86,79c.11-.13.2-.14.22.18,0,.54-.81.9-1.81,1.9l-.82.84c-.21.35.05.35.36.06a9.14,9.14,0,0,1,1.69-1.71c.32-.25.4-.14.3.22a1.81,1.81,0,0,1-.88,1,6,6,0,0,0-1.46,1.54,2.15,2.15,0,0,1-1,.83C190.32,83.9,190.3,83.76,190.36,83.58Z"/><path class="cls-2" d="M196.69,79.54A4.81,4.81,0,0,0,197.92,77a16.62,16.62,0,0,1,2.32-4.24c.31-.27.4-.21.28.17-.6,1.6-1.53,3-2.05,4.28-.1.31,0,.37.21.19,1-1.23,1.49-3.51,2.36-5,.34-.49.39-.22.39.15a10.63,10.63,0,0,1-1.77,4.67c-.44.55-1.09.76-1.35,1.27a5.44,5.44,0,0,1-1.14,1.44C196.7,80.3,196.5,79.77,196.69,79.54Z"/><path class="cls-2" d="M197.12,77.73c-1.25-2.1.55-4.28,1.37-5.15.33-.28.49-.13.38.11a2.21,2.21,0,0,0-.59,1.18c-.26,1-.61,1.07-.82,1.53-.33.63-.16.81,0,.52.75-1.11,1.09-2.69,1.64-3.26.28-.3.48-.07.44.23a12.78,12.78,0,0,1-1.4,2.73,2.89,2.89,0,0,0-.53,1.36C197.52,77.63,197.44,78.11,197.12,77.73Z"/><path class="cls-2" d="M198.81,78.33a6.24,6.24,0,0,0,1.87-2.28A2.71,2.71,0,0,1,202.06,74c.53-.22.49-.09.18.29-.84.88-1,2.21-1.78,3.1-.22.28-.18.36.1.23.61-.36,1.05-2.59,2-3.52.31-.2.45-.19.23.27A16.75,16.75,0,0,1,201,77.91a2.69,2.69,0,0,1-.76.41c-.34.11-.66.15-1,.27C198.78,78.77,198.55,78.74,198.81,78.33Z"/><path class="cls-2" d="M200.68,69.56c-1-.84-1.32-2.16-.68-4.48.15-.35.06-.36.24-.18.73.95-.42,1.1.18,3.4.1.25.31.2.23,0a2.85,2.85,0,0,1-.07-1.79,1.34,1.34,0,0,0,.06-.52c-.06-.24,0-.29.25-.14s.28.57.13,1.41a2.72,2.72,0,0,0,0,1.33,1.29,1.29,0,0,1,0,1C201,69.77,200.83,69.72,200.68,69.56Z"/><path class="cls-2" d="M200.76,71.56a28.65,28.65,0,0,0,.54-3c0-1.8.22-3.23.82-3.81.22-.19.38-.2.42.16a2.31,2.31,0,0,1-.39,1.59,5.28,5.28,0,0,0-.32,2.13c0,.27.34.41.38,0a4.35,4.35,0,0,1,.32-2.17,2.14,2.14,0,0,0,.23-1.45c0-.29.07-.29.24-.11s.32.37.31,1.17a7.43,7.43,0,0,1-.48,2.54,20.25,20.25,0,0,0-1.3,2.08,1.48,1.48,0,0,0-.16,1A.31.31,0,1,1,200.76,71.56Z"/><path class="cls-2" d="M202,70.4l1.14-1.67a6.63,6.63,0,0,0,.48-2.81c0-.28.07-.36.23-.24a.61.61,0,0,1,.22.77l-.31,1.41-.21,1c-.06.29.2.3.21,0a2.58,2.58,0,0,1,.35-1.25,3.41,3.41,0,0,0,.05-1.87c0-.25.06-.25.25,0a1.42,1.42,0,0,1,.29,1.39,1.74,1.74,0,0,0-.14.88,1.79,1.79,0,0,1-.43,1.24l-1.56,1.34C201.83,71,201.81,70.77,202,70.4Z"/><path class="cls-2" d="M148.47,58.58l1.64.26v-.06a.49.49,0,0,0-.17-.49,2.06,2.06,0,0,0-.69-.29l0-.09,2.11.34v.09a1.81,1.81,0,0,0-.59,0,.73.73,0,0,0-.33.16.72.72,0,0,0-.12.35l1.13.17a1.6,1.6,0,0,0,.42,0A.18.18,0,0,0,152,59a.28.28,0,0,0,.08-.19l0-.2a1.06,1.06,0,0,0-.15-.76,1.65,1.65,0,0,0-.74-.52v-.09l1.26.35-.42,2.79H152l0-.11a.45.45,0,0,0,0-.24.31.31,0,0,0-.13-.12,2,2,0,0,0-.37-.08l-2.66-.42-.34,0a.29.29,0,0,0-.17.06.31.31,0,0,0-.12.24l0,.11-.11,0,.41-2.71,1.19.19v.09a1.57,1.57,0,0,0-.66.1.66.66,0,0,0-.33.31,1.53,1.53,0,0,0-.13.49Z"/><path class="cls-2" d="M149,53.6l1.33.3,0,.1a1.47,1.47,0,0,0-.88.13.76.76,0,0,0-.44.5.5.5,0,0,0,.06.42.61.61,0,0,0,.34.23.66.66,0,0,0,.24,0,.81.81,0,0,0,.33-.15,5.1,5.1,0,0,0,.46-.42,2.38,2.38,0,0,1,.83-.59,1.36,1.36,0,0,1,.75,0,1.3,1.3,0,0,1,.78.53,1.05,1.05,0,0,1,.17.88,1.28,1.28,0,0,1-.11.27,2.73,2.73,0,0,1-.22.3.37.37,0,0,0-.11.17.19.19,0,0,0,0,.14.45.45,0,0,0,.15.16l0,.08-1.5-.37,0-.09a1.82,1.82,0,0,0,1.06-.16.88.88,0,0,0,.49-.54.59.59,0,0,0-.08-.47.64.64,0,0,0-.38-.26.88.88,0,0,0-.28,0,.94.94,0,0,0-.3.12,2.56,2.56,0,0,0-.41.36,3.44,3.44,0,0,1-.61.5,1.23,1.23,0,0,1-1,.16,1.27,1.27,0,0,1-.74-.48.88.88,0,0,1-.16-.78.74.74,0,0,1,.12-.29,1.16,1.16,0,0,1,.19-.24.57.57,0,0,0,.15-.19.13.13,0,0,0,0-.11.83.83,0,0,0-.21-.12Z"/><path class="cls-2" d="M150.7,49.81l1,.44,0,.08a2.27,2.27,0,0,0-.57-.06.67.67,0,0,0-.34.13.61.61,0,0,0-.18.28l-.09.22,2.9,1.26a1.61,1.61,0,0,0,.37.13.27.27,0,0,0,.17,0,.44.44,0,0,0,.14-.18l0-.1.11,0-.66,1.58-.1-.05,0-.1a.47.47,0,0,0,0-.23.33.33,0,0,0-.1-.15,1.3,1.3,0,0,0-.34-.18l-2.9-1.26-.09.22a.58.58,0,0,0,0,.51,1.36,1.36,0,0,0,.54.52l0,.09-1-.45Z"/><path class="cls-2" d="M154.38,49.24l-.58,1,.27.32a1,1,0,0,0,.25.23.3.3,0,0,0,.27,0,.74.74,0,0,0,.23-.24l.09.06-.54.93-.1,0a.47.47,0,0,0,0-.35,2.88,2.88,0,0,0-.39-.56l-2.21-2.72,0,0,3.48.74a2.12,2.12,0,0,0,.65.08.36.36,0,0,0,.21-.14l.09.05L155.32,50l-.1-.06,0,0a.41.41,0,0,0,.08-.27.24.24,0,0,0-.09-.12l-.1,0-.23-.06Zm-.23,0-1.45-.32,1,1.17Z"/><path class="cls-2" d="M156.34,48.32l-.09-.06.07-.09a.43.43,0,0,0,.08-.21.28.28,0,0,0-.06-.18,1.18,1.18,0,0,0-.29-.25l-2.16-1.64a1.35,1.35,0,0,0-.33-.22.25.25,0,0,0-.17,0,.37.37,0,0,0-.17.14l-.07.09-.09-.07.86-1.17a1.88,1.88,0,0,1,.71-.64,1.55,1.55,0,0,1,1-.08,2.66,2.66,0,0,1,1,.5,2.83,2.83,0,0,1,.57.58,1.81,1.81,0,0,1,.32.59,1.36,1.36,0,0,1,.06.56,1.77,1.77,0,0,1-.15.59,2.59,2.59,0,0,1-.24.39ZM154,45l2.56,2a1.13,1.13,0,0,0,.26.17h.11a.26.26,0,0,0,.14-.12.68.68,0,0,0,.09-.7,2.86,2.86,0,0,0-1-1.11,3.22,3.22,0,0,0-1.12-.61.92.92,0,0,0-.64,0A1.14,1.14,0,0,0,154,45Z"/><path class="cls-2" d="M156.84,41.48a1.39,1.39,0,0,1,1.26-.55,2.32,2.32,0,0,1,1.45.68,2.61,2.61,0,0,1,.77,1.2,1.54,1.54,0,0,1-.32,1.55,1.48,1.48,0,0,1-1.45.5,2.54,2.54,0,0,1-1.29-.68,2.43,2.43,0,0,1-.8-1.41A1.44,1.44,0,0,1,156.84,41.48Zm.16.11a.78.78,0,0,0,0,.9,4,4,0,0,0,.87,1.06,3.27,3.27,0,0,0,1.34.85.62.62,0,0,0,.64-.19.59.59,0,0,0,.16-.41,1.33,1.33,0,0,0-.24-.67,4.34,4.34,0,0,0-.74-.84,4.28,4.28,0,0,0-1-.74,1.21,1.21,0,0,0-.62-.17A.65.65,0,0,0,157,41.59Z"/><path class="cls-2" d="M160.67,38.44l.85,1.1-.08.06a1.55,1.55,0,0,0-.77-.47.78.78,0,0,0-.65.1.45.45,0,0,0-.2.37.52.52,0,0,0,.11.4.53.53,0,0,0,.18.16,1.11,1.11,0,0,0,.35.1,4.07,4.07,0,0,0,.62,0,2.32,2.32,0,0,1,1,.08,1.36,1.36,0,0,1,.59.46,1.46,1.46,0,0,1,.28.91,1,1,0,0,1-.42.79,1.28,1.28,0,0,1-.25.15,2,2,0,0,1-.36.08.58.58,0,0,0-.19.07.2.2,0,0,0-.06.13.44.44,0,0,0,0,.22l-.07.05-.93-1.26.07,0a1.92,1.92,0,0,0,.92.56.83.83,0,0,0,.72-.11.55.55,0,0,0,.22-.41.66.66,0,0,0-.13-.45.67.67,0,0,0-.22-.19.81.81,0,0,0-.3-.1,3.42,3.42,0,0,0-.54,0,4.14,4.14,0,0,1-.78,0,1.64,1.64,0,0,1-.5-.17,1.24,1.24,0,0,1-.39-.37,1.3,1.3,0,0,1-.28-.85.88.88,0,0,1,.36-.71.72.72,0,0,1,.27-.15,1.05,1.05,0,0,1,.3-.06.73.73,0,0,0,.24,0,.1.1,0,0,0,0-.1.77.77,0,0,0-.08-.23Z"/><path class="cls-2" d="M164,36.91l1.53-.64,0,.1-.08,0a.52.52,0,0,0-.22.15.33.33,0,0,0,0,.17,2.36,2.36,0,0,0,.14.42l.77,1.89a2.71,2.71,0,0,0,.33.66.69.69,0,0,0,.31.2.62.62,0,0,0,.4,0,.67.67,0,0,0,.35-.31.9.9,0,0,0,.1-.5,3.11,3.11,0,0,0-.27-.89l-.63-1.58a1.46,1.46,0,0,0-.19-.35.37.37,0,0,0-.17-.11.64.64,0,0,0-.31,0l0-.1,1-.43,0,.1-.06,0a.3.3,0,0,0-.18.15.4.4,0,0,0,0,.25,1.25,1.25,0,0,0,.1.34l.59,1.46a4.51,4.51,0,0,1,.33,1,1.19,1.19,0,0,1-.11.7,1.14,1.14,0,0,1-.63.56,1.25,1.25,0,0,1-.65.11,1.1,1.1,0,0,1-.59-.29,2.17,2.17,0,0,1-.43-.72l-.76-1.89a1.53,1.53,0,0,0-.2-.4.24.24,0,0,0-.15-.09A.48.48,0,0,0,164,37Z"/><path class="cls-2" d="M168.94,35.2,171,37.38l-.38-1.75a1.26,1.26,0,0,0-.19-.48.39.39,0,0,0-.41-.08l0-.11,1-.23,0,.11a.75.75,0,0,0-.25.14.36.36,0,0,0-.07.2,1.5,1.5,0,0,0,0,.41l.73,3.39-.08,0-2.85-2.91.56,2.58a.67.67,0,0,0,.23.45.35.35,0,0,0,.31.06h.07l0,.11-1.12.25,0-.12a.46.46,0,0,0,.33-.21.8.8,0,0,0,0-.49l-.62-2.87-.09-.1a.87.87,0,0,0-.22-.17.57.57,0,0,0-.23,0l0-.11Z"/><path class="cls-2" d="M173.65,38.43l0,.11-1.66.24,0-.12h.11a.41.41,0,0,0,.21-.1.24.24,0,0,0,.07-.16,1.45,1.45,0,0,0,0-.39L172,35.29a1.51,1.51,0,0,0-.08-.39.25.25,0,0,0-.12-.13.38.38,0,0,0-.22,0l-.1,0,0-.11,1.66-.24,0,.11-.11,0a.34.34,0,0,0-.21.09.34.34,0,0,0-.08.16,1.67,1.67,0,0,0,0,.39l.37,2.72a2.16,2.16,0,0,0,.08.39.3.3,0,0,0,.13.12.37.37,0,0,0,.22,0Z"/><path class="cls-2" d="M173.89,38.47v-.11H174a.33.33,0,0,0,.21-.07.25.25,0,0,0,.11-.15,2.34,2.34,0,0,0,0-.39l0-2.74a1.54,1.54,0,0,0,0-.4.29.29,0,0,0-.11-.14.33.33,0,0,0-.21-.06h-.11V34.3h1.44a1.77,1.77,0,0,1,.92.19,1.55,1.55,0,0,1,.66.74,2.8,2.8,0,0,1,.23,1.14,2.57,2.57,0,0,1-.1.81,2.1,2.1,0,0,1-.27.62,1.54,1.54,0,0,1-.95.62,2.07,2.07,0,0,1-.45.05Zm1.19-3.95,0,3.26a1.59,1.59,0,0,0,0,.31.2.2,0,0,0,.06.09.36.36,0,0,0,.19,0,.68.68,0,0,0,.6-.36,2.87,2.87,0,0,0,.27-1.47,3.41,3.41,0,0,0-.21-1.28,1,1,0,0,0-.4-.51A1.26,1.26,0,0,0,175.08,34.52Z"/><path class="cls-2" d="M179.61,34.67a1.39,1.39,0,0,1,1.2.67,2.46,2.46,0,0,1,.37,1.57,2.67,2.67,0,0,1-.46,1.37,1.47,1.47,0,0,1-1.39.7,1.5,1.5,0,0,1-1.28-.86,2.64,2.64,0,0,1-.27-1.45,2.42,2.42,0,0,1,.59-1.51A1.38,1.38,0,0,1,179.61,34.67Zm0,.19c-.29,0-.53.16-.71.54a3.82,3.82,0,0,0-.28,1.36,3.41,3.41,0,0,0,.17,1.59.63.63,0,0,0,.54.4.61.61,0,0,0,.42-.12,1.39,1.39,0,0,0,.37-.61,4.68,4.68,0,0,0,.19-1.11,4.79,4.79,0,0,0,0-1.25,1.4,1.4,0,0,0-.26-.6A.64.64,0,0,0,179.62,34.86Z"/><path class="cls-2" d="M184.08,35.55l-.23,1.37-.1,0a1.65,1.65,0,0,0-.17-.89.77.77,0,0,0-.52-.43.47.47,0,0,0-.4.09.6.6,0,0,0-.21.36.53.53,0,0,0,0,.25,1.06,1.06,0,0,0,.16.32,5.2,5.2,0,0,0,.44.45,2.34,2.34,0,0,1,.62.82,1.35,1.35,0,0,1,.06.75,1.4,1.4,0,0,1-.48.83,1,1,0,0,1-.85.21,1.31,1.31,0,0,1-.28-.09,2.73,2.73,0,0,1-.3-.22.47.47,0,0,0-.17-.09.19.19,0,0,0-.14,0,.41.41,0,0,0-.14.17l-.09,0,.29-1.55.09,0a2,2,0,0,0,.2,1.07.88.88,0,0,0,.57.47.55.55,0,0,0,.45-.1.71.71,0,0,0,.23-.4.76.76,0,0,0,0-.3,1.09,1.09,0,0,0-.14-.29,2.21,2.21,0,0,0-.36-.4,4,4,0,0,1-.53-.59,1.51,1.51,0,0,1-.21-.49,1.27,1.27,0,0,1,0-.55,1.37,1.37,0,0,1,.43-.78.88.88,0,0,1,.77-.2.94.94,0,0,1,.28.1,1.64,1.64,0,0,1,.24.19.52.52,0,0,0,.21.14.1.1,0,0,0,.1,0,.53.53,0,0,0,.11-.22Z"/><path class="cls-2" d="M187.94,40.37l2.06-2,1.14.63,0,.11-.09-.06a.42.42,0,0,0-.23-.05.28.28,0,0,0-.15.08,1.55,1.55,0,0,0-.21.33l-1.29,2.41a1.84,1.84,0,0,0-.16.36.29.29,0,0,0,0,.18.35.35,0,0,0,.16.16l.09,0-.06.1-1.47-.82.06-.1.09.05a.29.29,0,0,0,.23,0,.22.22,0,0,0,.15-.08,1.31,1.31,0,0,0,.21-.33l1.45-2.71L187,41.48l-.05,0,.68-3.92-1.38,2.58a3.27,3.27,0,0,0-.17.34.45.45,0,0,0,0,.28.46.46,0,0,0,.24.24l0,.1-1-.53,0-.1h0a.39.39,0,0,0,.2.06.34.34,0,0,0,.18,0,.62.62,0,0,0,.17-.16,1.61,1.61,0,0,0,.15-.28l1.24-2.31a1.84,1.84,0,0,0,.16-.36.37.37,0,0,0,0-.18.36.36,0,0,0-.17-.15l-.09-.06.06-.1,1.15.64Z"/><path class="cls-2" d="M192.63,40.47l-1,1.37,0,0a.46.46,0,0,0,.5.06,1.82,1.82,0,0,0,.57-.49l.07.06-1.25,1.77-.08-.06a1.76,1.76,0,0,0,.24-.54.71.71,0,0,0,0-.38.73.73,0,0,0-.24-.27l-.68.95a2.57,2.57,0,0,0-.22.36.2.2,0,0,0,0,.15.29.29,0,0,0,.13.16l.15.11a1,1,0,0,0,.74.21,1.49,1.49,0,0,0,.79-.43l.07.05-.88,1-2.24-1.66.06-.09.09.06a.35.35,0,0,0,.22.09.25.25,0,0,0,.16-.07,2,2,0,0,0,.24-.29l1.58-2.23a2.43,2.43,0,0,0,.19-.29.23.23,0,0,0,0-.18.3.3,0,0,0-.15-.22l-.08-.06.06-.1L194,41.15l-.71,1-.07-.06a1.67,1.67,0,0,0,.21-.64.78.78,0,0,0-.11-.44,1.6,1.6,0,0,0-.37-.34Z"/><path class="cls-2" d="M194.94,44.37l-.47,1.87a2.36,2.36,0,0,0-.11.59.42.42,0,0,0,.09.24l-.08.08-1.15-1.07.07-.09c.1.08.18.12.23.11a.16.16,0,0,0,.13-.06.14.14,0,0,0,0-.08,3.13,3.13,0,0,0,.11-.37l.25-1-.88.24a1.44,1.44,0,0,0-.48.2.33.33,0,0,0-.07.17.35.35,0,0,0,.06.19.63.63,0,0,0,.13.16l-.07.08-.91-.85.07-.08a.64.64,0,0,0,.35.12,3.16,3.16,0,0,0,.71-.13l1.14-.31.43-1.72c.07-.28.1-.43.11-.47a.6.6,0,0,0,0-.19.51.51,0,0,0-.08-.17l.07-.08,1.18,1.09-.08.09-.05-.06a.3.3,0,0,0-.18-.09.19.19,0,0,0-.14.07.27.27,0,0,0-.06.1l-.09.35-.23.85.61-.17a1.16,1.16,0,0,0,.57-.25.32.32,0,0,0,.08-.14.26.26,0,0,0,0-.15.45.45,0,0,0-.13-.17l.07-.09.88.81-.08.09a.37.37,0,0,0-.19-.12.58.58,0,0,0-.24,0l-.53.13Z"/><path class="cls-2" d="M195.6,48.4l-.08.08-1.12-1.27.08-.08.07.08a.41.41,0,0,0,.2.13.28.28,0,0,0,.17,0,1.44,1.44,0,0,0,.3-.24l2-1.84a1.83,1.83,0,0,0,.27-.29.24.24,0,0,0,0-.17.38.38,0,0,0-.1-.2l-.07-.08.08-.08,1.13,1.27-.09.08-.07-.08a.36.36,0,0,0-.19-.13.31.31,0,0,0-.18,0,2.35,2.35,0,0,0-.3.24l-2,1.83a2.05,2.05,0,0,0-.28.29.48.48,0,0,0,0,.18.42.42,0,0,0,.1.2Z"/><path class="cls-2" d="M200.7,48.59l-1.13.88,0-.08a1.72,1.72,0,0,0,.44-.84.92.92,0,0,0-.16-.7.8.8,0,0,0-.51-.31,1.33,1.33,0,0,0-.68.06,3.43,3.43,0,0,0-.9.51,3.73,3.73,0,0,0-.72.71,1.38,1.38,0,0,0-.34.7.81.81,0,0,0,.19.62,1,1,0,0,0,.47.35,2,2,0,0,0,.78.07l-.28.22a2,2,0,0,1-.75-.13,1.49,1.49,0,0,1-.55-.46,1.66,1.66,0,0,1-.34-.9,1.69,1.69,0,0,1,.22-1A2.63,2.63,0,0,1,198.12,47a1.92,1.92,0,0,1,1,0,1.4,1.4,0,0,1,.75.52,1.55,1.55,0,0,1,.29.69,1.09,1.09,0,0,0,.08.29.21.21,0,0,0,.14.07.42.42,0,0,0,.22-.09Z"/><path class="cls-2" d="M199.17,52.54l-.47-1-.42,0a.88.88,0,0,0-.33.08.31.31,0,0,0-.18.21.85.85,0,0,0,.06.32l-.1.05-.45-1,.11-.05a.41.41,0,0,0,.28.18,2.19,2.19,0,0,0,.68,0l3.44-.34,0,0-2.56,2.51a2.53,2.53,0,0,0-.43.51.39.39,0,0,0,0,.26l-.1,0-.65-1.44.1,0,0,.06a.48.48,0,0,0,.17.21.2.2,0,0,0,.15,0l.1-.06.17-.17Zm.17-.17,1.08-1-1.49.15Z"/><path class="cls-2" d="M203,54.32l-2,2.3,1.68-.52a1.13,1.13,0,0,0,.45-.23.41.41,0,0,0,0-.42l.11,0,.31,1-.11,0a.57.57,0,0,0-.16-.24.3.3,0,0,0-.2-.06,1.56,1.56,0,0,0-.4.09l-3.26,1,0-.08,2.62-3.13-2.48.78a.64.64,0,0,0-.42.27.4.4,0,0,0,0,.32l0,.07-.11,0-.33-1.11.1,0a.5.5,0,0,0,.24.32.76.76,0,0,0,.48,0l2.76-.86.08-.1a.88.88,0,0,0,.15-.24.4.4,0,0,0,0-.24l.11,0Z"/><path class="cls-2" d="M204.28,58.67A1.47,1.47,0,0,1,203.9,60a2.4,2.4,0,0,1-1.44.7,2.65,2.65,0,0,1-1.41-.16,1.5,1.5,0,0,1-1-1.24,1.55,1.55,0,0,1,.55-1.46,2.53,2.53,0,0,1,1.33-.58,2.43,2.43,0,0,1,1.58.27A1.42,1.42,0,0,1,204.28,58.67Zm-.19,0c0-.29-.26-.49-.66-.59a3.62,3.62,0,0,0-1.36,0,3.17,3.17,0,0,0-1.49.51.66.66,0,0,0-.27.62.54.54,0,0,0,.21.39,1.27,1.27,0,0,0,.65.24,4.31,4.31,0,0,0,1.11,0,4.47,4.47,0,0,0,1.19-.3,1.19,1.19,0,0,0,.52-.39A.6.6,0,0,0,204.09,58.72Z"/><path class="cls-2" d="M204.92,63.58h-1.36v-.1a1.52,1.52,0,0,0,.83-.33.77.77,0,0,0,.32-.58.44.44,0,0,0-.15-.39.62.62,0,0,0-.38-.16.6.6,0,0,0-.24,0,.8.8,0,0,0-.28.22,4.33,4.33,0,0,0-.37.51,2.37,2.37,0,0,1-.68.76,1.34,1.34,0,0,1-.72.19,1.32,1.32,0,0,1-.88-.34,1,1,0,0,1-.35-.82,1.35,1.35,0,0,1,0-.29,1.65,1.65,0,0,1,.16-.34.45.45,0,0,0,.06-.19.22.22,0,0,0,0-.14.48.48,0,0,0-.19-.11v-.09l1.54,0v.09a1.88,1.88,0,0,0-1,.39.82.82,0,0,0-.36.64.57.57,0,0,0,.18.44.6.6,0,0,0,.42.16.54.54,0,0,0,.28,0A.87.87,0,0,0,202,63a2.46,2.46,0,0,0,.33-.44,4.15,4.15,0,0,1,.48-.63,1.25,1.25,0,0,1,.44-.29,1.29,1.29,0,0,1,.53-.1,1.24,1.24,0,0,1,.82.31.87.87,0,0,1,.33.73,1.06,1.06,0,0,1-.05.31,1.77,1.77,0,0,1-.14.27.6.6,0,0,0-.11.22.14.14,0,0,0,.05.11,1.07,1.07,0,0,0,.23.07Z"/><path class="cls-1" d="M44.76,66.34c-.36-.16-.43-.27-.43-.75,0-1.2.09-2.51.12-2.86s.09-.57.27-.57.22.2.22.37a4.27,4.27,0,0,0,.21,1.12,3.09,3.09,0,0,0,3.22,2.2c2,0,3-1.33,3-2.49s-.34-2.08-2.21-3.5l-1-.78c-2.48-1.88-3.33-3.41-3.33-5.18,0-2.41,2.07-4.14,5.21-4.14a10.78,10.78,0,0,1,3,.38c.21,0,.32.1.32.26s-.09.92-.09,2.62c0,.48-.07.66-.25.66s-.22-.13-.22-.4a2.66,2.66,0,0,0-.59-1.44,2.88,2.88,0,0,0-2.46-1.07c-1.67,0-2.68.94-2.68,2.25,0,1,.52,1.77,2.39,3.15l.63.46c2.73,2,3.7,3.5,3.7,5.57A4.39,4.39,0,0,1,51.64,66a6.68,6.68,0,0,1-3.59.89A8.14,8.14,0,0,1,44.76,66.34Z"/><path class="cls-1" d="M59.12,56.41c0-3.32,0-3.94,0-4.64s-.23-1.09-1-1.24a4.22,4.22,0,0,0-.88-.07c-.25,0-.38,0-.38-.19s.15-.2.49-.2l1.83,0c.58,0,1.1,0,1.42,0,.72,0,5.21,0,5.63,0a7.15,7.15,0,0,0,1-.13,2.7,2.7,0,0,1,.36-.09c.12,0,.14.09.14.2s-.11.42-.18,1.42c0,.22-.07,1.18-.11,1.45,0,.1-.07.24-.23.24s-.2-.11-.2-.31a2.19,2.19,0,0,0-.14-.79c-.15-.39-.38-.65-1.51-.78-.38,0-2.75-.09-3.2-.09-.11,0-.16.06-.16.22V57c0,.15,0,.24.16.24.5,0,3.09,0,3.61,0s.88-.1,1.08-.32.25-.29.36-.29.16,0,.16.18-.09.48-.18,1.59c0,.44-.09,1.32-.09,1.47s0,.41-.2.41-.21-.08-.21-.19a4.9,4.9,0,0,0-.09-.79c-.11-.44-.43-.77-1.26-.85-.43-.05-2.66-.07-3.2-.07-.11,0-.14.09-.14.22v1.73c0,.74,0,2.75,0,3.39,0,1.5.41,1.83,2.71,1.83a6,6,0,0,0,2.12-.26c.58-.26.85-.72,1-1.62,0-.24.09-.33.25-.33s.18.18.18.4a16.86,16.86,0,0,1-.29,2.42c-.16.57-.36.57-1.22.57-1.69,0-2.93,0-3.9-.06s-1.67-.07-2.34-.07c-.25,0-.75,0-1.29,0s-1.1,0-1.55,0c-.3,0-.46-.07-.46-.22s.09-.18.37-.18a4.24,4.24,0,0,0,.81-.08c.45-.09.56-.57.65-1.21.11-.91.11-2.64.11-4.65Z"/><path class="cls-1" d="M73.37,56.41c0-3.32,0-3.94,0-4.64s-.23-1.09-1-1.24a4.28,4.28,0,0,0-.88-.07c-.25,0-.39,0-.39-.19s.16-.2.5-.2c1.19,0,2.61.07,3.25.07.92,0,2.23-.07,3.26-.07,2.82,0,3.84.92,4.2,1.25a3.75,3.75,0,0,1,1.13,2.6,5.24,5.24,0,0,1-5.55,5.29,3.7,3.7,0,0,1-.47,0c-.12,0-.27,0-.27-.2s.15-.24.63-.24a3.48,3.48,0,0,0,3-3.61,4.15,4.15,0,0,0-1.33-3.28A3.42,3.42,0,0,0,77.2,51a3.17,3.17,0,0,0-.88.09c-.11,0-.18.17-.18.41v8.75c0,2,0,3.74.12,4.68.06.61.2,1.09.88,1.18a10.56,10.56,0,0,0,1.15.08c.24,0,.36.07.36.18s-.18.22-.43.22c-1.49,0-2.91-.07-3.5-.07s-1.94.07-2.84.07c-.29,0-.45-.07-.45-.22s.09-.18.36-.18a4.07,4.07,0,0,0,.81-.08c.46-.09.57-.57.66-1.21.11-.91.11-2.64.11-4.65Z"/><path class="cls-1" d="M37.18,82.19c-.1,0-.12-.08-.12-.21,0-.34,0-.71,0-.81s0-.16.08-.16.07,0,.07.1a1.39,1.39,0,0,0,0,.32.88.88,0,0,0,.92.62.76.76,0,0,0,.85-.7c0-.3-.09-.59-.62-1l-.3-.22c-.7-.53-.94-1-.94-1.46,0-.68.58-1.17,1.47-1.17a3.33,3.33,0,0,1,.85.1c.06,0,.09,0,.09.08s0,.26,0,.74c0,.13,0,.18-.07.18s-.07,0-.07-.11a.74.74,0,0,0-.16-.4.82.82,0,0,0-.7-.31c-.47,0-.76.27-.76.64s.15.5.68.89l.18.13c.77.56,1,1,1,1.57a1.24,1.24,0,0,1-.6,1.08,1.94,1.94,0,0,1-1,.25A2.29,2.29,0,0,1,37.18,82.19Z"/><path class="cls-1" d="M41.25,79.39c0-.94,0-1.12,0-1.31s-.06-.31-.27-.36h-.25c-.07,0-.11,0-.11-.06s0-.05.14-.05h2.52l.27,0,.11,0s0,0,0,0,0,.12,0,.4c0,.06,0,.34,0,.41s0,.07-.06.07-.06,0-.06-.09a.69.69,0,0,0,0-.22c0-.11-.11-.19-.43-.22-.11,0-.78,0-.9,0s0,0,0,.06v1.57s0,.06,0,.06h1c.15,0,.25,0,.3-.09s.07-.08.11-.08,0,0,0,0,0,.13,0,.45c0,.12,0,.37,0,.41s0,.12,0,.12a.05.05,0,0,1-.06-.06c0-.06,0-.14,0-.22s-.12-.21-.35-.24l-.91,0s0,0,0,.06v.49c0,.21,0,.78,0,1,0,.42.12.52.77.52a1.58,1.58,0,0,0,.6-.08c.16-.07.24-.2.29-.45,0-.07,0-.1.07-.1s.05.05.05.11a3.71,3.71,0,0,1-.09.69c0,.16-.1.16-.34.16l-1.11,0-.66,0h-.81q-.12,0-.12-.06s0,0,.1,0l.23,0c.13,0,.16-.16.18-.34s0-.75,0-1.32Z"/><path class="cls-1" d="M45.39,81.68a2.41,2.41,0,0,1,0-3.52,2.91,2.91,0,0,1,2-.65,6.12,6.12,0,0,1,.93.06c.24,0,.45.09.64.11s.1,0,.1.07,0,.12,0,.34,0,.54,0,.67,0,.14-.08.14-.06-.05-.06-.14a.89.89,0,0,0-.25-.57,2,2,0,0,0-1.3-.38,1.72,1.72,0,0,0-1.2.38,2,2,0,0,0-.59,1.6,2.11,2.11,0,0,0,2,2.2c.57,0,.92-.06,1.17-.35a1,1,0,0,0,.22-.4c0-.1,0-.13.08-.13s.06,0,.06.1a6.37,6.37,0,0,1-.14.82c0,.1-.06.13-.17.18a3.76,3.76,0,0,1-1.15.14A3.31,3.31,0,0,1,45.39,81.68Z"/><path class="cls-1" d="M50.41,79.39c0-.94,0-1.12,0-1.31s-.06-.31-.27-.36h-.25c-.07,0-.11,0-.11-.06s.05-.05.14-.05h1.78a2.06,2.06,0,0,1,1.17.26,1.06,1.06,0,0,1,.44.85,1.74,1.74,0,0,1-.84,1.38c.56.69,1,1.24,1.38,1.62a1.28,1.28,0,0,0,.72.42l.18,0c.05,0,.07,0,.07,0s0,.06-.12.06h-.6a1.33,1.33,0,0,1-.69-.12,3,3,0,0,1-.87-.9c-.26-.34-.55-.76-.64-.85a.13.13,0,0,0-.11,0h-.56s-.05,0-.05,0v.09c0,.57,0,1.06,0,1.32s.06.31.25.34l.31,0c.06,0,.08,0,.08,0s0,.06-.13.06l-.94,0-.78,0q-.12,0-.12-.06s0,0,.1,0l.23,0c.13,0,.16-.16.18-.34a11.42,11.42,0,0,0,0-1.32Zm.75.48c0,.07,0,.1.06.11a1.47,1.47,0,0,0,.48.07.67.67,0,0,0,.46-.11,1.06,1.06,0,0,0,.37-.92,1,1,0,0,0-1-1.13,1.43,1.43,0,0,0-.34,0s-.06,0-.06.09Z"/><path class="cls-1" d="M55.23,79.39c0-.94,0-1.12,0-1.31s-.07-.31-.28-.36h-.25c-.07,0-.1,0-.1-.06s0-.05.14-.05h2.51l.28,0,.1,0s0,0,0,0,0,.12,0,.4c0,.06,0,.34,0,.41s0,.07-.07.07,0,0,0-.09a.69.69,0,0,0,0-.22c-.05-.11-.11-.19-.43-.22-.11,0-.78,0-.91,0s0,0,0,.06v1.57s0,.06,0,.06h1a.46.46,0,0,0,.31-.09c.05-.05.07-.08.1-.08s.05,0,.05,0,0,.13-.05.45c0,.12,0,.37,0,.41s0,.12-.06.12-.05,0-.05-.06,0-.14,0-.22-.12-.21-.36-.24l-.91,0s0,0,0,.06v.49c0,.21,0,.78,0,1,0,.42.11.52.76.52a1.53,1.53,0,0,0,.6-.08c.17-.07.25-.2.29-.45,0-.07,0-.1.07-.1s.05.05.05.11a4.84,4.84,0,0,1-.08.69c0,.16-.1.16-.34.16l-1.11,0-.67,0h-.8c-.08,0-.13,0-.13-.06s0,0,.1,0l.23,0c.13,0,.16-.16.19-.34s0-.75,0-1.32Z"/><path class="cls-1" d="M60.12,77.94l-.95,0c-.37,0-.53,0-.62.17a.62.62,0,0,0-.11.22s0,.07-.07.07-.06,0-.06-.09a6,6,0,0,1,.14-.71c0-.08,0-.12.07-.12a1.51,1.51,0,0,0,.28.07,6.4,6.4,0,0,0,.64,0H62a2.36,2.36,0,0,0,.44,0l.17,0c.05,0,.05,0,.05.13s0,.56,0,.72,0,.1,0,.1-.07,0-.07-.13v-.06c0-.17-.19-.34-.76-.35l-.8,0v2.53c0,.57,0,1.06,0,1.32s.06.31.25.34l.33,0c.07,0,.1,0,.1,0s-.05.06-.12.06l-1,0-.8,0c-.08,0-.13,0-.13-.06s0,0,.1,0l.23,0c.13,0,.17-.16.19-.34s0-.75,0-1.32Z"/><path class="cls-1" d="M63.68,80.65s0,0-.06,0l-.34.88a1.11,1.11,0,0,0-.1.38c0,.11.06.19.26.19h.09c.08,0,.1,0,.1,0s0,.06-.11.06l-.68,0-.75,0c-.09,0-.12,0-.12-.06s0,0,.07,0h.2c.3,0,.42-.25.54-.56l1.61-3.87c.08-.18.11-.25.18-.25s.09.06.16.2c.15.34,1.17,2.86,1.58,3.79.25.56.43.65.57.68l.26,0c.06,0,.09,0,.09,0s-.06.06-.3.06h-1.2c-.12,0-.2,0-.2,0s0,0,.09-.06.09-.06.06-.14l-.51-1.31a.05.05,0,0,0-.06,0Zm1.3-.31s0,0,0,0l-.58-1.53s0-.06,0-.06,0,0,0,.06l-.59,1.52s0,0,0,0Z"/><path class="cls-1" d="M67.9,79.39c0-.94,0-1.12,0-1.31s-.06-.31-.27-.36h-.25c-.07,0-.11,0-.11-.06s0-.05.14-.05h1.78a2.11,2.11,0,0,1,1.18.26,1.09,1.09,0,0,1,.43.85,1.74,1.74,0,0,1-.84,1.38c.57.69,1,1.24,1.38,1.62a1.28,1.28,0,0,0,.72.42l.18,0s.08,0,.08,0,0,.06-.13.06h-.6a1.33,1.33,0,0,1-.69-.12,3.1,3.1,0,0,1-.87-.9c-.26-.34-.55-.76-.64-.85a.13.13,0,0,0-.11,0H68.7s0,0,0,0v.09c0,.57,0,1.06,0,1.32s.06.31.25.34l.32,0s.07,0,.07,0,0,.06-.12.06l-.94,0-.78,0c-.09,0-.13,0-.13-.06s0,0,.1,0l.23,0c.13,0,.16-.16.19-.34s0-.75,0-1.32Zm.75.48c0,.07,0,.1.06.11a1.53,1.53,0,0,0,.49.07.66.66,0,0,0,.45-.11A1.06,1.06,0,0,0,70,79a1,1,0,0,0-1-1.13,1.43,1.43,0,0,0-.34,0s-.06,0-.06.09Z"/><path class="cls-1" d="M72.72,79.39c0-.94,0-1.12,0-1.31s-.08-.32-.22-.35a.86.86,0,0,0-.23,0c-.06,0-.1,0-.1-.07s0,0,.15,0h1.61c.09,0,.14,0,.14,0s0,.07-.1.07h-.2c-.17,0-.22.14-.23.36s0,.37,0,1.31v1.08c0,.6,0,1.09,0,1.35s.06.28.26.31l.32,0c.07,0,.1,0,.1,0s0,.06-.12.06l-1,0-.81,0c-.08,0-.13,0-.13-.06s0,0,.1,0l.24,0c.12,0,.16-.13.18-.31s0-.75,0-1.35Zm1.46-2.78c0,.08,0,.1,0,.1a.72.72,0,0,0-.22,0,3.87,3.87,0,0,0-1.09.36l-.11.05a0,0,0,0,1,0,0s0,0,.06-.08a12.75,12.75,0,0,1,1-.78.28.28,0,0,1,.12,0s.06,0,.09.07A4,4,0,0,1,74.18,76.61Z"/><path class="cls-1" d="M75.87,80.65s-.05,0-.06,0l-.35.88a1.31,1.31,0,0,0-.09.38c0,.11.06.19.25.19h.1c.08,0,.1,0,.1,0s0,.06-.11.06l-.68,0-.76,0c-.08,0-.12,0-.12-.06s0,0,.08,0h.2c.29,0,.41-.25.54-.56l1.61-3.87c.07-.18.11-.25.18-.25s.09.06.15.2c.16.34,1.18,2.86,1.59,3.79.24.56.43.65.56.68l.27,0s.08,0,.08,0,0,.06-.29.06H77.91c-.11,0-.19,0-.19,0s0,0,.09-.06a.1.1,0,0,0,.06-.14l-.51-1.31a.08.08,0,0,0-.07,0Zm1.3-.31s0,0,0,0l-.57-1.53s0-.06,0-.06,0,0,0,.06L76,80.3s0,0,0,0Z"/><path class="cls-1" d="M82,79.39c0-.94,0-1.12,0-1.31s-.07-.31-.28-.36h-.25c-.07,0-.1,0-.1-.06s0-.05.14-.05h1.9a3.46,3.46,0,0,1,2.56.7,2.16,2.16,0,0,1,.63,1.57,2.41,2.41,0,0,1-.7,1.72,3,3,0,0,1-2.14.73c-.23,0-.5,0-.74,0l-.62,0h-.81c-.08,0-.13,0-.13-.06s0,0,.1,0l.23,0c.13,0,.16-.16.19-.34s0-.75,0-1.32Zm.8.67c0,.66,0,1.13,0,1.25a1.41,1.41,0,0,0,.07.47c.09.12.34.25.84.25a2.11,2.11,0,0,0,1.47-.45,1.9,1.9,0,0,0,.54-1.53,2.06,2.06,0,0,0-.62-1.55,2.57,2.57,0,0,0-1.81-.61,1.56,1.56,0,0,0-.42,0s-.07,0-.07.12,0,.75,0,1.24Z"/><path class="cls-1" d="M87.92,79.39c0-.94,0-1.12,0-1.31s-.07-.31-.28-.36h-.25c-.07,0-.11,0-.11-.06s0-.05.14-.05h2.52l.28,0,.1,0s0,0,0,0,0,.12,0,.4c0,.06,0,.34,0,.41s0,.07-.07.07-.06,0-.06-.09a.64.64,0,0,0,0-.22c0-.11-.11-.19-.43-.22-.11,0-.78,0-.91,0s0,0,0,.06v1.57s0,.06,0,.06h1a.46.46,0,0,0,.31-.09c0-.05.07-.08.1-.08s0,0,0,0,0,.13,0,.45c0,.12,0,.37,0,.41s0,.12-.06.12a.06.06,0,0,1-.06-.06.9.9,0,0,0,0-.22c0-.12-.12-.21-.36-.24l-.91,0s0,0,0,.06v1.45c0,.42.12.52.77.52a1.53,1.53,0,0,0,.6-.08c.17-.07.25-.2.29-.45,0-.07,0-.1.07-.1s0,.05,0,.11a4.84,4.84,0,0,1-.08.69c0,.16-.1.16-.35.16l-1.1,0-.67,0h-.8c-.09,0-.13,0-.13-.06s0,0,.1,0l.23,0c.13,0,.16-.16.19-.34s0-.75,0-1.32Z"/><path class="cls-1" d="M26,87.81c0-.93,0-1.11,0-1.31s-.06-.3-.27-.35l-.25,0c-.07,0-.11,0-.11,0s0-.06.14-.06H28l.28,0,.1,0s0,0,0,.06a2.19,2.19,0,0,0-.05.4c0,.06,0,.33,0,.41a.07.07,0,0,1-.06.07c-.05,0-.06,0-.06-.09a.49.49,0,0,0,0-.22c0-.11-.11-.19-.43-.22-.1,0-.77,0-.9,0s-.05,0-.05.06V88s0,.07.05.07h1a.48.48,0,0,0,.31-.09s.07-.08.1-.08,0,0,0,0,0,.13-.05.45c0,.12,0,.37,0,.41s0,.12-.06.12a.06.06,0,0,1-.06-.06.9.9,0,0,0,0-.22c0-.12-.12-.22-.36-.24l-.91,0s0,0,0,.06v1.45c0,.42.12.52.77.52a1.55,1.55,0,0,0,.6-.08c.17-.07.24-.2.29-.46,0-.06,0-.09.07-.09s0,0,0,.11a5.2,5.2,0,0,1-.08.69c-.05.16-.11.16-.35.16l-1.1,0-.67,0h-.8c-.09,0-.13,0-.13-.06s0,0,.1,0a.71.71,0,0,0,.23,0c.13,0,.16-.16.19-.34s0-.74,0-1.31Z"/><path class="cls-1" d="M30,87.81c0-.93,0-1.11,0-1.31s-.06-.3-.27-.35l-.25,0c-.07,0-.11,0-.11,0s0-.06.14-.06l.92,0,1,0a3.45,3.45,0,0,1,2.56.71,2.16,2.16,0,0,1,.62,1.57,2.41,2.41,0,0,1-.7,1.72,3,3,0,0,1-2.14.73c-.23,0-.49,0-.73,0s-.47,0-.63,0h-.81q-.12,0-.12-.06s0,0,.1,0a.75.75,0,0,0,.23,0c.13,0,.16-.16.18-.34a11.14,11.14,0,0,0,0-1.31Zm.79.68c0,.66,0,1.13,0,1.25a1.23,1.23,0,0,0,.07.47c.08.12.33.25.84.25A2.12,2.12,0,0,0,33.23,90a1.94,1.94,0,0,0,.53-1.54,2.07,2.07,0,0,0-.61-1.54,2.62,2.62,0,0,0-1.82-.62,1.47,1.47,0,0,0-.41,0c-.06,0-.08,0-.08.12s0,.75,0,1.23Z"/><path class="cls-1" d="M35.74,87.81c0-.93,0-1.11,0-1.31s-.06-.3-.28-.35l-.24,0c-.07,0-.11,0-.11,0s0-.06.14-.06l.93,0L37,86c.09,0,.14,0,.14.06s0,0-.1,0l-.19,0c-.17,0-.22.14-.24.35s0,.38,0,1.31v.87c0,.89.19,1.27.5,1.52a1.26,1.26,0,0,0,.8.25,1.29,1.29,0,0,0,.88-.33,2.08,2.08,0,0,0,.37-1.53v-.78c0-.93,0-1.11,0-1.31s-.07-.3-.28-.35l-.23,0c-.07,0-.1,0-.1,0s0-.06.13-.06l.73,0,.73,0c.09,0,.14,0,.14.06s0,0-.12,0l-.18,0c-.18,0-.23.14-.24.35s0,.38,0,1.31v.66a2.27,2.27,0,0,1-.61,1.86,1.93,1.93,0,0,1-1.33.45,2.11,2.11,0,0,1-1.42-.43,2,2,0,0,1-.57-1.64Z"/><path class="cls-1" d="M41.56,90.1a2.4,2.4,0,0,1-.05-3.51,2.84,2.84,0,0,1,2-.65,6.12,6.12,0,0,1,.93.06c.24,0,.45.09.64.1s.1,0,.1.08,0,.12,0,.34,0,.54,0,.66,0,.15-.07.15-.07,0-.07-.14a.84.84,0,0,0-.25-.57,2,2,0,0,0-1.29-.38,1.72,1.72,0,0,0-1.2.38,2,2,0,0,0-.59,1.6,2.1,2.1,0,0,0,2,2.2,1.4,1.4,0,0,0,1.17-.35,1,1,0,0,0,.22-.4c0-.1,0-.13.08-.13s.06,0,.06.09a6.2,6.2,0,0,1-.14.83c0,.1-.06.13-.17.17a3.73,3.73,0,0,1-1.15.15A3.26,3.26,0,0,1,41.56,90.1Z"/><path class="cls-1" d="M47,89.08s0,0-.06,0l-.34.88a1.33,1.33,0,0,0-.1.38c0,.11.06.19.26.19h.1c.07,0,.09,0,.09,0s0,.06-.11.06l-.68,0-.75,0c-.08,0-.12,0-.12-.06s0,0,.08,0h.19c.3,0,.42-.25.55-.56l1.6-3.88c.08-.17.12-.24.18-.24s.1,0,.16.2c.15.33,1.18,2.85,1.59,3.79.24.56.42.64.56.67l.27,0s.08,0,.08,0-.06.06-.29.06H49.07c-.12,0-.19,0-.19-.05s0,0,.09-.06a.09.09,0,0,0,.05-.14l-.51-1.31a.05.05,0,0,0-.06,0Zm1.31-.31s0,0,0,0l-.58-1.52s0-.06,0-.06,0,0,0,.06l-.59,1.52s0,0,0,0Z"/><path class="cls-1" d="M51.34,90.1a2.37,2.37,0,0,1-.05-3.51,2.84,2.84,0,0,1,2-.65,6.22,6.22,0,0,1,.93.06c.24,0,.45.09.64.1s.09,0,.09.08,0,.12,0,.34,0,.54,0,.66,0,.15-.07.15-.07,0-.07-.14a.84.84,0,0,0-.25-.57,2,2,0,0,0-1.3-.38,1.74,1.74,0,0,0-1.2.38,2.06,2.06,0,0,0-.59,1.6,2.11,2.11,0,0,0,2,2.2,1.4,1.4,0,0,0,1.17-.35,1,1,0,0,0,.22-.4c0-.1,0-.13.08-.13s.06,0,.06.09a6.2,6.2,0,0,1-.14.83.23.23,0,0,1-.17.17,3.77,3.77,0,0,1-1.15.15A3.25,3.25,0,0,1,51.34,90.1Z"/><path class="cls-1" d="M56.35,87.81c0-.93,0-1.11,0-1.31s-.08-.31-.22-.34a.85.85,0,0,0-.23,0c-.06,0-.1,0-.1-.06s.05,0,.15,0l.83,0,.78,0c.09,0,.14,0,.14,0s0,.06-.1.06l-.2,0c-.17,0-.22.14-.23.35s0,.38,0,1.31V88.9c0,.6,0,1.09,0,1.35s.06.28.26.3a1.73,1.73,0,0,0,.32,0c.07,0,.1,0,.1,0s-.05.06-.12.06l-1,0-.81,0c-.08,0-.13,0-.13-.06s0,0,.11,0a.75.75,0,0,0,.23,0c.12,0,.16-.13.18-.3s0-.75,0-1.35Z"/><path class="cls-1" d="M58.48,88.36a2.42,2.42,0,0,1,2.64-2.42,2.28,2.28,0,0,1,2.58,2.31,2.48,2.48,0,0,1-2.64,2.53A2.39,2.39,0,0,1,58.48,88.36Zm4.33.11a2,2,0,0,0-1.87-2.24c-.74,0-1.58.4-1.58,1.94a2.06,2.06,0,0,0,2,2.3C61.77,90.47,62.81,90.26,62.81,88.47ZM62.15,85c0,.08,0,.09,0,.09H61.9a4.22,4.22,0,0,0-1.09.37l-.11,0a0,0,0,0,1,0,0s0-.05.06-.08a10.75,10.75,0,0,1,1-.78.28.28,0,0,1,.12-.05c.05,0,.06,0,.09.07A4,4,0,0,1,62.15,85Z"/><path class="cls-1" d="M65.4,89.85c0,.48.09.64.22.69a1.29,1.29,0,0,0,.33,0c.07,0,.11,0,.11,0s-.06.06-.15.06c-.41,0-.67,0-.79,0l-.69,0c-.08,0-.14,0-.14-.06s0,0,.1,0a1.5,1.5,0,0,0,.29,0c.17,0,.19-.23.2-.77l.06-3.65c0-.13,0-.21.08-.21s.13.08.23.19,1,1.09,2,2c.43.42,1.29,1.31,1.4,1.41h0l-.06-2.77c0-.38-.06-.5-.22-.56a1,1,0,0,0-.34,0c-.07,0-.1,0-.1,0S68,86,68.12,86l.77,0,.63,0c.08,0,.15,0,.15.06s0,0-.12,0a.68.68,0,0,0-.19,0c-.18,0-.23.18-.24.53l-.07,3.89c0,.14,0,.19-.08.19a.37.37,0,0,1-.22-.13c-.4-.37-1.22-1.18-1.88-1.82s-1.41-1.43-1.53-1.55h0Z"/><path class="cls-1" d="M73,87.81c0-.93,0-1.11,0-1.31s-.06-.3-.27-.35l-.25,0c-.07,0-.11,0-.11,0s0-.06.14-.06l.92,0,.93,0a1.54,1.54,0,0,1,1.19.36,1,1,0,0,1,.32.73,1.48,1.48,0,0,1-1.57,1.49h-.14s-.08,0-.08-.06.05-.07.18-.07a1,1,0,0,0,.86-1,1.16,1.16,0,0,0-.38-.93,1,1,0,0,0-.64-.24.94.94,0,0,0-.25,0,.12.12,0,0,0,0,.12V88.9c0,.57,0,1.06,0,1.32s.06.31.25.33a1.76,1.76,0,0,0,.33,0c.07,0,.1,0,.1,0s0,.06-.12.06l-1,0-.81,0q-.12,0-.12-.06s0,0,.1,0a.71.71,0,0,0,.23,0c.13,0,.16-.16.18-.34a11.14,11.14,0,0,0,0-1.31Z"/><path class="cls-1" d="M76.92,87.81c0-.93,0-1.11,0-1.31s-.06-.3-.27-.35l-.25,0c-.07,0-.11,0-.11,0s0-.06.14-.06l.94,0,.78,0c.1,0,.14,0,.14.06s0,0-.1,0l-.18,0c-.18,0-.23.14-.24.35s0,.38,0,1.31v.87c0,.89.18,1.27.49,1.52a1.27,1.27,0,0,0,.8.25,1.33,1.33,0,0,0,.89-.33,2.08,2.08,0,0,0,.37-1.53v-.78c0-.93,0-1.11,0-1.31s-.06-.3-.27-.35l-.23,0c-.07,0-.11,0-.11,0s0-.06.13-.06l.74,0,.73,0c.09,0,.13,0,.13.06s0,0-.11,0l-.19,0c-.17,0-.22.14-.23.35s0,.38,0,1.31v.66a2.3,2.3,0,0,1-.6,1.86,2,2,0,0,1-1.33.45,2.09,2.09,0,0,1-1.42-.43,2,2,0,0,1-.57-1.64ZM80.05,85c0,.08,0,.09,0,.09H79.8a4.22,4.22,0,0,0-1.09.37l-.11,0a0,0,0,0,1,0,0s0-.05.06-.08a12.18,12.18,0,0,1,1-.78.26.26,0,0,1,.13-.05s0,0,.08.07A4,4,0,0,1,80.05,85Z"/><path class="cls-1" d="M82.64,87.81c0-.93,0-1.11,0-1.31s-.06-.3-.27-.35l-.25,0c-.07,0-.11,0-.11,0S82,86,82.13,86L83,86l.78,0c1.16,0,1.36.6,1.36.93A1.33,1.33,0,0,1,84.49,88a1.51,1.51,0,0,1,1.16,1.33c0,.66-.53,1.35-1.7,1.35l-.45,0-.48,0h-.8c-.09,0-.13,0-.13-.06s0,0,.1,0a.71.71,0,0,0,.23,0c.13,0,.16-.16.19-.34s0-.74,0-1.31Zm.76.11s0,.06,0,.07h.3a.68.68,0,0,0,.46-.11.78.78,0,0,0,.26-.66.88.88,0,0,0-.8-1h-.21s-.06,0-.06.1Zm.85.49a1,1,0,0,0-.53-.15h-.28a0,0,0,0,0,0,0v1.46c0,.41,0,.52.23.6a1.32,1.32,0,0,0,.46.07.74.74,0,0,0,.78-.79A1.48,1.48,0,0,0,84.25,88.41Z"/><path class="cls-1" d="M87.83,88.9c0,.79,0,1.22.13,1.33s.28.13.77.13c.34,0,.59,0,.75-.17a.7.7,0,0,0,.17-.37c0-.06,0-.09.07-.09s0,0,0,.1a3.84,3.84,0,0,1-.1.71c0,.14-.07.17-.4.17l-1.08,0-.78,0h-.8c-.09,0-.13,0-.13-.06s0,0,.1,0a.71.71,0,0,0,.23,0c.13,0,.16-.16.19-.34s0-.74,0-1.31V87.81c0-.93,0-1.11,0-1.31s-.07-.3-.28-.35l-.21,0c-.07,0-.11,0-.11,0s0-.06.14-.06l.88,0,.87,0c.09,0,.13,0,.13.06s0,0-.11,0l-.25,0c-.18,0-.23.14-.24.35s0,.38,0,1.31Z"/><path class="cls-1" d="M90.89,87.81c0-.93,0-1.11,0-1.31s-.08-.31-.22-.34a.85.85,0,0,0-.23,0c-.06,0-.1,0-.1-.06s0,0,.15,0l.84,0,.78,0c.08,0,.13,0,.13,0s0,.06-.1.06l-.19,0c-.18,0-.23.14-.24.35s0,.38,0,1.31V88.9c0,.6,0,1.09,0,1.35s.07.28.26.3a1.73,1.73,0,0,0,.32,0c.07,0,.11,0,.11,0s-.05.06-.13.06l-1,0-.81,0c-.08,0-.13,0-.13-.06s0,0,.11,0a.75.75,0,0,0,.23,0c.12,0,.16-.13.18-.3s0-.75,0-1.35Z"/><path class="cls-1" d="M93.81,90.1a2.38,2.38,0,0,1,0-3.51,2.84,2.84,0,0,1,2-.65,6.22,6.22,0,0,1,.93.06c.24,0,.44.09.64.1s.09,0,.09.08,0,.12,0,.34,0,.54,0,.66,0,.15-.08.15-.06,0-.06-.14a.89.89,0,0,0-.25-.57,2,2,0,0,0-1.3-.38,1.74,1.74,0,0,0-1.2.38,2,2,0,0,0-.59,1.6,2.11,2.11,0,0,0,2,2.2,1.4,1.4,0,0,0,1.17-.35.86.86,0,0,0,.21-.4c0-.1,0-.13.09-.13s.06,0,.06.09a5.11,5.11,0,0,1-.15.83.2.2,0,0,1-.16.17,3.77,3.77,0,0,1-1.15.15A3.29,3.29,0,0,1,93.81,90.1Z"/><path class="cls-1" d="M99.28,89.08s0,0-.06,0l-.34.88a1.06,1.06,0,0,0-.1.38c0,.11.06.19.26.19h.09c.08,0,.1,0,.1,0s0,.06-.11.06l-.68,0-.75,0c-.09,0-.12,0-.12-.06s0,0,.07,0h.2c.29,0,.42-.25.54-.56L100,86.13c.08-.17.11-.24.18-.24s.09,0,.16.2c.15.33,1.17,2.85,1.58,3.79.25.56.43.64.57.67l.26,0c.05,0,.09,0,.09,0s-.06.06-.3.06h-1.21c-.11,0-.19,0-.19-.05s0,0,.09-.06a.1.1,0,0,0,.06-.14l-.51-1.31s0,0-.07,0Zm1.3-.31s0,0,0,0L100,87.21s0-.06,0-.06,0,0,0,.06l-.59,1.52s0,0,0,0Z"/><rect class="cls-3" x="135" y="33.46" width="5.31" height="55.94"/></g></svg>