<svg xmlns="http://www.w3.org/2000/svg" viewBox="0 0 136.95 124.8"><defs><style>.cls-1{fill:#606161;}</style></defs><title>LOGOS MAXIM GRIS</title><g id="Layer_3" data-name="Layer 3"><polygon class="cls-1" points="15.96 12.4 14.3 60.08 27.9 60.08 26 12.4 32.55 12.4 32.55 4.85 27.57 4.85 27.57 8.83 23.43 8.83 23.43 4.85 18.78 4.85 18.78 8.91 14.3 8.91 14.3 4.85 9.74 4.85 9.74 12.4 15.96 12.4"/><path class="cls-1" d="M31.88,120,28.07,64.89H14L10.07,120h7.39l.16-8.71h6.8V120ZM18.12,105.44l1.16-24.63h3.81l.83,24.63Z"/><path class="cls-1" d="M48.48,48.33H45.75V32H39.51V30H54.73v2H48.48Z"/><path class="cls-1" d="M59.92,48.7a6.61,6.61,0,0,1-5.18-2.07,7.44,7.44,0,0,1-1.86-5.15A6.74,6.74,0,0,1,55,36.29a7.39,7.39,0,0,1,5.21-1.94,6.88,6.88,0,0,1,5.26,2,7.15,7.15,0,0,1,1.92,5.1,6.94,6.94,0,0,1-2.07,5.2A7.4,7.4,0,0,1,59.92,48.7Zm.2-1.75a4.27,4.27,0,0,0,3.2-1.33,5.74,5.74,0,0,0,1.3-4.15,5.43,5.43,0,0,0-1.36-4.1,4.49,4.49,0,0,0-3.18-1.27,4.31,4.31,0,0,0-3.16,1.29,5.54,5.54,0,0,0-1.29,4.07c0,2,.43,3.37,1.29,4.22A4.37,4.37,0,0,0,60.12,47Z"/><path class="cls-1" d="M72.33,48.33H69.82V34.73H72V37.9A7,7,0,0,1,74.36,35a4.91,4.91,0,0,1,2.41-.67q.38,0,1,.06v2h-.52a4.73,4.73,0,0,0-4.91,4.74Z"/><path class="cls-1" d="M81.8,48.33H79.29V34.73h2.2V37.9A7,7,0,0,1,83.83,35a4.84,4.84,0,0,1,2.4-.67q.39,0,1,.06v2h-.51a4.72,4.72,0,0,0-4.91,4.74Z"/><path class="cls-1" d="M99.4,44.27l2.33.41a5.63,5.63,0,0,1-2.49,2.88,8.11,8.11,0,0,1-4.35,1.14,7.38,7.38,0,0,1-5.35-2,6.79,6.79,0,0,1-2-5.14,6.88,6.88,0,0,1,2.12-5.25,7.47,7.47,0,0,1,5.33-2A7,7,0,0,1,100,36.19a7.47,7.47,0,0,1,2,5.53H90.29c0,2.05.51,3.44,1.53,4.16A5.58,5.58,0,0,0,95.06,47,4.41,4.41,0,0,0,99.4,44.27Zm-.14-4.13a5,5,0,0,0-.45-2,3.55,3.55,0,0,0-1.4-1.52A4.33,4.33,0,0,0,95,36a4.63,4.63,0,0,0-3.17,1.13,4.33,4.33,0,0,0-1.46,3Z"/><path class="cls-1" d="M102.29,44.8l2.4-.42c.53,1.72,2.21,2.57,5,2.57a5.38,5.38,0,0,0,2.65-.59,1.82,1.82,0,0,0,1.09-1.67c0-1.06-.92-1.74-2.76-2l-3.4-.54a6.8,6.8,0,0,1-3.18-1.27A3,3,0,0,1,103,38.36a3.43,3.43,0,0,1,1.61-2.86,7.32,7.32,0,0,1,4.34-1.15q5.25,0,6.48,3.46l-2.29.42q-1-2.13-4.08-2.13a5.31,5.31,0,0,0-2.51.53,1.65,1.65,0,0,0-1,1.49c0,1,.83,1.63,2.51,1.89l3.14.48c3.29.5,4.93,1.85,4.93,4a3.47,3.47,0,0,1-1.83,3,9.12,9.12,0,0,1-4.89,1.15Q103.65,48.7,102.29,44.8Z"/><path class="cls-1" d="M56.57,72H53.79L51.6,66.58H43.51L41.56,72H39.28l7.08-18.38h3.09ZM51,64.86,47.64,56l-3.37,8.84Z"/><path class="cls-1" d="M60.39,72H57.88V53.57h2.51Z"/><path class="cls-1" d="M74.74,67.9l2.33.4a5.71,5.71,0,0,1-2.49,2.89,8.17,8.17,0,0,1-4.36,1.14,7.41,7.41,0,0,1-5.35-2,6.81,6.81,0,0,1-2-5.14A6.89,6.89,0,0,1,65,60a7.46,7.46,0,0,1,5.33-2,7,7,0,0,1,5.09,1.84,7.45,7.45,0,0,1,2,5.52H65.62c0,2.06.52,3.45,1.54,4.16a5.52,5.52,0,0,0,3.24,1.08A4.42,4.42,0,0,0,74.74,67.9Zm-.14-4.13a5.41,5.41,0,0,0-.45-2,3.68,3.68,0,0,0-1.41-1.51,4.33,4.33,0,0,0-2.38-.63,4.65,4.65,0,0,0-3.16,1.13,4.32,4.32,0,0,0-1.46,3.05Z"/><path class="cls-1" d="M93,56.23v1.68a5.16,5.16,0,0,0-2.31.34,1.71,1.71,0,0,0-.77,1.21,4.53,4.53,0,0,1,1.55,3.28,4,4,0,0,1-1.69,3.2,7.13,7.13,0,0,1-4.52,1.33,6.8,6.8,0,0,1-1.1-.08A9.48,9.48,0,0,0,83,67a2.12,2.12,0,0,0-1,.36,1,1,0,0,0,.27,2,23,23,0,0,0,4.13.31,28.17,28.17,0,0,1,4.08.31A4.41,4.41,0,0,1,92.7,71.1a2.79,2.79,0,0,1,.91,2.09c0,2.6-2.71,3.89-8.11,3.89a12.12,12.12,0,0,1-5.61-1,2.93,2.93,0,0,1-1.77-2.61c0-1.32.82-2.23,2.46-2.72A2.56,2.56,0,0,1,79,68.58c0-1,.75-1.85,2.24-2.41a4.21,4.21,0,0,1-2.09-3.59,3.92,3.92,0,0,1,1.78-3.31A7.28,7.28,0,0,1,85.29,58a9,9,0,0,1,3.31.58,2.52,2.52,0,0,1,1.11-1.85,5.36,5.36,0,0,1,2.64-.51ZM82.31,71.4c-1.17.43-1.76,1.06-1.76,1.87S81,74.5,82,74.88a10.07,10.07,0,0,0,3.68.58,13.69,13.69,0,0,0,3.79-.5c1.15-.32,1.73-.88,1.73-1.66a1.27,1.27,0,0,0-.51-1,2.74,2.74,0,0,0-1.4-.51c-.59-.07-1.62-.12-3.09-.16C84.45,71.55,83.15,71.49,82.31,71.4Zm3-5.75a3.92,3.92,0,0,0,2.6-.83,2.64,2.64,0,0,0,1-2.14,2.74,2.74,0,0,0-1-2.21,3.87,3.87,0,0,0-2.53-.85,4.18,4.18,0,0,0-2.52.8,2.86,2.86,0,0,0-.11,4.42A4,4,0,0,0,85.31,65.65Z"/><path class="cls-1" d="M97.06,72H94.55V58.35h2.2v3.18a6.94,6.94,0,0,1,2.34-2.91,4.74,4.74,0,0,1,2.4-.67c.26,0,.59,0,1,0v2H102a4.73,4.73,0,0,0-4.91,4.74Z"/><path class="cls-1" d="M114.67,67.9l2.33.4a5.71,5.71,0,0,1-2.49,2.89,8.17,8.17,0,0,1-4.36,1.14,7.38,7.38,0,0,1-5.35-2,6.81,6.81,0,0,1-2-5.14A6.89,6.89,0,0,1,104.88,60a7.44,7.44,0,0,1,5.33-2,7.06,7.06,0,0,1,5.09,1.84,7.45,7.45,0,0,1,2,5.52H105.55c0,2.06.51,3.45,1.53,4.16a5.52,5.52,0,0,0,3.24,1.08A4.44,4.44,0,0,0,114.67,67.9Zm-.15-4.13a5.05,5.05,0,0,0-.45-2,3.59,3.59,0,0,0-1.4-1.51,4.33,4.33,0,0,0-2.38-.63,4.7,4.7,0,0,0-3.17,1.13,4.4,4.4,0,0,0-1.46,3.05Z"/><path class="cls-1" d="M75.2,83.61l-3,7a2.18,2.18,0,0,1-2.08,1.52,4.23,4.23,0,0,1-1-.13v-.77a4.06,4.06,0,0,0,.78.09,1.55,1.55,0,0,0,.93-.27,2.85,2.85,0,0,0,.74-1.31L69,83.61h1.18l2,4.74,2-4.74Z"/><path class="cls-1" d="M82,83.61v.77H80.26v5.54H79.1V84.38H77.83v-.77H79.1q0-1.52.69-2a2.88,2.88,0,0,1,1.62-.44,7.1,7.1,0,0,1,1.06.09v.78a3.68,3.68,0,0,0-.71-.08,1.83,1.83,0,0,0-1.13.28,1.28,1.28,0,0,0-.37,1.07v.25Z"/><path class="cls-1" d="M88.59,89.92H87.44a10.18,10.18,0,0,1-.13-1.14,2.78,2.78,0,0,1-2.62,1.32,2.91,2.91,0,0,1-1.93-.57,1.69,1.69,0,0,1-.68-1.35,1.81,1.81,0,0,1,1-1.57A6.37,6.37,0,0,1,86.32,86l1,0a3.18,3.18,0,0,0-.14-1.09,1,1,0,0,0-.58-.53,2.9,2.9,0,0,0-1.17-.2c-1.18,0-1.86.38-2.06,1.14l-1.07-.16q.39-1.74,3.3-1.74a3.3,3.3,0,0,1,2.2.58,2.58,2.58,0,0,1,.64,2V88.7A4.68,4.68,0,0,0,88.59,89.92Zm-1.28-3.15c-.47,0-.84,0-1.08,0a4.94,4.94,0,0,0-2.14.38,1.21,1.21,0,0,0-.76,1.12,1,1,0,0,0,.41.78,1.85,1.85,0,0,0,1.19.33,2.35,2.35,0,0,0,1.72-.65,2,2,0,0,0,.68-1.51C87.33,87.06,87.32,86.93,87.31,86.77Z"/><path class="cls-1" d="M100.17,89.92H99V86a3,3,0,0,0-.1-.91,1,1,0,0,0-.48-.55,1.56,1.56,0,0,0-.87-.26,2,2,0,0,0-1.28.52,1.92,1.92,0,0,0-.62,1.57v3.55H94.56V85.77a1.37,1.37,0,0,0-.47-1.18,1.74,1.74,0,0,0-1-.34,1.78,1.78,0,0,0-1.29.54,1.81,1.81,0,0,0-.55,1.36v3.77H90.15V83.61h1v1.22a2.57,2.57,0,0,1,2.3-1.39,2.16,2.16,0,0,1,1.37.44A2,2,0,0,1,95.55,85a2.5,2.5,0,0,1,2.36-1.51,2.35,2.35,0,0,1,1.33.37,1.69,1.69,0,0,1,.75.84,4,4,0,0,1,.18,1.35Z"/><path class="cls-1" d="M103.08,81.4v1.09h-1.25V81.4Zm0,2.21v6.31h-1.17V83.61Z"/><path class="cls-1" d="M105.92,89.92h-1.16V81.4h1.16Z"/><path class="cls-1" d="M108.84,81.4v1.09h-1.25V81.4Zm0,2.21v6.31h-1.16V83.61Z"/><path class="cls-1" d="M116.36,89.92h-1.15a8.19,8.19,0,0,1-.13-1.14,2.79,2.79,0,0,1-2.62,1.32,2.93,2.93,0,0,1-1.94-.57,1.68,1.68,0,0,1-.67-1.35,1.82,1.82,0,0,1,1-1.57,6.37,6.37,0,0,1,3.27-.62l1,0a3.18,3.18,0,0,0-.14-1.09,1.05,1.05,0,0,0-.58-.53,3,3,0,0,0-1.17-.2c-1.18,0-1.87.38-2.06,1.14l-1.07-.16q.39-1.74,3.3-1.74a3.25,3.25,0,0,1,2.19.58,2.58,2.58,0,0,1,.65,2V88.7A4.29,4.29,0,0,0,116.36,89.92Zm-1.28-3.15c-.48,0-.84,0-1.08,0a4.91,4.91,0,0,0-2.14.38,1.22,1.22,0,0,0-.77,1.12,1,1,0,0,0,.41.78,1.87,1.87,0,0,0,1.19.33,2.37,2.37,0,0,0,1.73-.65,2,2,0,0,0,.68-1.51C115.1,87.06,115.09,86.93,115.08,86.77Z"/><path class="cls-1" d="M69,25.55l-2,4.94h-.71l-2-4.94h.77l1.63,4.08,1.62-4.08Z"/><path class="cls-1" d="M72.79,30.49h-.73V25.55h.73Z"/><path class="cls-1" d="M80.85,30.49h-.71l-3-4.3v.32c0,.13,0,.23,0,.31v3.67h-.59V25.55h.92l2.83,4v-.35c0-.13,0-.25,0-.35V25.55h.58Z"/><path class="cls-1" d="M86.35,24.42l-1.78.69-.18-.3,1.7-.82Zm-.94,6.07h-.73V25.55h.73Z"/><path class="cls-1" d="M92.58,28.83l.67.13a2.06,2.06,0,0,1-2.17,1.63,2.15,2.15,0,0,1-1.74-.75A2.83,2.83,0,0,1,88.71,28a2.58,2.58,0,0,1,.66-1.84,2.33,2.33,0,0,1,1.77-.69A2,2,0,0,1,93.25,27l-.69.12A1.44,1.44,0,0,0,91.13,26a1.42,1.42,0,0,0-1.2.55,2.44,2.44,0,0,0-.43,1.53,2.29,2.29,0,0,0,.44,1.46,1.4,1.4,0,0,0,1.16.55A1.47,1.47,0,0,0,92.58,28.83Z"/><path class="cls-1" d="M98.46,30.59a2.15,2.15,0,0,1-1.75-.74,2.93,2.93,0,0,1,0-3.67,2.46,2.46,0,0,1,3.49,0,2.61,2.61,0,0,1,.65,1.81,2.82,2.82,0,0,1-.63,1.83A2.19,2.19,0,0,1,98.46,30.59Zm0-.5a1.42,1.42,0,0,0,1.2-.59,2.49,2.49,0,0,0,.44-1.52,2.25,2.25,0,0,0-.45-1.49A1.5,1.5,0,0,0,98.48,26a1.42,1.42,0,0,0-1.19.57A2.4,2.4,0,0,0,96.84,28a2.31,2.31,0,0,0,.45,1.48A1.43,1.43,0,0,0,98.48,30.09Z"/><path class="cls-1" d="M107.72,30v.54h-3.45V25.55H105V30Z"/><path class="cls-1" d="M114.8,30.49h-.75l-.59-1.44h-2.17l-.53,1.44h-.61l1.9-4.94h.83Zm-1.5-1.9-.9-2.38-.91,2.38Z"/></g></svg>