<svg xmlns="http://www.w3.org/2000/svg" viewBox="0 0 97.5 124.8"><defs><style>.cls-1{fill:#606161;}</style></defs><title>LOGOS MAXIM GRIS</title><g id="Layer_4" data-name="Layer 4"><path class="cls-1" d="M88,52.62c-1-2.34-2.18-4.61-3.18-6.95a10.33,10.33,0,0,1-.94-3.18c-.14-1.61,1.38-3.56,3.22-3.19a2.9,2.9,0,0,1,2.59,2,.39.39,0,0,0,.39.3.37.37,0,0,0,.4-.32,5.84,5.84,0,0,0-1-5.68.45.45,0,0,1-.09-.57,6.3,6.3,0,0,0,.59-4.24,2.85,2.85,0,0,0-1.36-2.13.5.5,0,0,1-.32-.54q0-12,0-24c0-.36-.07-.47-.45-.47h-78c-.38,0-.46.11-.45.47q0,12,0,24.05a.45.45,0,0,1-.29.49,1.91,1.91,0,0,0-.94.92,5.13,5.13,0,0,0-.6,2.35,7.13,7.13,0,0,0,.76,3.18.31.31,0,0,1,0,.43A5.2,5.2,0,0,0,6.94,37.9a2.7,2.7,0,0,1-.19.84V40c.18.41.16.86.33,1.27.08.18.17.31.38.31a.39.39,0,0,0,.41-.28,2.89,2.89,0,0,1,2.57-2c1.9-.38,3.38,1.61,3.24,3.19a10.12,10.12,0,0,1-.92,3.15c-1,2.35-2.2,4.62-3.2,7A35.68,35.68,0,0,0,7.15,60.3a22.54,22.54,0,0,0-.34,3H6.75V65.1h.06a48.94,48.94,0,0,0,.58,5.79A39.92,39.92,0,0,0,9,77.53a.44.44,0,0,1-.15.55,4.52,4.52,0,0,0-1.43,2.64A2.35,2.35,0,0,0,8,82.66c.29.34.46.32.69-.06a5.08,5.08,0,0,1,2.16-1.95.55.55,0,0,1,.53,0,6.08,6.08,0,0,1,3.48,4.86,23.51,23.51,0,0,1,0,4.11A83.37,83.37,0,0,0,15,98.29a19.93,19.93,0,0,0,1.82,7.35,18.79,18.79,0,0,0,4.71,5.67,23.88,23.88,0,0,0,12.19,5.44,15.21,15.21,0,0,0,3.93.11c.14,0,.21,0,.23.17a1.56,1.56,0,0,0,.78,1.16,17.27,17.27,0,0,0,6.87,2.7,13.46,13.46,0,0,0,1.79.22c.06,0,.12,0,.15.07H50c0-.07.09-.06.14-.06a16.78,16.78,0,0,0,2.64-.37,17.2,17.2,0,0,0,6.1-2.56,1.56,1.56,0,0,0,.78-1.16c0-.18.09-.18.23-.17a15.21,15.21,0,0,0,3.93-.11A23.94,23.94,0,0,0,76,111.31a18.84,18.84,0,0,0,4.73-5.74,19.67,19.67,0,0,0,1.78-7.26,83.48,83.48,0,0,0,.12-8.52,24.59,24.59,0,0,1,0-4.29,6.06,6.06,0,0,1,3.49-4.85.55.55,0,0,1,.5,0,5.07,5.07,0,0,1,2.18,2c.23.36.39.39.68.06a2.24,2.24,0,0,0,.6-1.55,4.28,4.28,0,0,0-1.48-3.07.38.38,0,0,1-.13-.48,27.38,27.38,0,0,0,.91-3.09A49,49,0,0,0,90.67,66a23.32,23.32,0,0,0-.3-5.66A36.36,36.36,0,0,0,88,52.62ZM7.82,63.8A25.11,25.11,0,0,1,9.2,56.73c.94-2.86,2.21-5.59,3.42-8.35a26.32,26.32,0,0,0,1.7-4.72,4.39,4.39,0,0,0-.69-3.84A3.5,3.5,0,0,0,9.45,38.7a3.73,3.73,0,0,0-1.7,1.12v-.88c0-.18.16-.22.28-.29a5.68,5.68,0,0,1,3.2-.72l.43,0c.11,0,.23,0,.24-.14s-.08-.19-.21-.22a7.48,7.48,0,0,0-1.42-.1A6.27,6.27,0,0,0,8,37.92a2.6,2.6,0,0,1,.22-.73c0-.13.16-.15.28-.17a8.94,8.94,0,0,1,3.42,0c.16,0,.44.24.51-.08s-.27-.25-.44-.29a9.56,9.56,0,0,0-3.29-.32.69.69,0,0,1,.22-.38c.25-.28.49-.56.17-.9.06-.13.13-.08.17-.07a18.33,18.33,0,0,1,3,1.19c.11.06.24.15.34,0s0-.23-.15-.31A9,9,0,0,0,11.08,35c-.69-.32-1.37-.64-2.06-.94a.54.54,0,0,1-.35-.61c1,.53,2.14.87,3.15,1.4.12.07.26.21.37,0s-.06-.26-.17-.34a12.07,12.07,0,0,0-1.72-1,15.11,15.11,0,0,1-1.57-.89A.68.68,0,0,1,8.45,32a5,5,0,0,0,1.59.9,12.55,12.55,0,0,1,5.39,4.94,15.06,15.06,0,0,1,2.28,8c0,5.64,0,11.28,0,16.92,0,.05,0,.11,0,.17s-.16-.09-.21-.16a10.8,10.8,0,0,0-3.65-2.39.49.49,0,0,0-.53.1,21.07,21.07,0,0,0-3,2.86c-.07.08-.2.17-.07.3s.23,0,.32-.08a21.73,21.73,0,0,1,2.71-2.06.78.78,0,0,1,.9,0A9,9,0,0,1,17,63.55a3.16,3.16,0,0,1,.76,2.12c0,1.71.06,3.42,0,5.12a10.41,10.41,0,0,1-2,5.35c-.13.19-.19.13-.29,0-.39-.58-.78-1.15-1.19-1.72-.1-.14-.08-.21,0-.31.48-.38,1-.78,1.42-1.17A.8.8,0,0,0,16,71.85a6.34,6.34,0,0,0-.85-1.55.88.88,0,0,0-1.4-.21l-.76.58c-.53.39-.62.72-.26,1.26.2.3.14.44-.13.64-1,.75-2,1.52-2.94,2.29-.12.08-.22.25-.29-.06A41,41,0,0,1,7.82,63.8Zm6,8.46,0-.06c-.46-.86-.45-.85.41-1.35.13-.07.18,0,.25.06A9.58,9.58,0,0,1,15,72c.09.2-.07.25-.17.33L10.4,75.89l-.57.44a.45.45,0,0,1,.11-.71c1.28-1,2.53-2,3.79-2.93C13.9,72.56,14,72.45,13.82,72.26Zm-.45,2.58c.12-.09.17-.07.25,0l1.35,2A.18.18,0,0,1,15,77a.78.78,0,0,1-.85.46,8.24,8.24,0,0,0-3.7-.4ZM9.29,80.9a5.33,5.33,0,0,0-1,.92,1.07,1.07,0,0,1,.9-1.66,2.9,2.9,0,0,1,1.31.15A6.3,6.3,0,0,0,9.29,80.9Zm28.12,34.9a21.35,21.35,0,0,1-10-2,6.11,6.11,0,0,0-.58-.27,3.29,3.29,0,0,1-2.07-2.63,10.94,10.94,0,0,1-.15-3.74.44.44,0,0,1,.32-.41L28,105.43c.12-.05.32-.06.24-.27s-.21-.09-.34-.06l-3.57.9a.67.67,0,0,0-.56.59,11.54,11.54,0,0,0,.13,5l-.07.06h0c-4-2.77-6.75-6.36-7.59-11.26a47.79,47.79,0,0,1-.53-8.78c0-1.75.13-3.5.1-5.25a7.19,7.19,0,0,0-5.9-7.1,6.1,6.1,0,0,0-.8-.09c.36-.39.67-.69,1.26-.55A7.56,7.56,0,0,1,14.25,81c.07.06.12.14.19.21a.17.17,0,0,0,.25,0,.16.16,0,0,0,0-.22c-.07-.09-.13-.18-.2-.26a8.92,8.92,0,0,0-3.45-2.6,1.87,1.87,0,0,1,1.65.18,8.64,8.64,0,0,1,2.55,2.63,1.19,1.19,0,0,1,.08.16c.06.11.14.21.28.14s.11-.2,0-.3c-.16-.31-.32-.63-.51-.93a12.46,12.46,0,0,0-1.36-1.77,4.25,4.25,0,0,1,.51.14.51.51,0,0,0,.7-.18l.29-.34c.19.79.36,1.5.55,2.21.05.22.13.43.2.64s.1.29.28.24.11-.21.08-.33c-.2-.93-.33-1.86-.44-2.8a1.31,1.31,0,0,1,.55-1.24c0,.71,0,1.41.1,2.09l.15,1c0,.13,0,.28.21.26s.15-.18.14-.3a21.5,21.5,0,0,1,.14-4,2.84,2.84,0,0,1,.41-1,.7.7,0,0,1,.06.41c0,1.72,0,3.44,0,5.15A30,30,0,0,0,23,96.44a31,31,0,0,0,15.53,12l.26.1,0,0c0,.12-.11.14-.18.2l-2.18,1.64c-.16.13-.26.15-.43,0-.59-.61-.84-.62-1.5-.1l-.7.55a.82.82,0,0,0-.2,1.24,6.86,6.86,0,0,0,1.07,1.27c.52.47.83.49,1.37.06.24-.19.35-.23.5.09.31.68.67,1.33,1,2C37.72,115.72,37.7,115.78,37.41,115.8Zm2-6.64a.7.7,0,0,1,.92-.08l-4.21,3.08-.11.08c-.65.48-.65.48-1.19-.15s-.46-.52.07-1c.29-.27.45-.26.72,0,.46.51.48.49,1,.09C37.57,110.52,38.5,109.86,39.41,109.16Zm-.85,6.27c-.5-.88-1-1.72-1.44-2.57,0-.09-.11-.17,0-.26l4.13-3.11,1,1.76a.16.16,0,0,1,0,.24C41,112.8,39.79,114.1,38.56,115.43Zm19.73,2c-.93.61-1.28.55-2-.33l-2.37-2.92c-.21-.26-.46-.27-.61,0s0,.32.07.46c.55,1,1.11,2,1.67,3a3.11,3.11,0,0,1,.2.41.71.71,0,0,1-.49,1c-1.24.4-1.48.3-2-.88-.45-.94-.9-1.87-1.34-2.81-.1-.22-.23-.39-.49-.3s-.23.3-.17.54c.28,1.06.55,2.12.83,3.18a1.91,1.91,0,0,1,0,.53.42.42,0,0,1-.35.43,3.47,3.47,0,0,1-1.2.07.7.7,0,0,1-.6-.66c-.09-.61-.14-1.22-.21-1.83l-.15-1.52c0-.21-.13-.38-.35-.37s-.32.17-.34.38c-.1,1-.19,2-.29,2.93a3.45,3.45,0,0,1-.1.56.74.74,0,0,1-.23.35,2.1,2.1,0,0,1-1.75,0,.81.81,0,0,1-.09-.81c.27-1.07.55-2.13.83-3.19.06-.24.11-.46-.18-.56s-.39.12-.49.34c-.46,1-.93,2-1.4,2.94-.09.17-.18.33-.28.49a.88.88,0,0,1-1,.41,4.45,4.45,0,0,1-.88-.26.72.72,0,0,1-.27-1.06c.27-.54.57-1.07.86-1.6s.65-1.2,1-1.8c.11-.2.15-.38-.06-.52s-.37,0-.51.14L41.28,117l-.14.16c-.86,1-1.26.7-2.12.08-.23-.17-.18-.45-.12-.69a1.36,1.36,0,0,1,.3-.52c1.23-1.43,2.44-2.87,3.67-4.3a.43.43,0,0,0,.08-.58c-.29-.52-.53-1.07-.81-1.65,1,.2,2,.37,3,.49a.21.21,0,0,1,.22.18,1.17,1.17,0,0,1,0,.2c0,.19.28.4,0,.56a.67.67,0,0,1-.83-.36c-.06-.15-.09-.36-.31-.32s-.17.25-.17.41,0,.26,0,.39c0,.42.13.55.54.6l.88.11c.62.09,1-.26.83-.87-.09-.41-.23-.81-.36-1.22a.67.67,0,0,0-.62-.45,27.76,27.76,0,0,1-8.9-2.47,29.89,29.89,0,0,1-17-20.16,27.43,27.43,0,0,1-.9-6.92q0-16.65,0-33.29a16.65,16.65,0,0,0-3.22-10.17,12.25,12.25,0,0,0-5.54-4.33,1.87,1.87,0,0,1-.83-.58,1.27,1.27,0,0,1,.44-2c.07.5.15,1,.21,1.48,0,.2,0,.47.32.45s.24-.3.24-.51V25.29q0-10.2,0-20.4c0-.34.08-.42.42-.42q38.21,0,76.4,0c.36,0,.41.11.41.43q0,12.84,0,25.66v.28c0,.2,0,.41.26.43s.27-.2.3-.39c.06-.51.14-1,.2-1.52a1.24,1.24,0,0,1,.52,1.87,1.78,1.78,0,0,1-.84.64,13.39,13.39,0,0,0-7.33,7.32A16.55,16.55,0,0,0,79,46.25C79,57,79,67.69,79,78.41a31,31,0,0,1-2.06,11.77,30.12,30.12,0,0,1-17.34,17.21,27.46,27.46,0,0,1-7.41,1.83.74.74,0,0,0-.68.57c-.11.38-.24.74-.33,1.12-.13.59.21,1,.81.87.31,0,.63-.09,1-.12a.5.5,0,0,0,.5-.54v-.56c0-.15,0-.28-.18-.3s-.22.1-.27.22c-.18.42-.32.5-.77.48-.17,0-.22-.07-.18-.22s.14-.4.19-.61a.18.18,0,0,1,.18-.13c1-.12,2-.29,3-.49-.28.58-.52,1.13-.81,1.66a.41.41,0,0,0,.07.55c1.23,1.43,2.44,2.87,3.66,4.3a1.43,1.43,0,0,1,.3.48A.66.66,0,0,1,58.29,117.41Zm-.18-8.25c1,.77,2,1.5,3,2.26.19.14.31.19.49,0s.41-.54.61-.54.45.34.69.51.21.22,0,.39-.47.5-.69.76-.21.17-.38,0l-4.63-3.4-.11-.08A.7.7,0,0,1,58.11,109.16Zm.85,6.27-3-3.25-.33-.36c-.42-.45-.42-.45-.11-1,.21-.38.43-.76.63-1.15.08-.16.14-.17.28-.06l3.91,2.95c.12.08.16.14.08.28C59.92,113.7,59.45,114.55,59,115.43ZM84.71,80.56a6.8,6.8,0,0,0-3,5,16.6,16.6,0,0,0,0,2.73c.09,2.52.15,5,0,7.56a25.62,25.62,0,0,1-1.21,7.32,16.18,16.18,0,0,1-5.23,7.24,16.38,16.38,0,0,1-1.63,1.25l-.08-.06h0a11.38,11.38,0,0,0,.13-5.06.63.63,0,0,0-.52-.55l-3.64-.92c-.12,0-.24-.08-.3.07s.08.21.2.26c1,.43,2.1.87,3.15,1.29a.42.42,0,0,1,.31.37,10.16,10.16,0,0,1-.33,4.42,3.05,3.05,0,0,1-1.6,1.85,21.91,21.91,0,0,1-10.13,2.47c-.28,0-.56,0-.85,0s-.2-.06-.12-.21c.39-.74.78-1.48,1.16-2.23.08-.16.14-.13.27,0,.83.56,1.07.53,1.77-.2a6.78,6.78,0,0,0,.82-1,.83.83,0,0,0-.2-1.24l-.87-.68a.79.79,0,0,0-1.19.07c-.35.35-.35.35-.74,0l-2.16-1.62s0,0-.05-.09c.41-.16.83-.3,1.23-.47A30.77,30.77,0,0,0,78.34,88.52a29.23,29.23,0,0,0,1.43-9.42c0-1.34,0-2.68,0-4v-.46a2.56,2.56,0,0,1,.53,1.44,23.39,23.39,0,0,1,.08,3.55c0,.13-.08.32.13.34s.2-.16.22-.3A15.88,15.88,0,0,0,81,76.5c.28.4.62.6.57,1.11a26.58,26.58,0,0,1-.4,2.8l-.06.28c0,.11,0,.22.09.26a.2.2,0,0,0,.26-.17c.15-.5.31-1,.44-1.5s.2-.89.32-1.44c.38.76.94.62,1.53.43-.31.36-.62.7-.91,1.07a7.77,7.77,0,0,0-1,1.54c0,.12-.16.27,0,.36s.23-.09.31-.21a8.41,8.41,0,0,1,2.59-2.72,1.88,1.88,0,0,1,1.65-.18A9,9,0,0,0,83,80.7l-.17.23c-.08.09-.12.19,0,.28s.22,0,.3-.06a7.38,7.38,0,0,1,1.32-1.24,7.54,7.54,0,0,1,2.67-1.26c.59-.14.9.16,1.28.56A6.71,6.71,0,0,0,84.71,80.56Zm-.9-7.85c1.26,1,2.5,2,3.76,2.91.31.24.29.43.11.72l-4.56-3.63c-.75-.6-.75-.6-.28-1.44.07-.11.14-.22.2-.33s.16-.17.31-.07c.81.52.82.52.35,1.36C83.57,72.47,83.62,72.56,83.81,72.71Zm.31,2.12L87,77.07c-.48,0-.93,0-1.39,0a7.23,7.23,0,0,0-2.39.45c-.42.15-.48-.23-.69-.39s0-.3.08-.41c.4-.59.81-1.17,1.22-1.75C83.92,74.85,84,74.69,84.12,74.83Zm4.36,5.34c.76.13,1.08.79.75,1.66a4.88,4.88,0,0,0-2.15-1.52A2.69,2.69,0,0,1,88.48,80.17Zm1-12.45a62.42,62.42,0,0,1-1.31,6.89c-.11.43-.11.43-.47.15-1-.75-1.92-1.51-2.89-2.25-.21-.16-.26-.28-.1-.5a1,1,0,0,0,.25-.72.78.78,0,0,0-.31-.5c-.35-.27-.69-.54-1.05-.79a.81.81,0,0,0-1.12.13,5.27,5.27,0,0,0-1,1.88.75.75,0,0,0,.29.88c.49.39,1,.79,1.45,1.19.07.06.22.09.11.25-.46.65-.91,1.31-1.38,2a10.9,10.9,0,0,1-2-4.44,10.32,10.32,0,0,1-.18-2.08c0-1.34,0-2.68,0-4a3.38,3.38,0,0,1,.91-2.43,9.59,9.59,0,0,1,2.91-2c.17-.08.27,0,.39.08a17.38,17.38,0,0,1,2.74,2c.13.11.28.42.48.23s-.11-.36-.23-.5a20.41,20.41,0,0,0-2.68-2.58.67.67,0,0,0-.81-.11A10.23,10.23,0,0,0,79.86,63c-.12,0-.07-.14-.07-.21,0-5.85-.11-11.71.06-17.55a14,14,0,0,1,6.31-11.61,7.22,7.22,0,0,1,1.53-.81A3.63,3.63,0,0,0,89,32c.09.43.07.5-.23.72a15.4,15.4,0,0,1-2,1.11,9,9,0,0,0-1.37.81c-.1.07-.21.15-.13.29s.21.06.33,0c1-.55,2.14-.89,3.18-1.43a.52.52,0,0,1-.35.62c-.94.42-1.88.82-2.79,1.31-.2.11-.4.24-.6.37s-.31.17-.18.36.25,0,.37,0a20.21,20.21,0,0,1,3.21-1.23c-.48.67.16,1,.36,1.42a8.77,8.77,0,0,0-1.45,0,11.13,11.13,0,0,0-2.06.37c-.13,0-.3.06-.25.26s.2.12.32.1A9.56,9.56,0,0,1,88.7,37c.42.06.7.21.77.65a3.12,3.12,0,0,0,.07.31,6.7,6.7,0,0,0-2.14-.41,7.41,7.41,0,0,0-1.41.07c-.15,0-.4,0-.37.22s.25.16.4.15a6.67,6.67,0,0,1,2.55.29l.37.13c1,.48.85.34.83,1.39,0,0-.07,0-.09,0a4,4,0,0,0-3.87-1.17,3.48,3.48,0,0,0-2.65,2.78,6,6,0,0,0,.32,3.41,60,60,0,0,0,2.48,6A53.43,53.43,0,0,1,89,59.16,23.07,23.07,0,0,1,89.51,67.72Z"/><path class="cls-1" d="M77.31,79.16q0-31.71,0-63.4c0-.36-.14-.39-.43-.39q-28.14,0-56.29,0c-.34,0-.42.09-.42.43q0,16.32,0,32.65,0,15.4,0,30.81A27.73,27.73,0,0,0,21.29,87a28.57,28.57,0,0,0,26,20.69,28.19,28.19,0,0,0,12.6-2.2A28.5,28.5,0,0,0,77.31,79.16ZM46.24,105.92A26.88,26.88,0,0,1,21.89,79.21V49.26q0-15.88,0-31.77c0-.33.06-.43.42-.43q26.46,0,52.91,0c.35,0,.42.08.42.42q0,30.81,0,61.62A26.85,26.85,0,0,1,56.15,105,26.52,26.52,0,0,1,46.24,105.92Z"/><path class="cls-1" d="M84,8.14q0,12,0,24v.43a7.47,7.47,0,0,1,1.38-1,.47.47,0,0,0,.33-.53q0-12.31,0-24.62c0-.34-.1-.4-.41-.4H12.22c-.34,0-.43.07-.42.42q0,12.29,0,24.59a1.47,1.47,0,0,1,0,.21.22.22,0,0,0,.15.24,6.18,6.18,0,0,1,1.55,1V32q0-11.94,0-23.88c0-.34.07-.43.42-.43H83.62C84,7.73,84,7.82,84,8.14Z"/><path class="cls-1" d="M82.83,27.4a.24.24,0,0,0-.25.25,3,3,0,0,1-.85,1.83c-.5.57-1,1.11-1.54,1.67a4.43,4.43,0,0,0-1.1,2.15A16.32,16.32,0,0,0,79,36v2.14c0,.2,0,.4.26.43a.41.41,0,0,0,.5-.33,7.3,7.3,0,0,1,.83-1.95c.5-.89,1.11-1.71,1.68-2.55A4.15,4.15,0,0,0,83,31.6c0-.51,0-1,0-1.53,0-.78,0-1.56,0-2.35C83.07,27.56,83,27.4,82.83,27.4ZM81.63,33c-.54.9-1.13,1.77-1.72,2.69,0-.5,0-1,0-1.44a4.46,4.46,0,0,1,1.31-2.94,9.11,9.11,0,0,0,1.07-1.39A5.2,5.2,0,0,1,81.63,33Z"/><path class="cls-1" d="M18.54,34.31a4.6,4.6,0,0,0-1.24-3.19c-.52-.57-1.05-1.12-1.56-1.7a3,3,0,0,1-.8-1.67c0-.18,0-.35-.25-.35s-.24.22-.24.4c0,.71,0,1.42,0,2.13a6.44,6.44,0,0,0,1.46,4.7,9.57,9.57,0,0,1,1.9,3.61.39.39,0,0,0,.47.28c.26,0,.28-.21.28-.41v-3.8Zm-.92,1.34c-.11,0-.11-.12-.16-.19-.51-.78-1-1.56-1.52-2.35a5.34,5.34,0,0,1-.73-3.2c.53.82,1.16,1.45,1.68,2.16a4.38,4.38,0,0,1,.73,2.41C17.65,34.86,17.62,35.25,17.62,35.65Z"/><path class="cls-1" d="M50.24,109.38c-.49,0-1,0-1.46,0H47.22c-.23,0-.32.07-.27.32.14.62.26,1.24.39,1.87a.44.44,0,0,0,.4.38,7.59,7.59,0,0,0,2,0,.45.45,0,0,0,.42-.41c.12-.6.23-1.2.38-1.79C50.63,109.43,50.51,109.37,50.24,109.38Z"/><path class="cls-1" d="M75.46,13.26c.17,0,.32,0,.31-.24,0-1,0-1.94,0-2.91,0-.07,0-.16,0-.2s-.75,0-.81.23l-.45,1.45-.36-1.22c-.15-.52-.15-.51-.72-.5-.17,0-.22.06-.22.23q0,1.46,0,2.91c0,.25.12.26.3.25s.37.05.35-.25,0-.84,0-1.27h.08L74.26,13c0,.12,0,.28.19.29s.2-.17.24-.29c.13-.43.26-.86.38-1.29A7.49,7.49,0,0,1,75.13,13C75.11,13.29,75.29,13.26,75.46,13.26Z"/><path class="cls-1" d="M23.2,13.26c.51,0,1,0,1.53,0,.3,0,.49,0,.47-.38s.19-.29.41-.31.29.16.33.34a.61.61,0,0,0,0,.14c.07.37.36.18.55.2s.1-.19.08-.28c-.19-.93-.4-1.85-.58-2.77-.05-.26-.16-.33-.42-.33s-.43.06-.45.37a3.21,3.21,0,0,1-.11.52c-.17.79-.34,1.58-.52,2.36,0-.37-.15-.46-.47-.4H24c-.29,0-.41,0-.39-.37,0-.74,0-1.47,0-2.2,0-.28-.12-.28-.31-.27s-.34-.05-.34.25c0,1,0,1.91,0,2.87C22.93,13.21,23,13.27,23.2,13.26Zm2.18-1.49c.05-.29.1-.58.16-.87h0c.06.3.11.6.16.9,0,.07.1.17,0,.22a.54.54,0,0,1-.31,0C25.3,12,25.37,11.85,25.38,11.77Z"/><path class="cls-1" d="M47.39,11.75c.18.44.37.88.54,1.32s.35.18.54.18.13-.19.13-.3c0-.92,0-1.85,0-2.77,0-.26-.08-.31-.32-.31s-.35.05-.33.33,0,.78,0,1.17a8.6,8.6,0,0,1-.59-1.32c-.12-.31-.37-.14-.55-.16s-.14.18-.14.28c0,.95,0,1.89,0,2.84,0,.26.13.25.31.25s.36,0,.34-.26,0-.82,0-1.24Z"/><path class="cls-1" d="M57.19,13.09c.11.28.34.15.52.16s.14-.17.14-.28c0-1,0-1.9,0-2.84,0-.3-.16-.25-.33-.25s-.34,0-.32.26,0,.82,0,1.24h-.07c-.17-.44-.35-.89-.53-1.33s-.36-.15-.54-.16-.14.17-.14.28c0,.93,0,1.86,0,2.8,0,.24.07.31.3.29s.37,0,.35-.28,0-.84,0-1.26A9.91,9.91,0,0,1,57.19,13.09Z"/><path class="cls-1" d="M69.93,13.26c.17,0,.36.05.35-.25,0-.47,0-.94,0-1.42s0-1,0-1.49c0-.28-.17-.22-.33-.22s-.34-.08-.32.22,0,.61,0,.92-.17.22-.32.22S69,11.31,69,11s0-.62,0-.92-.18-.22-.33-.22-.33-.05-.32.23q0,1.46,0,2.91c0,.26.14.24.31.24s.36,0,.34-.26,0-.62,0-.92.13-.29.33-.29.35,0,.33.3,0,.62,0,.92S69.76,13.26,69.93,13.26Z"/><path class="cls-1" d="M77.89,11.34a.92.92,0,0,0,.1-1,.77.77,0,0,0-.79-.43h-.68c-.2,0-.26,0-.26.25,0,.47,0,.95,0,1.42v.82c0,.92,0,.92.94.89.36,0,.69-.08.83-.47a1,1,0,0,0-.15-1.13C77.76,11.52,77.77,11.47,77.89,11.34Zm-.79-.91c.27,0,.33.18.33.4s0,.43-.34.42-.1-.28-.21-.41C77,10.71,76.73,10.43,77.1,10.43Zm0,2.28c-.39,0-.06-.34-.2-.48.11-.14-.15-.42.2-.43s.4.19.4.46S77.38,12.73,77.08,12.71Z"/><path class="cls-1" d="M29.49,10.44a.88.88,0,0,0-1-.56,2.67,2.67,0,0,1-.49,0c-.27,0-.32.08-.31.31,0,.45,0,.9,0,1.35s0,.9,0,1.35c0,.25,0,.37.34.38s.31-.17.31-.39,0-.48,0-.71c0-.07,0-.15.08-.16s.11.05.14.13.18.46.23.7.27.46.62.42c.17,0,.19-.06.13-.21-.12-.31-.22-.62-.34-.93a.33.33,0,0,1,.09-.42A1.14,1.14,0,0,0,29.49,10.44Zm-.94,1c-.38,0-.09-.35-.21-.52.14-.14-.18-.46.2-.49s.39.24.39.5S28.88,11.47,28.55,11.44Z"/><path class="cls-1" d="M79.18,13c0-.27,0-.55,0-.82,0-.07,0-.18.09-.19s.11.07.13.14a7.07,7.07,0,0,1,.24.74c.06.33.25.4.55.37s.26,0,.18-.24-.21-.61-.33-.9a.32.32,0,0,1,.09-.42,1.13,1.13,0,0,0,.17-1.26.88.88,0,0,0-1-.56h-.57c-.17,0-.22,0-.22.21,0,.49,0,1,0,1.46s0,1,0,1.45c0,.26.11.27.3.26S79.2,13.32,79.18,13Zm.18-2.59c.32,0,.38.25.38.49s0,.54-.39.52-.09-.35-.2-.52C79.29,10.78,79,10.45,79.36,10.43Z"/><path class="cls-1" d="M20.4,13c0-.26,0-.52,0-.78,0-.06,0-.15.08-.16s.12.05.14.13a5.25,5.25,0,0,1,.23.74c.07.36.28.4.58.38s.22-.07.16-.23c-.12-.32-.23-.65-.35-1,0-.12-.07-.19.05-.3a1.11,1.11,0,0,0,.28-1.18c-.12-.52-.46-.7-1.22-.7H20.1c-.29-.05-.35.08-.34.35q0,1.37,0,2.73c0,.28.1.3.32.3S20.42,13.21,20.4,13Zm.17-2.52c.34,0,.4.25.4.51s-.06.53-.4.5-.08-.35-.2-.52C20.51,10.78,20.19,10.46,20.57,10.43Z"/><path class="cls-1" d="M61.32,12.64c0,.62,0,.62.65.62a1.11,1.11,0,0,0,1.26-1,2.7,2.7,0,0,0,.08-.85c-.05-1.17-.45-1.55-1.61-1.55h-.14c-.19,0-.24,0-.24.24,0,.47,0,.94,0,1.42S61.32,12.27,61.32,12.64ZM62,11.57c0-.3,0-.59,0-.89,0-.08-.06-.2.07-.24a.37.37,0,0,1,.33.07,2.09,2.09,0,0,1,0,2.12.34.34,0,0,1-.33.07c-.12,0-.06-.18-.06-.28C62,12.14,62,11.85,62,11.57Z"/><path class="cls-1" d="M44.38,10.39a3,3,0,0,0,0,2.34.85.85,0,0,0,.86.57.87.87,0,0,0,.84-.59,2.48,2.48,0,0,0,.2-1.12,2.59,2.59,0,0,0-.21-1.19.91.91,0,0,0-.86-.58A.85.85,0,0,0,44.38,10.39Zm.56.22c.05-.12.12-.24.28-.23a.29.29,0,0,1,.27.24,3.09,3.09,0,0,1,0,1.88c0,.14-.13.26-.3.26s-.22-.13-.27-.26a3.33,3.33,0,0,1-.13-.94A3,3,0,0,1,44.94,10.61Z"/><path class="cls-1" d="M18.32,9.82a.86.86,0,0,0-.84.55,3,3,0,0,0,0,2.37.84.84,0,0,0,.82.56.89.89,0,0,0,.86-.57,2.76,2.76,0,0,0,.21-1.17,2.62,2.62,0,0,0-.23-1.2A.91.91,0,0,0,18.32,9.82Zm.28,2.67c-.06.13-.13.27-.3.27a.32.32,0,0,1-.28-.28,3.41,3.41,0,0,1,0-1.82c0-.13.11-.27.28-.28s.27.14.32.29a2.52,2.52,0,0,1,.09.91A2.55,2.55,0,0,1,18.6,12.49Z"/><path class="cls-1" d="M71.72,9.82a.85.85,0,0,0-.83.56,3,3,0,0,0,0,2.38.85.85,0,0,0,.83.55.9.9,0,0,0,.83-.56,2.61,2.61,0,0,0,.23-1.17,2.48,2.48,0,0,0-.23-1.2A.89.89,0,0,0,71.72,9.82Zm.28,2.7c0,.12-.13.24-.28.24a.31.31,0,0,1-.28-.24,3.3,3.3,0,0,1,0-1.92.27.27,0,0,1,.25-.22.28.28,0,0,1,.29.22,3.17,3.17,0,0,1,.15,1A3.41,3.41,0,0,1,72,12.52Z"/><path class="cls-1" d="M32.75,9.89c-.28-.07-.38,0-.43.33-.17.88-.38,1.75-.57,2.63-.09.43-.09.41.35.41s.27-.23.28-.38.15-.3.38-.31.33.1.35.31a.69.69,0,0,0,0,.25c.14.25.38.12.57.11s.06-.17,0-.25c-.19-.93-.4-1.86-.59-2.8C33.12,9.93,33,9.81,32.75,9.89ZM32.91,12a.47.47,0,0,1-.31,0c-.12,0-.05-.17,0-.25,0-.29.11-.57.16-.86h.05l.15.9C32.93,11.87,33,12,32.91,12Z"/><path class="cls-1" d="M39.72,12.57c.26,0,.33.1.35.31a.72.72,0,0,0,0,.25c.12.25.36.11.54.12s.1-.17.08-.26c-.19-.94-.41-1.87-.6-2.81,0-.24-.13-.36-.4-.29-.32-.1-.41.07-.46.37-.17.85-.36,1.71-.55,2.56-.09.45,0,.5.42.44.26,0,.19-.26.2-.39S39.49,12.58,39.72,12.57Zm-.21-.74c.07-.31.11-.64.19-1.06.07.42.12.74.19,1.06,0,.16,0,.21-.17.21S39.46,12,39.51,11.83Z"/><path class="cls-1" d="M59.19,9.89c-.15,0-.37-.14-.43.15-.21,1-.44,2-.66,3,0,.08,0,.13.06.17a.42.42,0,0,0,.61-.32c0-.21,0-.37.35-.36s.39,0,.39.34.08.43.39.34c.13,0,.36.09.29-.22-.22-1-.44-2-.65-3C59.5,9.82,59.32,9.87,59.19,9.89ZM59.28,12A.65.65,0,0,1,59,12c-.08,0,0-.12,0-.18a4.6,4.6,0,0,1,.21-.94c.06.36.12.64.17.93C59.35,11.89,59.4,12,59.28,12Z"/><path class="cls-1" d="M16.11,12A.93.93,0,0,0,17,10.91a.94.94,0,0,0-1-1h-.63c-.2,0-.27,0-.27.25,0,.47,0,.95,0,1.42s0,1,0,1.45c0,.18,0,.25.23.26s.47,0,.42-.39c0-.17,0-.36,0-.53S15.83,12,16.11,12Zm-.31-.8a2,2,0,0,1,0-.42c0-.12-.11-.31.13-.34a.33.33,0,0,1,.41.29.58.58,0,0,1,0,.15.59.59,0,0,1-.13.49.37.37,0,0,1-.36.08C15.74,11.4,15.8,11.28,15.8,11.19Z"/><path class="cls-1" d="M50.92,12c.6,0,.92-.44.9-1.12a.92.92,0,0,0-1-1h-.68c-.17,0-.21.06-.21.22,0,.49,0,1,0,1.46s0,1,0,1.45c0,.19.05.24.24.25s.45-.06.4-.4c0-.17,0-.35,0-.53S50.64,12,50.92,12Zm-.31-1a2.62,2.62,0,0,0,0-.28c0-.34.2-.27.36-.21s.22.31.22.52-.06.39-.27.45-.34.09-.31-.2A1.31,1.31,0,0,0,50.61,11Z"/><path class="cls-1" d="M31.19,10.43h0c.22,0,.33,0,.34-.29s-.15-.27-.33-.26h-.43a2.94,2.94,0,0,1-.42,0c-.3-.05-.38.07-.37.36,0,.9,0,1.8,0,2.7,0,.23.05.34.31.32s.61,0,.92,0,.31,0,.32-.28-.14-.27-.33-.26h-.35c-.17,0-.22-.06-.23-.22,0-.67,0-.68.63-.7.2,0,.24-.07.23-.25s0-.32-.22-.3a3.53,3.53,0,0,1-.46,0c-.09,0-.15,0-.17-.12C30.54,10.61,30.67,10.43,31.19,10.43Z"/><path class="cls-1" d="M81.86,10.43h.25c.22,0,.25-.09.25-.28s0-.29-.24-.28-.71,0-1.06,0c-.19,0-.25,0-.24.24,0,.47,0,.94,0,1.42s0,1,0,1.45c0,.2.05.28.25.27h1c.19,0,.33,0,.34-.27s-.15-.28-.35-.27h-.39c-.09,0-.17,0-.17-.13a2,2,0,0,1,0-.73c.08-.16.37-.06.56-.06s.25-.05.27-.25c0-.37-.2-.3-.4-.29s-.51,0-.48-.41S81.51,10.36,81.86,10.43Z"/><path class="cls-1" d="M63.76,13.17c.25.26.78.06,1.19.09.22,0,.29,0,.29-.28s-.08-.27-.28-.27c-.65,0-.65,0-.63-.66v0c0-.17,0-.24.22-.22h.28c.18,0,.36.06.36-.26s-.18-.3-.38-.28-.51,0-.5-.43.12-.46.45-.4H65c.24,0,.23-.13.24-.29s0-.27-.22-.26h-1.1c-.21,0-.23.08-.23.25,0,.47,0,.95,0,1.42,0,.16,0,.33,0,.5C63.7,12.43,63.56,13,63.76,13.17Z"/><path class="cls-1" d="M54,13c0,.12,0,.23.18.23h1.17c.12,0,.15-.06.17-.17,0-.28,0-.4-.36-.38-.52,0-.48,0-.53-.5s.25-.44.53-.41.37-.15.33-.39-.3-.15-.43-.14c-.34,0-.44-.07-.44-.42s.07-.49.42-.42h.25c.26,0,.22-.14.22-.3s0-.27-.21-.26a9.55,9.55,0,0,1-1.07,0c-.19,0-.24,0-.23.24,0,.47,0,.94,0,1.42Z"/><path class="cls-1" d="M36.89,13.05c0,.16,0,.21.2.21h1.24c.26,0,.2-.16.21-.31s0-.25-.23-.24-.45,0-.71,0l.81-2.13a1.26,1.26,0,0,0,.11-.51c0-.15-.05-.21-.2-.2H37.08c-.13,0-.18,0-.2.17s0,.43.36.38a4.79,4.79,0,0,1,.54,0c-.28.72-.53,1.4-.8,2.07A1.48,1.48,0,0,0,36.89,13.05Z"/><path class="cls-1" d="M41.89,10.38c.2,0,.25.13.32.26s.3,0,.45,0,.09-.15.05-.24A.82.82,0,0,0,42,9.83a.85.85,0,0,0-.85.4,2.17,2.17,0,0,0-.3,1.32,2.32,2.32,0,0,0,.25,1.27.86.86,0,0,0,.91.48c.39,0,.57-.32.71-.65s0-.25-.18-.28-.29-.21-.35.08-.11.31-.29.3-.28-.17-.32-.33a3.67,3.67,0,0,1,0-1.68C41.63,10.58,41.69,10.41,41.89,10.38Z"/><path class="cls-1" d="M65.86,13.26h1c.21,0,.31,0,.32-.28s-.15-.27-.33-.26h-.29c-.22,0-.31-.05-.3-.29s0-.75,0-1.13,0-.78,0-1.17-.11-.27-.29-.25-.36-.08-.36.23c0,1,0,1.94,0,2.91C65.61,13.2,65.68,13.27,65.86,13.26Z"/><path class="cls-1" d="M34.32,13.26a7.69,7.69,0,0,1,1,0c.22,0,.28-.06.29-.28s-.07-.29-.29-.27-.19,0-.28,0c-.27,0-.33-.07-.33-.33,0-.76,0-1.51,0-2.27,0-.31-.18-.23-.35-.24s-.32,0-.3.24c0,.47,0,.94,0,1.42s0,.94,0,1.42C34,13.17,34.07,13.28,34.32,13.26Z"/><path class="cls-1" d="M52.23,13.18c.23.24.76,0,1.15.08.23,0,.31,0,.31-.29s-.1-.27-.29-.25a1.71,1.71,0,0,0-.32,0c-.22,0-.28-.05-.28-.27,0-.77,0-1.54,0-2.31,0-.28-.13-.27-.32-.26s-.35-.05-.33.25c0,.48,0,1,0,1.46v.46C52.18,12.44,52,13,52.23,13.18Z"/><path class="cls-1" d="M36.19,13.26c.17,0,.35,0,.34-.25,0-.49,0-1,0-1.46s0-1,0-1.45c0-.29-.18-.21-.33-.22s-.32-.06-.32.22q0,1.46,0,2.91C35.88,13.27,36,13.26,36.19,13.26Z"/><path class="cls-1" d="M43.43,13.26c.18,0,.35,0,.34-.26,0-1,0-1.93,0-2.9,0-.33-.22-.2-.36-.22s-.29,0-.28.23c0,.48,0,1,0,1.45s0,1,0,1.45C43.11,13.27,43.26,13.26,43.43,13.26Z"/><path class="cls-1" d="M46.2,9.13c-.41-.35-.56-.32-1.17.22C45.38,9.57,45.38,9.57,46.2,9.13Z"/><path class="cls-1" d="M23.86,101.4a24.3,24.3,0,0,1-4-6.27.61.61,0,0,0-.6-.46c-.33,0-.44.25-.51.51a10.28,10.28,0,0,0-.22,5.5,8.06,8.06,0,0,0,3,4.68c.12.09.26.22.4.06s0-.27-.14-.36a6.67,6.67,0,0,1-2.25-3.53L21,102.79c.17.15.33.31.49.47s.18.13.28,0,.06-.19,0-.27l-.24-.27A20.77,20.77,0,0,1,19.41,100a1.94,1.94,0,0,1-.12-1.16c.95,1.18,1.89,2.33,2.91,3.43l.19.2a.14.14,0,0,0,.22,0,.16.16,0,0,0,0-.22c0-.07-.11-.13-.16-.19-1-1.2-1.9-2.48-2.81-3.75a1.39,1.39,0,0,1-.17-1.44,18.18,18.18,0,0,0,1.86,2.65,23.54,23.54,0,0,0,2.85,3c.11.09.23.2.37.06s0-.26-.07-.37S24.07,101.65,23.86,101.4Z"/><path class="cls-1" d="M31.17,107.11a1.42,1.42,0,0,0-1.38,1.39,1.38,1.38,0,0,0,1.41,1.38,1.36,1.36,0,0,0,1.37-1.37A1.4,1.4,0,0,0,31.17,107.11Zm0,2a.6.6,0,1,1,.62-.55A.58.58,0,0,1,31.16,109.1Z"/><path class="cls-1" d="M78.25,94.67c-.36,0-.53.22-.65.51a23.51,23.51,0,0,1-3.17,5.27c-.44.58-.92,1.14-1.42,1.68-.1.1-.22.22-.09.36s.27.05.39-.06l.51-.44A25.06,25.06,0,0,0,78,96.85a1.4,1.4,0,0,1-.19,1.44c-.91,1.28-1.81,2.57-2.83,3.77-.08.1-.25.21-.1.36s.27,0,.37-.13c1-1,1.86-2.12,2.72-3.23a.74.74,0,0,1,.26-.27,1.64,1.64,0,0,1-.38,1.55,23.28,23.28,0,0,1-1.94,2.48c-.11.12-.4.26-.2.45s.34-.08.47-.2a23,23,0,0,0,1.75-1.81.2.2,0,0,1,0,.22A6.77,6.77,0,0,1,75.74,105a1.09,1.09,0,0,0-.17.13c-.07.08-.11.16,0,.25a.18.18,0,0,0,.25,0,1.25,1.25,0,0,0,.24-.16A7.56,7.56,0,0,0,78,103a9.78,9.78,0,0,0,.71-7.76C78.68,95,78.58,94.69,78.25,94.67Z"/><path class="cls-1" d="M66.31,107.11a1.4,1.4,0,0,0-1.37,1.39,1.39,1.39,0,0,0,2.78,0A1.42,1.42,0,0,0,66.31,107.11Zm0,2a.58.58,0,0,1-.56-.61.59.59,0,0,1,.58-.59.62.62,0,0,1,.61.61A.61.61,0,0,1,66.3,109.1Z"/><path class="cls-1" d="M85.58,57.15a36.4,36.4,0,0,0-1.29-7.47c-.07-.24-.06-.55-.38-.62s-.47.24-.63.45a10.24,10.24,0,0,0-2,5.31,11.75,11.75,0,0,0,.44,4.53c0,.13.06.32.26.25s.14-.2.11-.33c0-.36-.13-.72-.16-1.09a12,12,0,0,1,.07-3.27c.11,0,.1.11.12.17a13.66,13.66,0,0,1,.59,2.51c0,.13,0,.34.2.32s.16-.22.15-.37a14,14,0,0,0-.68-3.4c-.24-.71.15-1.23.32-1.82.16.42.29.84.41,1.26a20.65,20.65,0,0,1,.69,3.83c0,.13,0,.29.19.28s.17-.17.16-.31v-.14a20.9,20.9,0,0,0-.85-5.38,1.41,1.41,0,0,1,.34-1.42l.08.17a35.69,35.69,0,0,1,1.31,5.77c.09.68.15,1.36.23,2,0,.14,0,.33.2.31s.14-.22.14-.34C85.63,58,85.61,57.56,85.58,57.15Z"/><path class="cls-1" d="M86.2,66.21a1.39,1.39,0,1,0,1.37,1.38A1.38,1.38,0,0,0,86.2,66.21Zm0,2a.59.59,0,1,1,0-1.18.59.59,0,1,1,0,1.18Z"/><path class="cls-1" d="M12,58.73c.14,0,.17-.1.19-.21s0-.09,0-.14a34,34,0,0,1,.74-4.8,26.4,26.4,0,0,1,.87-3.15,1.43,1.43,0,0,1,.34,1.44,20.75,20.75,0,0,0-.84,5.38c0,.16-.09.42.16.43s.18-.26.2-.42a19.41,19.41,0,0,1,.39-2.52,25.8,25.8,0,0,1,.7-2.5c.1.28.15.49.24.68a1.93,1.93,0,0,1,0,1.4,13.68,13.68,0,0,0-.63,3.23c0,.15-.08.34.15.36s.17-.19.2-.32c.06-.32.1-.66.17-1a9.25,9.25,0,0,1,.53-1.8,13.29,13.29,0,0,1,.08,3.38c0,.36-.11.72-.17,1.08,0,.14,0,.28.12.33s.21-.09.25-.22a.65.65,0,0,1,0-.13,12,12,0,0,0,.34-5,10.09,10.09,0,0,0-2-4.86c-.13-.17-.26-.36-.51-.3s-.28.26-.34.46A37.46,37.46,0,0,0,12,56.8c0,.56-.06,1.13-.09,1.7C11.85,58.61,11.86,58.72,12,58.73Z"/><path class="cls-1" d="M11.31,69a1.39,1.39,0,1,0,0-2.78,1.39,1.39,0,0,0,0,2.78Zm0-2a.59.59,0,1,1-.58.59A.58.58,0,0,1,11.31,67Z"/><path class="cls-1" d="M74,78.92q0-14.48,0-29V19.15c0-.31-.06-.41-.4-.41q-24.79,0-49.6,0c-.33,0-.41.08-.41.41q0,29.9,0,59.8a26.06,26.06,0,0,0,.45,5,25.22,25.22,0,0,0,29.52,20A24.39,24.39,0,0,0,69,94.16,24.85,24.85,0,0,0,74,78.92Zm-1.69.46c0,.27,0,.54,0,.81,0,.07,0,.18-.1.19s-.14-.06-.14-.15c0-.33-.21-.34-.47-.27-1,.27-1.1.38-1,1.46a.22.22,0,0,0,.17.23l.8.28c.26.09.4,0,.43-.28,0-.07,0-.16.15-.15s.12.09.11.18c-.07.44-.13.89-.2,1.33,0,.07,0,.15-.1.15s-.15-.06-.14-.16c0-.39-.27-.52-.55-.65l-3.63-1.6-.22-.1a.32.32,0,0,1-.14-.31c0-.16.15-.13.23-.15l3.67-1.06c.39-.12.88-.13,1-.7,0-.06.09-.07.14-.06s.11.08.11.15Zm-5-23.8c0-.08-.06-.2.08-.23s.17.11.18.21c0,.28.2.38.46.39,1.17,0,2.34,0,3.51,0,.31,0,.44-.17.45-.47,0-.86-.1-1.14-.82-1.34-.09,0-.19-.06-.16-.19s.13-.11.22-.1l.91.17c.18,0,.2.15.2.3,0,.5,0,1,0,1.5v1.52c0,.09,0,.2-.11.22s-.15-.1-.16-.21c0-.31-.21-.43-.5-.43H68c-.27,0-.46.1-.49.4,0,.09,0,.21-.15.2s-.11-.16-.11-.24Q67.23,56.44,67.24,55.58Zm0-7.07c0-.52,0-1,0-1.56,0-.21.06-.26.26-.26s.49,0,.74,0c.08,0,.2-.07.22.09s0,.15-.15.19c-.69.23-.71.27-.72,1s0,.84.83.84h.32c.25,0,.64.12.73-.06a1.92,1.92,0,0,0,0-1c0-.19-.22-.24-.38-.26s-.21,0-.19-.18.13-.11.22-.11h1.17c.08,0,.19,0,.21.12s-.09.16-.2.17c-.29,0-.39.19-.41.47-.06.89-.06.89.83.89l.78,0a.43.43,0,0,0,.48-.45c0-.1,0-.23.15-.22s.12.15.12.24v1.78c0,.08,0,.2-.12.21s-.14-.08-.15-.18c0-.28-.2-.39-.46-.39H68a.4.4,0,0,0-.46.38c0,.09,0,.2-.16.19s-.1-.14-.1-.22C67.23,49.57,67.23,49,67.23,48.51Zm0,3.77c0-.29,0-.59,0-.88,0-.07,0-.15.07-.17s.17,0,.17.12c0,.43.34.46.67.46h3.12c.35,0,.72,0,.74-.49,0-.07.06-.09.12-.1s.13,0,.13.13c0,.63,0,1.25,0,1.88,0,.08,0,.14-.13.14s-.13,0-.13-.13c0-.44-.33-.48-.64-.48H68.1c-.31,0-.59.06-.62.47a.13.13,0,0,1-.16.14c-.13,0-.08-.13-.08-.2C67.23,52.87,67.24,52.58,67.24,52.28Zm5,10.36c0,.08,0,.18-.1.19s-.16,0-.17-.13c0-.36-.3-.48-.58-.59L67.68,60.7l-.26-.1a.29.29,0,0,1-.19-.31c0-.15.13-.14.22-.17l3.84-1.35c.31-.11.67-.19.72-.63,0-.09.09-.09.16-.09s.1.1.1.17v1.63c0,.09,0,.2-.13.2S72,60,72,59.89c0-.31-.2-.31-.42-.24l-.06,0c-1,.34-1.07.45-.94,1.5a.23.23,0,0,0,.2.21l.81.24c.25.08.39,0,.41-.25,0-.1,0-.2.15-.19s.12.12.12.21Zm-3.82.64c.11,0,.14,0,.17.12s0,.14-.12.16a1.23,1.23,0,0,0-1,1.43,1.57,1.57,0,0,0,1.21,1.38A3.29,3.29,0,0,0,71,66.25a1.49,1.49,0,0,0,1-1.35,1.43,1.43,0,0,0-.87-1.36c-.12-.07-.43-.06-.33-.31s.33,0,.48,0c1,.25,1,.25,1,1.24,0,.15,0,.29,0,.43a2.45,2.45,0,0,1-2.44,2.69,2.66,2.66,0,0,1-2.75-2.65,4.17,4.17,0,0,1,0-.5C67.24,63.44,67.45,63.25,68.45,63.28Zm3.69,9.41c-.11,0-.14-.07-.14-.16,0-.3-.19-.31-.42-.24-1,.31-1.07.42-1,1.5a.24.24,0,0,0,.19.25c.28.08.55.15.82.24s.4,0,.41-.26c0-.1,0-.2.16-.18s.11.13.11.21v1.21c0,.08,0,.2-.11.22s-.15-.07-.16-.17c0-.31-.27-.43-.52-.53l-3.8-1.44-.26-.1c-.15,0-.18-.18-.19-.31s.13-.14.22-.17c1.28-.45,2.56-.88,3.84-1.34.31-.11.67-.2.72-.63,0-.09.09-.1.16-.09s.1.08.1.16v1.63C72.27,72.58,72.29,72.69,72.14,72.69Zm1.08,4.92c0,.1.11.19,0,.27s-.18,0-.24-.14a1.26,1.26,0,0,0-1-.55,16.11,16.11,0,0,0-2-.07H68.13c-.32,0-.62.06-.65.48,0,.09,0,.16-.14.16s-.1-.11-.1-.19q0-.88,0-1.77c0-.08,0-.18.1-.18a.11.11,0,0,1,.14.11c0,.43.36.45.68.45h3.16A1.9,1.9,0,0,1,73.22,77.61ZM70.33,39.33c.4,0,.81,0,1.21,0s.43-.11.46-.39c0-.09,0-.19.14-.19s.13.12.13.21v1.7c0,.09,0,.2-.11.22s-.16-.08-.16-.18c0-.38-.28-.44-.57-.44-.56,0-1.11,0-1.67,0h0c-.54,0-1.09,0-1.63,0-.31,0-.61,0-.64.44a.13.13,0,0,1-.18.13c-.09,0-.08-.1-.07-.17a19.28,19.28,0,0,1,.05-2.52,1.11,1.11,0,0,1,1-1.06,1.25,1.25,0,0,1,1.38.64c.14.25.24.27.48.13a16.15,16.15,0,0,0,1.54-.93,1.06,1.06,0,0,0,.41-.43c0-.09.11-.09.18-.08s.07.1.07.17a1.65,1.65,0,0,1-1,1.69c-.33.14-.64.31-1,.46a.46.46,0,0,0-.29.29C70.06,39.19,70,39.35,70.33,39.33ZM67.24,28.17c0-.08,0-.2.11-.21s.14.09.14.17a.45.45,0,0,0,.51.43h3.51c.27,0,.48-.11.49-.44,0-.09,0-.16.15-.15s.12.08.12.17v1.74c0,.09,0,.23-.13.23S72,30,72,29.91c0-.35-.3-.39-.57-.4H68.06c-.28,0-.54.08-.57.44,0,.1,0,.19-.18.16s-.07-.13-.07-.2Q67.23,29,67.24,28.17Zm.26-3.5,3.74-1.3c.33-.12.73-.2.77-.67,0-.09.1-.1.17-.09s.09.1.09.17v1.63c0,.08,0,.18-.1.19s-.16,0-.17-.16c0-.29-.19-.29-.43-.21-1,.33-1,.32-1,1.36a.36.36,0,0,0,.31.42c.23,0,.45.13.68.2s.43,0,.43-.28c0-.11,0-.19.17-.17s.1.11.1.19v1.28c0,.08,0,.17-.12.18s-.14,0-.14-.12c0-.4-.34-.51-.64-.63L67.6,25.24l-.1,0a.31.31,0,0,1-.27-.32C67.21,24.67,67.4,24.71,67.5,24.67ZM68,34.11c.85-.6,1.62-1.3,2.43-2l.33-.29H69c-.25,0-.5,0-.75,0-.55,0-.56,0-.72.57,0,.08,0,.17-.15.16s-.1-.11-.1-.18c0-.49,0-1,0-1.46,0-.06,0-.14.08-.16s.15.05.16.14c0,.36.3.43.61.46.71.07,1.42,0,2.12,0h1.71c.13,0,.33-.12.38.11a.44.44,0,0,1-.21.51c-1,.79-2.08,1.6-3.12,2.4l-.45.35h2.21l.63,0c.37,0,.63-.13.64-.54,0-.1,0-.2.16-.19s.11.13.11.22V35.7c0,.08,0,.18-.1.2s-.16-.06-.17-.17c0-.29-.21-.39-.48-.42-1.14-.11-2.27,0-3.41-.05a.58.58,0,0,0-.61.54c0,.1,0,.23-.18.2s-.07-.15-.09-.23,0,0,0,0A1.5,1.5,0,0,1,68,34.11Zm-.74,8.82a2.44,2.44,0,0,1,2.5-1.7,2.51,2.51,0,0,1,2.49,3.34,2.43,2.43,0,0,1-2.41,1.58A2.52,2.52,0,0,1,67.23,42.93ZM65.9,86.06c.28-.77.53-1.56.86-2.32a1,1,0,0,1,1.18-.64,1.09,1.09,0,0,1,.92,1.07c0,.07,0,.15,0,.28l.22-.28a1.18,1.18,0,0,1,1.4-.46,1.3,1.3,0,0,1,1,1.27,2.21,2.21,0,0,1-.11.81c-.21.65-.44,1.29-.67,1.93,0,.1,0,.24-.2.19s-.09-.14-.06-.23a.41.41,0,0,0-.28-.51c-1.13-.44-2.28-.86-3.43-1.24a.4.4,0,0,0-.56.23c0,.08-.08.15-.18.08S65.88,86.13,65.9,86.06ZM32.34,27.14H65.17c.34,0,.37.11.37.4V53.83q0,12.7,0,25.41a16.78,16.78,0,0,1-33.2,3.38A17.41,17.41,0,0,1,32,79.17q0-25.83,0-51.67C32,27.2,32.05,27.14,32.34,27.14Zm4.19,64.58a.51.51,0,0,1-.19.31c-.14.08-.21,0-.29-.13L35.23,91s-.11-.1-.06-.18.12,0,.18,0l1.09.73A.21.21,0,0,1,36.53,91.72ZM30.28,28.58a1.45,1.45,0,0,1-.71,1.56c-.94.68-1.8,1.45-2.69,2.18.05.14.14.08.21.08.78,0,1.56,0,2.34,0,.36,0,.56-.15.6-.51,0-.09,0-.24.16-.21s.09.14.09.22V33.2c0,.08,0,.2-.1.22s-.14-.07-.15-.15c-.06-.34-.28-.41-.59-.44-1.26-.11-2.53,0-3.8-.06-.13,0-.33.11-.39-.11a.43.43,0,0,1,.2-.48l3.25-2.53.25-.21H26.13c-.37,0-.62.15-.62.56,0,.08,0,.17-.13.17s-.13-.1-.13-.2V28.56c0-.07,0-.17.09-.19s.16.06.17.16c0,.34.27.43.54.44,1.14.07,2.28.07,3.41,0a.55.55,0,0,0,.54-.48c0-.1,0-.27.19-.24S30.26,28.47,30.28,28.58Zm0,19.58a8.43,8.43,0,0,1-.05,1.3c-.12.64-.41,1-.93,1.07a1.25,1.25,0,0,1-1.42-.62c-.15-.29-.26-.27-.5-.13a15.6,15.6,0,0,0-1.51.92,1.15,1.15,0,0,0-.38.41c0,.06-.07.12-.16.11s-.1-.09-.1-.16A1.57,1.57,0,0,1,26,49.49c.36-.2.73-.38,1.1-.57a.72.72,0,0,0,.29-.2.41.41,0,0,0,.06-.37c0-.15-.17-.08-.27-.08-.37,0-.75,0-1.13,0s-.5.09-.52.42c0,.11,0,.19-.16.18s-.1-.12-.1-.2V47c0-.09,0-.21.11-.22s.15.08.16.18c0,.29.21.4.48.4h3.48c.29,0,.51-.08.55-.42,0-.08,0-.17.14-.16s.11.13.11.21Zm-5-4c0-.51,0-1,0-1.53,0-.1-.07-.26.12-.27s.14.13.15.23a.41.41,0,0,0,.42.4c.28,0,.56,0,.85,0q1.25,0,2.49,0c.34,0,.71,0,.76-.48a.12.12,0,0,1,.15-.11c.13,0,.09.12.09.2v3c0,.16-.06.2-.2.2s-.55,0-.82.06c-.07,0-.17,0-.19-.09s0-.15.13-.2a1.09,1.09,0,0,0,.74-1.46.17.17,0,0,0-.2-.15H28.25c-.09,0-.17,0-.17.12a7.3,7.3,0,0,0,0,.81c0,.24.23.27.42.31s.23,0,.2.18-.14.1-.23.1h-1.2c-.09,0-.2,0-.23-.11s.08-.15.17-.16c.42,0,.47-.32.48-.65,0-.61,0-.61-.59-.6h-1c-.43,0-.53.11-.52.53,0,.13,0,.26,0,.39a.88.88,0,0,0,.72,1c.06,0,.11,0,.17.06s.09.12.08.2-.08.09-.16.07h-.06c-.36-.07-.82,0-1.05-.26s0-.68-.06-1S25.25,44.37,25.25,44.12Zm4.92-2.19c-.14,0-.14-.11-.16-.19-.06-.37-.37-.47-.65-.58-1.28-.51-2.57-1-3.86-1.49-.17-.07-.28-.13-.26-.35s.17-.18.28-.22l3.64-1.36c.37-.14.8-.21.88-.71,0-.07.07-.09.14-.08s.1.07.1.14v1.78c0,.06,0,.15-.09.16A.12.12,0,0,1,30,38.9c0-.41-.24-.38-.53-.27l-2.85,1v.09l2.92,1c.23.07.42,0,.44-.29,0-.1,0-.23.17-.21s.09.15.09.24c0,.41,0,.82,0,1.24C30.28,41.77,30.35,41.92,30.17,41.93Zm-4.92-6.7v-.89c0-.08,0-.17.12-.17s.14.06.14.15c0,.35.26.43.54.43h3.44c.28,0,.5-.08.53-.4,0-.1,0-.2.17-.18s.09.12.09.19V36.1c0,.08,0,.2-.11.21s-.14-.11-.15-.2a.41.41,0,0,0-.46-.39c-1.19,0-2.39,0-3.58,0-.27,0-.46.12-.47.42,0,.11,0,.19-.16.17s-.1-.12-.1-.19Zm.37-11.52a2,2,0,0,1,1.56-.53c.76,0,1.52,0,2.27,0,.31,0,.55,0,.58-.41,0-.09,0-.16.16-.15s.09.12.09.19v1.81c0,.07,0,.18-.09.19s-.16-.08-.17-.17c0-.36-.27-.47-.59-.48-.8,0-1.61,0-2.41,0s-1.38.56-1.36,1.32.47,1,1.25,1.16a4.23,4.23,0,0,0,.5.05c.34,0,.68,0,1,0h0c.34,0,.68-.05,1-.06a.5.5,0,0,0,.55-.47c0-.1,0-.28.17-.25s.09.16.09.26c0,.45,0,.9,0,1.34,0,.08,0,.18-.08.21s-.16-.08-.17-.18c-.06-.31-.27-.39-.56-.42-.66-.07-1.33-.05-2-.06A3.7,3.7,0,0,1,26.6,27,2.05,2.05,0,0,1,25.62,23.71Zm-.44,29.11s0,0,0-.07c.15-.87.44-1.11,1.32-1.09.1,0,.16,0,.19.12s-.06.15-.14.19a2.12,2.12,0,0,0-.79.53.87.87,0,0,0,0,1.27.93.93,0,0,0,1.31-.23c.19-.28.32-.6.49-.9a1.45,1.45,0,0,1,1.6-.79,1.49,1.49,0,0,1,1.18,1.59v.11c0,.81-.36,1.1-1.17,1a.13.13,0,0,1-.13-.13.15.15,0,0,1,.09-.16,3,3,0,0,0,.51-.25.8.8,0,0,0,.37-.82.69.69,0,0,0-.56-.58.79.79,0,0,0-.84.31,5.65,5.65,0,0,0-.5.94,1.5,1.5,0,0,1-1.62.88A1.66,1.66,0,0,1,25.18,52.82Zm.19,13.46c.1,0,.14.06.15.16,0,.31.21.31.45.23,1-.31,1-.31,1-1.34a.38.38,0,0,0-.35-.46c-.23,0-.45-.13-.68-.19s-.38,0-.39.25c0,.1,0,.21-.14.2s-.13-.13-.13-.23V63.66c0-.09,0-.17.12-.17a.12.12,0,0,1,.14.12c0,.41.38.51.69.63L30,65.66a.56.56,0,0,0,.16.07c.18,0,.17.19.2.3s-.14.14-.22.17c-1.23.43-2.47.85-3.7,1.3-.38.13-.84.19-.92.71,0,.07-.08.08-.14.07s-.1-.08-.1-.15V66.49C25.25,66.4,25.22,66.29,25.37,66.28Zm0-7.77c.16,0,.17.09.18.2a.43.43,0,0,0,.47.42h3.56a.43.43,0,0,0,.48-.41c0-.09,0-.16.15-.16s.1.11.1.19V60a7.79,7.79,0,0,1-.09,1.74,2.17,2.17,0,0,1-1.85,1.77,2.6,2.6,0,0,1-2.61-1.15,3.75,3.75,0,0,1-.48-1.8c0-.59,0-1.18,0-1.77C25.25,58.65,25.2,58.53,25.34,58.51Zm4.94-2v.89c0,.07,0,.18-.1.18s-.13,0-.14-.12c0-.46-.38-.48-.72-.49h-3c-.36,0-.77,0-.8.52,0,.06-.06.09-.13.09s-.12,0-.12-.13V55.61c0-.09,0-.14.12-.14a.13.13,0,0,1,.14.13c0,.41.31.47.62.47h3.26c.32,0,.61,0,.64-.45,0-.09,0-.16.16-.15s.09.12.09.2ZM25.34,68.88c.16,0,.17.09.18.2a.42.42,0,0,0,.47.42c1.2,0,2.39,0,3.59,0a.42.42,0,0,0,.45-.41c0-.08,0-.16.15-.15s.1.11.1.18v1.21a7.44,7.44,0,0,1-.09,1.7,2.13,2.13,0,0,1-1.82,1.79,2.59,2.59,0,0,1-2.58-1,3.61,3.61,0,0,1-.54-1.89c0-.59,0-1.18,0-1.77C25.25,69,25.2,68.9,25.34,68.88Zm.11,12.56c-.11,0-.08-.1-.08-.16,0-.37-.07-.73-.1-1.1h0c0-.21,0-.42,0-.64s0-.14.1-.15.16,0,.18.11c0,.37.26.34.53.24.88-.32.87-.32.89-1.26,0-.32-.08-.47-.4-.52a5.2,5.2,0,0,1-.61-.18c-.22-.06-.4,0-.42.26,0,.11,0,.22-.17.2s-.1-.14-.1-.22c0-.41,0-.83,0-1.24,0-.09,0-.18.11-.18s.14,0,.15.11c0,.4.36.5.66.62l3.77,1.42a.8.8,0,0,0,.2.07c.16.05.16.2.19.32s-.14.14-.22.16c-1.22.44-2.45.86-3.67,1.28-.38.13-.76.25-.81.74A.15.15,0,0,1,25.45,81.44Zm.27,2.43a1.58,1.58,0,0,1,1-1.56,24.57,24.57,0,0,1,2.38-.79l.57-.18c.24-.09.42-.22.4-.51,0-.12,0-.18.15-.19s.1.09.11.17c.08.58.15,1.17.24,1.75,0,.11,0,.19-.09.22s-.13-.06-.16-.14c-.11-.33-.34-.39-.65-.29l-2.26.71a2.34,2.34,0,0,0-.74.41,1.13,1.13,0,0,0,.46,2,2.44,2.44,0,0,0,1.39-.13c.59-.2,1.17-.42,1.77-.62a.47.47,0,0,0,.36-.62c0-.09-.1-.22.07-.26s.15.1.18.2c.13.43.26.85.4,1.28,0,.09.09.19,0,.26s-.16-.07-.21-.15c-.18-.3-.43-.29-.71-.21-.73.23-1.44.48-2.17.67C26.47,86.31,25.78,85.28,25.72,83.87Zm2.84,6.79c0,.08.16.22,0,.29s-.19-.1-.24-.19c-.3-.56-.58-1.13-.87-1.7,0-.07-.14-.15,0-.23s.16,0,.2.11a.49.49,0,0,0,.73.2c1.09-.5,2.18-1,3.28-1.5.16-.07.17-.15.1-.29-.4-.82-.48-.79-1.11-.7-.12,0-.22,0-.25-.12s.1-.13.17-.16l1-.4c.16-.07.28-.08.19.15a.47.47,0,0,0,.07.4,15.89,15.89,0,0,0,1.12,2.17,1.39,1.39,0,0,0,.69.73l-1.18.63c-.06,0-.13.11-.21,0s0-.15.06-.23c.53-.52.53-.73,0-1.31-.08-.11-.14-.08-.24,0L28.82,90A.45.45,0,0,0,28.56,90.66Zm2.05,2.75a2.8,2.8,0,0,1,2.78-2.63,2.51,2.51,0,0,1,2.43,2.42,2.89,2.89,0,0,1-2.77,2.66A2.51,2.51,0,0,1,30.61,93.41ZM38,99.73c-.06.09-.07.29-.25.23s-.33-.12-.34-.38c-.05-.74-.14-1.48-.22-2.22s-.15-1.46-.23-2.19a.08.08,0,0,0-.11,0c-.46.77-1,1.51-1.38,2.31a.6.6,0,0,0,.11.85c.08,0,.16.1.07.22s-.17,0-.23,0c-.39-.27-.77-.55-1.15-.83-.07-.06-.17-.11-.11-.23s.16-.06.24,0c.29.17.48,0,.66-.19.63-.88,1.18-1.8,1.74-2.72a.83.83,0,0,0,0-.93c-.05-.09-.16-.17,0-.27s.17,0,.26.09c.86.4.83,1.21.93,2,.12,1,.25,2,.38,3a16.14,16.14,0,0,0,1.44-2.28c.14-.28,0-.45-.2-.61s-.25-.11-.13-.26.19,0,.28,0l1.19.62c.08,0,.21,0,.16.19s-.14.06-.22,0a.66.66,0,0,0-.72.33C39.38,97.53,38.75,98.65,38,99.73Zm4.62,2.19a2.39,2.39,0,0,1-2.5-2.39,2.71,2.71,0,0,1,2.55-2.79,2.35,2.35,0,0,1,2.46,2.38A2.65,2.65,0,0,1,42.66,101.92Zm9.12.57-1.67.14c-.07,0-.2.07-.22-.09s.1-.14.19-.15c.36-.06.35-.34.34-.6,0-1-.07-2.06-.11-3.09-.13,0-.11.09-.14.16l-1.29,3.55c0,.11,0,.28-.23.27s-.17-.15-.21-.25l-1.38-3.14c-.05-.1-.1-.21-.14-.31a23.43,23.43,0,0,0,0,2.9.51.51,0,0,0,.49.53c.09,0,.21,0,.2.13s-.14.1-.22.09c-.43,0-.85,0-1.27-.09-.09,0-.24,0-.25-.14s.14-.12.23-.13a.32.32,0,0,0,.33-.34c.09-1.12.1-2.25.1-3.37,0-.39-.09-.73-.53-.86a.15.15,0,0,1-.12-.19c0-.12.14-.06.21-.05l1.09.12c.18,0,.21.13.26.24l1.35,3c.05.11.11.21.18.36.42-1.11.83-2.17,1.21-3.24a.42.42,0,0,1,.44-.34c.31,0,.61-.08.92-.11.08,0,.2-.07.22.08s-.07.13-.15.15a.51.51,0,0,0-.41.57c0,1.19.12,2.37.2,3.55,0,.26.1.43.4.41.09,0,.2,0,.2.13S51.87,102.48,51.78,102.49ZM57.56,101l-1.63.58c-.07,0-.15,0-.19,0s0-.15.1-.19c.32-.12.25-.3.09-.51s-.34-.61-.6-.73-.59.16-.9.19c-.53.07-.33.47-.37.66v.48c0,.26.09.42.39.33.08,0,.16-.06.2.06s-.07.16-.16.18l-1.25.27c-.08,0-.16,0-.2-.07s0-.16.11-.19c.4-.1.4-.43.42-.73.09-1.11.16-2.22.23-3.33,0-.26.06-.52.06-.78s.13-.24.25-.3.17.1.22.17c.76,1,1.5,2.09,2.26,3.13.23.32.42.73.95.57.07,0,.1,0,.11.1A.13.13,0,0,1,57.56,101Zm6.38-4.35A3.54,3.54,0,0,1,62.77,98L61.4,99c-.07.06-.15.19-.27.08s0-.19.08-.25a.41.41,0,0,0,0-.6l-2.18-3a.4.4,0,0,0-.59-.11c-.08,0-.15.07-.21,0s0-.14.09-.18c.66-.39,1.26-.87,1.89-1.31a2.71,2.71,0,0,1,1.56-.5A2.49,2.49,0,0,1,63.94,96.63Zm3.88-3.7a20.21,20.21,0,0,1-1.5,1.85c-.06.07-.1.24-.26.14s0-.2,0-.28A.42.42,0,0,0,66,94c-.93-.76-1.88-1.51-2.85-2.22a.41.41,0,0,0-.6.05c-.06.06-.12.11-.21,0s0-.14,0-.2a17,17,0,0,0,1.85-2.38c.09-.12.15-.1.25,0l.71.48c.07,0,.17.1.08.22s-.13.07-.21,0-.2-.07-.3-.12a.44.44,0,0,0-.58.17c-.64.83-.64.82.18,1.46l0,0c.19.14.45.43.56.39a1.73,1.73,0,0,0,.57-.7c.12-.19,0-.33-.12-.47s-.21-.16-.07-.29.2,0,.28.09c.32.23.62.47.92.72.07,0,.23.08.11.23s-.16.07-.24,0c-.32-.24-.53-.07-.74.19-.4.51-.41.5.1.9l.82.62a.38.38,0,0,0,.59-.09,2.27,2.27,0,0,0,.6-1,1.74,1.74,0,0,0-.25-.63c0-.09-.19-.18,0-.3s.21,0,.28.11C68.44,92.08,68.44,92.08,67.82,92.93Z"/><path class="cls-1" d="M33.63,78.91a16.45,16.45,0,0,0,.29,3.21,15.13,15.13,0,0,0,30-2.84q0-25.06,0-50.14s0,0,0,0c0-.23-.06-.31-.29-.31H60.4c-.22,0-.28.06-.28.28a12.71,12.71,0,0,1-.27,2.21A11.36,11.36,0,0,1,37.4,29.1c0-.24-.07-.3-.3-.3-1,0-2,0-3.06,0-.35,0-.42.1-.42.43q0,12.61,0,25.23Zm2-43.71c0-.06,0-.16.09-.16s.19.13.25.23c.22.38.29.82.48,1.21l0,.06c.1.14.13.44.29.37s-.11-.26-.12-.41l.06,0c.26.41.53.82.78,1.24a.8.8,0,0,1,0,.69,1,1,0,0,0,0,.69,4.31,4.31,0,0,0,1.15,1.76A13.49,13.49,0,0,1,42,45.08a2.35,2.35,0,0,0,.48.57A18.39,18.39,0,0,1,44.54,48a2.18,2.18,0,0,0,1.37.93A2.67,2.67,0,0,1,47.6,50c0,.06.08.14.16.09s0-.12,0-.16a1.76,1.76,0,0,1-.26-1.4,1.75,1.75,0,0,0,1.27.57A1.71,1.71,0,0,0,50,48.5a1.63,1.63,0,0,1-.24,1.39s-.12.11,0,.17.11,0,.14-.07A3.28,3.28,0,0,1,52,48.75a1.26,1.26,0,0,0,.77-.55,16.54,16.54,0,0,1,2.13-2.37,4.66,4.66,0,0,0,.91-1.25A12.47,12.47,0,0,1,58.56,41a4.81,4.81,0,0,0,1.38-2,.83.83,0,0,0,0-.58.88.88,0,0,1,0-.76c.24-.41.51-.81.77-1.21l.06,0h0c0,.15-.28.34-.12.41s.21-.22.28-.37.24-.59.34-.89a1.83,1.83,0,0,1,.26-.5c.05-.07.1-.14.2-.1s.06.12.06.18.08.41-.24.44c-.11,0-.17.12-.2.23a3.38,3.38,0,0,0-.08.34,1.69,1.69,0,0,1-.75,1.33c-.26.16-.32.47-.25.9.22-.58.66-.85,1-1.25s.22-1,.5-1.39a5.21,5.21,0,0,1-.24,1.85,30.36,30.36,0,0,1-4,7.57,11.67,11.67,0,0,0-1.4,2.26,15.87,15.87,0,0,1-2.67,3.78.79.79,0,0,0-.21.43,10.53,10.53,0,0,1-.75,2.39,1.35,1.35,0,0,1-1.67,1,1.73,1.73,0,0,0-.55,0c0,.09,0,.13.07.14a3.88,3.88,0,0,0,1.51.16c.26,0,.26,0,.25.24a5.81,5.81,0,0,1-1,3.24c.34,0,.46-.28.69-.41a6.79,6.79,0,0,1-.41,3.32c0,.07-.12.15,0,.22s.14,0,.18-.11.22-.3.36-.5a10.1,10.1,0,0,1,.38,1.83,21.36,21.36,0,0,1-.25,5.7c-.16,1.16-.42,2.3-.65,3.44a11.35,11.35,0,0,0-.08,3.29,17.78,17.78,0,0,1-.55,6.16c-.2.81-.46,1.61-.59,2.44a8.52,8.52,0,0,0,.16,3.1,7.9,7.9,0,0,1,.19,1.44,1.92,1.92,0,0,1-1.23,1.55c-.27,0-.33-.08-.33-.31,0-1,0-1.92.07-2.88a29.12,29.12,0,0,0-.1-3.37,22.68,22.68,0,0,1,0-4.36,17.33,17.33,0,0,0,0-3.3,11.25,11.25,0,0,1,0-2.72A5.51,5.51,0,0,0,49,71.87c-.14-1.73,0-3.47,0-5.21,0-.19,0-.38,0-.57,0-.41,0-.8.48-1,.26-.09.38-.4.53-.65a3.43,3.43,0,0,1,.63-.89c0-.05.12-.1,0-.17s-.13,0-.18,0a2.73,2.73,0,0,0-.7.74,3.65,3.65,0,0,1-.41.54.89.89,0,0,1-1.32,0,9.24,9.24,0,0,1-.61-.79,2,2,0,0,0-.53-.51c-.05,0-.1-.08-.16,0s0,.11,0,.15a5.1,5.1,0,0,1,.8,1.16,1.29,1.29,0,0,0,.66.58c.18.06.19.17.19.32.05,1.87.09,3.74.13,5.61a3.64,3.64,0,0,1-.06.74,5.53,5.53,0,0,0,0,1.77,12.46,12.46,0,0,1-.07,2.66,19.21,19.21,0,0,0,.06,3.79,13.86,13.86,0,0,1,0,3,40.82,40.82,0,0,0-.07,5.64c0,.39,0,.78,0,1.17s-.18.34-.4.26a1.78,1.78,0,0,1-1.14-1.92c.1-.67.23-1.35.33-2a8.82,8.82,0,0,0-.38-3.78,18.85,18.85,0,0,1-.82-6.33,20.64,20.64,0,0,0,.09-2.94c-.08-1.06-.39-2.07-.56-3.11a28.08,28.08,0,0,1-.53-6.21,12,12,0,0,1,.45-2.61l.38.53s.08.13.17.08,0-.13,0-.18a6.57,6.57,0,0,1-.42-3.31l0,0c.18.12.31.33.53.4.08-.08,0-.13,0-.17a6.13,6.13,0,0,1-.84-3.18c0-.22.1-.15.22-.13A3.13,3.13,0,0,0,47.24,55a1,1,0,0,0-.52,0,1.39,1.39,0,0,1-1.76-1,9.89,9.89,0,0,1-.74-2.43.75.75,0,0,0-.2-.36,15.89,15.89,0,0,1-2.87-4.2,6.9,6.9,0,0,0-.92-1.48A25.46,25.46,0,0,1,36.9,39.9c-.25-.56-.47-1.13-.72-1.69a7.72,7.72,0,0,1-.49-2.43.7.7,0,0,1,.27.57,2,2,0,0,0,.72,1.34,1.45,1.45,0,0,1,.49.77c.11-.4,0-.71-.2-.87a1.86,1.86,0,0,1-.8-1.45c0-.24-.08-.45-.39-.52S35.71,35.34,35.68,35.2ZM47,45.93a5.64,5.64,0,0,1-.08-1.69A1.63,1.63,0,0,1,47.84,43a1.94,1.94,0,0,1,2.72,1,2.44,2.44,0,0,1,.1.74A11.53,11.53,0,0,1,50.31,47a3.28,3.28,0,0,1-1,1.5,1.09,1.09,0,0,1-1.24-.09A3.86,3.86,0,0,1,47,45.93Zm16-6.21a.26.26,0,0,1,.14.26v7.55l-.07,0c-1-1.42-1.91-2.84-2.89-4.24a.8.8,0,0,1-.08-.94c.57-1.14,1.06-2.32,1.68-3.46ZM35.9,39.11c.61,1.17,1.13,2.39,1.7,3.58a.27.27,0,0,1,0,.32l-3.07,4.52-.1,0c0-2.52,0-5,0-7.49a.39.39,0,0,1,.19-.38c.34-.21.68-.44,1-.67C35.76,38.92,35.82,39,35.9,39.11Zm4.63,51.76a4.53,4.53,0,0,1,5,0c.37.25.65.62,1,.9a3.35,3.35,0,0,0,4.55,0c.33-.28.62-.62,1-.87a4.2,4.2,0,0,1,4.18-.35l.26.11.54.26A14.19,14.19,0,0,1,40.53,90.87ZM63.08,79.06a14.08,14.08,0,0,1-5.59,11.47,1,1,0,0,1-.2.15l-.14.07v-.39c0-3,0-6.06,0-9.1,0-.41-.1-.67-.5-.77-.09,0-.16-.11-.29-.08v9.3a6.43,6.43,0,0,0-1.81-.38,4.8,4.8,0,0,0-3.43,1.21,9.91,9.91,0,0,1-1.07.87,2.22,2.22,0,0,1-2.62,0,7,7,0,0,1-.86-.69,4.92,4.92,0,0,0-5.16-1.09l-.21.06s0,0-.05,0V80.39a2.94,2.94,0,0,0-.7.29c-.17.08-.09.26-.09.39q0,4.65,0,9.31v.4a12.92,12.92,0,0,1-2-1.7,14.18,14.18,0,0,1-3.92-8.58c-.05-.5-.06-1-.06-1.53q0-14.61,0-29.24a.93.93,0,0,1,.21-.62l3.55-4.57.24-.29a12.75,12.75,0,0,0,1.71,2.32.8.8,0,0,1,.1.23,12.34,12.34,0,0,0,1,2.14.68.68,0,0,1,.07.62L38.14,60.18c0,.18-.13.36.07.51s.56.15.68-.2q1.32-3.74,2.62-7.45c.28-.8.56-1.6.86-2.44a12,12,0,0,0,1.05,1.08.39.39,0,0,1,.09.23,10.18,10.18,0,0,0,1,2.94.66.66,0,0,1,.09.33A7.71,7.71,0,0,0,44.82,57a4.21,4.21,0,0,1,.08,1.54,9.46,9.46,0,0,0,0,2,2.74,2.74,0,0,1-.18.93,17.29,17.29,0,0,0,0,7.74,37.22,37.22,0,0,1,.78,3.92,11.44,11.44,0,0,1-.18,2.8,11.62,11.62,0,0,0,.32,4.43c.31,1.29.72,2.57,1,3.87a6.16,6.16,0,0,1-.2,2.6,16.53,16.53,0,0,0-.34,1.73,1.8,1.8,0,0,0,.5,1.43,3,3,0,0,0,2.52,1,2.57,2.57,0,0,0,2.22-2.85c-.12-.61-.23-1.21-.39-1.8a6.14,6.14,0,0,1,.17-3.32c.36-1.3.73-2.59,1-3.92a9.65,9.65,0,0,0,0-3.39,11.65,11.65,0,0,1,.25-4.88,23.71,23.71,0,0,0,.84-5.68,17.14,17.14,0,0,0-.53-4.1,2.63,2.63,0,0,1-.06-.84A11.4,11.4,0,0,0,52.57,58a2.68,2.68,0,0,1,.13-.94,13.52,13.52,0,0,0,.24-1.9.76.76,0,0,1,.08-.33,9.71,9.71,0,0,0,1-2.91.44.44,0,0,1,.15-.3,9.33,9.33,0,0,0,1-1.06c.34,1,.67,1.91,1,2.85.82,2.35,1.65,4.69,2.47,7,.11.31.28.38.56.28s.28-.32.2-.58l-1.77-5.94c-.48-1.58-1-3.16-1.43-4.74a.62.62,0,0,1,.07-.53,13.51,13.51,0,0,0,1-2.17.65.65,0,0,1,.12-.25,13.72,13.72,0,0,0,1.7-2.32l1.19,1.53,2.61,3.36a.81.81,0,0,1,.19.52C63.09,59.44,63.11,69.25,63.08,79.06ZM60.55,31.73a11.3,11.3,0,0,0,.31-1.92c0-.15.07-.21.22-.21h1.81c.18,0,.21.1.2.25v2.83c0,.15,0,.26-.2.17-.73-.29-1.47-.58-2.21-.85C60.53,31.94,60.52,31.86,60.55,31.73Zm-1,2.73c.15-.35.33-.7.48-1.06a.23.23,0,0,1,.32-.15c.85.24,1.7.45,2.56.68.13,0,.23.06.23.24,0,1.44,0,2.88,0,4.42-.32-.26-.58-.47-.84-.66s-.11-.2-.08-.34a11.64,11.64,0,0,0,.3-2.21,1.38,1.38,0,0,0,0-.45.69.69,0,0,0-.57-.52.68.68,0,0,0-.73.34,1.47,1.47,0,0,0-.23.47c-.09.46-.59.55-.78.91,0,0-.08,0-.12,0l-.08-.07c-.29-.23-.71-.4-.83-.7S59.37,34.78,59.51,34.46Zm-2.74,3.47A8.94,8.94,0,0,0,58,36.69c.12-.14.2-.16.34,0a1.9,1.9,0,0,0,.33.22c.46.24.86.51.61,1.14a.47.47,0,0,0,0,.31c.28.64,0,1.11-.41,1.58a7.27,7.27,0,0,1-.61.65c-.53-.78-1-1.52-1.53-2.24C56.64,38.16,56.61,38.06,56.77,37.93Zm-2.91,1.91c.38-.19.75-.39,1.12-.6.14-.08.22-.08.32.06.55.72,1.1,1.44,1.67,2.15.12.16.08.24,0,.36a11.48,11.48,0,0,0-1.79,2.78c-.07.15-.11.32-.32.39-.43-1.46-.87-2.91-1.31-4.36C53.36,40.08,53.37,40.08,53.86,39.84Zm-7.72.83a11.73,11.73,0,0,0,5.24,0c.22-.05.31,0,.38.22q.87,2.53,1.77,5a.32.32,0,0,1-.09.4,6.57,6.57,0,0,0-1.18,1.5.53.53,0,0,1-.42.28,6.62,6.62,0,0,0-1.21.34,1.31,1.31,0,0,1,.1-.72,7.68,7.68,0,0,0,.59-3.5,2.6,2.6,0,0,0-5.13.8,9.58,9.58,0,0,0,.67,2.89.69.69,0,0,1,0,.13v.39c-.46-.17-.91-.25-1.36-.37a.37.37,0,0,1-.27-.2,6.66,6.66,0,0,0-1.2-1.53.32.32,0,0,1-.08-.4l1.77-5C45.84,40.69,45.92,40.62,46.14,40.67Zm-3.57-1.41A9.1,9.1,0,0,0,44,40c.13.06.21.11.16.29-.48,1.57-.95,3.15-1.43,4.73-.21-.08-.26-.26-.33-.42a11.27,11.27,0,0,0-1.78-2.75c-.13-.15-.11-.24,0-.38.55-.7,1.09-1.4,1.63-2.11A.22.22,0,0,1,42.57,39.26ZM39.81,37c.3.31.62.62.94.91.12.12.17.19.06.35-.48.69-1,1.39-1.42,2.08,0,.06-.06.22-.2.1a2.86,2.86,0,0,1-1.1-1.71,2.81,2.81,0,0,0,.16-.62c0-.05,0-.1,0-.14-.27-.62.18-.84.59-1.1S39.36,36.54,39.81,37ZM34.65,29.6h1.78c.17,0,.22.08.23.23a12,12,0,0,0,.3,1.89c0,.12,0,.21-.11.28-.8.29-1.58.61-2.43.93,0-1.07,0-2.09,0-3.1C34.42,29.65,34.49,29.6,34.65,29.6Zm0,4.31,2.5-.65c.18,0,.27,0,.34.16a9.47,9.47,0,0,0,.88,1.74c.08.14.12.22,0,.34s-.5.39-.75.58c-.06.05-.14.16-.2.05-.22-.36-.73-.49-.81-1a.84.84,0,0,0-.13-.29.74.74,0,0,0-1.42.33c0,.45.05.9.1,1.34s.14.75.21,1.12c0,.08.06.15,0,.22l-.92.72V37.5c0-1.08,0-2.15,0-3.23C34.42,34.05,34.49,34,34.69,33.91Z"/><path class="cls-1" d="M47.06,33.87a4.21,4.21,0,1,0,4.21-4.22A4.21,4.21,0,0,0,47.06,33.87Zm2.77-.18a.53.53,0,0,0,.3-.72c0-.08-.12-.34.11-.26.52.18.79-.08,1-.54a2.12,2.12,0,0,1,.19.24.56.56,0,0,0,.76.31c.08,0,.24-.12.24.11,0,.59,0,.59.48,1.05-.59.19-.65.6-.42,1.19-.6-.26-1-.19-1.21.5-.31-.46-.57-.91-1.23-.45.19-.6.13-1-.44-1.21A.35.35,0,0,1,49.83,33.69Z"/><path class="cls-1" d="M39.88,31.14c.21-.11.41-.23.62-.33a4.22,4.22,0,0,1,3.76.22.37.37,0,0,1,.2.5c-.08.22-.25.22-.44.18l-.55-.13a3,3,0,0,0-3.06.82c-.07.06-.17.13-.09.24s.16,0,.24,0a2.54,2.54,0,0,1,2-.48,2.41,2.41,0,0,1,1.15.43.39.39,0,0,1,.17.49c-.08.21-.25.12-.39.09l-.35-.07a2.38,2.38,0,0,0-1.93.5c-.07.06-.18.12-.12.23s.16,0,.24,0a2.22,2.22,0,0,1,1.39-.18,2.18,2.18,0,0,1,1,.42.39.39,0,0,1,.15.47c-.07.19-.24.1-.38.1a4.57,4.57,0,0,0-.52,0,1.21,1.21,0,0,0-1,.51c.12.09.21,0,.3,0a2.4,2.4,0,0,1,1.77.3.33.33,0,0,1,.16.42c-.07.22-.23.17-.37.14A1.28,1.28,0,0,0,43,36c-.08,0-.18.08-.16.17s.13.07.21.07a1.39,1.39,0,0,1,1,.38,8.53,8.53,0,0,0,2.06,1.3,5.69,5.69,0,0,0,3,.52c.11,0,.31,0,.31-.16s-.19-.1-.3-.12a4.33,4.33,0,0,1-3.13-6.64,4.2,4.2,0,0,1,3.18-2c.1,0,.24,0,.25-.12s-.13-.14-.23-.15a7.56,7.56,0,0,0-.82-.07,10.05,10.05,0,0,0-2.54.46,4.43,4.43,0,0,1-2.23.12,4.1,4.1,0,0,0-3.82,1.11c-.08.07-.21.14-.13.26S39.79,31.18,39.88,31.14Z"/><path class="cls-1" d="M68.21,38.09a.89.89,0,0,0-.65.93c0,.2.07.31.29.3h.85c.29,0,.59,0,.88,0s.21-.06.22-.22A1.13,1.13,0,0,0,68.21,38.09Z"/><path class="cls-1" d="M29.65,48.26c-.29,0-.57,0-.85,0h-.89c-.13,0-.18,0-.19.17a1,1,0,0,0,.74,1.07A1.14,1.14,0,0,0,29.87,49a1,1,0,0,0,.09-.45C30,48.37,29.88,48.25,29.65,48.26Z"/><path class="cls-1" d="M59.93,94.34a.27.27,0,0,0,0,.44c.2.26.39.54.59.8.47.64.94,1.28,1.42,1.91.31.41.52.42.92.09a1.48,1.48,0,0,0,.58-1.23,2.88,2.88,0,0,0-1-1.95A1.7,1.7,0,0,0,59.93,94.34Z"/><path class="cls-1" d="M26.6,72.56a3.22,3.22,0,0,0,1.94.15A1.66,1.66,0,0,0,30,70.78c0-.24-.12-.34-.35-.33H27.79c-.48,0-1.11,0-1.73,0a.47.47,0,0,0-.47.55A1.58,1.58,0,0,0,26.6,72.56Z"/><path class="cls-1" d="M26.6,62.19a3.2,3.2,0,0,0,1.7.19A1.7,1.7,0,0,0,30,60.51c0-.3-.11-.45-.44-.44-.52,0-1,0-1.56,0H26.26l-.24,0a.44.44,0,0,0-.43.47A1.59,1.59,0,0,0,26.6,62.19Z"/><path class="cls-1" d="M68.88,85.74l1.44.48c.42.12.62,0,.68-.46a1.07,1.07,0,0,0-1.2-1.12,1.19,1.19,0,0,0-1.07.88C68.7,85.67,68.77,85.7,68.88,85.74Z"/><path class="cls-1" d="M67,85.05l1.06.38c.42.15.42.15.5-.29a1.36,1.36,0,0,0,0-.17.87.87,0,0,0-.8-.89.8.8,0,0,0-1,.49C66.65,84.81,66.69,85,67,85.05Z"/><path class="cls-1" d="M43.24,97.13a1.18,1.18,0,0,0-1.34.57,3.81,3.81,0,0,0-.68,2.19v.28a1.38,1.38,0,0,0,1,1.38,1.26,1.26,0,0,0,1.44-.83,4.51,4.51,0,0,0,.52-2.36A1.3,1.3,0,0,0,43.24,97.13Z"/><path class="cls-1" d="M34,91.4A3.45,3.45,0,0,0,31.28,94a1.11,1.11,0,0,0,1.41,1.18,3.55,3.55,0,0,0,2.44-2.46A1.09,1.09,0,0,0,34,91.4Z"/><path class="cls-1" d="M68.14,44.77a2.78,2.78,0,0,0,1.4.3,3.23,3.23,0,0,0,1.87-.43,1.13,1.13,0,0,0,0-2,3.62,3.62,0,0,0-3.28.13A1.12,1.12,0,0,0,68.14,44.77Z"/><path class="cls-1" d="M27.54,66.11,29,65.64l-.84-.28c-.87-.3-.86-.3-.79.62C27.34,66.16,27.39,66.17,27.54,66.11Z"/><path class="cls-1" d="M27.33,79.14c0,.1.06.12.14.1L29,78.73l-.85-.27c-.86-.29-.86-.29-.78.61Z"/><path class="cls-1" d="M70,60.22l-1.37.46.87.3c.79.25.78.25.76-.58C70.22,60.16,70.13,60.16,70,60.22Z"/><path class="cls-1" d="M69.3,73.56a3.2,3.2,0,0,0,.9.26v-1l-1.61.54Z"/><path class="cls-1" d="M70.22,24.91c0-.13,0-.2-.18-.14l-1.46.49,1.64.54C70.22,25.48,70.21,25.19,70.22,24.91Z"/><path class="cls-1" d="M68.5,80.82l1.58.62a5.45,5.45,0,0,0,0-1.07Z"/><path class="cls-1" d="M54.09,98.38c0,.22,0,.44,0,.66s-.16.72,0,.87.56-.13.86-.2l.08-.06-.91-1.29Z"/><path class="cls-1" d="M55.51,79.43a2.83,2.83,0,0,0-2.52.09c-.11.07-.23.12-.25.28a26.21,26.21,0,0,1-1.1,4.06,4.28,4.28,0,0,0-.2,2A12.78,12.78,0,0,1,52,89.13a.53.53,0,0,0,.17,0,4.68,4.68,0,0,1,3.31-.32c.23.06.21-.06.21-.22V79.78C55.65,79.66,55.72,79.51,55.51,79.43Z"/><path class="cls-1" d="M44.77,79.78c0-.15-.14-.2-.25-.26a2.75,2.75,0,0,0-2.36-.14.36.36,0,0,0-.3.42c0,2.9,0,5.8,0,8.7v.32a5.3,5.3,0,0,1,1.88-.2,6.4,6.4,0,0,1,1.82.53A5.91,5.91,0,0,1,45.81,87a5.39,5.39,0,0,0,0-3.3A20.71,20.71,0,0,1,44.77,79.78Z"/><path class="cls-1" d="M49.33,56.69a1.36,1.36,0,0,1,.22.39c.13.3.24.59.39.87a.67.67,0,0,0,.56.44A3.83,3.83,0,0,1,49.84,57a.79.79,0,0,0-.39-.48c-.08,0-.18-.13-.25,0S49.28,56.63,49.33,56.69Z"/><path class="cls-1" d="M47.64,57.09A2.79,2.79,0,0,1,47,58.38c.24.08.31-.05.4-.14a2.24,2.24,0,0,0,.48-.85c.11-.27.16-.57.43-.75,0,0,.09-.08,0-.15s-.09,0-.13,0A.83.83,0,0,0,47.64,57.09Z"/><path class="cls-1" d="M49.63,51.14a2.76,2.76,0,0,1,1.09-.49c.06,0,.17,0,.17-.2a2.49,2.49,0,0,0-1.47.46c-.09.07-.15.17-.06.28S49.55,51.2,49.63,51.14Z"/><path class="cls-1" d="M46.74,50.63a3.23,3.23,0,0,1,1.22.56c.13.1.21.05.23-.11a.19.19,0,0,0-.11-.18,2.34,2.34,0,0,0-1.35-.44s-.1,0-.1.06S46.69,50.62,46.74,50.63Z"/><path class="cls-1" d="M49.16,46c0-.27.12-.27.32-.2a.62.62,0,0,0,.48,0,.22.22,0,0,0,.14-.23c0-.11-.13-.1-.21-.1H49.3c.19-.23.39-.18.57-.21s.36.12.55,0A1.22,1.22,0,0,0,49,45.08s0,.05,0,.08a2.88,2.88,0,0,0,0,1C49.13,46.1,49.16,46.05,49.16,46Z"/><path class="cls-1" d="M48.35,45.28a.13.13,0,0,0,.16-.11c0-.09-.06-.12-.12-.14a2.15,2.15,0,0,0-.91-.07.44.44,0,0,0-.38.31A2.52,2.52,0,0,1,48.35,45.28Z"/><path class="cls-1" d="M48.29,45.59c0-.24-.29-.17-.49-.2s-.36-.09-.36.16.24.26.43.26S48.29,45.79,48.29,45.59Z"/><path class="cls-1" d="M49.24,46.75h-1A.72.72,0,0,0,49.24,46.75Z"/></g></svg>