<svg xmlns="http://www.w3.org/2000/svg" viewBox="0 0 214.8 124.8"><defs><style>.cls-1,.cls-2{fill:#606161;}.cls-1{fill-rule:evenodd;}</style></defs><title>LOGOS MAXIM GRIS</title><g id="Layer_5" data-name="Layer 5"><path class="cls-1" d="M31.32,26.05a2.85,2.85,0,0,1,.14.86A3.67,3.67,0,0,1,31,28.45a4.22,4.22,0,0,0-.42,1.37,3.28,3.28,0,0,0-.87-1.32,3.06,3.06,0,0,1-.55-.68l-.26-.44.06.51a2.44,2.44,0,0,1,0,.26,1.8,1.8,0,0,1-.3,1,2.45,2.45,0,0,0-.36,1.29v0a2.38,2.38,0,0,1-.84-1.32c-.23-.73-.44-1.42-2.13-1.73l-.2,0,.08.2a3.48,3.48,0,0,1,.34,1.56q0,.33,0,.63c0,.19,0,.38,0,.57a2.8,2.8,0,0,0,0,.4,2.52,2.52,0,0,0-2.29-.33l-.22.05.18.15c.74.58.83,1,.83,1.35v.19a1.15,1.15,0,0,0,0,.19,1,1,0,0,0,.05.34,2.86,2.86,0,0,1-.76-.79c-.53-.72-1.08-1.47-3.12-1.06l-.37.08.35.13c.45.18.51.56.61,1.09A3.61,3.61,0,0,0,22,34.43a3.21,3.21,0,0,1-.88-.29,6.69,6.69,0,0,0-1.09-.43c-.6-.42-1.38-.79-3,0l-.31.08a4.51,4.51,0,0,0-3,2.14H9.18V49.12h1.89v2.12a3.6,3.6,0,0,0-3.89,2.88,6.59,6.59,0,0,0,0,.75,3.85,3.85,0,0,0,2,3.65,3.5,3.5,0,0,0-2,2.57,1.55,1.55,0,0,0,0,.22A2.19,2.19,0,0,0,8,63a3.22,3.22,0,0,0-.48,1.74,3.41,3.41,0,0,0,.11.85,1.91,1.91,0,0,0,.9,1.25,12.13,12.13,0,0,0-.86,4.56c0,.33,0,.66,0,1A3.81,3.81,0,0,1,5.85,73H5.74v.12a28.88,28.88,0,0,0,1.66,8.14A4.67,4.67,0,0,0,7,83.06a3.82,3.82,0,0,0,.82,2.43,2.93,2.93,0,0,0,3,1c3.23,3.15,6.47,4.64,9.91,6.21A41.88,41.88,0,0,1,31.28,99l.07.06.08-.06A42.19,42.19,0,0,1,41.9,92.67c3.4-1.58,6.61-3.07,9.84-6.22a2.93,2.93,0,0,0,3-1,3.81,3.81,0,0,0,.82-2.42,4.68,4.68,0,0,0-.38-1.82,28.88,28.88,0,0,0,1.66-8.14V73h-.11a3.81,3.81,0,0,1-1.85-.56c0-.34,0-.67,0-1a12.14,12.14,0,0,0-.86-4.57A2,2,0,0,0,55,65.6a3.47,3.47,0,0,0,.1-.85A3.1,3.1,0,0,0,54.58,63a2.19,2.19,0,0,0,.88-1.73,1.48,1.48,0,0,0,0-.21,3.47,3.47,0,0,0-2-2.57,3.86,3.86,0,0,0,2-3.61,6.78,6.78,0,0,0-.05-.77,3.61,3.61,0,0,0-3.9-2.9V49.12h1.9V35.94H48.52a1.63,1.63,0,0,0-1.45-1,.79.79,0,0,1-.59-.21A1.72,1.72,0,0,0,45,34.36h-.05a6.48,6.48,0,0,0-3,1.38,1.24,1.24,0,0,1,0-.16c0-.4.36-.81.76-1.26a3.53,3.53,0,0,0,1.14-2.21,2.44,2.44,0,0,0-.39-1.27l-.08-.12-.1.11a4.29,4.29,0,0,1-1.5,1.05,5.38,5.38,0,0,0-2,1.5,2.21,2.21,0,0,1,.27-.85,2.65,2.65,0,0,0,.33-1.11,1.79,1.79,0,0,0-.66-1.3l-.26-.25.07.35a1.81,1.81,0,0,1,0,.29c0,.38-.23.51-.56.7a2.67,2.67,0,0,0-.71.53,4,4,0,0,1,.37-1.19,3.16,3.16,0,0,0,.34-1.29,3.84,3.84,0,0,0-.75-2.05l-.19-.31,0,.36a1.83,1.83,0,0,1-.85,1.56,4.29,4.29,0,0,0-1.5,2.26,1.32,1.32,0,0,1-.09-.48,4,4,0,0,1,0-.59,4.07,4.07,0,0,0,.06-.61c0-.54-.2-1.09-1.14-1.55l-.21-.1.05.23a2.14,2.14,0,0,1,.08.56,1,1,0,0,1-.54.91,1.82,1.82,0,0,0-.58.64c0-.11,0-.22,0-.34s0-.42,0-.64a5.06,5.06,0,0,0,0-.68c0-.79-.28-1.62-1.82-2.52l-.24-.14Zm-.42,4.68a2.69,2.69,0,0,1-.08-.66,3.66,3.66,0,0,1,.42-1.53,3.82,3.82,0,0,0,.44-1.63,3.16,3.16,0,0,0-.09-.65c1.24.78,1.49,1.48,1.49,2.19a4.74,4.74,0,0,1,0,.65c0,.22,0,.44,0,.66a2.41,2.41,0,0,0,.12.79l.15.4.07-.42a1.33,1.33,0,0,1,.62-.9,1.22,1.22,0,0,0,.62-1.08,2.73,2.73,0,0,0,0-.38,1.33,1.33,0,0,1,.82,1.24,3.8,3.8,0,0,1-.06.58,4.44,4.44,0,0,0,0,.62,1.43,1.43,0,0,0,.24.85l.14.19.06-.23A4.12,4.12,0,0,1,37.19,29a2.09,2.09,0,0,0,.9-1.37,3.33,3.33,0,0,1,.55,1.64,2.9,2.9,0,0,1-.33,1.2,3.81,3.81,0,0,0-.41,1.62s0,.44,0,.44l.2-.35a2,2,0,0,1,.86-.77c.34-.19.66-.37.66-.88a1.41,1.41,0,0,1,.38.9,2.37,2.37,0,0,1-.31,1,2.52,2.52,0,0,0-.31,1,1,1,0,0,0,0,.24l0,.23.14-.18a5.2,5.2,0,0,1,2.13-1.66,4.57,4.57,0,0,0,1.47-1,2.16,2.16,0,0,1,.29,1,3.32,3.32,0,0,1-1.09,2.06,2.47,2.47,0,0,0-.81,1.41.92.92,0,0,0,.09.39l.06.11.11-.07a6.52,6.52,0,0,1,3.08-1.43H45a1.52,1.52,0,0,1,1.33.26,1,1,0,0,0,.73.27c.42,0,.86.1,1.3,1l0,.06h4.79V48.9H51.28v2.58h.12a3.4,3.4,0,0,1,3.78,2.71,6.11,6.11,0,0,1,0,.73,3.64,3.64,0,0,1-2.08,3.51l-.21.1.21.11a3.33,3.33,0,0,1,2.08,2.48,1.21,1.21,0,0,1,0,.19,2,2,0,0,1-.86,1.62l-.09.06.06.09a3,3,0,0,1,.5,1.69,2.88,2.88,0,0,1-.1.78,1.72,1.72,0,0,1-.88,1.19l-.09,0,0,.1a11.92,11.92,0,0,1,.87,4.57c0,.34,0,.69,0,1v.06l.05,0a4.14,4.14,0,0,0,1.89.61,28.53,28.53,0,0,1-1.65,8l0,0,0,0a4.42,4.42,0,0,1,.37,1.76,3.59,3.59,0,0,1-.76,2.29,2.7,2.7,0,0,1-2.82.88h-.06l0,0c-3.22,3.16-6.43,4.64-9.82,6.22a42.25,42.25,0,0,0-10.46,6.26,42.33,42.33,0,0,0-10.52-6.27c-3.43-1.57-6.67-3-9.88-6.21l0,0h-.06A2.7,2.7,0,0,1,8,85.34a3.59,3.59,0,0,1-.76-2.29,4.38,4.38,0,0,1,.37-1.76l0,0,0,0A28.53,28.53,0,0,1,6,73.2a4,4,0,0,0,1.89-.61l.06,0v-.06c0-.36,0-.71,0-1a11.7,11.7,0,0,1,.88-4.57l0-.1-.1,0a1.7,1.7,0,0,1-.87-1.17,3.19,3.19,0,0,1,.39-2.49L8.28,63l-.09-.06a2,2,0,0,1-.86-1.62,1.21,1.21,0,0,1,0-.19,3.35,3.35,0,0,1,2.1-2.48l.21-.11-.21-.1a3.65,3.65,0,0,1-2.09-3.56c0-.22,0-.46,0-.7a3.41,3.41,0,0,1,3.79-2.69h.11V48.9H9.4V36.16h4.41l0,0A4.34,4.34,0,0,1,16.79,34l.33-.08c1.57-.77,2.26-.43,2.84,0h0a7.63,7.63,0,0,1,1.08.42,2.21,2.21,0,0,0,1.3.32l.23,0-.19-.15A3.32,3.32,0,0,1,21,32.08a1.72,1.72,0,0,0-.48-1.1,2.22,2.22,0,0,1,2.61,1,2.62,2.62,0,0,0,1.13,1l.35.14-.21-.31a.84.84,0,0,1-.16-.53,1.09,1.09,0,0,1,0-.18v-.21a1.69,1.69,0,0,0-.73-1.36,2,2,0,0,1,2.12.55,2.1,2.1,0,0,0,.28.53l.46.63-.27-.74a2.36,2.36,0,0,0-.26-.5,2,2,0,0,1-.13-.72c0-.18,0-.36,0-.55s0-.43,0-.66a3.73,3.73,0,0,0-.28-1.44c1.36.29,1.55.87,1.76,1.53a2.46,2.46,0,0,0,1.12,1.58l.18.11,0-.22c0-.09,0-.18,0-.26a2.15,2.15,0,0,1,.34-1.18,2.11,2.11,0,0,0,.31-1,4,4,0,0,0,.38.42,3.72,3.72,0,0,1,1.09,2.12Z"/><path class="cls-1" d="M29.09,32.39l.17.76v.09a.15.15,0,0,1,0,.07l-.09,0h-.07s-.05-.05-.09-.08a.5.5,0,0,0,0-.15l-.21,0v.05c0,.07.06.13.07.18a.47.47,0,0,0,.09.1.15.15,0,0,0,.12,0,.29.29,0,0,0,.16,0,.42.42,0,0,0,.21-.08.75.75,0,0,0,.09-.15v-.18l-.19-.77Zm9.22,2.16-.74.83.18.15.74-.82Zm-.77.3a.22.22,0,0,1-.31,0,.26.26,0,0,1-.11-.14.31.31,0,0,1,0-.15.19.19,0,0,1,.08-.16v0a.49.49,0,0,1,.24-.18.24.24,0,0,1,.23,0,.23.23,0,0,1,0,.3l.21.15a.38.38,0,0,0,0-.21.3.3,0,0,0,0-.21.32.32,0,0,0-.16-.19.5.5,0,0,0-.17-.1.37.37,0,0,0-.21,0,.5.5,0,0,0-.19.07c-.06,0-.11.11-.18.16v0a.59.59,0,0,0-.16.3.47.47,0,0,0,0,.26.33.33,0,0,0,.16.21.49.49,0,0,0,.23.11.56.56,0,0,0,.21,0,.62.62,0,0,0,.19-.11Zm-8.92-1.19.22-.06-.68-1-.27.08-.05,1.19.25-.06v-.26l.38-.11Zm-.53-.27v-.47l.26.39Zm-.58.13a.23.23,0,0,0-.16,0,.28.28,0,0,0,0-.28.35.35,0,0,0-.1-.11.41.41,0,0,0-.16,0,.2.2,0,0,0-.16.06l-.51.26.53,1,.45-.24.16-.1a.52.52,0,0,0,.07-.11s0-.07,0-.13,0-.08,0-.14S27.56,33.55,27.51,33.52Zm-.79-.07.26-.13c.05,0,.07,0,.11,0s.07,0,.07.06,0,.07,0,.1,0,0-.07.08l-.25.13Zm.6.5-.27.15-.12-.26.26-.15a.21.21,0,0,1,.13,0s.05,0,.08.08a.34.34,0,0,1,0,.13A.29.29,0,0,1,27.32,34Zm-1.66-.08L26,35l.21-.14-.05-.23.31-.24.18.15.21-.15-.95-.68Zm.64.42-.25.15L25.93,34Zm-1.85.82L24.31,35l-.6.69.16.12.21-.24.69.59.16-.17-.69-.6Zm1.32-.18s0,0,0-.06l0,0a.6.6,0,0,0-.14-.11.2.2,0,0,0-.15,0,.54.54,0,0,0,0-.11s0-.07,0-.12l-.09-.09s-.07-.07-.12-.09h-.16a.3.3,0,0,0-.15.09l-.46.38.77.84.16-.16-.3-.34.19-.15c.06,0,.07-.06.11-.07h.07s0,0,.05.06.05,0,.09.08.05,0,.05.07l.07,0,.2-.17v0h-.09Zm-.56-.09L25,35l-.2-.22.21-.2a.3.3,0,0,1,.15,0,.13.13,0,0,1,.07,0,.12.12,0,0,1,.05.11A.24.24,0,0,1,25.21,34.84ZM39,35.16l-1.11.43.16.18.21-.09.26.32-.14.19.2.2.57-1Zm-.37.66-.2-.22.46-.17Zm-6.26-3.7h-.26l-.23.47-.21-.48-.3,0,.37.71v.42h.21l0-.42Zm4.43,1.53.11-.18-.8-.42-.1.16.3.16-.42.82.21.1.42-.8Zm-6.24-1.38a.25.25,0,0,0-.19-.09.62.62,0,0,0-.21,0,.51.51,0,0,0-.28.12.35.35,0,0,0-.16.22.83.83,0,0,0,0,.32l0,0a.47.47,0,0,0,.07.27.46.46,0,0,0,.21.16.5.5,0,0,0,.3.05.47.47,0,0,0,.21-.06,1.53,1.53,0,0,0,.16-.13.74.74,0,0,0,.07-.21.61.61,0,0,0,0-.24,2.08,2.08,0,0,0-.08-.26A.33.33,0,0,0,30.51,32.27Zm0,.65c0,.06-.06.1-.07.14a.28.28,0,0,1-.2.08.24.24,0,0,1-.22-.09.47.47,0,0,1-.11-.29.59.59,0,0,1,0-.21.26.26,0,0,1,.1-.14l.14,0a.26.26,0,0,1,.27.11c0,.09.07.16.07.27Zm6.53.65-.59.94.17.13.64-.93Zm-3.32-1.26-.23,0-.15.76a.13.13,0,0,1,0,.11s0,0,0,0h-.1l-.09,0s0-.06,0-.1,0-.08,0-.13l-.21,0v0a.72.72,0,0,0,0,.19.17.17,0,0,0,.05.13s.06.08.07.1a.53.53,0,0,0,.2,0h.17a.26.26,0,0,0,.16-.1.24.24,0,0,0,.05-.16Zm.9.19-.18.71a.22.22,0,0,1-.3.15l-.07,0a.14.14,0,0,1,0-.11v-.13l.21-.68L34,32.32l-.22.73a1,1,0,0,0,0,.24.39.39,0,0,0,.15.16.75.75,0,0,0,.17.1l.19,0,.16,0c.06,0,.07-.06.13-.09a.37.37,0,0,0,.08-.19l.21-.71Zm1,.37a.69.69,0,0,0-.17-.1.73.73,0,0,0-.25,0,.44.44,0,0,0-.16.06.53.53,0,0,0-.12.15c0,.08,0,.13,0,.2a.16.16,0,0,0,.07.13l.16.12.1.06s.09,0,.09.07,0,0,0,.06v.07c0,.09-.14.11-.29,0a.16.16,0,0,1-.07,0,.1.1,0,0,1-.06-.09.08.08,0,0,1,0-.11l-.21-.08c-.09.24,0,.42.32.53,0,0,.07,0,.12,0h.14a.27.27,0,0,0,.16-.06.45.45,0,0,0,.11-.17.76.76,0,0,0,0-.14.15.15,0,0,0,0-.12,1,1,0,0,1-.16-.14l-.1-.06-.13-.08a.17.17,0,0,1-.05-.15.12.12,0,0,1,.1-.06.12.12,0,0,1,.13,0c.14,0,.19.13.16.24l.21.07a.19.19,0,0,0,0-.12c0-.06,0-.09,0-.14A.32.32,0,0,0,35.64,32.87Zm-1.86,3.48h-.26v1.2h.84v-.22h-.58Zm-1.09,0-.42,1.2h.26l.09-.24h.44l.09.24h.26L33,36.35Zm0,.75.14-.47h0l.14.47Zm-.76.45h.27v-1.2h-.27Zm-1.45-1.08a.59.59,0,0,0-.16-.1.63.63,0,0,0-.21,0,.53.53,0,0,0-.34.1.46.46,0,0,0-.19.22,1.53,1.53,0,0,0,0,.33V37a.57.57,0,0,0,.09.29.26.26,0,0,0,.17.18.54.54,0,0,0,.3.08.69.69,0,0,0,.23,0,.4.4,0,0,0,.19-.14,1.74,1.74,0,0,0,.11-.18,1.32,1.32,0,0,0,.05-.26,1.25,1.25,0,0,0-.05-.3A1,1,0,0,0,30.48,36.47Zm-.11.68a.29.29,0,0,1-.1.16.24.24,0,0,1-.18,0,.27.27,0,0,1-.25-.13.61.61,0,0,1-.07-.32.43.43,0,0,1,.06-.22s.07-.08.12-.11a.34.34,0,0,1,.14,0,.27.27,0,0,1,.26.15.5.5,0,0,1,.07.29A.27.27,0,0,1,30.37,37.15Zm-1.07-.21a.48.48,0,0,0-.21-.07.28.28,0,0,0-.11,0l-.19,0c-.05,0-.07,0-.07-.12a.09.09,0,0,1,.05-.09.25.25,0,0,1,.16,0,.21.21,0,0,1,.23.18h.24a.19.19,0,0,0,0-.13,1.27,1.27,0,0,0-.07-.12.28.28,0,0,0-.16-.09.46.46,0,0,0-.21,0,.74.74,0,0,0-.25,0,.37.37,0,0,0-.15.13.48.48,0,0,0-.06.18.52.52,0,0,0,.06.2.25.25,0,0,0,.14.11.41.41,0,0,0,.21,0s.05,0,.1,0a.28.28,0,0,0,.13,0,.12.12,0,0,1,.05,0,.09.09,0,0,1,0,.08c0,.1-.08.13-.26.13h-.1s-.06,0-.09-.08a.14.14,0,0,1-.06-.1h-.22c0,.26.17.39.52.39h.13l.14,0a.3.3,0,0,0,.12-.13.25.25,0,0,0,.05-.19.32.32,0,0,0,0-.16A.24.24,0,0,0,29.3,36.94Zm2-.41a.27.27,0,0,1,.25.22h.26a.41.41,0,0,0-.09-.22.61.61,0,0,0-.17-.15.76.76,0,0,0-.25-.06.52.52,0,0,0-.23,0,.37.37,0,0,0-.15.11c-.06.05-.09.13-.15.19a2.26,2.26,0,0,0,0,.27v0a.93.93,0,0,0,0,.34.6.6,0,0,0,.21.21.78.78,0,0,0,.28,0,.74.74,0,0,0,.25,0,.37.37,0,0,0,.17-.16,1.46,1.46,0,0,0,.09-.21h-.26a.25.25,0,0,1-.27.21.44.44,0,0,1-.15,0,.2.2,0,0,1-.09-.13A1,1,0,0,1,31,37a.54.54,0,0,1,.09-.31A.3.3,0,0,1,31.32,36.53Z"/><rect class="cls-2" x="11.16" y="60.87" width="0.62" height="0.22" transform="translate(-20.11 7.57) rotate(-19.95)"/><polygon class="cls-1" points="12.4 59.68 12.49 59.75 12.75 59.55 12.66 59.48 12.4 59.68"/><path class="cls-1" d="M41.34,79.8h-.06l-.12.07.07.16.25,0,.91,0,0,0,.05-.18-.06-.08A1.59,1.59,0,0,0,41.34,79.8ZM33.52,65.19V65l-.14-.11H33l0,.21.32,0Zm3.23,21.48.46.06h.26l.63.1.13,0h.14l.91-.16.09-.05.79-.16.07-.4-.91.16-.09,0a3.46,3.46,0,0,1-1.86,0l-.37,0-.37.1-.21.08-.15.08-.17.16,0,.29.21,0ZM29.88,74.52l0-.21-.28-.52-.16-.08-.09.13.05.29.09.16.21.23Zm14.67,9-.16,0-2,.23-1-.13a1.9,1.9,0,0,0-.88.11l-.17,0-.53.18-.24,0c-1,.34-2-.13-3,0l-.38.13-.1.13v.14l.23.07c.42.22.84,0,1.26-.05l.56.05.13.08h.4l.81-.1.48-.13.4-.14.28,0,.35-.16.23,0,.21.08.53,0a10.11,10.11,0,0,0,2.16-.26l.74,0,.1-.19v0l-.12-.11Zm-13.4-8.3.15,0,.11-.07V75L31,74.5l-.23-.45-.08,0-.08-.14-.24-.23h-.11v.16l.42.76.07.16.16.26-1,.14h-.14v.12l.26.14Zm14.6.48V75.5l.06-.08.1-.82-.05-.47-.32-.32-.12-.08h-.1l-.15.08-.22,0-.14.08-.08,0-.35.26-.1.19-.33.92-.09.56,0,.15.07.29a.84.84,0,0,0,.32.35l.15,0h.32A2.13,2.13,0,0,0,45.75,75.69Zm4.43-16-.11-.19-.09,0,.11.19ZM43.11,82.88l-.47,0-.58-.08-.64-.19a2.64,2.64,0,0,0-.93.16l-.17,0-.25.08-.21.1-.47.13H39v.42l.37,0,.79-.18.47-.08,1-.19,1,.16h.16a8.28,8.28,0,0,1,3.09-.16h.06l.38-.13.05-.21-.26,0h-.69l-.31-.08A5.15,5.15,0,0,0,43.11,82.88Zm-13,1.69,0,.15.11.06h1l.05-.13,0-.11-.92,0Zm-.44-6.78-.19.53v.4l-.06,2.79v.29l.06.1h.14a6.16,6.16,0,0,0,.15-1.81l.06-2.27-.09-.08Zm4.06-3.37.26-.29.18-.32a4.34,4.34,0,0,0,.47-1.6h-.07l-.16.2A5.39,5.39,0,0,1,34,73.5l-.35.47-.1.24v.1l0,.08Zm-2.3,16.21v1.45l-.08,1.26.06.13h.23l0-.39,0-.84V90.52l-.18-.08Zm2.72-13.07.12-.14c-.1-.76,0-1.5-.12-2.26L34,75.05l-.12.18,0,.24L34,76v1.42Zm12.67.92-.11.16-.07.26,0,.16.14.13.31-.32v-.29l-.15-.1ZM29.63,65.64l.37-.16.11.11,0,.24,0,0,.21-.16,0-.26.06-.05,1.7-.24.09-.21-.25,0a10.07,10.07,0,0,0-2,.35l-.53.34.12.1ZM45.39,79.06,45,79l-1.16.24c-.21,0-.55.18-.6.42l.12,0,.42-.13.32,0,2.41-.32,0-.26-.85.08Zm-1.91,2.71,0,.08.72.08.17,0,.14,0,.07-.27-1.05-.08Zm-9.33-7.91v.08l-.16.21v.14h0l.18-.06.37-.65-.18-.11ZM31.64,82h.24l.69.11.33,0,.09-.18-.21-.08-1.09,0Zm.24-15.65.07.73a10.1,10.1,0,0,1,0,3l-.1-.5v-.06l-.19-.13v.19l.14.73,0,.56v.58l0,2.16h.06l.14,0,.07-.19A21.87,21.87,0,0,0,32,70.47l.15,0,.09-.21A12.88,12.88,0,0,0,32,66.41Zm1.21,6.56.27-2.56,0-.55-.07-.08-.09.11a24.32,24.32,0,0,1-.28,2.76l0,.32L33,73Zm0,2.53v-.55l-.16,0,0,.58v0l.14,0ZM50.77,61l.6.21.07-.21-.6-.21Zm-5-21.51h.26l.09-.13.07.13h.24l.11-.19v-.15l.1-.08.29-.24,0-.08-.19,0h-.06l-.15.13h-.22l-.21.13-.17.13-.05-.21.1-.13.21-.16.07,0,.3-.05.33-.11.09-.13v-.16l-.42.16-.47.08-.06,0-.4.48v.1l.14.5Zm3,4.08,0-.23v-.08l-.21,0-.09.08-.58.05.09.13Zm-10.53,4h-.16l0,.16.08.24.1.11.16-.11v-.11l-.05,0Zm2.2-.57,0,.13h.05l.13,0,.35-.58-.21-.05-.06,0-.15.21Zm6.29-5.62-.48.24-.28.39,0,0,.21,0,.11-.13.05,0,.19.08,0,0,.37-.13.13-.21,0,0v-.08h.21v-.19l-.09-.08-.21,0-.12.08Zm-.48-.26.25-.58-.25,0-.05,0-.17.37-.2.1-.21,0-.16.05,0,.08.08.08.47-.08ZM43,64.53v.16c-.11.53-.36,1-.11,1.5l.07,0,.14-.21-.09-.1.09-1.4ZM16.43,67.35l-.1-.1.05.09Zm-.05,0-.31-.06.31.06ZM45.55,43.82l.09.08-.77-.08-.13,0-.05.11.74.15.6,0,.09-.19-.11-.1h-.19l.14-.37L45.91,43l-.06,0Zm-27.9-4.61.12,0v.1l.17.16h.16l.26.13.09,0,0-.13-.29-.19-.06-.08V39.1L17.72,39l-.28,0-.09.14.09,0Zm19.94,7.3-.07.13.13.21,0,.21.16,0L38,47v-.08l-.06-.11C37.89,46.72,37.73,46.51,37.59,46.51Zm-23.21-3,.16-.13-.14-.13-.9-.66-.07.13.07.16Zm-1,9.32h0Zm1.2-10.42.16-.05V41.26l-.07-.16-.11.14v.6l-.05.42.07.16Zm1.58-4,.2.14h.07l.05-.06h0l.14.11.11.13-.41.5-.16.19.09.1.07,0,.41-.37.05-.16.28-.18.09-.14v-.15l-.09-.08-.1,0-.07,0-.14-.16-.11-.1,0-.11-.21-.13L16.12,38l-.14.16.21.08ZM56,73.88l-.19,0a10.66,10.66,0,0,1-1.72-.52,14.69,14.69,0,0,0-.73-6.85,1.19,1.19,0,0,0,.22-.12,1.76,1.76,0,0,0,.69-1.81h0a1.93,1.93,0,0,0-.52-1.1A3.43,3.43,0,0,0,54,62.2a1.17,1.17,0,0,0,.36-.53l.15-.32v0a4,4,0,0,0-1.9-2.59h0a1.56,1.56,0,0,0-1.28.31,5.47,5.47,0,0,0-.58-.15v-.38l.23.06a2.54,2.54,0,0,0,2-.43,1.75,1.75,0,0,0,.24-.23,4.94,4.94,0,0,0,.66-.43,3.52,3.52,0,0,0,.44-4.28v0a3.35,3.35,0,0,0-2.4-1.26,3.15,3.15,0,0,0-1.1.11V48.23h2V36.67H47.59l-.14-.25,0-.21L47.17,36l-1-.32a2.46,2.46,0,0,0-1.3-.18h-.16l-.05,0-.18.06-.52.1-.09.08-.28.22H43.5l-.23.2-.21.08-.47.46H40.68l-.29-.6-.08-.16a1.22,1.22,0,0,0,.44-.85.76.76,0,0,1,.39-.66c1.29-1,1.47-1.33,1.7-1.8l.32-.63-.43.2a5.53,5.53,0,0,0-1.92,1.34,4.22,4.22,0,0,1-1.56,1.08L39,34.32l-.25-.3.74-2,.19-.81-.45.53a1.21,1.21,0,0,1-.76.65,1.7,1.7,0,0,0-.93.81l-.21-.14-.28-.2a2.08,2.08,0,0,0,.44-1.21,2.58,2.58,0,0,0-.05-.46,1.77,1.77,0,0,1,.43-1.09,1.5,1.5,0,0,0,.38-1c0-.09,0-.2,0-.32l-.08-.65-.24.61a1.94,1.94,0,0,1-.83,1,2,2,0,0,0-.56.54,1.45,1.45,0,0,0-.17.61,1.78,1.78,0,0,1-.64,1.22h-.07L35.05,32a1.78,1.78,0,0,1-.32-1,2.66,2.66,0,0,1,.46-1.39l0-.46-.17.22c-1.3.67-1.35,1.23-1.4,1.82a2.68,2.68,0,0,1-.1.6l-.53-.12a6.17,6.17,0,0,0-.2-.85,5.56,5.56,0,0,1-.22-.92,2.35,2.35,0,0,1,0-.26,4.9,4.9,0,0,1,0-.54,3.86,3.86,0,0,0,.05-.61,2.57,2.57,0,0,0-.25-1.12l-.36-.8,0,.88a1.48,1.48,0,0,1,0,.21,1.55,1.55,0,0,1-.31,1.05,1.67,1.67,0,0,0-.31.67,1.42,1.42,0,0,0,0,.28,3.15,3.15,0,0,0,0,.46,2.16,2.16,0,0,1,0,.46,2.37,2.37,0,0,1-.25,1h-.62c-.42-.24-.46-.54-.5-1A3,3,0,0,0,29.59,29l-.21-.33-.08.48a1.53,1.53,0,0,1,.09.54,2.81,2.81,0,0,1-.22,1,2.33,2.33,0,0,0-.19.79.82.82,0,0,0,0,.26l-.55.14a2,2,0,0,0-.74-.94.76.76,0,0,1-.38-.5l-.05-.31a1.91,1.91,0,0,0-.85-1.62l-.25-.15v.29c0,.23,0,.43,0,.62,0,1.34.13,1.6.37,2a3.22,3.22,0,0,1,.51,1.25l-.47.28a2.28,2.28,0,0,1-1.11-1.05c-.22-.35-.43-.69-.85-.71l-.31,0,.15.27a1.7,1.7,0,0,1,.31.86,1.57,1.57,0,0,1,0,.24,1.13,1.13,0,0,0,0,.25c0,.25.12.52.53,1l-.52.39A3.71,3.71,0,0,1,23,32.37c-.36-.51-.67-.95-1.28-1h-.37l.24.28A1.78,1.78,0,0,1,22,32.85a1.74,1.74,0,0,0,.17.64,1.35,1.35,0,0,0,.58.55,1.51,1.51,0,0,1,.75,1,2.1,2.1,0,0,0-.25.28l-.17.21a1.15,1.15,0,0,0-1-.47,1.7,1.7,0,0,1-.73-.16l-.3-.15.06.33a1.28,1.28,0,0,0,.4.65,1.41,1.41,0,0,1,.47.94h-.9l0-.14-.35-.32,0-.26-.05-.13v-.15l-.16-.12-.12-.18-.16-.24L20,35.06V35l-.34-.11-.08,0-.13,0,0,0,0-.08-.47-.3-.62,0L18,34.35h-.3l-1,.1-.08.2-.18.17-.37.15-.16.12-.1,0-.16.09-.21.23-.16.08-.68.6-.22.3-.08.24H9.84V48.23h2V52a3.45,3.45,0,0,0-1.06-.11,3.41,3.41,0,0,0-2.44,1.27l0,0v0a3.54,3.54,0,0,0,.44,4.27,3.59,3.59,0,0,0,.67.43,1.67,1.67,0,0,0,.23.23,2.5,2.5,0,0,0,2,.44,1.39,1.39,0,0,0,1-.62,2,2,0,0,1-.07.54c0,.1,0,.21-.07.31a5.76,5.76,0,0,0-1.17.24A1.57,1.57,0,0,0,10,58.71h0a4,4,0,0,0-1.93,2.59v0l0,0,.14.27a1.12,1.12,0,0,0,.36.54,3.57,3.57,0,0,0,.22,1.24,1.9,1.9,0,0,0-.49,1.1A1.75,1.75,0,0,0,9,66.34l.21.11a15,15,0,0,0-.72,6.86,10.8,10.8,0,0,1-1.73.52l-.19,0,0,.19a28.49,28.49,0,0,0,1.71,7.44,2.15,2.15,0,0,0-.49.77,1.91,1.91,0,0,0,.11,1.54,1.74,1.74,0,0,0,.31.9,2.49,2.49,0,0,0,1.83,1,1.61,1.61,0,0,0,.75-.16c.25.25.5.49.76.71,3.28,3,6.51,4.44,9.94,6a39,39,0,0,1,9.72,5.65l.14.11.15-.11a39.07,39.07,0,0,1,9.65-5.65,34.67,34.67,0,0,0,9.88-6,10.18,10.18,0,0,0,.76-.72,1.66,1.66,0,0,0,.73.17,2.44,2.44,0,0,0,1.84-1,1.92,1.92,0,0,0,.32-.92,1.88,1.88,0,0,0,.1-1.54,2.09,2.09,0,0,0-.48-.76A28.42,28.42,0,0,0,56,74.07ZM53.81,71.5a10.47,10.47,0,0,1-.13,1.6l-.3-.14-.13-.07a15.15,15.15,0,0,0,.11-1.77,12.19,12.19,0,0,0-.45-3.25c-.09-.35-.19-.73-.31-1.14l.29-.16h0A16.7,16.7,0,0,1,53.81,71.5Zm-4.19-4.81a.61.61,0,0,1-.52-.3A.67.67,0,0,1,49,66a1.27,1.27,0,0,1,.11-.47,1.12,1.12,0,0,0,.2.18h0l.05.06a.85.85,0,0,0,1.13.2l.16-.06.13,0a2.23,2.23,0,0,0,.1.43,2.12,2.12,0,0,0-1,1.4.7.7,0,0,1-.34-.39.62.62,0,0,1,0-.13.72.72,0,0,1,.14-.42l.12-.16Zm1.69-3.49h0l-.18,0-.46-1c-.16-.33-.33-.67-.49-1l.33.17C50.72,62,51,62.59,51.31,63.2Zm-.21-1.46a2.76,2.76,0,0,1,1.29,1.15h-.17a2.71,2.71,0,0,0-.51.12C51.48,62.58,51.28,62.16,51.1,61.74Zm.23,1.91a1.39,1.39,0,0,1,1.6,1.26h0a1.31,1.31,0,0,1-.5,1.37,1,1,0,0,1-1.08,0l-.05-.88a.65.65,0,0,1,.43-.33l.62-.17-.6-.25a1,1,0,0,0-1,.08,1,1,0,0,0-.42.84h0c-.33.13-.41.14-.59,0v-.13A1.65,1.65,0,0,1,51.33,63.65Zm-.62,3.16L51,66.6h0l0,0,.1.06A15.44,15.44,0,0,1,52.07,72c-1.08-1.19-1.36-2.84-1.36-5Zm1,.07a1.48,1.48,0,0,0,.47,0q.15.43.27.84a10.94,10.94,0,0,1,.33,4.82,1.25,1.25,0,0,1-.22-.16A16.45,16.45,0,0,0,51.67,66.88Zm2.19-2.28c0,.1,0,.2,0,.29A1.24,1.24,0,0,1,53.35,66l-.1.06v0a1.93,1.93,0,0,0,.16-.77,1.69,1.69,0,0,0,0-.38s0,0,0-.07h0a1.78,1.78,0,0,0-1.12-1.43h0a1.91,1.91,0,0,1,.6.06l.29.11A1.43,1.43,0,0,1,53.86,64.6Zm-1.35-5.68a3.77,3.77,0,0,1,1.77,2.39l-.14.28a2.25,2.25,0,0,1-.16.31,3.28,3.28,0,0,0-1.2-2.06,4.9,4.9,0,0,0-1.23-.73A1.41,1.41,0,0,1,52.51,58.92ZM52.64,60a2.93,2.93,0,0,1,1.14,2.21,3.17,3.17,0,0,1-.2,1,1.94,1.94,0,0,0-1-.35,2.66,2.66,0,0,0-1.36-1.32,1,1,0,0,0,.43-.06.53.53,0,0,0,.28-.29c.08-.4-.28-.77-.9-1l-.07.21c.5.15.81.43.75.69a.27.27,0,0,1-.15.15,1.29,1.29,0,0,1-.89-.1l0,.06-.7-.37a1.5,1.5,0,0,0,1-1.19l-.22-.06c-.18.66-.44,1-1,1.08v.07a6.08,6.08,0,0,1-.86-.63,1,1,0,0,1-.42-.65.5.5,0,0,1,0-.12c.11-.28.6-.44,1.32-.43A4.58,4.58,0,0,1,52.64,60Zm-2.83-3.72a1.44,1.44,0,0,0-.14.63s0,.09,0,.14a2.74,2.74,0,0,0-.16.87,2.48,2.48,0,0,0,.09.65c0,.06,0,.12,0,.18a2.68,2.68,0,0,0-.43.05c0-.17-.09-.34-.13-.51a2.39,2.39,0,0,1,.5-2.28,1.36,1.36,0,0,1,.91-.39A1.47,1.47,0,0,0,49.81,56.29Zm.46,2v.54l-.16,0c0-.1,0-.2-.07-.3a2.13,2.13,0,0,1-.07-.55A1,1,0,0,0,50.27,58.26Zm2.34-.48a2,2,0,0,1-1.58.33,1,1,0,0,1-.7-.43,1.38,1.38,0,0,1-.12-1.2,1.26,1.26,0,0,1,1-.63l.61-.1-.53-.31a1.65,1.65,0,0,0-2.06.26,2.69,2.69,0,0,0-.73,1.89,3.16,3.16,0,0,0,.11.81c0,.18.08.35.13.53a.76.76,0,0,0-.44.4c-.12.31,0,.67.45,1a5.5,5.5,0,0,0,.7.52c.24.56.5,1.1.75,1.61,0,0,.3.6.43.88a2.13,2.13,0,0,0-.52.27l-.27-.47a19,19,0,0,1-2.29-5,4.55,4.55,0,0,1-.17-1.25A3.7,3.7,0,0,1,48.59,54a3.16,3.16,0,0,1,2.39-.9,3,3,0,0,1,2.12,1.08,3.61,3.61,0,0,1,.39,1.58A2.63,2.63,0,0,1,52.61,57.78ZM50.33,76.69a1.52,1.52,0,0,0-.6-.29l.07-.22V76l-.19-.27.14-.18.13-.08.14-.77-.14-.07-.16-.22,0-.21.13-.1.1-.21,0-.19-.18-.26,0,.34,0,0-.32.37v.14l.05,0v.21l.25.13.07.11-.07.42-.21.13-.09,0-.1.5,0,.08.21.08-.1.25a1.71,1.71,0,0,0-.45,0,9.13,9.13,0,0,0,.41-3l0-.37,0-.1h-.11l-.05.45a11.64,11.64,0,0,1-.58,3.15h0l-.53.13v.16l0,.05a1.54,1.54,0,0,0-.48,1.32,1.1,1.1,0,0,0,1.24.9h.24l0-.24c0-.31.05-.45.13-.47s.15,0,.19.18c.26.85-.39,2.16-1.6,3.39-.88-.23-1.79.18-2.67.18l-.07,0,.07.16.25,0,.17,0,.11.07.05,0a6.67,6.67,0,0,1,1.73-.14,11.23,11.23,0,0,1-3.8,2.31L42.46,85l0-.05-.16-.08h-.16l-.51-.1A12.11,12.11,0,0,1,38.1,85l-.51.19-.1,0-.18,0-.67.21-.15-.08-.29-.15h-.14l-.05.15.05.08,0,.08.74.32h.42l.07-.06.24-.07.13,0,.3-.16.17-.05a2,2,0,0,1,1.36.1c.81,0,1.66-.49,2.5-.43l-.34.12L43.74,85a14.81,14.81,0,0,0,1.92-.36,17.46,17.46,0,0,0,4.3-1.1,10.48,10.48,0,0,1-.86.9l-.22.05a6.55,6.55,0,0,1-2.29.08l-.61.19L45.5,85l-.11.21v.08h.09l.05,0a3.23,3.23,0,0,1,1.55-.27,2.25,2.25,0,0,0,1.36,0l-.64.55-.47,0-.16,0H47l-.72,0a3.49,3.49,0,0,0-1.32.24l0,0-.32.08-.54.16-.83.1L41.9,86l0,.16.38.31.48.19.4,0h0a6.7,6.7,0,0,0,2.51-.55,1.67,1.67,0,0,1,1.11-.21l.54.11a21.89,21.89,0,0,1-2.68,1.72l-.08,0-.61-.08-1,.16h-.09l-.74.19a2.35,2.35,0,0,1-1.84,0l-.18,0H39.9l-.62.11-.63.16-.16,0a4.64,4.64,0,0,1-1.58.08.86.86,0,0,0-.71.37l.11.1h.79l.58,0h.21l.11-.08.33-.08.41-.13c.59-.21,1.23.11,1.8,0h.22l.89-.13.2-.1.36-.08L43.5,88l.63,0c-1.33.68-2.68,1.22-4.06,1.77-1,.4-2,.81-3,1.27l-.81.07-.38.05,0,0,0-1c0-.28,0-.57,0-.85l0-.52v-.47c0-1.38.09-2.75.11-4.12l0-.39.07-.45.08.1.18-.05.85,0,.15,0,.46-.24,0-.18h-1l-.23,0-.14,0-.29.16-.14.13,0-.55.16,0,.16-.07a2,2,0,0,1,1.15.13l.64-.06.74-.15.38-.06h.16a11.54,11.54,0,0,0,3.15-.18l1.32.24.43,0,.2,0,.07-.21,0,0-.25-.08-.21.06H44L42.44,82l-.59.13c-1.15.24-2.27-.27-3.41.08l-.85.1-.8-.15-.73.18h0c0-.18,0-.36,0-.53l0,0,0-.37c0-.53,0-1.06,0-1.6v-.54l-.07-.6,0-.46v0l0,0V78l.1-.08H36l.07-.05h1.11l.06,0,.42-.31.4-.14c.53-.18,1.11.06,1.64-.21h.05l.17,0L40,77l.23,0-.12-.66,0-.13.38-.1.16-.45V75.6l0-.13-.16-.31,0-.11.13-.32.37,0,.21-.77-.07,0,0-.16v0L41,73.55l0-.11v-.1l0-.16.19-.26.44,0,.11-.18.19-.61,0,0-.2-.48,0-.16.1-.18.23,0,.19,0,.11-.16,0-.24.22-.26v-.18l-.05-.11-.11-.16,0-.18.35-.4.28,0,.09,0,.12-.13.16,0,.2-.26L43.5,69l0-.14,0-.16,0-.1.21-.16.16-.18h.07l.21.13,0,0,.14-.21.23-.13.21-.21,0-.16.06-.42.26-.19.11.22.16.08.2-.19.29,0,.1-.1v-.16l.07-.45.31-.08.25.08v.08l.07.11.16,0h.09l.36,0h.07l.16-.42.32.19.25.15v1a1.81,1.81,0,0,0-1-.38h-.17l-.64.14-.47.26,0-.05-.21.13-.21.1-.91.82-.2.16-.12.21-.35.42-.27.4,0,.21-.23.23-.35.61h-.05l0,0v.16l-.5.92h-.15l0,.24,0,.11-.72,2.45-.11.13,0,.34-.11.64-.12.52-.14.08,0,.19v.1l-.24.08-.06.21.11,0h.11l.08,0h.23l.37,0a2.12,2.12,0,0,0,1.3.26c.6,0,1.16.24,1.74.24l-.24.08L43,78l-.12.08-.14,0-.17.06a5.33,5.33,0,0,1-2,.66l-.14,0-.07,0-.16.1-.21.06-.35.1-.16.06-.54.1h-.3l-.16.08-.18.16-.1.21-.09,0-.23.07-.19.24,0,.11.11.15-.09.06-.1.21.05.21-.21.42-.21.34-.42-.1,0-.05.21-.29v-.08L37,80.93l.06,0,.14-.21v-.13l-.06,0,.08-.31-.18-.06-.3.14-.33,0-.09.13.31.27v0l-.09.24.09,0v.13l-.31.48,0,.1.07,0h.16l.14,0h1l.21,0,.39-.26.1-.11.43-.1.1-.06.16-.24.19.14.13.1,0,0-.37.24,0,.15.11.14.21,0,.26-.21a1.9,1.9,0,0,1,.95.1h.32l.84,0,.42.13.23.08.46,0,.21-.08L43,81.51H42.6l-.23-.13a4.15,4.15,0,0,0-1.53,0l-.68-.18v-.93l-.26-.13-.16-.18.12-.16c.63-.66,1.21-.48,1.85-.74l.14-.1.31-.16,1.18-.4,0,.06.37-.08,1.11-.29.18-.4,0,0,.11-.19-.09,0-2.18-.29c-.16-.34,0-.61-.1-1a2.34,2.34,0,0,0-1.2.21l-.28,0,.21-.87,0,0,.32-.11L43.11,75c.11-.45.26-.9.37-1.35l0-.16-1-1.16.42-1,.6.79.3.39.26.14.12-.08.14-.27a3.47,3.47,0,0,1,.81-.87l.16,0L45.5,71a19.93,19.93,0,0,0,.62-3.32c.52,0,1-.42,1.54,0l-.07.08-.14.23v.19l-.37.66-.39,1-.1.22-.11.26-.19.24,0,.26.53.32,0,0,.28.5h.14l.21-.13.16-.19.34-.21.15-.13.14-.08.06.13v.06l.1.15v.43l-.56.68-.53.79.09.27.07.63v.42l.11.08.1,0h.72v.06l-.16.92-1,0-.07.16,0,.06-.26.94-.21.14-.67.26-.79.1-.07.16.05.11.86,0,.48-.22.37-.13h.47l.35,0,.11-.16v-.08l-.14-.11h-.44l.16-.89h.68l.16.1.05,0,.07-.11.16-1.4-.9-.15-.12-.85.07-.26.05,0,.74-1,.11-.05.14-.24v-.11a7.72,7.72,0,0,0,2.79,3.16,13,13,0,0,1-.42,1.83l0,0ZM51,77c0,.13-.09.25-.14.38a1.76,1.76,0,0,0-.19-.39Zm-1.45,6.24c.51-.23,1-.47,1.49-.71a1.69,1.69,0,0,1,1.45-.13s.06.06.09.08a1.82,1.82,0,0,0-.33,0,2.18,2.18,0,0,0-1.5.23A12.55,12.55,0,0,1,49.52,83.26ZM35.67,88.91v.2a8.65,8.65,0,0,1-.13,1.1h.08s0,.59,0,1.05l-.74,0L34.8,89l0-1.4.06-.84v-.19l-.06-.87,0-.47,0-2.11-.2-.08v.53l0,2.5v.63l0,.82V91.1l0,.35h-.19l-.05-.87-.13-.06-.09.69v.34h-.25v-.76l0-.43-.12-.76.11-1.29a28.4,28.4,0,0,0,0-3.06h-.11l-.1,3.14-.07,3.29-.09,0h-.07l-.09.13.09.13,0,.45,0,.45.18-.08,0-.84.49,0v.26l.19.08.08-.1,0-.32.11,0,.12-.07.26-.06.73-.1v.16a25.38,25.38,0,0,0-4.22,2.75,23.24,23.24,0,0,0-2.82-2c0-.2,0-.61,0-1.14h.07l0-.76,0-.11h0v-.3a5.59,5.59,0,0,0,.71-.15l.05-.13-.07,0H29l-.07-.08h-.44v-.43l0,0,0-.55v-.63l.15-.06.2.08.23.11.08-.11.16.06,0,.15.08.16.05-.16.1-.15,0-1.85a3.06,3.06,0,0,1,0-1v-.18l0-.13.16,0L30,85l-.12-.08-.14,0,0-1.53V83c0-.13,0-.37-.19-.47l-.11.21,0,0v1.85l0,.21-.28,0h-.61l-.11-.1a1.28,1.28,0,0,1,0-.19v-.24q0-.51,0-1.08c0-.57,0-1.18,0-1.81l0-1.52,0-.38v-.4l0-1.21a9.75,9.75,0,0,1,.35-2l.27-.68.17,0,.51.08,0-.26L29,74.92l0-.08-.08-.13-.13-.21-.19-.21a3.59,3.59,0,0,1-.15-.37A13,13,0,0,1,28,72c0-.19-.06-.38-.1-.57a3.35,3.35,0,0,0-.13-.69A3.55,3.55,0,0,0,27,68.91l-.69-.52-.07-.06,0,0-.66-.49-.3-.28-.2-.13-1-.75-.28-.21-.41-.33a19.64,19.64,0,0,0-3-2h0c-.3-.21-.81-.55-1.21-.87a2.73,2.73,0,0,1-.42-.41l0-.11a1.18,1.18,0,0,1-.1-.39,4,4,0,0,1,.2-.58c.23-.34.41-.78.76-1l.46-.4.13.06a12.79,12.79,0,0,1,1.72,1.1l.38.32,1.46,1.26.12.08.1.05.59.4.89.68a3.73,3.73,0,0,0,.82.54l.05,0a5.43,5.43,0,0,0,2.51.41h0a5.25,5.25,0,0,1,.59-.28l.39-.13,0,0c.22-.08.45-.15.68-.21l.54,0a8.81,8.81,0,0,0,1.26-.19h0l.07,0,0,0,0,0h0s0,0,0,0h0v0h0v0h0v0h0l0,0s-.42,0-.92,0h0l-.32,0h0a1.91,1.91,0,0,0-.33.06l-.13,0h0l-.11,0h-.1l-.08,0c-.29,0-.29,0-.29-.23s-.08-.17-.29-.34.14-2.22.14-2.84a1,1,0,0,1,1-1.06c.62,0,2.25,0,2.33.89s-.08.89.11,1.2-.15.41-.11.72.32.58,0,.92-.49.67-.17.91l0-.06a7.33,7.33,0,0,1,1.7.51l0,0h0l1.86-.53.3-.06,0,0,.9-.47,1.17-.62.08,0,.11,0,0-.09.12-.09.05,0,.2-.17.2-.15.08,0,.19-.16.65-.42.4-.37.58-.45.1-.14,1.38-1.08L43.5,60l.08,0v.21a1.85,1.85,0,0,0,.28.63l.28.76.16.46v.5l-.1.07h0l-.8.55-.17.1-.91.58-.09,0-.26.21-.39.32-.14.13-1.12.79-.21.16-.37.32-.14.1-.21.11-.18.15-.17.07-.14,0-.65.23v0h0a13.37,13.37,0,0,1-2,2.11l-.07.06a5.41,5.41,0,0,0-.81,3c0,.25-.08.51-.14.76a3.15,3.15,0,0,1-.24.69l-.21.42-.28.6v.16l.1,0,.08,0a2,2,0,0,1,.17.29v0l0,.07a4.59,4.59,0,0,1,.25,1v0l.11.93c0,.2.05.39.08.58h0v.14l0,.84-.06.32,0,.15-.21,1.64,0,.18.29-.08.18-2.1.09.1v.13l0,.42,0,.57V80.9l0,1h0c0,.35,0,.7,0,1s0,.83,0,1.24l-.13,1.45v1.61C35.68,87.83,35.69,88.36,35.67,88.91Zm-7.2-2.5.06,0,.84-.15,0,1,0,.71H29l-.49,0-.06-.47v-.83Zm0-.29c0-.37,0-.7,0-1h.16l.32-.06.5,0,0,.87Zm-4.35,4.11.7,0,.53,0,1.42.06h.15l.63-.14a2,2,0,0,0,.76.09l0,2.16a34.76,34.76,0,0,0-4.47-2.14Zm-.37-.34-.14.21-.09,0-.91-.36c-1-.41-2-.81-3-1.26h.63l1.18.06.68-.11h.25l.68,0,.81.08.3-.08,0,0,1.67,0L28,88.18l.16-.06.1.06,0,.37,0,1.26H28l-.47.08-1.15-.16-.63.16-1.79,0Zm4.49-12c0,.53-.06,1.08-.06,1.64v.21l0,2.58-.08,0-1-.08-.37,0a7.21,7.21,0,0,0-1.47.18l-.05.05-.15.11-.17,0-.21.11a2,2,0,0,0-1.14.08l-.44.08h-.64c-.72,0-1.42,0-2.14.1l-.12.11-.21,0-.16,0-1.32.24-.74.16-.09.16,0,.1.69,0h.15l1-.21.11,0,.26.08H20l.63-.26.2-.06.44,0,.24.11v0l0,.05.3,0,1-.15.31-.14a3,3,0,0,1,1.66-.13l.37-.18.47-.21h.21l1.36.08.63,0,.15,0,.08,0v2.16L28,85l-1.14.13-.17,0a4.44,4.44,0,0,0-1.15,0l-.15.19-.28,0-.09,0-1.64.16H22.25l-.91-.08-1.09-.18-.16.21,0,.1.38,0,1.9.18a8.84,8.84,0,0,0,1.85-.07l.95-.11.19-.08.23-.08.16-.13,1.53,0,.84-.13,0,.5v.13l-.05.29-.95,0-.24,0-1.64.13-.12.18.23.16,0,0,0-.06,1.16-.16v0l.27,0h.12l1.14.08,0,.19v.66l0,.13v.42l-.79,0h-.21l-.05,0-.65.08c-.69.18-1.37-.11-2.06,0l-.14.08-.68.1-.76-.08-.83.06H19.88l-.26,0-.53.06v0c-.67-.32-1.34-.67-2-1.07l.81-.07L18,87l.26,0h.95a5.24,5.24,0,0,0,2.16,0l.07-.13.93-.11h.18l.82.11.07-.22-1-.13h-.21l-.82.06-1.43-.16-.42.1-.07.08-.72.16-1.28,0h-.21l-.21,0-.21,0-.11.11V87a19.47,19.47,0,0,1-3-2.3,10.5,10.5,0,0,1-1.09-1.12,18,18,0,0,0,4.26,1.08,15.27,15.27,0,0,0,1.95.37l2,.25-.5-.18h0L20,85l-.58-.2.57-.1c.79.19,1.58-.34,2.4,0l.11,0h.05l1.39-.14.14-.15L24,84.3v-.13h.09l0-.08,1.47-.16a3.46,3.46,0,0,0,2.27,0l.09-.21.05-.18-.89-.13H27l-.58.1a10.69,10.69,0,0,1-1.26-.1l-.48.21-.16,0-.42.13-1.9,0-.35-.16-.37,0-.79.21-.49.06-.77-.06H19l-.16.06v.15l.16.08A7.38,7.38,0,0,0,21.66,84l.17,0,.37.08.21,0,.11,0,0,.07.13.08h.08l.32-.08.39.06v0l-.95.14-1.18-.08,0,0h-.16l-.48.08-.16,0a2.83,2.83,0,0,0-1.22.06h-.11v.18l0,0-.27-.09c-3-1.08-5.81-3.84-5.81-5.62a1.25,1.25,0,0,1,.07-.43c.05-.13.13-.19.19-.18s.15.16.11.47l0,.24h.23a1.09,1.09,0,0,0,1.24-.9,1.49,1.49,0,0,0-.2-1,6.71,6.71,0,0,1,1.59.47l.69,0,2.18-.4.68-.08h.25l.37.35-.16.6-.11.32v.61l.16.15,0,.16-.07,0-.16.11H20l-.11,0-.31.31-.48.19-.16.1-.1.13h-.28l-.78.08h-.22l-.16.06-.11.18.16.08,0,0,.18-.11,1,0h.14l.54-.11,1.52-.31a9.24,9.24,0,0,1,1.17.1l.25.05.86-.1.77,0,.11,0,.07-.24-.18,0-.68,0h-.56l-.34-.16-.42,0-.25-.21-.17-.11h-.14l-.18,0h-.09l.25-.29,0-.29,0-.37.07-.16.19-.32.06,0,.17-.11.25-.26.44,0h.21l.1-.13.25-.1.42-.11.6-.16.46.13.43.24.2.11.86.16a5.82,5.82,0,0,1,2,0l.07-.21,0-.08-.14,0h-.75l-1.68.08-.42-.22-.16,0-.31-.21-.18,0L23.73,77l-.39.13-.31.11-.35.16v-.14l.24-.36,0-.08-.11,0-.1-.05-.06-.11v-.16h-.21l-.07.35-.16-.16-.31-.48-.27-.36-.1-.19-.16-.21-.14-.13,0-.16-.1-.1-.57-.53v-.11l.1-.18.06-.29-.2,0-.1-.1.05-.16-.23-.08-.16.16-.14-.08,0,0L19.35,73l-.17-.21,0-.11-.38-.39-.14-.16L18.56,72l.2-.15.1-.19-.05-.08-.09-.45-.21-.05-.05.05-.23-.05-.14.29-.07-.1L17.83,71l-.06-.08-.22-.34-.09-.19-.21-.21L17.14,70l-.05-.18L17,69.78l-.1-.11.1,0v-.24l-.21.08-.21-.16-.07-.13L16,68.59l-.16-.29a15.22,15.22,0,0,1,1.69,1.37l.1.06.6.55v.24l.19.13.23,0a5.26,5.26,0,0,1,.93.87l.42.34,0,.19.09.11.23.07h.14l.16.21.36.29.07.11.37.42.64.63.19.16.23.19.09.08v.26l.05.1.28.27.19,0,.11,0,.07.1.16.16.26.29.14.1.33.3.27.31.46.34v.35l.21.18.25,0,.1,0,.43.32.07,0,.08-.18,0-.08,0-.08.4-.66,0-.1-.06-.21L26,76l-.09,0-.44,0-.24.18-.18.11-.95-.79L24,75.37l0-.14L23.63,75l.08-.11.12-.24v-.18l-.07-.11-.08-.23-.55,0-.05,0-.14.15-.12,0-.14-.08-.34-.29,0,0L22,73.37l-.1-.06-.69-.82-.35-.23.19-.19.07-.31v-.19l-.15-.08-.21,0-.06,0-.16.11-.17-.19h-.11l-.05,0-.14.13-.23-.16-.19-.26L19.35,71l-.43-.47-.11-.21.11-.21V70l-.22-.1-.47.08-.1-.13L18,69.62l-.2-.16L17.25,69l-.37-.29-.58-.4-.06-.08L15.93,68l-.16-.19-.18-.13-1-.63h0v0l1.31.53h0l-.09.16.21.13a16.28,16.28,0,0,1,2.35,1v.08l0,0,.62.21c1.33.69,2.65,1.19,4,2l.84.29.9.31.26.14.25.15,0,.08,0,.14.07.18h.56l2,.76h.05l.06.11.14.32,0,.13.11.26.09.26.11.37.11.13,0,.11.18.19.09.13-.27.6-.09.27A5.62,5.62,0,0,0,28.2,77.87ZM11.84,82.73a2.08,2.08,0,0,0-1.47-.23,2,2,0,0,0-.35,0s.05-.06.09-.08a1.76,1.76,0,0,1,1.48.13l1.56.75C12.72,83.14,12.29,83,11.84,82.73ZM26.51,83.8l.42-.13h.39l-.29.24h-.4Zm-10.79-13,0,.24.23.21v.08l-.12.1v.11l.15.13v.21l.32.08.33.71.06.13,0,.06.05.13.18.5h-.12l-.06.16.18.16.16,0-.23,0V74l.47.27,0,.1.09.16,0,.16L18,75.84l0,.24,0,.08-.14,0v.16l.14.11-.09.16.05,0,.53.26.14,0,.33-.45.08-.27,0,0-.18,0,0,0,0-.24-.21,0,0-.32,0-.13-.19,0v.26l-.12-.13,0-.13L18,75.42v-.19l-.09-.1-.07-.08-.26-.87.07-.05.09,0,0-.26h-.07l.07-.34-.17-.06-.09-.34-.13,0-.08.1v.22l-.16-.24L17,73l-.11-.35-.12-.24,0-.13L16.65,72l-.09-.15,0-.08v-.24l.19-.11.05-.18-.1,0-.16,0v-.26l-.1-.08-.11,0-.05,0,0,.13-.1-.13L16,70.68l-.09-.14-.07-.07v-.14l-.19-.26-.11-.34,0-.45,0,0-.16,0-.05,0-.8-1.48v-.5l.73.74.05.05,0,.11.32.42.14.29.12.1.16.24.19.13v.08l0,0,0,.08.19.19.07.1.09,0,.07.19.32.37.35.47.11.11.15.24.27.42.05.16.23.15.1.14v.05l0,0,.33.42.32.45.35.29.44.66.21.24-.12.13-.11,0h-.14l-.07.13,0,.11,0,.13-.1.19-.11.28v.35l-.4.08,0,.16-.1.15v.19l.06,0h0v0l.13.11.27.21.3,0,.05.16.16.1L20,77,19.2,77l-.18.1-.32.11a9,9,0,0,1-2.26.18l-.77-.29-.06-.1V76.9l0-.32-.08-.37v-.58l.08-.08.08,0,.24-.08v-.22l-.24-.12h-.11v-.3l-.18-.08-.08-1.26.14-.13.1-.16.05,0,.11-.1v-.13l-.19-.06v-.42l-.13,0h-.19v-.13l-.17,0-.15.13,0,0-.11.26h-.1l-.07.13.05.14.11.13,0,.18,0,.11.17,0L15,74.63l0,.24L15,75l-.26.13v.1l.07.08-.06.16.06,0,.4.21,0,.53,0,.16.07.08,0,.29,0,.21-.79-.12a2,2,0,0,0-.9-.52,1.66,1.66,0,0,0-1.45.36,1.62,1.62,0,0,0-.42.64,12.87,12.87,0,0,1-.64-2.49,7.39,7.39,0,0,0,3.45-6.29V68l.8,1.86.05.08.09.35.07.13.11.1v.16Zm2.63,5.43v-.16l.16,0-.1.18Zm3.41.58-.42.11-.16.44-.1,0-.16-.06a1,1,0,0,1,.07-.79l.16-.5.19,0,0,0,.05,0,.16.1.1.16.48.82.16.29h-.16A.91.91,0,0,0,21.76,76.79Zm.21.61-.21.31-.16.11-.14,0-.1-.06,0-.23.12-.43.11,0h.14l.17.13Zm-1.09.16.11.15,0,.08.23.19v.08l-.17.47.07.4,0,.13-.24.26-.07.13-.16,0h-.05v-.16l-.06-.1-.1-.16.21-1.48.07,0Zm.2,2.31.17-.07h.25l.05,0-.47.08Zm-.21,0-.21.16-.8.06.07-.16.48-.21.05,0,.16,0Zm-.16-4.45-.05.13H20.6l-.16.11-.19,0,.09-.69-.09-.11,0,0,0-.16.26,0c.11.08.11.24.27.38l.09.15Zm-.2.53v.16l.11.15,0,1-.09,0L20.29,77v-.1l-.16-.24L20,76.55l0-.21.14-.16V76Zm-.8-.53.05-.19.07-.28H20L20,75v.79l-.16,0-.12-.1Zm0,.69-.07.1h-.21l-.09-.13-.1-.13.26-.08Zm3.59-1.45,0-.24.07.13.06,0-.13.08Zm2.26,1.68v-.08h.11Zm.16.48.09-.16.11-.16.12-.18h.09l-.25.55h-.1Zm-11.18-10v-.57l.83-.17,1.43-.29.79,0L19,65.43l.28-.11-.37.69v.26l-.31,0,0,.13-.21.06L18,66.43v-.21l-.11-.08-.16,0-.45,0-.06.22h-.38l-.27,0-.05.21.05,0-.05.16-.19-.08v-.19l-.18-.13H14.61l-.06.37.33.11.63,0,.16.21-.79-.26-.33,0V66.8Zm3.33-10.28-.65-.08-.46-.23L16.51,56l-.18-.08-.82-.74-.06-.13.06-.21h.05l.16-.14.14-.13.49-.37.09-.13a2.52,2.52,0,0,0,2,.32l0,.76,0,.5v.53l0,.29-.1.05Zm.4.32L18.2,58l-.11,0L17.65,57l-.14-.21Zm-2.83-2.29-.15.18,0,.42a3.63,3.63,0,0,0-.73-1.21V52.78l.22.16.56.16a5.42,5.42,0,0,0,.9.89Zm0,3.68a4.84,4.84,0,0,0,.18-1.35,5,5,0,0,0-.19-1.38l.09.1.18.08,0,.1.23.19.47.26.37.34.25,0,.21.13,0,.11.1.13V57l.11.13v.06l.19.29.53,1,.1,0,.16-.24V58l.07-1.21.19-.64a8.06,8.06,0,0,1,.06-1.84c.75-.24,1-.71,1-1.11.3-.18.46-.66.36-.79.22-.31.26-.71.07-.87.08-.13.19-.47,0-.53l.58-.39.14-.13.28-.11.1,0,.09-.07-.16-.14.07-.18.11.16.21-.06.1-.05.2,0,.23-.11.24-.05.7-.24.32.21.37.32.25.26.26.37.12,0,.14,0,.11-.1-.14-1.16-.23-.05-.16-.16-.25-.16-.12-.32-.21-.1-.09,0h-.15l-.43,0-.22,0-.2.19-.58.42-.26.08,0-.24,0-.05-.05-.06.21-.1v-.21h.21l.35,0,.1-.1v-.13l.85-.14.26.19.18.13h.1l.09,0,0-.19-.12-.08v-.1l-.21-.16-.14,0-1.07.08v-.08h.12L22.5,48v-.08l.42,0,.18,0,.08,0,.92.08.79.08,1.53.85,1.3.31.86.29.32.08,0,.42.23.5.14.13v.14l-.14.68c0,.32.4.42.58.64v.15l.16.24.1.08-.1.13-.58.82-.11-.61-2.6,4.3,2-2.22v.87l1.78-3.21.75.08a2,2,0,0,0,.77-.24l.16-.16.22.13h.22L32,52.6l-.08.08-.1,0,0,0c0,1,.1,2.08.12,3.13l.46-.26.44,2.79.05-4.77-.53.32-.07-1,.16,0a1.11,1.11,0,0,0,.91-.45l.16.11.85,1-.76-.13,3.18,3.56-1.5-2.72h.5L33.9,51.15,34,51l.15,0,.06,0,.35-.21.07.07.68-.1h.21l.46-.13.32-.08.6-.29.14-.11.1-.08.07,0,.42-.37h.25l.26-.13.79-.69.6-.13.16,0,.4-.19.11,0,.12-.08.42-.24.06,0,.24-.27.18.32.14.32L40,51l-.21.29,0,.13v0l.12.16.79.58.32.32a.77.77,0,0,0,.68,1c-.28.29.41.82.94.8-.38.47.94.81,1.8.5l.09,0,1.34.9.1.07.09-.07.86-1.16.11-.14.4-.63.07-.08.42-.5.06-.21-.22-.05h-.05l-.58.82-.22.26-.32.5c-.16.18-.25.45-.42.53l-.73-.48-.06.19.68.55,0,.08h-.2l-.84-.69.84-.42.88-.76.13-.13L47,53.2l.05,0,.32-.24.11-.11.17-.1.36-.22v1.42a4.12,4.12,0,0,0-1,2.49l-.13-.11c-.39,0-.79-.13-1.16.13l-.16,0-.37-.16-.31,0h-.13l-.15,0-.46-.13c-.47-.08-.91.34-1.42.13l-.69,0h-.26l-.07,0-.41,0-.21,0-.21.13h-.12l-.14-.08h-.11l-.21.08-.07-.13-.21,0-.19,0-.05.32.05.19,0,.05.07,0,.16-.13,0,.06h.21l.17-.06.37.11.09-.05.28-.19H42l.11-.08.42.08c.37,0,.77.26,1.14,0l.11,0,.28,0,.16.08h.4l.49,0c.62.13,1.21-.08,1.85,0v0a5.62,5.62,0,0,0,.09,1.31l-.49-.13,0-.13-.22-.11-.05,0h-.74l-.95,0-.31,0-.16,0-.28,0-.09.11.37.15,1.14,0,.69,0,.33.06.05,0-.12.08L46,58.1l-.14,0-.12,0-.2.06L45.39,58h-.12l-.05,0,0,.05-.11.14-.14,0-.53.29-.26.19-.16.08-.28.26-.1.26-.11.32-.32.1,0,.14-.31.23-.2.14-.44.36-.55.53-.1.09-.12,0-.07-.37-.09-.48v-.15h.11l-.27-2L41,58.18l-.24,0-.27.08-.05,0-.17,1.93-.11.71-.4,0-.16,0L39.54,60l0-.74.2,0,.31,0h.07l.09-.13v-.13h-.47l-.16,0,0,.07,0-2.74,0-.08-.16-.1-.07,0-.14.08-.33.11-.14,1.4-.06,3.29-.54.05-.06,0-.1.11-.09.52-.07,0,0,0-.21,0-.13-1.56v-.21l0-.08v-.36l-.13-.11-.1,0,0,0-.25,0-.07.08,0,.34v.24L36.42,62l-.06.06-.37,0-.05.06,0,.18,0,.56-.35-.06V61.45l0-.05,0-.32L35.43,61l-.18.08L35.06,61,35,61l0,.1c-.11,1.16-.27,2.32-.44,3.51l-1.21-.42c.07-.58.75-1.11.42-1.69V61.35l-.1-.27-.21-.18-.34-.63L33,60.05c-.13-.1-.27-.15-.28-.29l-.21-.15-.41-.06h-.7c-.46-.08-.63-.23-1.11.14a3.45,3.45,0,0,1-.53.71,1.61,1.61,0,0,0-.35,1.18l0,.13,0,.08-.22,1.53-1.68-1-.55-.5-.05,0-.05-.11-.3,0-.12.11-.25.1-.12,0-.83.21-.74.26-.12.11-.35.16-.21.16-.13-.09-.44-.33c-.42-.34-.83-.67-1.25-1L21.5,61l-.16-.08-.74-.42-.35-.2L20,60.16h0l-.14-.07-.06,0-.06,0-.05,0h0l-.13.15-.15.13-.3-.14c-.12-.08,0,0-.1-.16l-.07-.37,0-.13-.18-.37L18.41,59l-.16-.15-.32-.21-.28-.16-.21,0h-.05l-.11.13-.58-.42-.1-.08-.06,0-.26-.13-.37,0-.35.18-.16.45v.69l.09.16-.09.23c-.05.29.09.37.19.61l.22.26c.21.19.59.58.8.82l.27.16a1.67,1.67,0,0,0,1.35.45l.05.21a.85.85,0,0,0-.05.48v.07l0,0,0,0a1.33,1.33,0,0,0,.46.65l1.11.79-.11,0L19,64l-.12,0h-.15l-1.49-.37-.24,0-.34.11-.16,0-.77.37-.16,0-1,.43-.09.21,0,0,1-.34.88-.42.12,0,.16-.1c1.09-.35,2.15.68,3.22.39l.14,0,.11,0,.05,0,.21.15.08,0,.05,0L20,64.8l-.35.13-1.21.34-.37.08,0,.08h-.19l-.49.13a5.3,5.3,0,0,0-2,.27l-.79.21h0v-5.4A11,11,0,0,0,15.41,58.23Zm4.51-9.4-.37.94-.14.24.26-1Zm-.25-.4.11-.5.08,0,0,.45Zm.41.9L20,50l-.14.18-.28.16Zm.21-.21.1-.14h.34l-.13.35-.09.15-.26,0,.11-.29Zm.42.76.26-.4v-.07l.21-.14-.1.5-.11.14-.09.15-.21,0Zm.26-1,0-.1h-.35l.09-.16.65-.05,0-.29.32,0,.05.05v.11l-.14.08-.39.26Zm-.74-.63.11-.08.05,0,.21,0,.13,0v.16l-.22.08-.26.28-.26.06,0-.24Zm-.05-.66.23-.26.3,0,0,.19-.13.21-.19.13-.16,0ZM20,50.12l-.11.29-.12.08Zm-.21.68.3-.18.05,0,.65-.29,0,.13-.12.05-.16.11-.41.23-.16.11h-.1Zm9.43-1.74v-.34l.2-.37.07-.58.24-.34.58-.24.07.08.09,0,.07,0,.06-.06.3.06.22.21v.31H31l-.05,0-.07,0V48l.16.08.84.24,0,.89h-.94l0,0,0,.16.11.07.88.06.74.1v.08l0,.05-.26.4-.15.21h-.73l-.71-.08-.14.08v.11l.09,0,1.23.16.41-.08v.18l-.11.35-.19.13-.32,0-.6.06-.53-.08v.13l.23.16,1.22,0v.21L32,52l-.12.19-.25.23-.64.08-.25,0-.6-.27-.09,0V52l-.48-.47a.85.85,0,0,1,0-.79l0-.21-.12-.08-.2-.27-.07-.16v-.6l.16-.21Zm5-1.84.47.24.36.31.1.13.05.32-.05.26-.09.11a4.13,4.13,0,0,0-.79-.77l-.07-.15L34,47.43l-.11-.11-.53,0,1.8-2.22-.81,0,2.48-2.16-1.9,2h.84l-1.84,2.24Zm.46,1.24v.37l-.2.13h-.21l.06-.37.14-.26ZM33.25,50.3l.07.16v.28l1.92,3.15-.56-.37L32.85,51l-.26-.26,0-.21-.07-.14.26-.42,0-.42.47-.53.18.14.51.1.1,0v.47l-.26.66h-.35l-.18-.26h-.1Zm1.5,3.48.82,1.48L34.25,53.7ZM32.2,52.25v-.13a1.16,1.16,0,0,0,.12-.69l.2-.31,0-.18.16.13.1.23-.1.13h-.09v.14h.1l.06,0,.1-.13.19.21.23.29-.12.24-.11.1-.5.16v-.13ZM34,49l-.69-.29H33.2l-.05-.06-.06,0-.45.71h-.11l.06-.26V49l-.23-.29-.11,0-.09.13.09.21.06.06-.15.29h-.07a1.79,1.79,0,0,1,.07-1l.16-.19.25-.1.17-.16.16-.05.48-.21.36-.06.27.19.16.5-.07.5Zm.94-4.72-.21.24-.52.47c0,.16-.13.16-.07.37l.58,0L33,47.27l0,.08-.07.16h-.05l-.25.05.79-2.45.21.5,1.46-4H38Zm-1.23.93-.21-.41L32,48.31l-.39-.12,1.75-4.42.31.45.67-1.88-.44.16,1-.89H35ZM30.32,43l.21-.64L31.16,45l.3-.55.18,2.32-.23-1.53-.3.53-.63-2.61-.28.31-.32-1.89h0Zm-.08-1.37h.33l-.2.5Zm1,2.81-.61-2.81h3.3l-.35,1.15,0,.08.16.06,0,0,.06,0,.12-.13-.32,1.11-.31-.4L32,46.85l-.31-3.4Zm3.13-2.53,0-.18,0-.1h.16Zm-.31-.72H30.12l-.67-2.43h5.36Zm-4.07,3,.37-.53.53,2.53v.21l.19.05.07-.18.06-.13.29,1.63-.16-.47-.08-.11-.18-.08L31,47l0,0-.27-.43-1.84-3-.25.47-2-2.39h3.06Zm-1.33.23.17-.39,1.85,2.85h-.32l-1-1.61-.08.31-.44-1.18-.21.34-.88-1.32Zm1.21,8.76-1,1.76-.11-.39-.9,1,1.25-1.9.05.35Zm2.18.18.25,1,.31-.26,0,1.63-.26-.6-.23.26Zm9.89.47c-.21-.29.28-.42.18-.58-.76.14-1.34-.63-.63-.79l.47-.1.26-.08.93-.32,1.06-1L44,51a2.25,2.25,0,0,1-1.49.79l-.19-.18h-.16l0-.21.21-.16a6.32,6.32,0,0,1,2-.82c.74-.18,1.46.24,2.22.13l.68-.23.58-.14.14-.08h0v2.16l-.64.35-.3.18-1.55,1.32-.68.37-.67.24A1.62,1.62,0,0,1,43,54.55c-.1-.19.05-.27,0-.43C42.64,54.07,42.55,54.23,42,53.83Zm4.27-3.53L45.08,50l-.6.08-1.42.42a4.43,4.43,0,0,0-1.21.74l-.09.15,0,.27,0,.08.21.13.19,0V52l-.24,0-.37-.23-.6-.35.53-.73.1-.16.71-1,.19-.24.26-.45.23-.24.42-.57.11-.14.24.11.16.1.69.61.23.26.1.11.58.55.37.29.47.32Zm-4.58,1.85h-.25l0,0-.16.08-.65-.42-.53-.4.63.08A9.24,9.24,0,0,1,41.64,52.15Zm5.81,18.61-.07.1-.09.08-.15.13H47l-.37-.31,0-.27Zm-.63-.51.37-.86h.1l.09.31.07.77-.07,0Zm1.11.45.15,0-.22.26L47.8,71l-.37.29-.1,0-.16,0,0-.1Zm-.07-.26-.15-.16-.07-.63-.19-.58,0-.4.22-.34L47.8,68l.11-.13L48,68v.61a7.63,7.63,0,0,0,.15,1.53l-.05.06Zm-1-4.59,0-.23,0,0,0-.34h-.13l.08-1.87-.08.1-.24,2.21h.14l0-.07,0,.21,0,0-1.25-.08v0l-.09-.16,0-.1a10.67,10.67,0,0,1,.21-1.64h-.15l-.15.37v.11L45,65.93h-.64v-.34l-.19-.08-.05.08.24-1.37-.14-.11-.22,1-.16.5-.06.26.07.37-.12.11-.19-.06h-.16l0-.13,0-.37-.14.08-.07.4.07,0-.54.27v.13l-.1.16h-.06l-.3,0,0-.5-.15,0,0,.51L42,67l-.37.38-.07,0-.05-.19a10.84,10.84,0,0,0,.1-2l0,0L41.34,65l-.06,2.45-.21.13-.26.29-.12.18,0,.21-.18,0,0,0-.35.35A8.1,8.1,0,0,1,37.89,68l-.42,0,.63-.71a.61.61,0,0,0,.07-.14l.13-.18.08-.05.27-.08.63-.26.15-.1h0v0l.08-.06.24-.16,1-.81.39-.29.41-.29.11-.1.37-.27.17-.11.07,0,.12-.08.33-.21.25-.16.16-.1.44-.27.26-.21.09,0,.21-.19,1.44,0v.08l-1.34.21-.08.21a5.59,5.59,0,0,0,1.56-.18l.21-.14.12.06.09,0,.07-.21.4-.24.13.06h.56l.18-.14.1,0h.16l.09.07H48v3.43l-.46-.2-.27-.08Zm.35.29,0,.27H46.8l-.09-.27Zm-1.58.53v0l0-.08-.13,0-1.16-.24.07,0h.16l.19-.06.16.11.13,0,.68.14Zm0,.11-.13.1-.24.08-.11,0-.1-.11h.42Zm-.74-.06,0,0C45,66.64,45,66.75,44.92,66.72Zm-.12,0h-.09v0ZM37,76.92l.59,0,.56-.08h.13l1.21.08-.1,0-.18.08H38.07l-.5.16-.47.34-.09,0v0l0-.29L37.1,77Zm2.39-.29-1.06,0-1.44,0,0,0,.15-.43.67.11.74,0,1.27.14.17,0,0,.1Zm-.85-4.82v-.45l.31,0,2.5.31.21.24-.16,0-2.6-.29-.09.14Zm0,.68h.07l2.25.29-.09.35-.21.13h-.28l-1.62-.13-.7,0-.11-.08.21-.42h.34Zm2.81-.92-.07,0-1.46-.24-1.12-.13V71l.26.1.21-.1,2.11.39C41.44,71.39,41.34,71.49,41.39,71.57Zm0-.37h-.21l-1.84-.39.15-.29,2,.5v.13Zm-2.28-1.13v.18l.09.19,0,.08-.16.18-.12.08h-.32l-.45.79.1.11.05.23.06.06-.13.31-.16.06v.1H38l-.11.08v.13l-.32.48v.24l.16.13.11.18-.19.32-.08.21-.15,0h-.05l-.3.72,0,.1.16.11,0,.18,0,0,.1.16-.1.42-.32.08-.31.79.05.1.23.08,0,.08-.16.42-.31,0-.37.1-.14,0-.16,0,0-.29,0-.05-.14-.06-.11-.7v0a11.18,11.18,0,0,0-.17-1.2l0-.23,0-.14-.05-.13L35,74.39l0-.08h-.12l0-.06,0,0a7.5,7.5,0,0,0,.85-3,5.52,5.52,0,0,1,.44-1.87l.8-.83.32-.32.12,0,.47.11.14,0h.13a7.71,7.71,0,0,0,1.74.53l.09.34-.16.08h-.05l-.62.74ZM38,74.52l1.49.11.63.05.2,0-.09.31L40,75h-.47l-1-.08h-.22l-.94,0,.15-.4,0,.08Zm1.6,1.66-1-.15-.58,0-.35,0h-.23l.07-.37.4-.06,2.38.19.07-.05V75.6l-.13,0-.45,0-1.5-.13-.74,0-.15-.11v-.15h.33l1.74,0h.25l.43,0,.09.16.16.21.05.16-.08.26h-.11l-.11,0L40,76l-.07.15Zm.72-1.74-2.48-.15.16-.45.1-.11,0,.11,2.5.24.16-.11v0l-1.18-.19-1.48-.13-.1,0-.11-.26.74,0h.65l.9.08.47,0,.16.44L41,74l-.14.44Zm-.41-2-.63-.08-.68,0,0-.29.05-.08.14.08h.33l2.43.24-.12.34-.27,0-.15,0Zm.32-1.92-.74-.19-.1-.08v-.13l.21,0,2.63.55-.17.26-.14,0Zm1.93-.08-2.67-.56.27-.34,2.37.55,0,.06.07.31ZM42,69.78a9.15,9.15,0,0,0-1.74-.39L40.11,69a6.06,6.06,0,0,1,2.21.45l0,.13-.14.19Zm-1-.9-.63-.1.07-.13.21.07.21,0,2.25.61-.14,0h-.26l-.27,0ZM43,69,41,68.44l0-.16.34,0,1.88.45v.32Zm.09-.5-2-.47.16-.24.16,0,.35.1,1.81.27ZM42,67.67l-.16-.08.09-.21,1.86.34.46.06.1,0-.26.18-.25-.08-.12.06Zm2.25,0-.62-.08-1.07-.21-.32-.11a4.42,4.42,0,0,1,2,.14l.21,0h.09v.24Zm.07-.5-1.39-.21.07-.24.14,0,.23,0,1.26.21.09.05-.09.13-.07,0ZM44,66.54h.17l.16,0v.11l-.21-.06Zm.43.08h.14l.07,0Zm1.11-.5.14-.16.39.1-.18.16Zm.72-7.88h.16l.44-.19-.11.21-.49.29-.89.42-.15,0,0,0-.05,0,.05.13.16,0,1.05-.5.37-.32.2.08-.46.42-.42.24-.16.13-.21.05-.11.08-.12.11v.08l.18.08.84-.51.35-.26.16-.05-.51.58-.21.08-.32.26-.26.11,0,.13,0,0,.19.05.23-.21.09,0,.42-.21-.19.15-.11.19-.16.13-.52.39-.39.22-.93.23-.11-.08-.12-.26L44,60.5l-.09-.23-.11-.35,0,0,.07-.35.67-.68.12-.08.14-.08.53-.21-.05.18Zm-1.51,4.31v0l.15,0,.11-.1,0-.11,0-.61.46.11v.37l.55.13,0,.4-.09.1-.65.06h-.82l0-.07.26-.18Zm1.51.22.07-.16.16-.87.16-.5,0,.11.07.94.06.08-.08.19-.21.08-.19.13Zm1.8-.33a1,1,0,0,0-.53,0l-.32.16L47,62.56l-.07-.71,0-.82L48,61v-.19l-.15-.1-.2.05h-.21l0,0H47l-.16-.14-.1.06-.08.21V61l-.15,0-.16.24-.25.76-.12.06,0,0-.21,0,0-.08-.05,0,0-.19-.11-.05,0,0-.07-.11-.51.08-.07.13,0,.21-.16.34,0-.23,0-.08,0-.24-.07-.16,0-.13,0-.21h.07l.09,0c.26-.08.49,0,.75-.23l.14-.08.11,0,.12-.11.06-.05.09,0,.31-.24.16-.15.21-.14.47-.66.18-.26v-.67A12.67,12.67,0,0,0,48,60.63ZM40,61.79l-.11,0h0l-.12,0-.06,0,0,.16.13.65h0l-.11,0-.11,0-1,0-.15.55-.63,0-.1-.08-.13,0-.08.11,0,.34-1,.08-.07.08,0,.55-.21.08-.07.05H36l-.33.11h-.09l-.05-1.27.14-.1.38-.08.09-.24,0-.53h.26l.07,0,.06.11h.09a13.3,13.3,0,0,0,.31-2.14l0-.45h.16l.08,1.53.06.79.16,0h.2l.43,0,.07-.1,0-.56.65,0,.09,0,0-.32,0-1V58.89l0-1L39,56.6h.26l.07,3.14v.68l0,.58.06.08.61,0h.11l.16.13h.07l.08-.29,0-.13,0-.53.05-.08,0-.39.1-1.4h.18L41,60.05l.07.22H41l.19,1.13-.07.17-.37.29-.07-.07Zm.58.2-.45.35-.19.06v-.34l.32-.13.19,0Zm-1.22.8-.28.32-.26.08-.19.05.1-.42Zm-1.1.56-.53.29v-.19Zm-.85.45-.42.36-.33.06v-.34Zm-2.05.73c0,.15-.24.23-.36.3h0l0,0-.14-.08.5-3.4.11.13,0,2.06Zm-5.71-.1.05.08-.11.13-.26.08-.14,0-.26.16-.22.11L28.32,65l-1.74-.21-.16-.08-.65-.39-.25-.13c-.48-.34-.95-.7-1.4-1.07l.08-.17.11,0,.14-.11.33-.18.16,0,.21-.06.88-.24.12,0,.69-.27a7,7,0,0,0,1.95,1.32l.19.11.27.23.12.08,0,.22.13.23ZM16.07,59.61l-.16-.14-.32-.31,0-.19.09-.08,1,.74L17,60l.06-.06.05-.05-1.42-1.16v-.16l.05-.26.26.16.37.31.37.32.51.39.12.08,0-.1L16.83,59l-.27-.24-.68-.58.26-.1.4.21,1.39,1.18,0-.08-.67-.55.25-.18.26.08.33.29.48.5.08.21,0,.13.05.29.09.16c.11.1.07.13.23.21-.23.42-.58.74-.75,1.13l-.11,0c-.42-.13-.51.13-.95-.26l-.21-.14L16.81,61l-.32-.26-.14-.13,0-.08-.45-.42-.21-.35a.25.25,0,0,1,0-.31l.68.6.16.16.16,0h.1Zm10.12,9,.44.31.1.11.11.13.16.24.19.23.13.37-.07,0L27,70l0-.26-.28-.11-.09-.07h-.16l-.07,0-.09.21h-.12l-.25-.08a24.87,24.87,0,0,0-2.6-.73l-.1-.14-.25-.1h-.54l-1.37-.37L21,68.22l-.15-.07h-.14l-.13.15L18,67.65l.05,0,1.55.23a8.76,8.76,0,0,0,1.52.08l.25.08.63.14.11.23.21.14h.12l.09-.06.05-.16,1.6.4.83.13.23.4.36-.11.2-.13.05-.16H26l0-.11-.43-.07v-.11l-.31-.24h-.12l-.36.08v.19L22.31,68l0-.08-.14,0,0,0c-1.48-.29-2.92-.24-4.43-.68l-.42-.06.3-.08c.63.11,1.22.08,1.86.19a13.77,13.77,0,0,1,2.74.21l.82.11.53,0h.95l0,0v-.16l-1.13,0V67l0-.23,0-.06-.08-.08-.16.08-.34,0h-.14v-.13l-.16,0,0-.66h-.1l-.06-.13h-.59l-.16.11V66l.07,0-.05.4-.27.1-.07-.1h-1.4l0-.08,0-.48-.3-.39-.16-.19.58-.23h.2l.44-.19.16-.13,0,0,.31.19,1.31.89,1.74,1.31v.05ZM26,71l1.18.45.31,0,.2,0v.11l.22,1.21-.17,0-1.58-.68,0-.21-.26-.45-.16,0-.12,0-.14.35-.49-.27-1.59-.63v-.18l0-.11-.21-.13,0-.16-.26,0-.14.08-.13-.08-.05.1v.11c-.47-.13-.9-.48-1.32-.58L21,69.83v-.16l-.26,0-.26.08-.06,0-.56-.26L19,68.88l-.1-.16-.11-.07h-.3a17.76,17.76,0,0,0-2.39-1L18,68l.44.23,1,.35.42.29h.09l.52.16,1,.34v0l0,0,.54.14.77.44,1.11.35.26,0,0,.06.05,0,.41.26h.17l.06,0,.45.13.18,0,.09,0V70.6l-.21-.11-.27-.08,0-.21v0L25,70.07h-.25V70l-.07-.08-.19.06-.34.13L23.36,70l-.42-.13-.6-.23L22,69.39l0-.14-.07,0-.09-.13h-.17l-.06.05-.94-.26L20,68.59l-.16-.13h-.21l-.36-.26,1.17.26.35.13,1.34.37.67.06.22.31.14.11h.13l0-.19,2.55.69.47.13.11.24,0,0,.15,0,.23-.16.37,0,.09,0,0,.13.06.29.12.66h0l-1.69-.5-.05,0Zm-9.81-3.88.16-.08v.19l.13.11h0l-.06,0v0l-.32-.08Zm-1.4-.36,0-.16,1.34.1Zm2.63-.37.06-.08.21.1,0,.11,0,.13.11.08.05-.08.63,0,0,.32-.3,0-1.39-.1-.16-.08v-.16h.58l.18-.13Zm-.28.71-.08,0-.34-.08Zm.58.37.16.13h-.14l-.07.1h-.09l-.89-.31Zm7.54,1.32.23,0-.21.16Zm-5.53-2.14,1.17,0,.11,0,0,.47h-.84l-1.32-.08-.05-.5.12.06.09.1.12-.18V66l.21-.29.25.29,0,.66Zm2-.74.35,0,.12.1.05.35-.07.1h-.45l0-.45Zm.56.79.05,0,.11.37.12,0,.11-.18.42,0v.58l-.44,0-.14-.1-1.27-.19-.05-.5ZM35.8,91.55l.22,0-.22.12Zm8.68-20.16.39-.24.16,0-.27.23-.12.16-.19.16-.07.11-.2.07Zm-.63.55h-.09l-.1-.1-.55-.72L43,71.07l.25-.37.44-.66,0-.1,1.14.26-.16.79-.08.11C44.29,71.23,44.06,71.65,43.85,71.94Zm1.12-2h-.1a2.42,2.42,0,0,0-.81-.27L44,69.6l.56-.72.37-.34.43-.37L45,69.81Zm.3.18.12-.42.36-1.82.12,0-.32,1.61-.26.87-.11.61,0,0h-.07Zm-2.78,4.32-.1.11-.18.08-.57.13L42,73.5l.1-.5.14,0,.27.24.11.18.12.11,0,.08Zm.16.43h-.17l-.25,0L42,75l-.44.14V75l.18,0,.47-.11.2-.11,0,0,.16.05Zm0-1.8v0l-.11-.13-.14-.14-.16,0,.06-.21.14.13,0,.08v0l.11.14.11.18Zm-.22,3.27.12.06,0,.55,0,.16h-.39L41.81,77l-.23-.16-.37-.08,0-.16ZM39,80.53l-.11.08L38.7,81l-.1,0-.29,0-.26.21-.21,0,.07-.16L38,81c0-.29.15-.55.12-.82l.09-.15.12,0,0,.13.13.14.24-.14.06,0,0,0,0-.14-.23-.13.07-.18.79,0,0,.42,0,.13.13.08v.08l.14.1.17,0,.09.11v.21l-.09.29,0,.11,0-.11L39.63,81l-.37-.31v-.08Zm3.85-7.19-.07-.16.1,0Zm.15.34h.2l-.25.63-.12.29,0-.21.09-.5Zm8.76-21.36a2.92,2.92,0,0,1,2.07,1.09,3.87,3.87,0,0,1,.46,1.79,2.57,2.57,0,0,1-.57,1.68A3.67,3.67,0,0,0,53.48,54v0A3.43,3.43,0,0,0,51,52.67a3.25,3.25,0,0,0-.93.07A3,3,0,0,1,51.78,52.32Zm.51-15.2V47.79h-2v4.36a4,4,0,0,0-1.13.73,3.12,3.12,0,0,0-.47.49l-.21.16V46.2h2V39.09H48.63l0-.12-.16-.58-.05-.08,0-.18L48.29,38v-.16l-.12-.1-.05-.32L48,37.33l0-.07-.1-.14Zm-2.23,4.47-.41.09-.2,0-.54,0-.1-.15-.11-.35a5.22,5.22,0,0,0-.16-1.31l-.09-.14.15-.2h1.46Zm-6.83-3.2.11-.11.42-.05.56-.29.28-.5v-.21l-.11,0,.23-.16L45,37l.07-.07.19-.1h.12l.52.07h.21v0l.16.36.19.18.08.29.42.18.24.14.11.13.05.18.21.32.12.13H48L48,38.6l0-.11.1-.1.11.16.1.87-.16.21v.1l.11.08v.08l.05,0a5.43,5.43,0,0,1,0,1.61l-.1.24-.41.42-.16,0-.12.16v.11l.18,0-.39.34-.05.16.16.08.7-.77.24-.34.18-.29,0,.21.15.24.1.13v.14l.16.05.1-.05,0-.16L49.07,42l.47-.11h.16l.28-.08h.08v3.93H48v2.63l0,0,0-.08a1.24,1.24,0,0,0-.14-.74l-.23-.6a5,5,0,0,0-.45-1.53l-.06.05.16,1.16.09.13.12.5.19.48.06.82-.11.07-.21.14-.09.16-.54.23-.16.11-.11,0-.19.11-.07.18,0,0,.35-.13.12,0,.06,0,.14-.05.12-.08.42-.24A2,2,0,0,0,48,48.5v1.3l-.36.13-1.12.24c-.2-.21-.53-.37-.69-.61a15.32,15.32,0,0,1-1.79-1.66l-.37-.23,0-.16-.27,0v.14l-2.46,3.4-.21.23-.21,0h-.33l.07-.24,0,0L42,47.72h.14L40.53,51l0-.1h0l1.87-3.17.21,0-2.09,3.4h0l.16,0L43,47.72l.21.08.07-.16-.1-.13-.21,0h-.37l-.06-.27-.06-.31-.2-.24-.21-.4L41.74,46l-.16-.19-.74-.5-.1.13v.08l.16.19.42.29.26.31.18.13.14.24.16.27.17.5-.33,0-.3.29-.05,0-.11.11,0,0v-.08l-.11-.42-.12,0-.4.31-.07,0-.2.18-.37.24-.73.32-.69.15-.05,0-.16.19-.05.08-.53.39-.07,0,.07-.42-.11.06-.15.15v.08l-.44.53-.2.13h-.1l-.65.42-.14.06-.28.07-.16.06h-.35l-.37.08,0-.08.05-.27-.16,0-.43.4h-.09l-.16.13-.11.08-.21-.06-.12.16-.1-.16v-.07h.21l.26-.22.1-1.08.16,0,.27-.08.07-.18.21-.19h.21l0,0,.21-.24V48l-.16-.29a2.65,2.65,0,0,0-1-.68l0,0,.32,0,0,0,.16-.14.45-.23.16-.06a8.29,8.29,0,0,1,2.11-.18v-.16L37.37,46l.07-.16.13-.23.08-.08c.35-.45.79-.42,1.19-.66l.23-.19.62-.44.15-.11.07,0,.2-.1.59-.37.16-.08a2.75,2.75,0,0,1,1.83-.13l1.39.13h.16l.58-.5L45,43l.41-.26h.1l.23.13.2.13H46l0,.08.07.13.09.16-.05.4.26,0,.07-.21-.05,0-.11-.39V43l.16,0c.3.1.58-.16.88-.14l.1-.21-.24-.05a1.13,1.13,0,0,1-.9.16l-.53-.14-.21,0-.22-.16,0-.05-.12-.13-.51-.69-.18-.13-.09,0v.08l-.1,0-.23-.16-.05,0-.09-.1-.07-.14-.11-.68v-.05l.23-.06.35-.5.44-.16.2.24H44.8l-.41.29-.07.16-.14.29h.21l.09-.08.18,0,.1,0,.09-.21,0-.05,0-.08.1-.08.06,0,.12-.08.05.08,0,.16v.19l.1.07v.13l.12.11.09,0,.07-.19-.12-.32,0-.21-.1-.26-.12-.19-.11,0-.3-.21h-.1l-.18.16-.16.05-.14.08-.17.16-.09,0-.23.31L43.55,39l-.11-.07-.21-.4Zm-.79,1.32.11.08.1.26.11.08.05,0,0,0,0,.16.16.16.07.16.19.13.32.08.16.61.38.26.21.13.14-.13.27.37.17.24.11.18,0,0-.06.06-.1.05-.23.19-.11.1-.4.29-.07.05-.35,0-1.07-.21L41.9,43l-.21.08-.62.13-.07.08h-.16l-.45.21-.11,0-.84.53-.37.29-.07,0-.19.16-.32.21-.12,0-.32.16-.3.11-.16.13-.15,0-.13.23-.1.08L37,46l-.1.06h-.16l-.84.05a4.48,4.48,0,0,0-1.23.42l1.68-1.82-1,0,2.84-3H41V39.53h1.41Zm-.13-2.59-.15.29.07.77-.07.13.07.08v0l.14.48.06.18v0H40.61l0,2.08h-2l.54-.57-.67.57H35.31l.26-.72-.59.72h-.45L35,38.74h3.93v-.05h0V37.12ZM21.78,35.5l-.14-.16a3.87,3.87,0,0,0,.45,0,.83.83,0,0,1,.86.46l.1.16.14-.11a1.57,1.57,0,0,0,.36-.37,1.4,1.4,0,0,1,.28-.31l.09-.07,0-.12A1.88,1.88,0,0,0,23,33.75a1.13,1.13,0,0,1-.46-.42,1.73,1.73,0,0,1-.13-.52,2,2,0,0,0-.27-.91,2.61,2.61,0,0,1,.59.66,3.88,3.88,0,0,0,2,1.67l.09,0,.95-.72-.13-.13c-.46-.47-.55-.69-.55-.88a1.1,1.1,0,0,1,0-.18,2.53,2.53,0,0,0,0-.3,1.52,1.52,0,0,0-.1-.5l.19.28A2.53,2.53,0,0,0,26.55,33l.08,0,.05,0,.35-.21.41-.25,0-.12A3.49,3.49,0,0,0,26.83,31c-.18-.28-.31-.45-.31-1.76,0-.08,0-.18,0-.27A1.91,1.91,0,0,1,27,30.14l.06.31a1.11,1.11,0,0,0,.5.71,1.6,1.6,0,0,1,.68.91l.05.15.95-.23.29-.08-.11-.19a.52.52,0,0,1-.08-.3,2.07,2.07,0,0,1,.17-.66,4.44,4.44,0,0,0,.21-.8,4.6,4.6,0,0,1,.09.6,1.37,1.37,0,0,0,.71,1.26l0,0h.94l0-.09a2.71,2.71,0,0,0,.33-1.22,2.55,2.55,0,0,0-.06-.51,2.85,2.85,0,0,1,0-.41.86.86,0,0,1,0-.22,1.23,1.23,0,0,1,.25-.54,2.11,2.11,0,0,0,.26-.5s0,.06,0,.08a3.68,3.68,0,0,1-.05.58,5.22,5.22,0,0,0,0,.58c0,.1,0,.2,0,.3a6.82,6.82,0,0,0,.23,1,5.5,5.5,0,0,1,.21.92v.11l1.06.25,0-.14a2.86,2.86,0,0,0,.16-.84,1.37,1.37,0,0,1,.74-1.25,2.65,2.65,0,0,0-.23,1,2.15,2.15,0,0,0,.39,1.25l0,0,.76.19.25.06.07-.06a2.17,2.17,0,0,0,.8-1.49,1.09,1.09,0,0,1,.12-.47,1.5,1.5,0,0,1,.47-.44,2.39,2.39,0,0,0,.58-.54,1.38,1.38,0,0,1-.25.42,2.17,2.17,0,0,0-.49,1.27v0a2.37,2.37,0,0,1,.05.42,1.93,1.93,0,0,1-.48,1.17l-.1.14.57.38.5.34.09-.17a1.35,1.35,0,0,1,.86-.8,2.15,2.15,0,0,0,.34-.17L38.4,34.1l.09.08a2,2,0,0,1,.28.34,2.12,2.12,0,0,0,.33.39l.08.07.09,0a4.49,4.49,0,0,0,1.78-1.2,4.77,4.77,0,0,1,1.36-1A4.69,4.69,0,0,1,41,34.13a1.07,1.07,0,0,0-.54.88.85.85,0,0,1-.41.72l-.12.08.2.41.22.45H38.48V38.3H35.07l.2-1.07L35,38.3H29.33l-.14-.49.07.49H24.09V36.67H22.33A1.76,1.76,0,0,0,21.78,35.5Zm-1.07,3.31.16-.4.29-1.29h2.49v1.62h5.66l.31,2.43H26.25L26.1,41l.11.17H22V39.09H20.65Zm-.78,1.77.15-.19a2.1,2.1,0,0,0,.47-.86h1v2.08h4.92l2.19,3.58.12-.37.58,1.45.09-.5.59.95.11.13,0,.08-.06,0L30,47l-.05,0-.39-.45-1.19-.61-.48-.16-1.26-.42H26l-.11-.13-1.45-.95a9.7,9.7,0,0,0-2-.66l-.2-.1-.47-.32L21.31,43l-.13-.06,0,0-.69-.3-.59.06-.2,0-.63,0-.28,0v-.29C19.35,41.58,19.35,41.26,19.93,40.58Zm-5-.9.16-.9.28-.73.16-.19.1-.1v-.14l.2-.15.42,0,.42.32.18.1.1.16.05.11h.09l.07-.24,0,0-.45-.4-.18-.1-.35-.16.09-.16.37-.67.37-.22c.33-.07.86.35,1.28.25l.42-.13,0,.46.2.26.33.26.35.42,0,.11,0,.26-.15.24-.3.76v.14c-.16,0-.34-.24-.48-.4l-.12-.16-.67-.13-.07.13.69.27.47.42.07.13c-.16.55-.74,1-1.07,1.45l-.19.18-.07.08-.21.11-.16.08-.21.18-.16.11-.53.18-.16,0-.37,0-.29-.13-.34-.13-.21-.27-.3-.79-.05-.34Zm-.48,1.11.23-.4v.53l.25.58.05.21.11.13.12.11.16.13a1.43,1.43,0,0,0,1.26,0l-.1.07-.11.16-.16.14-.15.12-.23.24-.32.27,0,.08.12.1.09-.08.23-.15.1-.14.41-.29.37-.32.17-.15v-.24l.21,0,.2-.18-.06.77.06.39a.59.59,0,0,0,.22.47l.11,0,.16,0,.51-.37.17-.05,1.25.05c.42.11.85-.05,1.21.27l.48.15.1.11.48.21.07.16.26.16.25-.06,1.07.35.53.21.09.08L25,45l.32.24.52.42.76.08a21.67,21.67,0,0,1,2.14.66l.21.13a1.56,1.56,0,0,1,.74.66l-.46.42A5.18,5.18,0,0,1,29,48.77l0,.5-.37-.05-2.09-.58-.27-.13A3.73,3.73,0,0,1,25,47.77h-.46l-.42-.13-1.49-.21-.05.16v0l-.1,0-.21,0-.39,0-.09.18-.1.08H21.6l0-.08-.05-.08,0-.15.16,0,.23,0h0l.05-.19-.26-.13H22l.48,0,.05-.18v0l.35-.11L23,47l.11-.13,0-.08L23,46.72l0,.05-.74.19.07-.22,0-.07-.14-.08-.07-.08-.14-.19-.74-.08-.11.16.16.11.62.1.05.16-.19.19H21.6l-.14,0-.12,0-.32.39.07-.13V47L21,47h-.07l-.21,0,.28-.4-.16-.08-.32.24.06-.18.14-.4.17-.29.14-.1.44-.32.09,0,.12-.08.14,0,.27-.1.07-.16-.21-.13-.06,0-.38.24-.25.13-.26.21-.07,0-.32.26-.14.37-.28.79h-.05v-.31l-.2-.06-.12.58-.14,0-.12.31-.05.69c-.09.31,0,.6-.21.92l-.11.26.21-3.19-1,.85-.14,0-.12,0-.2-.16.2.53-.9.76a.79.79,0,0,0-1.11.85V49l-.05.08-.05.06L14.75,50.2l.76.29c.82.42,1.61-.37,2.42.15l-.16.21V50.8l-.15,0-.06,0,.06.27a1.73,1.73,0,0,0,2.06.18.23.23,0,1,1,.21.4,2.74,2.74,0,0,1-1.12.39c-.27,0-.3.19,0,.19a2.73,2.73,0,0,0,1-.27c.37-.18.52.22.12.45a1.78,1.78,0,0,1-1.23.37c-.26,0-.16.21,0,.24a2.44,2.44,0,0,0,1.3-.34c0,.42-.84.79-1.24.76s-.23.26,0,.29a1.66,1.66,0,0,0,.88-.32c.22.37-.95.93-1.9.87a3.1,3.1,0,0,1-2.11-1.26L15,52.81l-.43-.24V46.81l0,0,.34-.16.37-.08.1-.21,0-.08h-.21l-.05,0-.16,0-.26.11-.15.2v-1h-2V41.14l0,.1.33.29.3.07.07-.05A2.64,2.64,0,0,0,14.43,40.79Zm1.79,9.62c-.41.16-.78-.19-1.15-.29l4.15-3.5-.36,4.58a.67.67,0,0,1-.69-.06l.11-2.62Zm1.87-1.5c0,.57,0,1.06,0,1.64-.2-.38-1.26-.26-1.48-.24C17.1,49.81,17.55,49.43,18.09,48.91Zm-1.55-.27-.3.21a.66.66,0,0,1,.94-.68l-.32.21A.24.24,0,0,0,16.54,48.64Zm2.8,2.08-.16.06C19.18,50.72,19.29,50.64,19.34,50.72ZM12.51,40.06v-.53h.18l0,.34Zm-2.23,7.73V37.12h3.9l-.2.37-.18.24-.61.45-.11.16-.16.21-.1.23-.05.31h-.7V46.2h2v7.33l-.19-.15a2.63,2.63,0,0,0-.5-.5,3.7,3.7,0,0,0-1.12-.74V47.79Zm-2,7.41a3.87,3.87,0,0,1,.46-1.79,2.91,2.91,0,0,1,3.79-.67,3.36,3.36,0,0,0-.95-.07,3.39,3.39,0,0,0-2.44,1.26l0,0v0a3.68,3.68,0,0,0-.26,2.91A2.56,2.56,0,0,1,8.26,55.2Zm4,2.48a1,1,0,0,1-.7.43A2,2,0,0,1,10,57.77a2.63,2.63,0,0,1-.87-2,3.49,3.49,0,0,1,.4-1.58,3,3,0,0,1,2.11-1.08A3.15,3.15,0,0,1,14,54h0a3.72,3.72,0,0,1,1.16,2.89A4.34,4.34,0,0,1,15,58.12a18.69,18.69,0,0,1-2.36,5.15l-.2.35a2.13,2.13,0,0,0-.52-.27l.44-.92c.25-.5.5-1,.74-1.57a5.58,5.58,0,0,0,.69-.51c.42-.35.59-.71.48-1a.74.74,0,0,0-.45-.41,5.29,5.29,0,0,0,.13-.54,3,3,0,0,0,.1-.78,2.66,2.66,0,0,0-.74-1.9,1.64,1.64,0,0,0-2.06-.27l-.53.31.61.1a1.26,1.26,0,0,1,1,.63A1.35,1.35,0,0,1,12.24,57.68Zm.63,9.19a.74.74,0,0,1,.15.43.69.69,0,0,1,0,.13.68.68,0,0,1-.3.38,2.33,2.33,0,0,0-1-1.38,1.59,1.59,0,0,0-.26-.14c0-.09,0-.43,0-.57.12,0,.59.3.59.3a.85.85,0,0,0,1.13-.2l.05,0a1.86,1.86,0,0,0,.22-.19,1.26,1.26,0,0,1,.1.45.69.69,0,0,1-.09.36.61.61,0,0,1-.52.3l-.2,0Zm-1.44-.16.12-.06,0,0a1.74,1.74,0,0,1,.26.19V67c0,2.16-.28,3.8-1.36,5A16.35,16.35,0,0,1,11.43,66.71Zm-1.38,5.66-.2.15a11,11,0,0,1-.15-1.71,11.13,11.13,0,0,1,.35-2.67c.1-.41.24-.83.39-1.28a1.49,1.49,0,0,0,.47,0A17.48,17.48,0,0,0,10.05,72.37Zm1.43-6.66h0l0,0Zm1.33-.14c-.18.17-.26.16-.59,0h0a1,1,0,0,0-1.37-.92l-.6.25.63.17a.65.65,0,0,1,.42.31l0,.92a1,1,0,0,1-1.06,0,1.34,1.34,0,0,1-.5-1.38,1.37,1.37,0,0,1,1.59-1.26,1.63,1.63,0,0,1,1.57,1.79S12.81,65.52,12.81,65.57Zm-2-2.56a3.51,3.51,0,0,0-.49-.12h-.16a2.58,2.58,0,0,1,1.26-1.14C11.29,62.16,11.09,62.58,10.86,63Zm1.22-1.58.34-.18-.47,1-.49,1-.16,0h0C11.57,62.59,11.85,62,12.08,61.43Zm0-5.8A1.32,1.32,0,0,1,13,56a2.37,2.37,0,0,1,.52,2.26c0,.17-.08.34-.13.51l-.45,0a1.29,1.29,0,0,0,0-.19,2.47,2.47,0,0,0,.09-.64,2.5,2.5,0,0,0-.16-.88s0-.09,0-.13a1.44,1.44,0,0,0-.14-.63A1.43,1.43,0,0,0,12.07,55.63ZM8.42,61.57l-.13-.26a3.73,3.73,0,0,1,1.81-2.39,1.33,1.33,0,0,1,.93.19,4.44,4.44,0,0,0-1.2.73,3.24,3.24,0,0,0-1.23,2A1.4,1.4,0,0,1,8.42,61.57Zm.38.66A2.91,2.91,0,0,1,10,60a4.44,4.44,0,0,1,2.75-1c.71,0,1.21.15,1.32.43a.5.5,0,0,1,0,.12,1,1,0,0,1-.43.65,5.56,5.56,0,0,1-.81.59,1.48,1.48,0,0,1-1-1.11l-.22.06a1.52,1.52,0,0,0,1,1.19l-.69.37,0-.06a1.27,1.27,0,0,1-.87.1.3.3,0,0,1-.18-.17c-.05-.25.34-.54.76-.67l-.07-.21c-.51.16-1,.52-.9.94a.49.49,0,0,0,.3.31,1,1,0,0,0,.42.06A2.58,2.58,0,0,0,10,62.9a1.85,1.85,0,0,0-1,.36A3.14,3.14,0,0,1,8.8,62.23ZM8.75,64.6a1.35,1.35,0,0,1,.68-1.1l.3-.11a1.85,1.85,0,0,1,.59-.06h0a1.74,1.74,0,0,0-1.1,1.43h0s0,0,0,.06A2,2,0,0,0,9.35,66l0,.07a.31.31,0,0,1-.1,0A1.28,1.28,0,0,1,8.75,64.6Zm.88,2h0l.3.16c-.19.62-.33,1.18-.45,1.71a11.83,11.83,0,0,0-.31,2.69c0,.58,0,1.16.11,1.76L9,73.06l-.11,0a10.22,10.22,0,0,1-.12-1.58A17.3,17.3,0,0,1,9.63,66.56ZM7,74.22a10.86,10.86,0,0,0,2.05-.71,2.61,2.61,0,0,0,.55-.3l.16-.1a5.65,5.65,0,0,0,.61-.45h0l.07-.06h0c1.35-1.22,1.76-2.94,1.81-5.17.08.18.16.39.24.61l0,.13.11-.06a.92.92,0,0,0,.53-.62.88.88,0,0,0,0-.17,1,1,0,0,0-.12-.43.86.86,0,0,0,.55-.37,1,1,0,0,0,.11-.47,1.58,1.58,0,0,0-.18-.7l-.07-.15-.11.13-.16.16a2.31,2.31,0,0,0-.5-1.55l.24-.43c.37-.62.75-1.28,1.11-2v7.07A7.24,7.24,0,0,1,9.3,75.37l-.14.07v.15a15.58,15.58,0,0,0,1.31,5.32A4.19,4.19,0,0,0,9.17,81a2,2,0,0,0-.53.24A28.08,28.08,0,0,1,7,74.22Zm3,1.64L10,75.55l.06,0ZM10,78.07a18.28,18.28,0,0,0,2.24,3.37A6.81,6.81,0,0,0,11,81,14.18,14.18,0,0,1,10,78.07ZM8.35,83.72a1.45,1.45,0,0,1-.14-1.29,1.6,1.6,0,0,1,1.07-1c1.43-.31,2.57.29,3.89,1l1.56.82L13.42,82a17.33,17.33,0,0,1-3.64-5.34c0-.07,0-.16-.08-.24s0-.28,0-.43a6.67,6.67,0,0,0,1,1.75l1,1.28L11,77.55a13.46,13.46,0,0,1-.58-2.23h0l.26-.12a10.66,10.66,0,0,0,1,3.13l.53,1-.11-1.13a1.16,1.16,0,0,1,1.42-1.37,1.28,1.28,0,0,1,1,1.16.7.7,0,0,1-.58.65.68.68,0,0,0-.45-.69.64.64,0,0,0-.72.46h0a1.91,1.91,0,0,0-.08.54c0,1.63,2,3.91,4.44,5.3a25.42,25.42,0,0,1-5.33-2.1A2.21,2.21,0,0,0,9.9,82a1,1,0,0,0-.52.8l0,.38.35-.16a1,1,0,0,1,1.21.17.77.77,0,0,1,.17.46A.48.48,0,0,1,11,84a1.67,1.67,0,0,1-1.27.59A2,2,0,0,1,8.35,83.72Zm1.7,1.58a1.93,1.93,0,0,1-1.3-.63A2.09,2.09,0,0,0,9.7,85a2.09,2.09,0,0,0,1.57-.68.5.5,0,0,1-.07.4A1.44,1.44,0,0,1,10.05,85.3ZM50.74,86A34.16,34.16,0,0,1,41,91.87a39.72,39.72,0,0,0-9.61,5.59,40.15,40.15,0,0,0-9.68-5.59c-3.39-1.53-6.6-3-9.83-5.91a7.69,7.69,0,0,1-.66-.62,3.23,3.23,0,0,0,.37-.37,1,1,0,0,0,0-1.21,1.15,1.15,0,0,0-.25-.79,1.8,1.8,0,0,1,.38.16l.14.06A10.61,10.61,0,0,0,13.41,85c3,2.76,5.9,3.92,9,5.15a30.46,30.46,0,0,1,8.8,4.77l.14.11.15-.11a30.42,30.42,0,0,1,8.73-4.77c3.07-1.23,6-2.39,8.94-5.15a10.77,10.77,0,0,0,1.64-1.84l.11-.05a2.93,2.93,0,0,1,.39-.16,1.18,1.18,0,0,0-.24.8,1,1,0,0,0,0,1.19,2.53,2.53,0,0,0,.36.37C51.19,85.55,51,85.76,50.74,86Zm1.78-.65a1.4,1.4,0,0,1-1.12-.61.57.57,0,0,1-.08-.37,2.06,2.06,0,0,0,1.55.66,2.09,2.09,0,0,0,1-.31A1.87,1.87,0,0,1,52.52,85.3Zm1.84-2.88a1.58,1.58,0,0,1,.09.52,1.41,1.41,0,0,1-.24.79,1.94,1.94,0,0,1-1.36.81A1.66,1.66,0,0,1,51.58,84a.45.45,0,0,1-.08-.26.79.79,0,0,1,.19-.48,1,1,0,0,1,1.19-.16l.35.16,0-.38a1,1,0,0,0-.52-.8,2.14,2.14,0,0,0-1.86.12,26.25,26.25,0,0,1-5.35,2.1c2.49-1.39,4.44-3.67,4.44-5.31a1.59,1.59,0,0,0-.08-.53.62.62,0,0,0-.71-.47.69.69,0,0,0-.48.69.6.6,0,0,1-.56-.52.57.57,0,0,1,0-.13,1.27,1.27,0,0,1,1-1.16l.12,0h.05a1.21,1.21,0,0,1,.88.28,1.24,1.24,0,0,1,.36,1.11l-.11,1.14.53-1a10.57,10.57,0,0,0,1-3.13l.27.13a11.18,11.18,0,0,1-.59,2.23L51,79l1-1.27a7.15,7.15,0,0,0,.95-1.69,4.78,4.78,0,0,1-.06.53.54.54,0,0,1,0,.1A18.14,18.14,0,0,1,49.15,82l-1.31,1.18,1.56-.82c1.31-.69,2.45-1.28,3.9-1A1.62,1.62,0,0,1,54.36,82.42Zm-1.85-6.55c0-.11,0-.23.06-.34l.07,0C52.6,75.67,52.55,75.77,52.51,75.87Zm.06,2.26a14.51,14.51,0,0,1-1,2.87,6.24,6.24,0,0,0-1.23.44A19,19,0,0,0,52.57,78.13Zm1.37,3.09a2,2,0,0,0-.52-.24h0a4.13,4.13,0,0,0-1.3-.07,15.52,15.52,0,0,0,1.19-4.24,6.48,6.48,0,0,0,.18-1l0-.14-.08,0v-.08l-.14-.07-.36-.16-.12-.08v0l-.14-.07v0l-.27-.12-.13-.06a7.05,7.05,0,0,1-3.79-6.26v-7.1c.34.65.7,1.27,1,1.87l.31.55a2.27,2.27,0,0,0-.51,1.52l-.14-.14-.11-.13-.07.15a1.53,1.53,0,0,0-.2.71.9.9,0,0,0,.12.46.77.77,0,0,0,.54.38.87.87,0,0,0-.11.41.55.55,0,0,0,0,.18,1,1,0,0,0,.55.62l.12.06,0-.13c.07-.21.13-.4.21-.58,0,2.21.45,3.93,1.8,5.14h0l.07.07,0,0a5.61,5.61,0,0,0,.71.51l.15.1h0a2.23,2.23,0,0,0,.31.15,9.92,9.92,0,0,0,2.15.77A28.46,28.46,0,0,1,53.94,81.22ZM15.35,40.37l.21.18.21.05,0,.11-.09,0-.11,0-.1,0,0,.14.32.29.47.26.13-.08-.11-.13.42.13.09-.16L16.7,41l-.26-.26-.21-.13-.11,0L16,40.45l-.26-.14-.3-.21-.16.06,0,.13Zm1-.53-.27-.11,0,.21.1.24.3.19.27,0v-.21l-.32-.08V40Zm-1.8,4.66.18-.1.1-.16L15,44V43.9l-.16,0-.27.45Zm.53-.71.26,0,1.27,0,.1-.16-.14-.08-.7,0h-.24l-.6,0-.14.11-.07.13.07,0Zm.79,11.05-.05.1.38.16.11.08h.14l.05-.19v-.05l-.24-.08Zm17.68,27-.16.16v.08l.67,0h.73l.32-.13L35,81.75A4.22,4.22,0,0,0,33.59,81.82ZM19,78.56h.14l.07-.13-.05-.08-.18,0-.1.06-.09.21h.09Zm5.27,0-.11.19h.06l.24,0,.11-.21h-.19Zm.9.27.1.08.19,0,.16-.55H25.5Zm-.43-1.24-.12.18-.09,0L24.5,78l.11.11.32-.06.06-.13,0-.16ZM32.41,92l-.1,0v1.4h0l.16,0,.07-.32,0-1.08Zm9.75-27.07L42,66l.14,0,.07-.15.11-1-.11-.05ZM33.38,84.22l-.22.08-.12,0-.09.13.09.08,1.23-.16v-.24l-.23,0Zm-.69,8.52.11.05.14,0,.07-.1V91.23h-.23Zm-.1-3.62-.06.14.16.1h.83l0-.21-.19-.1ZM28,75.37l-1.51-.87.06-.11-.06-.1-.22-.19v-.29l-.07-.08-.14,0-.53.16-1-.74-.07-.08-1.09-.71V72.1l-.1-.13,0-.21L23,71.6h-.09l-.05.05-.06,0-.15.29-.06-.11-.33-.21a6.38,6.38,0,0,0-1.62-1.05l-.05-.19-.18-.1-.19,0V70L20,69.94l-.23,0-.09-.1-.31,0-.07.13V70l.43.26.21.37.4.13.18,0,.77.47a3.41,3.41,0,0,1,1.07.84v.32l.2.18.07,0,.31.21.25,0,.1-.06.76.45,0,.05.09.06.69.5.17.15.09.06.44.37.05.37.09.07.26.08.33.06h.22l.88.5.15.13.42.24.18,0v-.14l0,0Zm-5-3.16L23,72.13,23,72l0,.1Zm2.89,2,.07-.1,0,.15Zm4.18-17,1.3-4.37-.83,1.42.06-1.08L30,54.89l.37-.16-.32,1-.28-.39-1.26,3.9L30,56.47Zm14.07-2.89.11-.19-.21-.08h-.23l-.05.21.16.06ZM42.65,53.1,42.44,53l0,.18,0,0,.16.08.12-.13,0,0Zm.79.68-.12-.08-.16-.08,0,.16.16.11Zm-2,5.25-.08.18h.19l1,0,.72,0,.1-.11v-.1L43,59C42.49,59,42,58.82,41.42,59Zm-4.14.31.79.13.16,0,.1-.16,0-.05-.19-.13-.12,0h-.43l-.2-.1-.11,0-.16.1-.1.08.17.16Zm-5,31.42.11-.26-.07,0,.07-.82V88.52l.09-.61-.09-.73v-.4l.26,0,0-.21-.14-.1h-.07l-.09-.08,0-.5,0-.82,0-.26v-.19l0-.23h-.2v.84l0,.34v.92l-.23,0-.05-.71-.14-.11-.05.11V86l-.07.58-.27.06v.07l.28.08.06.19V88l-.06.55h-.33l-.58,0,0-1.69a3.51,3.51,0,0,0-.13-1.13.13.13,0,0,0-.15.13v.32l0,1-.11,1.45-.05,0-.09.11.09.08.11.11v.26l-.58.1-.09.13.14.08h.58a5.47,5.47,0,0,1,0,1.4l-.05.77a4.21,4.21,0,0,0-1.27.07V92h.74l.54.08v.24l.06,0,.14,0,.1-.13,0-.19.16,0h.19l.13-.07,0-.11-.14-.13-.32,0V90.55l.05-1,.16,0,.63.06v.16l.11.1h.1l.09-.13v-.19l.18,0h.1v1.24Zm-.68-1.53h-.85l-.15-.39h1Zm.45-2.5a2.85,2.85,0,0,1,.07,1.61l-.07.21H31.9l0-.69,0-1.11Zm0,2.45L32,89.12l-.1,0v-.23l.08-.11.18,0,.09.39ZM18.3,55.92l-.1-.11-.55-.39-.51-.14-.05.16L18,56v0l.05.1.16,0,.17-.16Zm22.51,2L41,58l.26,0,.23,0,.16,0,.16-.08c.47.21,1-.29,1.4-.08h.34l.14-.16-.14-.13-.13,0c-.35.08-.63-.24-.94.05l-.2,0h-.07l-.4,0-.32.1-.28-.08-.16,0v-.08l-.19-.06-.27.43.16,0Z"/><path class="cls-2" d="M119.21,80.84h5.52l3.73,10.44h-4.2L123.57,89h-3.38l-.65,2.25h-4Zm1.53,5.67h2.32l-1.14-3.42h0Z"/><path class="cls-2" d="M129,80.84h4V88.2h4.93v3.08H129Z"/><path class="cls-2" d="M143,80.84V91.28h-4V80.84Z"/><path class="cls-2" d="M144.37,80.84h8.95v2.52h-4.94v1.69h4.79v2.51h-4.79v3.72h-4Z"/><path class="cls-2" d="M165.65,86.06a6.53,6.53,0,0,1-.4,2.35,4.46,4.46,0,0,1-1.15,1.69,5.07,5.07,0,0,1-1.84,1,8.11,8.11,0,0,1-2.45.34,6.19,6.19,0,0,1-4.27-1.36,5.14,5.14,0,0,1-1.52-4,6.41,6.41,0,0,1,.39-2.32,4.53,4.53,0,0,1,1.13-1.69,5.16,5.16,0,0,1,1.82-1,8,8,0,0,1,2.45-.35,8.1,8.1,0,0,1,2.45.35,5.25,5.25,0,0,1,1.84,1,4.46,4.46,0,0,1,1.15,1.69A6.41,6.41,0,0,1,165.65,86.06Zm-7.44,0c0,.28,0,.59,0,.92a3.66,3.66,0,0,0,.22,1,2.09,2.09,0,0,0,.49.73,1.22,1.22,0,0,0,.85.29,1.38,1.38,0,0,0,.93-.29,1.85,1.85,0,0,0,.49-.73,4.1,4.1,0,0,0,.19-1c0-.33,0-.64,0-.92s0-.52-.05-.86a3.75,3.75,0,0,0-.21-1,2,2,0,0,0-.49-.76,1.25,1.25,0,0,0-.9-.31,1.21,1.21,0,0,0-.88.31,1.92,1.92,0,0,0-.47.76,3.75,3.75,0,0,0-.21,1C158.22,85.54,158.21,85.82,158.21,86.06Z"/><path class="cls-2" d="M166.54,80.84H173a8.63,8.63,0,0,1,1.69.15,3.6,3.6,0,0,1,1.28.49,2.36,2.36,0,0,1,.8.86,2.81,2.81,0,0,1,.27,1.28,2.45,2.45,0,0,1-.68,1.85,3.88,3.88,0,0,1-1.82.92v0a2.69,2.69,0,0,1,1.07.41,2.78,2.78,0,0,1,.7.71,3.9,3.9,0,0,1,.35.92c.09.33.16.66.22,1s.12.66.17,1a3.71,3.71,0,0,0,.25.85h-4.18a4.62,4.62,0,0,1-.12-.69c0-.28-.06-.56-.1-.85s-.09-.57-.14-.83a2.49,2.49,0,0,0-.19-.63.82.82,0,0,0-.47-.45,2.31,2.31,0,0,0-.67-.09h-.9v3.54h-4Zm3.84,4.56h1l.61,0a1.53,1.53,0,0,0,.51-.16.86.86,0,0,0,.37-.34,1.13,1.13,0,0,0,.14-.63,1,1,0,0,0-.13-.57,1,1,0,0,0-.35-.32,1.83,1.83,0,0,0-.5-.15,5.68,5.68,0,0,0-.59,0h-1.1Z"/><path class="cls-2" d="M178.24,80.84h6l1.93,7.36h0V80.84h3.44V91.28h-5.9l-2-7.57h0v7.57h-3.45Z"/><path class="cls-2" d="M195.09,80.84V91.28h-4V80.84Z"/><path class="cls-2" d="M199.3,80.84h5.52l3.73,10.44h-4.21L203.65,89h-3.38l-.64,2.25h-4Zm1.52,5.67h2.32L202,83.09h0Z"/><path class="cls-2" d="M65.68,80.84h6.57a7.2,7.2,0,0,1,1.32.12,3.48,3.48,0,0,1,1.16.42,2.33,2.33,0,0,1,.8.79,2.28,2.28,0,0,1,.31,1.24,2.47,2.47,0,0,1-.55,1.69,3.23,3.23,0,0,1-1.61.87v0a3.18,3.18,0,0,1,1,.31,2.62,2.62,0,0,1,.73.56,2.28,2.28,0,0,1,.47.73,2,2,0,0,1,.16.78A3,3,0,0,1,75.67,90a2.46,2.46,0,0,1-1,.87,3.9,3.9,0,0,1-1.37.38,13.88,13.88,0,0,1-1.59.08H65.68Zm3.77,4h1a3.07,3.07,0,0,0,.53,0,1.51,1.51,0,0,0,.48-.16.84.84,0,0,0,.46-.8.82.82,0,0,0-.42-.8,2.12,2.12,0,0,0-1-.21H69.45Zm0,4.29h1a3.29,3.29,0,0,0,.54,0,1.85,1.85,0,0,0,.5-.18,1.14,1.14,0,0,0,.35-.34.92.92,0,0,0,.13-.51,1.08,1.08,0,0,0-.12-.54.87.87,0,0,0-.34-.32,1.24,1.24,0,0,0-.48-.16,3.31,3.31,0,0,0-.55,0H69.45Z"/><path class="cls-2" d="M80,80.84h5.53l3.72,10.44h-4.2L84.37,89H81l-.65,2.25h-4Zm1.53,5.67h2.32l-1.14-3.42h0Z"/><path class="cls-2" d="M99.68,80.84h5.52l3.72,10.44h-4.2L104,89h-3.38L100,91.28H96Zm1.52,5.67h2.32l-1.13-3.42h0Z"/><path class="cls-2" d="M114.4,88.58a5.49,5.49,0,0,1-1.08.1,3.51,3.51,0,0,1-1.15-.17,2.47,2.47,0,0,1-.91-.51,2.24,2.24,0,0,1-.59-.84,3.12,3.12,0,0,1-.21-1.19,2.85,2.85,0,0,1,.22-1.13,2.28,2.28,0,0,1,.63-.81,2.78,2.78,0,0,1,1-.5,3.81,3.81,0,0,1,1.19-.17,4.28,4.28,0,0,1,1,.11,8.68,8.68,0,0,1,1,.27V81l-.74-.13-.67-.11-.67-.07-.77,0a8.57,8.57,0,0,0-2.39.33,5.9,5.9,0,0,0-2,1,4.65,4.65,0,0,0-1.13,1.25L109.88,91l.3.1a8.3,8.3,0,0,0,2.43.34,10,10,0,0,0,1.54-.12,13.27,13.27,0,0,0,1.34-.29V88.28A7.73,7.73,0,0,1,114.4,88.58Z"/><path class="cls-2" d="M91.48,80.84v6.21a1.6,1.6,0,0,1-.35,1A1.39,1.39,0,0,1,90,88.5a2.94,2.94,0,0,1-.77-.16l1.08,3a7.78,7.78,0,0,0,1.32.1,5.22,5.22,0,0,0,1.78-.26,3.19,3.19,0,0,0,1.19-.75,2.79,2.79,0,0,0,.68-1.1A4.33,4.33,0,0,0,95.49,88V80.84Z"/><polygon class="cls-2" points="101.09 76.65 65.72 76.65 65.72 75.63 100.58 75.63 101.09 76.65"/><polygon class="cls-2" points="136.32 76.65 100.95 76.65 100.44 75.63 135.8 75.63 136.32 76.65"/><polygon class="cls-2" points="171.55 76.65 136.18 76.65 135.67 75.63 171.03 75.63 171.55 76.65"/><polygon class="cls-2" points="206.78 76.65 171.41 76.65 170.9 75.63 206.78 75.63 206.78 76.65"/><polygon class="cls-2" points="164.83 40.59 209.06 40.59 209.06 72.47 175.8 72.47 164.83 40.59"/><path class="cls-2" d="M160.32,40.1H65.72V72.51H171.55ZM85,57.94c0,5.11-2.54,7.82-7.33,7.82s-7.07-2.66-7.07-7.91V48.71h4.94v9.5c0,2.33.75,3.52,2.25,3.52,1,0,2.27-.37,2.27-3.52v-9.5H85Zm18.8,7.55h-5L95.94,60c-.52-1-1.4-2.72-2.19-4.55.07,1.71.1,3.63.1,5.81v4.28H89.3V48.71h5.59l2.65,5.14a40.77,40.77,0,0,1,1.89,4c-.11-1.53-.17-3.18-.17-5V48.71h4.56Zm15.77,0H108.15V48.71h11.11v4.15h-6.17v2h5.81V59h-5.81v2.39h6.5Zm17.64,0L137,59.4c-.05-1.22-.08-2.65-.09-4.42-.36,1.39-.78,2.91-1.2,4.32l-1.67,5.86h-3.84l-1.4-5.87c-.27-1.07-.57-2.44-.86-3.94,0,.5,0,1,0,1.49,0,.92-.06,1.79-.09,2.56l-.28,6.09H123L124,48.71h6.35l1.11,4.6c.39,1.53.76,3.18,1.05,4.69.39-1.67.8-3.38,1.18-4.75L135,48.71h6.2L142,65.49Zm20.23,0H146V48.71h11.11v4.15H151v2h5.81V59H151v2.39h6.51Z"/></g></svg>