<svg xmlns="http://www.w3.org/2000/svg" viewBox="0 0 195.38 124.8"><defs><style>.cls-1{fill:#606161;}</style></defs><title>LOGOS MAXIM GRIS</title><g id="Layer_3" data-name="Layer 3"><path class="cls-1" d="M110.48,83h4.09v.7h-3.1v2.13h2.86v.68h-2.86v2.9h-1Z"/><path class="cls-1" d="M115.42,86.23c0-.55,0-1,0-1.44h.87l0,.9h0a1.61,1.61,0,0,1,1.52-1l.27,0v.79l-.34,0a1.31,1.31,0,0,0-1.33,1.07,2.47,2.47,0,0,0,0,.39v2.46h-1Z"/><path class="cls-1" d="M119.34,87.24c0,1.12.86,1.59,1.85,1.59a4,4,0,0,0,1.51-.24l.18.6a4.94,4.94,0,0,1-1.82.3c-1.67,0-2.68-.94-2.68-2.32A2.42,2.42,0,0,1,121,84.68a2.07,2.07,0,0,1,2.24,2.17,1.33,1.33,0,0,1,0,.39Zm2.89-.6a1.26,1.26,0,0,0-1.36-1.36,1.5,1.5,0,0,0-1.52,1.36Z"/><path class="cls-1" d="M124.06,88.54a3.2,3.2,0,0,0,1.32.32c.71,0,1-.3,1-.69s-.28-.6-1-.83c-1-.31-1.45-.76-1.45-1.31,0-.74.72-1.35,1.88-1.35a2.92,2.92,0,0,1,1.33.29l-.24.6a2.44,2.44,0,0,0-1.11-.27c-.59,0-.9.29-.9.63s.31.55,1,.79c.94.29,1.43.69,1.43,1.38s-.75,1.39-2,1.39a3.57,3.57,0,0,1-1.53-.33Z"/><path class="cls-1" d="M132.32,89.22a4.34,4.34,0,0,1-1.57.27c-1.64,0-2.71-.94-2.71-2.35s1.15-2.46,2.93-2.46a3.67,3.67,0,0,1,1.37.25l-.23.64a2.64,2.64,0,0,0-1.14-.22A1.74,1.74,0,0,0,129,87.09a1.72,1.72,0,0,0,1.89,1.72,3.2,3.2,0,0,0,1.22-.22Z"/><path class="cls-1" d="M137.82,88.13c0,.48,0,.9,0,1.26H137l0-.75h0a2.1,2.1,0,0,1-1.8.86,1.77,1.77,0,0,1-1.88-2V84.79h1v2.54c0,.87.33,1.47,1.22,1.47a1.44,1.44,0,0,0,1.31-.77,1.06,1.06,0,0,0,.09-.43V84.79h1Z"/><path class="cls-1" d="M139.24,86.23c0-.55,0-1-.05-1.44h.87l.05.9h0a1.63,1.63,0,0,1,1.52-1l.27,0v.79l-.34,0a1.33,1.33,0,0,0-1.33,1.07,2.47,2.47,0,0,0,0,.39v2.46h-1Z"/><path class="cls-1" d="M146.48,88.29a7.18,7.18,0,0,0,.08,1.1h-.89l-.09-.58h0a2.16,2.16,0,0,1-1.67.69c-1.1,0-1.67-.66-1.67-1.33,0-1.11,1.18-1.72,3.28-1.71v-.09c0-.38-.12-1.08-1.24-1.07a3.14,3.14,0,0,0-1.43.34l-.22-.56a4.13,4.13,0,0,1,1.8-.4c1.68,0,2.08,1,2.08,1.89Zm-1-1.25c-1.09,0-2.31.15-2.31,1,0,.55.42.8.92.8a1.38,1.38,0,0,0,1.34-.77.86.86,0,0,0,.05-.27Z"/><path class="cls-1" d="M150.37,84.79l1.19,2.72c.13.3.27.66.36.94h0c.1-.28.21-.63.35-1l1.08-2.7h1l-1.49,3.28A6.81,6.81,0,0,1,151.06,91a2.91,2.91,0,0,1-1.22.53l-.24-.69a2.89,2.89,0,0,0,.86-.41,2.77,2.77,0,0,0,.84-.93.68.68,0,0,0,.08-.2.59.59,0,0,0-.08-.22l-2-4.24Z"/><path class="cls-1" d="M161.15,89.22a4.34,4.34,0,0,1-1.57.27c-1.64,0-2.71-.94-2.71-2.35s1.14-2.46,2.92-2.46a3.69,3.69,0,0,1,1.38.25l-.23.64a2.66,2.66,0,0,0-1.15-.22,1.74,1.74,0,1,0,0,3.46,3.2,3.2,0,0,0,1.22-.22Z"/><path class="cls-1" d="M165.93,88.29a7.27,7.27,0,0,0,.07,1.1h-.89l-.09-.58h0a2.16,2.16,0,0,1-1.67.69c-1.1,0-1.66-.66-1.66-1.33,0-1.11,1.17-1.72,3.27-1.71v-.09c0-.38-.12-1.08-1.24-1.07a3.14,3.14,0,0,0-1.43.34l-.22-.56a4.13,4.13,0,0,1,1.8-.4c1.68,0,2.09,1,2.09,1.89ZM165,87c-1.09,0-2.31.15-2.31,1,0,.55.42.8.92.8a1.38,1.38,0,0,0,1.34-.77.65.65,0,0,0,.05-.27Z"/><path class="cls-1" d="M167.29,82.64h1v6.75h-1Z"/><path class="cls-1" d="M170.2,84a.55.55,0,0,1-.6-.51.63.63,0,1,1,.61.51Zm-.48,5.38v-4.6h1v4.6Z"/><path class="cls-1" d="M176.85,82.64V88.2c0,.41,0,.88,0,1.19H176l0-.8h0a2,2,0,0,1-1.84.91,2.27,2.27,0,0,1-2.35-2.34,2.38,2.38,0,0,1,2.45-2.48,1.91,1.91,0,0,1,1.64.7h0V82.64Zm-1,4a1.53,1.53,0,0,0,0-.36,1.43,1.43,0,0,0-1.43-1,1.61,1.61,0,0,0-1.63,1.77,1.56,1.56,0,0,0,1.61,1.71,1.46,1.46,0,0,0,1.45-1,1.25,1.25,0,0,0,0-.35Z"/><path class="cls-1" d="M182.11,88.29a6.1,6.1,0,0,0,.08,1.1h-.89l-.09-.58h0a2.15,2.15,0,0,1-1.66.69c-1.11,0-1.67-.66-1.67-1.33,0-1.11,1.17-1.72,3.28-1.71v-.09c0-.38-.13-1.08-1.24-1.07a3.08,3.08,0,0,0-1.43.34l-.23-.56a4.17,4.17,0,0,1,1.81-.4c1.67,0,2.08,1,2.08,1.89Zm-1-1.25c-1.08,0-2.31.15-2.31,1a.81.81,0,0,0,.92.8,1.39,1.39,0,0,0,1.35-.77.84.84,0,0,0,0-.27Z"/><path class="cls-1" d="M188.18,82.64V88.2c0,.41,0,.88,0,1.19h-.89l-.05-.8h0a2.07,2.07,0,0,1-1.85.91,2.27,2.27,0,0,1-2.34-2.34,2.38,2.38,0,0,1,2.45-2.48,1.93,1.93,0,0,1,1.64.7h0V82.64Zm-1,4a1.53,1.53,0,0,0,0-.36,1.43,1.43,0,0,0-1.43-1,1.62,1.62,0,0,0-1.64,1.77,1.56,1.56,0,0,0,1.61,1.71,1.47,1.47,0,0,0,1.46-1,1.25,1.25,0,0,0,0-.35Z"/><polygon class="cls-1" points="6.6 33.32 18.17 33.32 29.45 66.17 40.45 33.32 52.41 33.32 35.14 77.99 23.2 77.99 6.6 33.32"/><polygon class="cls-1" points="49.18 43.09 49.18 77.99 75.17 77.99 75.17 68.98 58.28 68.98 58.28 64.05 71.18 64.05 71.18 56.17 58.48 56.17 58.48 52.1 74.41 52.1 74.41 43.09 49.18 43.09"/><polygon class="cls-1" points="110.83 33.32 110.83 77.99 143.54 77.99 143.54 67.56 121.26 67.56 121.26 59.97 138.33 59.97 138.33 50.58 121.35 50.58 121.35 43.09 142.88 43.09 142.88 33.32 110.83 33.32"/><polygon class="cls-1" points="146.58 33.32 159.38 33.32 167.44 46.41 175.03 33.32 188.03 33.32 173.99 55.23 188.78 77.99 175.7 77.99 167.25 64.14 158.81 77.99 145.63 77.99 161 55.23 146.58 33.32"/><path class="cls-1" d="M90.48,57.88v7.34h7.67v.08a8.86,8.86,0,1,1-.73-10.52l9.19-2.61A18,18,0,1,0,98.15,76.9V78h9.13V57.88Z"/></g></svg>