<svg xmlns="http://www.w3.org/2000/svg" viewBox="0 0 124.74 124.8"><defs><style>.cls-1{fill:#606161;}</style></defs><title>LOGOS MAXIM GRIS</title><g id="Layer_3" data-name="Layer 3"><path class="cls-1" d="M9.89,62.25a52.48,52.48,0,1,1,52,53C33.23,115.19,9.88,91.4,9.89,62.25Zm52.5-48.86A48.69,48.69,0,0,0,13.67,62.3c-.05,27,21.66,49.06,48.4,49.12a49,49,0,0,0,.32-98Z"/><path class="cls-1" d="M62.32,34.61A27.29,27.29,0,1,1,35.26,61.9,27.25,27.25,0,0,1,62.32,34.61Zm0,51.31a24,24,0,1,0-23.88-24A24,24,0,0,0,62.35,85.92Z"/><path class="cls-1" d="M22.81,72.83c2.37.11,4.75.31,7.13.3,1.36,0,1.95.45,1.9,1.79a5.08,5.08,0,0,0,.19,1l-8-.71a37,37,0,0,0-4-.38c-1.42,0-1.09-1-1.36-1.76-.34-.93.27-1,.86-1.29a69.77,69.77,0,0,0,7.48-3.4c-.77,0-1.54,0-2.3,0-2,0-4.08-.06-6.12-.06-.59,0-1-.2-.95-.79s-.84-1.46.3-2c3.69-1.8,7.35-3.64,11-5.47.46.35.3.84.45,1.22.39,1,.08,1.65-1,2.07a48.27,48.27,0,0,0-6.71,3.2c2.2,0,4.39,0,6.58,0,1,0,2.12-.41,2.44,1.33S30,69.63,28.93,70c-2.08.83-4.15,1.71-6.23,2.57Z"/><path class="cls-1" d="M86.35,90.31c1.58,1.64,3.12,3.32,4.73,4.92.69.67.85,1.07,0,1.81s-1.07.8-1.81,0c-2.26-2.46-4.64-4.81-6.94-7.24-.34-.36-1.27-.71-.76-1.28s1.11-2,2.52-1.53c2.41.72,4.82,1.39,7.23,2.1a1.8,1.8,0,0,0,1.07.11A5,5,0,0,0,91,87.45c-1-1-2-2-2.94-3-1.22-1.26-1.19-1.43.15-2.49.41-.32.62-.3,1,0,2.62,2.72,5.26,5.43,7.89,8.14.24.25.59.54.17.82-.73.49-.95,1.79-2.28,1.38-2.35-.73-4.73-1.37-7.1-2-.37-.11-.75-.18-1.13-.26a.52.52,0,0,0-.61-.12Z"/><path class="cls-1" d="M38.59,90.2c-1.46,2-2.94,4-4.34,6-.52.76-.89.67-1.45.13s-1.39-.57-.61-1.6c2.22-2.94,4.36-5.94,6.51-8.94.37-.52.63-.51,1.14-.19a2.56,2.56,0,0,1,1.41,3c-.5,2.49-.62,5-.9,7.59.65.09.8-.47,1.07-.83,1.21-1.64,2.46-3.26,3.58-5,.55-.83,1-.39,1.34,0s1.47.43.7,1.47c-2.22,3-4.39,6-6.59,9-.17.24-.35.75-.75.38-.67-.6-1.92-.73-1.78-2,.23-2.17.48-4.33.72-6.5.09-.85.16-1.71.24-2.56Z"/><path class="cls-1" d="M96.79,72.07a8.84,8.84,0,0,1,6.3,3.62,4.35,4.35,0,0,1,.47,4.42c-.65,1.56-1.42,3.07-2.08,4.63-.26.64-.51.75-1.16.44-3.26-1.58-6.55-3.11-9.84-4.63-.53-.24-1-.41-.61-1.12.81-1.65,1.54-3.34,2.39-5S94.57,72.05,96.79,72.07Zm4.68,7.16a3.16,3.16,0,0,0-1.22-2.78C97.09,73.63,94.51,74.18,93,78c-.23.56-.21.82.38,1.08,2,.91,4,1.88,6.05,2.81.3.13.68.49.95-.1A10.58,10.58,0,0,0,101.47,79.23Z"/><path class="cls-1" d="M58.05,98.48a8.81,8.81,0,0,1-1,4.18c-1.45,2.88-3.43,3.76-6.56,3-1.26-.33-2.51-.71-3.78-1-.86-.2-1-.58-.77-1.42q1.45-5.14,2.78-10.33c.2-.78.55-.88,1.23-.68,1.53.45,3.08.81,4.6,1.29A4.62,4.62,0,0,1,58.05,98.48Zm-2.64-.27c0-1.75-2.53-3.73-4.29-3.34-.38.08-.36.39-.43.66q-.9,3.34-1.82,6.69c-.07.27-.22.49.15.73a3.71,3.71,0,0,0,5.68-1.66A7.79,7.79,0,0,0,55.41,98.21Z"/><path class="cls-1" d="M32.58,79.74C30.19,81,30.2,81,31.63,83.17c.46.68.86,1.41,1.37,2s.75,1.17-.21,1.8-1.2.16-1.61-.51c-.63-1-1.42-2-2-3s-1.09-1-1.86-.32a3.66,3.66,0,0,1-.84.57c-.66.33-.65.71-.26,1.26,1,1.44,1.9,2.94,2.93,4.34.58.79.17,1.06-.43,1.43s-.93.81-1.48-.07c-1.42-2.25-2.91-4.46-4.41-6.66-.35-.5-.39-.76.17-1.13q4.6-3,9.16-6.16c.55-.37.88-.44,1.28.18,1.39,2.16,2.78,4.32,4.26,6.42.65.93-.15,1-.58,1.36s-.88.66-1.35-.11C34.76,82.94,33.65,81.35,32.58,79.74Z"/><path class="cls-1" d="M74.06,94.33c.25-.73-.66-1.81.78-2.48s2.16-.56,3.17.62c2.26,2.65,4.69,5.17,7.08,7.7.6.64.76.9-.21,1.35-1.15.54-2,.72-2.75-.55a1.07,1.07,0,0,0-1.7-.43,5.91,5.91,0,0,1-1.45.65c-1.42.38-2.07,1.15-1.73,2.69.16.71-1.37,2-2.11,1.81-.53-.11-.39-.6-.41-.94C74.5,101.32,74.28,97.89,74.06,94.33Zm2.39.14c.15,1.67.28,3,.37,4.27.06.74.29.85,1,.56,2.15-.87,2.16-.83.6-2.59Z"/><path class="cls-1" d="M97.07,62.17c-.6,1.48.26,1.75,1.77,1.82,2.51.12,5,.51,7.51.72.73.06,1.15.25.89,1s.38,1.83-1.1,1.67c-2.65-.27-5.3-.46-7.94-.81-1.24-.16-1.85.08-1.71,1.44a9.45,9.45,0,0,1-.08,1.3c0,.81-.38,1.06-1.19,1S94,69.94,94.14,69c.31-2.7.54-5.4.74-8.1.07-1,.46-1.14,1.36-1.08,1.06.07,1,.65.88,1.37A9.17,9.17,0,0,0,97.07,62.17Z"/><path class="cls-1" d="M62.73,107.35c-1,.32-1.27-.31-1.33-1.36-.19-3.44-.45-6.88-.75-10.31-.08-.92.23-1.25,1.12-1.15.67.07,1.53-.42,1.57,1,.09,2.76.38,5.52.53,8.28,0,.85.22,1.21,1.19,1.08,1.44-.21,2.9-.18,4.35-.35s.84.86,1,1.43c.25.79-.26.84-.86.89C67.34,107,65.12,107.15,62.73,107.35Z"/><path class="cls-1" d="M81.64,35.24c-.94-.2-.86-.73-.79-1.29.11-.81.12-1.65.3-2.45s-.48-1.05-1-1.37c-.71-.46-.78.29-1,.62-.39.55-.7,1.15-1.06,1.73-.17.28-.3.61-.76.28s-.25-.45-.08-.72c1.38-2.28,2.76-4.55,4.12-6.84.3-.5.6-.5,1-.18a17.37,17.37,0,0,0,1.48.92c1,.61,2,1.27,1.73,2.7a3.13,3.13,0,0,1-3,2.66c-.7.05-.64.45-.69.85C81.85,33.16,81.76,34.17,81.64,35.24Zm.91-4.84a2.34,2.34,0,0,0,2.13-2.16c0-.65-1.75-2.26-2.42-2.23a9.89,9.89,0,0,0-2,2.89A4.41,4.41,0,0,0,82.55,30.4Z"/><path class="cls-1" d="M43.72,24.49c1.87,0,3.5,2.47,2.67,4-.53.94-.16,1.25.49,1.69s1,.73,1.51,1.12c.23.18.76.29.41.73a.64.64,0,0,1-.92.05,21.17,21.17,0,0,1-2.07-1.6c-.77-.74-1.43-.36-2,.11s.12.91.27,1.33a16,16,0,0,0,.81,1.53c.13.28.41.57-.09.85s-.59-.13-.73-.39c-.78-1.4-1.54-2.8-2.31-4.2a7.77,7.77,0,0,1-.48-.9c-.31-.86-1.56-1.84-1-2.45A6.47,6.47,0,0,1,43.72,24.49Zm2,3.21c0-1-1-2.37-1.84-2.26a3.61,3.61,0,0,0-2.53,1.4c-.17.22,1.58,2.95,1.82,3C43.85,29.86,45.67,28.35,45.7,27.7Z"/><path class="cls-1" d="M89.37,43.22c-.57-.32-.53-.67-.27-1.13s1-.9.62-1.51a11,11,0,0,0-1.86-2.22c-.47-.42-1,.2-1.45.35s-.79.37-1-.11.33-.55.62-.68c2.39-1.05,4.78-2.1,7.18-3.12.37-.15.78-.48,1.16,0s.06.72-.15,1c-1.46,2.29-2.92,4.57-4.4,6.85A4.25,4.25,0,0,1,89.37,43.22ZM90.47,40l2.76-4.29-4.65,2Z"/><path class="cls-1" d="M39.92,32.31a14.7,14.7,0,0,0-1.16,1.07c-.46.53-1.59.82-1.34,1.52a7.7,7.7,0,0,0,1.81,2.23c.37.4.57-.09.8-.28l2-1.7c.25-.21.48-.32.72,0s.08.44-.12.62l-3,2.59c-.4.36-.61,0-.82-.21-1.71-2-3.41-4-5.12-5.95-.3-.35-.44-.58,0-.93.93-.78,1.83-1.59,2.74-2.39.23-.2.46-.39.74-.09s.07.6-.21.83-.71.67-1.11.93c-1.21.77-1.27,1.44-.22,2.54.81.85,1.24,1,2,.09A11.19,11.19,0,0,1,39.06,32C39.48,31.6,39.64,32,39.92,32.31Z"/><path class="cls-1" d="M78.34,23.28c-.14.48-.44.52-.81.39-.72-.26-1.47-.48-2.18-.78s-1.07-.1-1.25.61a5.06,5.06,0,0,1-.4,1.23c-.39.7-.06.93.55,1.12s1.27.45,1.91.67c.32.11.71.14.58.63s-.5.31-.81.23a3.55,3.55,0,0,1-.54-.21c-2.35-.81-2.31-.79-3.09,1.53-.24.74-.17,1.13.63,1.34a21.69,21.69,0,0,1,2.19.74c.23.09.58.16.44.6s-.34.35-.65.24c-1.18-.42-2.37-.84-3.56-1.23-.58-.18-.42-.48-.28-.89.84-2.41,1.66-4.84,2.49-7.26.15-.45.35-.8.92-.6l3.42,1.21C78.11,22.93,78.36,23,78.34,23.28Z"/><path class="cls-1" d="M57.43,22.69c-.07-2.57-.07-2.61,2.4-2.74.74,0,2.1-.53,2.14.25.07,1.06-1.26.47-1.95.57a1.86,1.86,0,0,0-1.63,2.84c.17.42.48.4.82.39l2.17-.08c.32,0,.75-.14.75.4s-.4.47-.74.48a12.12,12.12,0,0,1-1.59.05c-1.06-.09-1.37.38-1.21,1.36a5.73,5.73,0,0,1,0,1.31c0,.71.31.93,1,.86s1.55-.09,2.33-.11c.3,0,.73-.19.74.38s-.4.47-.72.49c-1.07.06-2.14,0-3.19.18-.86.12-1-.29-1-1C57.67,26.42,57.54,24.48,57.43,22.69Z"/><path class="cls-1" d="M53,28.5c0-2.22,0-4.44,0-6.67,0-.42-.24-1.14.55-1.06s.32.7.32,1.06c0,2.52,0,5.05-.08,7.58,0,.41.1.86-.48,1.07s-.76-.26-1-.6c-1.42-2.2-2.84-4.4-4.24-6.61-.19-.29-.66-.62-.09-.95s.67.17.88.49l3.74,5.83Z"/><path class="cls-1" d="M34.61,42.92c-1.75,0-5.32-2.75-5.76-4.41a3.73,3.73,0,0,1,1.82-3.8c.26-.12.52-.34.73,0a.48.48,0,0,1-.09.66c-.86.66-1.76,1.36-1.54,2.59.25,1.41,1.5,2.07,2.52,2.87a6.68,6.68,0,0,0,1.36.83c1.35.59,2.32.11,3.1-1.46.19-.36.13-1.18.86-.83s0,.88-.09,1.24A3.31,3.31,0,0,1,34.61,42.92Z"/><path class="cls-1" d="M64.42,26.5A12,12,0,0,1,65,22.21,3.21,3.21,0,0,1,70,20.7c.21.15.43.26.34.54a.49.49,0,0,1-.68.35c-.32-.1-.63-.25-1-.34a2,2,0,0,0-2.74,1.4,11.41,11.41,0,0,0-.57,3.28c-.11,2.13.89,3,3,2.78.36,0,.85-.33,1,.22.18.72-.49.58-.86.65C65.89,30.06,64.41,28.72,64.42,26.5Z"/><path class="cls-1" d="M89.45,29.77c.38.47.18.82-.17,1.22-1.65,1.9-3.26,3.83-4.9,5.74-.22.26-.41.74-.9.29-.26-.24-.24-.46,0-.72C85.3,34.17,87.12,32,89,29.92c.09-.12.34-.1.52-.14Z"/><path class="cls-1" d="M89.48,29.78c.38,0,.16-.43.3-.5.63-.32,1.23-.79,2-.55.13,0,.29.38.26.4-.51.49-1.21.46-1.85.63-.24.06-.49-.4-.74,0Z"/><path class="cls-1" d="M86.35,90.31l-.26-.4a.52.52,0,0,1,.61.12Z"/><path class="cls-1" d="M67.56,77.4l5.91-7.69a2.25,2.25,0,0,0,.24-1.54q0-8.61,0-17.2a3.07,3.07,0,0,0-2.35-3.39A9.21,9.21,0,0,0,67.8,47c-1.12,0-1.8-.55-1.78-1.63a1.52,1.52,0,0,1,1.77-1.52,12.33,12.33,0,0,1,5.89,1.35,5.54,5.54,0,0,1,3.08,5.06c0,6.36,0,12.72,0,19.09A2.58,2.58,0,0,1,76.39,71a100.78,100.78,0,0,1-7.15,9.18c-1.56,1.7-1.83,1.69-3.42,0A31.14,31.14,0,0,1,63.21,77c-.65-.92-1-1-1.72,0a27.71,27.71,0,0,1-3.32,3.87,1.26,1.26,0,0,1-2.09,0,84.32,84.32,0,0,1-7.92-10,2.49,2.49,0,0,1-.31-1.54V53.36c0-1.53.57-2.36,1.62-2.26,1.44.13,1.55,1.18,1.55,2.34,0,5,0,9.91,0,14.86a3.11,3.11,0,0,0,.73,2.11c1.61,2,3.2,4,4.71,6.11.62.85,1,.67,1.43,0,.18-.28.41-.54.62-.81,1.74-2.27,1.76-2.28.24-4.62a2.79,2.79,0,0,1-.41-1.65c0-5.39,0-10.78,0-16.17,0-1.17.27-2.13,1.6-2.11s1.55,1.08,1.55,2.18c0,5,0,10,0,15a2.41,2.41,0,0,0,.86,2.18,2.16,2.16,0,0,0,1-2.08c0-5.88-.05-11.76,0-17.63a3,3,0,0,0-2-3A8.94,8.94,0,0,0,57.47,47c-1.09,0-1.83-.39-1.84-1.56s.79-1.63,1.83-1.59A12.58,12.58,0,0,1,63,45a5.89,5.89,0,0,1,3.45,5.61c0,5.78-.06,11.56,0,17.34A5.74,5.74,0,0,1,65,72.37a1.07,1.07,0,0,0,0,1.72C65.85,75.1,66.63,76.21,67.56,77.4Z"/></g></svg>