<?xml version="1.0" encoding="utf-8"?>
<!-- Generator: Adobe Illustrator 22.0.1, SVG Export Plug-In . SVG Version: 6.00 Build 0)  -->
<svg version="1.1" id="Capa_1" xmlns="http://www.w3.org/2000/svg" xmlns:xlink="http://www.w3.org/1999/xlink" x="0px" y="0px"
	 viewBox="0 0 68 62" style="enable-background:new 0 0 68 62;" xml:space="preserve">
<style type="text/css">
	.st0{fill-rule:evenodd;clip-rule:evenodd;fill:#2C3438;}
	.st1{fill-rule:evenodd;clip-rule:evenodd;fill:#CACACE;}
	.st2{fill-rule:evenodd;clip-rule:evenodd;fill:#191A1B;}
	.st3{fill-rule:evenodd;clip-rule:evenodd;fill:#A8A8B1;stroke:#7F7F84;stroke-miterlimit:10;}
	.st4{fill-rule:evenodd;clip-rule:evenodd;fill:#97979A;}
	.st5{fill-rule:evenodd;clip-rule:evenodd;fill:#DCDCE5;}
	.st6{fill:#FFFFFF;}
	.st7{fill:#2C3438;}
	.st8{opacity:0.5;fill:#A8A8B1;stroke:#7F7F84;stroke-miterlimit:10;}
	.st9{fill-rule:evenodd;clip-rule:evenodd;fill:#B3B3BB;}
	.st10{fill:#191A1B;}
	.st11{fill:#C12A21;}
</style>
<g>
	<polygon class="st0" points="3,3 21,3 37,3 38,5 38,58 37,60 5,60 2,56 	"/>
	<polygon class="st5" points="42,4 49,58 50,58 66,57 66,54 60,4 58,1 	"/>
	<circle class="st5" cx="12.5" cy="45.5" r="4.5"/>
	<circle class="st5" cx="29.5" cy="45.5" r="4.5"/>
	<path class="st2" d="M18.8,3.8H5.2c-0.3,0-0.6,0.1-0.9,0.4l0,0C4.1,4.4,4,4.7,4,5v52.2c0,0.3,0.1,0.6,0.4,0.9
		c0.2,0.2,0.5,0.3,0.9,0.3h13.6c0.3,0,0.6-0.1,0.9-0.3h0c0.2-0.2,0.4-0.5,0.4-0.9V5c0-0.3-0.1-0.6-0.4-0.8
		C19.4,3.9,19.1,3.8,18.8,3.8L18.8,3.8z M55.5,40.6c-1.1,0.2-2.1,0.8-2.7,1.6c-0.6,0.8-1,1.9-0.8,3.1c0.2,1.1,0.8,2.1,1.6,2.7
		c0.8,0.6,1.9,1,3.1,0.8c1.1-0.2,2.1-0.8,2.7-1.6c0.6-0.8,1-1.9,0.8-3.1c-0.2-1.1-0.8-2.1-1.6-2.7C57.7,40.8,56.6,40.5,55.5,40.6
		L55.5,40.6z M51.5,41.3c0.9-1.2,2.2-2,3.8-2.2c1.6-0.2,3.1,0.2,4.2,1.1c1.2,0.9,2,2.2,2.2,3.8c0.2,1.6-0.2,3.1-1.1,4.2
		c-0.9,1.2-2.2,2-3.8,2.2c-1.6,0.2-3.1-0.2-4.2-1.1c-1.2-0.9-2-2.2-2.2-3.8C50.1,43.9,50.6,42.4,51.5,41.3L51.5,41.3z M48,20.9
		c-0.4,0.1-0.8-0.2-0.9-0.7c-0.1-0.4,0.2-0.8,0.7-0.9l9.4-1.3c0.4-0.1,0.8,0.2,0.9,0.7c0.1,0.4-0.2,0.8-0.7,0.9L48,20.9L48,20.9z
		 M56.2,10.5c0.4-0.1,0.8,0.2,0.9,0.7c0.1,0.4-0.2,0.8-0.7,0.9l-9.4,1.3c-0.4,0.1-0.8-0.2-0.9-0.7c-0.1-0.4,0.2-0.8,0.7-0.9
		L56.2,10.5L56.2,10.5z M57.1,2.2L57.1,2.2c0.3,0,0.7,0,0.9,0.2v0c0.2,0.2,0.4,0.5,0.5,0.8v0l7.1,51.7l0,0c0,0.3-0.1,0.6-0.2,0.9h0
		c-0.2,0.2-0.5,0.4-0.8,0.5h0l-13.5,1.8l0,0c-0.3,0-0.6-0.1-0.9-0.2v0c-0.2-0.2-0.4-0.5-0.5-0.8l0,0L42.6,5.4v0
		c0-0.3,0.1-0.6,0.2-0.9h0c0.2-0.2,0.5-0.4,0.8-0.5l0,0L57.1,2.2L57.1,2.2z M43.5,2.5l13.4-1.8c0,0,0.1,0,0.1,0
		c0.7-0.1,1.5,0.1,2,0.6v0l0,0c0.6,0.4,1,1,1.1,1.8c0,0,0,0.1,0,0.1l7.1,51.6c0,0,0,0.1,0,0.1c0.1,0.7-0.1,1.5-0.6,2v0l0,0
		c-0.4,0.6-1,1-1.8,1.1c0,0-0.1,0-0.1,0l-13.4,1.8c0,0-0.1,0-0.1,0c-0.7,0.1-1.5-0.1-2-0.6h0l0,0c-0.6-0.4-1-1-1.1-1.8
		c0,0,0-0.1,0-0.1L41,5.7c0,0,0-0.1,0-0.1c-0.1-0.7,0.1-1.5,0.6-2v0l0,0c0.4-0.6,1-1,1.8-1.1C43.4,2.5,43.4,2.5,43.5,2.5L43.5,2.5z
		 M29.6,41.6c-1.1,0-2.2,0.5-2.9,1.2c-0.7,0.8-1.2,1.8-1.2,2.9c0,1.1,0.5,2.2,1.2,2.9c0.7,0.7,1.8,1.2,2.9,1.2
		c1.1,0,2.2-0.5,2.9-1.2c0.7-0.8,1.2-1.8,1.2-2.9c0-1.1-0.5-2.2-1.2-2.9C31.7,42.1,30.7,41.6,29.6,41.6L29.6,41.6z M25.5,41.7
		c1-1,2.5-1.7,4.1-1.7c1.6,0,3,0.6,4.1,1.7c1,1,1.7,2.5,1.7,4.1c0,1.6-0.6,3-1.7,4.1c-1,1-2.5,1.7-4.1,1.7c-1.6,0-3-0.6-4.1-1.7
		c-1-1-1.7-2.5-1.7-4.1C23.8,44.2,24.5,42.8,25.5,41.7L25.5,41.7z M24.8,21.1c-0.4,0-0.8-0.4-0.8-0.8c0-0.4,0.4-0.8,0.8-0.8h9.5
		c0.4,0,0.8,0.4,0.8,0.8c0,0.4-0.4,0.8-0.8,0.8H24.8L24.8,21.1z M34.3,11.9c0.4,0,0.8,0.4,0.8,0.8c0,0.4-0.4,0.8-0.8,0.8h-9.5
		c-0.4,0-0.8-0.4-0.8-0.8c0-0.4,0.4-0.8,0.8-0.8H34.3L34.3,11.9z M36.4,3.8c0.3,0,0.6,0.1,0.8,0.4c0.2,0.2,0.4,0.5,0.4,0.8v52.2
		c0,0.3-0.1,0.6-0.4,0.9h0c-0.2,0.2-0.5,0.3-0.9,0.3H22.8c-0.3,0-0.6-0.1-0.8-0.3c-0.2-0.2-0.4-0.5-0.4-0.9V5c0-0.3,0.1-0.6,0.3-0.8
		l0,0c0.2-0.2,0.5-0.4,0.8-0.4H36.4L36.4,3.8z M22.8,2.2h13.6c0.8,0,1.5,0.3,2,0.8c0.5,0.5,0.8,1.2,0.8,2v52.2c0,0.8-0.3,1.5-0.8,2
		h0l0,0c-0.5,0.5-1.2,0.8-2,0.8H22.8c-0.8,0-1.5-0.3-2-0.8l0,0l0,0l0,0l0,0l0,0c-0.5,0.5-1.2,0.8-2,0.8H5.2c-0.8,0-1.5-0.3-2-0.8v0
		c-0.5-0.5-0.8-1.2-0.8-2V5c0-0.7,0.3-1.4,0.8-1.9c0,0,0,0,0.1-0.1c0.5-0.5,1.2-0.8,2-0.8h13.6c0.8,0,1.5,0.3,2,0.8l0,0l0,0
		C21.3,2.5,22,2.2,22.8,2.2L22.8,2.2z M11.9,41.6c1.1,0,2.2,0.5,2.9,1.2c0.7,0.8,1.2,1.8,1.2,2.9c0,1.1-0.5,2.2-1.2,2.9
		c-0.7,0.7-1.8,1.2-2.9,1.2c-1.1,0-2.2-0.5-2.9-1.2c-0.7-0.8-1.2-1.8-1.2-2.9c0-1.1,0.5-2.2,1.2-2.9C9.7,42.1,10.8,41.6,11.9,41.6
		L11.9,41.6z M7.9,41.7c1-1,2.5-1.7,4.1-1.7c1.6,0,3,0.6,4.1,1.7c1,1,1.7,2.5,1.7,4.1c0,1.6-0.6,3-1.7,4.1c-1,1-2.5,1.7-4.1,1.7
		c-1.6,0-3-0.6-4.1-1.7c-1-1-1.7-2.5-1.7-4.1C6.2,44.2,6.8,42.8,7.9,41.7L7.9,41.7z M7.2,21.1c-0.4,0-0.8-0.4-0.8-0.8
		c0-0.4,0.4-0.8,0.8-0.8h9.5c0.4,0,0.8,0.4,0.8,0.8c0,0.4-0.4,0.8-0.8,0.8H7.2L7.2,21.1z M16.7,11.9c0.4,0,0.8,0.4,0.8,0.8
		c0,0.4-0.4,0.8-0.8,0.8H7.2c-0.4,0-0.8-0.4-0.8-0.8c0-0.4,0.4-0.8,0.8-0.8H16.7z"/>
</g>
</svg>
