<svg id="Capa_1" data-name="Capa 1" xmlns="http://www.w3.org/2000/svg" viewBox="0 0 112 90"><defs><style>.cls-1{fill:#fff;}</style></defs><title>ICONOS-WEB-soporte</title><rect class="cls-1" x="39.69" y="66.75" width="27.19" height="5.44"/><path class="cls-1" d="M34.25,6.94h43.5V17.81h5.44V6.94A5.45,5.45,0,0,0,77.75,1.5H34.25a5.45,5.45,0,0,0-5.44,5.44V17.81h5.44Z"/><rect class="cls-1" x="39.69" y="55.87" width="32.62" height="5.44"/><path class="cls-1" d="M94.06,23.25H17.94a5.45,5.45,0,0,0-5.44,5.44V61.31a5.44,5.44,0,0,0,5.44,5.44H28.81V83.06a5.44,5.44,0,0,0,5.44,5.44h43.5a5.44,5.44,0,0,0,5.44-5.44V66.75H94.06a5.43,5.43,0,0,0,5.44-5.44V28.69A5.44,5.44,0,0,0,94.06,23.25ZM77.75,83.06H34.25V50.44h43.5V83.06Zm10.87-43.5a5.44,5.44,0,1,1,5.44-5.43A5.43,5.43,0,0,1,88.62,39.56Z"/></svg>