<svg id="Capa_1" data-name="Capa 1" xmlns="http://www.w3.org/2000/svg" viewBox="0 0 112 90"><defs><style>.cls-1{fill:#fff;}</style></defs><title>ICONOS-WEB-soporte</title><path class="cls-1" d="M79.38,55.46A16.07,16.07,0,0,0,67,61.29L47.78,50.38a16,16,0,0,0,0-10.75L67,28.71a16.11,16.11,0,1,0-2.78-4.89L45,34.73a16.09,16.09,0,1,0,0,20.54L64.22,66.18A16.09,16.09,0,1,0,79.38,55.46ZM79.38,8A10.47,10.47,0,1,1,68.92,18.44,10.48,10.48,0,0,1,79.38,8ZM32.62,55.46A10.46,10.46,0,1,1,43.08,45,10.47,10.47,0,0,1,32.62,55.46ZM79.38,82A10.47,10.47,0,1,1,89.84,71.56,10.48,10.48,0,0,1,79.38,82Z"/></svg>