<svg id="Capa_1" data-name="Capa 1" xmlns="http://www.w3.org/2000/svg" viewBox="0 0 112 90"><defs><style>.cls-1{fill:#fff;}</style></defs><title>ICONOS-WEB-soporte</title><path class="cls-1" d="M94,84.68l.93-.93.93-.93c.51-.51-.37-2.89-2-5.31l-4.1-6.22c-1.59-2.42-4.11-4.64-5.63-5l-2.75-.58L69.1,53.42l-4.5,4.49L76.93,70.25,77.51,73c.32,1.52,2.55,4,5,5.64l6.22,4.1C91.12,84.32,93.5,85.2,94,84.68Z"/><path class="cls-1" d="M18.36,20.41,36.69,38.74,39,41a2,2,0,0,0,.16.14l3-3L20.54,16.51a1.34,1.34,0,0,1,1.89-1.9L44.05,36.24l3.37-3.38L25.8,11.24a1.32,1.32,0,0,1,0-1.89,1.34,1.34,0,0,1,1.89,0L49.32,31l3-3-.12-.16-2.41-2.41L31.6,7.18A9.36,9.36,0,1,0,18.36,20.41Z"/><path class="cls-1" d="M96.33,22c-.22-2.89-2.78-3.45-4.83-1.4l-7.16,7.16a4.27,4.27,0,0,1-6,0l-4.64-4.63a4.31,4.31,0,0,1,0-6.08l7.41-7.4c2-2,1.53-4.7-1.35-5A18.92,18.92,0,0,0,58.59,21.71a19.5,19.5,0,0,0,.24,5.17L19.08,66.62a11.11,11.11,0,0,0,15.71,15.7S63.36,53.76,74.92,42.18a18.57,18.57,0,0,0,5.47-.06A18.88,18.88,0,0,0,96.33,22ZM30.69,78.91a5.79,5.79,0,1,1,0-8.18A5.79,5.79,0,0,1,30.69,78.91Z"/></svg>