<svg id="Capa_1" data-name="Capa 1" xmlns="http://www.w3.org/2000/svg" viewBox="0 0 112 90"><defs><style>.cls-1{fill:#fff;}</style></defs><title>ICONOS-WEB-soporte</title><path class="cls-1" d="M77,43.4l.29-.29.29-.3c.17-.16-.11-.91-.61-1.67l-1.29-2a4,4,0,0,0-1.78-1.57l-.86-.18-3.89-3.88L67.74,35l3.89,3.89.18.86a3.85,3.85,0,0,0,1.57,1.78l2,1.29C76.1,43.28,76.85,43.56,77,43.4Z"/><path class="cls-1" d="M53.17,23.14,59,28.92l.72.72a.1.1,0,0,0,0,0l1-.95-6.81-6.82a.42.42,0,0,1,.59-.59l6.81,6.81,1.07-1.06-6.82-6.82a.42.42,0,0,1,0-.59.42.42,0,0,1,.6,0l6.82,6.82,1-1,0-.05-.76-.76L57.34,19a2.95,2.95,0,0,0-4.17,4.17Z"/><path class="cls-1" d="M77.74,23.65c-.07-.91-.88-1.09-1.52-.44L74,25.46a1.35,1.35,0,0,1-1.91,0L70.59,24a1.35,1.35,0,0,1,0-1.91l2.33-2.33c.65-.65.49-1.49-.42-1.59a6,6,0,0,0-6.58,7L53.4,37.71a3.5,3.5,0,0,0,5,4.94L71,30a5.9,5.9,0,0,0,1.73,0A6,6,0,0,0,76,28.32,5.94,5.94,0,0,0,77.74,23.65ZM57.05,41.58a1.82,1.82,0,1,1,0-2.58A1.83,1.83,0,0,1,57.05,41.58Z"/><path class="cls-1" d="M32.75,13H15.31A5.81,5.81,0,0,0,9.5,18.84V82.78a5.81,5.81,0,0,0,5.81,5.81H32.75a5.81,5.81,0,0,0,5.81-5.81V18.84A5.81,5.81,0,0,0,32.75,13ZM18.22,71.16a2.91,2.91,0,1,1,2.9-2.91A2.91,2.91,0,0,1,18.22,71.16ZM32.75,36.28H15.31V30.47H32.75v5.81Zm0-11.62H15.31V18.84H32.75v5.82Z"/><path class="cls-1" d="M70.53,77V71.16H53.09V77a5.81,5.81,0,0,0-5.81,5.81H76.34A5.81,5.81,0,0,0,70.53,77Z"/><path class="cls-1" d="M96.69,1.41H26.94a5.81,5.81,0,0,0-5.82,5.81H96.69v46.5H44.38V65.34H96.69a5.81,5.81,0,0,0,5.81-5.81V7.22A5.81,5.81,0,0,0,96.69,1.41Zm-34.88,61a2.91,2.91,0,1,1,2.91-2.91A2.9,2.9,0,0,1,61.81,62.44Z"/></svg>