<svg id="Capa_1" data-name="Capa 1" xmlns="http://www.w3.org/2000/svg" viewBox="0 0 112 90"><defs><style>.cls-1{fill:#fff;}</style></defs><title>ICONOS-WEB-soporte</title><path class="cls-1" d="M18.61,64.38H93.39a4,4,0,0,0,4-4V7a4,4,0,0,0-4-4H18.61a4,4,0,0,0-4,4V60.37a4,4,0,0,0,4,4Zm4-53.42H89.39v45.4H22.61ZM96,74.2H67.22V72.43a3,3,0,0,0-3-3H47.8a3,3,0,0,0-3,3V74.2H16a4,4,0,0,0,0,8.07H44.78V84a3,3,0,0,0,3,3H64.2a3,3,0,0,0,3-3V82.27H96a4,4,0,0,0,0-8.07ZM61.17,81H50.83V75.46H61.17ZM25.68,31.36H86.32V15.78H25.68ZM28.9,19H83.1v9.14H28.9ZM25.68,51.53H86.32V36H25.68ZM28.9,39.18H83.1v9.14H28.9Zm2.51-17.63h4v4h-4Zm6.05,0h4v4h-4Zm6,0h4v4h-4ZM31.41,41.73h4v4h-4Zm6.05,0h4v4h-4Zm6,0h4v4h-4Z"/></svg>