<svg id="Capa_1" data-name="Capa 1" xmlns="http://www.w3.org/2000/svg" viewBox="0 0 112 90"><defs><style>.cls-1{fill:#fff;}</style></defs><title>ICONOS-WEB-soporte</title><path class="cls-1" d="M25.63,77a3.68,3.68,0,0,0,1.74,2.25l8.4,4.8a3.59,3.59,0,0,0,1.83.49,3.73,3.73,0,0,0,3.23-1.86L55,57.86a26,26,0,0,0,5,.48,26.47,26.47,0,1,0-19.81-9L26,74.2A3.68,3.68,0,0,0,25.63,77ZM48.2,60.85l-7.12-4.07,2.45-4.27a27.36,27.36,0,0,0,3.38,2.34,26.18,26.18,0,0,0,3.72,1.74ZM41,21a22,22,0,1,1,8.17,30A22.09,22.09,0,0,1,41,21ZM38.87,60.64,46,64.71,37.34,79.84l-7.12-4.07Z"/><path class="cls-1" d="M50.68,48.27a18.88,18.88,0,1,0-8.83-11.42A18.86,18.86,0,0,0,50.68,48.27ZM45,23.27a17.38,17.38,0,1,1-1.68,13.19A17.42,17.42,0,0,1,45,23.27Z"/></svg>