<svg id="Capa_1" data-name="Capa 1" xmlns="http://www.w3.org/2000/svg" viewBox="0 0 112 90"><defs><style>.cls-1{fill:#fff;}</style></defs><title>ICONOS-WEB-soporte</title><path class="cls-1" d="M69.84,53.37l.33-.32.32-.33c.18-.18-.12-1-.68-1.86l-1.43-2.17a4.32,4.32,0,0,0-2-1.74l-1-.2-4.32-4.31L59.56,44l4.31,4.31.21,1a4.3,4.3,0,0,0,1.73,2L68,52.69C68.83,53.24,69.66,53.55,69.84,53.37Z"/><path class="cls-1" d="M43.39,30.9l6.41,6.41.8.79.06,0,1.05-1.06-7.56-7.56a.47.47,0,0,1,0-.66.48.48,0,0,1,.67,0l7.55,7.56,1.18-1.18L46,27.69a.47.47,0,1,1,.66-.66l7.57,7.56,1.05-1.06,0-.05-.84-.84L48,26.27a3.27,3.27,0,1,0-4.63,4.63Z"/><path class="cls-1" d="M70.65,31.46c-.07-1-1-1.21-1.68-.49l-2.51,2.5a1.49,1.49,0,0,1-2.11,0l-1.63-1.62a1.52,1.52,0,0,1,0-2.13l2.59-2.58c.72-.72.54-1.65-.47-1.76a6.61,6.61,0,0,0-7.38,6,6.47,6.47,0,0,0,.08,1.81L43.65,47.05a3.88,3.88,0,1,0,5.49,5.49l14-14a6.79,6.79,0,0,0,1.91,0,6.58,6.58,0,0,0,5.57-7Zm-23,19.89a2,2,0,1,1,0-2.86A2,2,0,0,1,47.7,51.35Z"/><path class="cls-1" d="M83.61.63H28.39A7.88,7.88,0,0,0,20.5,8.51v73a7.88,7.88,0,0,0,7.89,7.88H83.61a7.88,7.88,0,0,0,7.89-7.88v-73A7.88,7.88,0,0,0,83.61.63ZM56,85a3.39,3.39,0,1,1,3.39-3.39A3.39,3.39,0,0,1,56,85Zm28.6-11.9a1.72,1.72,0,0,1-1.72,1.72H29.12a1.72,1.72,0,0,1-1.72-1.72V9.08a1.72,1.72,0,0,1,1.72-1.72H82.88A1.72,1.72,0,0,1,84.6,9.08V73.14Z"/></svg>