<?xml version="1.0" encoding="utf-8"?>
<!-- Generator: Adobe Illustrator 22.1.0, SVG Export Plug-In . SVG Version: 6.00 Build 0)  -->
<svg version="1.1" id="Capa_1" xmlns="http://www.w3.org/2000/svg" xmlns:xlink="http://www.w3.org/1999/xlink" x="0px" y="0px"
	 viewBox="0 0 112 90" style="enable-background:new 0 0 112 90;" xml:space="preserve">
<style type="text/css">
	.st0{fill:#FFFFFF;}
</style>
<g>
	<path class="st0" d="M86,57.1l-2.3-1.3c0.1-1,0.2-2,0.2-3c0-1-0.1-2-0.2-3l2.3-1.3c1.5-0.9,2.6-2.3,3.1-4c0.5-1.7,0.2-3.5-0.7-5
		l-4.7-8.1c-1.8-3.1-6-4.2-9.1-2.4l-2.3,1.3c-0.9-0.6-1.8-1.2-2.7-1.7v7.1c0.2,0.1,0.4,0.2,0.6,0.4c1,0.8,2.3,0.9,3.4,0.3l4-2.3
		c0.1-0.1,0.2-0.1,0.4-0.1c0.1,0,0.5,0,0.7,0.4l4.7,8.1c0.1,0.2,0.1,0.4,0.1,0.6c0,0.1-0.1,0.3-0.4,0.5l-4,2.3
		c-1.1,0.6-1.6,1.9-1.4,3.1c0.3,1.4,0.4,2.7,0.4,4c0,1.3-0.1,2.6-0.4,4c-0.2,1.2,0.3,2.4,1.4,3.1l4,2.3c0.4,0.2,0.5,0.7,0.3,1
		l-4.7,8.1c-0.2,0.4-0.6,0.4-0.7,0.4c-0.1,0-0.3,0-0.4-0.1l-4-2.3c-1.1-0.6-2.4-0.5-3.4,0.3c-2,1.7-4.4,3.1-6.9,4
		c-1.2,0.4-2,1.5-2,2.8v4.6c0,0.4-0.3,0.8-0.8,0.8h-9.4c-0.4,0-0.8-0.3-0.8-0.8v-4.6c0-1.2-0.8-2.4-2-2.8c-2.5-0.9-4.9-2.2-6.9-4
		c-0.9-0.8-2.3-0.9-3.4-0.3l-4,2.3c-0.1,0.1-0.2,0.1-0.4,0.1c-0.1,0-0.5,0-0.7-0.4l-4.7-8.1c-0.2-0.4-0.1-0.8,0.3-1l4-2.3
		c1.1-0.6,1.6-1.8,1.4-3.1c-0.3-1.4-0.4-2.7-0.4-4c0-1.3,0.1-2.6,0.4-4c0.2-1.2-0.4-2.4-1.4-3.1l-4-2.3c-0.2-0.1-0.3-0.3-0.4-0.5
		c0-0.1-0.1-0.3,0.1-0.6l4.7-8.1c0.2-0.4,0.6-0.4,0.7-0.4c0.1,0,0.3,0,0.4,0.1l4,2.3c1.1,0.6,2.4,0.5,3.4-0.3
		c0.2-0.1,0.4-0.2,0.6-0.4v-7.1c-0.9,0.5-1.8,1.1-2.7,1.7l-2.3-1.3c-3.1-1.8-7.3-0.6-9.1,2.4l-4.7,8.1c-0.9,1.5-1.1,3.3-0.7,5
		c0.5,1.7,1.6,3.1,3.1,4l2.3,1.3c-0.1,1-0.2,2-0.2,3c0,1,0.1,2,0.2,3L26,57.1c-3.2,1.8-4.3,5.9-2.4,9.1l4.7,8.1
		c1.2,2,3.4,3.3,5.8,3.3c1.2,0,2.3-0.3,3.3-0.9l2.3-1.3c1.6,1.2,3.3,2.1,5.1,2.9v2.6c0,3.7,3,6.6,6.6,6.6h9.4c3.7,0,6.6-3,6.6-6.6
		v-2.6c1.8-0.8,3.5-1.8,5.1-2.9l2.3,1.3c1,0.6,2.2,0.9,3.3,0.9c2.4,0,4.6-1.3,5.8-3.3l4.7-8.1C90.3,62.9,89.2,58.9,86,57.1z"/>
	<path class="st0" d="M41.4,19.9h6.8v26.6c0,1.8,1.4,3.2,3.2,3.2h9.3c1.8,0,3.2-1.4,3.2-3.2V19.9h6.8c0.6,0,1.1-0.4,1.4-0.9
		c0.2-0.5,0.1-1.2-0.3-1.6L57.2,2.9c-0.3-0.3-0.8-0.5-1.2-0.5c-0.4,0-0.9,0.2-1.2,0.5L40.3,17.4c-0.4,0.4-0.5,1.1-0.3,1.6
		C40.3,19.5,40.8,19.9,41.4,19.9z"/>
</g>
</svg>
