<svg id="Capa_1" data-name="Capa 1" xmlns="http://www.w3.org/2000/svg" viewBox="0 0 112 90"><defs><style>.cls-1{fill:#fff;}</style></defs><title>ICONOS-WEB-soporte</title><path class="cls-1" d="M99.91,54,84.2,83.71a6.21,6.21,0,0,1-4.63,3h-63a5,5,0,0,1-5-5V32.82a5,5,0,0,1,5-5h4.61v4.27H18.09a2.29,2.29,0,0,0-2.28,2.28V80.22a2.27,2.27,0,0,0,2.27,2.27h3.16L36.14,52.37c.84-1.68,2.43-3,4.11-3H76.72V37.2A4.67,4.67,0,0,1,81,41.84v7.49H97.72C99.69,49.35,101.36,51.3,99.91,54ZM24.08,67.33c-.14-15,0-60,0-60a4.11,4.11,0,0,1,4.11-4.11H61.13a1.89,1.89,0,0,1,1.39.61L73.16,15.42a1.86,1.86,0,0,1,.5,1.27v30H70.21V19.28a.87.87,0,0,0-.86-.86H61.2a1.72,1.72,0,0,1-1.73-1.72V7.55a.87.87,0,0,0-.86-.86H28.19a.67.67,0,0,0-.66.66V63.56l-2.64,5.35S24.09,68.85,24.08,67.33ZM62.93,15h5.13L62.93,9.39V15Zm1.87,7H33a2.13,2.13,0,0,0,0,4.25H64.8a2.13,2.13,0,1,0,0-4.25Zm2.12,14.51a2.12,2.12,0,0,0-2.12-2.13H33a2.13,2.13,0,0,0,0,4.25H64.8A2.12,2.12,0,0,0,66.92,36.45ZM30.84,48.91A2.12,2.12,0,0,0,33,51h.77a6.35,6.35,0,0,1,4.67-4.24H33A2.12,2.12,0,0,0,30.84,48.91Z"/></svg>