<?xml version="1.0" encoding="utf-8"?>
<!-- Generator: Adobe Illustrator 22.1.0, SVG Export Plug-In . SVG Version: 6.00 Build 0)  -->
<svg version="1.1" id="Capa_1" xmlns="http://www.w3.org/2000/svg" xmlns:xlink="http://www.w3.org/1999/xlink" x="0px" y="0px"
	 viewBox="0 0 112 90" style="enable-background:new 0 0 112 90;" xml:space="preserve">
<style type="text/css">
	.st0{fill:#FFFFFF;}
</style>
<g>
	<g>
		<rect x="39.7" y="66.7" class="st0" width="27.2" height="5.4"/>
		<path class="st0" d="M34.3,6.9h43.5v10.9h5.4V6.9c0-3-2.4-5.4-5.4-5.4H34.3c-3,0-5.4,2.4-5.4,5.4v10.9h5.4V6.9z"/>
		<rect x="39.7" y="55.9" class="st0" width="32.6" height="5.4"/>
		<path class="st0" d="M94.1,23.3H17.9c-3,0-5.4,2.4-5.4,5.4v32.6c0,3,2.4,5.4,5.4,5.4h10.9v16.3c0,3,2.4,5.4,5.4,5.4h43.5
			c3,0,5.4-2.4,5.4-5.4V66.7h10.9c3,0,5.4-2.4,5.4-5.4V28.7C99.5,25.7,97.1,23.3,94.1,23.3z M77.7,83.1H34.3V50.4h43.5L77.7,83.1
			L77.7,83.1z M88.6,39.6c-3,0-5.4-2.4-5.4-5.4c0-3,2.4-5.4,5.4-5.4c3,0,5.4,2.4,5.4,5.4C94.1,37.1,91.6,39.6,88.6,39.6z"/>
	</g>
</g>
</svg>
