<?xml version="1.0" encoding="utf-8"?>
<!-- Generator: Adobe Illustrator 22.1.0, SVG Export Plug-In . SVG Version: 6.00 Build 0)  -->
<svg version="1.1" id="Capa_1" xmlns="http://www.w3.org/2000/svg" xmlns:xlink="http://www.w3.org/1999/xlink" x="0px" y="0px"
	 viewBox="0 0 112 90" style="enable-background:new 0 0 112 90;" xml:space="preserve">
<style type="text/css">
	.st0{fill:#FFFFFF;}
</style>
<g>
	<g>
		<g>
			<path class="st0" d="M77,43.4c0.2-0.2,0.3-0.3,0.3-0.3l0.3-0.3c0.2-0.2-0.1-0.9-0.6-1.7l-1.3-2c-0.5-0.8-1.3-1.5-1.8-1.6
				c-0.5-0.1-0.9-0.2-0.9-0.2l-3.9-3.9L67.7,35l3.9,3.9l0.2,0.9c0.1,0.5,0.8,1.3,1.6,1.8l2,1.3C76.1,43.3,76.8,43.6,77,43.4z"/>
			<path class="st0" d="M53.2,23.1l5.8,5.8l0.7,0.7c0,0,0,0,0,0l1-1l-6.8-6.8c-0.2-0.2-0.2-0.4,0-0.6c0.2-0.2,0.4-0.2,0.6,0l6.8,6.8
				l1.1-1.1l-6.8-6.8c-0.2-0.2-0.2-0.4,0-0.6c0.2-0.2,0.4-0.2,0.6,0l6.8,6.8l1-1c0,0,0,0,0-0.1l-0.8-0.8L57.3,19
				c-1.2-1.2-3-1.2-4.2,0C52,20.1,52,22,53.2,23.1z"/>
			<path class="st0" d="M77.7,23.6c-0.1-0.9-0.9-1.1-1.5-0.4L74,25.5c-0.5,0.5-1.4,0.5-1.9,0L70.6,24c-0.5-0.5-0.5-1.4,0-1.9
				l2.3-2.3c0.6-0.6,0.5-1.5-0.4-1.6c-1.8-0.2-3.6,0.4-4.9,1.7c-1,1-1.6,2.3-1.7,3.7c0,0.5,0,1.1,0.1,1.6L53.4,37.7
				c-0.7,0.7-1,1.5-1,2.5c0,0.9,0.4,1.8,1,2.5c1.4,1.4,3.6,1.4,5,0c0,0,9-9,12.6-12.7c0.6,0.1,1.2,0.1,1.7,0
				c1.2-0.2,2.4-0.7,3.3-1.7C77.3,27,77.9,25.3,77.7,23.6z M57.1,41.6c-0.7,0.7-1.9,0.7-2.6,0c-0.7-0.7-0.7-1.9,0-2.6
				c0.7-0.7,1.9-0.7,2.6,0C57.8,39.7,57.8,40.9,57.1,41.6z"/>
		</g>
	</g>
	<g>
		<g>
			<path class="st0" d="M32.8,13H15.3c-3.2,0-5.8,2.6-5.8,5.8v63.9c0,3.2,2.6,5.8,5.8,5.8h17.4c3.2,0,5.8-2.6,5.8-5.8V18.8
				C38.6,15.6,36,13,32.8,13z M18.2,71.2c-1.6,0-2.9-1.3-2.9-2.9c0-1.6,1.3-2.9,2.9-2.9c1.6,0,2.9,1.3,2.9,2.9
				C21.1,69.9,19.8,71.2,18.2,71.2z M32.8,36.3H15.3v-5.8h17.4L32.8,36.3L32.8,36.3z M32.8,24.7H15.3v-5.8h17.4L32.8,24.7L32.8,24.7
				z"/>
			<path class="st0" d="M70.5,77v-5.8H53.1V77c-3.2,0-5.8,2.6-5.8,5.8h29.1C76.3,79.6,73.7,77,70.5,77z"/>
			<path class="st0" d="M96.7,1.4H26.9c-3.2,0-5.8,2.6-5.8,5.8h5.8h17.4h52.3v46.5H44.4v11.6h52.3c3.2,0,5.8-2.6,5.8-5.8V7.2
				C102.5,4,99.9,1.4,96.7,1.4z M61.8,62.4c-1.6,0-2.9-1.3-2.9-2.9c0-1.6,1.3-2.9,2.9-2.9c1.6,0,2.9,1.3,2.9,2.9
				C64.7,61.1,63.4,62.4,61.8,62.4z"/>
		</g>
	</g>
</g>
</svg>
