<?xml version="1.0" encoding="utf-8"?>
<!-- Generator: Adobe Illustrator 22.1.0, SVG Export Plug-In . SVG Version: 6.00 Build 0)  -->
<svg version="1.1" id="Capa_1" xmlns="http://www.w3.org/2000/svg" xmlns:xlink="http://www.w3.org/1999/xlink" x="0px" y="0px"
	 viewBox="0 0 112 90" style="enable-background:new 0 0 112 90;" xml:space="preserve">
<style type="text/css">
	.st0{fill:#FFFFFF;}
</style>
<g>
	<g>
		<g>
			<path class="st0" d="M69.8,53.4c0.2-0.2,0.3-0.3,0.3-0.3l0.3-0.3c0.2-0.2-0.1-1-0.7-1.9l-1.4-2.2c-0.6-0.8-1.4-1.6-2-1.7
				c-0.5-0.1-1-0.2-1-0.2l-4.3-4.3L59.6,44l4.3,4.3l0.2,1c0.1,0.5,0.9,1.4,1.7,2l2.2,1.4C68.8,53.2,69.7,53.6,69.8,53.4z"/>
			<path class="st0" d="M43.4,30.9l6.4,6.4l0.8,0.8c0,0,0,0,0.1,0l1.1-1.1l-7.6-7.6c-0.2-0.2-0.2-0.5,0-0.7c0.2-0.2,0.5-0.2,0.7,0
				l7.6,7.6l1.2-1.2L46,27.7c-0.2-0.2-0.2-0.5,0-0.7c0.2-0.2,0.5-0.2,0.7,0l7.6,7.6l1.1-1.1c0,0,0,0,0-0.1l-0.8-0.8L48,26.3
				c-1.3-1.3-3.4-1.3-4.6,0C42.1,27.5,42.1,29.6,43.4,30.9z"/>
			<path class="st0" d="M70.7,31.5c-0.1-1-1-1.2-1.7-0.5l-2.5,2.5c-0.6,0.6-1.5,0.6-2.1,0l-1.6-1.6c-0.6-0.6-0.6-1.5,0-2.1l2.6-2.6
				c0.7-0.7,0.5-1.6-0.5-1.8c-1.9-0.2-4,0.4-5.5,1.9c-1.1,1.1-1.8,2.6-1.9,4.1c-0.1,0.6,0,1.2,0.1,1.8L43.6,47.1
				c-0.7,0.7-1.1,1.7-1.1,2.7c0,1,0.4,2,1.1,2.7c1.5,1.5,4,1.5,5.5,0c0,0,10-10,14-14c0.6,0.1,1.3,0.1,1.9,0
				c1.3-0.2,2.6-0.8,3.7-1.9C70.2,35.2,70.8,33.3,70.7,31.5z M47.7,51.4c-0.8,0.8-2.1,0.8-2.9,0c-0.8-0.8-0.8-2.1,0-2.9
				c0.8-0.8,2.1-0.8,2.9,0C48.5,49.3,48.5,50.6,47.7,51.4z"/>
		</g>
	</g>
	<g>
		<g>
			<path class="st0" d="M83.6,0.6H28.4c-4.4,0-7.9,3.5-7.9,7.9v73c0,4.4,3.5,7.9,7.9,7.9h55.2c4.4,0,7.9-3.5,7.9-7.9v-73
				C91.5,4.2,88,0.6,83.6,0.6z M56,85c-1.9,0-3.4-1.5-3.4-3.4c0-1.9,1.5-3.4,3.4-3.4c1.9,0,3.4,1.5,3.4,3.4C59.4,83.5,57.9,85,56,85
				z M84.6,73.1c0,1-0.8,1.7-1.7,1.7H29.1c-1,0-1.7-0.8-1.7-1.7V9.1c0-1,0.8-1.7,1.7-1.7h53.8c0.9,0,1.7,0.8,1.7,1.7L84.6,73.1
				L84.6,73.1z"/>
		</g>
	</g>
</g>
</svg>
