<?xml version="1.0" encoding="utf-8"?>
<!-- Generator: Adobe Illustrator 22.1.0, SVG Export Plug-In . SVG Version: 6.00 Build 0)  -->
<svg version="1.1" id="Capa_1" xmlns="http://www.w3.org/2000/svg" xmlns:xlink="http://www.w3.org/1999/xlink" x="0px" y="0px"
	 viewBox="0 0 112 90" style="enable-background:new 0 0 112 90;" xml:space="preserve">
<style type="text/css">
	.st0{fill:#FFFFFF;}
</style>
<g>
	<path class="st0" d="M106.6,63.6L51.8,8.9c-1.4-1.4-3.8-1.4-5.2,0L26.1,29.4c-1.4,1.4-1.4,3.8,0,5.2l5.2,5.2H16.6v-8.6
		c0-2-1.6-3.6-3.6-3.6H8.2c-2,0-3.7,1.5-3.7,3.6v29c0,2,1.7,3.8,3.7,3.8H13c2,0,3.6-1.8,3.6-3.8V52h26.8l28.9,28.9
		c1.4,1.4,4.1,1.8,5.9,0.9l27.7-13.9C107.7,67,108,65,106.6,63.6L106.6,63.6z M47.1,16.7c1.2-1.2,3.1-1.2,4.3,0
		c1.2,1.2,1.2,3.1,0,4.3c-1.2,1.2-3.1,1.2-4.3,0C45.9,19.8,45.9,17.9,47.1,16.7z M66.7,66.4L32.2,31.9l4.2-4.2l34.5,34.5L66.7,66.4z
		"/>
</g>
</svg>
