<?xml version="1.0" encoding="utf-8"?>
<!-- Generator: Adobe Illustrator 22.1.0, SVG Export Plug-In . SVG Version: 6.00 Build 0)  -->
<svg version="1.1" id="Capa_1" xmlns="http://www.w3.org/2000/svg" xmlns:xlink="http://www.w3.org/1999/xlink" x="0px" y="0px"
	 viewBox="0 0 112 90" style="enable-background:new 0 0 112 90;" xml:space="preserve">
<style type="text/css">
	.st0{fill:#FFFFFF;}
</style>
<g>
	<g>
		<path class="st0" d="M109.1,29.3c0-0.1-0.1-0.1-0.1-0.2C94.8,14.9,76,7.1,56,7.1c-20,0-38.8,7.8-53,21.9c-0.2,0.2-0.3,0.5-0.3,0.8
			c0,0.3,0.1,0.6,0.3,0.8l7.7,7.7c0.2,0.2,0.5,0.3,0.8,0.3s0.6-0.1,0.8-0.3C24.1,26.8,39.6,20.4,56,20.4c16.4,0,31.9,6.4,43.6,18.1
			c0.2,0.2,0.5,0.3,0.8,0.3c0.3,0,0.6-0.1,0.8-0.3l7.7-7.7c0.2-0.2,0.3-0.5,0.3-0.8C109.3,29.7,109.3,29.5,109.1,29.3z"/>
		<path class="st0" d="M56,27.6c-14.5,0-28.2,5.7-38.5,16c-0.5,0.5-0.5,1.2,0,1.7l7.7,7.7c0.2,0.2,0.5,0.3,0.8,0.3
			c0.3,0,0.6-0.1,0.8-0.3C34.7,45.2,45,40.9,56,40.9c11,0,21.3,4.3,29.1,12.1c0.2,0.2,0.5,0.3,0.8,0.3s0.6-0.1,0.8-0.3l7.7-7.7
			c0.2-0.2,0.3-0.5,0.3-0.8s-0.1-0.6-0.3-0.8C84.2,33.3,70.5,27.6,56,27.6z"/>
		<path class="st0" d="M56,48.1c-9.1,0-17.6,3.5-24,10c-0.2,0.2-0.3,0.5-0.3,0.8c0,0.3,0.1,0.6,0.3,0.8l7.7,7.7
			c0.2,0.2,0.5,0.3,0.8,0.3s0.6-0.1,0.8-0.3c3.9-3.9,9.1-6.1,14.6-6.1s10.7,2.2,14.6,6.1c0.2,0.2,0.5,0.3,0.8,0.3s0.6-0.1,0.8-0.3
			l7.7-7.7c0.5-0.5,0.5-1.2,0-1.7C73.6,51.7,65.1,48.1,56,48.1z"/>
		<path class="st0" d="M56,69.8c-3.2,0-6.1,1.2-8.4,3.5c-0.5,0.5-0.5,1.2,0,1.7l7.5,7.5c0.2,0.2,0.5,0.3,0.8,0.3s0.6-0.1,0.8-0.3
			l7.5-7.5c0.5-0.5,0.5-1.2,0-1.7C62.1,71.1,59.2,69.8,56,69.8z"/>
	</g>
</g>
</svg>
