<svg id="Capa_1" data-name="Capa 1" xmlns="http://www.w3.org/2000/svg" viewBox="0 0 112 90"><defs><style>.cls-1{fill:#fff;}</style></defs><title>ICONOS-WEB-SERVICES</title><path class="cls-1" d="M60.75,52.59a2.2,2.2,0,0,0-1.93-1.15,2.18,2.18,0,0,0-1.92,1.13l-11.08,20a2.21,2.21,0,0,0,.83,3,11,11,0,0,1,5.22,9.25A2.2,2.2,0,0,0,54.07,87h9.5a2.19,2.19,0,0,0,2.19-2.19A11.07,11.07,0,0,1,71,75.56a2.2,2.2,0,0,0,.84-3ZM58.82,69.34A2.2,2.2,0,0,0,61,67.14v-5L67,73a15.43,15.43,0,0,0-5.51,9.6H56.11A15.43,15.43,0,0,0,50.6,73l6-10.88v5A2.2,2.2,0,0,0,58.82,69.34Z"/><path class="cls-1" d="M93.12,3H86a2.2,2.2,0,0,0-2.2,2.19v7.09a2.21,2.21,0,0,0,2.2,2.2h.77A28.63,28.63,0,0,1,64.56,36.72V36a2.21,2.21,0,0,0-2.2-2.2H55.27A2.2,2.2,0,0,0,53.08,36v.77A28.64,28.64,0,0,1,30.83,14.48h.78a2.2,2.2,0,0,0,2.19-2.2V5.19A2.19,2.19,0,0,0,31.61,3H24.52a2.19,2.19,0,0,0-2.19,2.19v7.09a2.2,2.2,0,0,0,2.19,2.2h1.85a33.22,33.22,0,0,0,8.94,17.34A32.86,32.86,0,0,0,42.4,37.3H33a3.38,3.38,0,1,0,0,4.39H53.08V43a2.19,2.19,0,0,0,2.19,2.19h7.09A2.2,2.2,0,0,0,64.56,43V41.69H84.67a3.39,3.39,0,1,0,0-4.39H75.24a32.92,32.92,0,0,0,16-22.82h1.86a2.2,2.2,0,0,0,2.19-2.2V5.19A2.19,2.19,0,0,0,93.12,3Zm-2.2,4.39v2.7h-2.7V7.39ZM57.47,40.84v-2.7h2.7v2.7Zm-28-33.45v2.7H26.71V7.39Z"/></svg>