<svg id="Capa_1" data-name="Capa 1" xmlns="http://www.w3.org/2000/svg" viewBox="0 0 112 90"><defs><style>.cls-1{fill:#fff;}</style></defs><title>ICONOS-WEB-SERVICES</title><path class="cls-1" d="M94.93,36.6,86.17,29a.32.32,0,0,1-.11-.24V19.38a7.56,7.56,0,0,0-7.55-7.55H66.89a.3.3,0,0,1-.21-.08l-9.8-8.64a1.34,1.34,0,0,0-1.76,0l-9.8,8.64a.3.3,0,0,1-.21.08H33.49a7.56,7.56,0,0,0-7.55,7.55v9.38a.32.32,0,0,1-.11.24l-8.76,7.6a1.31,1.31,0,0,0-.46,1V80a7.56,7.56,0,0,0,7.55,7.55H87.84A7.56,7.56,0,0,0,95.39,80V37.6A1.31,1.31,0,0,0,94.93,36.6ZM51.81,11.26l4-3.37A.32.32,0,0,1,56,7.81a.3.3,0,0,1,.21.09L60,11.27a.32.32,0,0,1,.09.36.31.31,0,0,1-.3.2H52a.31.31,0,0,1-.31-.21A.32.32,0,0,1,51.81,11.26ZM90.52,82,67.93,62.35a.29.29,0,0,1-.11-.24.3.3,0,0,1,.11-.24l22.81-20a.33.33,0,0,1,.21-.08.42.42,0,0,1,.14,0,.32.32,0,0,1,.19.3V80.78A2.29,2.29,0,0,1,91,81.92a.3.3,0,0,1-.23.16A.32.32,0,0,1,90.52,82ZM86.06,39.46V35a.3.3,0,0,1,.18-.29.26.26,0,0,1,.14,0,.27.27,0,0,1,.21.08L89.18,37a.34.34,0,0,1,.11.24.36.36,0,0,1-.11.25l-2.59,2.24a.34.34,0,0,1-.35,0A.33.33,0,0,1,86.06,39.46Zm-4.12,3.93a.31.31,0,0,1-.1.24l-20.12,18H50.09a.32.32,0,0,1-.21-.08L30.16,43.94a.35.35,0,0,1-.1-.24V19.38a3.44,3.44,0,0,1,3.43-3.44h45a3.44,3.44,0,0,1,3.43,3.44Zm-55,39.43h0l19.86-17a.32.32,0,0,1,.21-.08H65a.32.32,0,0,1,.21.08l19.86,17a.32.32,0,0,1,.09.36.31.31,0,0,1-.3.21H27.11a.31.31,0,0,1-.3-.21A.32.32,0,0,1,26.9,82.82ZM44.18,62.11a.29.29,0,0,1-.11.24L21.48,82a.32.32,0,0,1-.27.07.3.3,0,0,1-.23-.16,2.29,2.29,0,0,1-.26-1.14V42.15a.32.32,0,0,1,.19-.3.42.42,0,0,1,.14,0,.33.33,0,0,1,.21.08l22.81,20A.3.3,0,0,1,44.18,62.11ZM25.94,39.68a.32.32,0,0,1-.19.3.33.33,0,0,1-.35-.06l-2.61-2.44a.29.29,0,0,1-.1-.24A.3.3,0,0,1,22.8,37l2.61-2.26a.27.27,0,0,1,.21-.08.26.26,0,0,1,.14,0,.3.3,0,0,1,.18.29Z"/></svg>