<svg id="Capa_1" data-name="Capa 1" xmlns="http://www.w3.org/2000/svg" viewBox="0 0 112 90"><defs><style>.cls-1{fill:#fff;}</style></defs><title>ICONOS-WEB-SERVICES</title><polygon class="cls-1" points="61.6 77.56 56.71 77.56 56.71 72.72 48.73 72.72 48.73 77.56 43.84 77.56 43.84 79.49 25.18 79.49 25.18 84.34 43.84 84.34 43.84 85.54 61.6 85.54 61.6 84.34 76.74 84.34 76.74 79.49 61.6 79.49 61.6 77.56"/><path class="cls-1" d="M81.57,24.47a20.38,20.38,0,0,0-2,.11,22.79,22.79,0,0,0-18-8.77,22.92,22.92,0,0,0-44.31,8.24,22.15,22.15,0,0,0,.12,2.3,22.93,22.93,0,0,0,9.1,44H81.57a22.93,22.93,0,1,0,0-45.86Zm0,40.13H26.43A17.2,17.2,0,0,1,21.37,31l2.5-.77-.54-2.57A16.76,16.76,0,0,1,23,24.05a17.18,17.18,0,0,1,33.76-4.52l.64,2.35,2.42-.24a17.19,17.19,0,0,1,16.06,7.59l1,1.55,1.83-.31a18,18,0,0,1,2.88-.26,17.2,17.2,0,0,1,0,34.39Z"/></svg>