<?xml version="1.0" encoding="utf-8"?>
<!-- Generator: Adobe Illustrator 22.1.0, SVG Export Plug-In . SVG Version: 6.00 Build 0)  -->
<svg version="1.1" id="Layer_1" xmlns="http://www.w3.org/2000/svg" xmlns:xlink="http://www.w3.org/1999/xlink" x="0px" y="0px"
	 viewBox="0 0 94.8 94" style="enable-background:new 0 0 94.8 94;" xml:space="preserve">
<style type="text/css">
	.st0{fill:#1181B8;}
</style>
<g>
	<path class="st0" d="M88.8,75.7H6c-2.6,0-4.8,2.1-4.8,4.8c0,2.6,2.1,4.8,4.8,4.8h82.9c2.6,0,4.8-2.1,4.8-4.8
		C93.6,77.8,91.5,75.7,88.8,75.7z M88.8,81.3H6c-0.4,0-0.8-0.4-0.8-0.8s0.4-0.8,0.8-0.8h82.9c0.4,0,0.8,0.4,0.8,0.8
		S89.3,81.3,88.8,81.3z"/>
	<path class="st0" d="M27.5,38.9H13c-1.1,0-2,0.9-2,2v25.7c-2.5,0.1-4.5,2.2-4.5,4.7v1.8c0,1.1,0.9,2,2,2h77.9c1.1,0,2-0.9,2-2v-1.8
		c0-2.5-2-4.6-4.5-4.7V40.9c0-1.1-0.9-2-2-2H67.3c-1.1,0-2,0.9-2,2v25.7h-8.6V40.9c0-1.1-0.9-2-2-2H40.1c-1.1,0-2,0.9-2,2v25.7h-8.6
		V40.9C29.5,39.7,28.6,38.9,27.5,38.9z M40.1,70.5c1.1,0,2-0.9,2-2V42.9h10.5v25.7c0,1.1,0.9,2,2,2h12.6c1.1,0,2-0.9,2-2V42.9h10.5
		v25.7c0,1.1,0.9,2,2,2h1.8c0.3,0,0.6,0.2,0.7,0.5H10.5c0.1-0.3,0.4-0.5,0.7-0.5H13c1.1,0,2-0.9,2-2V42.9h10.5v25.7c0,1.1,0.9,2,2,2
		H40.1z"/>
	<path class="st0" d="M8.7,38.2h77.4c2.6,0,4.7-2.1,4.7-4.7c0-1.8-1.1-3.5-2.7-4.3L49.6,9.3c-1.4-0.7-3-0.7-4.4,0l-38.7,20
		c-2,1-3,3.2-2.4,5.3C4.6,36.8,6.5,38.2,8.7,38.2z M8.4,32.8l38.7-20c0.1-0.1,0.2-0.1,0.3-0.1c0.1,0,0.2,0,0.3,0.1l38.7,20
		c0.2,0.1,0.4,0.3,0.4,0.7c0,0.4-0.3,0.7-0.7,0.7H8.7c-0.3,0-0.6-0.2-0.7-0.6C7.9,33.3,8.1,33,8.4,32.8z"/>
</g>
</svg>
