<?xml version="1.0" encoding="utf-8"?>
<!-- Generator: Adobe Illustrator 22.1.0, SVG Export Plug-In . SVG Version: 6.00 Build 0)  -->
<svg version="1.1" id="Layer_1" xmlns="http://www.w3.org/2000/svg" xmlns:xlink="http://www.w3.org/1999/xlink" x="0px" y="0px"
	 viewBox="0 0 94.8 94" style="enable-background:new 0 0 94.8 94;" xml:space="preserve">
<style type="text/css">
	.st0{fill:#1181B8;}
</style>
<g>
	<path class="st0" d="M78.5,19.1H16.3c-4.4,0-7.9,3.5-7.9,7.9v40.1c0,4.4,3.5,7.9,7.9,7.9h62.5c4.4,0,7.9-3.5,7.7-7.7V27
		C86.4,22.6,82.9,19.1,78.5,19.1z M16.3,24.3h62.3c1.4,0,2.6,1.2,2.6,2.6v4.4H13.6V27C13.6,25.6,14.9,24.3,16.3,24.3z M78.5,69.9
		H16.3c-1.4,0-2.6-1.2-2.6-2.6V41.1h67.5v26.2C81.2,68.7,79.9,69.9,78.5,69.9z"/>
	<path class="st0" d="M68.8,52.9c-1.5,0-2.8,0.6-3.8,1.5c-1-0.9-2.4-1.5-3.8-1.5c-3.2,0-5.8,2.6-5.8,5.8s2.6,5.8,5.8,5.8
		c1.5,0,2.8-0.6,3.8-1.5c1,0.9,2.4,1.5,3.8,1.5c3.2,0,5.8-2.6,5.8-5.8S72,52.9,68.8,52.9z"/>
	<path class="st0" d="M37.9,47.7H21c-0.5,0-0.9,0.3-0.9,0.9c0,0.5,0.3,0.9,0.9,0.9h16.9c0.5,0,0.9-0.5,0.9-0.9
		C38.8,48.1,38.4,47.7,37.9,47.7z"/>
</g>
</svg>
