<svg id="Capa_1" data-name="Capa 1" xmlns="http://www.w3.org/2000/svg" viewBox="0 0 112 90"><defs><style>.cls-1{fill:#fff;}</style></defs><title>ICONOS-WEB-punto-a-punto</title><path class="cls-1" d="M87.18,34.34c0-15.59-18.09-28.27-40.34-28.27S6.5,18.75,6.5,34.34c0,8.85,5.68,17,15.62,22.36-1.66,6.07-4.31,13.88-7.76,18a.88.88,0,0,0-.11,1,.92.92,0,0,0,.8.49h.08c.76-.07,18.48-1.82,29.83-13.64.62,0,1.25,0,1.88,0C69.09,62.61,87.18,49.93,87.18,34.34Z"/><path class="cls-1" d="M105.5,42.05c0-10.37-8-19.45-19.91-24.37a26.42,26.42,0,0,1,7,17.5c0,17.9-20,32.46-44.54,32.46h0a54.82,54.82,0,0,0,17.1,2.68c.63,0,1.26,0,1.88,0C78.39,82.11,96.12,83.86,96.87,83.93H97a.91.91,0,0,0,.8-.48.88.88,0,0,0-.11-1c-3.45-4.17-6.1-12-7.76-18C99.82,59,105.5,50.9,105.5,42.05Z"/></svg>