<svg id="Capa_1" data-name="Capa 1" xmlns="http://www.w3.org/2000/svg" viewBox="0 0 112 90"><defs><style>.cls-1{fill:#fff;}</style></defs><title>ICONOS-WEB-punto-a-punto</title><path class="cls-1" d="M38.76,85.18s7.79,0,7.79-6.5V11.32c0-6.5-7.79-6.5-7.79-6.5H26s-7.78,0-7.78,6.5V78.68c0,6.5,7.78,6.5,7.78,6.5Z"/><path class="cls-1" d="M8.73,80.45h4.73V9.55H8.73S3.44,9.55,4.05,45,8.73,80.45,8.73,80.45Z"/><path class="cls-1" d="M108,45c0-35.45-5.91-35.45-5.91-35.45H51.28v70.9h50.81S108,80.45,108,45ZM60.73,71a4.73,4.73,0,1,1,4.73-4.73A4.73,4.73,0,0,1,60.73,71Zm0-14.18a4.73,4.73,0,1,1,4.73-4.73A4.73,4.73,0,0,1,60.73,56.82Zm0-14.18a4.73,4.73,0,1,1,4.73-4.73A4.73,4.73,0,0,1,60.73,42.64ZM74.91,71a4.73,4.73,0,1,1,4.73-4.73A4.73,4.73,0,0,1,74.91,71Zm0-14.18a4.73,4.73,0,1,1,4.73-4.73A4.73,4.73,0,0,1,74.91,56.82Zm0-14.18a4.73,4.73,0,1,1,4.73-4.73A4.73,4.73,0,0,1,74.91,42.64ZM89.09,71a4.73,4.73,0,1,1,4.73-4.73A4.73,4.73,0,0,1,89.09,71Zm0-14.18a4.73,4.73,0,1,1,4.73-4.73A4.73,4.73,0,0,1,89.09,56.82Zm0-14.18a4.73,4.73,0,1,1,4.73-4.73A4.73,4.73,0,0,1,89.09,42.64Zm4.73-14.91a.77.77,0,0,1-.79.73H56.79a.76.76,0,0,1-.79-.73v-8a.77.77,0,0,1,.79-.73H93a.76.76,0,0,1,.79.73Z"/></svg>