<svg id="Capa_1" data-name="Capa 1" xmlns="http://www.w3.org/2000/svg" viewBox="0 0 112 90"><defs><style>.cls-1{fill:#fff;}</style></defs><title>ICONOS-WEB-punto-a-punto</title><path class="cls-1" d="M32.53,69.47A5.91,5.91,0,0,0,31,73.12V88.5h8.92V64.19c0-1.18-.67-1.46-1.51-.62Z"/><path class="cls-1" d="M71.74,54.9a5.91,5.91,0,0,0-1.51,3.66V88.5h8.92V49.62c0-1.18-.67-1.46-1.51-.63Z"/><path class="cls-1" d="M84.8,41.82a5.92,5.92,0,0,0-1.51,3.64v43h8.3V37.18c0-1.18-.68-1.46-1.51-.63Z"/><path class="cls-1" d="M58.93,67.71,58,68.6a5.05,5.05,0,0,0-.89,3V88.5h8.93V62.7c0-1.18-.68-1.46-1.51-.62Z"/><path class="cls-1" d="M45.6,63.17c-.84-.83-1.51-.55-1.51.63V88.5H53V72.7a5.75,5.75,0,0,0-1.43-3.56l-1.44-1.43Z"/><path class="cls-1" d="M21.29,80.71,18.41,83.6a5.39,5.39,0,0,0-1.51,3.21V88.5h10V77.27c0-1.18-.68-1.46-1.52-.62Z"/><path class="cls-1" d="M102.35,36.79c.84.83,1.52.55,1.52-.63V5.6a4.38,4.38,0,0,0-4.28-4.1H69.21c-1.18,0-1.46.68-.62,1.51l10.8,10.82L75,18.22,54.54,38.68,43.73,27.87a2.12,2.12,0,0,0-3,0L10.64,58a8.56,8.56,0,0,0,0,12.1l.21.21a8.56,8.56,0,0,0,12.1,0L42.22,51,53,61.79a2.15,2.15,0,0,0,3,0L91.7,26.14Z"/></svg>