<svg id="Capa_1" data-name="Capa 1" xmlns="http://www.w3.org/2000/svg" viewBox="0 0 112 90"><defs><style>.cls-1{fill:#fff;}</style></defs><title>ICONOS-WEB-punto-a-punto</title><path class="cls-1" d="M34.42,30.91a8.88,8.88,0,0,1,2.64.4,71.77,71.77,0,0,1,10.42-9.59,8.62,8.62,0,0,1,.21-4.91A65.73,65.73,0,0,0,34,9.25,42.2,42.2,0,0,0,22.16,20.13,65.93,65.93,0,0,0,30.55,31.8,8.94,8.94,0,0,1,34.42,30.91Zm-8.93,8.94a9.06,9.06,0,0,1,.72-3.54,72.43,72.43,0,0,1-7.74-10.16,42,42,0,0,0,1.44,40.34,71.31,71.31,0,0,1,7.4-21.25A8.86,8.86,0,0,1,25.49,39.85ZM56.16,10.71a8.92,8.92,0,0,1,6.1,2.41A71.23,71.23,0,0,1,76.94,8.6,42,42,0,0,0,41.23,5.68,71,71,0,0,1,51.62,12,8.86,8.86,0,0,1,56.16,10.71ZM69.52,52.8a8.9,8.9,0,0,1,2.33-3,65.49,65.49,0,0,0-12.2-21.93,8.81,8.81,0,0,1-3.49.71A8.92,8.92,0,0,1,51,26.91a65.33,65.33,0,0,0-9,8.23,8.9,8.9,0,0,1,1.35,4.71A9,9,0,0,1,43,42.52,65.05,65.05,0,0,0,69.52,52.8ZM81.11,64.86c.13,1.69.19,3.4.19,5.12a71.45,71.45,0,0,1-.56,9A42.05,42.05,0,0,0,96,57.75a69.57,69.57,0,0,1-10,1.67A9,9,0,0,1,81.11,64.86ZM67.43,58.8A71.29,71.29,0,0,1,39.08,47.46a8.89,8.89,0,0,1-4.66,1.32,8.48,8.48,0,0,1-1.83-.19,65,65,0,0,0-7.3,25A42.21,42.21,0,0,0,39.65,83.7,71.42,71.42,0,0,1,67.43,58.8ZM84.19,13.87a64.94,64.94,0,0,0-19.14,4.88,8.69,8.69,0,0,1,0,.89,9,9,0,0,1-.92,3.93A71.59,71.59,0,0,1,77.73,47.72a9,9,0,0,1,8.08,5.46,65.36,65.36,0,0,0,11.77-2.3,41.9,41.9,0,0,0-13.39-37ZM71.93,63.58A65.16,65.16,0,0,0,45.8,85.75,42.28,42.28,0,0,0,56,87a41.79,41.79,0,0,0,17.72-3.92A65.11,65.11,0,0,0,75.05,70c0-1.62-.07-3.23-.2-4.82A8.7,8.7,0,0,1,71.93,63.58Z"/></svg>