<svg id="Capa_1" data-name="Capa 1" xmlns="http://www.w3.org/2000/svg" viewBox="0 0 112 90"><defs><style>.cls-1{fill:#fff;}</style></defs><title>ICONOS-WEB-punto-a-punto</title><path class="cls-1" d="M97.5,28.38a2.56,2.56,0,0,0-2.56-2.56H77.37a2.55,2.55,0,0,1-2.56-2.55V6a2.55,2.55,0,0,0-2.55-2.55H53.92a3.82,3.82,0,0,0-3.83,3.83V20.67a1.14,1.14,0,0,1,.11.11L65.12,35.69A6.33,6.33,0,0,1,67,40.18h0V66H93.65a3.83,3.83,0,0,0,3.84-3.83V28.38Z"/><path class="cls-1" d="M82.2,3.86a1.28,1.28,0,0,0-2.18.9V19.68A1.28,1.28,0,0,0,81.3,21H96.22a1.27,1.27,0,0,0,.9-2.18Z"/><path class="cls-1" d="M18.33,86.52H58.07a3.83,3.83,0,0,0,3.84-3.83V49.23a2.56,2.56,0,0,0-2.56-2.56H41.87a2.56,2.56,0,0,1-2.56-2.55V26.54A2.55,2.55,0,0,0,36.76,24H18.33c-2.12,0-3.83,1.71-3.83,3.07V81.92a5.91,5.91,0,0,0,.34,2A3.69,3.69,0,0,0,18.33,86.52Z"/><path class="cls-1" d="M45.71,41.46H60.63a1.27,1.27,0,0,0,.9-2.18L50.09,27.83l-3.47-3.47a1.24,1.24,0,0,0-.89-.37,1.28,1.28,0,0,0-1.29,1.28V40.18h0A1.27,1.27,0,0,0,45.71,41.46Z"/></svg>