<svg id="Capa_1" data-name="Capa 1" xmlns="http://www.w3.org/2000/svg" viewBox="0 0 112 90"><defs><style>.cls-1{fill:#fff;}</style></defs><title>ICONOS-WEB-punto-a-punto</title><path class="cls-1" d="M88.33,47H85.92A27.19,27.19,0,0,0,77,34.43a2.14,2.14,0,0,0-.07-.49,9.71,9.71,0,0,1,1.47-7.88,2,2,0,0,0-1.91-3,14.57,14.57,0,0,0-8,3.35,8.15,8.15,0,0,0-2,2.8,25.25,25.25,0,0,1-24.91,21h0A25.24,25.24,0,0,1,31,47.88a16,16,0,0,1-6.18,1.87,24.33,24.33,0,0,0-.49,4.85A25.13,25.13,0,0,0,25,60.31h0a.24.24,0,0,0,0,.08,25.36,25.36,0,0,0,2,5.49,29.39,29.39,0,0,0,5.27,8,15.27,15.27,0,0,1,4.1,9.77v.93h0a1.79,1.79,0,0,0,1.78,1.66H49.09a1.77,1.77,0,0,0,1.79-1.78v-2.7a34.88,34.88,0,0,0,4.83.32,34,34,0,0,0,3.79-.2v2.56a1.78,1.78,0,0,0,1.78,1.79H72.16A1.78,1.78,0,0,0,74,84.42V81.73a10.68,10.68,0,0,1,3.69-7.5l.37-.32a.39.39,0,0,1,.1-.08h0A26.8,26.8,0,0,0,86,61.71h2.29a3.31,3.31,0,0,0,3.3-3.31V50.27A3.29,3.29,0,0,0,88.33,47Zm-13.61.59a2.7,2.7,0,1,1,2.7-2.7A2.7,2.7,0,0,1,74.72,47.63Z"/><path class="cls-1" d="M30.82,43.22A21.23,21.23,0,1,0,25.69,39l.22.19a10.14,10.14,0,0,1-4.37,4.93.82.82,0,0,0,.24,1.55,12.08,12.08,0,0,0,9-2.46ZM34.7,32.73c.16-.64.35-1.3.55-1.94s.44-.84,1.11-.47a11.14,11.14,0,0,0,3.71,1.11,4.54,4.54,0,0,0,2.42-.32A1.9,1.9,0,0,0,43,27.79,6.4,6.4,0,0,0,41.57,27a29.24,29.24,0,0,1-3.79-1.7c-1.94-1.16-3.17-2.76-3-5.12a5.6,5.6,0,0,1,4.12-5.22c1-.37,1-.35,1-1.41V12.45c0-.79.15-.93.94-1h.74c1.69,0,1.69,0,1.7,1.69,0,1.19,0,1.19,1.2,1.38a10.17,10.17,0,0,1,2.63.77.77.77,0,0,1,.5,1c-.22.72-.4,1.46-.64,2.19s-.44.77-1.09.47a8.32,8.32,0,0,0-4.16-.83,3.18,3.18,0,0,0-1.11.22,1.57,1.57,0,0,0-.39,2.8,7.24,7.24,0,0,0,1.8,1,33.58,33.58,0,0,1,3.3,1.48,5.9,5.9,0,0,1,1.9,9,6.21,6.21,0,0,1-3.28,2.11.9.9,0,0,0-.79,1c0,.58,0,1.17,0,1.74a.72.72,0,0,1-.78.81c-.62,0-1.24,0-1.87,0a.75.75,0,0,1-.8-.86c0-.42,0-.84,0-1.28,0-.93,0-1-.94-1.11a11.83,11.83,0,0,1-3.34-1C34.54,33.8,34.46,33.6,34.7,32.73Z"/></svg>