<svg id="Capa_1" data-name="Capa 1" xmlns="http://www.w3.org/2000/svg" viewBox="0 0 112 90"><defs><style>.cls-1{fill:#fff;}</style></defs><title>ICONOS-WEB-punto-a-punto</title><path class="cls-1" d="M53.69,70.05H49.76V43.92a3.56,3.56,0,0,0-3.56-3.56H36.49a3.57,3.57,0,0,0-3.56,3.56V70.05H29a2.32,2.32,0,0,0-1.77,3.81L37.75,86.22a4.72,4.72,0,0,0,7.19,0L55.45,73.86a2.31,2.31,0,0,0-1.76-3.81Z"/><path class="cls-1" d="M74.25,42a4.72,4.72,0,0,0-7.19,0L56.55,54.38a2.31,2.31,0,0,0,1.76,3.81h3.93V84.32a3.56,3.56,0,0,0,3.56,3.56h9.71a3.56,3.56,0,0,0,3.56-3.56V58.19H83a2.31,2.31,0,0,0,1.76-3.81Z"/><path class="cls-1" d="M86.08,17.47a2.5,2.5,0,0,1-1.8-1A22,22,0,0,0,66.65,7.53c-.45,0-.89,0-1.34,0a2.48,2.48,0,0,1-1.64-.5,24.6,24.6,0,0,0-37,9.14,2.53,2.53,0,0,1-1.91,1.4,21.92,21.92,0,0,0,3,43.62h.95V43.92a7.79,7.79,0,0,1,7.78-7.78H46.2A7.79,7.79,0,0,1,54,43.92v7l9.87-11.59a8.93,8.93,0,0,1,13.61,0L88,51.64A6.49,6.49,0,0,1,87,61a21.91,21.91,0,0,0-.89-43.57Z"/></svg>