<svg id="Capa_1" data-name="Capa 1" xmlns="http://www.w3.org/2000/svg" viewBox="0 0 112 90"><defs><style>.cls-1{fill:#fff;}</style></defs><title>ICONOS-WEB-punto-a-punto</title><path class="cls-1" d="M16.56,76.7a5.45,5.45,0,1,0,7.71,7.7L42.21,66.47,34.5,58.76Z"/><path class="cls-1" d="M97,23.12a7.1,7.1,0,0,0-2.1-5.07l-12-12A7.35,7.35,0,0,0,72.76,6L61.41,17.39a4.42,4.42,0,0,0-6.18.1l-24,24a4.47,4.47,0,0,0,0,6.3l22,21.94a4.44,4.44,0,0,0,6.3,0l24-24a4.42,4.42,0,0,0,.1-6.18L94.93,28.2A7.11,7.11,0,0,0,97,23.12Zm-6,1.23L79.74,35.69,65.28,21.23,76.62,9.89a1.77,1.77,0,0,1,2.44,0l12,12A1.74,1.74,0,0,1,91.08,24.35Z"/><path class="cls-1" d="M72.69,17.17a3.07,3.07,0,1,0,4.34,0A3.07,3.07,0,0,0,72.69,17.17Z"/><path class="cls-1" d="M78.91,23.39a3.07,3.07,0,1,0,4.34,0A3.07,3.07,0,0,0,78.91,23.39Z"/></svg>