<svg id="Capa_1" data-name="Capa 1" xmlns="http://www.w3.org/2000/svg" viewBox="0 0 112 90"><defs><style>.cls-1{fill:#fff;}</style></defs><title>ICONOS-WEB-punto-a-punto</title><path class="cls-1" d="M76,29.27H36a2.33,2.33,0,0,0-2.33,2.32v7.89A2.33,2.33,0,0,0,36,41.8H76a2.33,2.33,0,0,0,2.32-2.32V31.59A2.33,2.33,0,0,0,76,29.27Zm-38.15,5.5a1.43,1.43,0,1,1,1.43-1.43A1.43,1.43,0,0,1,37.86,34.77Zm34.36,4.12H62.12V35.54h10.1v3.35Z"/><path class="cls-1" d="M76,43.07H36a2.33,2.33,0,0,0-2.33,2.32v7.89A2.32,2.32,0,0,0,36,55.59H76a2.32,2.32,0,0,0,2.32-2.31V45.39A2.33,2.33,0,0,0,76,43.07Zm-38.15,5.5a1.44,1.44,0,1,1,1.43-1.43A1.43,1.43,0,0,1,37.86,48.57Zm34.36,4.12H62.12V49.33h10.1v3.36Z"/><path class="cls-1" d="M76,56.87H36a2.32,2.32,0,0,0-2.33,2.32v7.88A2.33,2.33,0,0,0,36,69.39H76a2.33,2.33,0,0,0,2.32-2.32V59.19A2.32,2.32,0,0,0,76,56.87ZM37.86,62.36a1.43,1.43,0,1,1,1.43-1.43A1.42,1.42,0,0,1,37.86,62.36Zm34.36,4.13H62.12V63.13h10.1v3.36Z"/><polygon class="cls-1" points="62.91 76.94 58.65 76.94 58.65 70.73 53.36 70.73 53.36 76.94 49.09 76.94 49.09 78.57 34.16 78.57 34.16 83.86 49.09 83.86 49.09 85.5 62.91 85.5 62.91 83.86 77.83 83.86 77.83 78.57 62.91 78.57 62.91 76.94"/><path class="cls-1" d="M79.62,16.55a2,2,0,0,1-1.44-.8,17.31,17.31,0,0,0-13.83-7l-1,0A2,2,0,0,1,62,8.37a19.3,19.3,0,0,0-29,7.16,2,2,0,0,1-1.53,1.12A17.2,17.2,0,0,0,30.29,50.5V45.39a5.52,5.52,0,0,1,.31-1.82,10.41,10.41,0,0,1,3.24-20.31,8.11,8.11,0,0,1,.86,0,3.39,3.39,0,0,0,3.56-2.55,12.51,12.51,0,0,1,20.9-5.91,3.4,3.4,0,0,0,3.05.89,10.42,10.42,0,0,1,11.52,5.68,3.36,3.36,0,0,0,3.38,1.89c.35,0,.7,0,1,0A10.41,10.41,0,0,1,81.4,43.57a5.79,5.79,0,0,1,.31,1.82v5.1a17.19,17.19,0,0,0-2.09-33.94Z"/></svg>