<svg id="Capa_1" data-name="Capa 1" xmlns="http://www.w3.org/2000/svg" viewBox="0 0 112 90"><defs><style>.cls-1{fill:#fff;}</style></defs><title>ICONOS-WEB-punto-a-punto</title><g id="Gauge"><path class="cls-1" d="M66.32,62.35a3.3,3.3,0,0,0-.35-1.2l-25.44-48a3.33,3.33,0,0,0-4-1.56,3.23,3.23,0,0,0-2.17,3.64L44.3,68.45a3.13,3.13,0,0,0,.46,1.15A12,12,0,0,0,45.13,71a11.58,11.58,0,0,0,14.59,7,11.35,11.35,0,0,0,6.6-5.72,11,11,0,0,0,.54-8.62A10.45,10.45,0,0,0,66.32,62.35ZM56,15.08a3.22,3.22,0,1,0,0,6.44c26.16,0,47.43,20.91,47.43,46.61a3.29,3.29,0,0,0,6.57,0C110,38.87,85.77,15.08,56,15.08ZM22.06,26.86A52.5,52.5,0,0,0,2,68.13a3.25,3.25,0,0,0,3.28,3.22,3.25,3.25,0,0,0,3.29-3.22A46.14,46.14,0,0,1,26.19,31.87a3.17,3.17,0,0,0,.49-4.53A3.32,3.32,0,0,0,22.06,26.86Z"/></g></svg>