<?xml version="1.0" encoding="utf-8"?>
<!-- Generator: Adobe Illustrator 22.0.1, SVG Export Plug-In . SVG Version: 6.00 Build 0)  -->
<svg version="1.1" id="Capa_1" xmlns="http://www.w3.org/2000/svg" xmlns:xlink="http://www.w3.org/1999/xlink" x="0px" y="0px"
	 viewBox="0 0 11 11" style="enable-background:new 0 0 11 11;" xml:space="preserve">
<g>
	<g>
		<path d="M4.9,8.2c0-0.3,0.2-0.6,0.6-0.6c0.3,0,0.6,0.3,0.6,0.6c0,0.3-0.2,0.6-0.6,0.6C5.2,8.8,4.9,8.5,4.9,8.2z M5.2,6.8L5,2.2H6
			L5.8,6.8H5.2z"/>
	</g>
	<path d="M5.5,10.5c-2.7,0-5-2.2-5-5s2.2-5,5-5s5,2.2,5,5S8.2,10.5,5.5,10.5z M5.5,1.1c-2.4,0-4.4,2-4.4,4.4s2,4.4,4.4,4.4
		s4.4-2,4.4-4.4S7.9,1.1,5.5,1.1z"/>
</g>
</svg>
