<?xml version="1.0" encoding="utf-8"?>
<!-- Generator: Adobe Illustrator 22.1.0, SVG Export Plug-In . SVG Version: 6.00 Build 0)  -->
<svg version="1.1" id="Layer_1" xmlns="http://www.w3.org/2000/svg" xmlns:xlink="http://www.w3.org/1999/xlink" x="0px" y="0px"
	 viewBox="0 0 29 21" style="enable-background:new 0 0 29 21;" xml:space="preserve">
<style type="text/css">
	.st0{fill:#E1251B;}
	.st1{fill:#323738;}
	.st2{fill:#FFFFFF;}
	.st3{fill:#1E1F21;}
</style>
<path class="st3" d="M24.6,18.4L24.6,18.4c0-0.4-0.2-0.7-0.5-1L20,13.2c0.8-1.3,1.2-2.8,1.2-4.4c0-2.3-0.9-4.4-2.5-6s-3.7-2.5-6-2.5
	s-4.4,0.9-6,2.5s-2.5,3.7-2.5,6c0,2.3,0.9,4.4,2.5,6c1.6,1.6,3.7,2.5,6,2.5c1.6,0,3.1-0.4,4.4-1.2l4.1,4.1c0.3,0.3,0.7,0.5,1.2,0.5
	c0.4,0,0.8-0.2,1.2-0.5l0.4-0.4c0.3-0.3,0.5-0.7,0.5-1.2L24.6,18.4z M12.8,1.1c2.1,0,4,0.8,5.4,2.3c1.5,1.5,2.3,3.4,2.3,5.4
	c0,1.5-0.4,3-1.3,4.3c-0.1,0.2-0.2,0.3-0.4,0.5l-1.8,1.7c-1.3,0.8-2.7,1.3-4.2,1.3c-2.1,0-4-0.8-5.4-2.3c-1.5-1.5-2.3-3.4-2.3-5.4
	c0-2.1,0.8-4,2.3-5.4C8.8,1.9,10.8,1.1,12.8,1.1z M18.8,14.8c0.3-0.3,0.6-0.6,0.8-0.9l4,4l0.1-0.1l-0.1,0.1c0.2,0.2,0.2,0.4,0.2,0.6
	v0c0,0.2-0.1,0.5-0.3,0.6l-0.5,0.5c-0.3,0.3-0.9,0.3-1.3,0l-4-4C18.2,15.3,18.5,15.1,18.8,14.8z"/>
</svg>
