<?xml version="1.0" encoding="utf-8"?>
<!-- Generator: Adobe Illustrator 22.1.0, SVG Export Plug-In . SVG Version: 6.00 Build 0)  -->
<svg version="1.1" id="Layer_1" xmlns="http://www.w3.org/2000/svg" xmlns:xlink="http://www.w3.org/1999/xlink" x="0px" y="0px"
	 viewBox="0 0 548 77.9" style="enable-background:new 0 0 548 77.9;" xml:space="preserve">
<style type="text/css">
	.st0{fill:#FFFFFF;}
	.st1{fill:#E12726;}
</style>
<g>
	<g>
		<path class="st0" d="M77.3,21.6l11.5-0.9l0.3,4.2c0.8-0.8,1.6-1.5,2.6-2.1c0.9-0.6,2.1-1.2,3.4-1.6c1.3-0.4,2.8-0.8,4.6-1
			c1.7-0.2,3.7-0.3,5.9-0.3c2.1,0,3.9,0.1,5.3,0.4c1.4,0.3,2.6,0.7,3.4,1.1c0.9,0.5,1.5,1,1.9,1.6c0.4,0.6,0.7,1.3,0.9,2
			c1.6-1.6,3.7-2.9,6.3-3.8c2.6-0.9,6.3-1.4,11-1.4c3.3,0,5.8,0.5,7.6,1.5c1.8,1,3,2.3,3.8,4c0.8,1.7,1.1,3.8,1,6.1
			c-0.1,2.4-0.4,4.9-0.8,7.7l-5.8,34.7h-14l5.2-31.1c0.3-1.6,0.4-2.9,0.5-4.1c0.1-1.2,0-2.2-0.3-2.9c-0.3-0.8-0.9-1.4-1.7-1.7
			c-0.8-0.4-2-0.6-3.5-0.6c-1.8,0-3.3,0.2-4.5,0.7c-1.2,0.4-2.1,1.1-2.9,2c-0.8,0.9-1.4,2.1-1.8,3.5c-0.4,1.4-0.8,3.1-1.1,5.1
			l-4.9,29.2h-14l5.2-31.1c0.3-1.6,0.4-2.9,0.5-4.1c0.1-1.2,0-2.2-0.3-2.9c-0.3-0.8-0.9-1.4-1.6-1.7c-0.8-0.4-1.9-0.6-3.4-0.6
			c-1.8,0-3.3,0.2-4.5,0.7c-1.2,0.4-2.2,1.1-2.9,2.1c-0.7,0.9-1.3,2.1-1.8,3.5c-0.5,1.4-0.8,3.1-1.2,5.1l-4.9,29.2H68.7L77.3,21.6z"
			/>
		<path class="st0" d="M162.9,74.5c-3.4,0-6.2-0.4-8.2-1.3c-2-0.8-3.6-2-4.6-3.5c-1-1.5-1.5-3.3-1.6-5.3c-0.1-2,0-4.2,0.4-6.6
			c0.6-3.7,1.7-6.8,3.1-9.3c1.5-2.4,3.4-4.4,5.9-5.8c2.5-1.5,5.4-2.5,9-3.1c3.5-0.6,7.7-0.9,12.4-0.9h1.9c0.2-2.2,0-3.8-0.8-4.8
			c-0.8-1-2.5-1.5-5.1-1.5c-3,0-5.6,0.3-7.9,0.8c-2.3,0.6-4.3,1.2-6,2l-3.8-11.4c2.6-1.2,5.6-2.3,9.1-3c3.5-0.8,7.6-1.2,12.4-1.2
			c3.7,0,6.7,0.3,9,1c2.3,0.7,4.1,1.7,5.3,3.1c1.2,1.4,2,3.3,2.2,5.6c0.2,2.3,0.1,5.1-0.5,8.4l-3.3,19.7c-0.3,1.6-0.3,2.7,0,3.3
			c0.3,0.6,1.3,0.8,2.9,0.8l-2,12.2c-0.8,0.1-1.5,0.2-2.2,0.2c-0.7,0-1.4,0-2.1,0c-1.7,0-3.1,0-4.3-0.1c-1.2-0.1-2.1-0.3-2.9-0.7
			c-0.8-0.3-1.4-0.8-1.9-1.4c-0.5-0.6-0.8-1.3-1-2.2c-1.7,1.7-3.8,2.9-6.1,3.7C169.8,74.1,166.7,74.5,162.9,74.5z M168.1,62.9
			c1.4,0,2.6-0.1,3.8-0.4c1.2-0.3,2.2-0.8,3.1-1.5c0.9-0.7,1.7-1.7,2.3-2.8c0.6-1.2,1.1-2.7,1.4-4.5l0.8-4.9h-1.8
			c-2.6,0-4.8,0.1-6.6,0.3c-1.8,0.2-3.3,0.6-4.4,1.2c-1.2,0.6-2,1.3-2.7,2.3c-0.6,1-1.1,2.2-1.3,3.7c-0.4,2.4-0.2,4.1,0.6,5.1
			C164,62.4,165.7,62.9,168.1,62.9z"/>
		<path class="st0" d="M221.5,58.2l-10.9,15.6h-14.4l20.3-27.9l-10.2-25.2h15.3l5.4,13.5l9.3-13.5h14.4l-18.7,25.7l11.1,27.3h-15.2
			L221.5,58.2z"/>
		<path class="st0" d="M260,3.2h14.2L272.1,16h-14.2L260,3.2z M257.1,20.8h14.1l-8.8,53h-14.1L257.1,20.8z"/>
		<path class="st0" d="M291,74.6c-4.5,0-8.1-0.6-10.7-1.9c-2.7-1.2-4.6-3-5.9-5.4c-1.3-2.3-1.9-5.2-2-8.6c-0.1-3.4,0.2-7.2,0.9-11.5
			c0.7-4.2,1.6-8,2.8-11.4c1.2-3.4,2.8-6.2,4.9-8.6c2.1-2.4,4.8-4.2,8-5.4c3.2-1.2,7.2-1.9,11.9-1.9c3.5,0,6.3,0.3,8.5,0.8
			c2.2,0.5,4.1,1.2,5.7,2.1l-8.2,12.2c-1-0.6-2-1-3.2-1.4c-1.2-0.3-2.6-0.5-4.2-0.5c-1.8,0-3.4,0.3-4.7,0.8
			c-1.3,0.5-2.4,1.4-3.3,2.5c-0.9,1.2-1.7,2.6-2.3,4.5c-0.6,1.8-1.2,4.1-1.6,6.8c-0.9,5.3-0.8,9.1,0.1,11.3c1,2.2,3.3,3.4,7.2,3.4
			c1.8,0,3.4-0.2,4.9-0.7c1.5-0.4,2.9-0.9,4.3-1.5l3.5,10.8c-3,1.4-5.8,2.3-8.2,2.9C297,74.3,294.1,74.6,291,74.6z"/>
		<path class="st0" d="M332.2,74.6c-4.7,0-8.4-0.7-11.2-2c-2.8-1.3-4.9-3.1-6.2-5.5c-1.4-2.4-2.1-5.2-2.3-8.6
			c-0.1-3.4,0.2-7.2,0.9-11.4c0.7-4.1,1.6-7.9,2.9-11.2c1.2-3.4,2.9-6.2,5.1-8.6c2.1-2.4,4.8-4.2,8.1-5.5c3.2-1.3,7.2-1.9,11.9-1.9
			c4.7,0,8.5,0.7,11.3,2c2.8,1.3,4.9,3.2,6.2,5.6c1.3,2.4,2,5.3,2.1,8.6c0.1,3.3-0.2,7.1-0.9,11.2c-0.7,4.2-1.7,8.1-2.9,11.5
			c-1.2,3.4-2.9,6.3-5,8.6c-2.1,2.4-4.8,4.2-8,5.5C340.9,74,336.9,74.6,332.2,74.6z M334.2,62.3c2.1,0,3.7-0.3,5-1
			c1.3-0.7,2.4-1.6,3.2-2.9c0.8-1.2,1.5-2.8,2-4.6c0.5-1.8,0.9-3.9,1.3-6.2c0.4-2.3,0.6-4.4,0.7-6.2c0.1-1.8,0-3.3-0.5-4.6
			c-0.4-1.2-1.2-2.2-2.2-2.8c-1.1-0.7-2.6-1-4.7-1c-2.1,0-3.7,0.3-5,1c-1.3,0.7-2.4,1.6-3.2,2.8c-0.8,1.2-1.5,2.8-2,4.6
			c-0.5,1.8-0.9,3.9-1.3,6.2c-0.4,2.3-0.6,4.4-0.7,6.2c-0.1,1.8,0,3.3,0.5,4.6c0.4,1.2,1.2,2.2,2.2,2.9
			C330.6,62,332.2,62.3,334.2,62.3z"/>
		<path class="st0" d="M370.3,21.6l11.5-0.9l0.3,4.2c0.8-0.8,1.6-1.5,2.6-2.1c0.9-0.6,2.1-1.2,3.4-1.6c1.3-0.4,2.8-0.8,4.6-1
			c1.7-0.2,3.7-0.3,5.9-0.3c2.1,0,3.9,0.1,5.3,0.4c1.4,0.3,2.6,0.7,3.4,1.1c0.9,0.5,1.5,1,1.9,1.6c0.4,0.6,0.7,1.3,0.9,2
			c1.6-1.6,3.7-2.9,6.3-3.8c2.6-0.9,6.3-1.4,11-1.4c3.3,0,5.8,0.5,7.6,1.5c1.8,1,3,2.3,3.8,4c0.8,1.7,1.1,3.8,1,6.1
			c-0.1,2.4-0.4,4.9-0.8,7.7l-5.8,34.7h-14l5.2-31.1c0.3-1.6,0.4-2.9,0.5-4.1c0.1-1.2,0-2.2-0.3-2.9c-0.3-0.8-0.9-1.4-1.7-1.7
			c-0.8-0.4-2-0.6-3.5-0.6c-1.8,0-3.3,0.2-4.5,0.7c-1.2,0.4-2.1,1.1-2.9,2c-0.8,0.9-1.4,2.1-1.8,3.5c-0.4,1.4-0.8,3.1-1.1,5.1
			l-4.9,29.2h-14l5.2-31.1c0.3-1.6,0.4-2.9,0.5-4.1c0.1-1.2,0-2.2-0.3-2.9c-0.3-0.8-0.9-1.4-1.6-1.7c-0.8-0.4-1.9-0.6-3.4-0.6
			c-1.8,0-3.3,0.2-4.5,0.7c-1.2,0.4-2.2,1.1-2.9,2.1c-0.8,0.9-1.3,2.1-1.8,3.5c-0.5,1.4-0.8,3.1-1.2,5.1l-4.9,29.2h-13.9L370.3,21.6
			z"/>
		<path class="st0" d="M448.4,21.6l11.5-0.9l0.3,4.2c0.8-0.8,1.6-1.5,2.6-2.1c0.9-0.6,2.1-1.2,3.4-1.6c1.3-0.4,2.8-0.8,4.6-1
			c1.7-0.2,3.7-0.3,5.9-0.3c2.1,0,3.9,0.1,5.3,0.4c1.4,0.3,2.6,0.7,3.4,1.1c0.9,0.5,1.5,1,1.9,1.6c0.4,0.6,0.7,1.3,0.9,2
			c1.6-1.6,3.7-2.9,6.3-3.8c2.6-0.9,6.3-1.4,11-1.4c3.3,0,5.8,0.5,7.6,1.5c1.8,1,3,2.3,3.8,4c0.8,1.7,1.1,3.8,1,6.1
			c-0.1,2.4-0.4,4.9-0.8,7.7l-5.8,34.7h-14l5.2-31.1c0.3-1.6,0.4-2.9,0.5-4.1c0.1-1.2,0-2.2-0.3-2.9c-0.3-0.8-0.9-1.4-1.7-1.7
			c-0.8-0.4-2-0.6-3.5-0.6c-1.8,0-3.3,0.2-4.5,0.7c-1.2,0.4-2.1,1.1-2.9,2c-0.8,0.9-1.4,2.1-1.8,3.5s-0.8,3.1-1.1,5.1l-4.9,29.2h-14
			l5.2-31.1c0.3-1.6,0.4-2.9,0.5-4.1c0.1-1.2,0-2.2-0.3-2.9c-0.3-0.8-0.8-1.4-1.6-1.7c-0.8-0.4-1.9-0.6-3.4-0.6
			c-1.8,0-3.3,0.2-4.5,0.7c-1.2,0.4-2.2,1.1-2.9,2.1c-0.7,0.9-1.3,2.1-1.8,3.5c-0.5,1.4-0.8,3.1-1.2,5.1l-4.9,29.2h-13.9L448.4,21.6
			z"/>
	</g>
	<g>
		<path class="st0" d="M528.4,62.7h3.1v10.4h-2v-7c0-0.2,0-0.5,0-0.9c0-0.4,0-0.6,0-0.8l-2,8.7h-2.1l-2-8.7c0,0.2,0,0.5,0,0.8
			c0,0.4,0,0.6,0,0.9v7h-2V62.7h3.2l1.9,8.2L528.4,62.7z"/>
		<path class="st0" d="M540.2,63c0.4,0.2,0.7,0.4,1,0.7c0.2,0.3,0.4,0.6,0.5,0.9c0.1,0.3,0.2,0.7,0.2,1.1c0,0.5-0.1,1-0.4,1.5
			c-0.2,0.5-0.7,0.8-1.2,1c0.5,0.2,0.8,0.5,1,0.8c0.2,0.4,0.3,0.9,0.3,1.6v0.7c0,0.5,0,0.8,0.1,1c0.1,0.3,0.2,0.5,0.4,0.6v0.3h-2.4
			c-0.1-0.2-0.1-0.4-0.1-0.6c-0.1-0.3-0.1-0.6-0.1-0.9l0-1c0-0.7-0.1-1.1-0.3-1.3c-0.2-0.2-0.6-0.3-1.2-0.3h-2.1v4.1h-2.1V62.7h5
			C539.3,62.7,539.9,62.8,540.2,63z M535.7,64.5v2.8h2.3c0.5,0,0.8-0.1,1-0.2c0.4-0.2,0.6-0.6,0.6-1.2c0-0.6-0.2-1.1-0.6-1.3
			c-0.2-0.1-0.6-0.2-1-0.2H535.7z"/>
	</g>
	<polygon class="st0" points="58.1,55.6 55,74 36.6,74 39.7,55.6 	"/>
	<polygon class="st1" points="42.8,37.2 39.7,55.6 21.3,55.6 24.3,37.2 	"/>
	<polygon class="st0" points="64.3,18.8 61.2,37.2 42.8,37.2 45.8,18.8 	"/>
	<polygon class="st0" points="27.4,18.7 24.3,37.2 5.9,37.2 9,18.8 	"/>
</g>
</svg>
