<svg id="Capa_1" data-name="Capa 1" xmlns="http://www.w3.org/2000/svg" viewBox="0 0 112 90"><defs><style>.cls-1{fill:#fff;}</style></defs><title>ICONOS-WEB-desarrollo-proyectos</title><path class="cls-1" d="M35.39,13.49H19.76a7.84,7.84,0,0,0-7.83,7.83V78.64a7.84,7.84,0,0,0,7.83,7.83H35.39a7.84,7.84,0,0,0,7.83-7.83V21.32A7.84,7.84,0,0,0,35.39,13.49Zm0,69.3H19.76a4.15,4.15,0,0,1-4.15-4.15V21.32a4.16,4.16,0,0,1,4.15-4.15H35.39a4.16,4.16,0,0,1,4.15,4.15V78.64A4.15,4.15,0,0,1,35.39,82.79Z"/><path class="cls-1" d="M22.36,61.31a4.31,4.31,0,1,0,4.31,4.3A4.31,4.31,0,0,0,22.36,61.31Z"/><path class="cls-1" d="M34.61,31.15H20.54a1.38,1.38,0,0,0-1.38,1.38v3.64a1.38,1.38,0,0,0,1.38,1.38H34.61A1.38,1.38,0,0,0,36,36.17V32.53a1.39,1.39,0,0,0-.41-1A1.37,1.37,0,0,0,34.61,31.15Zm-1.38,3.64H21.92v-.88H33.23Z"/><path class="cls-1" d="M34.61,20.73H20.54a1.38,1.38,0,0,0-1.38,1.38v3.64a1.38,1.38,0,0,0,1.38,1.38H34.61A1.38,1.38,0,0,0,36,25.75V22.11a1.39,1.39,0,0,0-.41-1A1.37,1.37,0,0,0,34.61,20.73Zm-1.38,3.64H21.92v-.89H33.23Z"/><path class="cls-1" d="M71,71.94v-4.5a.92.92,0,0,0-.92-.92H52.84a.92.92,0,0,0-.92.92v4.5a6.92,6.92,0,0,0-5.21,6.7v.78a.92.92,0,0,0,.92.92H75.25a.92.92,0,0,0,.92-.92v-.78A6.92,6.92,0,0,0,71,71.94ZM55.33,74.21V69.92H67.55v4.29a.92.92,0,0,0,.92.92h.79a3.5,3.5,0,0,1,3.07,1.81H50.55a3.5,3.5,0,0,1,3.07-1.81h.79A.92.92,0,0,0,55.33,74.21Z"/><path class="cls-1" d="M92.7,3.53H30.18a7.38,7.38,0,0,0-7.37,7.37v.79a1.37,1.37,0,0,0,1.38,1.37h1.32a1.38,1.38,0,0,0,1.37-1.2c0-.29.19-1,.3-1.49a3,3,0,0,1,3-2.52H92.7a3.06,3.06,0,0,1,3,3.05V57.8a3.05,3.05,0,0,1-3,3.05L45,60.58a1.3,1.3,0,0,0-1,.41,1.36,1.36,0,0,0-.41,1v1.83A1.38,1.38,0,0,0,45,65.17H92.7a7.38,7.38,0,0,0,7.37-7.37V10.9A7.38,7.38,0,0,0,92.7,3.53Z"/></svg>