<svg id="Capa_1" data-name="Capa 1" xmlns="http://www.w3.org/2000/svg" viewBox="0 0 112 90"><defs><style>.cls-1{fill:#fff;}</style></defs><title>ICONOS-WEB-desarrollo-proyectos</title><path class="cls-1" d="M91.5,34a12.49,12.49,0,0,0-4,24.33V79h-28V38.72a17.49,17.49,0,1,0-7-.2V79h-29V58.62a12.5,12.5,0,1,0-7-.29V82.5a3.49,3.49,0,0,0,3,3.45v0h72v0a3.49,3.49,0,0,0,3-3.45V58.62A12.49,12.49,0,0,0,91.5,34ZM15,46.5A5.5,5.5,0,1,1,20.5,52,5.51,5.51,0,0,1,15,46.5Zm31-25A10.5,10.5,0,1,1,56.5,32,10.51,10.51,0,0,1,46,21.5ZM91.5,52A5.5,5.5,0,1,1,97,46.5,5.51,5.51,0,0,1,91.5,52Z"/></svg>