<svg id="Capa_1" data-name="Capa 1" xmlns="http://www.w3.org/2000/svg" viewBox="0 0 112 90"><defs><style>.cls-1{fill:#fff;}</style></defs><title>ICONOS-WEB-desarrollo-proyectos</title><path class="cls-1" d="M46.54,57H66.37a3.07,3.07,0,0,0,0-6.14H46.54a3.07,3.07,0,0,0,0,6.14Z"/><path class="cls-1" d="M27.55,52.24a3.07,3.07,0,0,0,5.24,2.17l7.94-7.94a3.1,3.1,0,0,0,0-4.37l-7.94-7.94a3.07,3.07,0,0,0-4.34,0,3.08,3.08,0,0,0,0,4.34l5.79,5.79-5.79,5.78A3,3,0,0,0,27.55,52.24Z"/><path class="cls-1" d="M89.23,4.75H22.77A8.22,8.22,0,0,0,14.56,13V77a8.22,8.22,0,0,0,8.21,8.21H89.23A8.22,8.22,0,0,0,97.44,77V13A8.22,8.22,0,0,0,89.23,4.75ZM20.7,28.2H91.3V77a2.07,2.07,0,0,1-2.07,2.07H22.77A2.07,2.07,0,0,1,20.7,77Zm2.07-17.31H89.23A2.07,2.07,0,0,1,91.3,13v9.1H20.7V13A2.07,2.07,0,0,1,22.77,10.89Z"/></svg>