<svg id="Capa_1" data-name="Capa 1" xmlns="http://www.w3.org/2000/svg" viewBox="0 0 112 90"><defs><style>.cls-1{fill:#fff;}</style></defs><title>ICONOS-WEB-desarrollo-proyectos</title><path class="cls-1" d="M92.13,24.41h-.56l.56-.07c0-2.27-.09-4.41-.09-6.48a3.53,3.53,0,0,0-3.53-3.53C76,14.34,66.41,10.74,58.46,3a3.49,3.49,0,0,0-4.92,0c-7.95,7.73-17.5,11.33-30,11.33A3.53,3.53,0,0,0,20,17.87c0,2.09,0,4.25-.09,6.54-.41,21.5-1,50.94,35,63.4A3.81,3.81,0,0,0,56,88a3.75,3.75,0,0,0,1.15-.19C93.1,75.35,92.54,45.91,92.13,24.41ZM56,80.72c-29.93-11-29.47-35-29.07-56.17,0-1.11,0-2.18.06-3.24,11.68-.58,20.92-4.09,29-11,8.09,6.91,17.33,10.42,29,11,0,1,0,2.11.06,3.23C85.47,45.73,85.93,69.75,56,80.72Z"/><path class="cls-1" d="M68.33,33.26h0a3.52,3.52,0,0,0-2.5,1L51.89,48.23l-5.72-5.72a3.63,3.63,0,0,0-5,0,3.53,3.53,0,0,0,0,5l8.21,8.22a3.55,3.55,0,0,0,5,0L70.82,39.28a3.53,3.53,0,0,0-2.49-6Z"/></svg>