<?xml version="1.0" encoding="utf-8"?>
<!-- Generator: Adobe Illustrator 22.1.0, SVG Export Plug-In . SVG Version: 6.00 Build 0)  -->
<svg version="1.1" id="Capa_1" xmlns="http://www.w3.org/2000/svg" xmlns:xlink="http://www.w3.org/1999/xlink" x="0px" y="0px"
	 viewBox="0 0 112 90" style="enable-background:new 0 0 112 90;" xml:space="preserve">
<style type="text/css">
	.st0{fill:#263238;}
</style>
<g>
	<path class="st0" d="M87.6,24.5h-7.5c-1.5,0-2.8,1.2-2.8,2.8v19.5c0,1.5,1.2,2.8,2.8,2.8h7.5c1.5,0,2.8-1.2,2.8-2.8V27.3
		C90.3,25.7,89.1,24.5,87.6,24.5z M88.3,36.8c0,0.9-0.7,1.7-1.7,1.7H81c-0.9,0-1.7-0.7-1.7-1.7v-2.7c0-0.9,0.7-1.7,1.7-1.7h5.7
		c0.9,0,1.7,0.7,1.7,1.7V36.8z"/>
	<path class="st0" d="M64.8,12.5H31.9c-5.6,0-10.2,4.6-10.2,10.2v44.8c0,10.1,8.2,18.3,18.3,18.3h16.7c10.1,0,18.3-8.2,18.3-18.3
		V22.7C75,17.1,70.4,12.5,64.8,12.5z M38.4,66.6c-0.7,0.7-1.7,1.1-2.7,1.1c-1,0-2-0.4-2.7-1.1c-0.7-0.7-1.1-1.7-1.1-2.7
		c0-1,0.4-2,1.1-2.7c0.7-0.7,1.7-1.1,2.7-1.1c1,0,2,0.4,2.7,1.1c0.7,0.7,1.1,1.7,1.1,2.7S39.1,65.9,38.4,66.6z M38.4,54
		c-0.7,0.7-1.7,1.1-2.7,1.1c-1,0-2-0.4-2.7-1.1c-0.7-0.7-1.1-1.7-1.1-2.7c0-1,0.4-2,1.1-2.7c0.7-0.7,1.7-1.1,2.7-1.1
		c1,0,2,0.4,2.7,1.1c0.7,0.7,1.1,1.7,1.1,2.7C39.6,52.3,39.2,53.3,38.4,54z M38.4,41.4c-0.7,0.7-1.7,1.1-2.7,1.1c-1,0-2-0.4-2.7-1.1
		c-0.7-0.7-1.1-1.7-1.1-2.7c0-1,0.4-2,1.1-2.7c0.7-0.7,1.7-1.1,2.7-1.1c1,0,2,0.4,2.7,1.1c0.7,0.7,1.1,1.7,1.1,2.7
		S39.2,40.7,38.4,41.4z M51,66.6c-0.7,0.7-1.7,1.1-2.7,1.1s-2-0.4-2.7-1.1c-0.7-0.7-1.1-1.7-1.1-2.7c0-1,0.4-2,1.1-2.7
		c0.7-0.7,1.7-1.1,2.7-1.1s2,0.4,2.7,1.1c0.7,0.7,1.1,1.7,1.1,2.7S51.7,65.9,51,66.6z M51,54c-0.7,0.7-1.7,1.1-2.7,1.1
		s-2-0.4-2.7-1.1c-0.7-0.7-1.1-1.7-1.1-2.7c0-1,0.4-2,1.1-2.7c0.7-0.7,1.7-1.1,2.7-1.1c1,0,2,0.4,2.7,1.1c0.7,0.7,1.1,1.7,1.1,2.7
		C52.2,52.3,51.7,53.3,51,54z M51,41.4c-0.7,0.7-1.7,1.1-2.7,1.1s-2-0.4-2.7-1.1c-0.7-0.7-1.1-1.7-1.1-2.7c0-1,0.4-2,1.1-2.7
		c0.7-0.7,1.7-1.1,2.7-1.1s2,0.4,2.7,1.1c0.7,0.7,1.1,1.7,1.1,2.7S51.7,40.7,51,41.4z M34.5,26.5c-1.2,0-2.2-1-2.2-2.2v-3.7
		c0-1.2,1-2.2,2.2-2.2h27.7c1.2,0,2.2,1,2.2,2.2v3.7c0,1.2-1,2.2-2.2,2.2H34.5z M63.6,66.6c-0.7,0.7-1.7,1.1-2.7,1.1
		c-1,0-2-0.4-2.7-1.1c-0.7-0.7-1.1-1.7-1.1-2.7c0-1,0.4-2,1.1-2.7c0.7-0.7,1.7-1.1,2.7-1.1c1,0,2,0.4,2.7,1.1
		c0.7,0.7,1.1,1.7,1.1,2.7S64.3,65.9,63.6,66.6z M63.6,54c-0.7,0.7-1.7,1.1-2.7,1.1c-1,0-2-0.4-2.7-1.1c-0.7-0.7-1.1-1.7-1.1-2.7
		c0-1,0.4-2,1.1-2.7c0.7-0.7,1.7-1.1,2.7-1.1c1,0,2,0.4,2.7,1.1c0.7,0.7,1.1,1.7,1.1,2.7C64.7,52.3,64.3,53.3,63.6,54z M63.6,41.4
		c-0.7,0.7-1.7,1.1-2.7,1.1c-1,0-2-0.4-2.7-1.1c-0.7-0.7-1.1-1.7-1.1-2.7c0-1,0.4-2,1.1-2.7c0.7-0.7,1.7-1.1,2.7-1.1
		c1,0,2,0.4,2.7,1.1c0.7,0.7,1.1,1.7,1.1,2.7S64.3,40.7,63.6,41.4z"/>
</g>
</svg>
