<?xml version="1.0" encoding="utf-8"?>
<!-- Generator: Adobe Illustrator 22.1.0, SVG Export Plug-In . SVG Version: 6.00 Build 0)  -->
<svg version="1.1" id="Capa_1" xmlns="http://www.w3.org/2000/svg" xmlns:xlink="http://www.w3.org/1999/xlink" x="0px" y="0px"
	 viewBox="0 0 112 90" style="enable-background:new 0 0 112 90;" xml:space="preserve">
<style type="text/css">
	.st0{fill:#263238;}
</style>
<g>
	<g>
		<path class="st0" d="M50.9,30h10.3c0.3,0,0.5-0.1,0.7-0.3c0.2-0.2,0.3-0.5,0.3-0.7l-0.7-10.6c0-0.5-0.5-0.9-1-0.9h-9
			c-0.5,0-0.9,0.4-1,0.9L49.9,29c0,0.3,0.1,0.5,0.3,0.7C50.3,29.9,50.6,30,50.9,30z"/>
		<path class="st0" d="M76.2,30c0.3,0,0.5-0.1,0.7-0.3c0.2-0.2,0.3-0.5,0.2-0.8l-1.5-10.6c-0.1-0.5-0.5-0.8-1-0.8h-8.6
			c-0.3,0-0.5,0.1-0.7,0.3c-0.2,0.2-0.3,0.5-0.3,0.7l0.7,10.6c0,0.5,0.5,0.9,1,0.9L76.2,30L76.2,30z"/>
		<path class="st0" d="M61.5,33.7h-11c-0.5,0-0.9,0.4-1,0.9l-0.7,10.6c0,0.3,0.1,0.5,0.3,0.7c0.2,0.2,0.4,0.3,0.7,0.3h12.3
			c0.3,0,0.5-0.1,0.7-0.3c0.2-0.2,0.3-0.5,0.3-0.7l-0.7-10.6C62.4,34.1,62,33.7,61.5,33.7z"/>
		<path class="st0" d="M77.9,34.5c-0.1-0.5-0.5-0.8-1-0.8h-9.9c-0.3,0-0.5,0.1-0.7,0.3c-0.2,0.2-0.3,0.5-0.3,0.7l0.7,10.6
			c0,0.5,0.5,0.9,1,0.9h10.7c0.3,0,0.5-0.1,0.7-0.3c0.2-0.2,0.3-0.5,0.2-0.8L77.9,34.5z"/>
		<path class="st0" d="M44.9,33.7H35c-0.5,0-0.9,0.4-1,0.8l-1.5,10.6c0,0.3,0,0.6,0.2,0.8c0.2,0.2,0.5,0.3,0.7,0.3h10.7
			c0.5,0,0.9-0.4,1-0.9l0.7-10.6c0-0.3-0.1-0.5-0.3-0.7C45.4,33.8,45.2,33.7,44.9,33.7z"/>
		<path class="st0" d="M45.9,17.4h-8.6c-0.5,0-0.9,0.4-1,0.8l-1.5,10.6c0,0.3,0,0.6,0.2,0.8c0.2,0.2,0.5,0.3,0.7,0.3h9.4
			c0.5,0,0.9-0.4,1-0.9l0.7-10.6c0-0.3-0.1-0.5-0.3-0.7C46.4,17.6,46.2,17.4,45.9,17.4z"/>
	</g>
	<path class="st0" d="M93.4,52.3l-6-42.3c-0.3-2-2-3.5-4-3.5H28.7c-2,0-3.8,1.5-4,3.5l-6.1,42.4c0,0,0,0.1,0,0.1c0,0,0,0,0,0.1
		c0,0.1,0,0.2,0,0.4c0,0,0,0,0,0v6.7c0,2.3,1.8,4.1,4.1,4.1h24.8v13.6h17.2V63.9h24.8c2.3,0,4.1-1.8,4.1-4.1v-6.7c0,0,0,0,0-0.1
		C93.5,52.8,93.5,52.6,93.4,52.3z M27.3,49l4.9-34.3h47.6L84.7,49H27.3z"/>
</g>
<path class="st0" d="M76.3,85.5H35.7c-4.5,0-8.2-3.7-8.2-8.2v-1.8h57v1.8C84.5,81.8,80.8,85.5,76.3,85.5z"/>
</svg>
