<?xml version="1.0" encoding="utf-8"?>
<!-- Generator: Adobe Illustrator 22.1.0, SVG Export Plug-In . SVG Version: 6.00 Build 0)  -->
<svg version="1.1" id="Capa_1" xmlns="http://www.w3.org/2000/svg" xmlns:xlink="http://www.w3.org/1999/xlink" x="0px" y="0px"
	 viewBox="0 0 112 90" style="enable-background:new 0 0 112 90;" xml:space="preserve">
<style type="text/css">
	.st0{fill:#263238;}
</style>
<g>
	<g>
		<polygon class="st0" points="57.8,30.3 68,30.3 72.3,22.7 62.1,22.7 		"/>
		<polygon class="st0" points="90.1,22.7 79.9,22.7 75.7,30.3 85.9,30.3 		"/>
		<polygon class="st0" points="54.4,22.7 41.2,22.7 41.2,30.3 50.2,30.3 		"/>
		<polygon class="st0" points="97.8,22.7 93.5,30.3 103.7,30.3 107.5,22.7 		"/>
	</g>
	<path class="st0" d="M21.1,7.4C11.9,7.4,4.5,14.8,4.5,24v54.4c0,2.4,1.9,4.3,4.3,4.3h24.6c2.4,0,4.3-1.9,4.3-4.3V24
		C37.7,14.8,30.2,7.4,21.1,7.4z M21.1,32.9c-4.6,0-8.3-3.7-8.3-8.3s3.7-8.3,8.3-8.3s8.3,3.7,8.3,8.3S25.7,32.9,21.1,32.9z"/>
</g>
</svg>
