<?xml version="1.0" encoding="utf-8"?>
<!-- Generator: Adobe Illustrator 22.0.1, SVG Export Plug-In . SVG Version: 6.00 Build 0)  -->
<svg version="1.1" id="Capa_1" xmlns="http://www.w3.org/2000/svg" xmlns:xlink="http://www.w3.org/1999/xlink" x="0px" y="0px"
	 viewBox="0 0 75 71" style="enable-background:new 0 0 75 71;" xml:space="preserve">
<style type="text/css">
	.st0{fill-rule:evenodd;clip-rule:evenodd;fill:#2C3438;}
	.st1{fill-rule:evenodd;clip-rule:evenodd;fill:#CACACE;}
	.st2{fill-rule:evenodd;clip-rule:evenodd;fill:#191A1B;}
	.st3{fill-rule:evenodd;clip-rule:evenodd;fill:#A8A8B1;stroke:#7F7F84;stroke-miterlimit:10;}
	.st4{fill-rule:evenodd;clip-rule:evenodd;fill:#97979A;}
	.st5{fill-rule:evenodd;clip-rule:evenodd;fill:#DCDCE5;}
	.st6{fill:#FFFFFF;}
	.st7{fill:#2C3438;}
	.st8{opacity:0.5;fill:#A8A8B1;stroke:#7F7F84;stroke-miterlimit:10;}
	.st9{fill-rule:evenodd;clip-rule:evenodd;fill:#B3B3BB;}
	.st10{fill:#191A1B;}
	.st11{fill:#C12A21;}
</style>
<g>
	<path class="st9" d="M6.9,26.1l62-0.1c0,0,4,2,4,4s0,11,0,11s-2,2-4,3c-2,1-62,0.1-62,0.1s-3,0-4-5l0-9C2.9,30.1,4.9,26.1,6.9,26.1
		z"/>
	<path class="st0" d="M6.8,4.1l62-0.1c0,0,4,2,4,4s0,11,0,11s-2,2-4,3c-2,1-62,0.1-62,0.1s-3,0-4-5l0-9C2.8,8.1,4.8,4.1,6.8,4.1z"/>
	<circle class="st5" cx="12.4" cy="35.6" r="3.5"/>
	<circle class="st5" cx="12.4" cy="13.6" r="3.5"/>
	<circle class="st5" cx="21.9" cy="35" r="2"/>
	<circle class="st5" cx="21.9" cy="13" r="2"/>
	<path class="st9" d="M6.9,48.1l62-0.1c0,0,4,2,4,4c0,2,0,11,0,11s-2,2-4,3S7,66.1,7,66.1s-3,0-4-5l0-9C2.9,52.1,4.9,48.1,6.9,48.1z
		"/>
	<circle class="st5" cx="12.4" cy="56.6" r="3.5"/>
	<circle class="st5" cx="21.9" cy="57" r="2"/>
	<path class="st9" d="M6.9,50.1l62-0.1c0,0,4,2,4,4s0,11,0,11s-2,2-4,3c-2,1-62,0.1-62,0.1s-3,0-4-5l0-9C2.9,54.1,4.9,50.1,6.9,50.1
		z"/>
	<circle class="st5" cx="12.4" cy="58.6" r="3.5"/>
	<circle class="st5" cx="21.9" cy="59" r="2"/>
	<g>
		<path class="st10" d="M68.3,23c3.1,0,5.5-2.5,5.5-5.6l0-9c0-3.1-2.5-5.5-5.6-5.5L7.6,3.1C4.5,3.1,2,5.6,2,8.6l0,9
			c0,3.1,2.5,5.5,5.6,5.5l29.3-0.1l0,2.4L7.6,25.6c-3.1,0-5.5,2.5-5.5,5.6l0,9c0,3.1,2.5,5.5,5.6,5.5L37,45.6l0,2.4L7.7,48
			c-3.1,0-5.5,2.5-5.5,5.6l0,9c0,3.1,2.5,5.5,5.6,5.5L68.4,68c3.1,0,5.5-2.5,5.5-5.6l0-9c0-3.1-2.5-5.5-5.6-5.5L39.1,48l0-2.4
			l29.3-0.1c3.1,0,5.5-2.5,5.5-5.6l0-9c0-3.1-2.5-5.5-5.6-5.5L39,25.5l0-2.4L68.3,23z M71.8,53.5l0,9c0,1.9-1.5,3.4-3.4,3.4L7.7,66
			c-1.9,0-3.4-1.5-3.4-3.4l0-9c0-1.9,1.5-3.4,3.4-3.4L68.4,50C70.3,50,71.8,51.6,71.8,53.5z M71.8,31l0,9c0,1.9-1.5,3.4-3.4,3.4
			L7.7,43.5c-1.9,0-3.4-1.5-3.4-3.4l0-9c0-1.9,1.5-3.4,3.4-3.4l60.7-0.1C70.2,27.5,71.8,29.1,71.8,31z M4.2,17.6l0-9
			c0-1.9,1.5-3.4,3.4-3.4l60.7-0.1c1.9,0,3.4,1.5,3.4,3.4l0,9c0,1.9-1.5,3.4-3.4,3.4L7.6,21.1C5.7,21.1,4.2,19.5,4.2,17.6z"/>
		<path class="st10" d="M12.1,8.7c-2.4,0-4.4,2-4.4,4.4s2,4.4,4.4,4.4c2.4,0,4.4-2,4.4-4.4S14.5,8.7,12.1,8.7z M12.1,15.4
			c-1.3,0-2.3-1-2.3-2.3s1-2.3,2.3-2.3s2.3,1,2.3,2.3S13.4,15.4,12.1,15.4z"/>
		<path class="st10" d="M22.2,9.8c-1.8,0-3.3,1.5-3.3,3.3c0,1.8,1.5,3.3,3.3,3.3c1.8,0,3.3-1.5,3.3-3.3S24,9.8,22.2,9.8z M22.2,14.3
			c-0.7,0-1.2-0.5-1.2-1.2c0-0.7,0.5-1.2,1.2-1.2c0.7,0,1.2,0.5,1.2,1.2S22.9,14.3,22.2,14.3z"/>
		<path class="st10" d="M12.1,31.2c-2.4,0-4.4,2-4.4,4.4c0,2.4,2,4.4,4.4,4.4s4.4-2,4.4-4.4C16.6,33.1,14.6,31.2,12.1,31.2z
			 M12.2,37.9c-1.3,0-2.3-1-2.3-2.3c0-1.3,1-2.3,2.3-2.3s2.3,1,2.3,2.3S13.4,37.9,12.2,37.9z"/>
		<path class="st10" d="M22.3,32.3c-1.8,0-3.3,1.5-3.3,3.3c0,1.8,1.5,3.3,3.3,3.3s3.3-1.5,3.3-3.3C25.6,33.7,24.1,32.3,22.3,32.3z
			 M22.3,36.8c-0.7,0-1.2-0.5-1.2-1.2c0-0.7,0.5-1.2,1.2-1.2c0.7,0,1.2,0.5,1.2,1.2S22.9,36.8,22.3,36.8z"/>
		<path class="st10" d="M66.1,36.7L29,36.8c-0.6,0-1.1,0.5-1.1,1.1c0,0.6,0.5,1.1,1.1,1.1l37.1-0.1c0.6,0,1.1-0.5,1.1-1.1
			C67.2,37.1,66.7,36.7,66.1,36.7z"/>
		<path class="st10" d="M28,33.3c0,0.6,0.5,1.1,1.1,1.1l37.1-0.1c0.6,0,1.1-0.5,1.1-1.1s-0.5-1.1-1.1-1.1L29,32.3
			C28.4,32.3,27.9,32.7,28,33.3z"/>
		<path class="st10" d="M67.1,15.2c0-0.6-0.5-1.1-1.1-1.1L29,14.3c-0.6,0-1.1,0.5-1.1,1.1c0,0.6,0.5,1.1,1.1,1.1l37.1-0.1
			C66.6,16.3,67.1,15.8,67.1,15.2z"/>
		<path class="st10" d="M29,11.9l37.1-0.1c0.6,0,1.1-0.5,1.1-1.1c0-0.6-0.5-1.1-1.1-1.1L29,9.8c-0.6,0-1.1,0.5-1.1,1.1
			C27.9,11.4,28.4,11.9,29,11.9z"/>
		<path class="st10" d="M12.2,53.6c-2.4,0-4.4,2-4.4,4.4c0,2.4,2,4.4,4.4,4.4c2.4,0,4.4-2,4.4-4.4C16.6,55.6,14.6,53.6,12.2,53.6z
			 M12.2,60.4c-1.3,0-2.3-1-2.3-2.3c0-1.3,1-2.3,2.3-2.3s2.3,1,2.3,2.3C14.5,59.3,13.5,60.4,12.2,60.4z"/>
		<path class="st10" d="M22.3,54.8c-1.8,0-3.3,1.5-3.3,3.3c0,1.8,1.5,3.3,3.3,3.3c1.8,0,3.3-1.5,3.3-3.3
			C25.6,56.2,24.1,54.7,22.3,54.8z M22.3,59.2c-0.7,0-1.2-0.5-1.2-1.2c0-0.7,0.5-1.2,1.2-1.2c0.7,0,1.2,0.5,1.2,1.2
			S23,59.2,22.3,59.2z"/>
		<path class="st10" d="M66.1,59.2l-37.1,0.1c-0.6,0-1.1,0.5-1.1,1.1c0,0.6,0.5,1.1,1.1,1.1l37.1-0.1c0.6,0,1.1-0.5,1.1-1.1
			C67.2,59.6,66.7,59.2,66.1,59.2z"/>
		<path class="st10" d="M28,55.8c0,0.6,0.5,1.1,1.1,1.1l37.1-0.1c0.6,0,1.1-0.5,1.1-1.1c0-0.6-0.5-1.1-1.1-1.1L29,54.7
			C28.5,54.7,28,55.2,28,55.8z"/>
	</g>
</g>
</svg>
