<svg id="Layer_1" data-name="Layer 1" xmlns="http://www.w3.org/2000/svg" viewBox="0 0 463 138"><defs><style>.cls-1{fill:#fff;}</style></defs><title>logos-eq-</title><path class="cls-1" d="M307.74,21.25c-26.88,0-42.39,20.15-42.39,47.75s15.51,47.75,42.39,47.75S350.13,96.6,350.13,69,334.61,21.25,307.74,21.25Zm0,79.43c-17.07,0-23.66-15.71-23.66-31.68s6.59-31.69,23.66-31.69S331.39,53,331.39,69,324.81,100.68,307.74,100.68Z"/><polygon class="cls-1" points="33.2 23.93 100.56 23.93 100.56 39.99 51.94 39.99 51.94 59.98 97.28 59.98 97.28 75.65 51.94 75.65 51.94 98 100.56 98 100.56 114.07 33.2 114.07 33.2 23.93"/><path class="cls-1" d="M108.59,114.07h18.74V87h17c22.94,0,38.35-11.29,38.35-31.55s-15.41-31.55-38.35-31.55H108.59ZM144.31,71h-17V40h17c11.78,0,19.61,5.13,19.61,15.49S156.09,71,144.31,71Z"/><path class="cls-1" d="M376.46,23.93H357.21v90.14h18.37V77.55c0-10-.37-18.85-.7-26.68,2.17,4.5,8.73,18.06,11.79,23.16l23.9,40H429.8V23.93H411.44v35.6c0,10,.36,19.77.7,27.6C410,82.63,403.4,69.07,400.35,64Z"/><path class="cls-1" d="M203.94,84.24c0,12.12,10.07,16.83,20.79,16.83,7,0,18.36-2,18.36-11.34,0-9.82-13.89-11.68-27.28-15.25-14-3.71-27.55-9-27.55-25.69,0-18.61,17.59-27.54,34-27.54,19,0,36.47,8.3,36.47,29.33H240c-.64-11-9.05-13.77-18.61-13.77C215,36.81,207,39.49,207,47.14c0,7,4.58,8.1,27.4,14,6.63,1.65,27.43,5.67,27.43,26.32,0,16.7-13.13,29.2-37.87,29.2-20.15,0-39-9.94-38.76-32.39Z"/></svg>