<svg id="Layer_1" data-name="Layer 1" xmlns="http://www.w3.org/2000/svg" viewBox="0 0 355 138"><defs><style>.cls-1{fill:#fff;fill-rule:evenodd;}</style></defs><title>logos-eq-</title><polygon class="cls-1" points="287.43 20.42 287.43 122.23 353.98 122.23 353.98 90.45 324.07 90.45 324.07 20.42 287.43 20.42"/><path class="cls-1" d="M333.1,32.89V22.27h-4V20.42h10.21v1.85h-4.1V32.89Zm7.55,0V20.42h3l3.14,10,3.06-10h3V32.89H351V22.43l-3.23,10.46h-1.88l-3.32-10.62V32.89Z"/><path class="cls-1" d="M47.52,53h-9.2V91.27H48.67c3.13,0,16-3.13,16-18.24C64.62,53.64,51.47,53,47.52,53Zm84.84,14.47-10.89-6.58,49.29-31.55-20.7-15-52.42,34s-13.64-28-39.93-28H1V122.23H63.79c30.07,0,34.84-31,34.84-31l54.55,32.37L215,82.88v39.35h66.55V90.45H251.61v-70H215V52.65l-52.75,33-10-6.08,50.07-31.5L182.83,35Z"/></svg>