<svg id="Layer_1" data-name="Layer 1" xmlns="http://www.w3.org/2000/svg" viewBox="0 0 214 210"><defs><style>.cls-1{fill:#fff;}</style></defs><title>logos-eq-</title><path class="cls-1" d="M106.74,10.41c2.81,0,5.62-.65,8.41-.06A94.9,94.9,0,0,1,201.78,98a89.59,89.59,0,0,0,.09,12.9,96.11,96.11,0,0,1-9.48,35.67,94.81,94.81,0,0,1-76.15,52.76,54.48,54.48,0,0,1-8.17.49c-1.81-.12-3.67.46-5.41-.28q10-28.14,20.06-56.26c7.32-.14,14.65,0,22-.09,4.67-.16,9.29-3,10.82-7.55,6.2-17.43,12.54-34.82,18.54-52.33a13.64,13.64,0,0,0,.75-8.36c-1.06-3.5-4.28-6-7.73-6.92-3-.93-6.15-.59-9.24-.64-9.39,0-18.79,0-28.18,0-.16.31-.46.93-.62,1.24q-22.82,64.11-45.68,128.21A95,95,0,0,1,14,122.87a124,124,0,0,1-1.85-17.4,100.23,100.23,0,0,1,6.81-35.59C30.09,41.39,55.87,19,85.85,12.54,70.51,55.09,55.52,97.77,40.18,140.32a10.47,10.47,0,0,0,3,.2c5.59,0,11.19,0,16.78,0,.76,0,.68-1.07,1-1.55q10.11-28.54,20.31-57a32.58,32.58,0,0,1,1.33-3.49c3.5.06,7,0,10.51,0C85.77,99.08,78.49,119.72,71,140.29a6.73,6.73,0,0,0,2.45.23c5.87-.05,11.74,0,17.61,0,6.64-18.72,13.35-37.42,20-56.13,1.43-3.83,1.55-8.36-.71-11.89-2-3.12-5.72-4.61-9.29-4.76-4.89-.15-9.79,0-14.68-.08C93.14,48.54,100.06,29.52,106.74,10.41Z"/><path class="cls-1" d="M145.69,78.68c.59-.66,1.63-.26,2.41-.37,2.71,0,5.42,0,8.14,0-6.32,18-12.94,36-19.16,54.06-3.51.25-7.06.1-10.58.08Q136.13,105.6,145.69,78.68Z"/></svg>