<svg id="Layer_1" data-name="Layer 1" xmlns="http://www.w3.org/2000/svg" viewBox="0 0 619 138"><defs><style>.cls-1{fill:#fff;fill-rule:evenodd;}</style></defs><title>logos-eq-</title><path class="cls-1" d="M337.65,66a75.19,75.19,0,0,0-9.17-4.85s-10.84-5-13-7.42c0,0-4.22-4-1.75-8.6,0,0,1-3,5.5-3,0,0,5.81.32,5.81,5.09V53.9h20.82l0-9.92s1.6-16.25-24.54-17c0,0-20.55-1.35-26.44,9.72,0,0-2.31,2.47-2.31,11.07V54s-.24,7.17,3.42,11.78a27,27,0,0,0,7.17,6.37s10.36,5.58,16.57,8.77c0,0,6.28,3.58,5.45,9.28,0,0-.51,5.85-6.57,5.61,0,0-5.54-.25-5.54-6V83.11H290.86V92.9s-.62,18.7,27.9,18.7c0,0,27.24.56,28.52-19.2v-8s1-12.1-9.63-18.48Z"/><polygon class="cls-1" points="231.02 29.34 224.05 73.04 222.42 73.04 215.76 29.73 180.97 29.73 179.23 108.86 199.82 108.86 200.07 49.24 201.69 49.24 212.61 108.86 234.28 108.86 245.06 49.26 246.5 49.26 246.99 108.86 267.7 108.86 265.47 29.34 231.02 29.34 231.02 29.34"/><polygon class="cls-1" points="108.41 29.67 94.71 108.78 116.88 108.78 125 47.44 126.82 47.44 134.94 108.78 157.11 108.78 143.41 29.67 108.41 29.67 108.41 29.67"/><path class="cls-1" d="M573.69,64.87V76.54h5.68V89.07c0,6.12-5.23,6.24-5.23,6.24-6.37,0-6.13-5.82-6.13-5.82V46.16c0-4.47,5.65-4.7,5.65-4.7,5.42,0,5.46,5.32,5.46,5.32v6.59H600c.68-12.86-1.88-16-1.88-16-5.18-11.63-24.77-11-24.77-11-30.11,0-26.77,23.1-26.77,23.1V91.4c.65,21.66,30.31,19.46,30.81,19.44,13.2-1.47,17.19-5.65,17.19-5.65a12.9,12.9,0,0,0,4.61-6.5c1-2.2,1.31-9.2,1.31-9.2V64.87Z"/><polygon class="cls-1" points="504.49 77.75 503.58 77.75 482.38 29.36 457.05 29.36 457.05 108.88 477.67 108.88 476.44 60.49 477.36 60.49 499.3 108.88 523.89 108.88 523.89 29.35 503 29.35 504.49 77.75 504.49 77.75"/><path class="cls-1" d="M406.68,89.06s.3,6.53-5.75,6.53c0,0-6.37.34-6.37-6.36l-.06-59.82H371.87V88.75s-2.32,22.46,29.38,22.46c0,0,27.54.33,27.54-21.43V29.41H406.68V89.06Z"/><path class="cls-1" d="M65.27,66a74,74,0,0,0-9.16-4.85s-10.83-5-13-7.42c0,0-4.22-4-1.75-8.59,0,0,1-3,5.49-3,0,0,5.82.32,5.82,5.09V53.9H73.52l0-9.93S75.07,27.72,49,27c0,0-2-.12-4.86,0,0,0-15.82.85-21.48,9.53,0,.06-.08.11-.11.17S20.19,39.2,20.19,47.8V54S20,61.18,23.62,65.8a27,27,0,0,0,7.17,6.37s10.35,5.58,16.56,8.77c0,0,6.28,3.58,5.45,9.28,0,0-.51,5.85-6.56,5.61,0,0-5.54-.25-5.54-6V83.11H18.5V92.9s-.62,18.7,27.9,18.7c0,0,27.24.56,28.52-19.2v-8s1-12.1-9.65-18.48Z"/></svg>