<svg id="Layer_1" data-name="Layer 1" xmlns="http://www.w3.org/2000/svg" viewBox="0 0 214 210"><defs><style>.cls-1,.cls-2{fill:#fff;}.cls-2{fill-rule:evenodd;}</style></defs><title>logos-eq-</title><path class="cls-1" d="M186.93,203.55a8.8,8.8,0,1,0-8.8-8.8,8.8,8.8,0,0,0,8.8,8.8m-2.51-3.45v-9.83h3.94m2.38,9.72-2.34-5m-4-.08h3.93m0,0a2.36,2.36,0,0,0,0-4.65"/><path class="cls-2" d="M187.37,150.78c-4.62,10.24-6.83,14.81-12.78,23.86-8.3,12.64-20,28.37-34.5,28.51-12.89.12-16.2-8.39-33.69-8.29s-21.13,8.43-34,8.32c-14.5-.14-25.59-14.35-33.89-27C15.27,140.86,12.84,99.4,27.16,77.35,37.34,61.69,53.39,52.52,68.48,52.52c15.37,0,25,8.42,37.74,8.42,12.33,0,19.84-8.44,37.61-8.44,13.43,0,27.66,7.31,37.8,20-33.22,18.21-27.83,65.65,5.74,78.33Z"/><path class="cls-2" d="M130.35,38.39c6.45-8.29,11.36-20,9.58-31.94-10.55.72-22.88,7.43-30.08,16.18-6.54,7.94-11.94,19.71-9.84,31.15,11.51.36,23.43-6.52,30.34-15.39Z"/></svg>