<svg id="Layer_1" data-name="Layer 1" xmlns="http://www.w3.org/2000/svg" viewBox="0 0 619 138"><defs><style>.cls-1,.cls-2{fill:#fff;}.cls-1{fill-rule:evenodd;}</style></defs><title>logos-eq-</title><path class="cls-1" d="M35.61,19.5h39Q60.71,67.85,46.81,116.19h-39L35.61,19.5Z"/><path class="cls-1" d="M211.88,94.17l9.88-32.85s23.67-3.39,20.57,8.81l-7,24-6.41,22H268.2l6.57-22,7.32-24.52s4.77-13.39-12-16.72c0,0-18.18-5-43.34-3.58a377.72,377.72,0,0,0-43.09,4.77L171.79,94.17h0l-6.53,22h40l6.62-22Z"/><path class="cls-1" d="M345.09,49.12c-57.46,2.14-61.33,37.26-61.33,37.26a22.19,22.19,0,0,0-1.33,7.79c.07,9.92,6.83,25.52,49.49,24C366,117,382.17,104.88,389.8,94.16c6.26-8.78,6.79-16.59,6.79-16.59S402.55,47,345.09,49.12Zm11,28.45a48.68,48.68,0,0,1-4.75,16.6c-3.27,6.25-8.73,11.82-17.78,11.61,0,0-10.28.81-10.29-11.58a34.49,34.49,0,0,1,1.17-8.3l3.87-11.43s3.1-13.63,16.75-13.39S357.07,71.85,356.12,77.57Z"/><polygon class="cls-1" points="405.37 94.17 400.17 51.26 436.29 51.26 441.56 94.17 441.83 96.44 443.4 94.17 473.19 51.26 510.8 51.26 481.53 94.17 466.51 116.19 408.04 116.19 405.37 94.17 405.37 94.17"/><path class="cls-1" d="M559.49,49.12C502,51.26,498.16,86.38,498.16,86.38a22.19,22.19,0,0,0-1.33,7.79c.06,9.92,6.83,25.52,49.49,24,34.1-1.18,50.25-13.34,57.88-24.06,6.26-8.78,6.79-16.59,6.79-16.59S617,47,559.49,49.12Zm11,28.45a48.68,48.68,0,0,1-4.75,16.6C562.5,100.42,557,106,548,105.78c0,0-10.28.81-10.29-11.58a33.51,33.51,0,0,1,1.17-8.3l3.87-11.43s3.1-13.63,16.75-13.39S571.47,71.85,570.52,77.57Z"/><path class="cls-2" d="M154.66,94.16h.42l.13-.32Z"/><path class="cls-2" d="M107.71,94.17,167.94,80s14.66-32-41.28-31.21S63.4,85,62.63,92.31a17.4,17.4,0,0,0-.1,1.86l.87,1.9c0,8.18,4.22,22.08,41.65,22.43,0,0,33.17-1.14,42.83-6.54l7.2-17.79h-.42c-4,2.17-29.26,15.28-49.72,10.42,0,0-6-1-6-6.49l.35-1.93ZM104.4,74.23s2.45-14.64,19-14.87,12.93,13.86,12.93,13.86L100.11,91.44Z"/></svg>