<?xml version="1.0" encoding="utf-8"?>
<!-- Generator: Adobe Illustrator 22.0.1, SVG Export Plug-In . SVG Version: 6.00 Build 0)  -->
<svg version="1.1" id="Capa_1" xmlns="http://www.w3.org/2000/svg" xmlns:xlink="http://www.w3.org/1999/xlink" x="0px" y="0px"
	 viewBox="0 0 44.1 39.1" style="enable-background:new 0 0 44.1 39.1;" xml:space="preserve">
<style type="text/css">
	.st0{fill-rule:evenodd;clip-rule:evenodd;fill:#FFFFFF;}
	.st1{opacity:0.69;fill:#C12A21;}
	.st2{fill:#FFFFFF;}
</style>
<path class="st0" d="M27.5,29.2H11.7l-7.9,6c-0.2,0.1-0.4,0.1-0.6-0.1c-0.1-0.1-0.1-0.2-0.1-0.3l0,0l1-5.6H4c-0.7,0-1.3-0.3-1.7-0.7
	v0h0l0,0c-0.4-0.4-0.7-1.1-0.7-1.7V10.3c0-0.7,0.3-1.3,0.7-1.7C2.8,8.1,3.4,7.8,4,7.8h10.1V6.2c0-0.7,0.3-1.3,0.7-1.7
	c0.4-0.4,1.1-0.7,1.7-0.7H40c0.7,0,1.3,0.3,1.7,0.7l0,0c0.4,0.4,0.7,1.1,0.7,1.7v16.5c0,0.7-0.3,1.3-0.7,1.7
	c-0.4,0.4-1.1,0.7-1.7,0.7h-0.2l1,5.6h0c0,0.1,0,0.2-0.1,0.3c-0.1,0.2-0.4,0.2-0.6,0.1l-7.9-6H30v1.6c0,0.7-0.3,1.3-0.7,1.7
	C28.8,28.9,28.2,29.2,27.5,29.2L27.5,29.2z M18.4,22.1H6.6c-0.2,0-0.4,0.2-0.4,0.4c0,0.2,0.2,0.4,0.4,0.4h11.8
	c0.2,0,0.4-0.2,0.4-0.4C18.8,22.3,18.6,22.1,18.4,22.1L18.4,22.1z M24.9,17.6H6.6c-0.2,0-0.4,0.2-0.4,0.4c0,0.2,0.2,0.4,0.4,0.4
	h18.3c0.2,0,0.4-0.2,0.4-0.4C25.3,17.8,25.2,17.6,24.9,17.6L24.9,17.6z M22.8,13.4H6.6c-0.2,0-0.4,0.2-0.4,0.4
	c0,0.2,0.2,0.4,0.4,0.4h16.2c0.2,0,0.4-0.2,0.4-0.4C23.2,13.6,23,13.4,22.8,13.4L22.8,13.4z M37.3,18.2c0.2,0,0.4,0.2,0.4,0.4
	c0,0.2-0.2,0.4-0.4,0.4H30v5.4h2.6c0.1,0,0.2,0,0.3,0.1l7.2,5.4L39,24.9c0-0.2,0.1-0.4,0.3-0.5c0,0,0,0,0.1,0l0,0H40
	c0.4,0,0.9-0.2,1.2-0.5c0.3-0.3,0.5-0.7,0.5-1.2V6.2c0-0.4-0.2-0.9-0.5-1.2l0,0c-0.3-0.3-0.7-0.5-1.2-0.5H16.6
	c-0.4,0-0.9,0.2-1.2,0.5c-0.3,0.3-0.5,0.7-0.5,1.2v1.6h12.6c0.7,0,1.3,0.3,1.7,0.7l0,0c0.3,0.3,0.5,0.6,0.6,1h7.5
	c0.2,0,0.4,0.2,0.4,0.4c0,0.2-0.2,0.4-0.4,0.4H30v3.4h6c0.2,0,0.4,0.2,0.4,0.4c0,0.2-0.2,0.4-0.4,0.4h-6v3.7H37.3L37.3,18.2z
	 M11.6,28.4h15.9c0.4,0,0.9-0.2,1.1-0.5c0.3-0.3,0.5-0.7,0.5-1.2v-2V10.3c0-0.4-0.2-0.9-0.5-1.2l0,0c-0.3-0.3-0.7-0.5-1.1-0.5h-13H4
	c-0.4,0-0.9,0.2-1.1,0.5c-0.3,0.3-0.5,0.7-0.5,1.2v16.5c0,0.5,0.2,0.9,0.5,1.2h0c0.3,0.3,0.7,0.5,1.1,0.5h0.6v0c0,0,0,0,0.1,0
	c0.2,0,0.4,0.3,0.3,0.5l-0.9,5.1l7.2-5.4C11.4,28.4,11.5,28.4,11.6,28.4z"/>
</svg>
