<svg xmlns="http://www.w3.org/2000/svg" viewBox="0 0 77 77"><defs><style>.cls-1{opacity:0.68;}.cls-2{fill:#212121;}.cls-3{fill:#f24040;}.cls-4{fill:#f48282;}.cls-5{fill:#fff;}</style></defs><title>btns-membresia-estudiantil</title><g id="OBJECTS"><g class="cls-1"><circle class="cls-2" cx="40.46" cy="39.48" r="32.3"/></g><g class="cls-1"><path class="cls-2" d="M40.46,7.18A32.3,32.3,0,0,0,8.77,33.26c.92-.52,1.83-1,2.73-1.61a1.17,1.17,0,0,0-.45,1.14,1.19,1.19,0,0,0,1.07.94c.41,0,.82,0,1.23,0a1.2,1.2,0,0,0,.87,1.49A9.2,9.2,0,0,0,16.94,35a9.06,9.06,0,0,0,2.11-.59,4,4,0,0,0,.48-.09,4.14,4.14,0,0,0,1.67-.63q6.3-3.23,12.37-6.88A5.51,5.51,0,0,0,34.78,28a1.55,1.55,0,0,0,.29.59,5.39,5.39,0,0,0,.51.63,3,3,0,0,0-.1.74c0,.37.05.74.07,1.11a3.66,3.66,0,0,0,1.06,1.47,2.17,2.17,0,0,0,1.18.63,1.89,1.89,0,0,0,.78.38,5.91,5.91,0,0,0,1.56,1.11,1.2,1.2,0,0,0,1.33.26l2.31-1.25a3.89,3.89,0,0,0,.58.18,1,1,0,0,0,0,1.21,3.11,3.11,0,0,0,.28.23l-2,2.06a2,2,0,0,0-.14.23L41,39.14a.9.9,0,0,0,0,1.32,3.67,3.67,0,0,0,1.58.64h0a1,1,0,0,0,0,1.32,3.28,3.28,0,0,0,1.64.67c-.28.28-.56.57-.83.86a1,1,0,0,0,0,1.32A2.87,2.87,0,0,0,45.5,46a1.25,1.25,0,0,0,.19.76,2,2,0,0,0,1.79.67,20.56,20.56,0,0,0,3.42,0,2,2,0,0,0,1.77-.71l.31-.32a3.57,3.57,0,0,0,.46-.16Q59.8,39.48,66.3,33q2-1.12,3.94-2.32l1.07-.72A32.3,32.3,0,0,0,40.46,7.18Z"/></g><circle class="cls-3" cx="36.54" cy="37.52" r="32.3"/><path class="cls-4" d="M6.13,37.52A32.29,32.29,0,0,1,37.48,5.25c-.31,0-.62,0-.94,0a32.3,32.3,0,0,0,0,64.6c.32,0,.63,0,.94,0A32.29,32.29,0,0,1,6.13,37.52Z"/><path class="cls-5" d="M21.91,30C20.73,30,20,30.61,20,32.3v2.53H16.47V32.54c0-3.79,1.9-5.95,5.54-5.95s5.55,2.16,5.55,5.95c0,7.43-7.4,10.2-7.4,14.09a2.85,2.85,0,0,0,0,.5h7v3.38H16.47V47.6c0-7,7.37-8.1,7.37-14.93C23.84,30.54,23.1,30,21.91,30Z"/><path class="cls-5" d="M29.55,32.54c0-3.79,2-5.95,5.64-5.95s5.64,2.16,5.64,5.95V44.83c0,3.79-2,6-5.64,6s-5.64-2.16-5.64-6Zm3.71,12.53c0,1.69.75,2.33,1.93,2.33s1.92-.64,1.92-2.33V32.3c0-1.69-.74-2.33-1.92-2.33s-1.93.64-1.93,2.33Z"/><path class="cls-5" d="M43,30.48c0-2.44,1.25-3.79,3.58-3.79s3.58,1.35,3.58,3.79v7.77c0,2.43-1.25,3.78-3.58,3.78S43,40.68,43,38.25Zm2.37,7.94c0,1,.44,1.48,1.21,1.48s1.22-.44,1.22-1.48V30.31c0-1-.47-1.49-1.22-1.49s-1.21.44-1.21,1.49ZM55.93,26.86h2.19L48.8,50.51H46.6ZM54.74,39.13c0-2.44,1.25-3.79,3.59-3.79s3.58,1.35,3.58,3.79v7.76c0,2.44-1.25,3.79-3.58,3.79s-3.59-1.35-3.59-3.79Zm2.37,7.93c0,1,.44,1.49,1.22,1.49s1.21-.44,1.21-1.49V39c0-1.05-.47-1.49-1.21-1.49s-1.22.44-1.22,1.49Z"/></g></svg>