<?xml version="1.0" encoding="utf-8"?>
<!-- Generator: Adobe Illustrator 22.0.1, SVG Export Plug-In . SVG Version: 6.00 Build 0)  -->
<svg version="1.1" id="Capa_1" xmlns="http://www.w3.org/2000/svg" xmlns:xlink="http://www.w3.org/1999/xlink" x="0px" y="0px"
	 viewBox="0 0 41.3 30.3" style="enable-background:new 0 0 41.3 30.3;" xml:space="preserve">
<style type="text/css">
	.st0{fill-rule:evenodd;clip-rule:evenodd;fill:#FFFFFF;}
	.st1{opacity:0.69;fill:#C12A21;}
	.st2{fill:#FFFFFF;}
</style>
<path class="st0" d="M37.9,24.8l-10.5-8l-6.5,4.9c-0.1,0.1-0.3,0.1-0.5,0l-6.5-4.9l-10.5,8c0.1,0.3,0.2,0.7,0.5,0.9h0
	C4.1,26,4.6,26.2,5,26.2h31.3c0.4,0,0.9-0.2,1.1-0.5C37.7,25.4,37.9,25.1,37.9,24.8L37.9,24.8z M27.2,16l-6.5,4.9L14.2,16l0,0
	L3.4,7.8v-2c0-0.4,0.2-0.9,0.5-1.2C4.1,4.4,4.6,4.2,5,4.2h31.3c0.4,0,0.9,0.2,1.1,0.5l0,0C37.8,4.9,38,5.4,38,5.8v2L27.2,16L27.2,16
	L27.2,16z M28.1,16.3L38,8.8v14.9L28.1,16.3L28.1,16.3z M3.4,8.8l9.9,7.5l-9.9,7.5V8.8L3.4,8.8z M5,3.4h31.3c0.7,0,1.3,0.3,1.7,0.7
	l0,0c0.4,0.4,0.7,1.1,0.7,1.7v18.7c0,0.7-0.3,1.3-0.7,1.7C37.6,26.7,37,27,36.3,27H5c-0.7,0-1.3-0.3-1.7-0.7l0,0h0l0,0
	c-0.4-0.4-0.7-1.1-0.7-1.7V5.8c0-0.7,0.3-1.3,0.7-1.7C3.7,3.6,4.3,3.4,5,3.4z"/>
</svg>
