<svg id="Capa_1" data-name="Capa 1" xmlns="http://www.w3.org/2000/svg" viewBox="0 0 100 100"><defs><style>.cls-1{fill:#fff;}</style></defs><title>iconos-cableado-estr</title><path class="cls-1" d="M97.71,37.39a.52.52,0,0,0-.39-.17H83.83V34.76a.55.55,0,0,0-.16-.39.52.52,0,0,0-.39-.17H60.17a.56.56,0,0,0-.55.56v4.06L48.3,39.93a.56.56,0,0,0-.5.56V46H2.68a.55.55,0,0,0-.55.55v6.9a.55.55,0,0,0,.55.55H47.8v5.51a.56.56,0,0,0,.5.56l11.32,1.11v4.06a.56.56,0,0,0,.55.56H83.28a.56.56,0,0,0,.55-.56V62.78H97.32a.55.55,0,0,0,.55-.56V37.78A.52.52,0,0,0,97.71,37.39ZM83.83,56h3.38a.55.55,0,0,0,.55-.55V51.41a.56.56,0,0,0-.56-.56H83.83v-1.7h3.38a.56.56,0,0,0,.56-.56V44.52a.55.55,0,0,0-.55-.56H83.83V42.7H92.4V57.3H83.83Z"/></svg>