<svg id="Capa_1" data-name="Capa 1" xmlns="http://www.w3.org/2000/svg" viewBox="0 0 100 100"><defs><style>.cls-1{fill:#fff;}</style></defs><title>iconos-cableado-estr</title><rect class="cls-1" x="24.25" y="70.63" width="51.5" height="9.35"/><rect class="cls-1" x="24.25" y="81.52" width="51.5" height="9.35"/><path class="cls-1" d="M24.25,45.25v23.5h51.5V45.25Zm9.88,8H28.88v-3.5h5.25Z"/><rect class="cls-1" x="10.78" y="16.83" width="13.25" height="2.41"/><rect class="cls-1" x="10.78" y="19.63" width="13.25" height="2.41"/><path class="cls-1" d="M10.78,10.3v6H24v-6Zm2.54,2.06H12v-.9h1.35Z"/><rect class="cls-1" x="43.38" y="16.83" width="13.25" height="2.41"/><rect class="cls-1" x="43.38" y="19.63" width="13.25" height="2.41"/><path class="cls-1" d="M43.38,10.3v6H56.63v-6Zm2.54,2.06H44.56v-.9h1.36Z"/><rect class="cls-1" x="72.79" y="16.83" width="13.25" height="2.41"/><rect class="cls-1" x="72.79" y="19.63" width="13.25" height="2.41"/><path class="cls-1" d="M72.79,10.3v6H86v-6Zm2.54,2.06H74v-.9h1.35Z"/><polygon class="cls-1" points="26.79 65.17 15.25 65.17 15.25 20.83 17.25 20.83 17.25 63.17 26.79 63.17 26.79 65.17"/><polygon class="cls-1" points="82.02 65.17 70.48 65.17 70.48 63.17 80.02 63.17 80.02 20.83 82.02 20.83 82.02 65.17"/><rect class="cls-1" x="49" y="20.83" width="2" height="28.95"/></svg>