<svg id="Capa_1" data-name="Capa 1" xmlns="http://www.w3.org/2000/svg" viewBox="0 0 100 100"><defs><style>.cls-1{fill:#fff;}</style></defs><title>iconos-cableado-estr</title><path class="cls-1" d="M50.39,58.07a1.67,1.67,0,0,1-1.22-.53L10.79,16.12A1.66,1.66,0,0,1,12,13.33H88.77A1.66,1.66,0,0,1,90,16.12L51.6,57.54A1.63,1.63,0,0,1,50.39,58.07ZM15.8,16.65,50.39,54,85,16.65Z"/><path class="cls-1" d="M50.39,58.9a2.46,2.46,0,0,1-1.82-.8L10.18,16.68A2.49,2.49,0,0,1,12,12.51H88.77a2.48,2.48,0,0,1,1.82,4.17L52.21,58.1A2.48,2.48,0,0,1,50.39,58.9ZM12,14.16a.83.83,0,0,0-.61,1.39L49.78,57A.86.86,0,0,0,51,57L89.38,15.55a.83.83,0,0,0-.61-1.39Zm38.38,41L13.9,15.82h73ZM17.7,17.48,50.39,52.75,83.08,17.48Z"/><circle class="cls-1" cx="14.08" cy="15.96" r="4.83"/><path class="cls-1" d="M14.08,21.62A5.66,5.66,0,1,1,19.74,16,5.67,5.67,0,0,1,14.08,21.62Zm0-9.67a4,4,0,1,0,4,4A4,4,0,0,0,14.08,12Z"/><circle class="cls-1" cx="87.73" cy="15.96" r="4.83"/><path class="cls-1" d="M87.73,21.62A5.66,5.66,0,1,1,93.39,16,5.67,5.67,0,0,1,87.73,21.62Zm0-9.67a4,4,0,1,0,4,4A4,4,0,0,0,87.73,12Z"/><circle class="cls-1" cx="50.39" cy="55.31" r="4.83"/><path class="cls-1" d="M50.39,61a5.66,5.66,0,1,1,5.66-5.66A5.67,5.67,0,0,1,50.39,61Zm0-9.67a4,4,0,1,0,4,4A4,4,0,0,0,50.39,51.3Z"/><path class="cls-1" d="M13,49.92a1.65,1.65,0,0,1-1.65-1.66V18.44a1.66,1.66,0,0,1,3.31,0V48.26A1.66,1.66,0,0,1,13,49.92Z"/><path class="cls-1" d="M13,50.75a2.49,2.49,0,0,1-2.48-2.49V18.44a2.49,2.49,0,0,1,5,0V48.26A2.5,2.5,0,0,1,13,50.75Zm0-33.14a.84.84,0,0,0-.83.83V48.26a.83.83,0,1,0,1.66,0V18.44A.83.83,0,0,0,13,17.61Z"/><path class="cls-1" d="M87.73,49.92a1.65,1.65,0,0,1-1.65-1.66V18.44a1.66,1.66,0,0,1,3.31,0V48.26A1.66,1.66,0,0,1,87.73,49.92Z"/><path class="cls-1" d="M87.73,50.75a2.49,2.49,0,0,1-2.48-2.49V18.44a2.49,2.49,0,0,1,5,0V48.26A2.5,2.5,0,0,1,87.73,50.75Zm0-33.14a.83.83,0,0,0-.82.83V48.26a.83.83,0,1,0,1.65,0V18.44A.83.83,0,0,0,87.73,17.61Z"/><path class="cls-1" d="M50.39,91.62A1.66,1.66,0,0,1,48.73,90V60.14a1.66,1.66,0,1,1,3.31,0V90A1.65,1.65,0,0,1,50.39,91.62Z"/><path class="cls-1" d="M50.39,92.45A2.5,2.5,0,0,1,47.9,90V60.14a2.49,2.49,0,1,1,5,0V90A2.49,2.49,0,0,1,50.39,92.45Zm0-33.14a.83.83,0,0,0-.83.83V90a.83.83,0,1,0,1.66,0V60.14A.83.83,0,0,0,50.39,59.31Z"/></svg>