<?xml version="1.0" encoding="utf-8"?>
<!-- Generator: Adobe Illustrator 22.0.1, SVG Export Plug-In . SVG Version: 6.00 Build 0)  -->
<svg version="1.1" id="Capa_1" xmlns="http://www.w3.org/2000/svg" xmlns:xlink="http://www.w3.org/1999/xlink" x="0px" y="0px"
	 viewBox="0 0 112 90" style="enable-background:new 0 0 112 90;" xml:space="preserve">
<style type="text/css">
	.st0{fill:#263238;stroke:#263238;stroke-linecap:round;stroke-linejoin:round;stroke-miterlimit:10;}
	.st1{fill:#263238;}
</style>
<g>
	<path class="st0" d="M63.9,14.4c0-3.8-3.1-6.9-6.9-6.9s-6.9,3.1-6.9,6.9c0,2.6,1.4,4.8,3.4,6v62.1h7V20.4
		C62.6,19.2,63.9,17,63.9,14.4z M57,19.2c-2.6,0-4.7-2.1-4.7-4.7s2.1-4.7,4.7-4.7s4.7,2.1,4.7,4.7S59.6,19.2,57,19.2z"/>
	<path class="st0" d="M42.9,33.4c0-3.8-3.1-6.9-6.9-6.9s-6.9,3.1-6.9,6.9c0,2.6,1.4,4.8,3.4,6v43.1h7V39.4
		C41.6,38.2,42.9,36,42.9,33.4z M36,38.2c-2.6,0-4.7-2.1-4.7-4.7s2.1-4.7,4.7-4.7s4.7,2.1,4.7,4.7S38.6,38.2,36,38.2z"/>
	<path class="st0" d="M82.9,33.4c0-3.8-3.1-6.9-6.9-6.9s-6.9,3.1-6.9,6.9c0,2.6,1.4,4.8,3.4,6v43.1h7V39.4
		C81.6,38.2,82.9,36,82.9,33.4z M76,38.2c-2.6,0-4.7-2.1-4.7-4.7s2.1-4.7,4.7-4.7s4.7,2.1,4.7,4.7S78.6,38.2,76,38.2z"/>
</g>
</svg>
