<?xml version="1.0" encoding="utf-8"?>
<!-- Generator: Adobe Illustrator 22.0.1, SVG Export Plug-In . SVG Version: 6.00 Build 0)  -->
<svg version="1.1" id="Capa_1" xmlns="http://www.w3.org/2000/svg" xmlns:xlink="http://www.w3.org/1999/xlink" x="0px" y="0px"
	 viewBox="0 0 112 90" style="enable-background:new 0 0 112 90;" xml:space="preserve">
<style type="text/css">
	.st0{fill:#263238;stroke:#263238;stroke-linecap:round;stroke-linejoin:round;stroke-miterlimit:10;}
	.st1{fill:#263238;}
</style>
<g>
	<g>
		<path class="st1" d="M56.5,23.1c14.2,0.1,23-0.7,24.2,14.9h17.3c0-24.3-21.2-27.6-41.9-27.6c-20.7,0-41.9,3.3-41.9,27.6h17.1
			C32.5,22,42.4,22.9,56.5,23.1z"/>
		<path class="st1" d="M22.6,45.8c4.2,0,7.7,0.3,8.5-3.9c0.1-0.6,0.2-1.2,0.2-1.9h-0.2H14C14,46.1,17.9,45.8,22.6,45.8z"/>
		<path class="st1" d="M80.8,40h-0.2c0,0.7,0.1,1.4,0.2,1.9c0.8,3.8,4.3,3.6,8.5,3.6c4.8,0,8.7,0.3,8.7-5.5C98,40,80.8,40,80.8,40z"
			/>
		<path class="st1" d="M72.4,35.8v-2.4c0-1.1-1.3-1.2-2.8-1.2H67c-1.6,0-2.8,0.1-2.8,1.2v2.1v1.6h-18v-1.6v-2.1
			c0-1.1-1.3-1.2-2.8-1.2h-2.5c-1.6,0-2.8,0.1-2.8,1.2v2.4v2.1c-4.1,4.3-17.5,22.4-18,24.6l0,14.6c0,1.4,1.1,2.5,2.5,2.5h65.4
			c1.4,0,2.5-1.1,2.5-2.5V62.4c-0.5-2.1-13.9-20.2-18-24.5V35.8z M45.3,64.5c-1.3,0-2.4-1.1-2.4-2.4c0-1.3,1.1-2.4,2.4-2.4
			c1.3,0,2.4,1.1,2.4,2.4C47.7,63.4,46.6,64.5,45.3,64.5z M45.3,56.3c-1.3,0-2.4-1.1-2.4-2.4c0-1.3,1.1-2.4,2.4-2.4
			c1.3,0,2.4,1.1,2.4,2.4C47.7,55.2,46.6,56.3,45.3,56.3z M45.3,48.1c-1.3,0-2.4-1.1-2.4-2.4c0-1.3,1.1-2.4,2.4-2.4
			c1.3,0,2.4,1.1,2.4,2.4C47.7,47.1,46.6,48.1,45.3,48.1z M55.1,64.5c-1.3,0-2.4-1.1-2.4-2.4c0-1.3,1.1-2.4,2.4-2.4
			c1.3,0,2.4,1.1,2.4,2.4C57.5,63.4,56.5,64.5,55.1,64.5z M55.1,56.3c-1.3,0-2.4-1.1-2.4-2.4c0-1.3,1.1-2.4,2.4-2.4
			c1.3,0,2.4,1.1,2.4,2.4C57.5,55.2,56.5,56.3,55.1,56.3z M55.1,48.1c-1.3,0-2.4-1.1-2.4-2.4c0-1.3,1.1-2.4,2.4-2.4
			c1.3,0,2.4,1.1,2.4,2.4C57.5,47.1,56.5,48.1,55.1,48.1z M64.9,64.5c-1.3,0-2.4-1.1-2.4-2.4c0-1.3,1.1-2.4,2.4-2.4
			c1.3,0,2.4,1.1,2.4,2.4C67.3,63.4,66.3,64.5,64.9,64.5z M64.9,56.3c-1.3,0-2.4-1.1-2.4-2.4c0-1.3,1.1-2.4,2.4-2.4
			c1.3,0,2.4,1.1,2.4,2.4C67.3,55.2,66.3,56.3,64.9,56.3z M64.9,48.1c-1.3,0-2.4-1.1-2.4-2.4c0-1.3,1.1-2.4,2.4-2.4
			c1.3,0,2.4,1.1,2.4,2.4C67.3,47.1,66.3,48.1,64.9,48.1z"/>
	</g>
</g>
</svg>
