<?xml version="1.0" encoding="utf-8"?>
<!-- Generator: Adobe Illustrator 22.0.1, SVG Export Plug-In . SVG Version: 6.00 Build 0)  -->
<svg version="1.1" id="Capa_1" xmlns="http://www.w3.org/2000/svg" xmlns:xlink="http://www.w3.org/1999/xlink" x="0px" y="0px"
	 viewBox="0 0 112 90" style="enable-background:new 0 0 112 90;" xml:space="preserve">
<style type="text/css">
	.st0{fill:#263238;stroke:#263238;stroke-linecap:round;stroke-linejoin:round;stroke-miterlimit:10;}
	.st1{fill:#263238;}
</style>
<g>
	<path class="st1" d="M79.5,37.2L79.4,37l10.9-10.9c0.8-0.8,0.8-2.2,0-3L77.9,10.6c-0.8-0.8-2.2-0.8-3,0L64,21.6l-0.1-0.1
		c-0.8-0.8-2.2-0.8-3,0L46.2,36.1c-2.9,2.9-3.3,7.4-1.2,10.8l-0.5,0.8l-3.7,3.7c-0.8,0.8-0.8,2.2,0,3l1.4,1.4L21,77l3,3l21.2-21.2
		l1.4,1.4c0.8,0.8,2.2,0.8,3,0l4.3-4.3c3.4,2.3,8,2,11-1l14.7-14.7C80.4,39.3,80.4,38,79.5,37.2z M76.4,15.1l9.4,9.4L76.4,34
		L67,24.6L76.4,15.1z"/>
	<rect x="75.2" y="18.3" transform="matrix(0.7071 -0.7071 0.7071 0.7071 8.2353 60.2056)" class="st1" width="3.2" height="3.7"/>
	<rect x="79.2" y="22.3" transform="matrix(0.7071 -0.7071 0.7071 0.7071 6.5593 64.2519)" class="st1" width="3.2" height="3.7"/>
	<rect x="72" y="21.5" transform="matrix(0.7071 -0.7071 0.7071 0.7071 5.0338 58.8795)" class="st1" width="3.2" height="3.7"/>
	<rect x="76" y="25.5" transform="matrix(0.7071 -0.7071 0.7071 0.7071 3.3577 62.9258)" class="st1" width="3.2" height="3.7"/>
</g>
</svg>
