<?xml version="1.0" encoding="utf-8"?>
<!-- Generator: Adobe Illustrator 22.0.1, SVG Export Plug-In . SVG Version: 6.00 Build 0)  -->
<svg version="1.1" id="Capa_1" xmlns="http://www.w3.org/2000/svg" xmlns:xlink="http://www.w3.org/1999/xlink" x="0px" y="0px"
	 viewBox="0 0 112 90" style="enable-background:new 0 0 112 90;" xml:space="preserve">
<style type="text/css">
	.st0{fill:#263238;stroke:#263238;stroke-linecap:round;stroke-linejoin:round;stroke-miterlimit:10;}
	.st1{fill:#263238;}
</style>
<g>
	<path class="st0" d="M57.5,66.4l0-7l-2.8,0l0,6.9c-4,0.6-7.1,4.1-7.1,8.2c0,4.6,3.7,8.4,8.3,8.4s8.4-3.7,8.4-8.3
		C64.3,70.5,61.4,67.1,57.5,66.4z M55.9,80.2c-3.1,0-5.6-2.5-5.6-5.6c0-3.1,2.5-5.6,5.6-5.6c3.1,0,5.6,2.5,5.6,5.6
		C61.5,77.7,59,80.2,55.9,80.2z"/>
	<path class="st0" d="M85.6,36.7c-4.2,0-7.7,3.1-8.3,7.2l-6.8,0c-0.2-2.6-1-5-2.4-7.1l3.2-3.2c0.8,0.4,1.7,0.7,2.6,0.7
		c1.4,0,2.7-0.5,3.8-1.6c2.1-2.1,2.1-5.5,0-7.6c-1-1-2.4-1.6-3.8-1.6c-1.4,0-2.7,0.5-3.8,1.6c-1.8,1.8-2.1,4.5-0.8,6.6l-2.9,2.9
		c-2.3-2.4-5.4-3.9-8.9-4.3l0-6.7c3.9-0.7,6.8-4.1,6.8-8.2c0-4.6-3.7-8.4-8.3-8.4c-4.6,0-8.4,3.7-8.4,8.3c0,4.2,3.1,7.7,7.2,8.3
		l0,6.6c-3.5,0.3-6.6,1.7-8.9,4L42.7,31c1.1-2,0.8-4.6-0.9-6.4c-1-1-2.4-1.6-3.8-1.6c-1.4,0-2.7,0.5-3.8,1.6c-2.1,2.1-2.1,5.5,0,7.6
		c1,1,2.4,1.6,3.8,1.6c1,0,1.9-0.3,2.8-0.8l3.3,3.3c-1.5,2.1-2.5,4.6-2.7,7.4l-6.8,0c-0.6-4-4.1-7.1-8.2-7.1c-4.6,0-8.4,3.7-8.4,8.3
		s3.7,8.4,8.3,8.4c4.1,0,7.5-2.9,8.2-6.8l6.9,0c0.4,3.4,1.9,6.4,4.2,8.7l-2.6,2.6c-0.8-0.5-1.8-0.8-2.8-0.8c-1.4,0-2.7,0.5-3.8,1.6
		c-2.1,2.1-2.1,5.5,0,7.6c1,1,2.4,1.6,3.8,1.6c1.4,0,2.7-0.5,3.8-1.6c1.7-1.7,2-4.4,0.9-6.4l2.8-2.8c2.3,1.6,5.1,2.5,8.1,2.5
		c3.1,0,6-1,8.4-2.7l2.3,2.3c-1.2,2.1-1,4.8,0.8,6.6c1,1,2.4,1.6,3.8,1.6s2.7-0.5,3.8-1.6c2.1-2.1,2.1-5.5,0-7.6
		c-1-1-2.4-1.6-3.8-1.6c-0.9,0-1.8,0.2-2.6,0.7L66.5,55c2.2-2.2,3.6-5.1,4-8.4l6.9,0c0.7,3.9,4.1,6.8,8.2,6.8c4.6,0,8.4-3.7,8.4-8.3
		S90.2,36.7,85.6,36.7z M72.1,27c0.5-0.5,1.1-0.8,1.8-0.8c0.7,0,1.4,0.3,1.8,0.8c1,1,1,2.7,0,3.7c-0.5,0.5-1.1,0.8-1.8,0.8
		c-0.7,0-1.4-0.3-1.8-0.8C71.1,29.7,71.1,28,72.1,27z M26.4,50.5c-3.1,0-5.6-2.5-5.6-5.6s2.5-5.6,5.6-5.6S32,41.9,32,45
		S29.5,50.6,26.4,50.5z M42.2,64.2c-0.5,0.5-1.1,0.8-1.8,0.8c-0.7,0-1.4-0.3-1.8-0.8s-0.8-1.1-0.8-1.8c0-0.7,0.3-1.3,0.8-1.8
		c0.5-0.5,1.1-0.8,1.8-0.8c0.7,0,1.4,0.3,1.8,0.8c0.5,0.5,0.8,1.1,0.8,1.8C43,63.1,42.7,63.7,42.2,64.2z M50.5,15.4
		c0-3.1,2.5-5.6,5.6-5.6c3.1,0,5.6,2.5,5.6,5.6S59.1,21,56,21C53,21,50.4,18.5,50.5,15.4z M39.8,30.3C39.3,30.8,38.7,31,38,31
		s-1.4-0.3-1.8-0.8c-1-1-1-2.7,0-3.7c0.5-0.5,1.1-0.8,1.8-0.8c0.7,0,1.4,0.3,1.8,0.8C40.8,27.6,40.8,29.3,39.8,30.3z M73.1,60
		c0.5,0.5,0.8,1.1,0.8,1.8c0,0.7-0.3,1.3-0.8,1.8c-0.5,0.5-1.1,0.8-1.8,0.8c-0.7,0-1.4-0.3-1.8-0.8c-0.5-0.5-0.8-1.1-0.8-1.8
		c0-0.7,0.3-1.3,0.8-1.8s1.1-0.8,1.8-0.8S72.6,59.5,73.1,60z M56,56.7c-6.5,0-11.9-5.3-11.8-11.9c0-6.5,5.3-11.9,11.9-11.8
		s11.9,5.3,11.8,11.9C67.9,51.4,62.5,56.7,56,56.7z M85.6,50.6c-3.1,0-5.6-2.5-5.6-5.6c0-3.1,2.5-5.6,5.6-5.6c3.1,0,5.6,2.5,5.6,5.6
		S88.7,50.7,85.6,50.6z"/>
</g>
</svg>
