<?xml version="1.0" encoding="utf-8"?>
<!-- Generator: Adobe Illustrator 22.0.1, SVG Export Plug-In . SVG Version: 6.00 Build 0)  -->
<svg version="1.1" id="Capa_1" xmlns="http://www.w3.org/2000/svg" xmlns:xlink="http://www.w3.org/1999/xlink" x="0px" y="0px"
	 viewBox="0 0 112 90" style="enable-background:new 0 0 112 90;" xml:space="preserve">
<style type="text/css">
	.st0{fill:#263238;stroke:#263238;stroke-linecap:round;stroke-linejoin:round;stroke-miterlimit:10;}
	.st1{fill:#263238;}
</style>
<g>
	<g>
		<path class="st1" d="M42.6,76.3c0,0,6.1,0,6.1-5.1V18.8c0-5.1-6.1-5.1-6.1-5.1h-10c0,0-6.1,0-6.1,5.1v52.5c0,5.1,6.1,5.1,6.1,5.1
			H42.6z"/>
		<path class="st1" d="M19.2,72.6h3.7V17.4h-3.7c0,0-4.1,0-3.6,27.6C16,72.6,19.2,72.6,19.2,72.6z"/>
		<path class="st1" d="M96.5,45c0-27.6-4.6-27.6-4.6-27.6H52.3v55.2h39.6C91.9,72.6,96.5,72.6,96.5,45z M59.7,65.2
			c-2,0-3.7-1.6-3.7-3.7c0-2,1.6-3.7,3.7-3.7c2,0,3.7,1.6,3.7,3.7C63.4,63.6,61.7,65.2,59.7,65.2z M59.7,54.2c-2,0-3.7-1.6-3.7-3.7
			c0-2,1.6-3.7,3.7-3.7c2,0,3.7,1.6,3.7,3.7C63.4,52.6,61.7,54.2,59.7,54.2z M59.7,43.2c-2,0-3.7-1.6-3.7-3.7c0-2,1.6-3.7,3.7-3.7
			c2,0,3.7,1.6,3.7,3.7C63.4,41.5,61.7,43.2,59.7,43.2z M70.7,65.2c-2,0-3.7-1.6-3.7-3.7c0-2,1.6-3.7,3.7-3.7c2,0,3.7,1.6,3.7,3.7
			C74.4,63.6,72.8,65.2,70.7,65.2z M70.7,54.2c-2,0-3.7-1.6-3.7-3.7c0-2,1.6-3.7,3.7-3.7c2,0,3.7,1.6,3.7,3.7
			C74.4,52.6,72.8,54.2,70.7,54.2z M70.7,43.2c-2,0-3.7-1.6-3.7-3.7c0-2,1.6-3.7,3.7-3.7c2,0,3.7,1.6,3.7,3.7
			C74.4,41.5,72.8,43.2,70.7,43.2z M81.8,65.2c-2,0-3.7-1.6-3.7-3.7c0-2,1.6-3.7,3.7-3.7c2,0,3.7,1.6,3.7,3.7
			C85.5,63.6,83.8,65.2,81.8,65.2z M81.8,54.2c-2,0-3.7-1.6-3.7-3.7c0-2,1.6-3.7,3.7-3.7c2,0,3.7,1.6,3.7,3.7
			C85.5,52.6,83.8,54.2,81.8,54.2z M81.8,43.2c-2,0-3.7-1.6-3.7-3.7c0-2,1.6-3.7,3.7-3.7c2,0,3.7,1.6,3.7,3.7
			C85.5,41.5,83.8,43.2,81.8,43.2z M85.5,31.5c0,0.3-0.3,0.6-0.6,0.6H56.6c-0.3,0-0.6-0.3-0.6-0.6v-6.2c0-0.3,0.3-0.6,0.6-0.6h28.2
			c0.3,0,0.6,0.3,0.6,0.6V31.5z"/>
	</g>
</g>
</svg>
