<svg id="Capa_1" data-name="Capa 1" xmlns="http://www.w3.org/2000/svg" viewBox="0 0 100 100"><defs><style>.cls-1{fill:#fff;}</style></defs><title>iconos-cableado-estr</title><path class="cls-1" d="M37.39,2.29a.52.52,0,0,0-.17.39V16.17H34.76a.55.55,0,0,0-.39.16.52.52,0,0,0-.17.39V39.83a.56.56,0,0,0,.56.55h4.06L39.93,51.7a.56.56,0,0,0,.56.5H46V97.32a.56.56,0,0,0,.55.56h6.9a.56.56,0,0,0,.55-.56V52.2h5.51a.56.56,0,0,0,.56-.5l1.11-11.32h4.06a.56.56,0,0,0,.56-.55V16.72a.56.56,0,0,0-.56-.55H62.78V2.68a.55.55,0,0,0-.56-.55H37.78A.51.51,0,0,0,37.39,2.29ZM56,16.17V12.79a.55.55,0,0,0-.55-.55H51.41a.56.56,0,0,0-.56.56v3.38h-1.7V12.79a.56.56,0,0,0-.56-.56H44.52a.55.55,0,0,0-.56.55v3.38H42.7V7.6H57.3v8.57Z"/></svg>