<?xml version="1.0" encoding="utf-8"?>
<!-- Generator: Adobe Illustrator 22.1.0, SVG Export Plug-In . SVG Version: 6.00 Build 0)  -->
<svg version="1.1" id="Layer_1" xmlns="http://www.w3.org/2000/svg" xmlns:xlink="http://www.w3.org/1999/xlink" x="0px" y="0px"
	 viewBox="0 0 94.8 94" style="enable-background:new 0 0 94.8 94;" xml:space="preserve">
<style type="text/css">
	.st0{fill:#1181B8;}
</style>
<g>
	<path class="st0" d="M76.3,9.4H32.8c-2.7,0-4.9,2.2-4.9,4.9v9.8c-8.4,2.5-14.3,10.4-14.3,19.2s5.9,16.7,14.3,19.2v17.1
		c0,2.7,2.2,4.9,4.9,4.9h35.5c0.5,0,1-0.2,1.4-0.6l10.9-10.9c0.4-0.4,0.6-0.9,0.6-1.4V14.3C81.2,11.6,79,9.4,76.3,9.4z M31.9,18.7
		v-4.4c0-0.5,0.4-1,1-1h43.5c0.5,0,1,0.4,1,1v4.4H31.9z M33.7,59.5c-8.9,0-16.2-7.3-16.2-16.2c0-8.9,7.3-16.2,16.2-16.2
		s16.2,7.3,16.2,16.2C49.9,52.3,42.6,59.5,33.7,59.5z M31.9,63.4c0.6,0.1,1.3,0.1,1.9,0.1c5.7,0,11.2-2.5,15-6.8h9.6
		c1.1,0,2-0.9,2-2s-0.9-2-2-2h-6.8c1.2-2.3,2-4.7,2.2-7.3h4.6c1.1,0,2-0.9,2-2s-0.9-2-2-2h-4.6c-0.2-2.6-0.9-5-2.1-7.3h6.7
		c1.1,0,2-0.9,2-2s-0.9-2-2-2H49c-4.2-4.9-10.5-7.5-17.1-6.9v-0.7h45.4v47.1h-6c-2.7,0-4.9,2.2-4.9,4.9v6H32.8c-0.5,0-1-0.4-1-1
		V63.4z M70.3,74.7c0-0.5,0.4-1,1-1h3.2l-4.2,4.2V74.7z"/>
	<path class="st0" d="M64.6,34.2h5.3c1.1,0,2-0.9,2-2s-0.9-2-2-2h-5.3c-1.1,0-2,0.9-2,2S63.5,34.2,64.6,34.2z"/>
	<path class="st0" d="M64.6,45.5h5.3c1.1,0,2-0.9,2-2s-0.9-2-2-2h-5.3c-1.1,0-2,0.9-2,2S63.5,45.5,64.6,45.5z"/>
	<path class="st0" d="M64.6,56.7h5.3c1.1,0,2-0.9,2-2s-0.9-2-2-2h-5.3c-1.1,0-2,0.9-2,2S63.5,56.7,64.6,56.7z"/>
	<path class="st0" d="M55,67.9h14.9c1.1,0,2-0.9,2-2s-0.9-2-2-2H55c-1.1,0-2,0.9-2,2S53.9,67.9,55,67.9z"/>
	<path class="st0" d="M46.3,35.1l-1.9-1.9c-1.2-1.2-3.3-1.2-4.4,0L30,43.1l-2.5-2.5c-1.2-1.2-3.3-1.2-4.4,0l-1.9,1.9
		c-1.2,1.2-1.2,3.2,0,4.4l6.7,6.7c0.6,0.6,1.4,0.9,2.2,0.9c0.8,0,1.6-0.3,2.2-0.9l14.1-14.1C47.5,38.3,47.5,36.3,46.3,35.1z
		 M43,37.3L30,50.3l-5.6-5.6l0.8-0.8l3.4,3.4c0.8,0.8,2,0.8,2.8,0l10.7-10.7L43,37.3z"/>
</g>
</svg>
