<?xml version="1.0" encoding="utf-8"?>
<!-- Generator: Adobe Illustrator 22.1.0, SVG Export Plug-In . SVG Version: 6.00 Build 0)  -->
<svg version="1.1" id="Layer_1" xmlns="http://www.w3.org/2000/svg" xmlns:xlink="http://www.w3.org/1999/xlink" x="0px" y="0px"
	 viewBox="0 0 92.2 94" style="enable-background:new 0 0 92.2 94;" xml:space="preserve">
<style type="text/css">
	.st0{fill:#1181B8;}
</style>
<g>
	<path class="st0" d="M83.4,29.9L67.7,14.2c-1.1-1.1-2.5-1.7-4-1.7s-2.9,0.6-4,1.7L56,17.9c-0.5,0.5-0.9,1.1-1.2,1.8l-17-3
		c-8-1.6-15.7,3.6-17.3,11.6l-0.8,3.9c-0.4,2.2,0,4.5,1.2,6.3s3.2,3.2,5.4,3.6c4.6,0.9,9-2,9.9-6.6l0.4-2.1L44,34l23.8,23.8
		c0.6,0.6,0.6,1.6,0,2.2c-0.6,0.6-1.6,0.6-2.2,0l-9.8-9.8c-0.8-0.8-2.2-0.8-3,0c-0.8,0.8-0.8,2.2,0,3l9.8,9.8
		c0.3,0.3,0.4,0.7,0.4,1.1c0,0.4-0.2,0.8-0.4,1.1c-0.6,0.6-1.6,0.6-2.2,0l-9.8-9.8c-0.8-0.8-2.2-0.8-3,0c-0.8,0.8-0.8,2.2,0,3
		l9.8,9.8c0.3,0.3,0.4,0.7,0.4,1.1s-0.2,0.8-0.4,1.1c-0.6,0.6-1.6,0.6-2.2,0l-9.8-9.8c-0.8-0.8-2.2-0.8-3,0
		c-0.4,0.4-0.6,0.9-0.6,1.5c0,0.6,0.2,1.1,0.6,1.5l9.8,9.8c0.6,0.6,0.6,1.6,0,2.2c-0.3,0.3-0.7,0.4-1.1,0.4c-0.4,0-0.8-0.2-1.1-0.4
		L10.8,36.2c-0.8-0.8-2.2-0.8-3,0c-0.4,0.4-0.6,0.9-0.6,1.5c0,0.6,0.2,1.1,0.6,1.5l9.3,9.3L14.6,51c-1,1-1.5,2.3-1.5,3.6
		s0.5,2.7,1.5,3.6l0.9,0.9c0.8,0.8,1.8,1.3,2.8,1.4c0.2,1.1,0.7,2,1.4,2.8l0.9,0.9c0.8,0.8,1.8,1.3,2.8,1.4c0.2,1.1,0.7,2,1.4,2.8
		l0.9,0.9c0.8,0.8,1.8,1.3,2.8,1.4c0.2,1.1,0.7,2,1.4,2.8l0.9,0.9c1,1,2.3,1.5,3.6,1.5s2.7-0.5,3.6-1.5l2.5-2.5l6.3,6.3
		c1.1,1.1,2.5,1.7,4.1,1.7s3-0.6,4.1-1.7c0.9-0.9,1.5-2.2,1.7-3.5c1.3-0.1,2.6-0.7,3.5-1.7c0.9-0.9,1.5-2.2,1.7-3.5
		c1.3-0.1,2.6-0.7,3.5-1.7c0.9-0.9,1.5-2.2,1.7-3.5c1.3-0.1,2.6-0.7,3.5-1.7c2.3-2.3,2.3-5.9,0-8.2l-2.2-2.2l14.8-14.8
		C85.6,35.7,85.6,32.1,83.4,29.9z M80.8,33.9c0,0.4-0.1,0.7-0.4,1c0,0,0,0,0,0l-4.7,4.7L59,22.8c-0.3-0.3-0.4-0.6-0.4-1
		c0-0.4,0.1-0.7,0.4-1l3.7-3.7c0.3-0.3,0.6-0.4,1-0.4c0.4,0,0.7,0.1,1,0.4l15.7,15.7C80.6,33.2,80.8,33.5,80.8,33.9z M27.2,37.9
		c-1.1-0.2-2-0.9-2.7-1.8c-0.6-0.9-0.8-2.1-0.6-3.1l0.8-3.9c0.6-2.7,2.1-5.1,4.5-6.7c2.3-1.6,5.1-2.1,7.9-1.5l16.9,3l18.7,18.7
		l-7.1,7.1L46.4,30.5c-0.4-0.4-0.8-0.6-1.3-0.6L35.2,29c-0.1,0-0.1,0-0.2,0c-1,0-1.9,0.7-2.1,1.7l-0.8,3.9
		C31.7,36.9,29.5,38.4,27.2,37.9z M37.6,69.3l-2.3,2.3c-0.3,0.3-0.9,0.3-1.3,0l-0.9-0.9c-0.3-0.3-0.3-0.9,0-1.3l2.3-2.3L37.6,69.3z
		 M32.4,64.1l-2.3,2.3c-0.3,0.3-0.9,0.3-1.3,0L28,65.5c-0.2-0.2-0.3-0.4-0.3-0.6s0.1-0.5,0.3-0.6l2.3-2.3L32.4,64.1z M27.3,59
		l-2.3,2.3c-0.3,0.3-0.9,0.3-1.3,0l-0.9-0.9c-0.2-0.2-0.3-0.4-0.3-0.6c0-0.2,0.1-0.5,0.3-0.6l2.3-2.3L27.3,59z M22.1,53.8l-2.3,2.3
		c-0.2,0.2-0.4,0.3-0.6,0.3c0,0,0,0,0,0c-0.2,0-0.5-0.1-0.6-0.3l-0.9-0.9c-0.2-0.2-0.3-0.4-0.3-0.6c0-0.2,0.1-0.5,0.3-0.6l2.3-2.3
		L22.1,53.8z"/>
	<path class="st0" d="M76.4,32.4c-1.2,0-2.1,1-2.1,2.1c0,1.2,1,2.1,2.1,2.1s2.1-1,2.1-2.1C78.5,33.4,77.6,32.4,76.4,32.4z"/>
</g>
</svg>
