<?xml version="1.0" encoding="utf-8"?>
<!-- Generator: Adobe Illustrator 22.1.0, SVG Export Plug-In . SVG Version: 6.00 Build 0)  -->
<svg version="1.1" id="Layer_1" xmlns="http://www.w3.org/2000/svg" xmlns:xlink="http://www.w3.org/1999/xlink" x="0px" y="0px"
	 viewBox="0 0 94.8 94" style="enable-background:new 0 0 94.8 94;" xml:space="preserve">
<style type="text/css">
	.st0{fill:#1181B8;}
</style>
<path class="st0" d="M86.8,21.6c-0.5-0.7-1.4-1.1-2.3-1.1H21.8v-2.7c0-6.3-5.2-11.5-11.5-11.5c-1.6,0-2.9,1.3-2.9,2.9
	c0,1.6,1.3,2.9,2.9,2.9c3.2,0,5.8,2.6,5.8,5.8v44.4c0,5.5,3.9,10.1,9.1,11.2c-2.6,1.2-4.3,3.8-4.3,6.9c0,4.2,3.4,7.6,7.6,7.6
	c4.2,0,7.6-3.4,7.6-7.6c0-2.8-1.5-5.3-3.8-6.6h30.4c-2.3,1.3-3.8,3.8-3.8,6.6c0,4.2,3.4,7.6,7.6,7.6c4.2,0,7.6-3.4,7.6-7.6
	c0-2.8-1.5-5.3-3.8-6.6h5.7c1.6,0,2.9-1.3,2.9-2.9c0-1.6-1.3-2.9-2.9-2.9H27.6c-3.2,0-5.8-2.6-5.8-5.8v-4.3c1.7,1,3.7,1.5,5.8,1.5
	h38.8c6.1,0,12.1-4.6,13.8-10.4l7.1-24.9C87.5,23.2,87.3,22.3,86.8,21.6z M66.4,78.4c1,0,1.9,0.8,1.9,1.9c0,1-0.8,1.9-1.9,1.9
	c-1,0-1.9-0.8-1.9-1.9C64.5,79.2,65.3,78.4,66.4,78.4z M28.4,78.4c1,0,1.9,0.8,1.9,1.9c0,1-0.8,1.9-1.9,1.9c-1,0-1.9-0.8-1.9-1.9
	C26.6,79.2,27.4,78.4,28.4,78.4z M74.6,47.4c-0.9,3.3-4.8,6.2-8.2,6.2H27.6c-3.2,0-5.8-2.6-5.8-5.8V26.2h58.9L74.6,47.4z"/>
</svg>
