<?xml version="1.0" encoding="utf-8"?>
<!-- Generator: Adobe Illustrator 22.1.0, SVG Export Plug-In . SVG Version: 6.00 Build 0)  -->
<svg version="1.1" id="Layer_1" xmlns="http://www.w3.org/2000/svg" xmlns:xlink="http://www.w3.org/1999/xlink" x="0px" y="0px"
	 viewBox="0 0 92.2 94" style="enable-background:new 0 0 92.2 94;" xml:space="preserve">
<style type="text/css">
	.st0{fill:#1181B8;}
</style>
<g>
	<path class="st0" d="M27.7,25.2H4.3c-0.9,0-1.6,0.7-1.6,1.6v55.3c0,0.9,0.7,1.6,1.6,1.6h23.3c0.9,0,1.6-0.7,1.6-1.6V26.8
		C29.3,25.9,28.6,25.2,27.7,25.2z M5.9,80.5V28.4h20.1v52.1H5.9z"/>
	<path class="st0" d="M89.4,79L77.2,27.5c-0.2-0.8-1.1-1.4-1.9-1.2L58,30.4V10.6C58,9.7,57.3,9,56.4,9H33.1c-0.9,0-1.6,0.7-1.6,1.6
		v71.5c0,0.9,0.7,1.6,1.6,1.6h23.3c0.9,0,1.6-0.7,1.6-1.6V37.8l11,46c0.1,0.4,0.4,0.8,0.7,1c0.3,0.2,0.5,0.2,0.8,0.2
		c0.1,0,0.2,0,0.4,0l17.3-4.1c0.4-0.1,0.8-0.4,1-0.7S89.5,79.4,89.4,79z M85.9,78.1l-14.1,3.4L60.3,33.2l14.1-3.4L85.9,78.1z
		 M34.7,80.5V12.2h20.1v68.3H34.7z"/>
	<path class="st0" d="M16,63.6c4.6,0,8.4-3.8,8.4-8.4c0-4.6-3.8-8.4-8.4-8.4c-4.6,0-8.4,3.8-8.4,8.4C7.6,59.8,11.4,63.6,16,63.6z
		 M10.9,55.2c0-2.8,2.3-5.2,5.1-5.2c2.8,0,5.2,2.3,5.2,5.2c0,2.8-2.3,5.1-5.2,5.1C13.2,60.4,10.9,58.1,10.9,55.2z"/>
	<path class="st0" d="M22.8,71.9H9.2c-0.9,0-1.6,0.7-1.6,1.6v5.1c0,0.9,0.7,1.6,1.6,1.6h13.5c0.9,0,1.6-0.7,1.6-1.6v-5.1
		C24.4,72.6,23.7,71.9,22.8,71.9z M21.2,75.1v1.8H10.9v-1.8H21.2z"/>
	<path class="st0" d="M22.8,31.8H9.2c-0.9,0-1.6,0.7-1.6,1.6v5.1c0,0.9,0.7,1.6,1.6,1.6h13.5c0.9,0,1.6-0.7,1.6-1.6v-5.1
		C24.4,32.5,23.7,31.8,22.8,31.8z M21.2,35v1.8H10.9V35H21.2z"/>
	<path class="st0" d="M44.8,41.3c-4.6,0-8.4,3.8-8.4,8.4s3.8,8.4,8.4,8.4s8.4-3.8,8.4-8.4S49.4,41.3,44.8,41.3z M49.9,49.6
		c0,2.8-2.3,5.1-5.2,5.1s-5.2-2.3-5.2-5.1s2.3-5.1,5.2-5.1S49.9,46.8,49.9,49.6z"/>
	<path class="st0" d="M51.5,71.9H38c-0.9,0-1.6,0.7-1.6,1.6v5.1c0,0.9,0.7,1.6,1.6,1.6h13.5c0.9,0,1.6-0.7,1.6-1.6v-5.1
		C53.1,72.6,52.4,71.9,51.5,71.9z M49.9,75.1v1.8H39.6v-1.8H49.9z"/>
	<path class="st0" d="M38,22.3h13.5c0.9,0,1.6-0.7,1.6-1.6v-5.1c0-0.9-0.7-1.6-1.6-1.6H38c-0.9,0-1.6,0.7-1.6,1.6v5.1
		C36.4,21.6,37.1,22.3,38,22.3z M39.6,19.1v-1.8h10.3v1.8H39.6z"/>
	<path class="st0" d="M71.7,49.8c-1.6,0.4-2.9,1.3-3.7,2.7c-0.8,1.4-1.1,3-0.7,4.5c0.6,2.7,3,4.6,5.8,4.6c0.5,0,1-0.1,1.4-0.2
		c1.6-0.4,2.9-1.3,3.7-2.7c0.8-1.4,1.1-3,0.7-4.5c-0.6-2.7-3.1-4.6-5.9-4.6C72.6,49.6,72.1,49.7,71.7,49.8z M75.5,57.1
		c-0.4,0.6-1,1.1-1.7,1.3c-1.5,0.4-3-0.6-3.3-2.1c-0.2-0.7-0.1-1.5,0.3-2.1s1-1.1,1.7-1.2c0.2-0.1,0.4-0.1,0.6-0.1
		c1.3,0,2.4,0.9,2.7,2.1C76,55.7,75.8,56.5,75.5,57.1z"/>
	<path class="st0" d="M70.9,73.3c-0.2,0.4-0.3,0.8-0.2,1.2l1.2,4.9c0.1,0.4,0.4,0.8,0.7,1c0.3,0.2,0.5,0.2,0.8,0.2
		c0.1,0,0.2,0,0.4,0l10-2.4c0.4-0.1,0.8-0.4,1-0.7c0.2-0.4,0.3-0.8,0.2-1.2l-1.2-4.9c-0.1-0.4-0.4-0.8-0.7-1
		c-0.4-0.2-0.8-0.3-1.2-0.2l-10,2.4C71.5,72.6,71.2,72.9,70.9,73.3z M74.2,75.3l6.9-1.6l0.4,1.8l-6.9,1.6L74.2,75.3z"/>
	<path class="st0" d="M72.7,31.7C72.7,31.7,72.7,31.7,72.7,31.7l-10,2.4c-0.4,0.1-0.8,0.4-1,0.7c-0.2,0.4-0.3,0.8-0.2,1.2l1.2,4.9
		c0.2,0.7,0.8,1.2,1.6,1.2c0.1,0,0.3,0,0.4,0l10-2.4c0.4-0.1,0.8-0.4,1-0.7c0.2-0.4,0.3-0.8,0.2-1.2l-1.2-4.9
		C74.4,32,73.5,31.5,72.7,31.7z M72.3,37l-6.9,1.6l-0.4-1.8l6.9-1.6L72.3,37z"/>
</g>
</svg>
