<?xml version="1.0" encoding="utf-8"?>
<!-- Generator: Adobe Illustrator 22.0.1, SVG Export Plug-In . SVG Version: 6.00 Build 0)  -->
<svg version="1.1" id="Capa_1" xmlns="http://www.w3.org/2000/svg" xmlns:xlink="http://www.w3.org/1999/xlink" x="0px" y="0px"
	 viewBox="0 0 41.3 44.3" style="enable-background:new 0 0 41.3 44.3;" xml:space="preserve">
<style type="text/css">
	.st0{fill-rule:evenodd;clip-rule:evenodd;fill:#FFFFFF;}
	.st1{opacity:0.69;fill:#C12A21;}
	.st2{fill:#FFFFFF;}
</style>
<path class="st0" d="M25.7,37.7h-2.5v2.7h2.5v-1.3V37.7L25.7,37.7z M20.7,3.1c4,0,7.6,1.6,10.3,4.3c2.6,2.6,4.3,6.3,4.3,10.3V19
	c0.5,0.1,1,0.3,1.4,0.7l0,0c0.4,0.4,0.7,1.1,0.7,1.7v7.6c0,0.7-0.3,1.3-0.7,1.7c-0.4,0.4-1.1,0.7-1.7,0.7h-2.2v1.5
	c0,1.8-0.7,3.5-1.9,4.7c-1.1,1.1-2.6,1.8-4.3,1.9v1.4c0,0.2-0.2,0.4-0.4,0.4h-3.3c-0.2,0-0.4-0.2-0.4-0.4v-3.5
	c0-0.2,0.2-0.4,0.4-0.4h3.3c0.2,0,0.4,0.2,0.4,0.4v1.3c1.4-0.1,2.7-0.7,3.7-1.7c1.1-1.1,1.7-2.5,1.7-4.1v-0.3
	c-0.1,0-0.1,0.1-0.2,0.1h-3.3c-0.2,0-0.4-0.2-0.4-0.4V18.1c0-0.2,0.2-0.4,0.4-0.4h3.3c0,0,0,0,0.1,0v-0.1c0-3.1-1.2-5.8-3.2-7.8
	c-2-2-4.8-3.2-7.8-3.2c-3.1,0-5.8,1.2-7.8,3.2c-2,2-3.2,4.8-3.2,7.8v0.1c0,0,0,0,0.1,0h3.3c0.2,0,0.4,0.2,0.4,0.4v14.1
	c0,0.2-0.2,0.4-0.4,0.4H9.7c-0.2,0-0.4-0.2-0.4-0.4v-0.8H6.5c-0.7,0-1.3-0.3-1.7-0.7l0,0v0l0,0C4.3,30.2,4,29.6,4,28.9v-7.6
	c0-0.7,0.3-1.3,0.7-1.7C5.1,19.3,5.6,19,6.1,19v-1.3c0-4,1.6-7.6,4.3-10.3C13,4.7,16.7,3.1,20.7,3.1L20.7,3.1z M30.4,7.9
	c-2.5-2.5-5.9-4-9.7-4s-7.2,1.5-9.7,4c-2.5,2.5-4,5.9-4,9.7v1.3h1.8v-1.3c0-3.3,1.3-6.2,3.5-8.4c2.1-2.1,5.1-3.5,8.4-3.5
	c3.3,0,6.2,1.3,8.4,3.5c2.1,2.1,3.5,5.1,3.5,8.4v1.3h1.8v-1.3C34.4,13.8,32.8,10.4,30.4,7.9L30.4,7.9z M34.9,19.8L34.9,19.8h-2.7
	h-0.1v10.8h0.2h0h0h2.6c0.5,0,0.9-0.2,1.2-0.5c0.3-0.3,0.5-0.7,0.5-1.2v-7.6c0-0.4-0.2-0.9-0.5-1.2h0C35.7,19.9,35.3,19.8,34.9,19.8
	L34.9,19.8z M31.3,18.5h-2.5v13.3h2.5V31V19.3V18.5L31.3,18.5z M9.3,19.8L9.3,19.8H6.5H6.5c-0.4,0-0.9,0.2-1.2,0.5
	c-0.3,0.3-0.5,0.7-0.5,1.2v7.6c0,0.4,0.2,0.9,0.5,1.2l0,0c0.3,0.3,0.7,0.5,1.2,0.5h2.8V19.8L9.3,19.8z M12.5,18.5h-2.5v0.8V31v0.8
	h2.5V18.5z"/>
</svg>
