<?xml version="1.0" encoding="utf-8"?>
<!-- Generator: Adobe Illustrator 22.0.1, SVG Export Plug-In . SVG Version: 6.00 Build 0)  -->
<svg version="1.1" id="Capa_1" xmlns="http://www.w3.org/2000/svg" xmlns:xlink="http://www.w3.org/1999/xlink" x="0px" y="0px"
	 viewBox="0 0 169 59" style="enable-background:new 0 0 169 59;" xml:space="preserve">
<style type="text/css">
	.st0{fill-rule:evenodd;clip-rule:evenodd;fill:#FFFFFF;}
	.st1{opacity:0.69;fill:#C12A21;}
	.st2{fill:#FFFFFF;}
</style>
<g>
	<path class="st1" d="M1,58h167V1H35.3C16.4,1,1,16.4,1,35.3V58z"/>
	<g>
		<g>
			<path class="st2" d="M21.4,32.3c0-6,4.3-10.4,10.4-10.4s10.4,4.4,10.4,10.4s-4.3,10.4-10.4,10.4S21.4,38.3,21.4,32.3z M39.6,32.3
				c0-4.6-3.2-8.2-7.8-8.2S24,27.7,24,32.3c0,4.6,3.2,8.2,7.8,8.2S39.6,36.8,39.6,32.3z"/>
			<path class="st2" d="M45.9,22.4h12.3v2.2h-9.9v6.6h9.2v2.2h-9.2v8.9h-2.4V22.4z"/>
			<path class="st2" d="M61.5,22.4H74v2.2H63.9v6.2h9.4v2.2h-9.4V40h10.6v2.2h-13V22.4z"/>
			<path class="st2" d="M78.1,22.4h5.1c3.8,0,7.9,0.6,7.9,5.5c0,2.9-1.9,4.8-5,5.2l5.6,9.1h-2.9l-5.4-8.9h-3v8.9h-2.4V22.4z
				 M80.5,31.1h2.1c2.6,0,6,0,6-3.3c0-2.9-2.5-3.3-4.8-3.3h-3.3V31.1z"/>
			<path class="st2" d="M108,24.5h-6.6v17.6h-2.4V24.5h-6.6v-2.2H108V24.5z"/>
			<path class="st2" d="M114.6,22.4h2.2l8.4,19.8h-2.7l-2-4.9h-9.9l-2,4.9h-2.7L114.6,22.4z M115.7,25.4L115.7,25.4l-4.2,9.7h8.1
				L115.7,25.4z"/>
			<path class="st2" d="M137.3,25.9c-0.8-1.3-2.2-1.8-3.6-1.8c-2.1,0-4.2,1-4.2,3.3c0,1.8,1,2.6,4.2,3.6c3.1,1,5.9,2,5.9,5.9
				c0,3.9-3.4,5.8-7,5.8c-2.3,0-4.8-0.8-6.1-2.7l2-1.7c0.8,1.5,2.5,2.2,4.2,2.2c2,0,4.3-1.2,4.3-3.4c0-2.4-1.7-2.9-5.2-4
				c-2.8-0.9-4.9-2.2-4.9-5.5c0-3.8,3.3-5.7,6.7-5.7c2.2,0,4.1,0.6,5.5,2.3L137.3,25.9z"/>
		</g>
	</g>
</g>
</svg>
