<?xml version="1.0" encoding="utf-8"?>
<!-- Generator: Adobe Illustrator 22.1.0, SVG Export Plug-In . SVG Version: 6.00 Build 0)  -->
<svg version="1.1" id="Capa_1" xmlns="http://www.w3.org/2000/svg" xmlns:xlink="http://www.w3.org/1999/xlink" x="0px" y="0px"
	 viewBox="0 0 112 90" style="enable-background:new 0 0 112 90;" xml:space="preserve">
<style type="text/css">
	.st0{fill:#263238;}
</style>
<path class="st0" d="M90.3,75.1l-7.9-16.8l7.9-16.8c0.2-0.4,0.3-0.9,0.2-1.3c0-0.1,0-0.2,0-0.3c0-1-0.8-1.8-1.8-1.8H23.3
	c-1,0-1.8,0.8-1.8,1.8c0,0.1,0,0.2,0,0.3c-0.1,0.4,0,0.9,0.2,1.3l7.9,16.8l-7.9,16.8c-0.2,0.4-0.3,0.9-0.2,1.3c0,0.1,0,0.2,0,0.3
	c0,1,0.8,1.8,1.8,1.8h0.6c0,0,0,0,0,0c0,0,0,0,0,0h11.9c0,0,0,0,0,0c0,0,0,0,0,0h4.8c0,0,0,0,0,0c0,0,0,0,0,0h7.1c0,0,0,0,0,0
	c0,0,0,0,0,0h4.8c0,0,0,0,0,0c0,0,0,0,0,0h7.1c0,0,0,0,0,0c0,0,0,0,0,0h4.8c0,0,0,0,0,0c0,0,0,0,0,0h7.1c0,0,0,0,0,0c0,0,0,0,0,0
	h4.8c0,0,0,0,0,0c0,0,0,0,0,0h11.9c0,0,0,0,0,0c0,0,0,0,0,0h0.6c1,0,1.8-0.8,1.8-1.8c0-0.1,0-0.2,0-0.3C90.5,76,90.5,75.5,90.3,75.1
	z M84.9,74.9h-6.6L76.5,71l3.3-7.1L84.9,74.9z M66.4,74.9L64.6,71l3.3-7.1l3.3,7.1l-1.8,3.9H66.4z M54.5,74.9L52.7,71l3.3-7.1
	l3.3,7.1l-1.8,3.9H54.5z M42.6,74.9L40.8,71l3.3-7.1l3.3,7.1l-1.8,3.9H42.6z M42.6,41.6h3l1.8,3.9l-3.3,7.1l-3.3-7.1L42.6,41.6z
	 M57.5,41.6l1.8,3.9L56,52.6l-3.3-7.1l1.8-3.9H57.5z M69.4,41.6l1.8,3.9l-3.3,7.1l-3.3-7.1l1.8-3.9H69.4z M73.8,51.2l3.3,7.1
	l-3.3,7.1l-3.3-7.1L73.8,51.2z M65.3,58.3l-3.3,7.1l-3.3-7.1l3.3-7.1L65.3,58.3z M53.4,58.3l-3.3,7.1l-3.3-7.1l3.3-7.1L53.4,58.3z
	 M41.5,58.3l-3.3,7.1l-3.3-7.1l3.3-7.1L41.5,58.3z M76.5,45.5l1.8-3.9h6.6l-5.1,11L76.5,45.5z M27.1,41.6h6.6l1.8,3.9l-3.3,7.1
	L27.1,41.6z M35.5,71l-1.8,3.9h-6.6l5.1-11L35.5,71z"/>
<path class="st0" d="M55.5,6.5C48.6,6.5,43,12.1,43,19s5.6,12.5,12.5,12.5S68,25.9,68,19S62.4,6.5,55.5,6.5z M60.7,12L57,16.9
	c-0.2,0.2,0,0.6,0.3,0.6h1.5c0.3,0,0.5,0.3,0.3,0.6l-2.9,3.7c-0.2,0.2,0,0.6,0.3,0.6h0.4c0.3,0,0.5,0.4,0.3,0.6l-5.5,5.5
	c-0.3,0.3-0.7,0-0.6-0.4l2.2-4.6c0.1-0.2-0.1-0.5-0.3-0.5h-1.2c-0.3,0-0.4-0.3-0.3-0.5l2-4c0.1-0.2-0.1-0.5-0.3-0.5h-1.3
	c-0.3,0-0.4-0.3-0.3-0.5l2.9-5.8c0.1-0.1,0.2-0.2,0.3-0.2h5.8C60.7,11.4,60.9,11.8,60.7,12z"/>
</svg>
