<?xml version="1.0" encoding="utf-8"?>
<!-- Generator: Adobe Illustrator 22.1.0, SVG Export Plug-In . SVG Version: 6.00 Build 0)  -->
<svg version="1.1" id="Capa_1" xmlns="http://www.w3.org/2000/svg" xmlns:xlink="http://www.w3.org/1999/xlink" x="0px" y="0px"
	 viewBox="0 0 112 90" style="enable-background:new 0 0 112 90;" xml:space="preserve">
<style type="text/css">
	.st0{fill:#263238;}
</style>
<g>
	<path class="st0" d="M29.3,67.5c0,10.1,8.2,18.3,18.3,18.3h16.7c10.1,0,18.3-8.2,18.3-18.3V29.2H29.3
		C29.3,29.2,29.3,67.5,29.3,67.5z M65.9,36c0.7-0.7,1.7-1.1,2.7-1.1c1,0,2,0.4,2.7,1.1c0.7,0.7,1.1,1.7,1.1,2.7s-0.4,2-1.1,2.7
		c-0.7,0.7-1.7,1.1-2.7,1.1c-1,0-2-0.4-2.7-1.1c-0.7-0.7-1.1-1.7-1.1-2.7C64.8,37.7,65.2,36.7,65.9,36L65.9,36z M65.9,48.6
		c0.7-0.7,1.7-1.1,2.7-1.1c1,0,2,0.4,2.7,1.1c0.7,0.7,1.1,1.7,1.1,2.7c0,1-0.4,2-1.1,2.7c-0.7,0.7-1.7,1.1-2.7,1.1
		c-1,0-2-0.4-2.7-1.1c-0.7-0.7-1.1-1.7-1.1-2.7C64.8,50.3,65.2,49.3,65.9,48.6L65.9,48.6z M65.9,61.2c0.7-0.7,1.7-1.1,2.7-1.1
		c1,0,2,0.4,2.7,1.1c0.7,0.7,1.1,1.7,1.1,2.7s-0.4,2-1.1,2.7c-0.7,0.7-1.7,1.1-2.7,1.1c-1,0-2-0.4-2.7-1.1c-0.7-0.7-1.1-1.7-1.1-2.7
		C64.8,62.9,65.2,61.9,65.9,61.2L65.9,61.2z M53.3,36c0.7-0.7,1.7-1.1,2.7-1.1s2,0.4,2.7,1.1c0.7,0.7,1.1,1.7,1.1,2.7
		s-0.4,2-1.1,2.7C58,42.1,57,42.5,56,42.5s-2-0.4-2.7-1.1c-0.7-0.7-1.1-1.7-1.1-2.7C52.2,37.7,52.6,36.7,53.3,36L53.3,36z
		 M53.3,48.6c0.7-0.7,1.7-1.1,2.7-1.1c1,0,2,0.4,2.7,1.1c0.7,0.7,1.1,1.7,1.1,2.7c0,1-0.4,2-1.1,2.7C58,54.7,57,55.1,56,55.1
		s-2-0.4-2.7-1.1c-0.7-0.7-1.1-1.7-1.1-2.7C52.2,50.3,52.6,49.3,53.3,48.6z M53.3,61.2c0.7-0.7,1.7-1.1,2.7-1.1s2,0.4,2.7,1.1
		c0.7,0.7,1.1,1.7,1.1,2.7s-0.4,2-1.1,2.7C58,67.3,57,67.7,56,67.7s-2-0.4-2.7-1.1c-0.7-0.7-1.1-1.7-1.1-2.7
		C52.2,62.9,52.6,61.9,53.3,61.2L53.3,61.2z M40.7,36c0.7-0.7,1.7-1.1,2.7-1.1c1,0,2,0.4,2.7,1.1c0.7,0.7,1.1,1.7,1.1,2.7
		s-0.4,2-1.1,2.7c-0.7,0.7-1.7,1.1-2.7,1.1c-1,0-2-0.4-2.7-1.1c-0.7-0.7-1.1-1.7-1.1-2.7C39.6,37.7,40,36.7,40.7,36L40.7,36z
		 M40.7,48.6c0.7-0.7,1.7-1.1,2.7-1.1c1,0,2,0.4,2.7,1.1c0.7,0.7,1.1,1.7,1.1,2.7c0,1-0.4,2-1.1,2.7c-0.7,0.7-1.7,1.1-2.7,1.1
		c-1,0-2-0.4-2.7-1.1c-0.7-0.7-1.1-1.7-1.1-2.7C39.6,50.3,40,49.3,40.7,48.6z M40.7,61.2c0.7-0.7,1.7-1.1,2.7-1.1c1,0,2,0.4,2.7,1.1
		c0.7,0.7,1.1,1.7,1.1,2.7s-0.4,2-1.1,2.7c-0.7,0.7-1.7,1.1-2.7,1.1c-1,0-2-0.4-2.7-1.1c-0.7-0.7-1.1-1.7-1.1-2.7
		C39.6,62.9,40,61.9,40.7,61.2L40.7,61.2z"/>
	<path class="st0" d="M79.6,4.2H32.4c-1.7,0-3.1,1.4-3.1,3.1v15.8h53.3V7.2C82.7,5.5,81.3,4.2,79.6,4.2L79.6,4.2z"/>
</g>
</svg>
