<svg xmlns="http://www.w3.org/2000/svg" viewBox="0 0 65 65"><defs><style>.cls-1{fill:#e1251b;}</style></defs><title>KIT DE CONTROL DE RONDAS -ICON-1</title><g id="Layer_17" data-name="Layer 17"><path class="cls-1" d="M37.36,16.75a10.24,10.24,0,1,0,7.25,3A10.17,10.17,0,0,0,37.36,16.75Z"/><path class="cls-1" d="M32.5,6.14A26.36,26.36,0,1,0,58.86,32.5,26.36,26.36,0,0,0,32.5,6.14ZM46,35.61a12.16,12.16,0,0,1-16.5.64L19.31,46.41a1,1,0,0,1-1.36,0A1,1,0,0,1,18,45L28.1,34.89A12.17,12.17,0,1,1,46,35.61Z"/></g></svg>