<?xml version="1.0" encoding="utf-8"?>
<!-- Generator: Adobe Illustrator 22.0.1, SVG Export Plug-In . SVG Version: 6.00 Build 0)  -->
<svg version="1.1" id="Capa_1" xmlns="http://www.w3.org/2000/svg" xmlns:xlink="http://www.w3.org/1999/xlink" x="0px" y="0px"
	 viewBox="0 0 45.3 55.1" style="enable-background:new 0 0 45.3 55.1;" xml:space="preserve">
<style type="text/css">
	.st0{fill-rule:evenodd;clip-rule:evenodd;fill:#2C3438;}
	.st1{fill-rule:evenodd;clip-rule:evenodd;fill:#CACACE;}
	.st2{fill-rule:evenodd;clip-rule:evenodd;fill:#191A1B;}
	.st3{fill-rule:evenodd;clip-rule:evenodd;fill:#A8A8B1;stroke:#7F7F84;stroke-miterlimit:10;}
	.st4{fill-rule:evenodd;clip-rule:evenodd;fill:#97979A;}
	.st5{fill-rule:evenodd;clip-rule:evenodd;fill:#DCDCE5;}
	.st6{fill:#FFFFFF;}
	.st7{fill:#2C3438;}
	.st8{opacity:0.5;fill:#A8A8B1;stroke:#7F7F84;stroke-miterlimit:10;}
	.st9{fill-rule:evenodd;clip-rule:evenodd;fill:#B3B3BB;}
	.st10{fill:#191A1B;}
	.st11{fill:#C12A21;}
</style>
<g>
	<path class="st0" d="M4,26.5h36c0,0,3,0,3,3s0,21,0,21s-1,3-4,3s-33,0-33,0s-4,0-4-5s0-19,0-19S2,27.5,4,26.5z"/>
	<path class="st1" d="M5,25.5c0,0-1-10,4-15s12-9,20-5c0,0,11,2,12,20h-6c0,0,2-15-10-16c0,0-8-3-14,7l-1,9H5z"/>
	<path class="st1" d="M20,39.5c0,0-5-6,3-8c0,0,7,3,2,7v8l-3,1l-2-2V39.5z"/>
	<path class="st2" d="M39.9,54.1H5.5c-1.2,0-2.2-0.5-3-1.2c-0.8-0.8-1.2-1.8-1.2-3V29.5c0-1.2,0.5-2.2,1.2-3l0,0v0l0,0
		c0.5-0.5,1.1-0.9,1.8-1.1l0-4.2c0-2.5,0.5-4.8,1.4-7c0.9-2.2,2.3-4.3,4-5.9c1.7-1.7,3.7-3.1,5.9-4c2.2-0.9,4.5-1.4,7-1.4
		c2.5,0,4.8,0.5,7,1.4c2.2,0.9,4.3,2.3,5.9,4c1.7,1.7,3.1,3.7,4,5.9c0.9,2.2,1.4,4.5,1.4,7l0,4.1c0.7,0.2,1.3,0.6,1.8,1.1
		c0.8,0.8,1.2,1.8,1.2,3v20.4c0,1.2-0.5,2.2-1.2,3l0,0C42.1,53.6,41.1,54.1,39.9,54.1L39.9,54.1z M22.7,30.8c-1.4,0-2.6,0.6-3.5,1.4
		c-0.9,0.9-1.4,2.1-1.4,3.5c0,0.8,0.2,1.6,0.5,2.3c0.3,0.6,0.7,1.1,1.2,1.5l0,5.9c0,0.7,0.3,1.3,0.7,1.7c0.4,0.4,1.1,0.7,1.7,0.7v0
		l1.4,0c0.7,0,1.3-0.3,1.7-0.7c0.4-0.4,0.7-1.1,0.7-1.7h0l0-5.9c0.5-0.4,0.9-0.9,1.2-1.5c0.3-0.7,0.5-1.4,0.5-2.3
		c0-1.4-0.6-2.6-1.4-3.5C25.3,31.4,24.1,30.8,22.7,30.8L22.7,30.8z M25.2,33.2c-0.6-0.6-1.5-1-2.5-1c-1,0-1.9,0.4-2.5,1
		c-0.6,0.6-1,1.5-1,2.5c0,0.6,0.1,1.1,0.4,1.6c0.3,0.5,0.6,0.9,1.1,1.3l0,0c0.2,0.1,0.3,0.3,0.3,0.6l0,6.3c0,0.3,0.1,0.6,0.3,0.7
		c0.2,0.2,0.4,0.3,0.7,0.3l0,0l1.4,0c0.3,0,0.6-0.1,0.7-0.3c0.2-0.2,0.3-0.5,0.3-0.7h0v-6.2c0-0.2,0.1-0.5,0.3-0.6
		c0.5-0.3,0.8-0.8,1.1-1.3c0.3-0.5,0.4-1,0.4-1.6C26.3,34.8,25.9,33.9,25.2,33.2L25.2,33.2z M5.8,25.3h3.7l0-4c0-1.8,0.4-3.5,1-5
		c0.7-1.6,1.7-3.1,2.9-4.3c1.2-1.2,2.7-2.2,4.3-2.9c1.6-0.6,3.3-1,5-1c1.8,0,3.5,0.4,5,1c1.6,0.7,3.1,1.7,4.3,2.9
		c1.2,1.2,2.2,2.7,2.9,4.3c0.6,1.6,1,3.3,1,5v4h3.7l0-4c0-2.3-0.5-4.5-1.3-6.5c-0.9-2.1-2.1-3.9-3.7-5.5c-1.6-1.6-3.4-2.8-5.5-3.7
		c-2-0.8-4.2-1.3-6.5-1.3s-4.5,0.5-6.5,1.3c-2.1,0.9-3.9,2.1-5.5,3.7c-1.6,1.6-2.8,3.4-3.7,5.5c-0.8,2-1.3,4.2-1.3,6.5L5.8,25.3
		L5.8,25.3z M10.9,25.3h23.6l0-4c0-1.6-0.3-3.1-0.9-4.5c-0.6-1.4-1.5-2.8-2.6-3.8c-1.1-1.1-2.4-2-3.8-2.6c-1.4-0.6-2.9-0.9-4.5-0.9
		c-1.6,0-3.1,0.3-4.5,0.9c-1.4,0.6-2.8,1.5-3.8,2.6c-1.1,1.1-2,2.4-2.6,3.8c-0.6,1.4-0.9,2.9-0.9,4.5V25.3L10.9,25.3z M10.4,26.7
		c-0.1,0-0.1,0-0.2,0H7.1v0H7l-0.1,0l-0.1,0l0,0H5.1h0c-0.6,0.1-1.1,0.4-1.5,0.8v0c-0.5,0.5-0.8,1.2-0.8,2v20.4c0,0.8,0.3,1.5,0.8,2
		c0.5,0.5,1.2,0.8,2,0.8h34.4c0.8,0,1.5-0.3,2-0.8l0,0c0.5-0.5,0.8-1.2,0.8-2V29.5c0-0.8-0.3-1.5-0.8-2c-0.4-0.4-0.9-0.7-1.5-0.8
		l0,0h-5.1c-0.1,0-0.1,0-0.2,0H10.4z"/>
</g>
</svg>
