<?xml version="1.0" encoding="utf-8"?>
<!-- Generator: Adobe Illustrator 22.0.1, SVG Export Plug-In . SVG Version: 6.00 Build 0)  -->
<svg version="1.1" id="Capa_1" xmlns="http://www.w3.org/2000/svg" xmlns:xlink="http://www.w3.org/1999/xlink" x="0px" y="0px"
	 viewBox="0 0 81.9 54.9" style="enable-background:new 0 0 81.9 54.9;" xml:space="preserve">
<style type="text/css">
	.st0{fill-rule:evenodd;clip-rule:evenodd;fill:#2C3438;}
	.st1{fill-rule:evenodd;clip-rule:evenodd;fill:#CACACE;}
	.st2{fill-rule:evenodd;clip-rule:evenodd;fill:#191A1B;}
	.st3{fill-rule:evenodd;clip-rule:evenodd;fill:#A8A8B1;stroke:#7F7F84;stroke-miterlimit:10;}
	.st4{fill-rule:evenodd;clip-rule:evenodd;fill:#97979A;}
	.st5{fill-rule:evenodd;clip-rule:evenodd;fill:#DCDCE5;}
	.st6{fill:#FFFFFF;}
	.st7{fill:#2C3438;}
	.st8{opacity:0.5;fill:#A8A8B1;stroke:#7F7F84;stroke-miterlimit:10;}
	.st9{fill-rule:evenodd;clip-rule:evenodd;fill:#B3B3BB;}
	.st10{fill:#191A1B;}
	.st11{fill:#C12A21;}
</style>
<g>
	<path class="st0" d="M65.2,2.5l1.1,38c0,0,3,3-3,4c-6,1-9,0-9,0l0,8l7,0l19,0l-0.1-48c0,0-2-1-3-2S65.2,2.5,65.2,2.5z"/>
	<path class="st3" d="M1.3,38.6l64-0.1c0,0,1,3,1,4c0,1-5,3-9,2c-4-1-55,0.1-55,0.1L1.3,38.6z"/>
	<polygon class="st4" points="26.3,48.5 26.3,44.2 42.3,45.5 42.3,48.5 	"/>
	<polygon class="st3" points="17.3,49.5 49.3,49.5 50.3,51.5 50.3,52.5 17.3,52.5 	"/>
	<polygon class="st5" points="1.7,3.1 1.8,39.1 65.8,38.9 65.7,1.9 	"/>
	<g>
		<polygon class="st6" points="16.7,3 61.8,38 65.8,37.9 64.7,2 		"/>
	</g>
	<g>
		<path class="st2" d="M3.4,2.1L64.2,2l14,0c0.6,0,1.2,0.3,1.6,0.7l0,0c0.4,0.4,0.7,1,0.7,1.6L80.7,51c0,0.6-0.3,1.2-0.7,1.7
			c-0.4,0.4-1,0.7-1.7,0.7l-22.1,0c-0.6,0-1.2-0.3-1.7-0.7c0,0,0,0,0,0c-0.4-0.4-0.6-1-0.6-1.6l0-5.8l-12.1,0l0,3.4l8.3,0
			c0.4,0,0.7,0.3,0.7,0.7l0,3.4c0,0.4-0.3,0.7-0.7,0.7l-32.5,0.1c-0.4,0-0.7-0.3-0.7-0.7l0-3.4c0-0.4,0.3-0.7,0.7-0.7l8.3,0l0-3.4
			l-22.5,0c-0.6,0-1.2-0.3-1.7-0.7c0,0,0,0,0,0c-0.4-0.4-0.6-1-0.6-1.6l0-4.3c0,0,0-0.1,0-0.1L1.1,4.4c0-0.6,0.2-1.2,0.6-1.6
			c0,0,0,0,0,0c0.4-0.4,0.9-0.6,1.4-0.7l0,0l0,0l0,0l0,0l0,0l0,0l0,0l0,0L3.4,2.1L3.4,2.1L3.4,2.1L3.4,2.1L3.4,2.1L3.4,2.1L3.4,2.1
			L3.4,2.1L3.4,2.1z M29.8,42.3l8.2,0c0.4,0,0.7-0.3,0.7-0.7c0-0.4-0.3-0.7-0.7-0.7l-8.2,0c-0.4,0-0.7,0.3-0.7,0.7
			C29.1,42,29.4,42.3,29.8,42.3L29.8,42.3z M66.6,13.7l7.6,0c0.4,0,0.7,0.3,0.7,0.7c0,0.4-0.3,0.7-0.7,0.7l-7.6,0l0,23.6l0,2.9
			l3.6,0c0.4,0,0.7,0.3,0.7,0.7l0,6c0,0.4-0.3,0.7-0.7,0.7l-6,0c-0.4,0-0.7-0.3-0.7-0.7l0-2.9l-8.4,0l0,5.8c0,0.3,0.1,0.5,0.3,0.7
			l0,0c0.2,0.2,0.4,0.3,0.7,0.3l22.1,0c0.3,0,0.5-0.1,0.7-0.3c0.2-0.2,0.3-0.4,0.3-0.7L79.2,4.3c0-0.3-0.1-0.5-0.3-0.7
			c-0.2-0.2-0.4-0.3-0.7-0.3l-11.9,0l0,0l0,0l0,0l0,0l0,0l0,0l0,0l0,0l0,0l0,0l0,0l0,0l0,0l0,0l0,0l0,0l0,0l0,0l0,0l0,0l0,0l0,0l0,0
			v0l0,0l0,0l0,0l0,0l0,0l0,0l0,0l0,0l0,0l0,0l0,0l0,0l0,0l0,0l0,0l0,0l0,0l0,0l0,0l0,0l0,0l0,0l0,0l0,0l0,0l0,0l0,0l0,0l0,0l0,0
			l0,0l0,0l0,0l0,0v0l0,0l0,0l0,0l0,0l0,0l0,0l0,0l0,0l0,0l0,0l0,0l0,0l0,0l0,0l0,0l0,0l0,0l0,0l0,0l0,0l0,0l0,0l0,0l0,0l0,0l0,0
			l0,0l0,0l0,0l0,0l0,0l0,0l0,0l0,0l0,0l0,0l0,0l0,0l0,0l0,0l0,0l0,0l0,0l0,0l0,0l0,0l0,0l0,0l0,0l0,0l0,0l0,0l0,0l0,0l0,0l0,0l0,0
			l0,0l0,0l0,0l0,0l0,0l0,0l0,0l0,0l0,0l0,0l0,0l0,3.4L66.6,13.7L66.6,13.7z M65,47.5l4.6,0l0-4.6l-3,0l0,0.1c0,0.6-0.3,1.2-0.7,1.7
			l0,0l0,0l0,0l0,0l0,0l0,0l0,0l0,0l0,0l0,0l0,0l0,0l0,0l0,0l0,0l0,0l0,0l0,0l0,0l0,0l0,0l0,0l0,0l0,0l0,0l0,0l0,0l0,0l0,0l0,0l0,0
			l0,0l0,0l0,0l0,0l0,0l0,0l0,0l0,0l0,0l0,0l0,0l0,0l0,0l0,0l0,0l0,0l0,0l0,0l0,0l0,0l0,0l0,0l0,0l0,0l0,0l0,0l0,0l0,0l0,0l0,0l0,0
			l0,0l0,0l0,0l0,0l0,0l0,0l0,0l0,0l0,0l0,0l0,0l0,0l0,0l0,0l0,0l0,0l0,0l0,0l0,0l0,0l0,0l0,0l0,0l0,0l0,0l0,0l0,0l0,0l0,0l0,0l0,0
			l0,0l0,0l0,0l0,0l0,0l0,0l0,0l0,0l0,0l0,0l0,0L65,47.5L65,47.5z M2.5,38l62.8-0.1l0-23.6l0-6.6l0-3.4l0,0l0,0l0,0l0,0l0,0l0,0l0,0
			l0,0l0,0l0,0l0,0l0,0l0,0l0,0l0,0l0,0l0,0l0,0l0,0l0,0l0,0l0,0l0,0l0,0l0,0l0,0l0,0l0,0l0,0l0,0l0,0l0,0l0,0l0,0l0,0l0,0l0,0l0,0
			l0,0l0,0l0,0l0,0l0,0l0,0l0,0l0,0l0,0l0,0l0,0l0,0l0,0l0,0l0,0l0,0l0,0l0,0l0,0l0,0l0,0l0,0l0,0l0,0l0,0l0,0l0,0
			c-0.1-0.1-0.2-0.2-0.3-0.2l0,0l0,0l0,0l0,0l0,0l0,0l0,0l0,0l0,0l0,0l0,0l0,0l0,0l0,0l0,0l0,0l0,0l0,0l0,0l0,0l0,0l0,0l0,0l0,0l0,0
			l0,0l0,0l0,0l0,0l0,0l0,0l0,0l0,0l0,0l0,0l0,0l0,0l0,0l0,0l0,0l0,0l0,0l0,0l0,0l0,0l0,0l0,0l0,0l0,0l0,0l0,0l0,0l0,0l0,0l0,0l0,0
			l0,0l0,0l0,0l0,0l0,0l0,0l0,0l0,0l0,0l0,0l0,0l0,0L3.4,3.4l0,0l0,0l0,0l0,0l0,0l0,0l0,0l0,0l0,0l0,0l0,0l0,0l0,0l0,0
			c-0.2,0-0.5,0.1-0.6,0.3l0,0C2.5,3.9,2.4,4.1,2.4,4.4L2.5,38L2.5,38z M65.3,39.2L2.5,39.4l0,3.7c0,0.3,0.1,0.5,0.3,0.7l0,0
			C3,43.9,3.2,44,3.5,44l23.1,0l14.6,0l13.4,0l9.7,0l0,0c0.3,0,0.5-0.1,0.7-0.3c0.2-0.2,0.3-0.4,0.3-0.7l0-0.8L65.3,39.2L65.3,39.2z
			 M40.5,45.3l-13.2,0l0,3.4l13.2,0L40.5,45.3L40.5,45.3z M18.4,52.1l31.1-0.1l0-2l-8.3,0l-14.6,0l-8.3,0L18.4,52.1L18.4,52.1z
			 M64.5,3.3L64.5,3.3L64.5,3.3L64.5,3.3L64.5,3.3L64.5,3.3z"/>
	</g>
</g>
</svg>
