<?xml version="1.0" encoding="utf-8"?>
<!-- Generator: Adobe Illustrator 22.1.0, SVG Export Plug-In . SVG Version: 6.00 Build 0)  -->
<svg version="1.1" id="Layer_1" xmlns="http://www.w3.org/2000/svg" xmlns:xlink="http://www.w3.org/1999/xlink" x="0px" y="0px"
	 viewBox="0 0 90 85" style="enable-background:new 0 0 90 85;" xml:space="preserve">
<style type="text/css">
	.st0{fill-rule:evenodd;clip-rule:evenodd;fill:#1D90EF;}
	.st1{fill-rule:evenodd;clip-rule:evenodd;fill:#AEAEB7;stroke:#808089;stroke-miterlimit:10;}
	.st2{fill-rule:evenodd;clip-rule:evenodd;fill:#9C9CA0;}
	.st3{fill-rule:evenodd;clip-rule:evenodd;fill:#E1E1EA;}
	.st4{fill:#FFFFFF;}
	.st5{fill-rule:evenodd;clip-rule:evenodd;fill:#1C84C9;}
	.st6{fill:#E1E1EA;}
	.st7{fill:#1D90EF;}
	.st8{fill:#8A98A0;}
	.st9{fill:#CECED6;}
	.st10{fill-rule:evenodd;clip-rule:evenodd;fill:#CFCFD3;}
	.st11{fill:#DBDBDB;}
	.st12{fill:#1C84C9;}
</style>
<g>
	<path class="st0" d="M71.6,15.1l1.1,41.3c0,0,3.3,3.3-3.3,4.4c-6.5,1.1-9.8,0-9.8,0v8.7h7.6h20.7V17.2c0,0-2.2-1.1-3.3-2.2
		C83.6,14,71.6,15.1,71.6,15.1z"/>
	<path class="st1" d="M1.8,54.2h69.7c0,0,1.1,3.3,1.1,4.4c0,1.1-5.4,3.3-9.8,2.2c-4.4-1.1-59.9,0-59.9,0L1.8,54.2z"/>
	<polygon class="st2" points="22.6,65.1 22.6,60.4 40,61.8 40,65.1 	"/>
	<polygon class="st1" points="19.3,66.2 54.1,66.2 55.2,68.4 55.2,69.5 19.3,69.5 	"/>
	<polygon class="st3" points="2.4,15.6 2.4,54.8 72.1,54.8 72.1,14.5 	"/>
	<g>
		<polygon class="st4" points="18.7,15.6 67.8,53.7 72.1,53.7 71,14.5 		"/>
	</g>
	<g>
		<path class="st5" d="M4.2,14.5h66.3h15.3c0.7,0,1.3,0.3,1.8,0.7l0,0c0.5,0.5,0.7,1.1,0.7,1.8v50.9c0,0.7-0.3,1.3-0.7,1.8
			c-0.5,0.5-1.1,0.7-1.8,0.7H61.7c-0.7,0-1.3-0.3-1.8-0.7c0,0,0,0,0,0c-0.4-0.5-0.7-1.1-0.7-1.8v-6.3H46v3.7h9
			c0.4,0,0.7,0.3,0.7,0.7v3.7c0,0.4-0.3,0.7-0.7,0.7H19.7c-0.4,0-0.7-0.3-0.7-0.7v-3.7c0-0.4,0.3-0.7,0.7-0.7h9v-3.7H4.2
			c-0.7,0-1.3-0.3-1.8-0.7c0,0,0,0,0,0c-0.4-0.5-0.7-1.1-0.7-1.8v-4.6c0,0,0-0.1,0-0.1V17.1c0-0.7,0.3-1.3,0.7-1.7c0,0,0,0,0,0
			c0.4-0.4,0.9-0.7,1.5-0.7h0h0l0,0h0h0h0l0,0h0h0L4.2,14.5L4.2,14.5L4.2,14.5L4.2,14.5L4.2,14.5L4.2,14.5L4.2,14.5L4.2,14.5z
			 M32.9,58.3h9c0.4,0,0.7-0.3,0.7-0.7c0-0.4-0.3-0.7-0.7-0.7h-9c-0.4,0-0.7,0.3-0.7,0.7C32.1,58,32.5,58.3,32.9,58.3L32.9,58.3z
			 M73.1,27.3h8.3c0.4,0,0.7,0.3,0.7,0.7c0,0.4-0.3,0.7-0.7,0.7h-8.3v25.6v3.2H77c0.4,0,0.7,0.3,0.7,0.7v6.5c0,0.4-0.3,0.7-0.7,0.7
			h-6.5c-0.4,0-0.7-0.3-0.7-0.7v-3.1h-9.1v6.3c0,0.3,0.1,0.5,0.3,0.7l0,0c0.2,0.2,0.5,0.3,0.8,0.3h24.1c0.3,0,0.6-0.1,0.8-0.3
			c0.2-0.2,0.3-0.5,0.3-0.8V17.1c0-0.3-0.1-0.6-0.3-0.8c-0.2-0.2-0.5-0.3-0.8-0.3h-13l0,0h0l0,0l0,0l0,0l0,0l0,0l0,0l0,0l0,0v0l0,0
			l0,0l0,0l0,0v0l0,0l0,0l0,0l0,0l0,0l0,0l0,0v0l0,0l0,0l0,0v0l0,0l0,0l0,0v0l0,0l0,0l0,0l0,0l0,0v0l0,0l0,0l0,0l0,0l0,0v0l0,0l0,0
			v0l0,0l0,0v0v0l0,0l0,0l0,0l0,0l0,0l0,0l0,0v0l0,0v0l0,0l0,0l0,0v0l0,0l0,0v0l0,0l0,0l0,0l0,0l0,0l0,0l0,0v0l0,0l0,0l0,0l0,0v0
			l0,0l0,0v0l0,0l0,0l0,0v0l0,0l0,0l0,0l0,0v0l0,0v0l0,0l0,0l0,0v0v0v0l0,0l0,0l0,0v0l0,0v0v0l0,0l0,0v0l0,0v0v0v0l0,0v0l0,0v0l0,0
			v0v0v0l0,0v0v0l0,0v3.8V27.3L73.1,27.3z M71.2,64h5.1v-5h-3.2v0.1c0,0.7-0.3,1.3-0.7,1.8l0,0l0,0l0,0l0,0l0,0l0,0l0,0l0,0l0,0h0
			l0,0l0,0l0,0l0,0l0,0l0,0l0,0l0,0l0,0l0,0l0,0l0,0l0,0l0,0l0,0l0,0l0,0l0,0l0,0l0,0l0,0l0,0l0,0l0,0l0,0l0,0l0,0l0,0l0,0l0,0l0,0
			l0,0l0,0l0,0l0,0l0,0l0,0l0,0l0,0h0l0,0l0,0l0,0l0,0l0,0l0,0l0,0l0,0l0,0l0,0l0,0l0,0l0,0l0,0h0l0,0l0,0l0,0l0,0h0l0,0l0,0l0,0
			l0,0l0,0l0,0l0,0h0l0,0l0,0l0,0l0,0l0,0l0,0l0,0l0,0l0,0l0,0l0,0l0,0l0,0l0,0l0,0l0,0l0,0h0l0,0l0,0l0,0l0,0h0l0,0h0l0,0V64
			L71.2,64z M3.1,53.6h68.5V28v-7.2v-3.8l0,0v0v0v0v0v0l0,0v0l0,0v0l0,0v0l0,0v0v0l0,0v0l0,0v0l0,0l0,0l0,0l0,0l0,0l0,0l0,0l0,0l0,0
			l0,0l0,0l0,0l0,0l0,0l0,0l0,0l0,0l0,0l0,0l0,0l0,0l0,0l0,0l0,0l0,0l0,0l0,0l0,0l0,0l0,0l0,0l0,0l0,0l0,0l0,0l0,0l0,0l0,0l0,0l0,0
			l0,0l0,0l0,0l0,0l0,0l0,0c-0.1-0.1-0.2-0.2-0.4-0.2l0,0l0,0l0,0h0l0,0l0,0l0,0h0l0,0h0l0,0l0,0l0,0l0,0l0,0h0l0,0h0l0,0h0l0,0h0
			l0,0l0,0h0l0,0h0h0l0,0l0,0h0l0,0h0h0h0l0,0l0,0h0h0l0,0h0l0,0h0h0l0,0h0l0,0h0l0,0h0h0h0l0,0h0h0l0,0h0l0,0l0,0h0l0,0l0,0h0l0,0
			l0,0h0l0,0h0H4.2h0h0h0h0h0h0h0h0h0h0h0h0h0l0,0c-0.3,0-0.5,0.1-0.7,0.3l0,0c-0.2,0.2-0.3,0.5-0.3,0.8V53.6L3.1,53.6z M71.6,55.1
			H3.1v4c0,0.3,0.1,0.5,0.3,0.7l0,0c0.2,0.2,0.5,0.3,0.8,0.3h25.2h15.9h14.6h10.6h0c0.3,0,0.6-0.1,0.8-0.3c0.2-0.2,0.3-0.5,0.3-0.8
			v-0.8V55.1L71.6,55.1z M44.6,61.6H30.2v3.7h14.4V61.6L44.6,61.6z M20.4,69h33.9v-2.2h-9H29.4h-9V69L20.4,69z M70.8,16L70.8,16
			L70.8,16L70.8,16L70.8,16L70.8,16z"/>
	</g>
</g>
</svg>
