<?xml version="1.0" encoding="utf-8"?>
<!-- Generator: Adobe Illustrator 22.1.0, SVG Export Plug-In . SVG Version: 6.00 Build 0)  -->
<svg version="1.1" id="Layer_1" xmlns="http://www.w3.org/2000/svg" xmlns:xlink="http://www.w3.org/1999/xlink" x="0px" y="0px"
	 viewBox="0 0 90 85" style="enable-background:new 0 0 90 85;" xml:space="preserve">
<style type="text/css">
	.st0{fill-rule:evenodd;clip-rule:evenodd;fill:#1D90EF;}
	.st1{fill-rule:evenodd;clip-rule:evenodd;fill:#AEAEB7;stroke:#808089;stroke-miterlimit:10;}
	.st2{fill-rule:evenodd;clip-rule:evenodd;fill:#9C9CA0;}
	.st3{fill-rule:evenodd;clip-rule:evenodd;fill:#E1E1EA;}
	.st4{fill:#FFFFFF;}
	.st5{fill-rule:evenodd;clip-rule:evenodd;fill:#1C84C9;}
	.st6{fill:#E1E1EA;}
	.st7{fill:#1D90EF;}
	.st8{fill:#8A98A0;}
	.st9{fill:#CECED6;}
	.st10{fill-rule:evenodd;clip-rule:evenodd;fill:#CFCFD3;}
	.st11{fill:#DBDBDB;}
	.st12{fill:#1C84C9;}
</style>
<g>
	<path class="st5" d="M24.6,40.3h39.2c0,0,3.3,0,3.3,3.3s0,22.8,0,22.8s-1.1,3.3-4.4,3.3c-3.3,0-35.9,0-35.9,0s-4.4,0-4.4-5.4
		c0-5.4,0-20.7,0-20.7S22.5,41.4,24.6,40.3z"/>
	<path class="st10" d="M25.7,39.2c0,0-1.1-10.9,4.4-16.3s13.1-9.8,21.8-5.4c0,0,12,2.2,13.1,21.8h-6.5c0,0,2.2-16.3-10.9-17.4
		c0,0-8.7-3.3-15.2,7.6l-1.1,9.8H25.7z"/>
	<path class="st10" d="M42,54.5c0,0-5.4-6.5,3.3-8.7c0,0,7.6,3.3,2.2,7.6v8.7l-3.3,1.1L42,61V54.5z"/>
	<path class="st5" d="M63.7,70.3H26.3c-1.3,0-2.4-0.5-3.2-1.3c-0.8-0.8-1.3-2-1.3-3.2V43.5c0-1.3,0.5-2.4,1.3-3.2l0,0v0l0,0
		c0.6-0.5,1.2-1,2-1.2l0-4.5c0-2.7,0.5-5.3,1.5-7.6c1-2.4,2.5-4.6,4.3-6.5c1.8-1.8,4-3.3,6.5-4.3c2.3-1,4.9-1.5,7.6-1.5
		c2.7,0,5.3,0.5,7.6,1.5c2.4,1,4.6,2.5,6.5,4.3c1.8,1.8,3.3,4,4.3,6.5c1,2.3,1.5,4.9,1.5,7.6l0,4.5c0.8,0.2,1.5,0.6,2,1.2
		c0.8,0.8,1.3,2,1.3,3.2v22.2c0,1.3-0.5,2.4-1.3,3.2l0,0C66.1,69.8,65,70.3,63.7,70.3L63.7,70.3z M45,45c-1.5,0-2.8,0.6-3.8,1.6
		c-1,1-1.6,2.3-1.6,3.8c0,0.9,0.2,1.7,0.6,2.5c0.3,0.6,0.8,1.2,1.3,1.7l0,6.4c0,0.7,0.3,1.4,0.8,1.9c0.5,0.5,1.1,0.8,1.9,0.8v0
		l1.5,0c0.7,0,1.4-0.3,1.9-0.8c0.5-0.5,0.8-1.2,0.8-1.9h0l0-6.4c0.6-0.5,1-1,1.3-1.7c0.4-0.7,0.6-1.6,0.6-2.5c0-1.5-0.6-2.8-1.6-3.8
		C47.8,45.6,46.5,45,45,45L45,45z M47.7,47.6c-0.7-0.7-1.7-1.1-2.7-1.1c-1.1,0-2,0.4-2.7,1.1c-0.7,0.7-1.1,1.7-1.1,2.7
		c0,0.6,0.2,1.2,0.4,1.8c0.3,0.5,0.7,1,1.2,1.4l0,0c0.2,0.1,0.3,0.4,0.3,0.6l0,6.8c0,0.3,0.1,0.6,0.3,0.8c0.2,0.2,0.5,0.3,0.8,0.3
		l0,0l1.5,0c0.3,0,0.6-0.1,0.8-0.3c0.2-0.2,0.3-0.5,0.3-0.8h0v-6.8c0-0.2,0.1-0.5,0.3-0.7c0.5-0.4,0.9-0.8,1.2-1.4
		c0.3-0.5,0.4-1.1,0.4-1.8C48.8,49.3,48.4,48.3,47.7,47.6L47.7,47.6z M26.6,39h4l0-4.4c0-1.9,0.4-3.8,1.1-5.5
		c0.7-1.8,1.8-3.3,3.1-4.7c1.3-1.3,2.9-2.4,4.7-3.1c1.7-0.7,3.5-1.1,5.5-1.1c1.9,0,3.8,0.4,5.5,1.1c1.8,0.7,3.3,1.8,4.7,3.1
		c1.3,1.3,2.4,2.9,3.1,4.7c0.7,1.7,1.1,3.5,1.1,5.5V39h4l0-4.3c0-2.5-0.5-4.9-1.4-7c-0.9-2.3-2.3-4.3-4-6c-1.7-1.7-3.7-3.1-6-4
		c-2.2-0.9-4.5-1.4-7-1.4s-4.9,0.5-7,1.4c-2.3,0.9-4.3,2.3-6,4c-1.7,1.7-3.1,3.7-4,6c-0.9,2.2-1.4,4.5-1.4,7L26.6,39L26.6,39z
		 M32.1,39h25.7l0-4.3c0-1.7-0.3-3.4-1-4.9c-0.7-1.6-1.6-3-2.8-4.2c-1.2-1.2-2.6-2.1-4.2-2.8c-1.5-0.6-3.2-1-4.9-1
		c-1.7,0-3.4,0.3-4.9,1c-1.6,0.7-3,1.6-4.2,2.8c-1.2,1.2-2.1,2.6-2.8,4.2c-0.6,1.5-1,3.2-1,4.9V39L32.1,39z M31.6,40.5
		c-0.1,0-0.1,0-0.2,0h-3.3v0h-0.1l-0.1,0l-0.1,0l0,0h-1.9h0c-0.7,0.1-1.2,0.4-1.7,0.9v0c-0.6,0.6-0.9,1.3-0.9,2.1v22.2
		c0,0.8,0.3,1.6,0.9,2.2c0.6,0.6,1.3,0.9,2.2,0.9h37.4c0.8,0,1.6-0.3,2.1-0.9l0,0c0.6-0.5,0.9-1.3,0.9-2.2V43.5
		c0-0.8-0.3-1.6-0.9-2.1c-0.4-0.4-1-0.8-1.7-0.9l0,0h-5.5c-0.1,0-0.2,0-0.2,0H31.6z"/>
</g>
</svg>
