<?xml version="1.0" encoding="utf-8"?>
<!-- Generator: Adobe Illustrator 22.1.0, SVG Export Plug-In . SVG Version: 6.00 Build 0)  -->
<svg version="1.1" id="Layer_1" xmlns="http://www.w3.org/2000/svg" xmlns:xlink="http://www.w3.org/1999/xlink" x="0px" y="0px"
	 viewBox="0 0 90 85" style="enable-background:new 0 0 90 85;" xml:space="preserve">
<style type="text/css">
	.st0{fill-rule:evenodd;clip-rule:evenodd;fill:#1D90EF;}
	.st1{fill-rule:evenodd;clip-rule:evenodd;fill:#AEAEB7;stroke:#808089;stroke-miterlimit:10;}
	.st2{fill-rule:evenodd;clip-rule:evenodd;fill:#9C9CA0;}
	.st3{fill-rule:evenodd;clip-rule:evenodd;fill:#E1E1EA;}
	.st4{fill:#FFFFFF;}
	.st5{fill-rule:evenodd;clip-rule:evenodd;fill:#1C84C9;}
	.st6{fill:#E1E1EA;}
	.st7{fill:#1D90EF;}
	.st8{fill:#8A98A0;}
	.st9{fill:#CECED6;}
	.st10{fill-rule:evenodd;clip-rule:evenodd;fill:#CFCFD3;}
	.st11{fill:#DBDBDB;}
	.st12{fill:#1C84C9;}
</style>
<g>
	<path class="st6" d="M17.6,61.1l10.9,9.8l4.4-3.3l22.8-23.9c0,0,19.6,2.2,17.4-19.6l-9.8,8.7l-6.5-1.1l-2.2-7.6l9.8-8.7
		c0,0-20.7-2.2-19.6,16.3l-26.1,25C18.7,56.8,16.5,60,17.6,61.1z"/>
	<polygon class="st4" points="29.5,53.5 24.1,59 28.5,65.5 35,59 	"/>
	<polygon class="st7" points="47.5,53 62.7,68.2 68.2,63.8 52.5,47.1 	"/>
	<polygon class="st8" points="44.2,56.2 47.5,51.9 63.3,68.7 58.9,70.9 	"/>
	<polygon class="st8" points="53.1,47.7 67.6,63.3 69.8,61.1 69.8,57.9 55.7,43.7 	"/>
	<polygon class="st9" points="36.8,40.4 40.1,37.3 31.7,28.5 31.7,25.2 20.8,16.5 17.6,20.9 25.2,31.8 28.5,31.8 	"/>
	<g>
		<path class="st5" d="M35.7,39.7l-7.8-7.8L25,32c-0.2,0-0.5-0.1-0.6-0.3L16,21.4c-0.2-0.3-0.2-0.7,0.1-1l4.5-4.5
			c0.3-0.3,0.7-0.3,1,0l10.3,8.4c0.2,0.1,0.3,0.4,0.3,0.6l-0.1,2.9l7.8,7.8l4.4-4.4c-0.3-2.2-0.1-4.5,0.6-6.7c0.7-2.2,1.9-4.3,3.7-6
			l0,0c2.1-2.1,4.8-3.5,7.5-4.1c2.8-0.6,5.8-0.4,8.5,0.7c0.4,0.1,0.6,0.6,0.4,0.9c0,0.1-0.1,0.2-0.2,0.3l0,0L56,25.1l1.7,5.6
			l5.6,1.7l8.8-8.8c0.3-0.3,0.7-0.3,1,0c0.1,0.1,0.1,0.2,0.2,0.3c1,2.7,1.3,5.7,0.6,8.5c-0.6,2.8-1.9,5.4-4.1,7.5
			c-1.7,1.7-3.8,3-6,3.7c-2.3,0.7-4.7,0.9-7,0.5l0,0l12.9,12.9l0,0c0.8,0.8,1.2,1.9,1.2,3c0,1.1-0.4,2.2-1.3,3.1l-0.8,0.8l0,0
			L64,68.8l-0.8,0.8l0,0c-0.8,0.8-1.9,1.2-3,1.2c-1.1,0-2.2-0.4-3.1-1.3L44.2,56.8L31.5,69.6c-0.4,0.4-0.9,0.7-1.4,1
			c-0.5,0.2-1.1,0.3-1.7,0.3c-0.6,0-1.1-0.1-1.7-0.3c-0.5-0.2-1-0.5-1.4-0.9l-6.7-6.7c-0.8-0.8-1.3-2-1.3-3.1c0-1.1,0.4-2.2,1.3-3.1
			v0v0L35.7,39.7L35.7,39.7z M48.6,52.3l14.9,14.9l3.9-3.9l-14.9-15L48.6,52.3L48.6,52.3z M62.4,68.3L47.6,53.4L46,55l-0.8,0.8
			L58,68.6c0.6,0.6,1.3,0.8,2,0.8c0.7,0,1.5-0.3,2-0.8l0,0L62.4,68.3L62.4,68.3z M46.9,52c0-0.1,0.1-0.1,0.1-0.2l4.9-4.9l0,0h0
			l3.3-3.4l0,0l0.8-0.8c0.2-0.3,0.7-0.3,1-0.1l0,0c2.1,0.3,4.2,0.1,6.2-0.5c2-0.6,3.9-1.7,5.4-3.3c1.9-1.9,3.2-4.3,3.7-6.8
			c0.5-2.2,0.4-4.5-0.2-6.7l-8.3,8.3h0c-0.2,0.2-0.5,0.3-0.7,0.2l-6.3-1.9l0,0c-0.2-0.1-0.4-0.2-0.5-0.5l-1.9-6.3
			c-0.1-0.3-0.1-0.6,0.2-0.8l8.3-8.3c-2.2-0.6-4.5-0.7-6.7-0.2c-2.5,0.5-4.8,1.8-6.8,3.7v0l0,0c-1.6,1.6-2.7,3.5-3.3,5.4
			c-0.7,2-0.8,4.2-0.5,6.3c0.1,0.2,0,0.5-0.2,0.6l0,0l-5.2,5.2l-3.1,3.1l0,0L19.6,57.8l0,0c-0.6,0.6-0.8,1.3-0.8,2
			c0,0.7,0.3,1.5,0.8,2l6.7,6.7c0.3,0.3,0.6,0.5,0.9,0.6c0.3,0.1,0.7,0.2,1.1,0.2c0.4,0,0.8-0.1,1.1-0.2c0.3-0.1,0.6-0.4,0.9-0.6
			l13.1-13.3l0,0l0,0L46.9,52L46.9,52z M53.4,47.4l14.9,15l0.3-0.3c0.6-0.6,0.8-1.3,0.8-2c0-0.7-0.3-1.5-0.8-2l0,0L55.8,45.1
			L53.4,47.4L53.4,47.4z M24.3,59l5,5l5-5l-5-5L24.3,59L24.3,59z M28.7,65.6c0.3,0.3,0.7,0.3,1,0l6-6c0.3-0.3,0.3-0.7,0-1l-6-6
			c-0.3-0.3-0.7-0.3-1,0l-6,6c-0.3,0.3-0.3,0.7,0,1L28.7,65.6L28.7,65.6z M28.6,30.6l8.1,8.1l2.1-2.1l-8.1-8.1
			c-0.1-0.1-0.2-0.3-0.2-0.5l0.1-2.8l-9.5-7.8L17.5,21l7.8,9.5l2.8-0.1C28.3,30.4,28.5,30.5,28.6,30.6L28.6,30.6z M21.5,15.9
			L21.5,15.9L21.5,15.9z"/>
	</g>
</g>
</svg>
