<?xml version="1.0" encoding="utf-8"?>
<!-- Generator: Adobe Illustrator 22.1.0, SVG Export Plug-In . SVG Version: 6.00 Build 0)  -->
<svg version="1.1" id="Layer_1" xmlns="http://www.w3.org/2000/svg" xmlns:xlink="http://www.w3.org/1999/xlink" x="0px" y="0px"
	 viewBox="0 0 90 85" style="enable-background:new 0 0 90 85;" xml:space="preserve">
<style type="text/css">
	.st0{fill-rule:evenodd;clip-rule:evenodd;fill:#1D90EF;}
	.st1{fill-rule:evenodd;clip-rule:evenodd;fill:#AEAEB7;stroke:#808089;stroke-miterlimit:10;}
	.st2{fill-rule:evenodd;clip-rule:evenodd;fill:#9C9CA0;}
	.st3{fill-rule:evenodd;clip-rule:evenodd;fill:#E1E1EA;}
	.st4{fill:#FFFFFF;}
	.st5{fill-rule:evenodd;clip-rule:evenodd;fill:#1C84C9;}
	.st6{fill:#E1E1EA;}
	.st7{fill:#1D90EF;}
	.st8{fill:#8A98A0;}
	.st9{fill:#CECED6;}
	.st10{fill-rule:evenodd;clip-rule:evenodd;fill:#CFCFD3;}
	.st11{fill:#DBDBDB;}
	.st12{fill:#1C84C9;}
</style>
<g>
	<path class="st7" d="M26.6,34l-1.1,25L26,71l4.4,1.1h31.5l2.2-3.3l1.1-33.7c0,0-4.4-10.9-12-13.1s-1.1,0-1.1,0l-14.1-1.1
		C37.9,20.9,25.5,27.4,26.6,34z"/>
	<g>
		<path class="st11" d="M30.3,47l-1.1,18.5l3.3,3.3h26.1l2.2-3.3V49.2c0,0-1.1-3.3-3.3-3.3S30.3,47,30.3,47z"/>
		<polygon class="st11" points="40.1,26.4 39,30.7 49.9,30.7 51,27.4 49.9,26.4 		"/>
		<path class="st11" d="M52.1,22l3.3-7.6l2.2-1.1l4.4,3.3v10.9C61.9,27.4,56.4,20.9,52.1,22z"/>
		<path class="st11" d="M28,29.6c0,0,6.6-8.7,9.9-7.6s0,0,0,0l-3.3-7.6l-2.2-1.1l-3.3,2.2L28,29.6z"/>
		<path class="st11" d="M39.4,21c0,0,0.7-7.7,5.1-7.7s6.5,4.4,5.4,8.7C49.9,22,45.2,11.4,39.4,21z"/>
	</g>
	<g>
		<path class="st12" d="M62.7,28.3c0,0-0.3-12-0.4-12.2c0-0.2-0.1-0.4-0.2-0.7c-0.2-0.5-0.7-1-1.2-1.2l-3.6-1.4
			c-0.5-0.2-1.1-0.2-1.7,0c-0.5,0.2-1,0.7-1.2,1.2l-2.4,6.3c-0.4-0.1-0.8-0.2-1.1-0.2v-2.4c0-3.3-2.7-6-6-6c-3.3,0-6,2.7-6,6v2.4
			c-0.4,0.1-0.8,0.1-1.1,0.2l-2.4-6.3c-0.2-0.5-0.6-1-1.2-1.2c-0.5-0.2-1.1-0.3-1.7,0L29,14.3c-0.5,0.2-1,0.6-1.2,1.2
			c-0.1,0.2-0.1,0.4-0.2,0.6c0,0.2-0.4,12.2-0.4,12.2c-1.5,2.5-2.4,5.5-2.4,8.7v32.4c0,2,1.7,3.7,3.7,3.7h32.8c2,0,3.7-1.7,3.7-3.7
			V37C65.1,33.8,64.3,30.9,62.7,28.3z M60.7,25.6c-0.4-0.4-0.8-0.8-1.2-1.2l1.1-2.9L60.7,25.6z M56.4,14.9c0-0.1,0.2-0.2,0.3-0.1
			l3.6,1.4c0.1,0,0.1,0.1,0.1,0.1c0,0,0,0.1,0,0.2l-2.6,6.6c-1.2-0.8-2.5-1.5-3.8-2L56.4,14.9z M45,13.9c2,0,3.7,1.5,4,3.4
			c-1.1-0.9-2.5-1.5-4-1.5c-1.5,0-2.9,0.5-4,1.5C41.3,15.3,43,13.9,45,13.9z M48.7,20c-0.2,0-7.2,0-7.3,0c0.2-0.4,0.5-0.8,0.8-1.2
			c0.8-0.8,1.8-1.2,2.8-1.2C46.6,17.7,48,18.6,48.7,20z M29.6,16.3c0,0,0.1-0.1,0.1-0.1l3.6-1.4c0.1,0,0.3,0,0.3,0.1l2.4,6.2
			c-1.4,0.5-2.7,1.2-3.8,2l-2.6-6.6C29.6,16.4,29.6,16.3,29.6,16.3z M29.4,21.5l1.1,2.9c-0.4,0.4-0.8,0.8-1.2,1.2L29.4,21.5z
			 M63.2,69.4c0,1-0.8,1.8-1.8,1.8H28.6c-1,0-1.8-0.8-1.8-1.8V37c0-8.3,6.7-15,15-15h6.3c8.3,0,15,6.7,15,15L63.2,69.4L63.2,69.4z"
			/>
		<path class="st12" d="M31.7,45c-1.6,0-2.9,1.3-2.9,2.9v18.5c0,1.6,1.3,2.9,2.9,2.9h26.6c1.6,0,2.9-1.3,2.9-2.9V47.9
			c0-1.6-1.3-2.9-2.9-2.9H31.7z M58.3,67.3H31.7c-0.5,0-0.9-0.4-0.9-0.9V54.1h24.7v2.2h2v-2.2h1.8v12.3
			C59.2,66.9,58.8,67.3,58.3,67.3z M59.2,47.9v4.2H30.8v-4.2c0-0.5,0.4-0.9,0.9-0.9h26.6C58.8,47,59.2,47.4,59.2,47.9z"/>
		<path class="st12" d="M51.2,26H38.8v5.6h12.4V26z M49.3,29.6h-8.5V28h8.5V29.6z"/>
	</g>
</g>
</svg>
