<?xml version="1.0" encoding="utf-8"?>
<!-- Generator: Adobe Illustrator 22.1.0, SVG Export Plug-In . SVG Version: 6.00 Build 0)  -->
<svg version="1.1" id="Capa_1" xmlns="http://www.w3.org/2000/svg" xmlns:xlink="http://www.w3.org/1999/xlink" x="0px" y="0px"
	 viewBox="0 0 30 25" style="enable-background:new 0 0 30 25;" xml:space="preserve">
<style type="text/css">
	.st0{fill:#FFFFFF;}
</style>
<path class="st0" d="M9.9,23.6c10.3,0,16-8.5,16-16c0-0.2,0-0.5,0-0.7c1.1-0.8,2-1.8,2.8-2.9c-1,0.4-2.1,0.7-3.2,0.9
	c1.2-0.7,2-1.8,2.5-3.1c-1.1,0.6-2.3,1.1-3.6,1.4c-1-1.1-2.5-1.8-4.1-1.8c-3.1,0-5.6,2.5-5.6,5.6c0,0.4,0,0.9,0.1,1.3
	C10.1,8,6,5.8,3.2,2.4C2.8,3.2,2.5,4.2,2.5,5.2c0,1.9,1,3.7,2.5,4.7c-0.9,0-1.8-0.3-2.5-0.7c0,0,0,0,0,0.1c0,2.7,1.9,5,4.5,5.5
	C6.5,14.9,6,15,5.5,15c-0.4,0-0.7,0-1.1-0.1c0.7,2.2,2.8,3.9,5.2,3.9c-1.9,1.5-4.3,2.4-7,2.4c-0.5,0-0.9,0-1.3-0.1
	C3.8,22.7,6.8,23.6,9.9,23.6"/>
</svg>
