<?xml version="1.0" encoding="utf-8"?>
<!-- Generator: Adobe Illustrator 22.0.1, SVG Export Plug-In . SVG Version: 6.00 Build 0)  -->
<svg version="1.1" id="Capa_1" xmlns="http://www.w3.org/2000/svg" xmlns:xlink="http://www.w3.org/1999/xlink" x="0px" y="0px"
	 viewBox="0 0 172.3 45.3" style="enable-background:new 0 0 172.3 45.3;" xml:space="preserve">
<style type="text/css">
	.st0{fill-rule:evenodd;clip-rule:evenodd;fill:#2A2A2A;}
	.st1{fill:#2A2A2A;}
</style>
<g>
	<path class="st1" d="M160,10.8c0-1.7,1.4-3.2,3.2-3.2c0.8,0,1.6,0.3,2.2,0.9c0.6,0.6,0.9,1.4,0.9,2.2c0,0.8-0.3,1.6-0.9,2.2
		c-0.6,0.6-1.4,0.9-2.2,0.9C161.4,13.9,160,12.5,160,10.8 M159.7,10.8c0,1.9,1.5,3.4,3.4,3.4c0.9,0,1.8-0.4,2.4-1
		c0.7-0.7,1-1.5,1-2.4c0-0.9-0.4-1.8-1-2.4c-0.7-0.6-1.5-1-2.4-1C161.3,7.3,159.7,8.9,159.7,10.8"/>
	<path class="st1" d="M161.9,12.8h0.5v-1.6h1.1c0.2,0,0.3,0,0.4,0.1c0.2,0.1,0.2,0.2,0.3,0.5l0,0.6c0,0.1,0,0.2,0,0.3
		c0,0,0,0.1,0,0.1h0.6v-0.1c-0.1,0-0.1-0.1-0.2-0.2c0-0.1,0-0.2,0-0.3l0-0.5c0-0.2,0-0.4-0.1-0.5c-0.1-0.1-0.2-0.2-0.3-0.2
		c0.2-0.1,0.3-0.2,0.4-0.3c0.1-0.1,0.1-0.3,0.1-0.5c0-0.4-0.2-0.7-0.5-0.9c-0.2-0.1-0.4-0.1-0.7-0.1h-1.6V12.8z M162.4,10.8V9.5h1.2
		c0.2,0,0.3,0,0.4,0.1c0.2,0.1,0.3,0.3,0.3,0.5c0,0.3-0.1,0.4-0.2,0.5c-0.1,0.1-0.3,0.1-0.5,0.1H162.4z"/>
	<polygon class="st1" points="24.7,15.5 10.6,37.4 20.2,37.4 33.8,16.5 	"/>
	<path class="st1" d="M25,15c0,0,3.3-5.4,4.2-6.5C30,7.4,31,7,32.1,7h14.6v7.4c0,0,0.7-2.8,2-4.2c1.2-1.3,2.9-3,6.6-3.3h27.5V15H25z
		"/>
	<path class="st1" d="M157.5,15V6.9h-29.4c-3.7,0.2-5.4,2-6.6,3.3c-1.3,1.4-2,4.2-2,4.2V15L157.5,15z"/>
	<rect x="84.3" y="6.9" class="st1" width="8.2" height="8.1"/>
	<rect x="111.2" y="6.9" class="st1" width="8.2" height="8.1"/>
	<path class="st1" d="M119.4,17.9l-8.1-0.5v9.4c0,0,0,2.7-2.7,2.7H94.9c0,0-2.3-0.2-2.3-2.7V16.2l-8.1-0.6V30
		c1.3,6.9,7.6,7.4,7.6,7.4s0.6,0,0.7,0.1h18.7c0,0,8-0.6,8-8.3V17.9z"/>
	<path class="st1" d="M38.4,37.4h38.4c6.7-1.3,7.4-7.3,7.4-7.3c0.3-1.8,0.1-3.2,0.1-3.2c-0.2-1.2-2.5-6.5-7.5-7
		c-3-0.3-29.6-2.4-29.6-2.4c0.5,2.6,1.7,4,2.5,4.7c1.9,1.8,4.8,2.3,4.8,2.3c0.7,0.1,20.5,1.7,20.5,1.7c0.6,0,1.8,0.2,1.8,1.7
		c0,0.2-0.2,1.6-1.7,1.6H46.4v-12l-8-0.6V37.4z"/>
	<path class="st1" d="M119.5,29.4h28.5c0.7,0,1.4-0.4,1.4-0.4c0.3-0.3,0.5-0.7,0.5-1.2c0-1.5-1.3-1.6-1.9-1.6c0,0-20-1.7-20.7-1.7
		c0,0-2.8-0.4-4.6-2.2c-0.8-0.8-1.9-1.6-2.7-4.3c0,0,26.8,1.6,29.8,1.8c5,0.5,7.4,5.4,7.6,7c0,0,0.2,1.5,0,3.3c0,0-1,6.9-8.4,7.3
		h-29.4L119.5,29.4z"/>
	<path class="st1" d="M160,10.8c0-1.7,1.4-3.2,3.2-3.2c0.8,0,1.6,0.3,2.2,0.9c0.6,0.6,0.9,1.4,0.9,2.2c0,0.8-0.3,1.6-0.9,2.2
		c-0.6,0.6-1.4,0.9-2.2,0.9C161.4,13.9,160,12.5,160,10.8 M159.7,10.8c0,1.9,1.5,3.4,3.4,3.4c0.9,0,1.8-0.4,2.4-1
		c0.7-0.7,1-1.5,1-2.4c0-0.9-0.4-1.8-1-2.4c-0.7-0.6-1.5-1-2.4-1C161.3,7.3,159.7,8.9,159.7,10.8"/>
	<path class="st1" d="M161.9,12.8h0.5v-1.6h1.1c0.2,0,0.3,0,0.4,0.1c0.2,0.1,0.2,0.2,0.3,0.5l0,0.6c0,0.1,0,0.2,0,0.3
		c0,0,0,0.1,0,0.1h0.6v-0.1c-0.1,0-0.1-0.1-0.2-0.2c0-0.1,0-0.2,0-0.3l0-0.5c0-0.2,0-0.4-0.1-0.5c-0.1-0.1-0.2-0.2-0.3-0.2
		c0.2-0.1,0.3-0.2,0.4-0.3c0.1-0.1,0.1-0.3,0.1-0.5c0-0.4-0.2-0.7-0.5-0.9c-0.2-0.1-0.4-0.1-0.7-0.1h-1.6V12.8z M162.4,10.8V9.5h1.2
		c0.2,0,0.3,0,0.4,0.1c0.2,0.1,0.3,0.3,0.3,0.5c0,0.3-0.1,0.4-0.2,0.5c-0.1,0.1-0.3,0.1-0.5,0.1H162.4z"/>
	<polygon class="st1" points="24.7,15.5 10.6,37.4 20.2,37.4 33.8,16.5 	"/>
	<path class="st1" d="M25,15c0,0,3.3-5.4,4.2-6.5C30,7.4,31,7,32.1,7h14.6v7.4c0,0,0.7-2.8,2-4.2c1.2-1.3,2.9-3,6.6-3.3h27.5V15H25z
		"/>
	<path class="st1" d="M157.5,15V6.9h-29.4c-3.7,0.2-5.4,2-6.6,3.3c-1.3,1.4-2,4.2-2,4.2V15L157.5,15z"/>
	<rect x="84.3" y="6.9" class="st1" width="8.2" height="8.1"/>
	<rect x="111.2" y="6.9" class="st1" width="8.2" height="8.1"/>
	<path class="st1" d="M119.4,17.9l-8.1-0.5v9.4c0,0,0,2.7-2.7,2.7H94.9c0,0-2.3-0.2-2.3-2.7V16.2l-8.1-0.6V30
		c1.3,6.9,7.6,7.4,7.6,7.4s0.6,0,0.7,0.1h18.7c0,0,8-0.6,8-8.3V17.9z"/>
	<path class="st1" d="M38.4,37.4h38.4c6.7-1.3,7.4-7.3,7.4-7.3c0.3-1.8,0.1-3.2,0.1-3.2c-0.2-1.2-2.5-6.5-7.5-7
		c-3-0.3-29.6-2.4-29.6-2.4c0.5,2.6,1.7,4,2.5,4.7c1.9,1.8,4.8,2.3,4.8,2.3c0.7,0.1,20.5,1.7,20.5,1.7c0.6,0,1.8,0.2,1.8,1.7
		c0,0.2-0.2,1.6-1.7,1.6H46.4v-12l-8-0.6V37.4z"/>
	<path class="st1" d="M119.5,29.4h28.5c0.7,0,1.4-0.4,1.4-0.4c0.3-0.3,0.5-0.7,0.5-1.2c0-1.5-1.3-1.6-1.9-1.6c0,0-20-1.7-20.7-1.7
		c0,0-2.8-0.4-4.6-2.2c-0.8-0.8-1.9-1.6-2.7-4.3c0,0,26.8,1.6,29.8,1.8c5,0.5,7.4,5.4,7.6,7c0,0,0.2,1.5,0,3.3c0,0-1,6.9-8.4,7.3
		h-29.4L119.5,29.4z"/>
</g>
</svg>
