<?xml version="1.0" encoding="utf-8"?>
<!-- Generator: Adobe Illustrator 22.1.0, SVG Export Plug-In . SVG Version: 6.00 Build 0)  -->
<svg version="1.1" id="Capa_1" xmlns="http://www.w3.org/2000/svg" xmlns:xlink="http://www.w3.org/1999/xlink" x="0px" y="0px"
	 viewBox="0 0 1308 194" style="enable-background:new 0 0 1308 194;" xml:space="preserve">
<style type="text/css">
	.st0{fill:#E2211C;}
	.st1{fill:#55595B;}
</style>
<g>
	<polygon class="st0" points="108.5,94.3 101.3,137.3 58.3,137.3 65.5,94.3 	"/>
	<g>
		<path class="st1" d="M204.2,56.6l26.8-2.2l0.8,9.8c1.8-1.9,3.8-3.6,6-5c2.2-1.5,4.8-2.7,7.9-3.7c3.1-1,6.6-1.8,10.6-2.3
			c4-0.5,8.6-0.8,13.9-0.8c4.9,0,9.1,0.3,12.4,1c3.3,0.6,6,1.5,8,2.6c2,1.1,3.5,2.4,4.5,3.8c1,1.5,1.7,3,2.2,4.6
			c3.7-3.8,8.6-6.7,14.8-8.8c6.2-2.1,14.7-3.2,25.6-3.2c7.7,0,13.6,1.1,17.8,3.4c4.1,2.3,7.1,5.4,8.9,9.4c1.8,4,2.6,8.8,2.4,14.3
			c-0.2,5.5-0.8,11.5-1.9,17.9l-13.5,80.9h-32.7l12.1-72.6c0.6-3.6,1-6.8,1.3-9.6c0.2-2.8,0-5.1-0.7-6.9c-0.7-1.8-2-3.2-3.9-4
			c-1.9-0.9-4.6-1.3-8.1-1.3c-4.2,0-7.7,0.5-10.4,1.5c-2.7,1-5,2.6-6.8,4.7c-1.8,2.1-3.2,4.8-4.2,8.2c-1,3.3-1.9,7.3-2.7,12
			l-11.3,68.1h-32.7l12.1-72.6c0.6-3.6,1-6.8,1.3-9.6c0.2-2.8,0-5.1-0.7-6.9c-0.7-1.8-2-3.2-3.8-4c-1.8-0.9-4.5-1.3-8-1.3
			c-4.2,0-7.7,0.5-10.5,1.5c-2.8,1-5.1,2.6-6.8,4.8c-1.7,2.2-3.1,4.9-4.2,8.2c-1.1,3.3-2,7.2-2.7,11.9l-11.3,68.1h-32.5L204.2,56.6z
			"/>
		<path class="st1" d="M403.8,179.9c-8,0-14.4-1-19.1-2.9c-4.8-2-8.3-4.7-10.6-8.2c-2.3-3.5-3.6-7.6-3.8-12.3
			c-0.2-4.7,0.1-9.8,1-15.4c1.5-8.7,3.9-15.9,7.3-21.6c3.4-5.7,8-10.2,13.7-13.6c5.7-3.4,12.7-5.8,20.9-7.2
			c8.2-1.4,17.9-2.1,28.9-2.1h4.4c0.6-5.1-0.1-8.8-2-11.1c-1.9-2.3-5.9-3.5-12-3.5c-7,0-13.2,0.7-18.5,2c-5.4,1.3-10,2.8-14,4.6
			l-8.9-26.6c6-2.9,13.1-5.3,21.1-7.1c8.1-1.8,17.7-2.7,28.9-2.7c8.6,0,15.6,0.8,21,2.3c5.4,1.5,9.6,4,12.4,7.3
			c2.9,3.3,4.6,7.7,5.1,13c0.6,5.3,0.2,11.8-1.1,19.5l-7.7,46c-0.6,3.8-0.6,6.3,0,7.6c0.7,1.3,3,2,6.9,2l-4.8,28.6
			c-1.8,0.3-3.5,0.4-5.1,0.4c-1.6,0-3.2,0-4.8,0c-3.9,0-7.3-0.1-10-0.3c-2.7-0.2-5-0.7-6.8-1.5c-1.8-0.8-3.3-1.9-4.4-3.2
			c-1.1-1.3-1.9-3-2.4-5.2c-4,3.9-8.8,6.8-14.3,8.6C419.8,179,412.6,179.9,403.8,179.9z M415.9,152.8c3.2,0,6.2-0.3,8.9-1
			c2.7-0.6,5.1-1.8,7.2-3.5c2.1-1.7,3.9-3.9,5.4-6.6c1.5-2.8,2.6-6.3,3.3-10.5l1.9-11.3h-4.1c-6.1,0-11.3,0.3-15.5,0.8
			c-4.2,0.5-7.7,1.4-10.4,2.7c-2.7,1.3-4.8,3.1-6.2,5.3c-1.5,2.3-2.5,5.1-3.1,8.6c-0.9,5.5-0.5,9.5,1.4,11.9
			C406.5,151.7,410.2,152.8,415.9,152.8z"/>
		<path class="st1" d="M540.5,141.9l-25.5,36.4h-33.6l47.5-65l-23.8-58.7h35.8l12.7,31.4l21.6-31.4h33.6l-43.6,60l25.8,63.7h-35.6
			L540.5,141.9z"/>
		<path class="st1" d="M630.4,13.7h33.2l-5,29.9h-33.2L630.4,13.7z M623.6,54.7h32.9l-20.6,123.7H603L623.6,54.7z"/>
		<path class="st1" d="M702.6,180.1c-10.5,0-18.8-1.5-25-4.4c-6.2-2.9-10.8-7.1-13.7-12.5c-2.9-5.5-4.5-12.1-4.7-20.1
			c-0.2-7.9,0.5-16.9,2.2-26.9c1.6-9.9,3.8-18.8,6.6-26.6c2.8-7.9,6.6-14.5,11.5-20.1c4.9-5.5,11.1-9.7,18.6-12.7
			c7.5-2.9,16.7-4.4,27.8-4.4c8.1,0,14.7,0.6,19.8,1.8c5,1.2,9.5,2.8,13.4,4.8l-19.2,28.6c-2.3-1.3-4.8-2.4-7.5-3.2
			c-2.8-0.8-6.1-1.2-9.8-1.2c-4.2,0-7.8,0.6-10.9,1.9c-3,1.2-5.6,3.2-7.7,5.9c-2.1,2.7-3.9,6.2-5.3,10.5c-1.4,4.3-2.7,9.6-3.7,15.8
			c-2.1,12.4-2,21.2,0.3,26.4c2.2,5.2,7.8,7.8,16.7,7.8c4.2,0,8-0.5,11.5-1.5c3.4-1,6.8-2.2,10.1-3.5l8.3,25.1
			c-7.1,3.2-13.5,5.4-19.2,6.7C716.6,179.5,710,180.1,702.6,180.1z"/>
		<path class="st1" d="M798.8,180.3c-10.9,0-19.6-1.5-26.1-4.6c-6.5-3-11.3-7.3-14.5-12.9c-3.2-5.5-5-12.2-5.3-20.2
			c-0.3-7.9,0.4-16.8,2-26.5c1.6-9.6,3.8-18.3,6.8-26.2c2.9-7.9,6.9-14.6,11.9-20.2c5-5.6,11.3-9.9,18.8-12.9
			c7.5-3,16.8-4.5,27.7-4.5c11.1,0,19.8,1.5,26.4,4.6c6.5,3.1,11.4,7.4,14.4,13c3.1,5.6,4.7,12.3,5,20.1c0.2,7.8-0.5,16.5-2.1,26.1
			c-1.6,9.9-3.9,18.8-6.7,26.7c-2.9,7.9-6.7,14.7-11.7,20.2c-4.9,5.5-11.2,9.8-18.7,12.8C819.1,178.8,809.8,180.3,798.8,180.3z
			 M803.6,151.5c4.8,0,8.7-0.8,11.7-2.4c3-1.6,5.5-3.8,7.5-6.8c1.9-2.9,3.5-6.5,4.6-10.7c1.1-4.2,2.2-9,3.1-14.4
			c0.9-5.4,1.5-10.2,1.7-14.4c0.3-4.2-0.1-7.8-1.1-10.7c-1-2.9-2.7-5.1-5.2-6.6c-2.5-1.5-6.2-2.3-11-2.3c-4.8,0-8.7,0.8-11.7,2.3
			c-3,1.5-5.5,3.7-7.4,6.6c-1.9,2.9-3.5,6.5-4.6,10.7c-1.1,4.2-2.2,9-3,14.4c-0.9,5.4-1.5,10.2-1.7,14.4c-0.3,4.2,0.1,7.8,1.1,10.7
			c1,2.9,2.7,5.2,5.2,6.8C795.1,150.7,798.8,151.5,803.6,151.5z"/>
		<path class="st1" d="M887.6,56.6l26.8-2.2l0.8,9.8c1.8-1.9,3.8-3.6,6-5c2.2-1.5,4.8-2.7,7.9-3.7c3.1-1,6.6-1.8,10.6-2.3
			c4-0.5,8.6-0.8,13.9-0.8c4.9,0,9.1,0.3,12.4,1c3.3,0.6,6,1.5,8,2.6c2,1.1,3.5,2.4,4.5,3.8c1,1.5,1.7,3,2.2,4.6
			c3.7-3.8,8.6-6.7,14.8-8.8c6.2-2.1,14.7-3.2,25.6-3.2c7.7,0,13.6,1.1,17.8,3.4c4.1,2.3,7.1,5.4,8.9,9.4c1.8,4,2.6,8.8,2.4,14.3
			c-0.2,5.5-0.8,11.5-1.9,17.9l-13.5,80.9H1002l12.1-72.6c0.6-3.6,1-6.8,1.3-9.6c0.3-2.8,0-5.1-0.7-6.9c-0.7-1.8-2-3.2-3.9-4
			c-1.9-0.9-4.6-1.3-8.1-1.3c-4.2,0-7.7,0.5-10.4,1.5c-2.7,1-5,2.6-6.8,4.7c-1.8,2.1-3.2,4.8-4.2,8.2c-1,3.3-1.9,7.3-2.7,12
			l-11.3,68.1h-32.7l12.1-72.6c0.6-3.6,1-6.8,1.3-9.6c0.2-2.8,0-5.1-0.7-6.9c-0.7-1.8-2-3.2-3.8-4c-1.8-0.9-4.5-1.3-8-1.3
			c-4.2,0-7.7,0.5-10.5,1.5c-2.8,1-5,2.6-6.8,4.8c-1.8,2.2-3.1,4.9-4.2,8.2c-1.1,3.3-2,7.2-2.7,11.9l-11.3,68.1h-32.5L887.6,56.6z"
			/>
		<path class="st1" d="M1069.8,56.6l26.8-2.2l0.8,9.8c1.8-1.9,3.8-3.6,6-5c2.2-1.5,4.8-2.7,7.9-3.7c3.1-1,6.6-1.8,10.6-2.3
			c4-0.5,8.6-0.8,13.9-0.8c4.9,0,9.1,0.3,12.4,1c3.3,0.6,6,1.5,8,2.6c2,1.1,3.5,2.4,4.5,3.8c1,1.5,1.7,3,2.2,4.6
			c3.7-3.8,8.6-6.7,14.8-8.8c6.2-2.1,14.7-3.2,25.6-3.2c7.7,0,13.6,1.1,17.8,3.4c4.1,2.3,7.1,5.4,8.9,9.4c1.8,4,2.6,8.8,2.4,14.3
			c-0.2,5.5-0.8,11.5-1.9,17.9l-13.5,80.9h-32.7l12.1-72.6c0.6-3.6,1-6.8,1.3-9.6c0.2-2.8,0-5.1-0.7-6.9c-0.7-1.8-2-3.2-3.9-4
			c-1.9-0.9-4.6-1.3-8.1-1.3c-4.2,0-7.7,0.5-10.4,1.5c-2.7,1-5,2.6-6.8,4.7c-1.8,2.1-3.2,4.8-4.2,8.2s-1.9,7.3-2.7,12l-11.3,68.1
			h-32.7l12.1-72.6c0.6-3.6,1-6.8,1.3-9.6c0.2-2.8,0-5.1-0.7-6.9c-0.7-1.8-2-3.2-3.8-4c-1.8-0.9-4.5-1.3-8-1.3
			c-4.2,0-7.7,0.5-10.5,1.5c-2.8,1-5.1,2.6-6.8,4.8c-1.7,2.2-3.1,4.9-4.2,8.2c-1.1,3.3-2,7.2-2.7,11.9l-11.3,68.1h-32.5L1069.8,56.6
			z"/>
	</g>
	<g>
		<path class="st1" d="M1253.6,154.1h7.3v24.3h-4.7v-16.4c0-0.5,0-1.1,0-2c0-0.8,0-1.5,0-2l-4.6,20.4h-4.9l-4.6-20.4
			c0,0.4,0,1.1,0,2c0,0.8,0,1.5,0,2v16.4h-4.7v-24.3h7.4l4.4,19.1L1253.6,154.1z"/>
		<path class="st1" d="M1281.2,154.7c0.9,0.4,1.7,0.9,2.3,1.7c0.5,0.6,0.9,1.3,1.2,2c0.3,0.8,0.5,1.6,0.5,2.6c0,1.1-0.3,2.3-0.9,3.4
			c-0.6,1.1-1.5,1.9-2.9,2.4c1.1,0.5,1.9,1.1,2.4,1.9c0.5,0.8,0.7,2.1,0.7,3.8v1.6c0,1.1,0,1.9,0.1,2.2c0.1,0.6,0.4,1.1,0.9,1.4v0.6
			h-5.6c-0.2-0.5-0.3-1-0.3-1.3c-0.1-0.7-0.2-1.4-0.2-2.1l0-2.2c0-1.6-0.3-2.6-0.8-3.1c-0.5-0.5-1.5-0.8-2.9-0.8h-5v9.5h-5v-24.3
			h11.6C1279,154.1,1280.3,154.3,1281.2,154.7z M1270.7,158.3v6.5h5.5c1.1,0,1.9-0.1,2.4-0.4c1-0.5,1.4-1.4,1.4-2.7
			c0-1.5-0.5-2.5-1.4-3c-0.5-0.3-1.3-0.4-2.3-0.4H1270.7z"/>
	</g>
	<polygon class="st1" points="144.3,137.3 137.1,180.3 94.2,180.3 101.3,137.3 	"/>
	<polygon class="st1" points="158.7,51.4 151.5,94.4 108.5,94.3 115.7,51.4 	"/>
	<polygon class="st1" points="72.7,51.3 65.5,94.3 22.5,94.3 29.7,51.4 	"/>
</g>
</svg>
