<?xml version="1.0" encoding="utf-8"?>
<!-- Generator: Adobe Illustrator 22.0.1, SVG Export Plug-In . SVG Version: 6.00 Build 0)  -->
<svg version="1.1" id="Capa_1" xmlns="http://www.w3.org/2000/svg" xmlns:xlink="http://www.w3.org/1999/xlink" x="0px" y="0px"
	 viewBox="0 0 237.3 45.3" style="enable-background:new 0 0 237.3 45.3;" xml:space="preserve">
<style type="text/css">
	.st0{fill-rule:evenodd;clip-rule:evenodd;fill:#2A2A2A;}
	.st1{fill:#2A2A2A;}
</style>
<g>
	<path class="st0" d="M127.7,24.2c0,0-2.2-1.4-3.6-1.9c0,0-4.2-1.9-5-2.9c0,0-1.6-1.5-0.7-3.3c0,0,0.4-1.2,2.1-1.2
		c0,0,2.3,0.1,2.3,2v2.6h8.1l0-3.8c0,0,0.6-6.3-9.5-6.6c0,0-8-0.5-10.3,3.8c0,0-0.9,1-0.9,4.3v2.4c0,0-0.1,2.8,1.3,4.6
		c0,0,0.8,1.2,2.8,2.5c0,0,4,2.2,6.4,3.4c0,0,2.4,1.4,2.1,3.6c0,0-0.2,2.3-2.5,2.2c0,0-2.1-0.1-2.1-2.3v-2.6h-8.6v3.8
		c0,0-0.2,7.3,10.8,7.3c0,0,10.6,0.2,11.1-7.4v-3.1C131.4,31.4,131.8,26.7,127.7,24.2L127.7,24.2z"/>
	<polygon class="st0" points="86.3,10 83.6,26.9 83,26.9 80.4,10.1 66.9,10.1 66.2,40.8 74.2,40.8 74.3,17.7 74.9,17.7 79.2,40.8 
		87.6,40.8 91.8,17.7 92.3,17.7 92.5,40.8 100.5,40.8 99.7,10 86.3,10 	"/>
	<polygon class="st0" points="38.8,10.1 33.4,40.8 42,40.8 45.2,17 45.9,17 49,40.8 57.6,40.8 52.3,10.1 38.8,10.1 	"/>
	<path class="st0" d="M219.2,23.8v4.5h2.2v4.9c0,2.4-2,2.4-2,2.4c-2.5,0-2.4-2.3-2.4-2.3V16.5c0-1.7,2.2-1.8,2.2-1.8
		c2.1,0,2.1,2.1,2.1,2.1v2.6h8.1c0.3-5-0.7-6.2-0.7-6.2c-2-4.5-9.6-4.3-9.6-4.3c-11.7,0-10.4,9-10.4,9v16.3c0.3,8.4,11.8,7.6,12,7.5
		c5.1-0.6,6.7-2.2,6.7-2.2c1.4-1.1,1.8-2.5,1.8-2.5c0.4-0.9,0.5-3.6,0.5-3.6v-9.5H219.2L219.2,23.8z"/>
	<polygon class="st0" points="192.4,28.8 192,28.8 183.8,10 174,10 174,40.9 182,40.9 181.5,22.1 181.9,22.1 190.4,40.9 199.9,40.9 
		199.9,10 191.8,10 192.4,28.8 	"/>
	<path class="st0" d="M154.5,33.2c0,0,0.1,2.5-2.2,2.5c0,0-2.5,0.1-2.5-2.5l0-23.2H141v23c0,0-0.9,8.7,11.4,8.7
		c0,0,10.7,0.1,10.7-8.3V10h-8.6V33.2L154.5,33.2z"/>
	<path class="st0" d="M22,24.2c0,0-2.2-1.4-3.6-1.9c0,0-4.2-1.9-5-2.9c0,0-1.6-1.5-0.7-3.3c0,0,0.4-1.2,2.1-1.2c0,0,2.3,0.1,2.3,2
		v2.6h8.1l0-3.9c0,0,0.6-6.3-9.5-6.6c0,0-0.8,0-1.9,0c0,0-6.1,0.3-8.3,3.7c0,0,0,0,0,0.1c0,0-0.9,1-0.9,4.3v2.4c0,0-0.1,2.8,1.3,4.6
		c0,0,0.8,1.2,2.8,2.5c0,0,4,2.2,6.4,3.4c0,0,2.4,1.4,2.1,3.6c0,0-0.2,2.3-2.5,2.2c0,0-2.1-0.1-2.1-2.3v-2.6H3.9v3.8
		c0,0-0.2,7.3,10.8,7.3c0,0,10.6,0.2,11.1-7.4v-3.1C25.8,31.4,26.1,26.7,22,24.2L22,24.2z"/>
</g>
</svg>
