<?xml version="1.0" encoding="utf-8"?>
<!-- Generator: Adobe Illustrator 22.0.1, SVG Export Plug-In . SVG Version: 6.00 Build 0)  -->
<svg version="1.1" id="Capa_1" xmlns="http://www.w3.org/2000/svg" xmlns:xlink="http://www.w3.org/1999/xlink" x="0px" y="0px"
	 viewBox="0 0 222.3 45.3" style="enable-background:new 0 0 222.3 45.3;" xml:space="preserve">
<style type="text/css">
	.st0{fill-rule:evenodd;clip-rule:evenodd;fill:#2A2A2A;}
	.st1{fill:#2A2A2A;}
</style>
<g>
	<polygon class="st0" points="140.5,37.9 149.5,37.9 149.5,5.2 140.5,5.2 140.5,37.9 	"/>
	<path class="st0" d="M157.2,37.9h17.4l2.7-0.3l2-0.6l1.6-0.9l1.3-1.4l0.9-1.4l0.7-1.6l0.2-1.8l0.3-1.6v-1.4l-0.3-1.4l-0.2-1.2
		l-0.5-0.9l-0.6-0.9l-0.4-0.7l-0.7-0.7l-0.9-0.6l1.6-1.2l0.9-1.6l0.7-1.6l0.2-2.3l-0.2-1.8l-0.5-1.6l-0.9-1.6l-1.1-1.2l-1.6-0.9
		L178,6l-2.3-0.5l-2.5-0.2h-15.9V37.9L157.2,37.9z M172.5,12.6h1.8l1.2,0.9l0.4,1l0.2,0.9l-0.2,0.9l-0.4,0.7l-0.9,0.6l-1.9,0.5
		l-6.9-0.2v-5.8L172.5,12.6L172.5,12.6z M172.5,25l1.8,0.2l1.2,0.9l0.4,0.9l0.2,1.2l-0.2,0.5l-0.4,0.9l-1.2,0.7l-1.8,0.3h-6.8V25
		H172.5L172.5,25z"/>
	<polygon class="st0" points="3.6,5.2 33,5.2 33,13.6 23.3,13.6 23.3,37.9 14,37.9 14,13.6 3.6,13.6 3.6,5.2 	"/>
	<polygon class="st0" points="105.8,37.9 113.7,37.9 113.7,24.3 124.7,24.3 124.7,37.9 132.8,37.9 132.8,5.2 124.7,5.2 124.7,16.4 
		113.7,16.4 113.7,5.2 105.8,5.2 105.8,37.9 	"/>
	<path class="st0" d="M50.4,12.3h3.9c2.5,0,4.6,1.8,4.6,4V27c0,2.2-2.1,4-4.6,4h-3.9c-2.5,0-4.6-1.8-4.6-4V16.3
		C45.8,14.1,47.8,12.3,50.4,12.3L50.4,12.3z M47.9,5.2h9.6c5.9,0,10.7,4.7,10.7,10.4v11.9c0,5.7-4.8,10.4-10.7,10.4h-9.6
		c-5.9,0-10.7-4.7-10.7-10.4V15.6C37.2,9.9,42,5.2,47.9,5.2L47.9,5.2z"/>
	<path class="st0" d="M100.8,28.4c0-1.7,0.2-4-0.8-5.8c-2.5-4.8-9.8-4.7-14.6-4.8c-2.8-0.1-4.1-0.7-4.5-2c-0.1-0.4,0-1.2,0-1.6
		c0-2.2,1.9-2.7,4.3-2.7h3.6c2.3,0,4.3,0.8,4.3,3v2h7.6V14c0.1-5.2-4.4-8.8-9.8-8.8h-8.4c-5.4,0-9.9,4.3-9.9,9.5
		c0,1.7-0.2,3.4,0.8,5.3c2.5,4.8,9.8,4.7,14.6,4.8c2.8,0.1,4.1,1.2,4.5,2.5c0.1,0.4,0,1.2,0,1.6c0,2.2-1.9,2.7-4.2,2.7h-3.6
		c-2.3,0-4.3-0.8-4.3-3v-2h-7.6v2.5c-0.1,5.2,4.4,8.8,9.8,8.8H91C96.4,37.9,100.8,33.6,100.8,28.4L100.8,28.4z"/>
	<path class="st0" d="M196.7,32.5h12.7l1.8,5.4h7.4L208.3,5.2H198l-10.4,32.6h7.2L196.7,32.5L196.7,32.5z M203,14.3h0.1l4.4,13.2
		h-9.2L203,14.3L203,14.3z"/>
</g>
</svg>
