<svg xmlns="http://www.w3.org/2000/svg" viewBox="0 0 90 85"><defs><style>.cls-1{fill:#1d90ef;}.cls-2{fill:#dbdbdb;}.cls-3{fill:#1c84c9;}</style></defs><title>icons-hogar</title><g id="Layer_1" data-name="Layer 1"><path class="cls-1" d="M23.52,32.56,22.25,61.73l.55,14L27.88,77H64.66l2.54-3.8,1.26-39.32S63.39,21.15,54.51,18.61s-1.27,0-1.27,0L36.76,17.34S22.25,25,23.52,32.56Z"/><path class="cls-2" d="M27.88,47.78,26.61,69.34l3.8,3.81H60.85l2.54-3.81v-19s-1.27-3.81-3.8-3.81S27.88,47.78,27.88,47.78Z"/><polygon class="cls-2" points="39.29 23.68 38.02 28.76 50.71 28.76 51.98 24.95 50.71 23.68 39.29 23.68"/><path class="cls-2" d="M53.24,18.61l3.81-8.88,2.54-1.27,5.07,3.81V25S58.32,17.34,53.24,18.61Z"/><path class="cls-2" d="M25.23,27.44S33,17.34,36.76,18.61h0L33,9.73,30.41,8.46,26.61,11Z"/><path class="cls-2" d="M38.45,17.47s.84-9,5.92-9S52,13.54,50.71,18.61C50.71,18.61,45.21,6.19,38.45,17.47Z"/><path class="cls-3" d="M65.68,26s-.4-14-.42-14.21a2.25,2.25,0,0,0-.2-.76,2.56,2.56,0,0,0-1.42-1.36L59.48,8a2.55,2.55,0,0,0-3.32,1.46L53.3,16.84q-.64-.16-1.32-.27V13.79a7,7,0,1,0-14,0v2.78c-.45.07-.89.16-1.33.27L33.84,9.48a2.56,2.56,0,0,0-1.36-1.42,2.52,2.52,0,0,0-2,0L26.36,9.63A2.53,2.53,0,0,0,24.94,11a2.43,2.43,0,0,0-.21.73c0,.18-.41,14.24-.41,14.24a19.67,19.67,0,0,0-2.78,10.12V73.86a4.34,4.34,0,0,0,4.32,4.33H64.14a4.34,4.34,0,0,0,4.32-4.33V36.08A19.65,19.65,0,0,0,65.68,26Zm-2.39-3.21c-.45-.49-.93-1-1.43-1.42L63.15,18Zm-5-12.44a.27.27,0,0,1,.36-.16l4.16,1.61a.29.29,0,0,1,.16.15.28.28,0,0,1,0,.22l-3,7.72A19.53,19.53,0,0,0,55.5,17.5ZM45,9.1a4.69,4.69,0,0,1,4.63,4,6.94,6.94,0,0,0-9.26,0A4.7,4.7,0,0,1,45,9.1Zm4.27,7.2H40.73a4.89,4.89,0,0,1,1-1.37,4.7,4.7,0,0,1,7.59,1.37ZM27,11.91a.27.27,0,0,1,.15-.15l4.16-1.61a.28.28,0,0,1,.37.16L34.5,17.5A19.72,19.72,0,0,0,30,19.85l-3-7.72A.32.32,0,0,1,27,11.91ZM26.85,18l1.29,3.34c-.5.45-1,.93-1.44,1.43ZM66.18,73.86a2,2,0,0,1-2,2H25.86a2,2,0,0,1-2-2V36.08a17.52,17.52,0,0,1,17.5-17.5h7.36a17.52,17.52,0,0,1,17.5,17.5V73.86Z"/><path class="cls-3" d="M29.5,45.47a3.35,3.35,0,0,0-3.35,3.35V70.35A3.35,3.35,0,0,0,29.5,73.7h31a3.35,3.35,0,0,0,3.34-3.35V48.82a3.35,3.35,0,0,0-3.34-3.35Zm31,25.94h-31a1.05,1.05,0,0,1-1.06-1.06V56H57.2v2.6h2.29V56h2.08V70.35A1.06,1.06,0,0,1,60.51,71.41Zm1.06-22.59V53.7H28.44V48.82a1.05,1.05,0,0,1,1.06-1.06h31A1.06,1.06,0,0,1,61.57,48.82Z"/><path class="cls-3" d="M52.25,23.28H37.75V29.8h14.5ZM50,27.52H40v-2H50Z"/></g></svg>