<?xml version="1.0" encoding="utf-8"?>
<!-- Generator: Adobe Illustrator 22.0.1, SVG Export Plug-In . SVG Version: 6.00 Build 0)  -->
<svg version="1.1" id="Capa_1" xmlns="http://www.w3.org/2000/svg" xmlns:xlink="http://www.w3.org/1999/xlink" x="0px" y="0px"
	 viewBox="0 0 59.7 60" style="enable-background:new 0 0 59.7 60;" xml:space="preserve">
<style type="text/css">
	.st0{fill-rule:evenodd;clip-rule:evenodd;fill:#2C3438;}
	.st1{fill-rule:evenodd;clip-rule:evenodd;fill:#CACACE;}
	.st2{fill-rule:evenodd;clip-rule:evenodd;fill:#191A1B;}
	.st3{fill-rule:evenodd;clip-rule:evenodd;fill:#A8A8B1;stroke:#7F7F84;stroke-miterlimit:10;}
	.st4{fill-rule:evenodd;clip-rule:evenodd;fill:#97979A;}
	.st5{fill-rule:evenodd;clip-rule:evenodd;fill:#DCDCE5;}
	.st6{fill:#FFFFFF;}
	.st7{fill:#2C3438;}
	.st8{opacity:0.5;fill:#A8A8B1;stroke:#7F7F84;stroke-miterlimit:10;}
	.st9{fill-rule:evenodd;clip-rule:evenodd;fill:#B3B3BB;}
	.st10{fill:#191A1B;}
	.st11{fill:#C12A21;}
</style>
<g>
	<path class="st7" d="M50.2,19.5l2.3-5.4c-0.1-0.7-0.1-1.4,0-2.1l-6.4-5.4l-5,3l-5-2l-2-6h-9l-2,7L19.7,10l-5.5-3.5L7,12.8
		c0.1,0.6,0.1,1.1,0,1.7l3.2,4L8.7,23l-7,2v9l7.5,2.5l1,3l-3,6l5,7l4-1l3-2l4,2l2,6h8l2-1l1.5-5.5l3.5-1.5l4.5,3c0.1,0,0.2,0,0.2,0
		c0.7,0,1.3,0.1,1.9,0.3l6.3-6.3l-3-7l1-3l6.5-2.5v-9l-7-2L50.2,19.5z M30.2,44.5c-8.3,0-15-6.7-15-15c0-8.3,6.7-15,15-15
		s15,6.7,15,15C45.2,37.8,38.5,44.5,30.2,44.5z"/>
	<path class="st8" d="M30.2,14.5c-8.3,0-15,6.7-15,15c0,8.3,6.7,15,15,15s15-6.7,15-15C45.2,21.2,38.5,14.5,30.2,14.5z M30.2,35.5
		c-3.3,0-6-2.7-6-6s2.7-6,6-6s6,2.7,6,6S33.5,35.5,30.2,35.5z"/>
	<g>
		<path class="st2" d="M37.6,8.1L39.7,9l0,0v0c0.1,0.1,0.3,0.1,0.4,0.1c0.1,0,0.3,0,0.4-0.1l4.6-2.4c0.4-0.2,0.9-0.3,1.4-0.2
			C47,6.4,47.4,6.7,47.8,7v0l0,0l4.8,4.8c0.3,0.3,0.6,0.8,0.6,1.2c0.1,0.5,0,0.9-0.2,1.4L50.6,19c-0.1,0.1-0.1,0.3-0.1,0.4
			c0,0.1,0,0.3,0.1,0.4l0.9,2.2c0.1,0.1,0.1,0.3,0.2,0.3c0.1,0.1,0.2,0.2,0.4,0.2l4.9,1.6c0.5,0.2,0.9,0.4,1.1,0.8l0,0
			c0.3,0.4,0.4,0.8,0.4,1.3v6.8c0,0.5-0.2,0.9-0.4,1.3v0l0,0c-0.3,0.4-0.7,0.7-1.1,0.8l-4.9,1.6c-0.1,0-0.3,0.1-0.4,0.2
			c-0.1,0.1-0.2,0.2-0.2,0.3l0,0l-0.9,2.2c-0.1,0.1-0.1,0.3-0.1,0.4c0,0.1,0,0.3,0.1,0.4L53,45c0.2,0.4,0.3,0.9,0.2,1.4
			c-0.1,0.5-0.3,0.9-0.6,1.2l-4.8,4.8C47.4,52.7,47,53,46.5,53c-0.5,0.1-0.9,0-1.4-0.2l-4.6-2.4c-0.1-0.1-0.3-0.1-0.4-0.1
			c-0.1,0-0.3,0-0.4,0.1l-2.2,0.9c-0.1,0.1-0.3,0.1-0.3,0.2c-0.1,0.1-0.2,0.2-0.2,0.4l-1.6,4.9v0l0,0c-0.2,0.5-0.4,0.9-0.8,1.1
			c-0.4,0.3-0.8,0.4-1.3,0.4h-6.8c-0.5,0-0.9-0.2-1.3-0.4c-0.4-0.3-0.7-0.7-0.8-1.1l0,0l-1.6-4.9c0-0.1-0.1-0.3-0.2-0.4
			c-0.1-0.1-0.2-0.2-0.3-0.2l0,0L20,50.4c-0.1-0.1-0.3-0.1-0.4-0.1c-0.1,0-0.3,0-0.4,0.1l-4.6,2.4c-0.4,0.2-0.9,0.3-1.4,0.2
			c-0.5-0.1-0.9-0.3-1.2-0.6l-4.8-4.8l0,0c-0.3-0.3-0.5-0.8-0.6-1.2c-0.1-0.5,0-0.9,0.2-1.4l2.4-4.6c0.1-0.1,0.1-0.3,0.1-0.4
			c0-0.1,0-0.3-0.1-0.4l-0.9-2.2C8.2,37.2,8.1,37.1,8,37c-0.1-0.1-0.2-0.2-0.4-0.2l-4.9-1.6c-0.5-0.2-0.9-0.4-1.1-0.8l0,0
			c-0.3-0.4-0.4-0.8-0.4-1.3v-6.8c0-0.5,0.2-0.9,0.4-1.3h0h0c0.3-0.4,0.7-0.7,1.1-0.8l4.9-1.6l0,0c0.1,0,0.3-0.1,0.4-0.2
			c0.1-0.1,0.2-0.2,0.2-0.3l0.9-2.2c0.1-0.1,0.1-0.3,0.1-0.4c0-0.1,0-0.3-0.1-0.4l-2.4-4.6c-0.2-0.4-0.3-0.9-0.2-1.4
			c0.1-0.5,0.3-0.9,0.6-1.2l0,0L12,7c0.3-0.3,0.8-0.6,1.2-0.6c0.5-0.1,0.9,0,1.4,0.2L19.2,9c0.1,0.1,0.3,0.1,0.4,0.1
			c0.1,0,0.3,0,0.4-0.1v0l2.2-0.9l0,0C22.4,8,22.5,8,22.6,7.9c0.1-0.1,0.2-0.2,0.2-0.4l0,0l1.6-4.9v0l0,0c0.1-0.5,0.4-0.9,0.8-1.1
			C25.5,1.2,26,1,26.5,1h6.8c0.5,0,0.9,0.2,1.3,0.4c0.4,0.3,0.7,0.7,0.8,1.1l0,0L37,7.5c0,0.1,0.1,0.3,0.2,0.4
			C37.3,8,37.4,8,37.6,8.1L37.6,8.1L37.6,8.1z M29.9,43.8c3.9,0,7.4-1.6,10-4.1c2.6-2.6,4.1-6.1,4.1-10c0-3.9-1.6-7.4-4.1-10
			c-2.6-2.6-6.1-4.1-10-4.1c-3.9,0-7.4,1.6-10,4.1c-2.6,2.6-4.1,6.1-4.1,10c0,3.9,1.6,7.4,4.1,10C22.5,42.2,26,43.8,29.9,43.8
			L29.9,43.8z M40.8,40.6c2.8-2.8,4.5-6.6,4.5-10.9s-1.7-8.1-4.5-10.9c-2.8-2.8-6.6-4.5-10.9-4.5c-4.3,0-8.1,1.7-10.9,4.5
			c-2.8,2.8-4.5,6.6-4.5,10.9s1.7,8.1,4.5,10.9c2.8,2.8,6.6,4.5,10.9,4.5C34.1,45.1,38,43.4,40.8,40.6L40.8,40.6z M39.3,10.2
			l-2.2-0.9l0,0c-0.3-0.1-0.6-0.3-0.8-0.6c-0.2-0.2-0.4-0.5-0.5-0.8L34.2,3l0,0c-0.1-0.2-0.2-0.4-0.3-0.5c-0.2-0.1-0.4-0.2-0.6-0.2
			h-6.8c-0.2,0-0.4,0.1-0.6,0.2c-0.2,0.1-0.3,0.3-0.3,0.5l0,0L24,7.9l0,0c-0.1,0.3-0.3,0.6-0.5,0.8c-0.2,0.2-0.5,0.4-0.8,0.5l0,0
			l-2.2,0.9h0l0,0c-0.3,0.1-0.6,0.2-0.9,0.2c-0.3,0-0.6-0.1-0.9-0.3L14,7.7c-0.2-0.1-0.4-0.1-0.6-0.1c-0.2,0-0.4,0.1-0.5,0.3
			l-4.8,4.8l0,0l0,0c-0.2,0.2-0.2,0.3-0.3,0.5c0,0.2,0,0.4,0.1,0.6l2.4,4.6c0.2,0.3,0.2,0.6,0.3,0.9c0,0.3,0,0.6-0.2,0.9l-0.9,2.2
			c-0.1,0.3-0.3,0.6-0.6,0.8c-0.2,0.2-0.5,0.4-0.8,0.5l0,0l0,0l-4.9,1.6c-0.2,0.1-0.4,0.2-0.5,0.3v0c-0.1,0.2-0.2,0.4-0.2,0.6v6.8
			c0,0.2,0.1,0.4,0.2,0.5l0,0c0.1,0.2,0.3,0.3,0.5,0.3l4.9,1.6c0.3,0.1,0.6,0.3,0.8,0.5c0.2,0.2,0.4,0.5,0.6,0.8l0.9,2.2
			c0.1,0.3,0.2,0.6,0.2,1c0,0.3-0.1,0.6-0.3,0.9l-2.4,4.6c-0.1,0.2-0.1,0.4-0.1,0.6c0,0.2,0.1,0.4,0.3,0.5l0,0l4.8,4.8
			c0.2,0.2,0.3,0.2,0.5,0.3c0.2,0,0.4,0,0.6-0.1l4.6-2.4c0.3-0.2,0.6-0.2,0.9-0.3c0.3,0,0.6,0,0.9,0.2l2.2,0.9l0,0
			c0.3,0.1,0.6,0.3,0.8,0.6c0.2,0.2,0.4,0.5,0.5,0.8l1.6,4.9l0,0c0.1,0.2,0.2,0.4,0.3,0.5c0.2,0.1,0.4,0.2,0.6,0.2h6.8
			c0.2,0,0.4-0.1,0.6-0.2c0.2-0.1,0.3-0.3,0.3-0.5l0,0l1.6-4.9c0.1-0.3,0.3-0.6,0.5-0.8c0.2-0.2,0.5-0.4,0.8-0.6l2.2-0.9
			c0.3-0.1,0.6-0.2,0.9-0.2c0.3,0,0.6,0.1,0.9,0.3l4.6,2.4c0.2,0.1,0.4,0.1,0.6,0.1c0.2,0,0.4-0.1,0.5-0.3l4.8-4.8
			c0.2-0.2,0.2-0.3,0.3-0.5c0-0.2,0-0.4-0.1-0.6L49.5,41c-0.2-0.3-0.2-0.6-0.3-0.9c0-0.3,0-0.6,0.2-1l0.9-2.2l0,0
			c0.1-0.3,0.3-0.6,0.6-0.8c0.2-0.2,0.5-0.4,0.8-0.5l4.9-1.6c0.2-0.1,0.4-0.2,0.5-0.3v0c0.1-0.2,0.2-0.4,0.2-0.6v-6.8
			c0-0.2-0.1-0.4-0.2-0.6l0,0h0c-0.1-0.2-0.3-0.3-0.5-0.3l-4.9-1.6c-0.3-0.1-0.6-0.3-0.8-0.5c-0.2-0.2-0.4-0.5-0.6-0.8l-0.9-2.2
			c-0.1-0.3-0.2-0.6-0.2-0.9s0.1-0.6,0.3-0.9l2.4-4.6c0.1-0.2,0.1-0.4,0.1-0.6c0-0.2-0.1-0.4-0.3-0.5l-4.8-4.8v0
			c-0.2-0.2-0.3-0.2-0.5-0.3c-0.2,0-0.4,0-0.6,0.1l-4.6,2.4c-0.3,0.2-0.6,0.2-0.9,0.3C39.9,10.4,39.6,10.3,39.3,10.2L39.3,10.2
			L39.3,10.2z M35.4,2.6 M29.9,23.3c-1.8,0-3.4,0.7-4.5,1.9l0,0l0,0c-1.2,1.2-1.9,2.8-1.9,4.5c0,1.7,0.7,3.3,1.8,4.5l0,0
			c1.2,1.2,2.8,1.9,4.5,1.9c1.7,0,3.3-0.7,4.5-1.8l0,0c1.2-1.2,1.9-2.8,1.9-4.5s-0.7-3.4-1.9-4.5C33.3,24,31.6,23.3,29.9,23.3
			L29.9,23.3z M33.5,26.1c-0.9-0.9-2.2-1.5-3.6-1.5s-2.7,0.6-3.6,1.5l0,0c-0.9,0.9-1.5,2.2-1.5,3.6c0,1.4,0.6,2.7,1.5,3.6l0,0
			c0.9,0.9,2.2,1.5,3.6,1.5c1.4,0,2.7-0.6,3.6-1.5l0,0c0.9-0.9,1.5-2.2,1.5-3.6C35,28.3,34.4,27,33.5,26.1z"/>
	</g>
</g>
</svg>
