<?xml version="1.0" encoding="utf-8"?>
<!-- Generator: Adobe Illustrator 22.1.0, SVG Export Plug-In . SVG Version: 6.00 Build 0)  -->
<svg version="1.1" id="Capa_1" xmlns="http://www.w3.org/2000/svg" xmlns:xlink="http://www.w3.org/1999/xlink" x="0px" y="0px"
	 viewBox="0 0 95 93.6" style="enable-background:new 0 0 95 93.6;" xml:space="preserve">
<style type="text/css">
	.st0{fill:#DCDCE5;}
	.st1{fill:#FFFFFF;}
	.st2{fill:#2C3438;}
	.st3{fill:#C9C9D1;}
	.st4{fill:#191A1B;}
</style>
<g>
	<path class="st0" d="M3.8,76.3L21,91.8l6.9-5.2l36.1-37.8c0,0,30.9,3.4,27.5-30.9L75.9,31.6l-10.3-1.7l-3.4-12L77.6,4.2
		c0,0-32.6-3.4-30.9,25.8L5.5,69.4C5.5,69.4,2.1,74.6,3.8,76.3z"/>
	<polygon class="st1" points="22.7,64.3 14.1,72.9 21,83.2 31.3,72.9 	"/>
	<polygon class="st2" points="51,63.4 75.1,87.5 83.7,80.6 58.9,54.1 	"/>
	<polygon class="st2" points="45.9,68.6 51,61.7 75.9,88.3 69.1,91.8 	"/>
	<polygon class="st2" points="60,55.2 82.8,79.7 86.2,76.3 86.2,71.1 63.9,48.8 	"/>
	<polygon class="st3" points="34.2,43.7 39.5,38.7 26.1,24.8 26.1,19.6 8.9,5.9 3.8,12.7 15.8,29.9 21,29.9 	"/>
	<g>
		<path class="st4" d="M32.5,42.5L20.1,30.1l-4.5,0.2c-0.3,0-0.7-0.2-0.9-0.3L1.6,13.6c-0.3-0.5-0.3-1.2,0.2-1.5l7-7
			c0.3-0.3,1-0.5,1.5,0l16.3,13.2c0.3,0.2,0.5,0.5,0.3,0.9l-0.2,4.5l12.4,12.4l7-7c-0.5-3.6-0.2-7.2,0.9-10.5
			c1.2-3.4,3.1-6.7,5.8-9.4l0,0c3.4-3.4,7.6-5.5,11.9-6.5c4.5-1,9.1-0.7,13.6,1C78.9,3.6,79.2,4.3,79,5c0,0.2-0.2,0.3-0.3,0.3l0,0
			L64.8,19.3l2.7,8.8l8.8,2.7l13.9-13.9c0.5-0.5,1.2-0.5,1.5,0c0.2,0.2,0.2,0.3,0.3,0.5c1.7,4.3,2.1,8.9,1,13.4
			c-0.9,4.3-3.1,8.4-6.5,11.9c-2.7,2.7-6,4.6-9.4,5.8c-3.6,1.2-7.4,1.4-11,0.9l0,0l20.4,20.4l0,0c0.9,1.4,1.5,3.1,1.5,4.8
			c0,1.7-0.7,3.4-2.1,4.8l-1.4,1.4l0,0l-7.6,7.7l-1.4,1.4l0,0c-1.4,1.2-3.1,1.9-4.8,1.9c-1.7,0-3.4-0.7-4.8-2.1L45.9,69.4L25.8,89.7
			c-0.7,0.7-1.4,1.2-2.2,1.5c-0.9,0.3-1.7,0.5-2.6,0.5c-0.9,0-1.9-0.2-2.6-0.5c-0.9-0.3-1.5-0.9-2.2-1.5L5.5,79
			c-1.4-1.4-2.1-3.1-2.1-4.8s0.7-3.4,2.1-4.8l0,0l0,0L32.5,42.5L32.5,42.5z M52.7,62.4l23.5,23.5l6.2-6.2L58.9,56.2L52.7,62.4
			L52.7,62.4z M74.7,87.6L51.2,64.1l-2.4,2.6l-1.4,1.4l20.3,20.3c0.9,0.9,2.1,1.4,3.3,1.4c1.2,0,2.2-0.3,3.1-1.2l0,0L74.7,87.6
			L74.7,87.6z M50.2,61.9c0-0.2,0.2-0.2,0.2-0.3l7.7-7.7l0,0l0,0l5.3-5.3l0,0l1.4-1.4c0.3-0.3,1-0.5,1.5-0.2l0,0
			c3.3,0.5,6.7,0.2,9.8-0.9c3.1-1,6-2.7,8.6-5.3c3.1-3.1,5-6.9,5.8-10.7c0.7-3.4,0.7-7-0.3-10.5L77.1,32.8l0,0
			c-0.3,0.3-0.7,0.3-1.2,0.3l-10-3.1l0,0c-0.3-0.2-0.7-0.3-0.7-0.7l-3.1-10c-0.2-0.3,0-0.9,0.2-1.2L75.4,5.2c-3.4-1-7-1.2-10.5-0.3
			c-4,0.9-7.7,2.7-10.7,5.8l0,0l0,0c-2.6,2.6-4.3,5.5-5.3,8.6c-1,3.3-1.4,6.7-0.7,10c0,0.3,0,0.7-0.3,1l0,0l-8.2,8.2l-4.8,4.8l0,0
			L7,71l0,0c-0.9,0.9-1.4,2.1-1.4,3.3c0,1.2,0.5,2.4,1.4,3.3l10.7,10.7c0.5,0.5,1,0.9,1.5,1s1.2,0.3,1.7,0.3c0.7,0,1.2-0.2,1.7-0.3
			s1-0.5,1.5-1l20.8-21l0,0l0,0L50.2,61.9L50.2,61.9z M60.5,54.7L84,78.4l0.5-0.5c0.9-0.9,1.4-2.1,1.4-3.3c0-1.2-0.3-2.2-1.2-3.1
			l0,0L64.1,50.9L60.5,54.7L60.5,54.7z M14.4,73l7.9,7.9l7.9-7.9l-7.9-7.9L14.4,73L14.4,73z M21.5,83.3c0.5,0.5,1.2,0.5,1.5,0
			l9.4-9.4c0.5-0.5,0.5-1.2,0-1.5L23,62.9c-0.5-0.5-1.2-0.5-1.5,0L12,72.3c-0.5,0.5-0.5,1.2,0,1.5L21.5,83.3L21.5,83.3z M21.3,28.2
			L34,40.9l3.3-3.3L24.6,24.9c-0.2-0.2-0.3-0.5-0.3-0.9l0.2-4.5L9.3,7.4l-5.7,5.7l12.2,15.1l4.5-0.2C20.8,27.9,21.1,27.9,21.3,28.2
			L21.3,28.2z M10,4.8L10,4.8L10,4.8z"/>
	</g>
</g>
</svg>
