<?xml version="1.0" encoding="utf-8"?>
<!-- Generator: Adobe Illustrator 22.1.0, SVG Export Plug-In . SVG Version: 6.00 Build 0)  -->
<svg version="1.1" id="Capa_1" xmlns="http://www.w3.org/2000/svg" xmlns:xlink="http://www.w3.org/1999/xlink" x="0px" y="0px"
	 viewBox="0 0 164.7 57" style="enable-background:new 0 0 164.7 57;" xml:space="preserve">
<style type="text/css">
	.st0{fill:#C12A21;}
	.st1{enable-background:new    ;}
	.st2{fill:#FFFFFF;}
</style>
<g>
	<path class="st0" d="M132.1,53.9H5.5V31.4C5.5,16.3,17.8,4,33,4h126.6v22.4C159.6,41.6,147.3,53.9,132.1,53.9z"/>
	<g>
		<g class="st1">
			<path class="st2" d="M50.6,24.1h1.6L46.6,37h-1.3l-5.5-12.9h1.6l4.6,11L50.6,24.1z"/>
			<path class="st2" d="M63.9,25.4h-7.8v4.4h7v1.3h-7v4.5H64v1.3h-9.4V24.1h9.3V25.4z"/>
			<path class="st2" d="M75.8,36.9l-3.7-5h-3.7v5h-1.4V24.1h5.5c0.7,0,1.3,0.1,1.9,0.3s1.1,0.4,1.5,0.8s0.7,0.7,0.9,1.2
				c0.2,0.5,0.3,1,0.3,1.6c0,0.5-0.1,1-0.3,1.4c-0.2,0.4-0.4,0.8-0.7,1.1c-0.3,0.3-0.7,0.6-1.1,0.8c-0.4,0.2-0.9,0.4-1.4,0.4
				l3.9,5.2H75.8z M74.8,26.1c-0.6-0.4-1.4-0.7-2.4-0.7h-4v5.2h3.9c0.5,0,0.9-0.1,1.3-0.2c0.4-0.1,0.8-0.3,1-0.5
				c0.3-0.2,0.5-0.5,0.7-0.8c0.2-0.3,0.2-0.7,0.2-1.1C75.6,27.2,75.4,26.5,74.8,26.1z"/>
			<path class="st2" d="M91.8,33.4L91.8,33.4l-4.7-6.9v10.4h-1.4V24.1h1.5l4.7,7l4.7-7H98v12.8h-1.4V26.5L91.8,33.4z"/>
			<path class="st2" d="M113.5,36.9H112l-1.5-3.4h-7l-1.5,3.4h-1.5l5.8-12.9h1.4L113.5,36.9z M107,25.7l-2.9,6.5h5.8L107,25.7z
				 M106.5,22.9l1.7-2.7l1.5,0.7l-2.1,2H106.5z"/>
			<path class="st2" d="M117.3,28.1c0.1,0.2,0.3,0.5,0.5,0.7c0.3,0.2,0.6,0.4,1.1,0.6c0.5,0.2,1,0.3,1.7,0.5
				c1.4,0.3,2.5,0.8,3.2,1.3c0.7,0.6,1,1.3,1,2.3c0,0.6-0.1,1.1-0.3,1.5c-0.2,0.5-0.5,0.8-0.9,1.2c-0.4,0.3-0.8,0.6-1.4,0.7
				c-0.5,0.2-1.1,0.3-1.8,0.3c-1,0-2-0.2-2.8-0.5s-1.7-0.8-2.4-1.5l0.9-1.1c0.7,0.6,1.3,1.1,2,1.4c0.7,0.3,1.5,0.4,2.4,0.4
				c0.9,0,1.6-0.2,2.1-0.6c0.5-0.4,0.8-0.9,0.8-1.6c0-0.3,0-0.6-0.1-0.8s-0.3-0.5-0.5-0.7c-0.2-0.2-0.6-0.4-1-0.5s-1-0.3-1.7-0.5
				c-0.7-0.2-1.4-0.3-1.9-0.5s-1-0.5-1.4-0.8c-0.4-0.3-0.6-0.6-0.8-1c-0.2-0.4-0.3-0.9-0.3-1.4c0-0.5,0.1-1,0.3-1.4
				c0.2-0.4,0.5-0.8,0.9-1.1c0.4-0.3,0.8-0.6,1.3-0.7c0.5-0.2,1.1-0.3,1.7-0.3c0.9,0,1.8,0.1,2.5,0.4c0.7,0.3,1.4,0.6,2,1.2
				l-0.8,1.1c-0.6-0.5-1.2-0.8-1.8-1.1c-0.6-0.2-1.2-0.3-1.9-0.3c-0.4,0-0.8,0.1-1.1,0.2c-0.3,0.1-0.6,0.3-0.9,0.4
				c-0.2,0.2-0.4,0.4-0.5,0.7c-0.1,0.3-0.2,0.5-0.2,0.8C117.2,27.6,117.2,27.9,117.3,28.1z"/>
		</g>
	</g>
</g>
</svg>
