<svg xmlns="http://www.w3.org/2000/svg" viewBox="0 0 90 85"><defs><style>.cls-1{fill:#1d90ef;}.cls-2{fill:#cacace;}.cls-3{fill:#1c84c9;}</style></defs><title>icons-hogar</title><g id="Layer_1" data-name="Layer 1"><path class="cls-1" d="M14.5,50.87h60s-9,9-28,11C46.5,61.87,14.5,58.87,14.5,50.87Z"/><polygon class="cls-2" points="15.5 8.87 7.5 50.87 72.15 50.87 82.5 50.87 72.5 9.87 15.5 8.87"/><path class="cls-3" d="M74.78,10.65a2.69,2.69,0,0,0-2.93-2.36H16.1a2.7,2.7,0,0,0-2.93,2.36L5.5,50.34A2.69,2.69,0,0,0,8.43,52.7h4.45c2,1.42,15.3,10,32.39,10a49.56,49.56,0,0,0,29.83-10h6.47a2.7,2.7,0,0,0,2.93-2.36ZM16.72,52.7h54.8C48,68.09,24.73,57.34,16.72,52.7ZM9,49.86l7.67-38.73H71.26L81,49.86Z"/><polygon class="cls-3" points="33.12 13.98 19.31 13.98 16.75 23 33.12 23 33.12 13.98"/><rect class="cls-3" x="36.85" y="13.98" width="16.36" height="9.03"/><polygon class="cls-3" points="56.81 13.98 56.81 23 72.15 23 69.59 13.98 56.81 13.98"/><polygon class="cls-3" points="14.26 34.96 33.19 34.96 33.19 25.93 16.82 25.93 14.26 34.96"/><rect class="cls-3" x="36.92" y="25.93" width="16.36" height="9.03"/><polygon class="cls-3" points="56.88 34.96 74.78 34.96 72.22 25.93 56.88 25.93 56.88 34.96"/><polygon class="cls-3" points="12.22 47.01 33.19 47.01 33.19 37.99 14.78 37.99 12.22 47.01"/><rect class="cls-3" x="36.92" y="37.99" width="16.36" height="9.03"/><polygon class="cls-3" points="56.88 37.99 56.88 47.01 77.33 47.01 74.78 37.99 56.88 37.99"/><path class="cls-3" d="M44,66.26H32a1,1,0,0,0-1,1v8.41a1,1,0,0,0,1,1H60a1,1,0,0,0,1-1V67.28a1,1,0,0,0-1-1H47.71V62.74H44Z"/></g></svg>