<?xml version="1.0" encoding="utf-8"?>
<!-- Generator: Adobe Illustrator 22.1.0, SVG Export Plug-In . SVG Version: 6.00 Build 0)  -->
<svg version="1.1" id="Capa_1" xmlns="http://www.w3.org/2000/svg" xmlns:xlink="http://www.w3.org/1999/xlink" x="0px" y="0px"
	 viewBox="0 0 92 106" style="enable-background:new 0 0 92 106;" xml:space="preserve">
<style type="text/css">
	.st0{fill:#ffffff;}
	.st1{fill:#ffffff;stroke:#ffffff;stroke-width:2;stroke-miterlimit:10;}
	.st2{fill:#ffffff;}
</style>
<g>
	<path class="st2" d="M88.2,28.3c-0.1-2.8-0.1-5.4-0.1-7.9c0-2-1.6-3.6-3.6-3.6C69.3,16.8,57.7,12.4,48,3c-1.4-1.3-3.6-1.3-5,0
		c-9.7,9.4-21.3,13.8-36.6,13.8c-2,0-3.6,1.6-3.6,3.6c0,2.5,0,5.1-0.1,7.9C2.3,53.9,1.6,89,44.3,103.8c0.4,0.1,0.8,0.2,1.2,0.2
		c0.4,0,0.8-0.1,1.2-0.2C89.4,89,88.7,53.9,88.2,28.3z M45.5,96.6C8.8,83.3,9.4,54.2,9.9,28.4c0-1.5,0.1-3,0.1-4.5
		c14.3-0.6,25.7-4.9,35.5-13.5C55.3,19,66.7,23.3,81,23.9c0,1.5,0,3,0.1,4.5C81.6,54.2,82.1,83.3,45.5,96.6z"/>
	<path class="st2" d="M57.8,40.6L40.6,57.8l-7.4-7.4c-1.4-1.4-3.7-1.4-5,0c-1.4,1.4-1.4,3.7,0,5l9.9,9.9c0.7,0.7,1.6,1,2.5,1
		s1.8-0.3,2.5-1l19.8-19.8c1.4-1.4,1.4-3.7,0-5C61.4,39.2,59.2,39.2,57.8,40.6z"/>
</g>
</svg>
