<?xml version="1.0" encoding="utf-8"?>
<!-- Generator: Adobe Illustrator 22.1.0, SVG Export Plug-In . SVG Version: 6.00 Build 0)  -->
<svg version="1.1" id="Capa_1" xmlns="http://www.w3.org/2000/svg" xmlns:xlink="http://www.w3.org/1999/xlink" x="0px" y="0px"
	 viewBox="0 0 105 106" style="enable-background:new 0 0 105 106;" xml:space="preserve">
<style type="text/css">
	.st0{fill:#78CBDA;}
	.st1{fill:#606060;stroke:#606060;stroke-width:2;stroke-miterlimit:10;}
	.st2{fill:#606060;}
</style>
<g>
	<path class="st1" d="M52.5,37.4c8.5,0,15.3,6.9,15.3,15.3S61,68.1,52.5,68.1s-15.3-6.9-15.3-15.3S44,37.4,52.5,37.4 M52.5,34
		c-10.4,0-18.8,8.4-18.8,18.8s8.4,18.8,18.8,18.8s18.8-8.4,18.8-18.8S62.9,34,52.5,34L52.5,34z"/>
	<g>
		<g>
			<g>
				<path class="st1" d="M52.5,83.7c4,0,7.3,3.3,7.3,7.3c0,4-3.3,7.3-7.3,7.3S45.2,95,45.2,91C45.2,87,48.5,83.7,52.5,83.7
					 M52.5,80.3c-5.9,0-10.7,4.8-10.7,10.7c0,5.9,4.8,10.7,10.7,10.7c5.9,0,10.7-4.8,10.7-10.7C63.2,85.1,58.4,80.3,52.5,80.3
					L52.5,80.3z"/>
				<rect x="51" y="71.5" class="st1" width="3.4" height="11.7"/>
			</g>
			<g>
				<path class="st1" d="M52.5,7.7c4,0,7.3,3.3,7.3,7.3s-3.3,7.3-7.3,7.3S45.2,19,45.2,15S48.5,7.7,52.5,7.7 M52.5,4.3
					c-5.9,0-10.7,4.8-10.7,10.7s4.8,10.7,10.7,10.7c5.9,0,10.7-4.8,10.7-10.7S58.4,4.3,52.5,4.3L52.5,4.3z"/>
				<rect x="51" y="25.2" class="st1" width="3.4" height="11.7"/>
			</g>
		</g>
		<g>
			<g>
				<path class="st1" d="M14.5,45.7c4,0,7.3,3.3,7.3,7.3s-3.3,7.3-7.3,7.3S7.2,57,7.2,53S10.5,45.7,14.5,45.7 M14.5,42.3
					C8.6,42.3,3.8,47.1,3.8,53s4.8,10.7,10.7,10.7c5.9,0,10.7-4.8,10.7-10.7S20.4,42.3,14.5,42.3L14.5,42.3z"/>
				<rect x="22.3" y="51.5" class="st1" width="11.7" height="3.4"/>
			</g>
			<g>
				<path class="st1" d="M90.5,45.7c4,0,7.3,3.3,7.3,7.3s-3.3,7.3-7.3,7.3c-4,0-7.3-3.3-7.3-7.3S86.5,45.7,90.5,45.7 M90.5,42.3
					c-5.9,0-10.7,4.8-10.7,10.7s4.8,10.7,10.7,10.7c5.9,0,10.7-4.8,10.7-10.7S96.4,42.3,90.5,42.3L90.5,42.3z"/>
				<rect x="68.6" y="51.5" class="st1" width="11.7" height="3.4"/>
			</g>
		</g>
	</g>
	<g>
		<path class="st1" d="M72.1,71.1c0.9,0,1.8,0.4,2.5,1c0.7,0.7,1,1.5,1,2.5c0,0.9-0.4,1.8-1,2.5c-0.7,0.7-1.5,1-2.5,1
			c-0.9,0-1.8-0.4-2.5-1c-1.4-1.4-1.4-3.6,0-4.9C70.3,71.5,71.2,71.1,72.1,71.1 M72.1,67.7c-1.8,0-3.5,0.7-4.9,2
			c-2.7,2.7-2.7,7,0,9.7c1.3,1.3,3.1,2,4.9,2s3.5-0.7,4.9-2c2.7-2.7,2.7-7,0-9.7C75.6,68.4,73.9,67.7,72.1,67.7L72.1,67.7z"/>
		
			<rect x="64.3" y="64.6" transform="matrix(0.7071 -0.7071 0.7071 0.7071 -28.9662 66.6758)" class="st1" width="3.4" height="7.5"/>
	</g>
	<g>
		<path class="st1" d="M29.3,28.3c0.9,0,1.8,0.4,2.5,1c0.7,0.7,1,1.5,1,2.5s-0.4,1.8-1,2.5c-0.7,0.7-1.5,1-2.5,1
			c-0.9,0-1.8-0.4-2.5-1c-1.4-1.4-1.4-3.6,0-4.9C27.5,28.7,28.4,28.3,29.3,28.3 M29.3,24.9c-1.8,0-3.5,0.7-4.9,2
			c-2.7,2.7-2.7,7,0,9.7c1.3,1.3,3.1,2,4.9,2c1.8,0,3.5-0.7,4.9-2c2.7-2.7,2.7-7,0-9.7C32.9,25.6,31.1,24.9,29.3,24.9L29.3,24.9z"/>
		<rect x="35" y="35.2" transform="matrix(0.7071 -0.7071 0.7071 0.7071 -16.797 37.4009)" class="st1" width="3.4" height="7.5"/>
	</g>
	<g>
		<path class="st1" d="M32.5,71.8c0.9,0,1.8,0.4,2.5,1c0.7,0.7,1,1.5,1,2.5c0,0.9-0.4,1.8-1,2.5c-0.7,0.7-1.5,1-2.5,1
			c-0.9,0-1.8-0.4-2.5-1c-1.4-1.4-1.4-3.6,0-4.9C30.7,72.2,31.6,71.8,32.5,71.8 M32.5,68.4c-1.8,0-3.5,0.7-4.9,2
			c-2.7,2.7-2.7,7,0,9.7c1.3,1.3,3.1,2,4.9,2c1.8,0,3.5-0.7,4.9-2c2.7-2.7,2.7-7,0-9.7C36,69.1,34.3,68.4,32.5,68.4L32.5,68.4z"/>
		<rect x="35" y="67.5" transform="matrix(0.707 -0.7072 0.7072 0.707 -37.5645 47.687)" class="st1" width="7.5" height="3.4"/>
	</g>
	<g>
		<path class="st1" d="M75.5,28.8c0.9,0,1.8,0.4,2.5,1c0.7,0.7,1,1.5,1,2.5c0,0.9-0.4,1.8-1,2.5c-0.7,0.7-1.5,1-2.5,1
			c-0.9,0-1.8-0.4-2.5-1c-1.4-1.4-1.4-3.6,0-4.9C73.7,29.2,74.6,28.8,75.5,28.8 M75.5,25.4c-1.8,0-3.5,0.7-4.9,2
			c-2.7,2.7-2.7,7,0,9.7c1.3,1.3,3.1,2,4.9,2c1.8,0,3.5-0.7,4.9-2c2.7-2.7,2.7-7,0-9.7C79.1,26.1,77.3,25.4,75.5,25.4L75.5,25.4z"/>
		<rect x="64.6" y="38" transform="matrix(0.707 -0.7072 0.7072 0.707 -8.042 59.957)" class="st1" width="7.5" height="3.4"/>
	</g>
</g>
</svg>
