<?xml version="1.0" encoding="utf-8"?>
<!-- Generator: Adobe Illustrator 22.1.0, SVG Export Plug-In . SVG Version: 6.00 Build 0)  -->
<svg version="1.1" id="Layer_1" xmlns="http://www.w3.org/2000/svg" xmlns:xlink="http://www.w3.org/1999/xlink" x="0px" y="0px"
	 viewBox="0 0 110.5 110.5" style="enable-background:new 0 0 110.5 110.5;" xml:space="preserve">
<style type="text/css">
	.st0{fill:#1B92B2;}
</style>
<g>
	<path class="st0" d="M38.2,104.7c-0.8,0-1.5-0.7-1.5-1.5V84.7h-11v18.5c0,0.8-0.7,1.5-1.5,1.5s-1.5-0.7-1.5-1.5v-20
		c0-0.8,0.7-1.5,1.5-1.5h14c0.8,0,1.5,0.7,1.5,1.5v20C39.7,104.1,39.1,104.7,38.2,104.7z"/>
	<path class="st0" d="M102.2,105.7h-78c-0.8,0-1.5-0.7-1.5-1.5s0.7-1.5,1.5-1.5h78c0.8,0,1.5,0.7,1.5,1.5S103.1,105.7,102.2,105.7z"
		/>
	<g>
		<g>
			<path class="st0" d="M92.7,59.8H82.2c-0.8,0-1.5-0.7-1.5-1.5v-8.9c0-0.8,0.7-1.5,1.5-1.5h10.5c0.8,0,1.5,0.7,1.5,1.5v8.9
				C94.2,59.2,93.6,59.8,92.7,59.8z M83.7,56.8h7.5V51h-7.5V56.8z"/>
			<path class="st0" d="M92.7,45.8H82.2c-0.8,0-1.5-0.7-1.5-1.5v-8.9c0-0.8,0.7-1.5,1.5-1.5h10.5c0.8,0,1.5,0.7,1.5,1.5v8.9
				C94.2,45.2,93.6,45.8,92.7,45.8z M83.7,42.8h7.5V37h-7.5V42.8z"/>
			<path class="st0" d="M92.7,31.8H82.2c-0.8,0-1.5-0.7-1.5-1.5v-8.9c0-0.8,0.7-1.5,1.5-1.5h10.5c0.8,0,1.5,0.7,1.5,1.5v8.9
				C94.2,31.2,93.6,31.8,92.7,31.8z M83.7,28.8h7.5V23h-7.5V28.8z"/>
		</g>
		<g>
			<path class="st0" d="M73.7,59.8H63.2c-0.8,0-1.5-0.7-1.5-1.5v-8.9c0-0.8,0.7-1.5,1.5-1.5h10.5c0.8,0,1.5,0.7,1.5,1.5v8.9
				C75.2,59.2,74.6,59.8,73.7,59.8z M64.7,56.8h7.5V51h-7.5V56.8z"/>
			<path class="st0" d="M73.7,45.8H63.2c-0.8,0-1.5-0.7-1.5-1.5v-8.9c0-0.8,0.7-1.5,1.5-1.5h10.5c0.8,0,1.5,0.7,1.5,1.5v8.9
				C75.2,45.2,74.6,45.8,73.7,45.8z M64.7,42.8h7.5V37h-7.5V42.8z"/>
			<path class="st0" d="M73.7,31.8H63.2c-0.8,0-1.5-0.7-1.5-1.5v-8.9c0-0.8,0.7-1.5,1.5-1.5h10.5c0.8,0,1.5,0.7,1.5,1.5v8.9
				C75.2,31.2,74.6,31.8,73.7,31.8z M64.7,28.8h7.5V23h-7.5V28.8z"/>
		</g>
	</g>
	<path class="st0" d="M69.2,105.7h-61c-0.8,0-1.5-0.7-1.5-1.5v-77c0-0.8,0.7-1.5,1.5-1.5h39c0.8,0,1.5,0.7,1.5,1.5s-0.7,1.5-1.5,1.5
		H9.7v74h42V6.2c0-0.8,0.7-1.5,1.5-1.5h49c0.8,0,1.5,0.7,1.5,1.5v97c0,0.8-0.7,1.5-1.5,1.5h-16c-0.8,0-1.5-0.7-1.5-1.5V82.7h-14
		v21.5C70.7,105.1,70.1,105.7,69.2,105.7z M54.7,102.7h13V81.2c0-0.8,0.7-1.5,1.5-1.5h17c0.8,0,1.5,0.7,1.5,1.5v20.5h13v-94h-46
		V102.7z"/>
</g>
</svg>
