<?xml version="1.0" encoding="utf-8"?>
<!-- Generator: Adobe Illustrator 22.1.0, SVG Export Plug-In . SVG Version: 6.00 Build 0)  -->
<svg version="1.1" id="Layer_1" xmlns="http://www.w3.org/2000/svg" xmlns:xlink="http://www.w3.org/1999/xlink" x="0px" y="0px"
	 viewBox="0 0 91.9 88.6" style="enable-background:new 0 0 91.9 88.6;" xml:space="preserve">
<style type="text/css">
	.st0{fill:#1B92B2;}
</style>
<g>
	<g>
		<path class="st0" d="M75.4,84.1H54.6c-1,0-1.7-0.8-1.7-1.7V59.9H39v22.5c0,1-0.8,1.7-1.7,1.7H16.6c-1,0-1.7-0.8-1.7-1.7V47.8
			c0-1,0.8-1.7,1.7-1.7c1,0,1.7,0.8,1.7,1.7v32.9h17.3V58.2c0-1,0.8-1.7,1.7-1.7h17.3c1,0,1.7,0.8,1.7,1.7v22.5h17.3V49.5
			c0-1,0.8-1.7,1.7-1.7s1.7,0.8,1.7,1.7v32.9C77.1,83.3,76.3,84.1,75.4,84.1z M85.7,47.8c-0.4,0-0.9-0.2-1.2-0.5L46,8.7L7.4,47.3
			C6.7,48,5.6,48,5,47.3s-0.7-1.8,0-2.4L44.7,5.1c0.7-0.7,1.8-0.7,2.4,0L87,44.8c0.7,0.7,0.7,1.8,0,2.4
			C86.6,47.6,86.2,47.8,85.7,47.8z M71.9,23.6c-1,0-1.7-0.8-1.7-1.7V11.5H59.8c-1,0-1.7-0.8-1.7-1.7S58.8,8,59.8,8h12.1
			c1,0,1.7,0.8,1.7,1.7v12.1C73.6,22.8,72.9,23.6,71.9,23.6z"/>
	</g>
</g>
</svg>
