<?xml version="1.0" encoding="utf-8"?>
<!-- Generator: Adobe Illustrator 22.1.0, SVG Export Plug-In . SVG Version: 6.00 Build 0)  -->
<svg version="1.1" id="Layer_1" xmlns="http://www.w3.org/2000/svg" xmlns:xlink="http://www.w3.org/1999/xlink" x="0px" y="0px"
	 viewBox="0 0 110.5 110.5" style="enable-background:new 0 0 110.5 110.5;" xml:space="preserve">
<style type="text/css">
	.st0{fill:#1B92B2;}
</style>
<g>
	<path class="st0" d="M99.2,44.2h-10c-0.8,0-1.5,0.7-1.5,1.5s0.7,1.5,1.5,1.5h8.5v55h-4.5h-7.5V6.7c0-0.8-0.7-1.5-1.5-1.5h-50
		c-0.8,0-1.5,0.7-1.5,1.5v95.5h-20v-77h14.5c0.8,0,1.5-0.7,1.5-1.5s-0.7-1.5-1.5-1.5h-16c-0.8,0-1.5,0.7-1.5,1.5v80
		c0,0.8,0.7,1.5,1.5,1.5h23h20c0.8,0,1.5-0.7,1.5-1.5V86.2h8v17.5c0,0.8,0.7,1.5,1.5,1.5h19h9h6c0.8,0,1.5-0.7,1.5-1.5v-58
		C100.7,44.9,100.1,44.2,99.2,44.2z M65.2,83.2h-11c-0.8,0-1.5,0.7-1.5,1.5v17.5h-17v-94h47v94h-16V84.7
		C66.7,83.9,66.1,83.2,65.2,83.2z"/>
	<path class="st0" d="M60.2,33.2h18c0.8,0,1.5-0.7,1.5-1.5c0-0.8-0.7-1.5-1.5-1.5H61.7v-7h16.5c0.8,0,1.5-0.7,1.5-1.5
		s-0.7-1.5-1.5-1.5h-18c-0.8,0-1.5,0.7-1.5,1.5v10C58.7,32.6,59.4,33.2,60.2,33.2z"/>
	<path class="st0" d="M60.2,49.2h18c0.8,0,1.5-0.7,1.5-1.5s-0.7-1.5-1.5-1.5H61.7v-7h16.5c0.8,0,1.5-0.7,1.5-1.5s-0.7-1.5-1.5-1.5
		h-18c-0.8,0-1.5,0.7-1.5,1.5v10C58.7,48.6,59.4,49.2,60.2,49.2z"/>
	<path class="st0" d="M79.7,63.7c0-0.8-0.7-1.5-1.5-1.5H61.7v-7h16.5c0.8,0,1.5-0.7,1.5-1.5s-0.7-1.5-1.5-1.5h-18
		c-0.8,0-1.5,0.7-1.5,1.5v10c0,0.8,0.7,1.5,1.5,1.5h18C79.1,65.2,79.7,64.6,79.7,63.7z"/>
</g>
</svg>
