<?xml version="1.0" encoding="utf-8"?>
<!-- Generator: Adobe Illustrator 22.1.0, SVG Export Plug-In . SVG Version: 6.00 Build 0)  -->
<svg version="1.1" id="Layer_1" xmlns="http://www.w3.org/2000/svg" xmlns:xlink="http://www.w3.org/1999/xlink" x="0px" y="0px"
	 viewBox="0 0 2839.1 792" style="enable-background:new 0 0 2839.1 792;" xml:space="preserve">
<style type="text/css">
	.st0{fill:#FFFFFF;}
	.st1{fill-rule:evenodd;clip-rule:evenodd;fill:#FFFFFF;}
</style>
<g>
	<path class="st1" d="M1027.1,252.8h99.7c24.1,0,47,5.4,65.5,19c16.4,12,27.8,27.3,34.9,44.7c6.3,16,10.4,32.5,12.3,49.3
		c2,18.1,2.6,36.2,2.6,54.3c0,18.2-0.6,36.5-2.6,54.6c-1.8,16.9-5.9,33.5-12.6,49.3c-7.1,17.4-18.7,32.5-35.1,44.4
		c-18.6,13.4-41.5,18.8-65.6,19.1l-0.3,0h-98.7V252.8L1027.1,252.8z M1100.6,534.6h24.3c12.6,0,22.2-4.1,28.7-12.4
		c6.5-8.2,10.6-18.6,12.5-30.9c1.8-12.4,2.7-27.3,2.7-44.7v-58.8c0-16.1-0.9-29.9-2.8-41.4c-1.9-11.4-6-20.8-12.4-28.2
		c-6.3-7.3-15.5-11-27.8-11h-25.2V534.6L1100.6,534.6z"/>
	<path class="st1" d="M1797.5,586.5v-28.9l8.5,28.9H1797.5L1797.5,586.5z M1346.3,311.4V399h38.4c18.1,0,26.8-3,33.6-9
		c6.8-6,10.2-20.1,10.2-34.8c0-14.1-3.2-29.8-9.5-35.5c-6.2-5.6-15.1-8.3-34.2-8.3H1346.3L1346.3,311.4z M1286.4,586.8V252.6h118.5
		c17.4,0,30.6,1,39.6,3.2c9,2.3,16.9,5.9,23.7,10.9c8.9,6.6,15.7,16,20.5,28.1c4.8,12.1,7.2,25.9,7.2,41.4c0,23.1-5,41.7-14.8,55.8
		c-9.9,14.1-24.7,23.6-44.5,28.7c14.9,0.3,26.2,3.4,33.8,9.5c7.6,5.9,12.9,15.6,15.6,29.1c1.5,7,3,26.6,4.3,55.4
		c1.3,28.7,4.6,51.5,12.2,72.2h-67.8c-1.9-5.9-5.6-17.4-7.1-34.2c-0.2-2.2-0.4-3.8-0.5-5l-2.2-44.4c-0.9-18.2-5.1-35.8-10.1-41.4
		c-5-5.5-17-8.3-35.8-8.3h-32.7v133.3H1286.4L1286.4,586.8z M1804.1,303.7l44.7,282.7h84.6l33.1-267.1l36.5,267.1h84.5l53.1-333.9
		h-61.3l-31.5,264.9l-36.5-264.9h-84.6l-33.1,264.9l-31.5-264.9h-58.1V303.7L1804.1,303.7z M1804.1,252.5v51.2l-8.3-51.2H1804.1
		L1804.1,252.5z M1797.5,557.5l-87.9-305h-41.4v77.9v-2.2l31.5,124.7h-31.5v62.3h48l18.3,71.2h63V557.5L1797.5,557.5z M1668.2,252.5
		v77.9l-31.5,122.4h31.5v62.3h-48.1l-18.2,71.2h-66.3l94.5-333.9H1668.2L1668.2,252.5z"/>
	<path class="st1" d="M2182.2,280.8v10.9h-5.4v-27.5h12.3c0.7,0,1.3,0,2,0c0.6,0,1.3,0.1,1.9,0.3c0.7,0.1,1.2,0.3,1.8,0.5
		c0.6,0.2,1.2,0.6,1.7,1.1c1,0.7,1.6,1.7,2,2.8c0.5,1.1,0.7,2.2,0.7,3.4c0,1-0.2,1.9-0.4,2.8c-0.3,0.8-0.8,1.6-1.3,2.3
		c-0.6,0.8-1.3,1.3-2.1,1.8c-0.2,0.1-0.4,0.2-0.6,0.2c1.3,1,2.1,2.6,2.7,4.1l3,8.3h-5.7l-2.6-7.5c-0.2-0.5-0.4-1-0.7-1.4
		c-0.3-0.4-0.7-0.8-1.1-1.1c-0.5-0.3-0.9-0.5-1.4-0.7c-0.5-0.2-1-0.3-1.5-0.3H2182.2L2182.2,280.8z M2188,253.2
		c13.9,0,25.1,11.2,25.1,25.1c0,13.8-11.2,25.1-25.1,25.1c-13.8,0-25.1-11.3-25.1-25.1C2162.9,264.3,2174.1,253.2,2188,253.2
		L2188,253.2z M2188,258.1c11.2,0,20.2,9,20.2,20.2c0,11.1-9,20.2-20.2,20.2c-11.2,0-20.2-9.1-20.2-20.2
		C2167.8,267.1,2176.8,258.1,2188,258.1L2188,258.1z M2182.2,275.9h6.6c1.2,0,3-0.1,4-0.8c0.9-0.6,1-1.7,1-2.7c0-2.7-2-3.4-4.5-3.4
		h-7.2V275.9L2182.2,275.9z"/>
	<path class="st1" d="M426.8,335.7c13.3,0,26.1,2.6,38.1,8.7c11.8,6,21.4,14.7,29.2,25.4c8.6,12,14.4,25.6,18.2,39.8
		c4.6,17,6.2,34.9,6.2,52.5c0,17.7-1.7,35.8-6.4,52.9c-4,14.2-9.8,27.8-18.4,39.8c-7.7,10.6-17.3,19.3-29.1,25.2
		c-11.9,6-24.6,8.7-37.9,8.7c-13.2,0-25.9-2.7-37.7-8.7c-11.6-5.8-21.3-14.4-29-24.9c-8.7-11.9-14.6-25.6-18.6-39.7
		c-4.8-17.2-6.5-35.5-6.5-53.3c0-17.7,1.7-35.7,6.4-52.8c4-14.2,9.7-27.9,18.4-39.8c7.7-10.7,17.3-19.3,29.1-25.3
		C400.8,338.3,413.5,335.7,426.8,335.7L426.8,335.7z M106.4,326c11.8-44.1,53-73.8,97.8-73.8c12.3,0,27.9,2.3,39.2,7.4
		c42.4,19,54.7,55,55.3,96.6l0.3,4.1h-38l-0.1-3.6c-1.2-24.3-3.7-50-28.9-60.5c-42.8-17.7-82.9,5.7-88.3,50.5
		c-4.1,33.4-2.8,66.9-2.8,100.4c0.2,14.3,0.8,28.5,2.8,45.1c5.5,44.7,45.5,68.2,88.3,50.4c25.2-10.5,27.7-36.2,28.9-60.5l0.1-3.6h38
		l-0.3,4.1c-0.6,41.6-12.8,77.5-55.3,96.6c-11.3,5.1-26.9,7.4-39.2,7.4c-44.9,0-86.1-29.7-97.8-73.8c-5.7-21.5-6.1-42.9-6.1-64.5
		h-0.1C100.2,408.1,96.2,364.3,106.4,326L106.4,326z M605.7,410.9v175.8h-40.9V343.3h40.9v29.5c13.1-16.6,33.5-33.3,54.4-33.3
		c6.7,0,14,0.2,19.1,4.7v39C645.7,374.7,624,383.3,605.7,410.9L605.7,410.9z M737.6,476.1c1.5,20.4,3.8,38.8,16.9,55.9
		c7.5,9.8,25.7,16.1,37.6,16.1c15.8,0,29-4.5,36.4-18.6c2.7-5.1,5.7-14.6,5.9-20.3l0.1-3.7h39l-0.5,4.3c-3.5,28.6-20.9,63.2-50,73.6
		c-10,3.6-20.3,5.3-30.9,5.3c-13.5,0-26.6-2.7-38.9-8.6c-12.1-5.8-22.2-14.4-30.3-25.2c-30.6-40.3-31.1-144.2-1-184.9
		c7.9-10.6,17.5-19.1,29.1-25.3c11.7-6.2,24.3-9,37.5-9c13.3,0,26.2,2.6,38.1,8.7c11.8,6.1,21.3,14.7,29,25.4
		c16.4,22.7,20.7,65.3,20.7,92.4v13.9H737.6L737.6,476.1z M958,586.8h-41V256h41V586.8L958,586.8z M426.8,548.1
		c7,0,13.6-1.7,19.6-5.2c6.5-3.8,11.6-9.3,15.6-15.6c5-8.1,8.3-17.6,10.4-26.9c2.8-12.4,3.7-25.7,3.7-38.4c0-12.6-0.9-25.8-3.7-38.1
		c-2.2-9.3-5.4-18.8-10.4-26.9c-4-6.3-9-11.9-15.5-15.7c-6-3.5-12.6-5.1-19.6-5.1c-7,0-13.7,1.7-19.8,5.1
		c-6.5,3.8-11.6,9.4-15.5,15.7c-5.1,8.1-8.3,17.6-10.5,26.9c-2.9,12.3-3.8,25.5-3.8,38.1c0,12.7,0.9,25.9,3.8,38.4
		c2.2,9.2,5.3,18.8,10.4,26.9c3.9,6.3,9.1,11.8,15.6,15.6C413.1,546.4,419.8,548.1,426.8,548.1L426.8,548.1z M836.9,435.5
		c-2.3-15.2-3-34-12.8-45.8c-17.1-20.6-57.2-18.3-70.9-0.3c-10.2,11.6-12.5,30.7-12.9,46.1H836.9L836.9,435.5z"/>
	<path class="st1" d="M2707.4,333c0-44.2-45.2-80.4-88.6-80.4h-23.3c-43.4,0-88.6,36.2-88.6,80.4v10.3h64.3
		c-0.7-9.7,0.3-18.6,5.4-27.8c7.5-13.5,20.6-19.1,37.4-15.4c19.7,4.4,32.9,25.3,27.1,51.4c-5.1,22.8-23.5,39.2-40.8,39.9l-21.2,0.1
		V436l24.3,0.2c18.3,0.8,35.8,12.8,41.2,37.5c6.2,28.4-5.8,55.3-26.6,60c-17.9,4.1-31.8-0.5-39.7-15.1c-5.5-10-6.6-19.7-5.8-30.2
		h-68.1v11.1c0,48.1,43.6,87.4,89.6,87.4h29.4c46,0,93.5-39.3,93.5-87.4v-14c0-34.8-25-64.4-56.4-73.7c26.8-10.3,47-36.1,47-66V333
		L2707.4,333z M2320,413.7l-74.9,172.9h77.7l48-126.8l47.5,126.8h79.8l-74-172.9l74-161.4h-79.8l-47.5,121l-48-121h-77.7L2320,413.7
		L2320,413.7z"/>
</g>
</svg>
