<?xml version="1.0" encoding="utf-8"?>
<!-- Generator: Adobe Illustrator 22.1.0, SVG Export Plug-In . SVG Version: 6.00 Build 0)  -->
<svg version="1.1" id="Layer_1" xmlns="http://www.w3.org/2000/svg" xmlns:xlink="http://www.w3.org/1999/xlink" x="0px" y="0px"
	 viewBox="0 0 1996.9 792" style="enable-background:new 0 0 1996.9 792;" xml:space="preserve">
<style type="text/css">
	.st0{fill:#FFFFFF;}
	.st1{fill-rule:evenodd;clip-rule:evenodd;fill:#FFFFFF;}
</style>
<g>
	<path class="st0" d="M814.8,430.7H932l-61.9-99.8L756.5,511.3l-51.8,0L843,294.8c5.9-8.8,16-14.1,27-14.1
		c10.9,0,20.9,5.1,26.8,13.7l138.8,217l-51.8,0L959.5,471H840.7L814.8,430.7L814.8,430.7z M1352.6,471V282.9h-43.9v206.5
		c0,5.7,2.3,11.2,6.4,15.3c4.3,4.3,10,6.6,16.1,6.6h200.3l25.8-40.3H1352.6L1352.6,471z M625.9,437.4c42.6,0,77.2-34.6,77.2-77.2
		c0-42.6-34.6-77.2-77.2-77.2H433.7v228.4h43.9V323.2h145.3c20.5,0,37,16.5,37,37c0,20.4-16.5,37-37,37l-123.8,0l131.1,114.2H694
		l-88.2-74L625.9,437.4L625.9,437.4z M163.4,511.3c-63.1,0-114.2-51.1-114.2-114.2c0-63.1,51.2-114.2,114.2-114.2h132.8
		c63.1,0,114.2,51.1,114.2,114.2c0,63.1-51.1,114.2-114.2,114.2L163.4,511.3L163.4,511.3z M293.2,471.1c40.9,0,73.9-33.1,73.9-73.9
		c0-40.8-33.1-73.9-73.9-73.9l-126.9,0c-40.8,0-73.9,33.1-73.9,74c0,40.8,33.1,73.9,73.9,73.9H293.2L293.2,471.1z M1127.3,511.3
		c-63,0-114.2-51.1-114.2-114.2c0-63.1,51.2-114.2,114.2-114.2h157.8l-25.9,40.3l-128.9,0c-40.9,0-74,33.1-74,74
		c0,40.8,33.1,73.9,74,73.9h158.4l-25.8,40.2H1127.3L1127.3,511.3z M1664.6,471.1c-33.8,0-62.4-22.7-71.1-53.7h187.7l25.9-40.3
		l-213.7,0c8.7-31.1,37.3-53.9,71.2-53.9l128.9,0l25.9-40.3h-157.8c-63,0-114.2,51.1-114.2,114.2c0,63.1,51.2,114.2,114.2,114.2
		h135.5l25.8-40.2H1664.6L1664.6,471.1z"/>
	<path class="st0" d="M1842.9,307.2c0-11.1,9-20.2,20.2-20.2c11.2,0,20.1,9,20.1,20.2c0,11.2-9,20.2-20.1,20.2
		C1851.9,327.4,1842.9,318.4,1842.9,307.2L1842.9,307.2z M1863,333c14.2,0,25.7-11.5,25.7-25.7c0-14.2-11.5-25.7-25.7-25.7
		c-14.2,0-25.7,11.5-25.7,25.7C1837.4,321.5,1848.9,333,1863,333L1863,333z M1860.6,292.1c4,0,5.6,0,7.5,0.8
		c5.1,1.7,5.6,6.4,5.6,8.1c0,0.4-0.1,1.3-0.3,2.4c-0.3,1.1-0.9,3.3-3.6,4.9c-0.3,0.2-0.5,0.4-1.3,0.7l6.7,12h-6.5l-5.9-11h-3.9v11
		h-5.6v-28.8H1860.6L1860.6,292.1z M1862.6,305.1c1.7,0,3.7-0.2,4.8-1.8c0.5-0.7,0.7-1.5,0.7-2.5c0-1.6-0.8-2.8-2.2-3.5
		c-1.3-0.5-2.6-0.5-5.3-0.5h-1.6v8.3H1862.6L1862.6,305.1z"/>
</g>
</svg>
