<?xml version="1.0" encoding="utf-8"?>
<!-- Generator: Adobe Illustrator 22.1.0, SVG Export Plug-In . SVG Version: 6.00 Build 0)  -->
<svg version="1.1" id="Layer_1" xmlns="http://www.w3.org/2000/svg" xmlns:xlink="http://www.w3.org/1999/xlink" x="0px" y="0px"
	 viewBox="0 0 2479.8 792" style="enable-background:new 0 0 2479.8 792;" xml:space="preserve">
<style type="text/css">
	.st0{fill:#FFFFFF;}
	.st1{fill-rule:evenodd;clip-rule:evenodd;fill:#FFFFFF;}
</style>
<g>
	<path class="st0" d="M878.7,575.7V409.3h-60.9v143.5c0,6.8-1,13.7-3.5,18.5c-5.9,15.6-14.1,32.2-38.9,32.2
		c-32.2,0-45.1-25.4-45.1-64.9V409.3h-60.9v139.6c0,77.6,40.1,103.5,83.7,103.5c43.6,0,59.7-24.4,70.1-41c0,0,3,22.7,10.6,35.6
		c25-0.1,55.8,0,55.8,0C877.5,620.1,878.7,604,878.7,575.7z"/>
	<path class="st0" d="M1014.5,336.6h-60v72.7h-34.2v44.9h34.2v111.8c0,31.2,5.9,53.2,19.3,66.9c11.4,12.2,29.7,19.5,52.5,19.5
		c18.8,0,35.2-2.9,44.1-6.3l-1-45.4c-6.9,2-12.9,2.4-23.8,2.4c-23.3,0-31.2-14.6-31.2-43.9V454.2h58v-44.9h-58V336.6z"/>
	<path class="st0" d="M1225,403.9c-72.8,0-124.9,47.8-124.9,125.9c0,76.6,53,122.5,120.9,122.5c61.4,0,123.9-39,123.9-126.4
		C1344.9,453.7,1296.9,403.9,1225,403.9z M1223,608.9c-36.7,0-60-34.7-60-80.5c0-39.5,17.3-81,60.4-81c41.6,0,58.5,42.9,58.5,80
		C1282,575.7,1257.7,608.9,1223,608.9z"/>
	<path class="st0" d="M2240.1,353.6c-30.7-25.4-73.3-38.1-135.8-38.1c-36.2,0-69.9,2.9-97.1,6.8V646c20.3,2.4,47.1,4.4,82.3,4.4
		c64.9,0,117.9-15.1,151.1-44.9c31.7-28.3,52-71.7,52-130.8C2292.7,419,2272.8,379.5,2240.1,353.6z M2101.9,603
		c-12.4,0-25.3,0-33.7-1.5V365.8c8.9-2,22.3-3.4,41.6-3.4c76.3,0,118.9,42,118.4,114.2C2228.2,560.1,2181.2,603.5,2101.9,603z"/>
	<path class="st0" d="M516.1,312.6h-63.7h-1.8L317.1,646.9h72.3l24.2-64h141l24.2,64h72.3L517.9,312.6H516.1z M434.5,528.1
		l49.7-131.3l49.7,131.3H434.5z"/>
	<path class="st0" d="M1847.4,312.6h-63.7h-1.8l-133.4,334.3h72.3l24.2-64h141l24.2,64h72.3l-133.4-334.3H1847.4z M1765.9,528.1
		l49.7-131.3l49.7,131.3H1765.9z"/>
	<path class="st0" d="M1548.7,593.1c-56.7,0-102.7-50.7-102.7-113.3c0-62.6,46-113.3,102.7-113.3c22.8,0,43.7,8.3,60.7,22.1
		l30.8-47.9c-28-21-62.6-33.4-100-33.4c-93.4,0-163.4,77.2-163.4,172.5c0,95.3,70,172.5,163.4,172.5c39.9,0,76.6-14.1,105.5-37.7
		l-27.6-51.5C1599.8,581.7,1575.5,593.1,1548.7,593.1z"/>
</g>
</svg>
