<?xml version="1.0" encoding="utf-8"?>
<!-- Generator: Adobe Illustrator 22.1.0, SVG Export Plug-In . SVG Version: 6.00 Build 0)  -->
<svg version="1.1" id="Layer_1" xmlns="http://www.w3.org/2000/svg" xmlns:xlink="http://www.w3.org/1999/xlink" x="0px" y="0px"
	 viewBox="0 0 1708.9 792" style="enable-background:new 0 0 1708.9 792;" xml:space="preserve">
<style type="text/css">
	.st0{fill:#FFFFFF;}
	.st1{fill-rule:evenodd;clip-rule:evenodd;fill:#FFFFFF;}
</style>
<g>
	<path class="st1" d="M1590.7,113h3.2l9.9,12h10.2l-12.3-14c2.2-0.9,3.9-2.1,5.2-3.6c1.4-1.5,2-3.5,2-5.8c0-1.8-0.3-3.2-1-4.4
		c-0.7-1.2-1.8-2.2-3.3-3c-1.3-0.7-2.7-1.1-4.1-1.3c-1.4-0.2-3.2-0.3-5.5-0.3h-12.4V125h8V113z M1590.7,98.1h2.5c1,0,2,0.1,2.8,0.1
		c0.8,0.1,1.5,0.3,2.1,0.7c0.7,0.3,1.2,0.8,1.5,1.3c0.3,0.6,0.4,1.2,0.4,1.8c0,0.9-0.1,1.6-0.4,2.3c-0.3,0.6-0.8,1.1-1.3,1.5
		c-0.6,0.4-1.3,0.8-2.3,1c-0.9,0.2-2.1,0.3-3.4,0.3h-2V98.1z"/>
	<path class="st1" d="M1595.7,142.1c9,0,16.7-3.2,23-9.6c6.4-6.4,9.5-14,9.5-23c0-9-3.2-16.7-9.5-23c-6.3-6.4-14-9.6-23-9.6
		c-9,0-16.7,3.2-23,9.6c-6.4,6.3-9.6,14-9.6,23c0,9,3.2,16.6,9.6,23C1579,138.9,1586.7,142.1,1595.7,142.1z M1577.7,91.4
		c4.9-5.1,10.9-7.6,18-7.6c7,0,13,2.5,18,7.6c4.9,5,7.5,11.1,7.5,18.1s-2.5,13-7.5,18.1s-10.9,7.6-18,7.6c-7,0-13-2.5-18-7.6
		c-5-5.1-7.5-11.1-7.5-18.1S1572.7,96.4,1577.7,91.4z"/>
	<path class="st1" d="M692.5,502.3c-23.5,0-47.4-0.5-48.5-32.3h-89.6c0.7,62.5,30.3,82.9,85.1,87.3c16.6,1.3,34.6,1.2,53.1,1.2
		c75.6,0,138.2-12.6,138.2-94.5c0-78-40.7-83.5-138.2-85.7c-48.4-1.1-51.3-11.2-51.3-27.3c0-19,2.1-25.1,51.3-25.1
		c18,0,36,1.6,40.1,24H817v-11.4c0-67.9-71.1-68.8-124.5-68.8c-80.1,0-138.1,1.8-138.1,91.8c0,56.5,19.5,83,138.1,83
		c10.8,0,27.8-0.6,37.8,3.7c9.3,4,13.6,12.1,13.6,26.8C743.9,499.6,734.8,502.3,692.5,502.3z"/>
	<path class="st1" d="M219.4,414.4c0,106,26.5,144.1,138.1,144.1c41.5,0,75.9-3.3,100-16.6c23.3-13.5,37.1-36.6,37.6-77.8h-88
		c-0.9,30.2-21.4,33.3-49.6,33.3c-40.7,0-48.6-16.6-48.6-67.2v-2.2h186.2v-13.7c0-115.7-31.3-144.7-137.6-144.7
		C243.7,269.7,219.4,305.1,219.4,414.4z M355.9,330.9c32.3,0,49.7,3.2,49.7,47.5v2.2h-96.7C310,342.6,317.7,330.9,355.9,330.9z"/>
	<path class="st1" d="M1623,210.2c-35.7-58.7-104-100.1-184.3-100.1h-1170c-80.2,0-148.7,41.4-184.3,100.1
		c-31.5,54.6-38.5,143.5-38.5,202.4c0,59,7,147.9,38.5,202.5c35.7,58.7,104.1,100,184.3,100h1170c80.3,0,148.7-41.4,184.3-100
		c31.6-54.6,38.5-143.5,38.5-202.5S1654.5,264.8,1623,210.2z M886.9,662H283.6c-46.8-0.1-101.4-23-129.8-53.5
		C108.9,560.3,99,484.7,99,412.6c0-72,9.9-147.7,54.8-195.8c28.5-30.5,83-53.4,129.8-53.4h603.3V662z M1233.5,425.1h-186.2v3.1
		c0,50.7,8,68,49.5,68c27.9,0,49.2-3.1,50.5-33.3h86.2c-0.6,40.4-14.4,63-37.2,76.1c-23.7,13.2-57.9,16.6-99.5,16.6
		c-111,0-137.2-37.6-137.2-143.2c0-109,24-143.8,137.2-143.8c105.8,0,136.7,28.5,136.7,143.8V425.1z M1510,334.2h-65.4v221.2h-89.6
		V334.2h-65.4v-64.4H1510V334.2z"/>
	<path class="st1" d="M1095.2,328c-39.5,0-46.9,12.8-48,51.4h98.5v-3C1145.7,331.3,1127.7,328,1095.2,328z"/>
</g>
</svg>
