<?xml version="1.0" encoding="utf-8"?>
<!-- Generator: Adobe Illustrator 22.1.0, SVG Export Plug-In . SVG Version: 6.00 Build 0)  -->
<svg version="1.1" id="Layer_1" xmlns="http://www.w3.org/2000/svg" xmlns:xlink="http://www.w3.org/1999/xlink" x="0px" y="0px"
	 viewBox="0 0 1996.9 792" style="enable-background:new 0 0 1996.9 792;" xml:space="preserve">
<style type="text/css">
	.st0{fill:#FFFFFF;}
	.st1{fill-rule:evenodd;clip-rule:evenodd;fill:#FFFFFF;}
</style>
<g>
	<path class="st1" d="M766.3,200.5c22.4,0,44.7,0.1,67,0.2l89.4,172.6V200.5h53.7V474l-59,0.1L820,279.8V474h-53.7V200.5z"/>
	<path class="st1" d="M1581.8,267c58,0,105,47,105,105c0,58.1-47,105.1-105,105.1c-58.1,0-105.1-47-105.1-105.1
		C1476.7,314,1523.7,267,1581.8,267L1581.8,267z M1581.8,319.9c28.8,0,52.1,23.4,52.1,52.1c0,28.8-23.4,52.2-52.1,52.2
		c-28.8,0-52.2-23.4-52.2-52.2C1529.5,343.2,1552.9,319.9,1581.8,319.9L1581.8,319.9z"/>
	<path class="st1" d="M1098.1,267c58,0,105,47,105,105c0,58.1-47,105.1-105,105.1c-58.1,0-105.1-47-105.1-105.1
		C993,314,1040.1,267,1098.1,267L1098.1,267z M1098.1,319.9c28.8,0,52.1,23.4,52.1,52.1c0,28.8-23.4,52.2-52.1,52.2
		c-28.8,0-52.2-23.4-52.2-52.2C1045.9,343.2,1069.3,319.9,1098.1,319.9L1098.1,319.9z"/>
	<path class="st1" d="M1220.5,273c0,67,0,134,0,200.9c19.9,0,39.8,0,59.7,0c0-31.5,0-63.2,0-94.8c0-8.3,1.3-13.6,4-21.6
		c5.5-16.1,14.7-29.8,30.8-39.1c8.3-4.8,9.2-4.7,18.3-4.7c12.6,0,25.1,0,37.6,0c0,36.2,0,72.6,0,108.8
		c1.9,59.8,63.3,61.3,108.1,49.1c-2.5-13.3-5-26.7-7.6-40c-25.6,5.9-43.9,7.6-43.9-24.4c0-31.2,0-62.3,0-93.5c14.4,0,28.8,0,43.1,0
		c0-14.1,0-28.2,0-42.3c-13.9,0-27.7,0-41.6,0c0-18.9,0-37.8,0-56.7c-15.9,0-31.8,0-47.6,0c-4.5,18.9-9.1,37.8-13.6,56.7
		c-11,0-22,0-33,0c-14.4,0-27,3.8-39,12.2c-10.3,7.2-18.4,17.4-23.2,31.6c-5.8-13.8-11.6-27.7-17.3-41.6
		C1243.7,273.5,1232.1,273.3,1220.5,273L1220.5,273z"/>
	<path class="st1" d="M1701.6,272c0,67.7,0,135.3,0,203c18.9,0,37.7,0,56.6,0c0-44.7,0-89.5,0-134.2c0-18.8,45.3-35.6,64.2-12.6
		c4.9,6.1,4.5,7.7,4.5,15c0,43.6,0,87.2,0,130.8c19.2,0,38.4,0,57.7,0c0-46.6,0-93.2,0-139.8c0-15.9-7.6-31.4-17.4-43.7
		c-14.3-18-34.8-26.1-64.4-20.6c-20,3.7-35.9,15.2-54.5,33.8c-4-10.3-8-20.7-12-31.1C1724.6,272.4,1713.1,272.2,1701.6,272
		L1701.6,272z"/>
	<path class="st0" d="M1895.6,276.2h6.9v-4.7H1884v4.7h6.9V298h4.7V276.2z M1926.9,271.5h-6.8l-4,20.9h-0.1l-4.1-20.9h-6.9V298h4.4
		v-22.1h0.1l4.2,22.1h4.6l4.2-22.1h0.1V298h4.4V271.5z"/>
	<path class="st0" d="M354.7,761.2c-174.3,0-316.3-141.9-316.3-316.3c0-174.3,142-316.3,316.3-316.3c174.4,0,316.3,142,316.3,316.3
		C671,619.3,529.1,761.2,354.7,761.2L354.7,761.2z M354.7,228.7L354.7,228.7c-57.7,0-112,22.5-152.9,63.3
		c-40.8,40.9-63.3,95.2-63.3,152.9s22.5,112,63.3,152.9c40.9,40.8,95.2,63.3,152.9,63.3c57.8,0,112-22.5,153-63.3
		C548.5,557,571,502.7,571,444.9s-22.5-112-63.3-152.9C466.7,251.2,412.5,228.7,354.7,228.7L354.7,228.7z"/>
	<rect x="699.3" y="80" class="st0" width="24.7" height="24.6"/>
	<rect x="699.3" y="30.8" class="st0" width="24.7" height="24.7"/>
	<rect x="629.9" y="104.4" class="st0" width="23.1" height="24.1"/>
	<rect x="584.3" y="151.7" class="st0" width="23.2" height="23.1"/>
	<rect x="653" y="128.5" class="st0" width="25.8" height="23.2"/>
	<rect x="561.1" y="129.6" class="st0" width="23.1" height="22.1"/>
	<rect x="629.9" y="151.7" class="st0" width="23.1" height="23.1"/>
	<rect x="674.9" y="55.4" class="st0" width="24.4" height="24.5"/>
	<rect x="629.9" y="80" class="st0" width="45" height="24.4"/>
	<rect x="607.5" y="104.4" class="st0" width="22.4" height="47.3"/>
	<path class="st0" d="M607.5,174.7v23.2h-23.2v-23.2h-38.6v16.7H525v20.6h23.1v23H525v-23h-24.4v36.1h-23.2v23H462v23.1h-16.9
		c-19,28.2-66.6,116.3-81,152.2c-51.9-72.3-92.1-100.9-123.8-111.2c-17.2-5.2-37.8,13.5-9.3,42.8c65.2,71.8,85.8,131.2,105.6,178.7
		c10.5,25,57.6,28.8,67.1,3.5c20-53.9,49.2-114.4,83.7-164v-25.7h18.4v-23.2H525v-26.9h23.1v-25.9h-23.4v-23.6h23.4v23.6h22.9
		l-0.1-23.4h18.4V243H610v-19.4h19.9v-48.9H607.5z"/>
	<path class="st0" d="M1028.3,660.9l-6.5,10.3c5,3.9,12,8,20.8,11c7.6,2.6,16.7,4.3,26.8,4.3c15.9,0,28.3-3.9,36.7-10.8
		c8.6-7.1,13.2-17.3,13.2-29.5c0-13-4.9-21.9-12.6-28.7c-7.9-6.9-19.1-11.8-31.5-16.4l0,0c-11.4-4.2-19.4-7.9-24.6-12.3
		c-5.6-4.8-8-10.3-8-17.9c0-7.4,2.2-13.5,7.2-17.8c4.9-4.2,12.5-6.5,23.5-6.5c8.9,0,16.3,1.4,22.4,3.4c4.9,1.5,8.9,3.5,12.3,5.3
		l5.2-11.3c-4.8-2.5-9.6-4.9-15.4-6.5c-6.6-1.9-14.6-3.1-25-3.1c-14.7,0-25.8,3.6-33.2,9.7c-7.9,6.5-11.9,15.9-11.9,26.7
		c0,12.6,4.3,21.2,11.4,27.8c7.2,6.7,17.4,11.3,28.8,15.8c11,4.3,19.7,8,25.8,12.8c6.4,5.1,9.8,11.3,9.8,20.4
		c0,8.5-3.2,15.1-9.2,19.6c-5.9,4.5-14.3,6.9-24.5,6.9c-9.8,0-18.1-1.9-25.3-4.7C1038.2,667.1,1032.9,664,1028.3,660.9L1028.3,660.9
		z"/>
	<path class="st0" d="M1128.8,578.9h16.1l28.9,93.7l27.7-93.7h15.6l-37.6,118.7c-6,19.4-16.3,29.6-35.6,29.6c-3.9,0-8.5-0.9-11.7-2
		l1.9-11.7c2.4,0.4,5.2,1.1,8.7,1.1c13,0,20.7-7.8,24.4-20.4L1128.8,578.9z"/>
	<path class="st0" d="M1349.2,576.9c21.6,0,27,18,27,35.6v75h-15.7v-74.8c0-11.6-1.8-22.4-16.1-22.4c-9.8,0-20,6.1-30.2,16.6v80.7
		h-15.7v-74.8c0-11.6-1.7-22.4-16.1-22.4c-10,0-20.4,7-30.2,16.8v80.4h-15.7V578.9h8.9l4.5,17.8c10-10.6,22.4-19.7,37.2-19.7
		c14.2,0,20.3,7.8,24.6,19.1C1322,585,1335.1,576.9,1349.2,576.9L1349.2,576.9z"/>
	<path class="st0" d="M1465.2,630c-23.7,4.5-39.3,9.6-45.2,17c-2.9,3.5-3.7,6.7-3.7,11.7c0,11.1,5.4,17.8,18.4,17.8
		c12.4,0,23.1-6.5,30.5-12.2V630z M1465.2,614.1c0-15.9-4.8-24-22-24c-11.1,0-21.1,4.6-30.8,9.8l-5.9-10.6
		c10.2-6.9,21.9-12.3,38-12.3c26.4,0,36.3,14.6,36.3,38.2v72.4h-8.9c0,0-4.6-13.3-4.8-13.3c-7.6,7.6-19.8,15-33.9,15
		c-18.9,0-32.8-12-32.8-29.8c0-12,4.8-20.4,15.2-26.5c10-5.9,28.1-10.2,49.6-13.5C1465.2,619.3,1465.2,614.1,1465.2,614.1
		L1465.2,614.1z"/>
	<path class="st0" d="M1515.7,578.9h8.9l4.5,18.5c10-11.3,22.8-20.4,39.3-20.4c23.1,0,29.1,18,29.1,35.6v75h-15.6v-74.8
		c0-11.6-2.7-22.4-18.3-22.4c-11.1,0-22.7,7-32.5,17.4v79.8h-15.7V578.9z"/>
	<path class="st0" d="M1619.3,590.1v-11.3h16.8l4.5-31.1h10.6v31.1h24.4v11.3h-24.4v70.7c0,10.5,1.8,16.3,12.2,16.3
		c4.5,0,7.6-0.8,12.6-2.2l2.3,10.9c-4.1,2-9.9,3.5-15.7,3.5c-19.1,0-27.1-9.6-27.1-27.5v-71.8H1619.3z"/>
	<path class="st0" d="M1761.3,626.3c-0.8-24.8-9.1-37.4-25.4-37.4c-14.7,0-25,11.7-26.3,37.4H1761.3z M1738.4,676.7
		c12.6,0,20.5-4.5,29.8-10.9l6.7,9.1c-10.4,8.9-20,14.4-37.9,14.4c-27.1,0-44.3-21.7-44.3-56.1c0-33.7,17-56.3,42.9-56.3
		c26.4,0,41.7,19.5,41.7,57.1v3.5h-68.1C1710.4,663,1718.9,676.7,1738.4,676.7L1738.4,676.7z"/>
	<path class="st0" d="M1796.6,634.1c0-26.7,10.9-57.1,44.2-57.1c13.9,0,24.4,3.9,33.2,11.3l-6.5,10.5c-6.8-5.2-16.1-9.2-26.8-9.2
		c-24.8,0-27.6,26.3-27.6,44.8c0,17.4,3.5,42.4,28.5,42.4c11.6,0,19.6-4.3,27-10.9l7.4,8.9c-7.4,7.8-18.7,14.6-35.2,14.6
		C1808.4,689.4,1796.6,660.2,1796.6,634.1L1796.6,634.1z"/>
	<path class="st0" d="M868.6,578.9h16.1l28.9,93.7l27.7-93.7h15.6l-37.6,118.7c-6,19.4-16.3,29.6-35.6,29.6c-3.9,0-8.5-0.9-11.7-2
		l1.9-11.7c2.4,0.4,5.2,1.1,8.7,1.1c13,0,20.7-7.8,24.4-20.4L868.6,578.9z"/>
	<path class="st0" d="M839.2,621.4c0.3,2.2,0.5,4.5,0.6,6.8c0.2,2.4,0.2,4.7,0.2,6.9c0,1.5-0.1,2.9-0.2,4.2c-0.1,1.4-0.2,2.7-0.3,4
		c-0.2,1.4-0.4,2.6-0.6,3.9c-0.2,1.2-0.5,2.5-0.8,3.7c-0.3,1.2-0.7,2.4-1.1,3.5c-0.4,1.1-0.8,2.2-1.3,3.2c-0.5,1.1-0.9,2.1-1.5,3
		c-0.6,1-1.2,1.9-1.8,2.8h-0.1l0,0c-0.6,0.9-1.2,1.7-1.9,2.5c-0.8,0.8-1.5,1.5-2.3,2.2c-0.8,0.7-1.6,1.3-2.5,1.9
		c-0.8,0.5-1.7,1.1-2.7,1.5l0,0c-0.8,0.5-1.9,0.9-2.9,1.3c-1,0.3-2.1,0.6-3.2,0.8s-2.2,0.5-3.3,0.5c-1.2,0.2-2.4,0.2-3.5,0.2
		c-0.8,0-1.6-0.1-2.5-0.1c-0.8-0.1-1.5-0.2-2.3-0.3c-0.7-0.2-1.5-0.3-2.2-0.5l0,0c-0.6-0.2-1.2-0.3-1.7-0.5l0,0l-0.2-0.1l0,0
		l-0.2-0.1c-0.7-0.2-1.4-0.5-2-0.8c-0.7-0.2-1.3-0.5-1.9-0.8l0,0c-0.6-0.2-1.2-0.5-1.8-0.9c-0.6-0.3-1.2-0.6-1.7-0.9v-0.1h-0.1l0,0
		c-0.5-0.3-1-0.7-1.5-1c-0.5-0.4-1-0.8-1.5-1.1l0,0c-0.5-0.4-0.9-0.8-1.4-1.2c-0.4-0.4-0.8-0.8-1.2-1.2c-0.4-0.4-0.8-0.8-1.2-1.2
		c-0.3-0.4-0.7-0.8-1-1.1c-0.3-0.4-0.6-0.8-0.9-1.1c-0.3-0.4-0.5-0.7-0.8-1.1l0,0l-0.1-0.1l-0.1-0.1v-0.1v-0.2v-56v-0.2v-0.1
		l0.1-0.1l0.2-0.2c0.8-0.8,1.7-1.6,2.7-2.4c0.9-0.8,1.9-1.5,2.9-2.2l0.1-0.1c0.9-0.6,1.9-1.3,3-1.9c1-0.6,2.1-1.2,3.2-1.8
		c1.2-0.5,2.2-1,3.4-1.4c1.2-0.4,2.4-0.7,3.6-1c1.2-0.2,2.4-0.5,3.6-0.6c1.2-0.1,2.5-0.2,3.8-0.2c0.8,0,1.6,0,2.5,0.1
		c0.8,0.1,1.7,0.2,2.5,0.3c0.8,0.2,1.6,0.3,2.5,0.5c0.8,0.2,1.7,0.4,2.5,0.7c0.8,0.2,1.6,0.5,2.5,0.9c0.8,0.4,1.6,0.8,2.4,1.3
		c0.8,0.5,1.6,1,2.3,1.6c0.8,0.6,1.5,1.2,2.3,1.9c0.7,0.8,1.4,1.5,2.1,2.4s1.3,1.7,1.9,2.7c0.6,1,1.2,2,1.7,3.2
		c0.5,1.1,1,2.2,1.5,3.5c0.5,1.2,0.8,2.5,1.2,4.2C838.6,617.4,839,619.3,839.2,621.4L839.2,621.4z M854.8,646.6c0.3-2,0.5-4,0.7-6.2
		c0.2-2.2,0.2-4.4,0.2-6.7c0-1.9-0.1-3.9-0.2-6.1c-0.1-2-0.2-4.2-0.5-6.2c-0.2-1.9-0.3-3.7-0.6-5.3c-0.2-1.5-0.5-2.9-0.8-3.9
		c-0.3-1.3-0.6-2.5-1-3.7c-0.4-1.2-0.8-2.3-1.2-3.4c-0.5-1.2-0.9-2.2-1.4-3.2c-0.5-1-1.1-2-1.6-2.9c-0.5-0.9-1.1-1.9-1.7-2.7
		s-1.2-1.6-1.9-2.4c-0.6-0.8-1.2-1.5-1.9-2.2c-0.7-0.7-1.4-1.4-2.1-2c-0.7-0.6-1.5-1.2-2.2-1.8c-0.8-0.5-1.5-1.1-2.2-1.5
		c-0.8-0.5-1.5-1-2.3-1.4l0,0c-0.8-0.5-1.5-0.8-2.3-1.2c-0.8-0.4-1.5-0.8-2.3-1.1c-0.8-0.3-1.5-0.6-2.4-0.8
		c-0.8-0.3-1.5-0.5-2.3-0.8c-0.8-0.2-1.6-0.4-2.4-0.5c-0.8-0.2-1.6-0.2-2.4-0.4c-0.8-0.1-1.5-0.2-2.2-0.3c-0.7,0-1.5-0.1-2.2-0.2
		c-0.8,0-1.5,0-2.2,0c-1.5,0-2.9,0-4.3,0.2c-1.5,0.2-2.8,0.3-4.2,0.6c-1.3,0.2-2.5,0.5-3.8,0.9c-1.3,0.4-2.5,0.8-3.6,1.4
		c-1.2,0.5-2.3,1.1-3.4,1.6c-1.1,0.6-2.2,1.3-3.2,2c-1,0.8-2,1.5-2.9,2.3c-1,0.8-1.9,1.8-2.8,2.7l-0.1,0.1l-0.1,0.1h-0.2h-0.2h-0.3
		h-0.3H784v-0.3V591v-56.7h-15v150.1h11.2l3.3-10.6l0,0l0.1-0.2v-0.2h0.2h0.2h0.3h0.2h0.2l0.1,0.2l0.1,0.2c0.2,0.2,0.3,0.5,0.5,0.7
		l0,0c0.2,0.2,0.4,0.5,0.6,0.8l0.2,0.2l0,0l0,0c0.2,0.2,0.4,0.5,0.6,0.7l0,0c0.3,0.4,0.6,0.8,0.9,1.1c0.3,0.4,0.7,0.8,1.1,1.2
		c0.4,0.4,0.8,0.7,1.2,1.1c0.5,0.4,0.9,0.8,1.4,1.2l0,0c0.5,0.3,1,0.7,1.5,1.1l0,0h0.1c0.5,0.3,1.1,0.7,1.7,1c0.6,0.4,1.2,0.7,1.9,1
		c0.7,0.3,1.4,0.6,2.2,0.9l0,0c0.6,0.2,1.3,0.5,2,0.8l0,0l0.3,0.1c0.8,0.2,1.6,0.5,2.5,0.7c0.8,0.2,1.7,0.3,2.6,0.5
		c0.9,0.2,1.9,0.2,2.9,0.3c1,0.1,2,0.1,3.1,0.1c1.4,0,2.8-0.1,4.2-0.2c1.4-0.2,2.7-0.4,4.1-0.6c1.3-0.3,2.7-0.6,4-1
		c1.3-0.4,2.5-0.8,3.8-1.4l0,0h0.2c1.3-0.5,2.5-1.2,3.8-1.9c1.2-0.6,2.4-1.4,3.5-2.2c1.2-0.8,2.3-1.7,3.4-2.6c1.1-1,2.1-2,3.2-3.1
		l0.1-0.1l0,0c0.9-1.1,1.9-2.2,2.8-3.4c0.9-1.2,1.8-2.5,2.6-3.9c0.8-1.4,1.5-2.9,2.3-4.4c0.7-1.5,1.4-3.1,2-4.8
		c0.6-1.6,1.2-3.4,1.6-5.2C854.1,650.4,854.5,648.6,854.8,646.6L854.8,646.6z"/>
</g>
</svg>
