<?xml version="1.0" encoding="utf-8"?>
<!-- Generator: Adobe Illustrator 22.1.0, SVG Export Plug-In . SVG Version: 6.00 Build 0)  -->
<svg version="1.1" id="Layer_1" xmlns="http://www.w3.org/2000/svg" xmlns:xlink="http://www.w3.org/1999/xlink" x="0px" y="0px"
	 viewBox="0 0 2607.7 792" style="enable-background:new 0 0 2607.7 792;" xml:space="preserve">
<style type="text/css">
	.st0{fill:#FFFFFF;}
	.st1{fill-rule:evenodd;clip-rule:evenodd;fill:#FFFFFF;}
</style>
<g>
	<path class="st0" d="M2367.4,614.5v-34.9h181.9v34.9H2367.4z M2549.3,426.3v35h-12.6c11.4,6.3,16.6,20.8,16.6,34.5
		c0,37.1-29.1,58.8-62.5,58.8c-38.3,0-62.3-27.6-62.3-58.8c0-19.2,9.2-29.9,16.4-34.5h-12.4v-35H2549.3z M2491.4,519.6
		c10.7,0,29.3-8,29.3-29c0-12.4-5.9-20-13-24.4c-4.6-3-9.7-4.4-15-4.8c-5.3-0.4-10.5,0.6-15.3,3c-8,3.8-16.2,11.8-16.2,26.5
		c0,20,16.8,28.8,30.1,28.8H2491.4z M2367.4,402.4v-35h65.5h8.8c-13.2-12.4-13.2-29.1-13.2-33.9c0-24.4,17.5-57.5,61.7-57.5
		c42.1,0,63.2,29.3,63.2,59c0,16.4-8,29.1-16.4,33.9h12.4v33.5H2367.4z M2490.6,311c-14.9,0-29.5,11.4-29.5,28.6
		c0,18.5,14.9,29,29.5,29c16.2,0,30.1-10.9,30.1-28.4c0-17.9-14.5-29.2-29.9-29.2H2490.6z M446.2,501.4l44.7,89.4l44.7-89.4H446.2z
		 M1253.7,400.6l-89.4,44.7l89.4,44.7V400.6z M2255.6,614.5l-44.7-89.4l-44.7,89.4H2255.6z"/>
	<path class="st0" d="M654.7,614.5h-63.8L490.9,400l-100,214.5H327l163.9-351.4L654.7,614.5z M1299.1,339.9v-63.9h-137.3h-31.9
		h-31.9v338.4h31.9h31.9h137.3v-63.8h-137.3V339.9H1299.1z M126.4,276.1H62.5v338.4h63.9V276.1z M203.6,445.3l118.5-169.2h-74.7
		L128.9,445.3l118.5,169.2h74.7L203.6,445.3z M1870.3,276.1h-63.9v338.4h63.9V276.1z M1947.6,445.3l118.5-169.2h-74.7l-118.5,169.2
		l118.5,169.2h74.7L1947.6,445.3z M1516.1,483.4c32.1-21.2,50.5-54.8,50.5-92.9c0-41.7-18.6-75.5-52.2-95.3
		c-22.3-13.1-49.7-19.2-86.2-19.2h-79.9l0,0v338.4h63.9V445.3V339.9h16c44.2,0,74.6,10.9,74.6,50.6c0,37.1-36.5,53.4-78.8,54.7
		c-1.3,0-6,0.1-9.2,0.1v0l118.5,169.2h74.7L1516.1,483.4z M1010.6,295.3c-22.3-13.1-49.7-19.2-86.2-19.2h-79.9l0,0v338.4h63.9V445.3
		V339.9h16c44.2,0,74.6,10.9,74.6,50.6c0,37.1-36.5,53.4-78.8,54.7c-1.3,0-6,0.1-9.2,0.1v0l42.4,60.6c21-3.7,39.8-10.5,55.5-20.1
		c1.2-0.8,2.3-1.5,3.5-2.3c32.1-21.2,50.5-54.8,50.5-92.9C1062.8,348.9,1044.2,315,1010.6,295.3z M2289.3,276.1l-78.4,135.8
		l-78.4-135.8h-63.9l142.3,246.4l142.3-246.4H2289.3z M649.6,661.8l26.1,56.7c123.8-94.7,146.6-200.5,66-313.8
		c-63.8-89.8,6.4-169.7,27.6-190.4l-47.4-37.9c-31,34-112.3,140.2-41.2,247.1C749.5,526.8,742.4,582.9,649.6,661.8z M1611.5,661.8
		l26.1,56.7c123.8-94.7,146.6-200.5,66-313.8c-63.8-89.8,6.4-169.7,27.6-190.4l-47.4-37.9c-31,34-112.3,140.2-41.2,247.1
		C1711.4,526.8,1704.3,582.9,1611.5,661.8z"/>
</g>
</svg>
