<?xml version="1.0" encoding="utf-8"?>
<!-- Generator: Adobe Illustrator 22.1.0, SVG Export Plug-In . SVG Version: 6.00 Build 0)  -->
<svg version="1.1" id="Layer_1" xmlns="http://www.w3.org/2000/svg" xmlns:xlink="http://www.w3.org/1999/xlink" x="0px" y="0px"
	 viewBox="0 0 3012.6 792" style="enable-background:new 0 0 3012.6 792;" xml:space="preserve">
<style type="text/css">
	.st0{fill:#FFFFFF;}
	.st1{fill-rule:evenodd;clip-rule:evenodd;fill:#FFFFFF;}
</style>
<g>
	<path class="st0" d="M65.6,145.3h288.8c0,96.3,0,192.5,0,288.8c-96.2,0-192.5,0-288.8,0V145.3L65.6,145.3z"/>
	<path class="st0" d="M383.8,145.3h288.8c0,96.3,0,192.5,0,288.8c-96.2,0-192.5,0-288.7,0C383.8,337.8,383.8,241.5,383.8,145.3
		L383.8,145.3z"/>
	<path class="st0" d="M2669.7,255.3c26.6-17.3,61-18.9,91-10.7c0.3,17.8,0,35.7,0.1,53.5c-14.3-6.3-31-10.4-46-4.2
		c-11.9,4.7-19,16.9-20.8,29.1c-2.2,15.5-0.8,31.2-1.2,46.8c30.5,0.1,60.9,0,91.4,0c0.2-19.8-0.2-39.6,0.3-59.3
		c20.7-5.9,41.2-12.5,61.8-18.7c0.2,26.1-0.2,52.1,0.2,78.2c20.6-0.3,41.2-0.1,61.8-0.1v50.7c-20.7-0.8-41.4-0.2-62-0.3
		c0.1,29.2,0,58.3,0,87.5c0.3,16.1-0.9,32.4,1,48.5c1.1,9.5,4.6,20,13.5,24.9c14.9,8.3,33.8,4.7,47.5-4.5v51.2
		c-17.8,7.8-37.8,10.1-57.1,8.7c-18.3-1.4-37.3-8-49.2-22.6c-13.8-16.5-17.4-38.7-17.6-59.6c-0.2-44.7,0-89.5-0.1-134.3
		c-30.5,0-60.9,0-91.4,0c0,70.2,0,140.5,0,210.7c-20.8,0-41.6,0-62.5,0c0-70.2-0.1-140.4,0-210.6c-14.5-0.3-29,0.1-43.5-0.2
		c0.1-16.7,0.1-33.4,0-50c14.4-0.3,28.8-0.2,43.3-0.1c1.1-22.2-2.3-45,4.3-66.6C2640.1,283.9,2652.5,266.3,2669.7,255.3
		L2669.7,255.3z"/>
	<path class="st0" d="M1332.5,258.9c12.6-1.9,26.2,2.4,34.6,12.2c9.8,10.8,11.6,28,4.3,40.6c-8,14.2-25.9,20.8-41.6,17.4
		c-16.2-2.9-29.7-18-29-34.8C1300.4,276.7,1315.2,260.9,1332.5,258.9L1332.5,258.9z"/>
	<path class="st0" d="M853.9,266.7c30.3,0,60.5,0,90.8,0c28.3,71.8,56.8,143.5,85.1,215.3c7.2,18,14,36.1,21.6,53.9
		c36.4-89.7,73.3-179.2,109.4-269c29.1-0.5,58.3-0.1,87.4-0.2c-0.1,121.4,0,242.8,0,364.2c-21-0.1-42,0.2-63-0.1
		c0.2-89.6,0-179.2,0.1-268.8c0-4-0.1-8-0.4-12.1c-1.2,1.9-2.3,3.8-3.3,5.8c-36.1,91.7-72.9,183.1-108.8,274.9
		c-15,0.5-29.9,0-44.9,0.3c-37.2-91.7-74-183.6-111.1-275.4c-1-1.9-2-3.8-3.1-5.6c-0.8,39.2-0.1,78.5-0.3,117.8
		c0,54.4,0,108.7,0,163.1c-19.8,0.1-39.6,0-59.5,0C853.8,509.5,853.8,388.1,853.9,266.7L853.9,266.7z"/>
	<path class="st0" d="M1504.4,369.6c30.1-8.6,62.6-8.2,92.8,0.3c6.2,1.7,12.2,4.1,17.8,7.4c-0.3,19.9,0,39.8-0.2,59.7
		c-20.1-15.4-45.7-25.1-71.3-21.9c-20.3,1.8-39.7,12.4-51.9,28.8c-15.6,20.4-19.2,47.4-16.5,72.3c2,19.5,10.1,39,25.2,51.9
		c15.7,14,37.8,19,58.4,17.4c20.4-2.3,39.6-11,56-23c0.2,18.9-0.1,37.7,0.1,56.6c-25.5,15.2-56.1,19.1-85.4,17.7
		c-29.9-1.6-59.7-12.9-81.4-33.9c-23.5-22.7-36.3-55-37.8-87.4c-1.5-33.7,5.3-68.8,24.7-96.9
		C1451.3,394.6,1476.7,377.6,1504.4,369.6L1504.4,369.6z"/>
	<path class="st0" d="M2186.6,365.6c28.9-5.1,59.1-1.4,86.4,9c0,19.1,0,38.3,0,57.4c-19.1-13.1-42.4-20.2-65.6-19.4
		c-11.7,0.5-24.5,5.4-29.8,16.5c-4.2,11-1.3,25.4,9.1,31.9c17.7,11.8,38.8,16.9,57.2,27.5c14.4,8.1,28.5,18.7,35.8,34
		c13.8,28.7,7.9,66.5-16.3,87.9c-23.1,21.6-56.3,27.5-86.9,26.4c-21.7-1.4-43.5-5.7-63.5-14.6c0.1-20.1-0.1-40.3,0.1-60.4
		c16.8,12.2,36.2,20.9,56.7,24.5c14.3,2.3,29.8,2.4,43.1-4c12.7-6.3,15-24.4,7.5-35.5c-7.1-8.5-17.5-13.2-27.3-17.8
		c-18.4-8.3-37.7-15.2-53.9-27.6c-11.4-8.9-20-21.4-23.3-35.4c-5-20.8-3.4-44.2,8.6-62.3C2138.3,382.7,2162.2,370,2186.6,365.6
		L2186.6,365.6z"/>
	<path class="st0" d="M1754.6,373.9c17.2-10.4,39.1-11.2,58-4.9c-0.1,20.8,0,41.7-0.1,62.5c-12.3-8-27.7-11.4-42.2-9.9
		c-17.7,2-31.8,15.6-39.1,31.2c-7.9,16.5-9.4,35.2-8.9,53.3c0,41.6,0,83.2,0,124.8c-20.5,0-41.1,0-61.6,0
		c-0.1-87,0.1-173.9-0.1-260.9c20.6-0.3,41.1-0.2,61.7-0.1c-0.1,14.9,0,29.9-0.1,44.8C1729,398.5,1739,382.7,1754.6,373.9
		L1754.6,373.9z"/>
	<path class="st0" d="M1306.5,369.9c20.7-0.1,41.4-0.3,62.1,0.1c-0.2,86.9,0,173.9-0.1,260.9c-20.7,0-41.3,0-62,0
		C1306.5,543.9,1306.6,456.9,1306.5,369.9L1306.5,369.9z"/>
	<path class="st0" d="M2071.5,430.8c-10.8-24.1-30.4-44.2-54.5-55.1c-27.8-12.7-59.4-14.4-89.4-10.5c-31.5,4-62.1,18.8-82.1,43.9
		c-18.2,22.4-27.1,51.2-28.8,79.8c-2.5,33.7,3.1,69.4,22.9,97.5c16.8,24.2,43.4,40.9,72.2,47.1c24,5,49.1,5.1,73.1,0.1
		c28.1-5.8,54.3-21.3,71.7-44.2c17-21.6,25.5-48.8,27.5-76C2085.9,485.3,2083.1,456.5,2071.5,430.8z M2011.2,550.6
		c-6,13.4-16.9,24.8-30.7,30.1c-16.1,6.2-34.3,6.6-50.9,2.2c-16.9-4.5-31.3-16.7-39.1-32.3c-10.1-20.1-11.6-43.3-9.5-65.3
		c1.9-20,8.9-40.6,24.1-54.5c11.1-10.3,26.2-15.4,41.1-16.2c18.8-1.2,38.7,4.1,52.2,17.7c14.4,14.2,20,34.8,21.6,54.4
		C2021.1,508.3,2020.2,530.7,2011.2,550.6z"/>
	<path class="st0" d="M2571.7,438.4c-9.6-25.9-28.8-48.3-53.6-60.7c-28.4-14.4-61.5-16.5-92.7-12.6c-25.1,3.2-49.8,12.8-69,29.6
		c-23.4,20.2-37.2,49.8-41.2,80.2c-3.9,30.3-2.5,62.3,9.8,90.7c11.9,27.9,35.3,50.5,63.4,61.6c27.8,10.9,58.7,12.2,88,7.4
		c29.9-4.9,58.3-20.7,76.8-44.9c19.8-25,28.3-57.4,28.3-88.9C2581.8,479.6,2579.2,458.2,2571.7,438.4z M2515.4,526.8
		c-2.4,13.7-7.1,27.4-16.1,38.3c-9.1,10.9-22.6,17.6-36.5,19.6c-15,2.2-30.7,1.2-44.7-4.9c-15.1-6.4-26.8-19.4-32.9-34.5
		c-7.4-17.9-8.9-37.7-7.4-56.9c1.4-18.5,6.7-37.6,18.9-52c11.2-13.5,28.3-20.9,45.6-21.9c17.6-1.2,36.5,2.8,50,14.8
		c12.5,10.4,19.4,25.9,22.6,41.6C2518.4,489.4,2518.4,508.4,2515.4,526.8z"/>
	<path class="st0" d="M65.6,463.5c96.3,0,192.5,0,288.8,0c0,96.3,0,192.5,0,288.8H65.6V463.5L65.6,463.5z"/>
	<path class="st0" d="M383.9,463.6c96.2,0,192.5,0,288.8,0c0,96.3,0,192.5,0,288.8H383.8C383.9,656.1,383.8,559.8,383.9,463.6
		L383.9,463.6z"/>
</g>
</svg>
