<?xml version="1.0" encoding="utf-8"?>
<!-- Generator: Adobe Illustrator 22.1.0, SVG Export Plug-In . SVG Version: 6.00 Build 0)  -->
<svg version="1.1" id="Layer_1" xmlns="http://www.w3.org/2000/svg" xmlns:xlink="http://www.w3.org/1999/xlink" x="0px" y="0px"
	 viewBox="0 0 612 792" style="enable-background:new 0 0 612 792;" xml:space="preserve">
<style type="text/css">
	.st0{fill:#FFFFFF;}
	.st1{fill-rule:evenodd;clip-rule:evenodd;fill:#FFFFFF;}
</style>
<g>
	<polygon class="st0" points="549.3,49.7 554.4,49.7 554.4,46.6 540.5,46.6 540.5,49.7 545.7,49.7 545.7,63.7 549.3,63.7 	"/>
	<polygon class="st0" points="572.9,46.6 567.8,46.6 564.7,60.1 564.6,60.1 561.6,46.6 556.3,46.6 556.3,63.7 559.7,63.7 
		559.7,49.5 559.8,49.5 562.8,63.7 566.3,63.7 569.5,49.5 569.6,49.5 569.6,63.7 572.9,63.7 	"/>
	<polygon class="st0" points="401.4,492.3 284.3,219.9 206.1,403.4 290.3,403.4 329.7,492.3 	"/>
	<polygon class="st0" points="531.2,490.2 342.8,46.5 531.2,46.5 	"/>
	<polygon class="st0" points="226.2,46.5 39.1,487.2 39.1,46.5 	"/>
	<g>
		<path class="st0" d="M532.9,684.1c0-33.8-8.1-61.7-38.5-61.4c-26.6-0.3-42.2,27.5-42.2,61.4c0,33.8,14.9,60.9,49.2,60.1
			c17.8-0.4,22.9-3.8,27.8-7.2l-6.1-24c-4.9,4.7-12.2,6.8-19.5,6.6c-15.6-0.4-22.7-11.3-23.9-28.6h53.1
			C532.8,688.7,532.9,686.4,532.9,684.1z M481.3,669c2.1-13.1,7.4-22.3,13.1-22.3c5.6,0,9.7,9,11.3,22.3H481.3z"/>
		<path class="st0" d="M298.6,622.7c-27.9,0-42.1,27.5-42.1,61.4c0,33.8,14.2,61.4,42.1,61.4c27.9,0,42.2-27.6,42.2-61.4
			C340.8,650.2,326.5,622.7,298.6,622.7z M298.6,721.5c-7.5,0-13.7-16.8-13.7-37.4c0-20.6,6.2-37.4,13.7-37.4
			c7.5,0,13.7,16.8,13.7,37.4C312.3,704.7,306.1,721.5,298.6,721.5z"/>
		<path class="st0" d="M438.1,685.4c-0.7-23.9-10.9-61.3-38-60.8c-5.5,0.1-10.9,1.8-16,4.4v-51.7h-29.7v166.4h26.4v-6.8
			c5.8,4.7,12.5,8.7,20.8,8.6C425.9,745.4,438.8,709.6,438.1,685.4z M396,721.7c-5.5,0.2-9.2-5.3-11.9-12.7v-50
			c2.9-6.1,6.9-10.9,12.3-10.3c9.9,1.1,13.3,23.9,13.3,37.1C409.6,698.7,404.4,721.6,396,721.7z"/>
		<path class="st0" d="M209.4,577.3V629c-5.1-2.6-10.5-4.3-16-4.4c-27.2-0.5-37.4,36.9-38,60.8c-0.7,24.2,12.2,60,36.6,60.1
			c8.3,0.1,15-3.9,20.8-8.6v6.8h26.4V577.3H209.4z M209.4,709.1c-2.9,7.3-6.5,12.9-11.9,12.7c-8.4-0.1-13.6-23.1-13.6-35.9
			c-0.1-13.2,3.3-35.9,13.3-37.1c5.4-0.6,9.4,4.2,12.3,10.3V709.1z"/>
		<path class="st0" d="M116.1,582.5H85.5L49.4,743.7h28.8l8-42.2h27.5l7.6,42.2h28.7L116.1,582.5z M90.7,677.2l9.4-50l9.1,50H90.7z"
			/>
	</g>
</g>
</svg>
