<svg id="Capa_1" data-name="Capa 1" xmlns="http://www.w3.org/2000/svg" viewBox="0 0 112 90"><defs><style>.cls-1{fill:#7ac3f6;}</style></defs><title>ICONOS-WEB-desarrollo-apps</title><circle class="cls-1" cx="30.42" cy="14.34" r="8.22"/><circle class="cls-1" cx="81.72" cy="14.42" r="8.22"/><circle class="cls-1" cx="81.65" cy="58.23" r="8.19"/><circle class="cls-1" cx="30.35" cy="58.15" r="8.22"/><path class="cls-1" d="M92.83,34.16a11.13,11.13,0,0,0-22.24,0V38l-6.47,6.87-16,0-6.63-7.08v-3.7a10.89,10.89,0,0,0-11.11-10.7A10.91,10.91,0,0,0,19.23,34V40l19.9,0,5.45,5.83,0,12.9L38.13,70.26a11.27,11.27,0,0,0-7.79-3.1A10.92,10.92,0,0,0,19.18,77.82v5.94l22.24,0v-6a10.27,10.27,0,0,0-1.2-4.76l7.72-13.73,16.27,0L71.8,73a10.36,10.36,0,0,0-1.31,4.91v5.95l22.23,0V77.94a10.88,10.88,0,0,0-11.08-10.7,11.39,11.39,0,0,0-7.68,3l-7-12.66,0-10.92,6.14-6.55,19.75,0v-6Z"/></svg>