<svg id="Capa_1" data-name="Capa 1" xmlns="http://www.w3.org/2000/svg" viewBox="0 0 112 90"><defs><style>.cls-1{fill:#7ac3f6;}</style></defs><title>ICONOS-WEB-desarrollo-apps</title><path class="cls-1" d="M53.38,86.68v-11A10.88,10.88,0,0,1,38,65.66,10.91,10.91,0,0,1,48.7,54.92h.14a10.91,10.91,0,0,1,4.54,1V45h-13c.32-.56.78-1.24,1.32-2a9,9,0,0,0,1.78-5.24A8.3,8.3,0,0,0,35.3,29.6h-.12a8.28,8.28,0,0,0-8.28,8.28A9.09,9.09,0,0,0,28.67,43c.5.72,1,1.47,1.33,2H17.84a3.47,3.47,0,0,0-3.48,3.47V83.2a3.48,3.48,0,0,0,3.48,3.48Z"/><path class="cls-1" d="M86.72,47.57a10.93,10.93,0,0,1,1,4.55A10.89,10.89,0,0,1,76.82,63h-.15a10.9,10.9,0,0,1-9.75-15.44H56V60.63c-.46-.27-1.31-.84-2.1-1.38a8.89,8.89,0,0,0-5-1.72h-.11a8.28,8.28,0,0,0,.11,16.56,9.39,9.39,0,0,0,5-1.72c.92-.58,1.64-1.11,2.1-1.38V86.63H94.15a3.48,3.48,0,0,0,3.48-3.48V47.57Z"/><path class="cls-1" d="M94.16,3.32H56v16s1.4-1.21,1.85-1.53a8.28,8.28,0,1,1,5.39,14.66h-.1a8.23,8.23,0,0,1-5.29-1.91C57.4,30.2,56,29,56,29V45H71.64c-.12.25-.82,1.31-1.39,2.12a8.62,8.62,0,0,0-1.71,5.14A8.3,8.3,0,0,0,76.7,60.4h.12a8.27,8.27,0,0,0,8.28-8.28,8.91,8.91,0,0,0-1.71-5c-.63-.92-1.11-1.63-1.37-2.08l0,0H97.64V6.8A3.48,3.48,0,0,0,94.16,3.32Z"/></svg>