<svg id="Capa_1" data-name="Capa 1" xmlns="http://www.w3.org/2000/svg" viewBox="0 0 112 90"><defs><style>.cls-1{fill:#7ac3f6;}</style></defs><title>ICONOS-WEB-desarrollo-apps</title><path class="cls-1" d="M93.64,32.48H45.79a8.46,8.46,0,0,0-8.43,8.43V71.22a8.46,8.46,0,0,0,8.43,8.43H93.64a8.46,8.46,0,0,0,8.43-8.43V40.91A8.44,8.44,0,0,0,93.64,32.48Zm3.89,38.85a3.07,3.07,0,0,1-3.06,3.06H45.69a3.07,3.07,0,0,1-3.06-3.06V50h54.9Zm0-29.36H42.63V40.82a3.07,3.07,0,0,1,3.06-3.06H94.47a3.07,3.07,0,0,1,3.06,3.06Z"/><path class="cls-1" d="M45.18,27.28H74.86l-6-12.23A8.45,8.45,0,0,0,57.5,11.23L14.63,32.42a8.45,8.45,0,0,0-3.82,11.32L24.25,70.91A8.46,8.46,0,0,0,34,75.32a12.69,12.69,0,0,1-1.78-6.51V40.23A13,13,0,0,1,45.18,27.28Z"/><path class="cls-1" d="M51.27,71.1a5.39,5.39,0,0,0,4.14-1.91,5.47,5.47,0,1,0,0-7.11,5.46,5.46,0,1,0-4.14,9Z"/></svg>