<svg id="Capa_1" data-name="Capa 1" xmlns="http://www.w3.org/2000/svg" viewBox="0 0 112 90"><defs><style>.cls-1{fill:#7ac3f6;}</style></defs><title>ICONOS-WEB-desarrollo-apps</title><path class="cls-1" d="M96.69,81.85H94.82V21.62a.87.87,0,0,0-.87-.74H70.52v3.35a5.37,5.37,0,0,1-5.35,5.36H61.09a5.43,5.43,0,0,1-5.36-4.83,5.38,5.38,0,0,1-5.35,4.83H46.3a5.21,5.21,0,0,1-5.16-5.36V20.88H17.72c-.4,0-.54.33-.54.74V81.85H15.31a2,2,0,1,0,0,4H96.69a2,2,0,0,0,0-4ZM74.07,32.27h10v10h-10Zm0,15.41h10v10h-10Zm0,15.41h10v10h-10ZM58.68,32.27h10v10h-10Zm0,15.41h10v10h-10Zm10,15.41V81.85H57.34V63.09ZM43.28,32.27h10v10h-10Zm0,15.41h10v10h-10ZM27.89,32.27h10v10h-10Zm0,15.41h10v10h-10Zm0,15.41h10v10h-10Zm15.39,0H54.66V81.85H43.28Z"/><path class="cls-1" d="M46.43,25.57h4.08a1.34,1.34,0,0,0,1.34-1.34v-6H60v6c0,.74.4,1.34,1.13,1.34h4.09a1.34,1.34,0,0,0,1.33-1.34L66.51,5.47a1.35,1.35,0,0,0-1.34-1.34h-4c-.73,0-1.13.67-1.13,1.4v6h-8.1l-.07-6a1.41,1.41,0,0,0-1.4-1.34h-4c-.74-.06-1.14.61-1.14,1.34v18.7A1.18,1.18,0,0,0,46.43,25.57Z"/></svg>