<svg id="Capa_1" data-name="Capa 1" xmlns="http://www.w3.org/2000/svg" viewBox="0 0 112 90"><defs><style>.cls-1{fill:#7ac3f6;}</style></defs><title>ICONOS-WEB-desarrollo-apps</title><path class="cls-1" d="M78.37,83.7H33.94c-5.94,0-6.19-6-6.19-6V11.81c0-5.7,6-5.51,6-5.51H78.27c5.46,0,6,5.79,6,5.79v65.7S84.5,83.7,78.37,83.7ZM53,21.31H38.1a1.44,1.44,0,0,0,0,2.88H53a1.44,1.44,0,0,0,0-2.88Zm.09,6h-15a1.44,1.44,0,0,0,0,2.88h15a1.44,1.44,0,1,0,0-2.88Zm0,5.94h-15a1.45,1.45,0,0,0,0,2.89h15a1.45,1.45,0,0,0,0-2.89Zm19.36,8.92H39.54A2.88,2.88,0,0,0,36.67,45a3,3,0,0,0,2.87,3H72.42a3,3,0,0,0,2.88-3A2.87,2.87,0,0,0,72.42,42.12Zm0,11.89H39.54a3,3,0,0,0-2.87,3,2.88,2.88,0,0,0,2.87,2.88H72.42A2.88,2.88,0,0,0,75.3,57,3,3,0,0,0,72.42,54Zm0,11.89H39.54a2.88,2.88,0,0,0-2.87,2.88,3,3,0,0,0,2.87,3H72.42a3,3,0,0,0,2.88-3A2.87,2.87,0,0,0,72.42,65.9Z"/></svg>