<svg id="Capa_1" data-name="Capa 1" xmlns="http://www.w3.org/2000/svg" viewBox="0 0 112 90"><defs><style>.cls-1{fill:#7ac3f6;}</style></defs><title>ICONOS-WEB-desarrollo-apps</title><path class="cls-1" d="M94.21,5.9H17.8a5.32,5.32,0,0,0-5.3,5.3V66.13a5.32,5.32,0,0,0,5.3,5.3H94.21a5.31,5.31,0,0,0,5.29-5.3V11.2A5.31,5.31,0,0,0,94.21,5.9ZM92.87,62.24H19.13V13.33H92.87Z"/><polygon class="cls-1" points="46.2 73.94 36.2 84.1 75.95 84.1 65.95 73.94 46.2 73.94"/><path class="cls-1" d="M30.39,52.43a3.55,3.55,0,0,0,3.54-3.54,3.42,3.42,0,0,0-.2-1C38.26,44.24,46.26,37.8,49.91,35a3.18,3.18,0,0,0,3.7.2L62.77,43a2.9,2.9,0,0,0-.12.6,3.55,3.55,0,1,0,6.9-1l9.16-8.27a3.48,3.48,0,1,0-1.66-1.79l-9,8.11A3.41,3.41,0,0,0,66.2,40a3.48,3.48,0,0,0-2.17.82l-8.82-7.5a3.48,3.48,0,0,0,.24-1.21,3.54,3.54,0,1,0-7.08,0,3.48,3.48,0,0,0,.24,1.21L32.35,46a3.46,3.46,0,0,0-2-.68,3.55,3.55,0,0,0,0,7.09Z"/></svg>