<svg id="Capa_1" data-name="Capa 1" xmlns="http://www.w3.org/2000/svg" viewBox="0 0 112 90"><defs><style>.cls-1{fill:#7ac3f6;}</style></defs><title>ICONOS-WEB-desarrollo-apps</title><path class="cls-1" d="M83.29,78.06a2.36,2.36,0,0,1-2.36,2.35H26.53a2.36,2.36,0,0,1-2.35-2.35v-1H74.82a4.69,4.69,0,0,0,4.69-4.68V9.57a4.68,4.68,0,0,0-4.69-4.69H24.18a4.7,4.7,0,0,0-4.69,4.69V78.08a7.06,7.06,0,0,0,7,7h54.4a7.06,7.06,0,0,0,7-7V68.33H83.29v9.73ZM32.79,29.62a4.83,4.83,0,0,1,1.52-3.26c1-1,2-2,3-3a2.84,2.84,0,0,1,4.24,0c.81.8,1.61,1.59,2.4,2.4l2.34,2.34a2.82,2.82,0,0,1,0,4.34c-1,1-1.94,2-2.93,2.91a.59.59,0,0,0-.15.78,16.84,16.84,0,0,0,2.65,4.25,30.45,30.45,0,0,0,7.42,6.76c.61.38,1.29.66,1.93,1A.62.62,0,0,0,56,48c1-1,2-2,3-3a2.79,2.79,0,0,1,4.24,0q2.39,2.35,4.77,4.76a2.86,2.86,0,0,1,0,4.33c-.89.91-1.85,1.77-2.69,2.73a5.35,5.35,0,0,1-4.57,1.74,19.07,19.07,0,0,1-7.27-2.12A39.74,39.74,0,0,1,40.29,46.24a36.33,36.33,0,0,1-6.41-10.66A13.78,13.78,0,0,1,32.79,29.62Z"/><path class="cls-1" d="M89.69,31.39H83.43V45.15h6.26a2.82,2.82,0,0,0,2.82-2.82V34.21A2.82,2.82,0,0,0,89.69,31.39Z"/><path class="cls-1" d="M89.69,49.69H83.43V63.44h6.26a2.81,2.81,0,0,0,2.82-2.81V52.5A2.81,2.81,0,0,0,89.69,49.69Z"/><path class="cls-1" d="M89.69,13.1H83.43V26.85h6.26A2.81,2.81,0,0,0,92.51,24V15.91A2.81,2.81,0,0,0,89.69,13.1Z"/></svg>