<svg id="Capa_1" data-name="Capa 1" xmlns="http://www.w3.org/2000/svg" viewBox="0 0 112 90"><defs><style>.cls-1{fill:#7ac3f6;}</style></defs><title>ICONOS-WEB-desarrollo-apps</title><path class="cls-1" d="M64.57,22.11a15.07,15.07,0,0,1,7,11.18,12.14,12.14,0,1,0-7-11.18ZM56.61,47A12.15,12.15,0,1,0,44.46,34.84,12.14,12.14,0,0,0,56.61,47Zm5.15.83H51.46A15.58,15.58,0,0,0,35.9,63.36V76l0,.2.87.27A71,71,0,0,0,58,79.85c11.43,0,18.06-3.26,18.46-3.47l.81-.41h.09V63.36A15.57,15.57,0,0,0,61.76,47.81Zm20.1-12.54H71.63A15,15,0,0,1,67,45.7a18.48,18.48,0,0,1,13.2,17.68v3.89c10.1-.37,15.92-3.23,16.3-3.43l.81-.41h.09V50.82A15.57,15.57,0,0,0,81.86,35.27ZM35.3,34.45a12.09,12.09,0,0,0,6.46-1.88A15,15,0,0,1,47.41,23c0-.22,0-.45,0-.68A12.15,12.15,0,1,0,35.3,34.45ZM46.21,45.7a15,15,0,0,1-4.62-10.37c-.38,0-.76-.06-1.14-.06H30.14A15.57,15.57,0,0,0,14.59,50.82V63.43l0,.19.87.28A73.1,73.1,0,0,0,33,67.19V63.38A18.49,18.49,0,0,1,46.21,45.7Z"/></svg>