<svg id="Capa_1" data-name="Capa 1" xmlns="http://www.w3.org/2000/svg" viewBox="0 0 112 90"><defs><style>.cls-1{fill:#7ac3f6;}</style></defs><title>ICONOS-WEB-desarrollo-apps</title><path class="cls-1" d="M86,16.2H80.26V12.25A5.25,5.25,0,0,0,75,7H74.8a5.25,5.25,0,0,0-5.25,5.25V16.2H42.45V12.25A5.25,5.25,0,0,0,37.2,7H37a5.25,5.25,0,0,0-5.25,5.25V16.2H26a5.25,5.25,0,0,0-5.25,5.25v56.3A5.25,5.25,0,0,0,26,83H86a5.25,5.25,0,0,0,5.25-5.25V21.45A5.25,5.25,0,0,0,86,16.2ZM82.47,74.7H29.53V32.06H82.47Z"/><path class="cls-1" d="M36.73,51.35h9.13a.83.83,0,0,0,.84-.84V41.38a.83.83,0,0,0-.84-.84H36.73a.83.83,0,0,0-.84.84v9.13A.83.83,0,0,0,36.73,51.35Z"/><path class="cls-1" d="M51.43,51.35h9.14a.84.84,0,0,0,.84-.84V41.38a.84.84,0,0,0-.84-.84H51.43a.84.84,0,0,0-.84.84v9.13A.84.84,0,0,0,51.43,51.35Z"/><path class="cls-1" d="M66.14,51.35h9.13a.83.83,0,0,0,.84-.84V41.38a.83.83,0,0,0-.84-.84H66.14a.83.83,0,0,0-.84.84v9.13A.83.83,0,0,0,66.14,51.35Z"/><path class="cls-1" d="M36.73,66.06h9.13a.84.84,0,0,0,.84-.84V56.08a.84.84,0,0,0-.84-.84H36.73a.84.84,0,0,0-.84.84v9.14A.84.84,0,0,0,36.73,66.06Z"/><path class="cls-1" d="M51.43,66.06h9.14a.85.85,0,0,0,.84-.84V56.08a.85.85,0,0,0-.84-.84H51.43a.85.85,0,0,0-.84.84v9.14A.85.85,0,0,0,51.43,66.06Z"/><path class="cls-1" d="M66.14,66.06h9.13a.84.84,0,0,0,.84-.84V56.08a.84.84,0,0,0-.84-.84H66.14a.84.84,0,0,0-.84.84v9.14A.84.84,0,0,0,66.14,66.06Z"/></svg>