<?xml version="1.0" encoding="utf-8"?>
<!-- Generator: Adobe Illustrator 22.1.0, SVG Export Plug-In . SVG Version: 6.00 Build 0)  -->
<svg version="1.1" id="Capa_1" xmlns="http://www.w3.org/2000/svg" xmlns:xlink="http://www.w3.org/1999/xlink" x="0px" y="0px"
	 viewBox="0 0 112 90" style="enable-background:new 0 0 112 90;" xml:space="preserve">
<style type="text/css">
	.st0{fill:#263238;}
</style>
<g>
	<path class="st0" d="M54,56.5c0.6,0.5,1.3,0.8,2,0.8c0.7,0,1.4-0.3,2-0.8c0.7-0.6,18-16,18-32c0-11-9-20-20-20c-11,0-20,9-20,20
		C36,40.5,53.2,55.8,54,56.5z M56,19.3c2.9,0,5.2,2.3,5.2,5.2c0,2.9-2.3,5.2-5.2,5.2c-2.9,0-5.2-2.3-5.2-5.2
		C50.8,21.6,53.1,19.3,56,19.3z"/>
	<path class="st0" d="M94.5,56.5l-2.3-8.1c-0.4-1.3-1.6-2.2-3-2.2H72.6c-0.6,0.9-1.2,1.8-1.9,2.7c-4.6,6.2-9.4,10.4-9.9,10.9
		c-1.3,1.2-3.1,1.8-4.9,1.8c-1.8,0-3.5-0.7-4.9-1.8c-0.5-0.5-5.2-4.7-9.9-10.9c-0.7-0.9-1.3-1.8-1.9-2.7H22.8c-1.4,0-2.6,0.9-3,2.2
		L17.1,58l61.8,11.3L94.5,56.5z"/>
	<path class="st0" d="M101.6,81.6l-5.9-20.8L66.3,85.5h32.4c1,0,1.9-0.5,2.5-1.2C101.7,83.5,101.9,82.5,101.6,81.6z"/>
	<path class="st0" d="M25.3,63.9l-9.4-1.7l-5.5,19.4c-0.3,0.9-0.1,1.9,0.5,2.7c0.6,0.8,1.5,1.2,2.5,1.2h12V63.9z"/>
	<polygon class="st0" points="29.6,64.7 29.6,85.5 59.6,85.5 74.6,72.9 	"/>
</g>
</svg>
