<?xml version="1.0" encoding="utf-8"?>
<!-- Generator: Adobe Illustrator 22.1.0, SVG Export Plug-In . SVG Version: 6.00 Build 0)  -->
<svg version="1.1" id="Capa_1" xmlns="http://www.w3.org/2000/svg" xmlns:xlink="http://www.w3.org/1999/xlink" x="0px" y="0px"
	 viewBox="0 0 112 90" style="enable-background:new 0 0 112 90;" xml:space="preserve">
<style type="text/css">
	.st0{fill:#263238;}
</style>
<g>
	<g>
		<path class="st0" d="M6.3,5.7v1.7c0,3.3,2.7,6,6,6H23v3.1H10.4v1.3c0,2.6,2.2,4.8,4.8,4.8H23v19.1c-2.6,1.4-4.5,4.1-4.5,7.3
			c0,4.5,3.7,8.2,8.2,8.2c2.4,0,4.5-1,6-2.6l8.4,2.3L38,68.3c-0.4,1.3,0.4,2.7,1.8,3l39.5,10.6c0.2,0.1,0.4,0.1,0.6,0.1
			c0.7,0,1.4-0.3,1.9-0.8L102,58.4c0.6-0.6,0.8-1.5,0.5-2.4c-0.2-0.8-0.9-1.5-1.7-1.7L48.1,40.2c-0.6-0.2-1.3-0.1-1.9,0.2
			c-0.6,0.3-1,0.9-1.2,1.5L43,49.6l-8.3-2.3c-0.5-2.5-2.1-4.5-4.3-5.6V22.6h7.8c2.6,0,4.8-2.2,4.8-4.8v-1.3H30.4v-3.1h10.7
			c3.3,0,6-2.7,6-6V5.7C47.2,5.7,6.3,5.7,6.3,5.7z"/>
		<path class="st0" d="M101.8,63.1L86,80.9l12.4,3.3c0.2,0.1,0.4,0.1,0.6,0.1c1.1,0,2.1-0.7,2.4-1.8l4.2-15.8
			c0.2-0.6,0.1-1.3-0.2-1.9c-0.3-0.6-0.9-1-1.5-1.2L101.8,63.1z"/>
	</g>
</g>
</svg>
