<?xml version="1.0" encoding="utf-8"?>
<!-- Generator: Adobe Illustrator 22.1.0, SVG Export Plug-In . SVG Version: 6.00 Build 0)  -->
<svg version="1.1" id="Capa_1" xmlns="http://www.w3.org/2000/svg" xmlns:xlink="http://www.w3.org/1999/xlink" x="0px" y="0px"
	 viewBox="0 0 112 90" style="enable-background:new 0 0 112 90;" xml:space="preserve">
<style type="text/css">
	.st0{fill:#263238;}
</style>
<g>
	<path class="st0" d="M35.7,85l26-26.1c1.1-1.1,0.3-2.9-1.2-2.9h-2.1c-1.4,0-2.2-1.6-1.3-2.7L70.9,36c0.9-1.1,0.1-2.7-1.3-2.7h-6.9
		c-1.4,0-2.2-1.6-1.4-2.7L78.8,7.1c0.8-1.1,0-2.7-1.4-2.7H49.7c-0.6,0-1.2,0.4-1.5,0.9L34.6,32.9c-0.6,1.1,0.3,2.4,1.5,2.4h6.3
		c1.3,0,2.1,1.3,1.5,2.4l-9.3,18.8C34,57.7,34.8,59,36.1,59H42c1.3,0,2.1,1.3,1.5,2.4L33,83.1C32.2,84.8,34.4,86.4,35.7,85z"/>
</g>
</svg>
